<svg width="41" height="41" viewBox="0 0 41 41" fill="none" xmlns="http://www.w3.org/2000/svg">
<rect x="0.5" y="0.5" width="40" height="40" rx="2" fill="#036AFF"/>
<path d="M18.5345 19.2633L27.7979 10L30.2724 12.4745L28.6227 14.1242L31.0972 16.5987L26.973 20.724L24.4985 18.2495L21.0102 21.7378C21.6525 22.9737 21.8316 24.3985 21.5152 25.7549C21.1988 27.1113 20.4077 28.3097 19.2848 29.1338C18.1619 29.9578 16.7814 30.3531 15.3925 30.2482C14.0037 30.1432 12.6982 29.5451 11.7119 28.5617C10.725 27.5764 10.1238 26.2703 10.0171 24.8799C9.91041 23.4895 10.3053 22.1069 11.1303 20.9827C11.9552 19.8584 13.1556 19.0668 14.5139 18.7514C15.8722 18.436 17.2986 18.6176 18.5345 19.2633V19.2633ZM17.4857 26.086C17.7085 25.8708 17.8863 25.6133 18.0086 25.3286C18.1309 25.0439 18.1953 24.7378 18.1979 24.4279C18.2006 24.1181 18.1416 23.8109 18.0243 23.5241C17.907 23.2374 17.7337 22.9768 17.5146 22.7577C17.2955 22.5387 17.035 22.3654 16.7483 22.2481C16.4615 22.1308 16.1542 22.0717 15.8444 22.0744C15.5346 22.0771 15.2284 22.1415 14.9437 22.2638C14.6591 22.3861 14.4016 22.5638 14.1864 22.7867C13.7613 23.2267 13.5261 23.8161 13.5315 24.4279C13.5368 25.0397 13.7822 25.625 14.2148 26.0576C14.6474 26.4902 15.2326 26.7356 15.8444 26.7409C16.4562 26.7462 17.0456 26.511 17.4857 26.086Z" fill="#D1D7F4"/>
</svg>
