<svg width="259" height="72" viewBox="0 0 259 72" fill="none" xmlns="http://www.w3.org/2000/svg">
<rect y="11" width="254" height="61" rx="8" fill="#F3F4F4"/>
<rect x="11" y="1" width="247" height="60" rx="7" fill="white" stroke="#D0D3D3" stroke-width="2"/>
<rect x="67" y="13" width="81" height="7" rx="2" fill="#717A7C"/>
<rect x="67" y="33" width="122" height="5" rx="2" fill="#C4C4C4"/>
<rect x="67" y="43" width="57" height="5" rx="2" fill="#C4C4C4"/>
<path d="M223.218 17.8C224.046 16.7333 225.647 16.7333 226.475 17.8L227.192 18.7237C227.738 19.4263 228.666 19.7012 229.501 19.4076L230.599 19.0216C231.868 18.5758 233.214 19.4488 233.339 20.7977L233.447 21.9658C233.53 22.8543 234.163 23.5917 235.023 23.8003L236.154 24.0746C237.46 24.3913 238.125 25.86 237.507 27.0629L236.972 28.1046C236.565 28.8969 236.703 29.8627 237.314 30.5073L238.119 31.3547C239.048 32.3333 238.82 33.9315 237.655 34.6065L236.647 35.191C235.88 35.6356 235.478 36.5231 235.647 37.399L235.87 38.5505C236.126 39.8804 235.078 41.1006 233.737 41.0334L232.575 40.9752C231.692 40.9309 230.878 41.4583 230.551 42.2875L230.121 43.3775C229.624 44.6364 228.088 45.0912 226.996 44.3031L226.05 43.6206C225.33 43.1015 224.363 43.1015 223.643 43.6206L222.697 44.3031C221.605 45.0912 220.069 44.6364 219.572 43.3775L219.142 42.2875C218.815 41.4584 218.002 40.9309 217.118 40.9752L215.956 41.0334C214.615 41.1006 213.567 39.8804 213.824 38.5505L214.046 37.399C214.215 36.5231 213.814 35.6356 213.046 35.191L212.038 34.6065C210.873 33.9315 210.646 32.3333 211.575 31.3547L212.379 30.5073C212.991 29.8627 213.128 28.8969 212.721 28.1046L212.186 27.0629C211.568 25.86 212.233 24.3913 213.539 24.0746L214.67 23.8003C215.53 23.5917 216.164 22.8543 216.246 21.9658L216.354 20.7977C216.479 19.4488 217.826 18.5758 219.094 19.0216L220.192 19.4076C221.028 19.7012 221.956 19.4263 222.501 18.7237L223.218 17.8Z" fill="#418FA0"/>
<path d="M219.308 30.1381L223.001 34.5392L230.385 27.1543" stroke="white" stroke-width="2" stroke-linecap="round" stroke-linejoin="round"/>
<rect x="23" y="13" width="34.7775" height="34.7775" rx="8" fill="#8347E5"/>
</svg>
