<svg width="186" height="159" viewBox="0 0 186 159" fill="none" xmlns="http://www.w3.org/2000/svg">
<path d="M68.0848 0C76.9363 0.651118 85.7176 10.6239 89.7797 17.9943C98.0754 32.0325 96.7799 49.0048 103.189 63.7024C106.419 71.4457 111.582 78.3978 118.508 83.2359C120.12 84.637 121.584 86.2195 123.442 87.328C129.601 93.763 115.123 96.8063 111.305 99.3861C113.601 100.87 118.349 103.109 114.181 105.712C106.237 109.559 97.7469 112.116 89.4739 115.155C78.7298 118.514 68.3555 123.603 57.1981 125.367C50.9995 125.573 45.4642 122.567 40.9083 118.693C14.2649 96.5282 32.0878 65.0582 1.98348 40.872C-0.361634 39.5368 -0.405012 36.5986 0.704528 34.6905C3.31825 30.9116 8.24402 29.5393 12.5045 28.4946C13.2401 28.3545 13.2607 28.2041 12.8144 27.6231C12.3454 27.0049 11.9363 26.3497 11.4735 25.7315C9.85565 24.1058 8.20889 22.0123 10.5086 20.2011C16.2773 15.5444 23.4986 13.1419 30.3439 10.5291C42.6687 6.26597 55.041 1.51241 68.0848 0ZM68.4608 2.36132C53.043 4.68969 38.119 10.0841 23.6123 15.6619C19.5812 17.473 15.2256 18.8948 11.6697 21.5672C9.19033 23.5618 15.7298 26.1539 16.8207 27.5303C20.1039 30.2852 22.5379 33.7551 24.6206 37.4207C39.1872 62.5114 30.3522 94.208 60.6651 110.156C62.6135 111.312 64.7272 111.728 67.0228 111.051C72.1345 109.54 77.3227 108.273 82.3869 106.627C95.6105 101.929 109.687 98.7267 121.905 91.6942C124.7 89.9778 121.427 87.6866 119.632 86.8521C112.917 83.5553 107.797 77.7302 104.02 71.3736C92.288 51.6979 97.47 25.0021 79.7856 8.32236C77.926 6.49263 75.8598 4.88751 73.835 3.22469C72.213 2.33867 70.4836 2.68688 68.4608 2.36132ZM55.353 123.626C74.8763 118.977 93.3108 110.725 112.187 104.018C115.028 103.285 109.187 101.121 108.506 100.612C94.8026 104.389 81.4675 110.447 67.4277 113.453C64.7417 114.246 62.3098 113.531 60.1135 111.728C56.7654 110.205 53.6092 108.294 50.7103 106.033C36.7139 95.1126 33.7014 76.8401 30.4327 60.4962C28.1269 49.7157 23.8788 39.1618 16.5067 30.8106C15.8434 30.0627 15.1947 29.8298 14.2153 30.2193C12.1656 31.0311 10.0519 31.6863 8.01674 32.5044C5.58277 33.5346 0.646673 35.8012 2.96286 39.0155C16.7319 48.0096 23.1908 64.7017 25.4532 80.4707C26.9843 94.8015 32.0464 109.612 43.958 118.606C47.1048 121.693 51.2557 122.633 55.353 123.626Z" fill="black"/>
<path d="M68.4616 2.36133C70.4782 2.68071 72.2117 2.34072 73.8337 3.23498C75.8482 4.8978 77.9309 6.50293 79.7863 8.33265C97.4687 25.0103 92.2847 51.6917 104.019 71.3839C107.8 77.7426 112.903 83.5574 119.631 86.8624C121.422 87.699 124.689 89.9882 121.903 91.7025C109.686 98.7391 95.605 101.937 82.3856 106.639C77.3214 108.287 72.1332 109.551 67.0214 111.061C64.7259 111.739 62.6122 111.323 60.6638 110.169C30.3302 94.1895 39.2003 62.5712 24.6192 37.4331C19.0075 25.9602 8.52368 24.1079 11.6684 21.5673C15.2222 18.8886 19.5819 17.4751 23.6109 15.6619C38.1197 10.0841 53.0458 4.68763 68.4616 2.36133ZM92.0057 74.7899C81.5054 77.38 71.16 81.6205 60.951 85.2614C58.265 86.4977 54.7339 87.6 57.4509 91.0122C59.1142 95.2836 62.3436 98.5021 65.6702 101.521C66.9677 102.774 68.5422 103.025 70.2695 102.458C76.8689 100.34 83.4827 98.2673 90.0862 96.1573C94.136 94.171 109.198 92.8481 105.072 86.0279C103.711 83.8458 101.711 82.1686 99.9543 80.3183C97.4894 78.0002 95.979 74.8229 92.0057 74.7899V74.7899ZM47.4568 73.4589C61.5791 69.956 75.6271 65.2807 88.9395 59.3959C90.0243 58.9983 89.4375 57.3684 88.3197 57.7991C74.3295 62.1694 60.6659 67.7162 46.6406 72.0309C45.624 72.6079 46.5952 73.43 47.4568 73.4589V73.4589ZM43.9442 63.5561C57.5211 59.6411 70.8728 55.0442 84.4249 51.0324C85.4167 50.542 87.799 50.439 88.0242 49.2583C86.3423 46.421 68.5607 53.9274 64.761 54.7104C63.2341 55.6561 39.3718 62.1385 43.936 63.5561H43.9442ZM33.2228 30.5366C47.3844 26.5392 61.5295 22.4718 75.3978 17.5554C76.5589 17.2587 76.0858 15.6619 74.9411 15.8926C70.16 16.5623 65.6764 18.5363 61.0543 19.8612C51.7296 23.0755 42.0702 25.4801 32.9542 29.2344C32.2373 29.7701 32.5389 30.2255 33.2146 30.5366H33.2228ZM27.1792 24.316C41.3243 20.7575 55.395 16.6385 69.2013 11.953C70.1 11.4028 69.7095 10.7167 68.8913 10.3993C61.3436 11.0875 54.1326 14.6192 46.7832 16.5376C40.2251 18.6599 33.6175 20.6586 27.109 22.9251C26.7267 23.0735 26.4437 23.4876 26.1172 23.7782L27.1792 24.316ZM45.4071 48.9389C58.7257 48.5268 55.6636 30.0812 43.1922 34.1878C40.3408 35.1913 38.2457 38.249 38.4069 41.0843C38.4565 41.9847 38.7437 42.8522 38.4895 43.7918C39.0784 46.9814 42.6674 48.8194 45.3988 48.9389H45.4071ZM56.1698 34.1528C63.8254 32.1681 71.3724 29.7877 78.7801 27.0214C79.2243 26.8566 79.6499 26.5742 79.4702 26.0035C78.995 24.7672 76.5093 25.7975 75.5155 25.9108C74.0795 26.8277 51.4383 32.5044 56.1698 34.1528ZM51.6821 80.8972C56.8186 79.9989 61.825 78.1156 66.821 76.6094C67.6206 76.5187 68.8665 75.5297 67.6165 75.0372C62.168 75.1382 57.0067 77.4645 51.7833 78.8429C50.0292 79.1953 49.2998 80.9096 51.6821 80.8972ZM59.5171 39.6048C63.385 38.7271 67.2549 37.1323 71.0732 35.9619C71.8398 35.5271 73.6043 35.4179 73.4018 34.2475C72.4162 32.2365 62.7031 36.6604 60.5481 37.1075C59.6493 37.5856 57.7319 37.6907 57.862 39.0238C58.1451 39.7944 58.7732 39.5554 59.5191 39.6048H59.5171Z" fill="white"/>
<path d="M55.3539 123.626C51.2484 122.624 47.1119 121.701 43.9486 118.602C32.0371 109.606 26.977 94.8015 25.4439 80.4666C23.1835 64.6997 16.7204 48.0034 2.95348 39.0114C0.610427 35.762 5.60853 33.5676 8.00736 32.5002C10.0529 31.676 12.1666 31.027 14.2059 30.2151C15.1853 29.8257 15.8341 30.0585 16.4973 30.8065C23.8695 39.1577 28.1175 49.7116 30.4234 60.4921C33.69 76.836 36.7046 95.1085 50.7009 106.029C53.827 108.58 57.3995 110.342 60.912 112.235C62.8335 113.964 65.1394 113.981 67.4184 113.449C81.456 110.445 94.7932 104.383 108.496 100.606C109.63 101.315 114.829 103.241 112.178 104.012C93.3118 110.725 74.8773 118.977 55.3539 123.626Z" fill="white"/>
<path d="M92.0054 74.79C95.9808 74.8209 97.4891 78.0024 99.954 80.3163C101.71 82.1708 103.71 83.8439 105.07 86.0259C109.213 92.8256 94.1191 94.1793 90.0859 96.1574C83.4742 98.2653 76.8624 100.338 70.2692 102.456C68.5419 103.023 66.9633 102.772 65.6699 101.519C62.3454 98.5023 59.1118 95.2838 57.4506 91.0103C54.7501 87.6002 58.2254 86.504 60.9507 85.2594C71.1576 81.6206 81.5071 77.3801 92.0054 74.79ZM92.4187 77.0381C84.2221 78.8389 76.4181 82.111 68.4509 84.7299C67.0356 85.4634 57.618 88.1503 58.1572 89.3269C59.5912 90.0048 60.1428 91.4801 60.9714 92.6237C62.8309 95.2178 65.1285 97.3875 67.3621 99.6294C67.9613 100.229 68.6162 100.454 69.482 100.151C80.377 96.4212 91.6108 93.5303 102.353 89.4216C105.704 88.0514 98.1296 82.2593 97.0304 80.7675C95.5655 79.4385 94.5964 77.2647 92.4104 77.0381H92.4187Z" fill="black"/>
<path d="M47.4558 73.4588C46.8876 73.3723 46.276 73.193 46.1934 72.6119C46.4516 71.6991 47.7616 71.8166 48.4889 71.4642C61.0347 67.2938 73.5042 62.9152 85.9323 58.413C86.9282 58.2729 88.8931 57.0943 89.4716 58.275C90.3601 59.4124 84.581 61.3328 83.6987 61.8046C71.75 66.0163 59.8343 70.6915 47.4558 73.4588Z" fill="black"/>
<path d="M43.9359 63.556C39.3511 62.1446 63.2961 55.6355 64.7527 54.7103C68.6082 53.915 86.2761 46.4292 88.0159 49.2582C87.8092 50.4368 85.3835 50.5481 84.4166 51.0323C70.8645 55.0441 57.5128 59.6411 43.9359 63.556Z" fill="black"/>
<path d="M33.2139 30.5366C31.0196 29.4136 34.966 28.3834 35.8503 27.9713C44.2432 25.2487 52.6415 22.5439 61.0454 19.857C65.6695 18.5321 70.151 16.5602 74.9322 15.8885C76.0397 15.6639 76.5851 17.2423 75.3888 17.5513C61.5247 22.4739 47.3755 26.5392 33.2139 30.5366Z" fill="black"/>
<path d="M27.1694 24.3159L26.1074 23.7823C26.4339 23.4917 26.717 23.0776 27.0992 22.9292C33.6077 20.6627 40.2153 18.666 46.7734 16.5417C54.1207 14.6234 61.3358 11.0916 68.8815 10.4034C71.425 11.6397 67.4352 12.67 66.3732 13.0574C53.3067 16.8446 40.4137 21.2046 27.1694 24.3159Z" fill="black"/>
<path d="M45.3976 48.939C42.6682 48.8236 39.0647 46.9795 38.4779 43.7878C38.7342 42.8482 38.447 41.9807 38.3974 41.0803C38.2362 38.245 40.3313 35.1872 43.1826 34.1838C55.6562 30.0813 58.7059 48.5351 45.3976 48.939ZM51.6809 41.0287C51.5693 34.2415 41.4863 34.6412 40.1722 40.9958C39.6433 42.9512 40.3664 42.5638 41.1847 43.9567C43.724 49.0152 52.2429 46.1037 51.6809 41.0287Z" fill="black"/>
<path d="M56.17 34.1527C53.7898 33.1554 58.0606 31.814 58.916 31.4349C65.4017 29.4919 71.6788 26.5742 78.3567 25.4203C79.5262 25.1607 79.9952 26.7328 78.7699 27.0213C71.3658 29.7879 63.8223 32.1683 56.17 34.1527V34.1527Z" fill="black"/>
<path d="M51.6817 80.8972C51.3429 80.8972 51.1817 80.9446 51.0619 80.8972C50.0288 80.549 49.8222 80.108 50.6486 79.3354C54.3678 77.8353 58.3762 76.9452 62.2069 75.7748C63.9549 75.4142 65.8289 74.9506 67.6182 75.0372C68.8579 75.5317 67.6182 76.5166 66.8207 76.6093C61.8288 78.1155 56.8183 80.0009 51.6817 80.8972Z" fill="black"/>
<path d="M59.5188 39.6049C58.7667 39.5575 58.1489 39.7924 57.8659 39.0238C57.7336 37.6907 59.6593 37.5815 60.5519 37.1096C64.4404 35.8939 68.2112 34.194 72.2816 33.6809C72.7775 33.5965 73.2383 33.7345 73.4056 34.2476C73.6122 35.4159 71.8374 35.5292 71.077 35.9619C67.2567 37.122 63.3846 38.7271 59.5188 39.6049Z" fill="black"/>
<path d="M92.4093 77.0378C94.5974 77.2624 95.5623 79.4383 97.0273 80.7715C98.1595 82.2942 105.68 88.045 102.35 89.4256C91.6056 93.5342 80.3738 96.4312 69.4789 100.155C68.6131 100.453 67.9581 100.233 67.359 99.6333C65.1254 97.3914 62.8361 95.2217 60.9683 92.6276C60.1418 91.4758 59.588 90.0004 58.1541 89.3308C57.8979 88.7827 58.8091 88.4777 59.1872 88.2614C62.27 87.0663 65.3382 85.83 68.4561 84.7338C76.4088 82.1108 84.2149 78.8387 92.4093 77.0378Z" fill="#8850EA"/>
<path d="M51.6816 41.0286C52.2478 46.0933 43.733 49.0151 41.1854 43.9565C40.3714 42.5677 39.642 42.9489 40.173 40.9956C41.4809 34.6307 51.5659 34.2413 51.6816 41.0286Z" fill="white"/>
<path d="M151.135 148.348C150.907 146.936 152.009 144.605 150.583 143.76C148.785 142.665 147.019 141.512 145.279 140.329C144.063 139.507 144.417 139.561 143.393 140.244C137.287 144.851 128.7 144.452 122.92 139.409C121.672 138.248 121.245 138.117 120.128 139.525C112.701 145.698 101.274 135.348 98.8968 128.057C96.2564 120.936 101.361 119.169 100.388 116.769C99.3099 114.245 100.041 110.161 102.895 108.522C103.567 108.145 103.722 107.692 103.677 106.934C103.362 105.939 104.801 103.531 103.376 103.379C99.1741 102.527 95.1117 101.095 91.3061 99.124C86.543 96.7775 82.1403 90.4563 83.0557 85.0793C84.08 80.7398 89.265 82.7847 92.2952 83.7278C96.8345 84.8849 101.371 86.069 105.93 87.1102C112.037 88.6108 118.274 89.6491 124.342 91.268C125.783 91.8156 127.355 91.9167 128.854 91.5583C138.531 89.032 148.937 94.6532 152.019 104.187C153.754 110.038 156.303 115.833 161.203 119.75C162.281 120.921 164.04 117.23 165.298 116.749C167.282 115.349 169.399 116.149 169.949 118.505C170.234 119.722 170.816 120.171 171.948 120.553C173.748 121.353 181.314 123.423 181.627 124.802C181.566 125.557 180.554 125.479 179.993 125.362C176.52 124.525 173.053 123.657 169.568 122.862C166.763 122.677 168.152 118.077 166.339 119.521C160.815 125.235 155.253 138.673 153.78 146.525C153.348 148.307 154.794 150.486 156.695 149.548C157.962 148.954 158.748 149.354 159.648 150.173C161.615 152.096 164.04 153.602 165.769 155.741C166.47 158.988 160.159 153.106 159.321 152.706C158.54 152.103 157.914 151.735 156.775 152.111C154.411 152.893 151.629 151.189 151.135 148.348ZM100.704 125.955C101.042 131.726 113.615 143.499 118.923 137.173C119.84 135.981 117.921 135.267 117.41 134.352C116.836 133.656 116.184 133.42 115.289 133.67C114.748 133.821 114.001 134.152 113.692 133.387C113.403 132.672 114.157 132.469 114.617 132.256C116.254 131.535 110.999 128.771 112.33 127.341C113.647 126.092 117.013 130.724 118.227 131.566C121.173 134.529 124.164 137.42 127.966 139.327C135.161 143.259 142.458 138.157 147.313 132.948C147.64 132.645 148.013 132.29 148.505 132.63C150.014 134.003 147.6 135.87 146.8 137.021C146.033 137.931 146.031 137.924 146.966 138.579C148.365 139.558 149.776 140.524 151.156 141.53C151.835 142.024 151.779 142.056 152.104 141.216C154.355 135.138 156.703 129.114 159.792 123.402C160.296 122.369 160.227 122.418 159.408 121.728C158.195 120.755 157.051 119.7 155.985 118.569C152.951 115.21 151.261 111.155 150.049 106.856C147.858 98.3409 140.235 92.9117 131.507 93.5195C132.386 94.7568 138.934 96.1716 138.319 97.7103C138.045 98.4379 137.441 98.1959 136.912 98.0579C126.983 94.2142 116.63 91.7674 106.19 89.7106C100.823 88.5608 95.4449 87.462 90.279 85.5284C88.6495 85.071 85.3847 83.4714 85.1026 86.1891C85.4925 95.982 95.9242 98.9788 103.667 101.692C106.169 102.788 107.305 99.3821 109.895 99.3133C112.078 98.9819 111.88 100.271 110.107 100.908C108.621 101.701 107.267 102.676 106.391 104.132C104.157 107.194 106.968 109.728 104.863 109.866C104.01 109.845 103.582 110.358 103.174 110.938C100.031 115.075 104.535 117.133 102.162 119.763C100.561 121.541 99.9725 123.687 100.704 125.955V125.955Z" fill="black"/>
<path d="M100.703 125.956C99.9719 123.687 100.553 121.54 102.155 119.758C104.533 117.165 100.036 115.06 103.167 110.933C103.576 110.353 104.004 109.84 104.856 109.861C106.957 109.727 104.156 107.178 106.387 104.127C107.26 102.67 108.614 101.696 110.1 100.903C111.876 100.263 112.069 98.9765 109.889 99.3082C107.293 99.3877 106.17 102.779 103.658 101.687C95.9189 98.9806 85.4802 95.9648 85.0981 86.1842C85.3675 83.4582 88.6575 85.0766 90.2722 85.5232C95.4382 87.4568 100.817 88.5511 106.184 89.7055C116.612 91.7609 126.967 94.2081 136.905 98.0528C137.443 98.1918 138.047 98.4338 138.313 97.7051C138.977 96.2063 132.323 94.7452 131.5 93.5144C140.229 92.9247 147.848 98.324 150.042 106.851C151.254 111.149 152.945 115.205 155.978 118.564C157.045 119.695 158.188 120.75 159.401 121.723C160.22 122.412 160.289 122.364 159.784 123.397C156.696 129.109 154.348 135.133 152.097 141.211C151.773 142.044 151.829 142.019 151.149 141.525C149.77 140.519 148.358 139.552 146.959 138.574C146.025 137.919 146.026 137.926 146.794 137.016C147.608 135.875 149.996 133.992 148.501 132.625C148.006 132.291 147.632 132.646 147.307 132.943C142.452 138.15 135.154 143.256 127.959 139.321C124.16 137.415 121.166 134.524 118.22 131.561C116.989 130.708 113.661 126.087 112.323 127.334C110.994 128.773 116.254 131.533 114.61 132.251C114.151 132.464 113.396 132.664 113.685 133.381C113.994 134.146 114.741 133.816 115.282 133.665C116.177 133.415 116.829 133.651 117.403 134.347C117.904 135.265 119.843 135.972 118.917 137.168C113.592 143.492 101.065 131.745 100.703 125.956Z" fill="white"/>
</svg>
