<svg width="131" height="127" viewBox="0 0 131 127" fill="none" xmlns="http://www.w3.org/2000/svg">
<path d="M32.8098 93.0727L14.2798 87.1768L12.5952 109.497L14.2798 112.866L43.3382 124.658L48.813 125.921L109.878 113.708L114.089 111.182L115.353 106.549L114.089 82.1231L64.3951 91.3881H61.026L48.813 69.9102H45.865L32.8098 93.0727Z" fill="#CBB5F5" stroke="#101E20"/>
<path d="M15.9478 58.0846C15.9387 57.8186 16.0031 57.5553 16.1339 57.3235C16.2646 57.0918 16.4567 56.9005 16.689 56.7706C18.3735 55.6336 20.2686 55.4652 22.1469 55.1788C24.6737 54.7829 27.2005 54.5302 29.7274 54.2102C31.1003 54.0417 31.235 53.8648 31.0076 52.5256C30.5191 49.6198 30.1653 46.6802 29.4999 43.8333C28.2182 38.3763 25.8271 33.2414 22.4754 28.7482C21.2372 27.1058 19.8222 25.5981 18.4409 24.0736C16.6889 22.1195 17.228 19.4748 19.7211 18.0008C22.2451 16.6113 25.055 15.8216 27.9333 15.693H28.2787C29.3231 15.6424 29.3231 15.6424 28.784 14.758L27.2595 12.2312C27.084 11.9867 26.9601 11.709 26.8955 11.4151C26.8308 11.1211 26.8267 10.8171 26.8834 10.5215C26.9402 10.226 27.0566 9.94505 27.2255 9.69595C27.3944 9.44685 27.6124 9.23478 27.866 9.0727C29.0104 8.31939 30.2439 7.71112 31.5383 7.26182C36.1464 5.71568 40.8694 4.53564 45.6632 3.73269C48.7796 3.15152 51.8876 2.49454 55.0124 1.9976C58.1373 1.50066 61.5232 1.03741 64.7912 0.708926C68.0592 0.380439 71.4873 0.144605 74.848 0.00141863C76.3363 -0.0150477 77.8227 0.111864 79.2867 0.380426C81.106 0.658377 82.4369 1.93022 83.7761 3.02518C86.9204 5.54892 89.5389 8.66526 91.4829 12.1975C92.6787 14.464 93.7007 16.8179 94.5404 19.2389C96.0538 23.5789 96.9056 28.1219 97.0672 32.7153C97.1935 35.9581 97.3367 39.2008 97.5304 42.4352C97.6315 44.1197 97.8758 45.8548 97.9937 47.573C97.997 47.8767 98.1003 48.1708 98.2875 48.4098C98.4748 48.6488 98.7356 48.8195 99.0297 48.8954C102.491 50.3188 105.962 51.7507 109.398 53.2415C112.003 54.2776 114.439 55.697 116.625 57.4529C117.776 58.4577 118.838 59.5595 119.8 60.7462C122.116 63.5426 124.433 66.3473 126.597 69.27C127.904 71.0052 129.033 72.8676 129.966 74.829C130.986 77.0273 130.345 78.4592 128.054 79.2594C124.831 80.4637 121.537 81.4707 118.191 82.2747C102.424 85.7337 86.637 89.1028 70.8304 92.382C68.6041 92.7857 66.3527 93.0362 64.0922 93.1316C63.0558 93.2445 62.0088 93.0586 61.0746 92.596C60.1404 92.1334 59.3579 91.4132 58.8195 90.5206C57.2276 88.0443 55.5936 85.5933 54.1028 83.058C52.4183 80.2617 50.961 77.3727 49.386 74.5258C49.2428 74.2563 49.0575 74.012 48.8891 73.7593C48.4511 72.5802 47.9542 71.4094 47.5752 70.2134C47.3393 69.4385 47.5751 69.27 48.35 69.2784C48.734 69.2623 49.1146 69.3559 49.4473 69.5483C49.7799 69.7408 50.0509 70.024 50.2283 70.365C50.6999 71.2072 51.2054 72.0495 51.6686 72.8918C53.9175 76.9431 56.1074 81.0197 58.4068 85.0374C59.3923 86.7219 60.5546 88.4065 61.6917 90.0068C61.9319 90.4049 62.2916 90.717 62.7197 90.8985C63.1477 91.08 63.6222 91.1216 64.0753 91.0175C68.9858 90.0068 73.8962 89.0382 78.8067 88.019C83.018 87.1347 87.2294 86.1829 91.4829 85.3153C99.3582 83.7066 107.233 82.1484 115.067 80.5481C118.924 79.7648 122.782 78.9393 126.639 78.1308C127.76 77.9033 128.265 77.2042 127.802 76.1177C127.292 74.8824 126.642 73.7096 125.864 72.6222C122.672 68.234 119.421 63.8795 116.161 59.5418C115.77 59.0761 115.292 58.6901 114.755 58.4047C114.447 58.2941 114.111 58.2941 113.803 58.4047C112.203 58.8005 110.645 59.348 109.036 59.6344C104.142 60.4767 99.2234 61.2684 94.3214 62.077C89.8658 62.8098 85.4186 63.5762 80.9629 64.25C75.4039 65.0923 69.8449 65.9346 64.269 66.6C59.7965 67.1391 55.2904 67.4423 50.7926 67.8381C49.5376 67.9476 48.2658 68.0487 47.0361 68.133C46.6199 68.1727 46.2002 68.1528 45.7896 68.074C43.8102 67.6444 41.8225 67.2317 39.8937 66.7095C37.5269 66.0947 35.1432 65.5135 32.827 64.7301C29.5674 63.6352 26.3583 62.3886 23.1408 61.1758C20.7824 60.283 18.4409 59.3396 16.0994 58.4215L16.032 58.3457L15.8298 58.152L15.9478 58.0846ZM95.1721 37.0951C95.071 35.5959 94.9446 33.0775 94.7172 30.5675C94.2679 24.8341 92.751 19.2351 90.2447 14.0589C88.6096 10.7198 86.4292 7.67681 83.793 5.05506C83.1042 4.25392 82.2696 3.59082 81.3335 3.10098C79.4525 2.32199 77.4194 1.97931 75.387 2.09867C71.462 2.35978 67.537 2.62088 63.5951 3.07571C59.2743 3.58108 54.9534 4.21277 50.6663 4.95397C46.3791 5.69517 42.0835 6.5206 37.8385 7.48079C35.0916 8.16801 32.3863 9.01166 29.7358 10.0076C28.1523 10.5804 28.1103 11.33 29.3737 12.5344C29.8959 13.023 30.5107 13.4273 31.0582 13.9158C34.0161 16.7748 36.3154 20.244 37.7964 24.082C40.3571 30.3221 41.8545 36.947 42.2267 43.6817C42.5383 48.2216 42.6815 52.7783 43.1195 57.3013C43.4544 59.8511 43.9239 62.3815 44.5262 64.8817C44.5397 65.0732 44.5952 65.2594 44.6889 65.4269C44.7826 65.5945 44.912 65.7393 45.068 65.8511C45.224 65.9629 45.4028 66.0389 45.5915 66.0737C45.7803 66.1085 45.9745 66.1013 46.1601 66.0525C48.2826 65.8083 50.422 65.6819 52.5529 65.4545C57.3371 64.9491 62.138 64.4775 66.8716 63.8542C72.5233 63.113 78.1497 62.2454 83.7845 61.4116C88.2907 60.7546 92.7884 60.0724 97.2609 59.3985C98.3138 59.2385 98.4064 59.0616 98.1032 58.0509C97.5978 56.3664 97.0503 54.6818 96.6376 52.9973C95.4951 47.7773 95.0029 42.436 95.1721 37.0951ZM33.4418 57.3097C33.4418 58.7921 33.5345 60.2745 33.5597 61.7569C33.5597 62.4223 33.7029 62.8856 34.4778 63.0961C36.8362 63.7363 39.1692 64.469 41.5276 65.1429C42.4204 65.3955 42.4458 65.3619 42.2183 64.4269C41.091 59.4691 40.4395 54.415 40.2726 49.3334C40.1578 45.0566 39.747 40.7929 39.0429 36.5729C38.1188 31.0965 36.2793 25.8146 33.6018 20.9488C32.9869 19.8622 32.1868 18.8683 31.4709 17.8408C31.3472 17.6473 31.1618 17.5013 30.9447 17.4263C30.7276 17.3514 30.4916 17.352 30.2748 17.428C28.2955 17.8492 26.274 18.1187 24.3283 18.6409C22.9774 19.0362 21.6751 19.5815 20.4455 20.2665C20.2434 20.3625 20.0638 20.4999 19.918 20.6696C19.7723 20.8394 19.6638 21.0378 19.5995 21.2521C19.5352 21.4664 19.5166 21.6918 19.5448 21.9137C19.573 22.1357 19.6474 22.3493 19.7633 22.5406C20.0484 23.071 20.428 23.5449 20.8835 23.9388C21.6584 24.6716 22.568 25.2865 23.2755 26.0529C25.7126 28.8088 27.6688 31.9551 29.0619 35.3601C32.1159 42.2633 33.6114 49.7546 33.4418 57.3013V57.3097Z" fill="#101E20"/>
<path d="M48.99 73.7593C48.99 78.1981 48.99 82.6285 48.9395 87.0672C48.9395 89.3161 48.8889 91.5734 48.8805 93.8054C48.8805 97.0229 48.8805 100.232 48.8805 103.449C48.7794 109.177 48.6194 114.913 48.4846 120.649C48.4846 121.491 48.4846 122.257 48.4846 123.058C48.4846 124.018 48.7795 124.262 49.7818 124.211C50.961 124.136 52.1485 124.068 53.3193 123.883C59.889 122.855 66.484 121.946 73.0116 120.691C82.8915 118.796 92.7377 116.682 102.575 114.576C105.523 113.936 108.412 112.992 111.327 112.218C111.707 112.152 112.053 111.959 112.307 111.669C112.562 111.379 112.709 111.011 112.725 110.626C112.834 109.219 113.045 107.812 113.028 106.414C113.028 102.885 112.817 99.3644 112.801 95.8437C112.801 92.9463 112.927 90.0405 113.011 87.1346C113.005 86.7538 113.065 86.3749 113.188 86.0144C113.353 85.7464 113.561 85.5073 113.803 85.3069C114.039 85.5259 114.426 85.7112 114.485 85.9639C114.691 86.8587 114.826 87.7683 114.889 88.6844C114.982 90.0994 114.974 91.5144 115.033 92.8958C115.218 97.2503 115.437 101.605 115.589 105.968C115.635 107.306 115.584 108.646 115.437 109.977C115.235 111.662 114.544 113.178 112.818 113.86C110.931 114.601 109.036 115.334 107.09 115.898C96.5495 118.855 85.8672 121.281 75.0836 123.167C70.8722 124.009 66.5851 124.759 62.3232 125.441C59.1479 125.947 55.9556 126.284 52.7634 126.671C51.964 126.721 51.1623 126.721 50.3629 126.671C50.0987 126.633 49.8299 126.648 49.5712 126.713C49.0145 126.923 48.4212 127.02 47.8266 126.997C47.232 126.973 46.6481 126.831 46.1095 126.578C41.8223 125.028 37.5435 123.487 33.2984 121.836C28.489 119.958 23.7133 117.987 18.9798 115.999C17.2952 115.3 15.6106 114.492 14.0103 113.641C13.313 113.362 12.723 112.867 12.3261 112.229C11.9292 111.592 11.7461 110.844 11.8036 110.095C12.0478 106.246 12.1489 102.38 12.3595 98.5306C12.5448 95.212 12.7807 91.8934 13.0249 88.5749C13.0839 87.859 12.629 87.6736 12.1152 87.4546C9.90845 86.4945 7.69328 85.5427 5.49495 84.5488C4.20627 83.9677 2.96811 83.3191 1.68785 82.679C1.08074 82.3787 0.59169 81.8838 0.298595 81.2732C0.00549878 80.6625 -0.0747041 79.9714 0.0707529 79.3099C0.460992 77.6622 1.22467 76.1262 2.3028 74.8205C5.22549 70.6597 8.19865 66.5073 11.1803 62.4139C12.2098 61.0966 13.336 59.8579 14.5494 58.7079C14.9822 58.4154 15.4603 58.1962 15.9645 58.0593L16.1666 58.253L16.2339 58.3289C16.1173 58.9524 15.9131 59.5564 15.6275 60.1229C14.4315 61.9001 13.1007 63.593 11.8794 65.345C9.11679 69.2756 6.37095 73.2343 3.64199 77.2211C3.17526 77.9678 2.775 78.7541 2.44592 79.571C2.38258 79.6874 2.34769 79.8171 2.34393 79.9496C2.34016 80.0821 2.3677 80.2136 2.42433 80.3334C2.48096 80.4532 2.565 80.558 2.66975 80.6392C2.7745 80.7204 2.89698 80.7757 3.02714 80.8007C3.58194 80.9515 4.12747 81.1342 4.6611 81.3482C8.2913 82.8811 11.8879 84.5151 15.5517 85.9639C20.6054 87.96 25.659 89.8467 30.7885 91.7418C32.1024 92.2388 32.3382 92.1714 33.071 91.0091C34.2726 89.055 35.4293 87.0728 36.5411 85.0626C39.068 80.548 41.4854 75.9997 43.9701 71.4683C44.3068 70.8671 44.6809 70.2875 45.0902 69.7332C45.385 69.3121 45.7978 68.9583 46.3537 69.2194C46.9096 69.4806 46.7748 70.0617 46.6064 70.5165C46.3519 71.2795 46.048 72.0251 45.6967 72.7486C42.7992 78.3132 39.8823 83.8694 36.9455 89.4172C36.3972 90.467 35.7424 91.4577 34.9914 92.3736C34.5664 92.9967 33.9567 93.4709 33.248 93.7292C32.5394 93.9876 31.7675 94.0172 31.0412 93.8139C28.388 93.0811 25.6927 92.4746 23.0732 91.6408C20.4537 90.8069 17.9606 89.7962 15.4254 88.836C14.8442 88.6254 14.5073 88.5665 14.5158 89.3919C14.5158 91.3797 14.5157 93.3674 14.4315 95.3552C14.3472 97.7641 14.1956 100.165 14.1114 102.573C14.0272 104.982 13.9683 107.467 13.8925 109.91C13.8369 110.332 13.9432 110.759 14.1901 111.106C14.4371 111.453 14.8062 111.694 15.2233 111.78C16.6383 112.251 18.028 112.799 19.4346 113.363C24.2637 115.328 29.0815 117.294 33.8881 119.259C37.7373 120.851 41.578 122.476 45.444 124.051C46.6232 124.54 46.6232 124.489 46.6232 123.209C46.6232 119.84 46.5727 116.547 46.6232 113.22C46.7327 108.562 46.9517 103.904 47.1117 99.2381C47.2128 96.2958 47.3054 93.3534 47.3896 90.411C47.5076 85.9807 47.6002 81.5419 47.7097 77.1115C47.7097 76.1935 47.8024 75.2838 47.8529 74.3657C47.9035 73.5824 48.2741 73.3382 48.9984 73.6919L48.99 73.7593Z" fill="#101E20"/>
<path d="M99.7117 96.4418C99.6391 97.6101 99.2019 98.7262 98.4615 99.6328C97.7211 100.539 96.7149 101.191 95.5846 101.495C93.6221 101.967 91.6006 102.195 89.6044 102.531C86.0584 103.138 82.5124 103.727 78.9833 104.368C75.4542 105.008 74.0813 102.86 74.1402 99.9625C74.1402 99.6593 74.1908 99.356 74.2077 99.0444C74.1971 98.1504 74.4856 97.2786 75.0273 96.5674C75.5691 95.8563 76.333 95.3466 77.1977 95.1194C79.7666 94.3951 82.3777 93.7634 85.0056 93.2917C87.7851 92.7863 90.5983 92.4494 93.4283 92.1967C95.1129 92.0619 96.8817 92.0367 98.322 93.3169C98.7688 93.7039 99.1249 94.1844 99.3651 94.7245C99.6053 95.2645 99.7236 95.8509 99.7117 96.4418ZM93.6811 94.614V94.5214C90.5478 94.9931 87.4145 95.4395 84.2813 95.9448C82.5125 96.2312 80.7353 96.5597 78.9917 96.9809C76.8776 97.4862 76.3218 98.2443 76.3723 100.24C76.4228 102.237 77.2146 102.877 79.1603 102.472C84.3234 101.394 89.4781 100.283 94.6497 99.2129C95.1166 99.1177 95.5587 98.9273 95.9486 98.6533C96.3384 98.3794 96.6676 98.0279 96.9154 97.621C97.1236 97.3788 97.2613 97.0841 97.3135 96.769C97.3656 96.4539 97.3303 96.1306 97.2113 95.8343C97.0922 95.5379 96.8939 95.2799 96.6383 95.0885C96.3826 94.8971 96.0793 94.7796 95.7614 94.7488C95.0728 94.6473 94.377 94.6022 93.6811 94.614Z" fill="#101E20"/>
<path d="M95.1719 37.0952C95.029 42.4104 95.5409 47.7231 96.6964 52.9132C97.1091 54.5977 97.6565 56.2823 98.1619 57.9668C98.4567 58.9775 98.3641 59.1544 97.3196 59.3144C92.8219 59.9882 88.3242 60.6705 83.8433 61.3275C78.2084 62.1697 72.5821 63.012 66.9304 63.77C62.1632 64.3933 57.3622 64.865 52.6118 65.3704C50.4808 65.5978 48.3415 65.7241 46.219 65.9684C46.0333 66.0172 45.8391 66.0244 45.6504 65.9896C45.4616 65.9548 45.2829 65.8787 45.1268 65.7669C44.9708 65.6551 44.8413 65.5103 44.7477 65.3428C44.654 65.1752 44.5984 64.9891 44.5849 64.7976C43.9827 62.2974 43.5131 59.767 43.1783 57.2172C42.7403 52.6942 42.5971 48.1375 42.2855 43.5976C41.9133 36.8628 40.4158 30.238 37.8551 23.9979C36.3742 20.1599 34.0748 16.6907 31.1169 13.8316C30.5779 13.3431 29.963 12.9388 29.4324 12.4503C28.169 11.2711 28.2111 10.5215 29.7946 9.92349C32.4452 8.92754 35.1505 8.08389 37.8973 7.39667C42.1087 6.41121 46.4295 5.58578 50.7251 4.86985C55.0207 4.15392 59.3331 3.49694 63.654 2.99157C67.5621 2.53674 71.4871 2.27564 75.4458 2.01453C77.4782 1.89517 79.5112 2.23785 81.3922 3.01684C82.3283 3.50668 83.1629 4.16978 83.8517 4.97092C86.4879 7.59267 88.6684 10.6357 90.3035 13.9748C92.8098 19.151 94.3266 24.75 94.776 30.4834C94.9444 33.0776 95.0708 35.596 95.1719 37.0952ZM54.1615 55.541V55.4484C54.4984 55.4484 54.8522 55.4484 55.1891 55.4484C59.7963 54.7745 64.4541 54.1429 69.0108 53.3933C73.7949 52.6015 78.5622 51.7087 83.3295 50.8075C84.8287 50.5211 86.3027 50.0915 87.7683 49.6704C88.3073 49.5188 88.9812 49.2914 88.838 48.5502C88.6948 47.809 88.0462 47.9269 87.5156 47.9521C86.79 47.9784 86.067 48.0516 85.351 48.1712C82.4704 48.7355 79.5982 49.4177 76.7008 49.9062C69.0277 51.2118 61.3377 52.433 53.6478 53.7133C53.0775 53.7674 52.5136 53.8745 51.9632 54.0333C51.8221 54.111 51.6994 54.2182 51.6035 54.3475C51.5075 54.4769 51.4406 54.6254 51.4073 54.783C51.4073 54.9093 51.7611 55.2462 51.9969 55.2968C52.7129 55.4147 53.4372 55.4568 54.1615 55.541ZM85.6542 40.2453C84.4666 40.338 83.3968 40.3633 82.344 40.5233C76.0775 41.4919 69.811 42.4689 63.5529 43.5049C59.6363 44.1535 55.7366 44.9115 51.8284 45.6443C51.415 45.7164 51.0148 45.8498 50.6409 46.0402C50.4472 46.1497 50.2113 46.5119 50.2702 46.6551C50.4184 46.8971 50.6396 47.0859 50.9019 47.1941C51.0536 47.2615 51.281 47.1941 51.4663 47.1941C54.229 46.8488 57.0084 46.554 59.7627 46.1581C63.974 45.5348 68.1854 44.8273 72.4473 44.1956C76.3386 43.6144 80.2299 43.0838 84.1296 42.511C85.3762 42.3342 86.6565 42.191 87.8609 41.9467C88.0259 41.8892 88.1731 41.7899 88.2882 41.6585C88.4034 41.5272 88.4825 41.3682 88.5179 41.1971C88.5179 40.9528 88.1051 40.557 87.8103 40.498C87.0976 40.3686 86.3775 40.2842 85.6542 40.2453ZM46.5895 19.9718C47.1201 19.9044 47.6508 19.8202 48.173 19.7612C51.3231 19.3654 54.4647 18.9948 57.6148 18.5905C59.5436 18.3378 61.464 18.0261 63.3928 17.7482C66.5008 17.3186 69.6004 16.9059 72.6578 16.4595C74.7719 16.1479 76.8692 15.8025 79.0002 15.4572C79.8425 15.314 80.6848 15.1287 81.586 14.9434C82.0914 14.8424 82.6052 14.6739 82.5125 14.0085C82.4198 13.3431 81.8724 13.3431 81.367 13.3347C80.8313 13.3009 80.294 13.3009 79.7583 13.3347C75.8248 13.8316 71.883 14.3033 67.9664 14.876C62.1547 15.7183 56.3431 16.6533 50.5314 17.5798C49.0265 17.8156 47.53 18.1188 46.042 18.4894C45.6967 18.5736 45.1997 19.0285 45.1997 19.3317C45.1997 19.896 45.7303 19.9802 46.2273 19.9297L46.5895 19.9718ZM43.0604 14.4296C45.1745 14.1938 46.9602 14.0253 48.7458 13.7979C52.755 13.2926 56.767 12.7732 60.7818 12.2397C65.5154 11.6165 70.2461 10.9791 74.9741 10.3278C75.77 10.2406 76.5547 10.0712 77.3156 9.8224C77.4841 9.72785 77.6287 9.59594 77.7382 9.43679C77.8477 9.27763 77.9193 9.09547 77.9473 8.90432C77.9473 8.69376 77.4672 8.36528 77.1051 8.25578C76.7013 8.13491 76.2772 8.09765 75.8585 8.14628C74.0729 8.29789 72.2789 8.43267 70.5017 8.68535C67.0568 9.16545 63.6287 9.72134 60.1922 10.2351C54.3721 11.0774 48.552 11.9197 42.7319 12.8293C42.2011 12.888 41.6767 12.9952 41.1653 13.1494C40.9211 13.2336 40.7441 13.5284 40.5419 13.7306C40.7525 13.9074 40.9462 14.1938 41.1905 14.2359C41.957 14.3623 42.6646 14.4128 43.0604 14.4128V14.4296ZM61.9863 29.6917C61.7962 28.8786 61.5427 28.0816 61.2282 27.308C59.7795 24.3011 55.686 22.8524 52.4348 24.2084C50.1944 25.1434 48.4172 26.9121 48.6446 29.759C48.6774 29.9857 48.6543 30.2171 48.5773 30.4329C48.4439 30.7923 48.4025 31.1794 48.457 31.559C48.5114 31.9385 48.6599 32.2984 48.8889 32.6059C49.692 34.0151 50.9629 35.0991 52.4812 35.6698C53.9995 36.2405 55.6696 36.262 57.2021 35.7307C58.525 35.3403 59.6948 34.5505 60.5513 33.4693C61.4077 32.3882 61.9089 31.0687 61.9863 29.6917ZM65.7597 25.5476C66.7451 25.4297 67.9664 25.3287 69.1288 25.1518C73.3121 24.5285 77.4982 23.894 81.6871 23.2482C82.2939 23.1778 82.8904 23.0365 83.4643 22.8271C83.7928 22.6839 84.0033 22.2712 84.3065 21.9848C84.0642 21.6949 83.7804 21.4423 83.4643 21.2352C83.1393 21.1235 82.7904 21.1002 82.4535 21.1678C80.2551 21.4458 78.0569 21.69 75.8754 22.0101C72.7421 22.507 69.6257 23.063 66.5093 23.6273C65.7194 23.7661 64.9461 23.9863 64.2015 24.2842C63.9235 24.3937 63.7803 24.8233 63.5698 25.1265C63.8299 25.307 64.1132 25.4515 64.412 25.5561C64.8608 25.589 65.3114 25.5861 65.7597 25.5476ZM56.1746 61.8665L66.1977 60.5863C66.9594 60.5184 67.716 60.4031 68.4633 60.2409C68.7581 60.1651 68.9771 59.7692 69.2298 59.5166C68.9687 59.2807 68.7581 58.9438 68.4549 58.8343C68.0814 58.7547 67.6976 58.7348 67.3179 58.7753C63.7996 58.8046 60.2907 59.1428 56.8316 59.7861C56.0714 59.8611 55.3172 59.9878 54.5742 60.1651C54.2458 60.2578 54.0183 60.6873 53.732 60.9653C54.0183 61.2264 54.2626 61.5802 54.5742 61.7065C55.1004 61.8173 55.6369 61.8709 56.1746 61.8665ZM75.648 27.0469V26.8532L66.1639 28.4535C65.9786 28.4535 65.7259 28.504 65.6249 28.6304C65.3674 28.8804 65.1938 29.2041 65.128 29.5569C65.128 29.759 65.5575 30.1128 65.8186 30.138C66.613 30.2348 67.4163 30.2348 68.2107 30.138C70.3669 29.8432 72.5147 29.4727 74.6625 29.1021C75.6453 28.9557 76.6165 28.739 77.5684 28.4535C77.9221 28.344 78.1495 27.8555 78.4106 27.5439C78.0999 27.2983 77.7495 27.1074 77.3747 26.9795C76.7982 26.951 76.2204 26.9735 75.648 27.0469Z" fill="white"/>
<path d="M33.4418 57.3013C33.6126 49.7518 32.1171 42.2575 29.0619 35.3517C27.6687 31.9467 25.7126 28.8005 23.2755 26.0446C22.5511 25.2781 21.6583 24.6632 20.8834 23.9305C20.428 23.5365 20.0484 23.0627 19.7632 22.5323C19.6474 22.3409 19.573 22.1273 19.5448 21.9054C19.5165 21.6834 19.5352 21.458 19.5995 21.2438C19.6637 21.0295 19.7723 20.831 19.918 20.6612C20.0637 20.4915 20.2434 20.3542 20.4454 20.2582C21.675 19.5731 22.9774 19.0278 24.3283 18.6326C26.274 18.1104 28.2955 17.8408 30.2748 17.4197C30.4915 17.3437 30.7276 17.3431 30.9447 17.418C31.1617 17.4929 31.3472 17.6389 31.4709 17.8324C32.1868 18.86 32.9869 19.8539 33.6017 20.9404C36.2793 25.8063 38.1187 31.0881 39.0429 36.5646C39.7469 40.7845 40.1578 45.0483 40.2726 49.325C40.4394 54.4067 41.091 59.4607 42.2183 64.4186C42.4457 65.3535 42.4204 65.3872 41.5276 65.1345C39.1692 64.4607 36.8361 63.7279 34.4777 63.0878C33.7029 62.8772 33.5681 62.414 33.5597 61.7486C33.5344 60.2662 33.4839 58.7837 33.4418 57.3013Z" fill="#6E30E3"/>
<path d="M16.1411 58.2699L15.939 58.0762L16.1411 58.2699Z" fill="white"/>
<path d="M93.6811 94.614C94.3687 94.6035 95.0559 94.6486 95.7362 94.7488C96.0541 94.7796 96.3575 94.8971 96.6132 95.0885C96.8688 95.2799 97.067 95.5379 97.1861 95.8343C97.3051 96.1306 97.3404 96.4539 97.2883 96.769C97.2361 97.0841 97.0984 97.3788 96.8902 97.6209C96.6424 98.0279 96.3133 98.3794 95.9235 98.6533C95.5336 98.9272 95.0914 99.1177 94.6245 99.2129C89.4529 100.283 84.2982 101.394 79.1351 102.472C77.2063 102.877 76.3976 102.203 76.3471 100.24C76.2966 98.278 76.8524 97.4862 78.9665 96.9809C80.7101 96.5597 82.4873 96.2312 84.2561 95.9448C87.3893 95.4395 90.5226 94.9931 93.6559 94.5214L93.6811 94.614Z" fill="#101E20"/>
<path d="M54.1615 55.5409C53.4371 55.4567 52.7128 55.4146 52.0053 55.2714C51.7695 55.2209 51.3819 54.884 51.4156 54.7576C51.449 54.6001 51.5159 54.4515 51.6118 54.3221C51.7077 54.1928 51.8305 54.0856 51.9716 54.008C52.5219 53.8492 53.0859 53.742 53.6561 53.6879C61.3461 52.4245 69.036 51.1611 76.7091 49.8808C79.6066 49.3923 82.4787 48.7101 85.3593 48.1457C86.0754 48.0262 86.7984 47.953 87.5239 47.9267C88.0545 47.9267 88.7116 47.8425 88.8463 48.5248C88.9811 49.207 88.3157 49.4934 87.7766 49.645C86.3111 50.0662 84.8371 50.4873 83.3378 50.7821C78.579 51.6833 73.8117 52.5761 69.0192 53.3679C64.4204 54.1175 59.8047 54.7492 55.1974 55.423C54.8605 55.423 54.5068 55.423 54.1699 55.423L54.1615 55.5409Z" fill="#101E20"/>
<path d="M85.6541 40.2453C86.3769 40.2758 87.097 40.3518 87.8103 40.4727C88.1051 40.5317 88.5095 40.9276 88.5179 41.1718C88.4825 41.3429 88.4033 41.5018 88.2882 41.6332C88.173 41.7646 88.0258 41.8639 87.8609 41.9214C86.6227 42.1657 85.334 42.3089 84.1296 42.4858C80.2298 43.0417 76.3385 43.5723 72.4472 44.1703C68.2359 44.802 64.0245 45.5095 59.7626 46.1328C57.0084 46.5287 54.2289 46.8235 51.4663 47.1688C51.281 47.1688 51.0535 47.2783 50.9019 47.1688C50.6395 47.0606 50.4183 46.8718 50.2702 46.6298C50.2112 46.4866 50.4471 46.1244 50.6409 46.0149C51.0148 45.8245 51.415 45.6911 51.8284 45.619C55.7365 44.8862 59.6363 44.1282 63.5529 43.4797C69.811 42.4437 76.0774 41.4666 82.3439 40.498C83.3968 40.3632 84.4665 40.338 85.6541 40.2453Z" fill="#101E20"/>
<path d="M46.5893 19.9717H46.244C45.747 20.0222 45.1911 19.9717 45.2164 19.3737C45.2164 19.0705 45.7218 18.6156 46.0587 18.5314C47.5411 18.1608 49.0375 17.8576 50.548 17.6217C56.3597 16.6952 62.1714 15.7772 67.9831 14.9181C71.9165 14.3453 75.8584 13.8736 79.7749 13.3767C80.3106 13.3429 80.848 13.3429 81.3837 13.3767C81.8891 13.3767 82.445 13.3767 82.5292 14.0505C82.6134 14.7243 82.108 14.8928 81.6026 14.9854C80.7603 15.1707 79.9181 15.356 79.0169 15.4992C76.9028 15.8446 74.8055 16.1899 72.6745 16.5015C69.5749 16.9479 66.4754 17.3438 63.4095 17.7902C61.4807 18.0597 59.5603 18.3714 57.6315 18.6325C54.4814 19.0368 51.3398 19.4074 48.1897 19.8032C47.6674 19.8622 47.1368 19.9464 46.6062 20.0138L46.5893 19.9717Z" fill="#101E20"/>
<path d="M43.0603 14.4128C42.6645 14.4128 41.9401 14.3454 41.2326 14.2191C40.9883 14.1769 40.7946 13.8906 40.584 13.7137C40.7861 13.5116 40.963 13.2168 41.2073 13.1325C41.7186 12.9783 42.243 12.8712 42.7739 12.8125C48.594 11.9702 54.4141 11.0858 60.2342 10.2183C63.6707 9.70447 67.0987 9.14857 70.5436 8.66848C72.3208 8.4158 74.1149 8.28105 75.9006 8.12944C76.3192 8.08081 76.7434 8.11807 77.1471 8.23894C77.4672 8.34843 77.9894 8.67691 77.9894 8.88748C77.9613 9.07862 77.8897 9.26078 77.7802 9.41994C77.6706 9.5791 77.5262 9.71101 77.3577 9.80555C76.5967 10.0544 75.812 10.2237 75.0161 10.3109C70.2826 10.9679 65.5518 11.6052 60.8238 12.2229C56.8146 12.7507 52.8026 13.2701 48.7877 13.7811C46.96 14.0253 45.1744 14.1938 43.0603 14.4128Z" fill="#101E20"/>
<path d="M61.9862 29.6915C61.9089 31.0686 61.4076 32.3881 60.5512 33.4692C59.6947 34.5503 58.5249 35.3402 57.202 35.7306C55.6695 36.2619 53.9994 36.2404 52.4811 35.6696C50.9628 35.0989 49.6919 34.015 48.8888 32.6058C48.6598 32.2982 48.5113 31.9384 48.4569 31.5588C48.4024 31.1793 48.4438 30.7922 48.5772 30.4327C48.6542 30.217 48.6773 29.9856 48.6445 29.7589C48.4171 26.912 50.1943 25.1432 52.4347 24.2083C55.6859 22.8523 59.7794 24.301 61.2281 27.3079C61.5426 28.0814 61.7961 28.8784 61.9862 29.6915ZM54.591 25.8255C53.9661 25.9769 53.3547 26.1798 52.7632 26.4319C51.6356 26.9963 50.7415 27.9381 50.2364 29.0935C49.7648 30.1126 50.5649 30.778 50.8597 31.5192C51.9462 34.324 56.1829 34.5093 58.1285 32.968C58.5697 32.6383 58.9346 32.2173 59.198 31.7336C59.4614 31.25 59.6172 30.7151 59.6548 30.1656C59.6924 29.6162 59.6109 29.0651 59.4158 28.5501C59.2207 28.035 58.9167 27.5682 58.5245 27.1815C57.9946 26.7013 57.3728 26.3336 56.6967 26.1005C56.0206 25.8674 55.3043 25.7739 54.591 25.8255Z" fill="#101E20"/>
<path d="M65.7596 25.5477C65.3027 25.5847 64.8436 25.5847 64.3867 25.5477C64.0879 25.4431 63.8045 25.2987 63.5444 25.1182C63.755 24.8318 63.8982 24.4022 64.1761 24.2759C64.9207 23.9779 65.6941 23.7577 66.484 23.6189C69.6004 23.0546 72.7168 22.4987 75.85 22.0017C78.0315 21.6564 80.2299 21.4121 82.4282 21.1595C82.7652 21.0919 83.114 21.1151 83.4389 21.2268C83.755 21.4339 84.0389 21.6865 84.2812 21.9765C84.0201 22.2628 83.8095 22.6756 83.4389 22.8187C82.865 23.0281 82.2686 23.1694 81.6618 23.2399C77.4728 23.8856 73.2867 24.5201 69.1034 25.1434C67.9664 25.3624 66.7451 25.4298 65.7596 25.5477Z" fill="#101E20"/>
<path d="M56.1745 61.8664C55.6481 61.8684 55.123 61.8147 54.6079 61.7064C54.2794 61.58 54.0352 61.2263 53.7656 60.9652C54.0352 60.6872 54.2626 60.2576 54.6079 60.165C55.3509 59.9876 56.105 59.861 56.8651 59.786C60.3242 59.1427 63.8332 58.8045 67.3515 58.7752C67.7313 58.7346 68.115 58.7546 68.4886 58.8342C68.7918 58.9437 69.0024 59.2806 69.2635 59.5164C69.0108 59.7691 68.7918 60.165 68.497 60.2408C67.7497 60.4029 66.9929 60.5183 66.2312 60.5861L56.1745 61.8664Z" fill="#101E20"/>
<path d="M75.6481 27.0468C76.2086 26.9984 76.7722 26.9984 77.3326 27.0468C77.7075 27.1748 78.0578 27.3656 78.3686 27.6112C78.0822 27.9228 77.8548 28.4534 77.5263 28.5208C76.5745 28.8063 75.6034 29.0231 74.6205 29.1694C72.4727 29.54 70.3249 29.9106 68.1687 30.2054C67.3743 30.3021 66.5711 30.3021 65.7767 30.2054C65.5156 30.2054 65.0859 29.8263 65.0859 29.6242C65.1518 29.2714 65.3255 28.9477 65.583 28.6977C65.684 28.5714 65.9366 28.5545 66.1219 28.5208L75.6059 26.9205L75.6481 27.0468Z" fill="#101E20"/>
<path d="M54.5911 25.8256C55.2989 25.7786 56.0088 25.8744 56.6787 26.1074C57.3487 26.3404 57.965 26.7057 58.4909 27.1816C58.8831 27.5683 59.1871 28.0351 59.3822 28.5502C59.5773 29.0652 59.6588 29.6163 59.6212 30.1657C59.5837 30.7152 59.4279 31.2501 59.1644 31.7337C58.901 32.2174 58.5362 32.6385 58.095 32.9681C56.1494 34.5095 51.9127 34.3241 50.8262 31.5194C50.5314 30.7529 49.7313 30.1128 50.2029 29.0936C50.708 27.9382 51.6021 26.9964 52.7298 26.432C53.3322 26.1781 53.9548 25.9753 54.5911 25.8256Z" fill="white"/>
</svg>
