<svg width="167" height="158" viewBox="0 0 167 158" fill="none" xmlns="http://www.w3.org/2000/svg">
<path fill-rule="evenodd" clip-rule="evenodd" d="M19.5291 67.3822C20.7864 68.1387 21.9717 69.0124 23.0687 69.9929C25.335 71.912 27.3556 74.1035 29.0847 76.5179C29.3908 76.9518 29.6963 77.3822 30.0197 77.8131C30.7567 78.8477 31.5175 79.9172 32.2421 80.9823C33.8938 83.4707 35.347 86.0854 36.588 88.802C37.8746 91.5539 39.0775 94.4589 40.1664 97.4441C40.8417 99.2925 41.5816 101.144 42.3003 102.935L42.3022 102.94C42.7396 104.032 43.177 105.123 43.6006 106.218C45.4821 111.071 47.9975 115.655 51.0812 119.849C52.6188 121.906 54.3326 123.824 56.2033 125.583C58.4627 127.755 61.0075 129.609 63.7673 131.094C65.6176 132.092 67.5359 132.929 69.6728 133.839C70.8138 134.312 71.9872 134.703 73.1838 135.008C74.0164 135.241 74.8894 135.291 75.7432 135.155C76.1604 135.084 76.5663 134.957 76.9504 134.779L79.9119 133.41L79.9833 133.377C83.2092 131.887 86.5469 130.345 89.7552 128.682C94.2593 126.349 98.7787 123.879 103.148 121.488C104.559 120.713 105.966 119.942 107.368 119.176C108.948 118.317 110.618 117.4 112.328 116.425C112.356 116.43 112.383 116.435 112.411 116.44C112.618 116.482 112.832 116.527 113.049 116.592L113.102 116.611L113.158 116.629C114.449 117.036 115.803 117.462 116.822 118.633C117.642 119.571 117.645 120.653 116.821 121.481L116.62 121.675C115.742 122.594 114.785 123.435 113.759 124.187C109.129 127.402 104.141 130.172 99.8287 132.516C98.4255 133.281 97.0183 134.052 95.607 134.826C91.2355 137.216 86.7142 139.684 82.2081 142.016C78.998 143.678 75.6583 145.219 72.4306 146.709L72.3607 146.741L69.398 148.109C69.1987 148.202 68.9915 148.005 68.78 147.805C68.5836 147.619 68.3835 147.43 68.1825 147.464L68.165 147.467C67.3153 147.602 66.3547 147.755 65.5276 147.525C64.99 147.388 64.4779 147.398 63.9734 147.408C63.3545 147.42 62.7472 147.432 62.1185 147.172C59.9811 146.264 58.0624 145.428 56.2119 144.432C53.4516 142.949 50.9065 141.098 48.6469 138.929C46.7761 137.172 45.0623 135.256 43.5247 133.202C40.4411 129.013 37.9262 124.435 36.0453 119.587C35.6218 118.494 35.1845 117.403 34.7472 116.312L34.7454 116.308C34.0269 114.519 33.2873 112.67 32.6122 110.823C31.5237 107.842 30.3212 104.94 29.0349 102.192C27.7941 99.4782 26.3412 96.8667 24.6896 94.3814C23.9651 93.3176 23.2043 92.2494 22.4673 91.2161C22.1439 90.7857 21.8384 90.3558 21.5323 89.9225C19.8033 87.5112 17.7827 85.3225 15.5162 83.4061C14.5371 82.5322 14.0496 82.5708 13.4467 82.6184C12.9541 82.6574 12.3846 82.7024 11.4069 82.2609C11.651 83.6712 9.93236 81.8521 8.87863 80.7367C8.49095 80.3264 8.19328 80.0113 8.11647 79.9874C7.78499 79.8997 7.64897 79.5656 7.50949 79.223C7.39204 78.9345 7.27213 78.6399 7.031 78.4814C6.42282 78.0572 6.65894 77.8776 6.90737 77.6887C7.05037 77.5799 7.19745 77.468 7.18995 77.3046C7.18377 77.1699 7.06919 76.9548 6.9342 76.7013C6.62091 76.1129 6.1976 75.3179 6.76383 74.8428L7.16723 74.5032C8.58578 73.2691 10.0661 72.1077 11.6024 71.0234C12.8606 70.1673 14.0528 69.7922 15.2547 69.4141C16.3254 69.0773 17.4038 68.738 18.5434 68.054C18.8633 67.8601 19.1925 67.6331 19.5291 67.3822Z" fill="#418FA0"/>
<path d="M60.8048 34.6786C62.487 34.1315 64.1183 34.4604 65.8457 35.057C69.3827 36.26 72.7012 38.0283 75.6722 40.2933C77.9269 41.9845 79.9795 43.9295 81.7896 46.0899C84.1748 48.9579 86.2865 52.0429 88.097 55.3044C89.6013 58.0149 90.8985 60.8352 91.9775 63.7413C92.8235 66.0826 93.5969 68.4364 94.4846 70.7314C95.511 73.3968 96.5478 76.0605 97.7222 78.6363C99.2434 81.9016 101.051 85.0257 103.123 87.9722C105.161 90.8453 107.524 93.4736 110.165 95.8051C111.78 97.2894 113.602 98.5303 115.575 99.4886C116.84 100.101 118.071 100.787 119.312 101.447C119.539 101.552 119.747 101.694 119.928 101.866C120.861 102.863 122.109 103.319 123.301 103.88C124.698 104.538 125.309 105.708 125.296 107.192C125.289 108.259 124.549 109.038 123.869 109.745C122.217 111.453 120.247 112.782 118.279 114.1C117.145 114.861 115.973 115.565 114.822 116.304C114.691 116.404 114.57 116.515 114.46 116.637C114.597 116.706 114.729 116.793 114.874 116.85C115.837 117.22 116.833 117.531 117.764 117.967C119.407 118.749 119.631 120.536 118.215 121.681C117.143 122.535 116.015 123.317 114.839 124.021C111.332 126.141 107.807 128.235 104.262 130.301C102.043 131.587 99.7682 132.774 97.5343 134.035C93.1656 136.493 88.8272 139.003 84.4382 141.426C81.4244 143.089 78.3845 144.702 75.2937 146.208C73.6231 147.017 71.8882 147.687 70.107 148.211C69.0927 148.51 67.9805 148.429 66.9116 148.454C62.8367 148.545 59.2412 147.031 55.7156 145.182C53.7294 144.138 51.8403 142.919 50.0706 141.539C47.8852 139.822 45.8826 137.885 44.0944 135.757C41.5821 132.772 39.4536 129.483 37.7586 125.969C36.7388 123.896 35.8221 121.762 35.0142 119.599C33.8901 116.595 32.9801 113.494 31.8479 110.484C31.0055 108.245 29.9954 106.064 28.9835 103.893C27.4175 100.598 25.5153 97.4738 23.3076 94.5695C21.2211 91.7873 18.8636 89.2192 16.2696 86.903C14.7333 85.5081 13.0355 84.3022 11.2125 83.3111C10.673 82.999 10.1573 82.6475 9.66945 82.2597C9.01137 81.7647 8.31567 81.3219 7.58866 80.9353C6.2683 80.2469 5.66863 79.0002 5.69171 77.5321C5.70736 76.5343 5.87664 75.5205 6.55678 74.7276C7.20934 73.9282 7.9285 73.1855 8.70646 72.5075C10.8069 70.7432 13.2088 69.3727 15.7963 68.4621C15.9111 68.4097 16.019 68.3432 16.1175 68.2643C16.2907 68.1562 16.3614 68.0515 16.1149 67.9414C15.2916 67.5322 14.599 66.9012 14.115 66.1197C13.9186 65.8541 13.6583 65.6424 13.3582 65.5044C13.0027 65.3371 12.6886 65.0933 12.4385 64.7903C12.1885 64.4873 12.0086 64.1328 11.9118 63.752C11.8149 63.3713 11.8036 62.9738 11.8786 62.5882C11.9535 62.2026 12.113 61.8383 12.3454 61.5216C13.4547 60.1247 14.7473 58.8837 16.1882 57.8321C19.4778 55.3038 22.9417 53.0107 26.5542 50.9701C31.114 48.3435 35.6965 45.7449 40.3548 43.2967C44.2344 41.2569 48.2102 39.4031 52.1958 37.5653C54.2526 36.6158 56.4016 35.8494 58.5343 35.0715C59.2329 34.8369 60.0077 34.8165 60.8048 34.6786ZM61.9646 36.4928C59.4725 36.9811 57.2883 37.8922 55.1201 38.7935C50.1094 40.8691 45.2337 43.2732 40.4434 45.7798C37.9822 47.0622 35.5275 48.3614 33.1024 49.7087C30.7479 51.0118 28.4148 52.3574 26.1034 53.7455C23.6567 55.2351 21.2013 56.6943 18.8429 58.3037C17.1867 59.4821 15.5914 60.7439 14.0634 62.0843C13.0703 62.9172 13.1571 63.8297 14.2812 64.6161C15.0341 65.1468 15.8867 65.2479 16.6741 65.5879C18.9134 66.6016 20.9867 67.9477 22.824 69.5806C25.1334 71.5374 27.1915 73.7727 28.9513 76.2354C30.0021 77.7274 31.0786 79.2043 32.1007 80.7155C33.7743 83.2343 35.2461 85.8814 36.5025 88.6322C37.8298 91.4825 39.0307 94.3819 40.1049 97.3305C41.1797 100.275 42.3987 103.17 43.5338 106.094C45.3913 110.888 47.8764 115.413 50.9241 119.553C52.4406 121.574 54.1275 123.462 55.9662 125.195C58.1781 127.324 60.6711 129.14 63.3758 130.593C65.2653 131.613 67.254 132.467 69.227 133.312C70.3297 133.768 71.4638 134.144 72.6203 134.438C73.706 134.767 74.8732 134.7 75.9138 134.248C80.1887 132.254 84.5008 130.331 88.6859 128.167C94.6092 125.102 100.443 121.867 106.303 118.664C111.035 116.089 115.735 113.449 120.15 110.375C121.211 109.578 122.202 108.693 123.114 107.729C123.697 107.152 123.61 106.485 123.072 105.86C122.154 104.807 120.883 104.423 119.616 104.028C119.129 103.933 118.649 103.802 118.18 103.636C116.556 102.911 114.974 102.093 113.442 101.187C110.61 99.3815 107.912 97.3891 105.603 94.9101C103.495 92.6223 101.588 90.157 99.9033 87.5415C98.1923 84.8985 96.6758 82.1346 95.3658 79.2717C93.3334 74.9216 91.9214 70.3363 90.3003 65.837C89.1564 62.6907 87.8119 59.621 86.2752 56.6468C84.7155 53.7147 82.9019 50.9249 80.8553 48.3093C78.5612 45.3672 75.8887 42.7409 72.9073 40.4982C70.8559 38.9129 68.5354 37.8255 66.3096 36.5262C65.9431 36.3319 65.5305 36.2411 65.1163 36.2636C64.0256 36.3067 62.929 36.4183 61.9646 36.4928ZM68.6234 146.825C69.8857 146.337 71.2091 145.955 72.4137 145.338C75.6905 143.655 78.9431 141.914 82.1715 140.116C85.7934 138.107 89.3712 136.027 92.9761 133.981C97.3361 131.514 101.726 129.094 106.068 126.587C109.441 124.639 112.754 122.587 116.086 120.588C116.79 120.161 116.782 119.907 116.055 119.467C115.768 119.303 115.463 119.172 115.146 119.077C114.355 118.823 113.525 118.647 112.764 118.338C112.004 118.029 111.432 118.235 110.801 118.617C109.674 119.31 108.524 119.975 107.369 120.633C105.955 121.418 104.52 122.16 103.102 122.942C99.4431 124.962 95.8294 127.08 92.1178 129.002C87.9262 131.149 83.6515 133.165 79.4134 135.227C78.0411 135.916 76.5694 136.385 75.0519 136.618C74.1492 136.776 73.2195 136.639 72.4006 136.228C71.973 135.975 71.5253 135.758 71.0621 135.578C69.6868 135.127 68.282 134.752 66.9119 134.289C63.8237 133.193 60.8929 131.697 58.1949 129.838C57.6206 129.431 57.0764 128.984 56.5666 128.499C55.2658 127.349 53.8975 126.26 52.7094 125.001C50.7456 122.919 48.9692 120.667 47.4008 118.272C45.5844 115.549 44.0081 112.673 42.6898 109.677C40.8263 105.358 39.0914 100.982 37.4002 96.5903C35.8708 92.5274 34.0294 88.5889 31.8926 84.81C29.79 81.1222 27.2755 77.685 24.3974 74.5644C22.8621 72.9407 21.2291 71.4123 19.5076 69.9876C18.8368 69.4178 18.2278 69.246 17.3951 69.7739C16.0659 70.6153 14.6448 71.3161 13.2836 72.0955C11.7318 72.9775 10.3037 74.0612 9.03655 75.3183C8.43093 75.8965 8.02535 76.6526 7.87853 77.477C7.81266 77.7972 7.85775 78.1303 8.00644 78.4215C8.58952 79.3263 9.20817 80.2107 10.4019 80.4341C10.8859 80.5469 11.3558 80.7135 11.8027 80.9309C13.8319 81.8797 15.7095 83.1236 17.3745 84.622C20.0515 86.9724 22.487 89.5843 24.6448 92.4189C27.252 95.8039 29.4904 99.4577 31.3219 103.318C32.8242 106.413 33.9354 109.65 35.1075 112.869C35.8637 114.96 36.4798 117.103 37.2333 119.197C39.2837 124.884 42.1168 130.143 46.0262 134.805C48.0187 137.187 50.2967 139.314 52.809 141.14C54.0813 142.064 55.4426 142.866 56.7612 143.729C59.4924 145.57 62.685 146.61 65.9769 146.729C66.8452 146.756 67.7078 146.792 68.613 146.827L68.6234 146.825Z" fill="#122224"/>
<path d="M64.923 119.596C64.591 119.629 64.4296 119.682 64.2625 119.661C63.9061 119.655 63.7004 119.35 63.8794 119.07C64.0955 118.72 64.3751 118.414 64.7039 118.167C66.3335 117.028 67.9713 115.895 69.641 114.824C72.3191 113.091 75.0135 111.383 77.7242 109.701C81.9126 107.111 86.1161 104.54 90.3347 101.988C92.0329 100.959 93.7451 99.9479 95.5007 98.983C96.3111 98.5717 97.1457 98.21 98 97.9C98.1429 97.8211 98.3109 97.8011 98.4684 97.8442C98.6258 97.8873 98.7603 97.9901 98.8431 98.1308C98.9556 98.4274 98.9554 98.7549 98.8425 99.0513C98.6764 99.338 98.4384 99.5765 98.1519 99.743C96.8419 100.613 95.5377 101.496 94.1893 102.309C90.007 104.838 85.8188 107.333 81.6341 109.848C78.2983 111.847 74.9754 113.88 71.6315 115.873C69.8178 116.954 67.978 117.987 66.1359 119.027C65.7006 119.284 65.2192 119.46 64.923 119.596Z" fill="#122224"/>
<path d="M53.5768 103.3C53.3782 103.316 53.1784 103.302 52.9836 103.261C52.7684 103.188 52.4249 103.031 52.4188 102.893C52.4172 102.759 52.444 102.626 52.4974 102.503C52.5508 102.38 52.6296 102.269 52.7287 102.178C53.0788 101.962 53.4452 101.772 53.8247 101.612L62.6623 96.8021C65.2798 95.3753 67.9188 93.991 70.513 92.5327C74.7222 90.1587 78.9193 87.7156 83.1279 85.3382C84.5655 84.5278 86.0589 83.7931 87.5288 83.066C88.1274 82.767 88.535 82.8635 88.7165 83.255C88.9534 83.7612 88.698 84.072 88.326 84.4278C87.0865 85.6232 85.5995 86.4563 84.1402 87.306C78.2004 90.7685 72.2338 94.1788 66.1268 97.3326C62.9298 98.9841 59.7049 100.576 56.4759 102.166C55.5518 102.617 54.5624 102.917 53.5768 103.3Z" fill="#122224"/>
<path d="M86.258 75.375C86.0203 75.7118 85.7396 76.016 85.4231 76.28C84.347 76.907 83.2542 77.4989 82.1446 78.0558C81.2981 78.4831 80.394 78.8031 79.5521 79.2367C75.3928 81.3781 71.2401 83.5445 67.0941 85.7358C63.5364 87.6026 60.0055 89.5216 56.4326 91.3625C54.1481 92.5363 51.8209 93.6072 49.5095 94.7287C49.4372 94.7626 49.373 94.8234 49.2967 94.8544C48.9326 95.0098 48.5222 95.1022 48.2912 94.7122C48.0602 94.3221 48.3926 93.9838 48.6884 93.7834C49.3573 93.2927 50.0504 92.8358 50.765 92.4146C52.8497 91.2151 54.95 90.0448 57.0457 88.8682C59.9606 87.23 62.8678 85.5469 65.8471 83.9722C69.652 81.9525 73.5122 80.0475 77.3282 78.0508C79.0514 77.1448 80.7617 76.2055 82.6146 75.5969C83.5271 75.3241 84.4593 75.1223 85.4029 74.9935C85.614 74.9605 85.8717 75.1966 86.258 75.375Z" fill="#122224"/>
<path d="M34.2724 67.1901C34.0691 67.0832 33.7031 67.0008 33.5687 66.7789C33.4872 66.6366 33.6802 66.191 33.8727 66.051C34.6337 65.4781 35.4312 64.9554 36.2602 64.4863C40.0134 62.4483 43.776 60.4311 47.5483 58.4348C52.6083 55.7821 57.6822 53.1482 62.7533 50.5184C64.185 49.7766 65.6307 49.0537 67.0904 48.371C67.7324 48.0843 68.3969 47.8504 69.0769 47.6718C69.3535 47.5942 69.647 47.6016 69.9193 47.693C70.0399 47.7275 70.1481 47.7959 70.2309 47.8901C70.3138 47.9842 70.3679 48.1002 70.3867 48.2243C70.4056 48.3483 70.3884 48.4751 70.3372 48.5896C70.2861 48.7042 70.2031 48.8016 70.0982 48.8704C69.546 49.3088 68.9553 49.6965 68.3334 50.0288C65.5545 51.5084 62.7744 52.9811 59.9739 54.4183C54.9629 56.9844 49.9507 59.5436 44.9135 62.061C41.6421 63.6933 38.3553 65.236 35.075 66.8167C34.8638 66.9314 34.6352 67.0278 34.2724 67.1901Z" fill="#122224"/>
<path d="M28.2925 62.365C27.9957 62.4164 27.9475 62.4247 27.9164 62.4301C27.5974 62.4143 27.0717 62.4981 27.0052 62.3604C26.7737 61.8852 27.2308 61.6106 27.5514 61.4094C28.4812 60.8682 29.4366 60.3723 30.3879 59.8522C33.0607 58.4372 35.7363 57.0181 38.4156 55.6196C42.2706 53.6019 46.1221 51.5848 49.9853 49.5941C52.9671 48.0544 55.9547 46.528 58.9697 45.0573C60.0566 44.57 61.1685 44.1403 62.3007 43.7699C62.5299 43.6689 62.7834 43.6362 63.0307 43.6755C63.3329 43.7583 63.7322 43.9095 63.8229 44.1461C63.9137 44.3827 63.7204 44.7858 63.5143 44.9707C63.1106 45.3279 62.6607 45.6293 62.1768 45.8668C59.6684 47.1433 57.1454 48.3974 54.6311 49.6606L50.2981 51.8322C44.7082 54.6264 39.12 57.431 33.5156 60.2029C32.0715 60.9149 30.5733 61.5189 29.0902 62.1488C28.8323 62.2478 28.565 62.3203 28.2925 62.365Z" fill="#122224"/>
<path d="M48.3019 81.6747C45.7848 82.018 43.4618 81.3681 41.6181 79.299C41.3915 79.0885 41.2188 78.8266 41.1146 78.5354C41.0104 78.2442 40.9777 77.9322 41.0193 77.6257C41.0686 77.3426 41.0378 77.0513 40.9306 76.7846C39.7985 74.3507 40.604 72.2495 42.102 70.3093C42.6503 69.6255 43.3284 69.0568 44.0972 68.6359C44.866 68.2149 45.7103 67.95 46.5818 67.8564C49.8796 67.4242 52.8815 68.6496 54.3177 72.1219C54.7185 73.1746 54.8168 74.3184 54.6014 75.4241C54.0419 78.8438 51.5572 80.9762 48.3019 81.6747ZM52.4061 73.8281C52.4419 71.7358 49.6021 69.7218 47.5876 69.8893C46.1726 70.0148 44.8475 70.6367 43.8468 71.645C42.8461 72.6533 42.2342 73.983 42.1194 75.3989C42.0629 76.1195 41.8242 76.9995 42.9526 77.2769C43.1752 77.3307 43.306 77.7168 43.5059 77.9274C44.017 78.4573 44.481 79.0025 45.2369 79.2839C47.2618 80.0387 49.0499 79.7541 50.6685 78.326C52.0283 77.1275 52.8173 75.7116 52.4061 73.8281Z" fill="#122224"/>
<path d="M70.5023 125.177C70.3394 125.098 70.0466 125.05 69.9431 124.883C69.8921 124.778 69.8654 124.664 69.8649 124.547C69.8645 124.431 69.8904 124.316 69.9407 124.211C70.1172 123.931 70.3502 123.689 70.6248 123.503C72.9932 121.828 75.3278 120.102 77.7589 118.523C81.7129 115.947 85.7151 113.446 89.7279 110.964C91.1662 110.075 92.697 109.33 94.1742 108.502C94.3141 108.413 94.4785 108.37 94.6442 108.38C94.8099 108.389 94.9683 108.451 95.0968 108.556C95.4275 108.783 95.541 109.069 95.2414 109.391C94.9883 109.662 94.7129 109.912 94.4181 110.138C91.4966 112.477 88.2427 114.313 85.0835 116.285C81.6403 118.43 78.1921 120.567 74.7389 122.695C73.5764 123.412 72.4 124.109 71.2271 124.806C71.0309 124.925 70.8018 125.018 70.5023 125.177Z" fill="#122224"/>
<path d="M55.4949 66.79C55.3061 66.8075 55.1163 66.8094 54.9272 66.7958C54.8321 66.7927 54.7402 66.7609 54.6634 66.7047C54.5866 66.6484 54.5286 66.5704 54.497 66.4806C54.4653 66.3909 54.4614 66.2936 54.4859 66.2017C54.5104 66.1097 54.5621 66.0273 54.6342 65.9652C54.9012 65.6523 55.2137 65.3814 55.5613 65.1615C56.8411 64.3429 58.1375 63.4966 59.4777 62.7599C62.7794 60.947 66.099 59.1688 69.4364 57.4255C70.7895 56.7221 72.1174 55.9343 73.6569 55.6714C73.8875 55.6148 74.127 55.6035 74.3619 55.6382C74.9576 55.7946 75.1103 56.3687 74.6355 56.7672C74.0422 57.2885 73.398 57.7489 72.7126 58.1413C70.523 59.3093 68.3065 60.425 66.0901 61.5408C62.8017 63.1975 59.5094 64.8453 56.2131 66.4844C55.975 66.6074 55.7004 66.7046 55.4949 66.79Z" fill="#122224"/>
<path d="M58.673 109.252C58.2003 109.334 57.9829 109.372 57.7896 109.405C57.6272 109.436 57.459 109.409 57.3149 109.328C57.1708 109.247 57.06 109.117 57.0022 108.962C56.9291 108.811 56.918 108.636 56.9713 108.476C57.0246 108.317 57.138 108.184 57.2876 108.106C57.5918 107.891 57.9072 107.691 58.2326 107.509C60.6636 106.278 63.0993 105.053 65.5396 103.835C67.3236 102.977 69.1778 102.273 71.0819 101.731C71.2779 101.672 71.4896 101.54 71.6665 101.577C71.9294 101.638 72.2882 101.76 72.3799 101.961C72.4715 102.162 72.2513 102.471 72.1164 102.718C72.0025 102.836 71.8618 102.925 71.7064 102.977C67.6839 105.095 63.6957 107.267 59.486 109.002C59.1276 109.128 58.7672 109.222 58.673 109.252Z" fill="#122224"/>
<path d="M59.0488 71.2249C58.4205 71.291 57.8925 71.5459 57.5458 70.9804C57.3277 70.6237 57.5691 70.191 58.2562 69.6847C58.5584 69.4674 58.8745 69.2702 59.2025 69.0944C61.6387 67.77 64.0695 66.4146 66.5227 65.1477C67.4988 64.7039 68.4998 64.317 69.5207 63.9891C69.6663 63.9183 69.8289 63.8902 69.9899 63.9079C70.2607 63.9733 70.5053 64.1193 70.6914 64.3267C70.7838 64.4706 70.6831 64.8328 70.5466 65.0092C70.3365 65.264 70.0805 65.4771 69.7917 65.6374C66.5929 67.5451 63.3213 69.3197 59.9653 70.9348C59.6677 71.0548 59.3612 71.1518 59.0488 71.2249Z" fill="#122224"/>
<path d="M70.1304 72.2812L76.7454 71.814L80.0527 71.8167L81.4713 70.4004L81.9449 68.9834L83.8356 68.0399L84.3092 66.6229L83.3703 59.0625L82.899 57.6447L81.4816 57.6436L64.9442 58.5752L63.9989 59.0469L63.9916 68.024L64.9354 69.4421L67.2978 69.4441L68.7133 71.8076L70.1304 72.2812Z" fill="#418FA0"/>
<path d="M92.1737 30.7912C92.1057 28.3635 91.4757 25.9847 90.333 23.8417C89.2834 21.8811 87.8631 20.143 86.1509 18.724C84.9809 17.7261 83.6803 16.8925 82.2851 16.246L81.6121 15.9362C80.424 15.3458 79.1845 14.8648 77.9091 14.4992L77.8737 14.4907L76.8136 14.3686C75.9798 14.2632 75.1506 14.165 74.3243 14.08C74.0259 14.0524 73.7102 14.0456 73.4179 14.0444C73.1466 14.0471 72.8753 14.0343 72.6054 14.0062C71.3951 13.9315 70.1802 14.0098 68.9895 14.2394L68.2989 14.3424C67.1776 14.5268 66.0782 14.8257 65.0178 15.2342C63.8241 15.6545 62.6629 16.1619 61.5437 16.7523C60.2352 17.4362 59.0106 18.2701 57.8949 19.2371C56.2201 20.6758 54.8001 22.3867 53.6944 24.2978C52.9695 25.5402 52.4055 26.8697 52.0163 28.2545C51.4945 30.317 51.3891 32.4629 51.7062 34.5666C52.0133 36.6826 52.7463 38.7144 53.8609 40.5391C54.7642 42.0241 55.9081 43.3486 57.2458 44.4584L58.4876 45.489C59.4597 46.2934 60.4689 47.1253 61.3773 48.0142C63.2299 49.784 64.5613 52.0284 65.2263 54.5027C65.3795 55.087 65.5137 55.673 65.6464 56.2648C65.7268 56.6325 65.8145 56.9957 65.9008 57.3649C66.0439 57.9654 66.2202 58.244 66.6089 58.3367C66.8118 58.3748 67.019 58.3844 67.2245 58.3652L70.2852 58.1366C72.0474 58.0028 73.8156 57.8705 75.5809 57.75C76.8204 57.668 78.0619 57.5947 79.3055 57.5303L80.3448 57.4793C81.3545 57.4213 81.604 57.1572 81.6134 56.1262C81.6159 54.9383 81.736 53.7535 81.9715 52.5891C82.0881 52.1003 82.2045 51.6115 82.3649 51.0957C82.4238 50.8484 82.4829 50.6011 82.5786 50.3562C82.924 49.1668 83.4336 48.0314 84.0927 46.9828C85.078 45.4539 86.1848 44.0069 87.4025 42.6558L87.7998 42.1903C88.5395 41.3431 89.2042 40.4333 89.7864 39.471C90.4847 38.3364 91.0439 37.1218 91.452 35.8536C91.9695 34.2173 92.2133 32.5069 92.1737 30.7912Z" fill="white"/>
<path d="M78.111 13.6261C80.2089 14.1894 82.2205 15.0356 84.0903 16.1412C86.1857 17.352 88.0222 18.9637 89.4946 20.8844C91.511 23.4743 92.7365 26.5914 93.0241 29.8611C93.201 31.9417 92.9699 34.0368 92.3438 36.0289C91.6424 38.3149 90.4868 40.4358 88.9461 42.2644C88.1169 43.2876 87.1902 44.2277 86.1791 45.0715C86.074 45.1595 85.9808 45.2607 85.9018 45.3726C85.0128 46.6548 84.2814 48.0393 83.7234 49.4964C83.411 50.3368 83.0868 51.1745 82.8391 52.0304C82.6932 52.6385 82.5856 53.2552 82.517 53.8769C82.4237 54.477 82.3323 55.1212 82.2348 55.7391C82.1898 55.9275 82.1449 56.116 82.1297 56.3364C82.1006 56.9021 82.1423 56.9619 82.6982 56.9015C82.9 56.8635 83.1087 56.896 83.2894 56.9934C83.4701 57.0909 83.6118 57.2475 83.6909 57.437C84.0822 58.0304 84.3114 58.716 84.3558 59.4254C84.4743 61.5388 84.6468 63.6339 84.7711 65.7487C84.7861 66.2682 84.7702 66.7882 84.7234 67.3058C84.7121 67.442 84.6638 67.5726 84.5837 67.6833C84.1431 68.3866 83.4784 68.9209 82.6969 69.2002C82.5974 69.2263 82.4359 69.3558 82.4454 69.4203C82.5229 70.0612 82.0234 70.4587 81.701 70.9233C81.6244 71.0358 81.4651 71.1036 81.6055 71.3238C81.9066 71.7317 81.8512 71.9115 81.4058 72.0044C80.685 72.1562 79.9462 72.2788 79.2159 72.366C78.8111 72.4189 78.4048 72.4527 77.9953 72.4733C76.0286 72.577 74.0647 72.6688 72.0966 72.7783C71.5536 72.8107 71.0145 72.9311 70.4757 72.9458C70.1273 72.9832 69.7753 72.923 69.4591 72.7718C68.9112 72.3698 68.3921 71.9299 67.9058 71.4553C67.7938 71.3318 67.7033 71.1903 67.6383 71.0367C67.4929 70.7593 67.4254 70.3635 67.2081 70.2308C66.9908 70.0981 66.5898 70.2141 66.2403 70.2179L66.0774 70.2226C65.5132 70.2515 64.9595 70.0627 64.5305 69.6952C64.1016 69.3276 63.8303 68.8095 63.7724 68.2476C63.4842 66.1028 63.3321 63.9419 63.3171 61.7779C63.2835 60.8487 63.2791 59.9015 63.2721 58.9911C63.2661 58.442 63.3125 58.3783 63.8059 58.2408C64.0973 58.1671 64.3979 58.133 64.6955 58.0857C64.9931 58.0384 65.1065 57.9285 65.0255 57.6416C64.7533 56.2975 64.4093 54.9688 63.9953 53.6614C63.6255 52.6595 63.1541 51.6982 62.5881 50.7926C61.4934 49.0805 60.075 47.5984 58.4126 46.4296C57.1474 45.5596 55.995 44.5363 54.9814 43.383C53.6989 41.9266 52.675 40.2615 51.9541 38.4598C51.1907 36.5002 50.7846 34.4197 50.755 32.3169C50.7638 30.5049 51.0463 28.7047 51.5927 26.9771C51.8742 26.1194 52.2385 25.2912 52.6804 24.504C54.1416 21.6664 56.2825 19.2346 58.912 17.4256C60.641 16.1696 62.5545 15.1897 64.5841 14.5208C65.9856 14.0327 67.4251 13.6619 68.888 13.4122C70.7798 13.0925 72.7072 13.0409 74.6134 13.2589C75.7793 13.3813 76.9479 13.4919 78.111 13.6261ZM77.7627 15.0866C76.5938 14.951 75.429 14.7978 74.2618 14.6812C73.6958 14.6272 73.1132 14.6688 72.5473 14.6147C71.152 14.5507 69.7543 14.6606 68.3863 14.942C67.3053 15.1163 66.2458 15.404 65.2251 15.8002C64.0625 16.2116 62.9324 16.7099 61.8446 17.2908C60.5752 17.9452 59.3901 18.7515 58.3155 19.6921C56.6933 21.0867 55.3143 22.7414 54.235 24.5884C53.5373 25.7984 52.9909 27.0897 52.6085 28.4331C52.1097 30.4198 52.0085 32.4855 52.3106 34.5115C52.6105 36.546 53.3175 38.4992 54.3893 40.2543C55.2487 41.6923 56.3473 42.9731 57.6377 44.0414C59.034 45.2333 60.4927 46.3467 61.8048 47.6306C63.7288 49.4776 65.1085 51.8176 65.7935 54.3952C66.0461 55.3455 66.2387 56.3126 66.4723 57.2646C66.6092 57.8387 66.6196 57.8475 67.1713 57.8047C69.952 57.6027 72.7426 57.3843 75.5277 57.1895C77.1096 57.0813 78.6845 57.0024 80.2843 56.9233C80.9916 56.8804 80.9888 56.8922 80.9999 56.1666C81.0005 54.9417 81.1231 53.7199 81.3657 52.5193C81.5468 51.7596 81.7765 51.0052 81.9871 50.2525C82.3449 49.0158 82.8716 47.8345 83.5524 46.7419C84.6757 45.0216 85.9359 43.3946 87.3206 41.8768C88.0391 41.0496 88.6857 40.1627 89.2536 39.2257C89.9252 38.1281 90.4659 36.9556 90.8647 35.7322C91.3651 34.1368 91.5965 32.4692 91.5496 30.7979C91.4903 28.4611 90.8856 26.1705 89.7837 24.109C88.7701 22.2165 87.3989 20.5388 85.746 19.1688C84.6186 18.2071 83.3652 17.4035 82.0207 16.7805C80.6539 16.0918 79.2291 15.525 77.7627 15.0866ZM82.1273 58.1471C81.9977 58.1256 81.8663 58.1172 81.735 58.122C80.4673 58.2181 79.2264 58.3578 77.9676 58.4685C76.1905 58.5862 74.4132 58.679 72.6417 58.7731L68.4563 59.0199L66.1681 59.1402C65.9216 59.1561 65.6703 59.1398 65.4269 59.1689C64.6906 59.2547 64.4443 59.557 64.4995 60.317C64.6017 61.7419 64.7374 63.156 64.8146 64.5811C64.8782 65.6979 64.9023 66.824 64.9041 67.9386C64.9022 68.107 64.9354 68.274 65.0016 68.4288C65.0679 68.5836 65.1657 68.7229 65.2889 68.8378C65.412 68.9527 65.5577 69.0406 65.7167 69.096C65.8758 69.1514 66.0447 69.1729 66.2125 69.1594C68.1198 68.9918 70.0801 68.8368 72.0168 68.6762C74.228 68.5126 76.444 68.3813 78.6497 68.2413C79.1368 68.2081 79.6291 68.2321 80.1194 68.2121C80.8842 68.1891 81.649 68.1661 82.4094 68.1358C82.6177 68.1414 82.8221 68.0775 82.9901 67.9542C83.1582 67.8308 83.2803 67.655 83.3374 67.4545C83.4423 67.121 83.4999 66.7743 83.5083 66.4247C83.4093 64.0733 83.278 61.7266 83.1599 59.3768C83.1249 58.5842 82.9134 58.3221 82.1273 58.1471ZM81.1296 69.5609C81.2083 69.2311 81.1709 69.1786 80.8206 69.2383C80.3927 69.3358 79.9596 69.4091 79.5234 69.458C78.1308 69.5553 76.7364 69.6087 75.3379 69.7047C73.5093 69.8039 71.6778 69.9149 69.8477 70.02C69.5513 70.0365 69.2223 70.0327 68.948 70.0607C68.6737 70.0886 68.6228 70.2756 68.754 70.4563C69.0046 70.8148 69.309 71.1302 69.5742 71.4797C69.6713 71.6111 69.8036 71.7123 69.9558 71.7718C70.1079 71.8312 70.2737 71.8463 70.434 71.8155C72.1856 71.6481 73.9313 71.4793 75.6775 71.3604C76.7164 71.2845 77.753 71.2703 78.8104 71.2735C79.3347 71.2972 79.8513 71.1401 80.2735 70.8283C80.6958 70.5165 80.9981 70.069 81.1296 69.5609Z" fill="#122224"/>
<path d="M77.2605 35.9302C77.3925 35.3766 77.526 34.8171 77.658 34.2635C77.7408 33.916 77.5953 33.9 77.3297 33.9176C76.7968 33.9876 76.2551 33.9015 75.7701 33.6699C75.2852 33.4382 74.8778 33.0709 74.5974 32.6125C74.439 32.3631 74.2701 32.3664 74.0425 32.5113C73.6313 32.7742 73.2142 33.0358 72.788 33.2827C72.2551 33.573 71.6586 33.7271 71.0517 33.7311C70.4447 33.7352 69.8463 33.5891 69.3095 33.3059C68.8033 33.0794 68.7486 33.0477 68.4335 33.5078C67.9988 34.0995 67.4563 34.6036 66.8343 34.9937C66.7811 35.0155 66.7331 35.0484 66.6935 35.0902C66.654 35.1321 66.6238 35.1818 66.6049 35.2362C66.5861 35.2905 66.5789 35.3483 66.5841 35.4056C66.5893 35.4629 66.6066 35.5185 66.6349 35.5686C66.7044 35.747 66.7607 35.9285 66.8434 36.1038C67.7086 38.0001 68.373 39.9818 68.8256 42.0164C69.4325 44.8519 69.7862 47.7358 69.8827 50.6339C69.9775 52.4553 69.8784 54.2802 69.8247 56.0973C69.8124 56.3453 69.7543 56.5889 69.6534 56.8158C69.6239 56.9395 69.4113 57.1004 69.3361 57.0763C69.2646 57.0464 69.201 57.0005 69.1501 56.9419C69.0993 56.8834 69.0626 56.8138 69.0431 56.7388C69.0123 56.4114 69.0014 56.0825 69.0104 55.7538C68.9869 54.939 68.9456 54.12 68.9706 53.3106C68.965 51.5852 68.8451 49.8698 68.7001 48.1547C68.5775 46.7375 68.345 45.3376 68.1696 43.9327C68.0575 43.2644 67.9031 42.604 67.7075 41.9552C67.4991 41.1586 67.3244 40.3514 67.0296 39.5777C66.6584 38.5244 66.2416 37.479 65.7752 36.459C65.479 35.822 65.3975 35.7465 64.7114 35.8568C64.2749 35.9166 63.8305 35.8751 63.4126 35.7355C62.9948 35.5959 62.6146 35.362 62.3017 35.0518C61.8751 34.6861 61.5296 34.2354 61.2871 33.7286C61.0447 33.2217 60.9105 32.6697 60.8936 32.1081C60.8806 31.9444 60.9058 31.7799 60.967 31.6275C61.0281 31.4751 61.1237 31.3389 61.2462 31.2295C61.3687 31.1202 61.5147 31.0406 61.6731 30.997C61.8314 30.9534 61.9977 30.947 62.1589 30.9783C62.9518 31.102 63.6779 31.495 64.2152 32.0911C64.7673 32.6262 65.2398 33.2377 65.6182 33.907C65.7578 34.183 65.9472 34.1722 66.1346 33.9866C66.6579 33.4889 67.176 32.9341 67.6945 32.4042C67.8182 32.2942 67.9008 32.1454 67.9284 31.9822C67.956 31.819 67.9271 31.6512 67.8464 31.5067C67.547 30.7943 67.5159 29.9975 67.7588 29.2638C67.8726 28.7868 67.9891 28.298 68.1029 27.8209C68.1564 27.6055 68.2739 27.4114 68.4401 27.2643C68.6064 27.1172 68.8134 27.0241 69.0337 26.9972C69.2107 26.9661 69.3929 26.9881 69.5573 27.0606C69.7217 27.133 69.8609 27.2526 69.9574 27.4042C70.1556 27.699 70.2738 28.0404 70.3001 28.3947C70.3519 29.3029 70.1658 30.2089 69.7604 31.0233C69.6914 31.1728 69.6394 31.3295 69.6054 31.4905C69.5783 31.5542 69.5656 31.6232 69.5682 31.6923C69.5707 31.7615 69.5884 31.8293 69.62 31.8909C69.6517 31.9525 69.6965 32.0064 69.7512 32.0487C69.806 32.0911 69.8694 32.1209 69.9369 32.136C70.3281 32.3094 70.7562 32.3836 71.1829 32.3518C71.6096 32.32 72.0219 32.1832 72.383 31.9537C72.5856 31.8091 72.8105 31.7009 73.0116 31.5621C73.2702 31.4344 73.4807 31.2265 73.6115 30.9694C73.7424 30.7124 73.7866 30.4199 73.7377 30.1356C73.6688 29.201 73.8096 28.2627 74.1498 27.3894C74.202 27.1742 74.3012 26.9732 74.4403 26.8009C74.5793 26.6285 74.7548 26.489 74.954 26.3924C75.0641 26.3409 75.1836 26.3125 75.305 26.309C75.4265 26.3055 75.5475 26.3269 75.6604 26.3719C75.7733 26.4169 75.8758 26.4846 75.9616 26.5707C76.0473 26.6568 76.1144 26.7596 76.159 26.8727C76.4153 27.4831 76.4384 28.1664 76.224 28.7928C76.0123 29.4952 75.7509 30.1817 75.4416 30.8469C75.3614 30.9722 75.3238 31.12 75.3344 31.2683C75.345 31.4166 75.4033 31.5576 75.5004 31.6701C76.1113 32.4756 76.586 32.651 77.4794 32.4283C77.6572 32.4044 77.8226 32.324 77.9511 32.1988C78.0796 32.0736 78.1644 31.9104 78.193 31.7333C78.547 30.4063 79.1488 29.1581 79.9665 28.0545C80.1911 27.7451 80.4858 27.4934 80.8264 27.3197C81.0186 27.209 81.2363 27.1502 81.4581 27.1492C81.6799 27.1481 81.898 27.2048 82.0913 27.3137C82.2845 27.4226 82.446 27.5799 82.56 27.7701C82.674 27.9604 82.7365 28.1771 82.7414 28.3988C82.8002 29.3707 82.4716 30.3263 81.8275 31.0565C81.3571 31.7263 80.7795 32.3141 80.118 32.7962C80.0291 32.8559 79.9524 32.9683 79.8556 32.9826C79.2063 33.0954 79.0869 33.5959 78.9619 34.1201C78.837 34.6442 78.6811 35.2979 78.5406 35.8869C78.1496 37.8362 77.8871 39.8092 77.7546 41.793C77.7093 43.027 77.5404 44.2316 77.448 45.4544C77.4122 45.9438 77.4439 46.4368 77.4272 46.9245C77.3625 48.9444 77.2788 50.966 77.2273 52.9828C77.2048 53.8862 77.2705 54.7857 77.298 55.6885C77.3023 55.7975 77.297 55.9066 77.2823 56.0147C77.222 56.2679 77.1617 56.5212 76.8181 56.5264C76.4745 56.5316 76.4409 56.2809 76.4174 56.0139C76.3471 55.0821 76.2372 54.1596 76.186 53.2262C76.1097 51.6146 76.0406 49.9985 76.026 48.3892C76.01 46.9165 76.0439 45.4432 76.1145 43.9724C76.1851 42.5017 76.2687 41.1336 76.4428 39.7249C76.5978 38.4486 76.8733 37.1885 77.1004 35.9231L77.2605 35.9302ZM64.0771 34.6536C64.2017 34.6706 64.3277 34.6756 64.4533 34.6686C64.5576 34.6482 64.6592 34.6161 64.7562 34.5728C64.7199 34.4759 64.6756 34.382 64.6239 34.2923C64.4658 34.0679 64.299 33.8538 64.1571 33.6395C63.7255 33.0349 63.1802 32.5201 62.5518 32.1239C62.4911 32.0979 62.4258 32.0841 62.3598 32.0833C62.2938 32.0825 62.2282 32.0947 62.1669 32.1192C62.1198 32.108 62.0574 32.3172 62.0995 32.4019C62.2175 32.9118 62.4598 33.3847 62.8045 33.7786C63.1493 34.1724 63.5859 34.475 64.0757 34.6595L64.0771 34.6536ZM81.4026 29.2621C81.4391 29.1549 81.4654 29.0445 81.4813 28.9323C81.4731 28.8639 81.4556 28.7969 81.4292 28.7332C81.3591 28.7663 81.2668 28.7878 81.2278 28.847C80.8495 29.4415 80.4816 30.0446 80.1136 30.6478C80.0793 30.7217 80.0601 30.8018 80.0575 30.8833C80.0537 30.9365 80.0578 30.9899 80.0695 31.0418C80.1133 31.0149 80.1719 31.004 80.2039 30.9743C80.6969 30.4751 81.1022 29.8962 81.4026 29.2621ZM69.0985 29.4401L69.1154 29.3695L69.0623 29.3568C69.054 29.3797 69.0484 29.4034 69.0455 29.4275L69.0985 29.4401Z" fill="#122224"/>
<path d="M67.1386 67.6749C67.0508 67.573 66.832 67.4462 66.8276 67.3082C66.8493 67.222 66.891 67.1421 66.9491 67.075C67.0073 67.0078 67.0805 66.9551 67.1627 66.9213C67.6898 66.6893 68.2374 66.5073 68.7985 66.3777C71.2227 65.9475 73.6562 65.5568 76.0897 65.1662C77.3855 64.9523 78.6771 64.7562 79.9659 64.5718C80.4234 64.5066 80.8948 64.5132 81.3584 64.4744C81.6123 64.454 81.8056 64.5313 81.8495 64.7907C81.8935 65.0501 81.6957 65.2271 81.4264 65.3122C81.2887 65.3416 81.1551 65.3533 81.0188 65.3769L77.6286 65.9689C76.2786 66.2009 74.927 66.4138 73.586 66.6605C72.6685 66.8276 71.7665 67.0606 70.846 67.2145C69.7672 67.4054 68.682 67.545 67.6204 67.6902C67.4596 67.6968 67.2986 67.6917 67.1386 67.6749Z" fill="#122224"/>
<path d="M81.9299 62.2889C81.7782 62.3929 81.6138 62.4772 81.4407 62.5395C80.4251 62.7267 79.4002 62.8745 78.386 63.0559C77.3717 63.2372 76.5286 63.4843 75.5909 63.6839C73.7742 64.0723 71.9513 64.4343 70.1331 64.8286C69.4109 64.9862 68.7085 65.2171 67.9877 65.3688C67.4291 65.4934 66.862 65.5767 66.2912 65.6178C66.121 65.627 65.9441 65.4292 65.7402 65.3184C65.8648 65.1614 65.9519 64.9269 66.1141 64.8474C66.5058 64.6472 66.9202 64.4953 67.3484 64.3948C69.0286 64.0485 70.7129 63.7199 72.4013 63.4088C73.9854 63.1081 75.5743 62.8397 77.1526 62.5376C78.2546 62.3274 79.3443 62.0644 80.4244 61.8676C80.8029 61.8194 81.1867 61.8311 81.5615 61.9023C81.7 61.9478 81.7872 62.1304 81.9299 62.2889Z" fill="#122224"/>
<path d="M82.005 59.724C81.914 59.8029 81.8143 59.871 81.7077 59.927C81.2205 60.0909 80.7291 60.2725 80.2267 60.3954C79.2498 60.6293 78.2563 60.828 77.2718 61.0414C76.0968 61.2965 74.9187 61.5384 73.7468 61.8067C73.0276 61.9775 72.3163 62.1938 71.6016 62.3719C69.8749 62.8004 68.1542 63.2303 66.4286 63.628C66.0819 63.7091 65.7285 63.7581 65.3728 63.7746C65.2407 63.7804 65.0983 63.6469 64.9595 63.5764C65.0504 63.43 65.1114 63.2267 65.25 63.1415C65.4404 63.0363 65.647 62.9635 65.8614 62.9263C67.0007 62.6378 68.1357 62.3421 69.2737 62.0595C69.8287 61.9242 70.3868 61.8021 70.9495 61.6873C71.9693 61.4824 72.985 61.2951 74.0018 61.077C75.0186 60.8589 75.9779 60.6208 76.9551 60.4119C78.1023 60.1689 79.2483 59.9567 80.3955 59.7137C80.7091 59.6515 81.0145 59.5189 81.3295 59.4509C81.4871 59.4123 81.6515 59.411 81.8097 59.4471C81.8762 59.4817 81.926 59.6118 82.005 59.724Z" fill="#122224"/>
<path d="M81.4028 29.2622C81.0928 29.8959 80.6774 30.4724 80.1745 30.9672C80.1661 31.0026 80.084 31.0079 80.0402 31.0348C80.0285 30.9828 80.0244 30.9294 80.0281 30.8763C80.0308 30.7948 80.0499 30.7147 80.0843 30.6407C80.4522 30.0376 80.8202 29.4344 81.1985 28.84C81.2139 28.7752 81.3298 28.7593 81.3999 28.7262C81.4263 28.7899 81.4438 28.8569 81.4519 28.9253C81.4461 29.0389 81.4297 29.1517 81.4028 29.2622Z" fill="white"/>
<path d="M69.1 29.4429L69.0452 29.4298C69.0482 29.4049 69.0541 29.3804 69.0626 29.3568C69.0626 29.3568 69.0992 29.3655 69.1174 29.3699L69.1 29.4429Z" fill="white"/>
<path d="M109.148 38L103.148 38" stroke="white" stroke-width="2" stroke-linecap="round"/>
<path d="M41.1484 38L35.1484 38" stroke="white" stroke-width="2" stroke-linecap="round"/>
<path d="M72.1484 1L72.1484 7" stroke="white" stroke-width="2" stroke-linecap="round"/>
<path d="M98.311 11.8371L94.0684 16.0797" stroke="white" stroke-width="2" stroke-linecap="round"/>
<path d="M98.311 64.1629L94.0684 59.9203" stroke="white" stroke-width="2" stroke-linecap="round"/>
<path d="M50.228 16.0797L45.9854 11.837" stroke="white" stroke-width="2" stroke-linecap="round"/>
<path d="M140.648 103.342L145.148 111.842L151.148 103.342V100.842L147.648 93.3416L140.648 103.342Z" fill="#A0A7A7"/>
<path d="M102.148 86.3416L114.148 92.3416L120.148 84.3416L121.148 81.3416L115.648 78.8416L110.648 75.8416L107.648 77.8416L102.148 86.3416Z" fill="#D0D3D3"/>
<path d="M115.148 92.3416L119.648 100.842L125.648 92.3416V89.8416L122.148 82.3416L115.148 92.3416Z" fill="#A0A7A7"/>
<path d="M127.648 97.3416L139.648 103.342L145.648 95.3416L146.648 92.3416L141.148 89.8416L136.148 86.8416L133.148 88.8416L127.648 97.3416Z" fill="#D0D3D3"/>
<path fill-rule="evenodd" clip-rule="evenodd" d="M119.148 100.842L114.648 92.3416L108.148 100.842L104.648 107.342L105.148 111.842L108.148 114.342H109.648L119.148 100.842ZM93.6484 122.342L99.1484 126.342L108.148 127.842L117.648 126.342L125.148 122.342L130.648 118.342L136.648 109.842L140.148 104.342L142.648 107.342L145.148 112.342L136.648 126.342L130.648 130.842L125.148 134.342L117.648 136.342H111.148L105.148 134.842L100.148 132.342L97.6484 128.842L93.6484 122.342Z" fill="#D0D3D3"/>
<path d="M102.148 86.3416L114.148 91.8416L107.148 101.842L105.648 105.842L104.148 108.842L105.648 112.842L109.148 114.842H114.148L119.148 110.842L123.148 104.842L127.648 97.8416L140.648 103.842L134.148 112.842L130.148 118.342L125.148 122.842L119.148 126.842L111.648 128.342L103.148 126.842L96.6484 124.342L92.6484 119.342L89.6484 110.842L91.1484 103.842L94.6484 96.8416L102.148 86.3416Z" fill="white"/>
<path d="M118.95 137.266C115.009 137.94 110.967 137.734 107.112 136.662C104.359 135.86 101.812 134.469 99.6442 132.583C97.9764 131.156 96.7605 129.403 95.5628 127.595C93.5599 124.58 91.7885 121.417 90.2639 118.132C89.0707 115.521 88.5548 112.649 88.7643 109.785C88.9913 106.626 89.8753 103.552 91.3592 100.76C91.489 100.501 91.6338 100.25 91.7926 100.009C93.5926 97.3181 95.4069 94.6407 97.1986 91.9473C99.867 87.9465 102.563 83.9649 105.145 79.9031C105.797 78.8975 106.571 77.9775 107.449 77.1643C108.704 75.9746 110.176 75.5462 111.792 76.1791C114.22 77.1299 116.636 78.1307 118.987 79.2386C120.651 80.0309 121.663 81.5682 122.544 83.1362C123.195 84.2892 123.697 85.5279 124.282 86.7201C124.561 87.4121 124.912 88.0727 125.329 88.6906C126.564 90.2569 126.492 91.8274 125.449 93.4076C124.008 95.587 122.56 97.7612 121.102 99.9303C119.143 102.853 117.167 105.766 115.21 108.692C114.194 110.207 113.202 111.739 112.213 113.269C112.111 113.482 112.035 113.705 111.987 113.936C112.208 113.986 112.436 113.998 112.661 113.97C115.177 113.22 117.192 111.834 118.433 109.42C118.889 108.64 119.388 107.887 119.927 107.162C121.452 104.899 122.955 102.603 124.487 100.335C126.852 96.8262 129.198 93.301 131.635 89.8438C132.33 88.8669 133.186 88.0165 134.165 87.3292C134.718 86.9193 135.372 86.6689 136.056 86.6051C136.74 86.5414 137.429 86.6667 138.049 86.9675C140.429 88.0344 142.857 88.993 145.274 89.9737C146.409 90.479 147.396 91.2701 148.139 92.2704C149.656 94.135 150.512 96.3545 151.518 98.4962C151.646 98.848 151.809 99.1863 152.004 99.506C153.325 101.273 152.667 102.966 151.776 104.623C151.494 105.085 151.188 105.531 150.86 105.961C148.699 109.156 146.54 112.35 144.384 115.544C142.977 117.653 141.576 119.762 140.182 121.87C139.592 122.771 139.083 123.727 138.465 124.606C135.114 129.444 130.43 133.194 124.987 135.398C123.049 136.203 120.962 136.659 118.95 137.266ZM97.0148 125.939L96.9341 125.909L97.0148 125.939C97.9272 127.114 98.86 128.27 99.7429 129.458C101.225 131.461 103.256 132.712 105.447 133.744C108.159 135.012 111.123 135.638 114.112 135.573C115.927 135.476 117.733 135.262 119.52 134.933C122.476 134.493 125.151 133.24 127.687 131.759C131.517 129.506 134.782 126.402 137.232 122.684C139.267 119.656 141.198 116.555 143.288 113.566C143.865 112.746 143.921 112.133 143.504 111.315C142.657 109.649 141.842 107.966 141.037 106.285C140.606 105.409 140.534 105.385 139.952 106.242C138.052 109.021 136.175 111.808 134.32 114.603C134.229 114.739 134.173 114.9 134.079 115.044C133.008 116.513 132.087 118.14 130.818 119.408C129.119 121.042 127.305 122.55 125.39 123.922C122.699 125.926 119.602 127.197 116.421 128.079C112.658 129.126 108.713 129.338 104.857 128.702C102.036 128.251 99.528 127.087 97.0148 125.939ZM91.3254 113.349C91.3919 114.095 91.5208 114.834 91.7108 115.559C93.7318 121.199 97.7629 124.714 103.424 126.271C108.271 127.607 113.117 127.161 117.818 125.491C120.284 124.64 122.603 123.411 124.694 121.846C127.527 119.769 130.011 117.249 132.052 114.383C133.863 111.754 135.623 109.086 137.389 106.429C137.801 105.806 138.134 105.137 138.542 104.515C138.875 104.009 138.714 103.769 138.192 103.625C137.749 103.516 137.313 103.379 136.888 103.213C134.079 101.989 131.268 100.77 128.476 99.507C127.976 99.2827 127.785 99.3758 127.501 99.8208C126.594 101.249 125.608 102.64 124.662 104.051C123.494 105.805 122.356 107.577 121.169 109.318C120.332 110.555 119.585 111.9 118.536 112.929C116.604 114.912 114.021 116.123 111.266 116.339C110.045 116.464 108.812 116.301 107.664 115.862C106.517 115.424 105.487 114.722 104.657 113.812C102.462 111.463 102.775 108.036 104.192 105.68C105.898 102.838 107.774 100.102 109.578 97.3184C110.516 95.8604 111.452 94.3948 112.432 92.9456C112.715 92.5206 112.673 92.3482 112.174 92.1555C110.515 91.5103 108.867 90.8362 107.231 90.1335C105.864 89.541 104.525 88.8798 103.163 88.2743C102.276 87.8818 102.077 87.9685 101.584 88.8134C101.246 89.3837 100.931 89.9661 100.562 90.5178C100.01 91.3411 99.405 92.1337 98.8538 92.9609C97.5675 94.883 96.3551 96.8642 95.0002 98.7344C94.24 99.7122 93.5794 100.764 93.0282 101.875C91.358 105.538 90.5392 109.32 91.3141 113.375L91.3254 113.349ZM145.481 93.4371C145.316 92.4912 144.674 92.0717 143.996 91.7625C141.883 90.8128 139.761 89.8806 137.624 88.9951C136.197 88.405 135.095 88.741 134.125 89.9449C133.942 90.1725 133.776 90.4052 133.617 90.6567C132.263 92.6905 130.912 94.7278 129.564 96.7685C129.153 97.3955 129.181 97.4186 129.878 97.7245C132.984 99.0816 136.087 100.442 139.186 101.806C140.117 102.218 140.138 102.247 140.687 101.432C142.176 99.2348 143.655 97.0312 145.095 94.8027C145.283 94.3693 145.411 93.9114 145.474 93.4423L145.481 93.4371ZM118.997 82.7162C118.806 81.8468 118.471 81.338 117.856 81.0736C115.617 80.106 113.39 79.1163 111.121 78.2297C110.631 78.0396 110.248 77.2594 109.595 77.7289C109.101 78.1077 108.642 78.5313 108.226 78.9943C108.036 79.2141 107.867 79.4508 107.721 79.7015C106.484 81.5632 105.256 83.4312 104.018 85.289C103.307 86.3637 103.32 86.4135 104.497 86.8034C104.919 86.9455 105.374 87.0498 105.791 87.2288C108.209 88.2852 110.622 89.3623 113.034 90.4316C113.895 90.8088 113.898 90.8282 114.432 90.06C115.868 87.9454 117.283 85.813 118.678 83.6628C118.831 83.3677 118.936 83.05 118.99 82.7214L118.997 82.7162ZM105.514 109.496C105.867 111.796 106.842 112.92 108.276 113.668C109.085 114.091 109.41 113.95 109.858 113.121C109.996 112.865 110.112 112.597 110.273 112.357C112.188 109.503 114.116 106.658 116.021 103.797C116.578 102.976 117.093 102.127 117.565 101.254C117.729 100.932 117.761 100.558 117.653 100.212C116.976 98.6085 116.232 97.0286 115.466 95.4644C115.179 94.9807 114.854 94.5205 114.495 94.0878C114.073 94.5209 113.679 94.9805 113.316 95.4639C111.554 98.1202 109.823 100.799 108.074 103.465C107.553 104.259 106.939 105.001 106.475 105.825C105.812 106.933 105.476 108.208 105.506 109.502L105.514 109.496ZM141.818 103.815C141.895 104.06 141.986 104.3 142.091 104.535C143.019 106.37 143.963 108.231 144.887 110.087C145.194 110.705 145.398 110.397 145.632 110.049C147.103 107.843 148.611 105.663 150.04 103.42C150.325 102.981 150.493 102.475 150.527 101.951C150.561 101.427 150.46 100.903 150.233 100.43C149.995 99.9043 149.8 99.3551 149.556 98.8263C149.023 97.6089 148.48 96.3988 147.926 95.1958C147.814 95.0348 147.679 94.8913 147.525 94.7703C147.412 94.9379 147.284 95.096 147.183 95.2655C146.823 95.8715 146.499 96.4953 146.104 97.0795C144.765 99.0628 143.394 101.024 142.06 103.014C141.933 103.267 141.849 103.54 141.811 103.82L141.818 103.815ZM124.073 91.1029C123.085 88.9463 122.136 86.8308 121.145 84.7305C120.844 84.096 120.627 84.6331 120.478 84.8469C118.971 87.0791 117.487 89.3234 115.977 91.5563C115.867 91.7032 115.804 91.8804 115.796 92.0644C115.788 92.2483 115.836 92.4304 115.934 92.5864C116.835 94.4506 117.704 96.3324 118.602 98.2011C119.037 99.0999 119.095 99.1099 119.676 98.2495C121.043 96.2268 122.392 94.1897 123.725 92.1383C123.882 91.8109 123.996 91.4648 124.066 91.1081L124.073 91.1029Z" fill="#122224"/>
<path fill-rule="evenodd" clip-rule="evenodd" d="M120.474 56.1794L120.304 55.207L120.338 55.1812C120.233 54.6168 120.075 54.0635 119.867 53.5286C119.775 53.384 119.653 53.2618 119.509 53.1705C119.365 53.0792 119.204 53.0211 119.036 53.0003C118.882 52.9875 118.598 53.437 118.531 53.7181C118.439 54.2018 118.395 54.6938 118.398 55.187C118.362 56.1399 118.019 56.8531 117.052 57.1288C116.859 57.19 116.674 57.2742 116.5 57.3795C114.612 58.4653 113.783 60.4279 114.39 62.3696C114.776 63.6014 114.679 63.8045 113.726 64.6994C113.063 65.2944 112.471 65.9666 111.963 66.7022C111.629 67.1724 111.461 67.7443 111.487 68.3256C111.513 68.9068 111.731 69.4634 112.105 69.9053C112.354 70.0853 112.632 70.2204 112.926 70.3048C112.961 70.2201 113.008 70.1347 113.054 70.0491C113.156 69.8625 113.258 69.675 113.247 69.4923C113.183 68.3231 113.533 67.3591 114.523 66.7468C116.406 65.5865 117.201 64.0537 116.546 61.7717C116.223 60.6519 116.744 59.8916 117.775 59.3791C117.986 59.2752 118.204 59.1859 118.421 59.0968C118.653 59.0016 118.885 58.9066 119.109 58.7939C119.592 58.5783 119.99 58.2034 120.237 57.7293C120.485 57.2553 120.568 56.7095 120.474 56.1794ZM136.99 63.6217C136.968 63.5141 136.947 63.4063 136.928 63.2981L136.975 63.2663C136.885 62.743 136.757 62.2268 136.592 61.7215C136.55 61.5942 136.472 61.4814 136.367 61.3961C136.261 61.3107 136.133 61.2563 135.997 61.2391C135.86 61.2218 135.721 61.2424 135.595 61.2985C135.47 61.3547 135.363 61.444 135.286 61.5563C135.1 61.8226 134.984 62.1292 134.949 62.4485C134.877 62.8868 134.838 63.307 134.796 63.7503L134.796 63.7504L134.796 63.7516C134.777 63.9624 134.756 64.1785 134.732 64.4044C134.656 65.1054 134.384 65.656 133.618 65.8958C133.138 66.0502 132.669 66.2344 132.214 66.4472C130.431 67.2338 129.637 68.6615 129.938 70.527L130.233 72.2207C130.377 73.1822 130.352 73.2258 129.459 73.6214C129.268 73.7023 129.073 73.7778 128.878 73.8533C128.526 73.9902 128.172 74.1274 127.835 74.2977C126.325 75.0524 125.803 76.4169 126.419 77.9092C126.742 78.6978 127.15 79.0433 127.646 78.8978C128.268 78.7151 128.223 78.2832 128.177 77.849C128.167 77.7543 128.157 77.6595 128.154 77.5672C128.131 76.6202 128.421 76.2236 129.322 75.8974C129.499 75.8345 129.676 75.7747 129.853 75.715L129.853 75.715L129.853 75.715L129.853 75.715C130.153 75.6139 130.452 75.513 130.747 75.3973C132.227 74.8208 132.804 73.8398 132.597 72.3037L132.301 70.6101C132.136 69.5029 132.531 68.8445 133.616 68.4155C133.783 68.35 133.953 68.2891 134.122 68.2282L134.122 68.2282L134.122 68.2282C134.428 68.118 134.734 68.0079 135.025 67.871C136.568 67.1381 137.259 65.9367 137.097 64.267C137.076 64.0508 137.033 63.8365 136.99 63.6217ZM150.692 71.7027C152.697 71.055 153.352 70.031 152.993 67.8172C152.954 67.54 152.885 67.2679 152.788 67.0052C152.744 66.8803 152.665 66.7701 152.56 66.687C152.455 66.6038 152.328 66.551 152.193 66.5343C152.058 66.5177 151.921 66.5379 151.796 66.5928C151.672 66.6476 151.565 66.7349 151.488 66.8448C151.302 67.0614 151.182 67.3238 151.142 67.6021C150.993 68.8281 150.363 69.6077 149.085 69.8499C148.887 69.9109 148.694 69.986 148.507 70.0747C147.371 70.4702 146.565 71.1992 146.338 72.3653C146.135 73.1852 146.064 74.0295 146.129 74.8679C146.327 76.3817 146.229 76.4245 145.327 76.8189C145.194 76.8771 145.043 76.943 144.874 77.0224C143.707 77.5768 142.722 78.4398 142.034 79.5114C141.515 80.3047 141.259 81.2323 141.301 82.1672C141.324 82.8678 141.877 83.4798 142.387 83.4334C142.966 83.3843 143.03 82.9777 143.093 82.5753L143.093 82.5752C143.106 82.4968 143.118 82.4185 143.134 82.343C143.257 81.685 143.534 81.0616 143.942 80.5207C144.35 79.9798 144.879 79.5357 145.489 79.2224C145.925 78.9837 146.369 78.763 146.814 78.5461C148.189 77.8804 148.681 76.9933 148.497 75.504C148.484 75.3648 148.46 75.2258 148.436 75.0868C148.411 74.9478 148.387 74.8088 148.375 74.6697C148.228 73.0964 148.6 72.5089 150.112 71.92C150.169 71.8984 150.223 71.8772 150.277 71.8564C150.417 71.8016 150.55 71.7499 150.692 71.7027ZM166.172 79.3443C166.272 80.0708 166.135 80.8139 165.778 81.4752C165.42 82.1366 164.861 82.6852 164.172 83.0485C163.62 83.327 163.086 83.6356 162.572 83.9726C161.616 84.6613 161.091 85.5358 161.342 86.7224C161.393 87.0161 161.4 87.32 161.406 87.6242V87.6242C161.412 87.8633 161.417 88.1026 161.444 88.3375C161.595 89.7091 160.873 90.5025 159.198 91.0184C158.676 91.1591 158.145 91.2605 157.609 91.3217C157.192 91.35 156.791 91.4962 156.46 91.7411C156.128 91.986 155.881 92.318 155.752 92.6932L155.749 92.6993C155.617 93.0753 155.464 93.5063 154.92 93.3603C154.704 93.2895 154.523 93.1509 154.406 92.9677C154.29 92.7845 154.244 92.5678 154.278 92.3538C154.302 91.1005 155.372 89.9446 156.901 89.5287C157.12 89.4685 157.343 89.4276 157.567 89.3867C157.833 89.3379 158.099 89.2892 158.356 89.2079C159.136 88.9749 159.325 88.666 159.234 87.8915C159.216 87.6985 159.183 87.5074 159.134 87.3199C158.227 84.1525 160.334 82.1818 162.915 81.1687C163.862 80.7947 164.461 80.2952 164.588 79.3335C164.65 78.8901 164.829 78.4338 165.385 78.4226C165.978 78.3999 166.063 78.8172 166.136 79.1801C166.148 79.2368 166.159 79.2921 166.172 79.3443Z" fill="#A0A7A7"/>
</svg>
