<svg width="212" height="165" viewBox="0 0 212 165" fill="none" xmlns="http://www.w3.org/2000/svg">
<path d="M59.1856 146.81C74.5538 143.05 89.0853 136.434 103.77 130.627C107.823 128.847 111.979 127.178 115.582 124.567C118.543 122.507 114.082 119.97 112.069 119.595C111.776 119.577 111.477 119.352 111.218 119.167C109.284 117.778 107.34 116.403 105.433 114.971C103.447 113.475 101.807 111.625 100.205 109.74C100.015 109.239 98.1744 108.131 99.441 107.838C101.148 107.261 102.361 107.459 103.561 109.006C105.385 111.195 107.496 113.129 109.838 114.755C112.524 116.362 114.797 118.412 117.349 120.232C123.52 125.717 110.216 130.301 106.48 132.368C93.8457 137.369 81.3288 142.91 68.3615 147.132C64.7105 147.987 60.5369 150.69 56.8776 148.722C46.6604 144.024 39.6023 139.469 33.757 129.494C23.7836 113.294 24.6948 92.751 13.9671 76.8604C12.1551 74.2518 10.2604 71.6061 8.093 69.2778C5.76648 67.2976 3.34079 65.4267 1.44197 63.02C-0.717191 61.3902 -0.210985 59.2658 1.38204 57.7451C5.40077 54.1599 10.5972 52.3075 15.3556 49.9152C20.6616 47.4097 26.0998 45.1885 31.5958 43.1609C35.5216 41.6197 39.5031 40.2474 43.5156 38.9555C44.3028 38.7824 45.7987 37.6388 46.0901 38.906C46.7285 40.6451 46.5798 40.8593 44.8277 41.4198C41.8565 42.3676 38.8915 43.3443 35.9431 44.3849C25.9056 47.8877 16.1966 52.2436 6.65701 56.9168C5.2706 57.5947 3.81808 58.2541 2.78499 59.4904C0.995674 61.18 3.03501 61.9486 4.34703 62.8778C13.0767 67.5201 17.5334 76.8006 21.6575 85.3105C26.0853 95.648 27.3354 106.935 31.0896 117.495C35.4575 130.662 45.524 142.903 59.1856 146.81Z" fill="#414E50"/>
<path d="M50.8125 75.4592C49.1524 77.1875 47.976 74.2417 49.5623 74C50.007 74.2804 50.3083 74.8436 50.8125 75.4592Z" fill="#414E50"/>
<path d="M50.3189 129.471C48.2072 128.632 50.8478 127.176 51.8272 126.671C57.4658 123.908 63.1809 121.314 68.9083 118.742C71.7059 117.805 90.3532 107.799 91.0495 110.397C92.6095 112.542 78.3756 117.003 76.4147 118.268C67.6831 121.973 59.3006 126.366 50.3189 129.471Z" fill="#414E50"/>
<path d="M45.856 77.0809C46.2692 85.634 33.899 88.8051 30.246 81.2946C30.3203 79.2341 29.3141 77.221 30.2088 75.1131C32.9299 67.3759 45.7919 68.5236 45.856 77.0809ZM43.0791 77.2416C43.0005 70.8932 33.0394 70.9818 31.8431 77.9916C31.5828 79.3742 32.9671 80.4498 33.7564 81.4244C37.0272 84.9499 43.4262 82.0632 43.0729 77.2498L43.0791 77.2416Z" fill="#414E50"/>
<path d="M85.6183 121.963C85.4468 122.156 85.2237 122.581 84.8704 122.772C82.486 124.044 80.1037 125.323 77.6635 126.481C70.6261 129.778 63.5426 132.986 56.4129 136.106C55.3343 136.483 55.1153 135.414 55.5864 134.641C57.884 133.079 60.5452 131.849 63.0081 130.52C69.8265 127.163 76.6821 123.852 83.7918 121.132C84.5894 120.79 85.5852 120.658 85.6183 121.963Z" fill="#414E50"/>
<path d="M17.4605 61.8518C15.1877 60.5022 19.3882 59.6615 20.3366 59.1031C25.8561 57.1044 31.3514 55.0439 36.8227 52.9216C39.3558 51.9861 41.9179 51.129 44.4676 50.2223C45.4263 50.074 47.5978 48.2422 47.7941 49.9668C47.8375 50.9744 48.3727 51.71 47.0544 51.9964C37.2235 55.4086 27.6344 59.5441 17.4605 61.8518Z" fill="#414E50"/>
<path d="M48.5963 58.384C48.9083 59.9747 44.9888 60.3951 43.8565 61.0936C41.1003 62.0971 38.346 63.1088 35.5773 64.0793C31.8871 65.2579 28.2362 66.6796 24.4861 67.6254C23.3972 67.8129 23.3393 66.5374 24.0377 66.0347C24.645 65.6254 25.3 65.2912 25.9882 65.0395C32.7467 62.4947 39.5258 60.0015 46.2574 57.3888C47.462 56.9025 48.7782 56.4698 48.5963 58.384Z" fill="#414E50"/>
<path d="M40.7731 109.76C38.9363 110.098 38.3123 108.536 40.2731 107.992C46.4992 105.705 52.6847 103.316 58.8295 100.824C59.6932 100.387 62.7553 101.496 61.5156 102.619C54.724 105.225 47.8891 108.215 40.7731 109.76Z" fill="#414E50"/>
<path d="M36.5766 100.196C35.0538 99.8269 36.1199 98.4195 37.1158 98.1537C39.5608 97.1235 42.0099 96.1063 44.4632 95.1022C47.5996 93.8226 50.7444 92.5636 53.885 91.2964C54.7466 90.9008 55.5255 90.5732 55.7218 91.826C56.1474 93.0499 56.0255 93.2683 54.7754 93.7196C53.0977 94.3192 51.4282 94.9435 49.7567 95.5596C45.333 97.0967 41.1201 98.9841 36.5766 100.196Z" fill="#414E50"/>
<path d="M60.3185 110.321C61.5314 110.09 61.6719 111.794 60.3826 112.058C55.3556 113.807 50.4442 116.012 45.2375 117.18C44.5887 117.386 43.4605 117.088 43.2539 116.49C43.2725 114.463 49.6984 113.57 51.4381 112.672C54.3266 111.578 57.2192 110.508 60.3185 110.321Z" fill="#414E50"/>
<path d="M49.9888 68.5958C50.1954 69.795 48.4866 70.0794 47.6168 70.2442C45.096 69.694 47.5362 68.0745 48.7986 67.7098C49.8214 67.3059 50.0218 67.4646 49.9888 68.5958Z" fill="#414E50"/>
<path d="M43.0723 77.2499C43.4257 82.0714 37.0267 84.9582 33.7498 81.4327C32.9584 80.4601 31.5761 79.3722 31.8344 77.9999C33.0328 70.9798 42.9938 70.8953 43.0723 77.2499Z" fill="white"/>
<path d="M89.0651 0C96.3256 0.0206069 97.2524 1.96178 102.381 6.33664C114.294 17.4067 116.413 34.426 117.226 49.7678C117.716 64.5224 122.454 79.5799 134.074 89.4197C140.08 95.1897 141.337 98.0416 132.154 101.353C122.618 104.516 112.715 106.385 102.921 108.566C95.0622 110.406 87.0911 111.671 79.1282 112.912C76.485 113.171 74.0101 112.959 71.9695 110.894C68.8359 108.469 65.2888 106.468 62.5729 103.49C47.1729 88.4224 49.839 65.7794 46.1152 46.3842C44.8269 40.6596 42.9982 35.0977 40.1327 29.8821C37.6931 25.2291 33.8032 21.7939 31.1662 17.3119C30.308 16.1311 31.0914 14.2044 32.6561 13.3471C42.805 7.89865 54.4355 6.13469 65.5714 3.63919C73.3244 1.9728 81.169 0.757658 89.0651 0ZM91.2179 2.512C81.2436 3.30331 71.7908 4.94568 62.0513 6.91983C52.5632 9.20926 42.6429 10.8661 33.8094 15.1049C29.5703 17.0152 39.2537 20.0279 43.0876 29.3999C46.9402 36.7133 48.906 44.8551 50.0655 52.9866C51.1294 62.4164 51.0712 72.0295 53.4609 81.2717C55.8007 91.1033 61.2554 100.16 69.2827 106.453C72.6927 109.369 75.8637 111.298 80.5225 109.996C93.5661 108.329 106.356 105.196 119.173 102.349C124.599 100.933 130.23 99.9581 135.302 97.4935C139.348 95.3463 133.559 92.7539 131.872 91.1713C130.137 89.6011 128.478 87.9422 126.866 86.2483C118.849 77.3028 115.767 65.0994 114.606 53.4503C113.982 38.5103 113.062 22.612 103.32 10.3674C101.529 8.06763 99.4197 6.00693 97.3417 3.94623C95.4175 3.1405 92.8741 2.96947 91.2179 2.50375V2.512Z" fill="#122224"/>
<path d="M90.7212 2C92.3682 2.45171 94.8819 2.63116 96.7923 3.44383C98.851 5.50644 100.937 7.56906 102.713 9.86887C112.362 22.1311 113.27 38.0338 113.894 52.9919C115.047 64.6518 118.098 76.8687 126.04 85.8204C127.638 87.5159 129.281 89.1763 131 90.748C132.694 92.3981 138.444 94.8732 134.399 97.0761C129.375 99.5512 123.792 100.517 118.419 101.936C105.719 104.786 93.0476 107.917 80.1271 109.59C75.5136 110.875 72.3823 108.988 68.9916 106.044C61.0388 99.7431 55.6327 90.682 53.3166 80.8371C50.9491 71.5863 51.0067 61.9663 49.9527 52.5278C48.8101 44.3887 46.8646 36.2332 43.0395 28.9191C39.2268 19.5095 29.6724 16.5641 33.8474 14.6108C42.599 10.366 52.4293 8.71175 61.8273 6.41812C71.4785 4.4442 80.8436 2.80236 90.7212 2ZM110.804 78.4342C96.7649 81.4335 82.9079 85.2321 69.3004 89.8116C67.9993 90.8429 69.6277 91.4617 70.6756 91.1605C78.3566 89.4733 85.91 87.3096 93.5272 85.3605C99.6189 83.7104 105.789 82.3243 111.79 80.3628C112.375 80.1813 112.564 79.744 112.486 79.185C112.288 78.3166 111.636 78.4569 110.804 78.4425V78.4342ZM63.4969 70.4313C77.737 68.4223 91.9853 65.4129 105.713 61.2011C106.536 60.7659 106.678 59.2169 105.406 59.4252C101.198 59.7428 97.2082 61.2011 93.1113 62.1066C85.8098 63.7814 78.4994 65.4274 71.18 67.0445C68.2114 67.7416 65.1191 68.0531 62.1876 68.8472C60.7382 69.8599 62.6137 70.4643 63.4969 70.4395V70.4313ZM54.8071 26.1326C68.8763 23.6574 83.1472 21.2442 97.0867 18.0327C98.2911 17.7418 97.8217 16.4094 96.8397 16.2155C85.8153 16.9993 74.7807 20.3181 63.8551 22.2342C60.6806 22.9128 57.5225 23.6657 54.3542 24.3793C53.7366 24.5155 53.0654 24.6887 53.1189 25.423C53.1992 26.2605 53.9898 26.0397 54.8071 26.1326ZM102.54 49.832C90.5112 51.5955 78.406 54.3305 66.5602 57.1831C64.483 57.87 62.0311 57.8885 60.1783 59.0787C59.5174 59.8398 60.5262 60.4441 61.257 60.143C70.7806 58.6517 80.1333 56.2838 89.6218 54.6193C94.8263 53.6437 100.084 52.9259 105.235 51.6925C106.215 51.4862 105.884 50.2631 105.083 50.0939C104.335 49.9372 103.551 49.9207 102.54 49.8278V49.832ZM49.8497 19.2641C60.2894 17.9667 70.6962 15.7411 81.0535 13.8435C84.4792 13.0577 88.0696 13.0185 91.3841 11.8222C92.4423 11.5478 92.1767 10.5433 91.4109 10.1164C89.3521 9.44809 87.0505 10.3226 84.9445 10.5289C77.0061 12.0346 69.0801 13.6228 61.1479 15.1595C56.6908 16.2238 51.9846 16.5868 47.6778 18.1296C46.6402 19.4043 48.9604 19.1774 49.8497 19.2641ZM64.1269 45.9336C71.1141 46.4266 76.1332 38.9208 71.8903 33.5704C69.0739 30 63.9581 29.3544 60.2483 32.3101C57.6893 34.2366 57.572 36.359 57.5411 39.3477C56.8679 43.046 61.5844 45.9213 64.1269 45.9336ZM74.3792 98.9201C82.9496 96.6677 91.2359 94.1101 99.8021 91.934C101.466 91.4617 103.067 90.7728 104.694 90.1725C105.262 89.9663 105.457 89.5228 105.287 88.9618C105.116 88.4007 104.689 88.3822 104.181 88.4936C102.489 88.8669 100.774 89.1474 99.0981 89.5744C94.6513 90.7831 90.2065 92.0103 85.7638 93.2231C81.8317 94.4153 77.9078 95.6467 74.1198 97.2432C72.9072 97.7052 73.459 98.5694 74.3792 98.9242V98.9201ZM76.3782 32.4462C84.051 30.7961 91.942 30.0268 99.4604 27.7352C100.162 27.3908 100.313 25.9758 99.1928 26.0851C95.7547 25.9346 92.4114 26.8792 89.066 27.529C87.9872 28.0797 70.5789 30.7569 76.3782 32.4503V32.4462ZM66.4161 78.4693C71.6082 77.7474 76.7241 76.7944 81.8564 75.7755C83.8534 75.6559 83.5508 73.6716 81.6238 74.0202C80.3701 73.9192 58.1628 76.1158 66.4161 78.4734V78.4693ZM89.9657 33.7395C89.9657 33.7003 89.9533 33.6631 89.9492 33.626C86.3074 34.1932 82.7149 35.1606 79.0978 35.8949C78.0684 36.0021 76.0756 37.0562 77.6793 37.9678C78.5213 38.3618 79.4807 38.1576 80.3556 37.9678C84.3454 37.4089 88.2528 36.4724 92.1417 35.4535C92.6687 35.3153 93.1526 35.076 93.1526 34.4923C92.9323 33.0671 90.96 33.6054 89.9657 33.7436V33.7395Z" fill="white"/>
<path d="M111.104 79.0022C111.958 79.0127 112.588 78.8744 112.796 79.7647C112.874 80.3346 112.684 80.7766 112.095 80.9609C106.052 82.9532 99.8383 84.3652 93.7038 86.0369C86.033 88.0166 78.4286 90.2143 70.6916 91.9279C69.6985 92.2149 67.955 91.622 69.3067 90.5578C83.0104 85.9063 96.9655 82.0481 111.104 79.0022Z" fill="#122224"/>
<path d="M63.674 70.9995C62.8265 71.0201 60.864 70.4351 62.356 69.4237C65.309 68.6307 68.4195 68.3196 71.4078 67.6234C78.7726 66.014 86.1312 64.3702 93.4836 62.6921C97.6074 61.7817 101.624 60.3254 105.859 60.0144C107.13 59.8393 107.024 61.3141 106.166 61.7858C92.3501 65.9879 78.0079 68.9932 63.674 70.9995Z" fill="#122224"/>
<path d="M54.5079 27C53.6788 26.9106 52.889 27.1331 52.8164 26.2845C52.7543 25.5441 53.4383 25.3694 54.0601 25.2321C57.2502 24.5125 60.4299 23.7533 63.6262 23.069C74.6266 21.1368 85.7348 17.7904 96.8368 17C97.7861 17.1976 98.3375 18.5266 97.0834 18.8303C83.0443 22.0665 68.6714 24.5042 54.5079 27Z" fill="#122224"/>
<path d="M102.501 50C103.514 50.0983 104.301 50.1158 105.058 50.2774C105.816 50.439 106.218 51.7515 105.211 51.9699C100.051 53.2803 94.7747 54.0359 89.5564 55.0689C80.0426 56.8313 70.663 59.3385 61.1162 60.9174C60.404 61.2319 59.3493 60.603 60.0346 59.7905C61.8799 58.5304 64.3446 58.5108 66.4335 57.7835C70.3431 56.7331 74.2774 55.7896 78.22 54.9138C86.1753 53.0007 94.463 51.2099 102.501 50Z" fill="#122224"/>
<path d="M50.2629 20C49.3192 19.9122 47.0441 20.1449 48.0748 18.7863C52.4115 17.1446 57.1547 16.7583 61.6449 15.6236C69.636 13.9907 77.6146 12.3007 85.6181 10.6985C87.7439 10.479 90.0502 9.55717 92.1325 10.2595C92.8625 10.716 93.211 11.7739 92.1055 12.0768C88.7685 13.3564 85.1473 13.3937 81.6983 14.2277C71.2745 16.2513 60.7884 18.6195 50.2629 20Z" fill="#122224"/>
<path d="M64.4756 45.9775C61.9333 45.9775 57.2033 43.1858 57.8776 39.6106C57.9085 36.7252 58.0281 34.6654 60.591 32.8069C64.3024 29.9495 69.4303 30.5736 72.2509 34.0253C76.4984 39.1978 71.4736 46.4561 64.4756 45.9775ZM65.3457 43.5647C73.3561 43.5189 72.9004 32.3882 64.5951 33.6883C62.1992 34.0273 58.4095 37.3513 60.059 39.7302C61.1167 41.79 62.589 43.6864 65.3457 43.5687V43.5647Z" fill="#122224"/>
<path d="M74.7724 99C71.4337 97.5477 77.7914 96.4025 78.8623 95.8003C87.3227 93.1477 95.9254 90.7942 104.644 89.0527C105.153 88.9464 105.579 88.9582 105.752 89.4994C105.925 90.0405 105.727 90.4538 105.158 90.6545C103.527 91.2271 101.922 91.8844 100.255 92.335C91.6622 94.411 83.3649 96.8531 74.7724 99Z" fill="#122224"/>
<path d="M77.0044 33C71.1516 31.413 88.6995 28.8889 89.7862 28.3747C93.1564 27.7558 96.5245 26.8673 99.9881 27.0166C101.096 26.9255 100.986 28.2486 100.258 28.5688C92.6836 30.7242 84.7341 31.4401 77.0044 33Z" fill="#122224"/>
<path d="M66.6801 79C58.2876 76.3799 80.8216 73.948 82.1833 74.0468C84.1178 73.6541 84.4912 75.8586 82.4204 76.001C77.1855 77.1354 71.9716 78.1963 66.6801 79Z" fill="#122224"/>
<path d="M90.64 34.2304C91.636 34.0802 93.589 33.5057 93.8124 35.0369C93.8473 36.7823 82.9261 38.3068 81.0734 38.762C80.2025 38.9608 79.2454 39.1795 78.4092 38.762C76.8169 37.7854 78.8028 36.6586 79.8213 36.5415C83.4221 35.7571 86.9941 34.7209 90.6236 34.1111C90.6277 34.1486 90.6338 34.1884 90.64 34.2304Z" fill="#122224"/>
<path d="M65.2871 43.9949C62.6402 44.1107 61.2217 42.2219 60.1994 40.1554C58.6144 37.7715 62.2638 34.4492 64.558 34.1058C72.5481 32.804 72.982 43.949 65.2871 43.9949Z" fill="white"/>
<path d="M167.288 54.029C169.864 66.1172 165.766 79.3223 154.579 85.2843C153.229 85.6636 155.217 88.2561 155.379 89.2113C155.474 89.4354 155.538 89.751 155.878 89.51C161.106 86.8963 168.205 87.8114 172.939 91.0231C183.559 98.3455 184.74 112.216 191.223 122.453C191.931 124.426 194.895 120.429 198.324 121.902C199.62 122.348 200.336 123.689 199.81 125.135C199.412 126.217 199.779 126.779 200.473 127.493C203.1 130.193 205.662 132.953 208.254 135.692C208.556 136.01 209.095 136.346 208.652 136.812C207.929 137.524 206.435 135.423 205.792 135.03C203.247 132.792 200.7 130.553 198.153 128.315C197.333 127.65 196.662 126.722 197.091 125.635C198.959 121.99 192.158 125.569 191.137 126.354C186.092 129.795 180.877 134.454 179.647 140.692C179.457 142.774 182.56 140.519 183.896 143.083C185.763 145.817 187.657 148.531 189.538 151.253C190.188 152.311 191.212 153.196 191.327 154.49C190.754 154.325 190.139 154.194 189.782 153.669C187.623 150.898 185.332 148.219 183.276 145.37C181.477 142.018 177.35 145.832 177.427 140.357C177.889 135.647 181.446 135.301 175.533 132.658C174.557 132.327 173.338 132.797 173.654 134.018C174.93 139.957 166.841 145.564 162.511 139.218C161.548 137.624 161.198 135.847 160.862 134.05C160.646 133.062 160.601 132.991 159.627 133.241C155.153 134.407 149.112 132.482 148.298 127.406C148.341 126.684 148.037 126.43 147.379 126.205C142.315 124.663 138.725 119.084 140.066 113.841C142.016 111.384 137.135 108.338 140.134 102.146C140.769 100.707 141.928 99.776 143.298 99.1077C144.698 98.4008 145.365 96.9046 146.523 95.9096C147.292 95.3799 145.314 91.6757 145.184 90.4729C144.816 88.3529 143.052 89.3968 141.647 89.7885C120.097 94.4735 104.049 68.4839 111.913 49.7181C114.896 41.067 122.617 35.4463 131.223 32.9095C147.758 26.7575 163.526 37.6166 167.288 54.029ZM123.508 39.0261C100.71 52.7096 115.051 93.4499 141.771 87.8818C119.244 85.5515 109.052 55.3207 123.724 38.8626C123.604 38.8173 123.575 38.9497 123.507 39.0224L123.508 39.0261ZM119.674 64.2949C125.408 90.5241 158.842 94.521 165.128 66.434C166.651 58.2715 164.386 49.3207 159.181 42.8574C141.936 21.7751 113.857 39.5162 119.674 64.2912L119.674 64.2949ZM157.886 90.3964C157.234 90.5862 155.711 90.5464 156.249 91.5918C156.653 92.4077 156.666 93.1978 157.769 93.2484C158.878 93.4523 165.559 94.9329 164.69 96.5001C164.498 96.9288 164.113 96.9153 163.728 96.819C156.501 94.4409 145.943 94.504 144.684 104.014C144.153 107.203 145.36 109.577 147.962 111.334C149.151 112.143 150.548 112.061 151.524 111.189C153.033 109.973 152.614 109.702 151.171 108.784C149.997 108.214 150.611 107.053 151.784 107.217C158.552 108.359 159.532 116.456 165.015 119.497C167.668 121.199 170.715 121.621 173.831 121.59C174.388 121.665 174.6 122.206 174.178 122.607C173.397 123.407 172.166 123.262 171.141 123.393C169.751 123.263 170.628 124.265 170.827 125.011C173.988 131.469 171.19 132.5 177.722 128.256C178.065 128.033 178.464 127.747 178.84 128.163C179.254 128.627 178.911 129.019 178.588 129.344C178.186 129.952 176.948 130.376 177.099 131.179C178.727 131.571 179.803 134.633 180.411 133.385C182.695 130.066 185.654 127.28 188.986 125.019C189.536 124.65 189.514 124.35 189.163 123.816C180.953 110.408 179.344 86.7342 157.881 90.3933L157.886 90.3964ZM141.935 117.26C143.309 126.033 159.066 127.461 159.54 117.99C159.464 117.402 158.909 116.927 158.57 116.447C157.838 114.952 156.788 118.13 152.979 118.578C148.757 119.336 144.762 117.334 141.918 114.342C141.629 115.288 141.928 116.292 141.935 117.26ZM171.102 132.945C170.46 131.351 168.292 122.238 166.258 122.638C168.238 125.905 166.147 129.944 163.096 131.682C162.553 132.003 162.314 132.368 162.494 132.991C162.905 134.419 163.218 135.877 163.706 137.279C164.251 138.846 165.97 139.949 167.457 139.849C171.005 139.856 171.986 135.609 171.095 132.946L171.102 132.945ZM158.914 131.244C162.862 130.576 167.9 124.813 162.369 122.311C161.458 121.888 161.265 122.005 160.546 122.72C159.345 124.091 157.85 125.174 156.173 125.891C154.496 126.608 152.679 126.939 150.857 126.861C150.052 126.842 149.892 127.051 150.176 127.81C151.417 131.2 155.672 131.69 158.907 131.245L158.914 131.244ZM141.117 108.357C142.392 113.203 146.55 117.001 151.747 116.712C153.624 116.648 155.335 116.025 156.48 114.386C157.231 113.487 154.989 111.884 154.476 111.096C154.123 110.72 153.731 110.811 153.464 111.278C149.706 117.199 141.799 110.9 142.45 104.76C142.522 103.62 142.93 102.503 142.952 101.357C140.905 102.991 140.725 105.702 141.117 108.357ZM148.17 93.7211C148.177 94.2299 148.124 94.7821 148.786 94.3967C150.484 93.5569 152.298 93.1959 154.179 93.1122C154.656 93.0927 154.883 92.8936 154.653 92.3969C153.873 90.7118 153.094 89.0253 152.315 87.3374C152.066 86.7985 151.779 86.668 151.158 86.9434C149.95 87.4774 148.684 87.8757 147.434 88.3053C146.656 88.573 146.598 88.6234 146.817 89.4624C147.338 90.8586 147.728 92.2827 148.177 93.72L148.17 93.7211Z" fill="#122224"/>
<path d="M119.674 64.2911C113.861 39.5138 141.932 21.7737 159.173 42.8548C164.378 49.3181 166.644 58.2689 165.121 66.4315C158.839 94.5215 125.403 90.5155 119.674 64.2911ZM147.226 84.117C147.866 83.8293 148.278 83.722 148.608 83.49C149.347 82.9988 149.25 82.169 148.27 82.2254C140.273 82.1988 132.078 79.1885 127.457 72.4066C126.625 71.533 126.035 69.7412 124.638 69.8192C124.12 69.9694 124.157 70.5149 124.252 70.98C127.716 80.0625 138.059 84.3533 147.226 84.117ZM136.653 36.9783C134.521 37.4848 132.508 38.4005 130.726 39.6743C130.217 39.968 129.139 41.4565 130.391 41.3785C132.885 40.2551 135.319 38.9977 138.139 38.9657C141.992 38.5379 145.685 39.341 149.375 40.3667C149.796 40.4686 150.2 40.5939 150.469 40.1213C150.715 39.6821 150.547 39.2774 150.188 39.0358C146.298 36.1879 141.216 36.3986 136.653 36.9783ZM153.147 41.3193C150.82 41.9314 154.646 44.6256 155.572 43.919C155.689 43.6374 155.714 43.1311 155.537 42.948C154.848 42.3569 154.08 41.4415 153.147 41.3193Z" fill="#CBB5F5"/>
<path d="M157.882 90.3934C179.355 86.7438 180.944 110.396 189.165 123.804C189.516 124.339 189.538 124.638 188.988 125.008C185.658 127.268 182.697 130.054 180.413 133.373C179.824 134.633 178.719 131.555 177.102 131.167C176.955 130.371 178.181 129.931 178.59 129.333C178.917 129.007 179.256 128.616 178.842 128.151C178.188 127.368 175.858 129.673 175.024 130.011C174.785 130.177 174.533 130.321 174.27 130.445C173.187 130.918 173.145 131.304 172.705 129.845C172.207 128.191 171.467 126.611 170.833 124.999C170.63 124.242 169.758 123.256 171.147 123.381C172.173 123.252 173.402 123.393 174.184 122.594C174.6 122.18 174.417 121.666 173.837 121.578C170.719 121.609 167.672 121.189 165.02 119.484C159.54 116.445 158.558 108.347 151.79 107.205C150.657 107.046 149.966 108.185 151.177 108.772C152.632 109.697 153.035 109.958 151.53 111.176C150.544 112.043 149.148 112.132 147.967 111.322C145.373 109.563 144.159 107.191 144.689 104.002C145.956 94.4926 156.497 94.4266 163.734 96.8069C164.126 96.9021 164.506 96.9164 164.696 96.488C165.56 94.914 158.904 93.4502 157.775 93.2363C156.686 93.2041 156.648 92.3765 156.255 91.5796C155.704 90.525 157.233 90.592 157.882 90.3934Z" fill="white"/>
<path d="M123.505 39.0189C109.219 55.6898 119.286 85.5072 141.771 87.878C115.044 93.4451 100.714 52.6994 123.507 39.0222L123.505 39.0189Z" fill="#8850EA"/>
<path d="M141.935 117.26C141.935 116.291 141.628 115.288 141.918 114.348C144.762 117.339 148.753 119.342 152.979 118.583C156.792 118.135 157.831 114.961 158.57 116.453C158.908 116.927 159.463 117.402 159.541 117.996C159.058 127.462 143.299 126.034 141.935 117.26Z" fill="white"/>
<path d="M171.095 132.946C171.985 135.609 171.006 139.858 167.452 139.85C165.958 139.951 164.246 138.843 163.701 137.279C163.213 135.878 162.9 134.42 162.489 132.991C162.308 132.363 162.548 132.004 163.091 131.682C166.142 129.945 168.23 125.902 166.253 122.638C168.278 122.227 170.459 131.366 171.095 132.946Z" fill="#8850EA"/>
<path d="M158.908 131.245C155.673 131.692 151.416 131.202 150.175 127.812C149.891 127.053 150.051 126.844 150.856 126.863C152.678 126.941 154.495 126.61 156.172 125.893C157.849 125.176 159.344 124.093 160.545 122.722C161.258 122.007 161.453 121.898 162.368 122.313C167.891 124.817 162.857 130.576 158.908 131.245Z" fill="white"/>
<path d="M141.117 108.357C140.716 105.706 140.898 102.99 142.957 101.357C142.935 102.502 142.527 103.616 142.456 104.76C141.795 110.899 149.702 117.2 153.47 111.277C153.737 110.811 154.128 110.72 154.479 111.096C155.003 111.888 157.233 113.49 156.485 114.386C155.344 116.023 153.64 116.646 151.752 116.712C146.559 117 142.397 113.202 141.117 108.357Z" fill="white"/>
<path d="M148.178 93.7199C147.728 92.2844 147.339 90.8585 146.825 89.4612C146.607 88.6295 146.664 88.5717 147.441 88.3041C148.695 87.8739 149.954 87.4768 151.166 86.9422C151.787 86.6668 152.074 86.801 152.323 87.3362C153.101 89.0228 153.88 90.7093 154.661 92.3957C154.891 92.8924 154.663 93.0915 154.187 93.111C152.313 93.1935 150.492 93.5557 148.794 94.3955C148.135 94.7766 148.183 94.2366 148.178 93.7199Z" fill="#8850EA"/>
<path d="M147.226 84.117C138.058 84.3477 127.713 80.0628 124.248 70.9805C123.886 69.8664 124.935 69.4286 125.704 70.1709C126.328 70.8851 126.913 71.632 127.457 72.4084C132.078 79.1903 140.271 82.1991 148.27 82.2254C149.22 82.1604 149.369 82.9954 148.608 83.49C148.278 83.722 147.871 83.836 147.226 84.117Z" fill="white"/>
<path d="M136.652 36.9783C141.214 36.3968 146.299 36.1876 150.179 39.0278C150.538 39.2786 150.707 39.6833 150.459 40.1133C150.196 40.585 149.792 40.4597 149.365 40.3587C145.675 39.333 141.982 38.5298 138.129 38.9577C135.304 38.9905 132.875 40.247 130.382 41.3705C129.125 41.4472 130.213 39.9609 130.717 39.6662C132.501 38.3935 134.517 37.4804 136.652 36.9783Z" fill="white"/>
<path d="M153.146 41.3192C154.079 41.4415 154.846 42.3571 155.536 42.948C155.713 43.1311 155.688 43.6374 155.572 43.919C154.645 44.6256 150.819 41.9314 153.146 41.3192Z" fill="white"/>
</svg>
