<svg width="146" height="129" viewBox="0 0 146 129" fill="none" xmlns="http://www.w3.org/2000/svg">
<path d="M126.896 90.9447C125.974 89.4209 124.521 88.6847 123.144 87.9723L123.089 87.9407C122.859 87.8259 122.63 87.7349 122.408 87.6478C122.147 87.5578 121.898 87.4383 121.664 87.2916C121.32 87.0423 120.967 86.7969 120.619 86.5475C119.334 85.6766 118.102 84.729 116.93 83.7098C113.673 80.7375 111.322 78.0857 109.525 75.3588C107.645 72.4466 106.018 69.3786 104.661 66.1885C103.283 62.949 102.14 59.6145 101.242 56.2108C100.25 52.309 99.4573 48.3593 98.8668 44.377C98.6492 43.0313 98.4275 41.6857 98.194 40.34C97.5187 36.5835 96.6039 32.8741 95.4552 29.2344C94.2674 25.6244 92.7684 22.1244 90.975 18.7739C88.9548 14.9938 86.445 11.4966 83.5105 8.37271C82.0792 6.87875 80.5336 5.49857 78.8878 4.24471C78.215 3.7104 77.5184 3.15235 76.8535 2.59034C76.3686 2.20792 75.7883 1.96563 75.1754 1.8898C74.2493 1.76315 73.3033 1.68005 72.4722 1.60485L71.5658 1.52173H71.4708C68.55 1.58505 65.8982 2.18665 63.3375 2.76449H63.2465C58.0103 3.95183 52.5327 5.47955 45.4878 7.73154C42.844 8.57852 39.7173 9.59172 36.5352 10.6999C33.4758 11.7646 30.6618 12.7976 27.9388 13.8662C24.9665 15.0179 21.8912 16.2132 18.9308 17.5588C17.0114 18.4712 15.1397 19.4804 13.3226 20.5826L12.8081 20.8834C11.7751 21.485 11.4822 22.2093 11.4189 22.7119C11.3555 23.2145 11.4664 24.0615 12.4044 24.9916C12.9248 25.4801 13.5209 25.8811 14.1695 26.1789C14.4703 26.3333 14.7514 26.4797 15.0086 26.646C17.2399 28.1603 19.2271 30.006 20.9018 32.1196C23.0557 34.6936 24.8836 37.5238 26.3438 40.5458C26.601 41.088 26.8583 41.6263 27.1354 42.1685C27.7567 43.4627 28.3979 44.8005 28.9995 46.1263C30.3593 49.216 31.4736 52.4079 32.332 55.6726C33.2344 58.9853 34.014 62.4523 34.6512 65.9867C35.047 68.1753 35.5141 70.3798 35.9692 72.5131C36.2463 73.8152 36.5233 75.1173 36.7846 76.4195C37.9443 82.1876 39.862 87.7771 42.4877 93.0423C43.8037 95.629 45.3424 98.0961 47.0867 100.416C49.1843 103.27 51.6609 105.825 54.4483 108.011C56.3163 109.479 58.2913 110.781 60.4958 112.206C61.6754 112.953 62.9068 113.614 64.1806 114.185C65.0629 114.605 66.0255 114.829 67.0024 114.842C67.4809 114.843 67.9573 114.78 68.4194 114.656L71.9814 113.702C75.8878 112.657 79.9327 111.577 83.8549 110.334C89.3206 108.604 94.8299 106.724 100.157 104.904C101.877 104.313 103.592 103.726 105.302 103.143C110.554 101.362 116.641 99.2363 122.416 96.545C123.702 95.9043 124.93 95.152 126.085 94.2969L126.346 94.1188C127.423 93.355 127.628 92.1478 126.896 90.9447Z" fill="white"/>
<path d="M115.936 104.361C115.013 102.839 113.56 102.103 112.182 101.392L112.127 101.36C111.897 101.245 111.668 101.155 111.446 101.068C111.185 100.978 110.935 100.858 110.701 100.712C110.357 100.463 110.005 100.218 109.656 99.9685C108.37 99.0985 107.138 98.152 105.966 97.1339C102.708 94.1649 100.356 91.5161 98.5587 88.7922C96.6777 85.8833 95.0498 82.8188 93.6929 79.6322C92.3146 76.3964 91.1714 73.0656 90.2722 69.6657C89.2802 65.7683 88.4873 61.823 87.8967 57.8451C87.6789 56.5009 87.4572 55.1568 87.2237 53.8126C86.5481 50.0604 85.633 46.3551 84.4839 42.7194C83.2957 39.1135 81.7961 35.6174 80.0021 32.2706C77.9812 28.4948 75.4706 25.0015 72.5352 21.881C71.1033 20.3888 69.5572 19.0101 67.9108 17.7577C67.2378 17.2239 66.541 16.6665 65.8758 16.1051C65.3908 15.7231 64.8103 15.4811 64.1972 15.4054C63.2707 15.2789 62.3245 15.1959 61.493 15.1207L60.5864 15.0377H60.4914C57.5695 15.101 54.9168 15.7019 52.3553 16.2791H52.2642C47.0262 17.4651 41.5468 18.9911 34.4995 21.2406C31.8547 22.0866 28.727 23.0987 25.5438 24.2056C22.4834 25.2691 18.9595 28.0206 16.2356 29.088C13.2623 30.2384 10.8949 29.7127 7.93343 31.0569C6.01342 31.9683 4.141 32.9764 2.32332 34.0773L1.80861 34.3777C0.775271 34.9787 1.87197 36.6994 1.80862 37.2015C1.74527 37.7036 0.466448 37.5523 1.40477 38.4813C1.92537 38.9693 1.67446 40.0702 2.32332 40.3678C2.62422 40.5219 5.54953 45.7468 5.54953 43.534C7.78157 45.0466 8.22986 43.4902 9.90509 45.6014C12.0598 48.1725 13.8882 50.9995 15.3489 54.0182C15.6063 54.5598 15.8636 55.0975 16.1408 55.6391C16.7624 56.9318 17.4037 58.2681 18.0055 59.5925C19.3658 62.6787 20.4805 65.8671 21.3392 69.1281C22.2419 72.4371 23.0218 75.9002 23.6592 79.4306C24.0551 81.6168 24.5224 83.8189 24.9777 85.9498C25.2548 87.2504 25.532 88.5511 25.7933 89.8518C26.9535 95.6135 28.8718 101.197 31.4984 106.456C32.8148 109.04 34.3541 111.504 36.0989 113.821C38.1972 116.672 40.6747 119.225 43.463 121.408C45.3317 122.874 47.3073 124.175 49.5126 125.598C50.6926 126.344 51.967 126.078 53.2412 126.648C54.1239 127.067 55.2323 127.08 56.2096 127.093C56.6882 127.093 56.9766 128.169 57.4389 128.046L61.0021 127.093C64.9098 126.049 68.9561 124.97 72.8796 123.728C78.3472 122.001 83.8583 120.123 89.1874 118.304C90.9083 117.714 92.6239 117.128 94.3343 116.545C99.5881 114.766 105.677 112.643 111.454 109.955C112.74 109.315 113.969 108.563 115.124 107.709L115.385 107.531C116.462 106.768 116.668 105.563 115.936 104.361Z" fill="white"/>
<path d="M69.7334 0.0653222C71.7123 -0.219641 73.4656 0.461112 75.2744 1.45848C78.9814 3.48 82.3363 6.08904 85.2084 9.18412C87.3934 11.5022 89.3044 14.0639 90.9037 16.8188C93.0072 20.4726 94.7642 24.3152 96.1518 28.2964C97.3046 31.605 98.2056 34.9959 98.8471 38.4403C99.3379 41.2108 99.7455 43.9813 100.292 46.7082C100.921 49.8745 101.562 53.0407 102.373 56.1357C103.438 60.0653 104.849 63.893 106.589 67.5738C108.305 71.1664 110.43 74.5489 112.921 77.6544C114.433 79.6187 116.224 81.352 118.236 82.7995C119.527 83.7257 120.765 84.727 122.02 85.7006C122.253 85.8614 122.457 86.0593 122.626 86.2864C123.473 87.5766 124.775 88.3247 125.994 89.1795C127.423 90.1809 127.878 91.6017 127.577 93.2521C127.363 94.4395 126.39 95.1637 125.495 95.8207C123.326 97.4039 120.876 98.5042 118.43 99.5926C117.021 100.222 115.581 100.78 114.156 101.381C113.991 101.467 113.835 101.567 113.689 101.682C113.827 101.785 113.958 101.908 114.108 101.999C115.11 102.597 116.159 103.135 117.112 103.8C118.791 104.987 118.696 107.021 116.899 108.023C115.54 108.768 114.133 109.421 112.688 109.978C108.374 111.664 104.044 113.316 99.698 114.933C96.979 115.938 94.2164 116.821 91.4855 117.795C86.1464 119.69 80.831 121.649 75.4761 123.502C71.7993 124.772 68.1028 125.983 64.3706 127.064C62.354 127.644 60.2928 128.055 58.2082 128.295C57.0209 128.433 55.7979 128.128 54.6026 127.95C50.0471 127.266 46.3347 124.887 42.7648 122.148C40.7541 120.602 38.8853 118.881 37.1804 117.003C35.0776 114.67 33.2208 112.126 31.6394 109.412C29.4172 105.603 27.6807 101.53 26.4705 97.2891C25.7343 94.7838 25.1248 92.231 24.6419 89.6664C23.9691 86.1043 23.5535 82.475 22.8728 78.905C22.3662 76.2494 21.6618 73.6253 20.9533 71.0132C19.8444 67.0418 18.3283 63.1955 16.4295 59.5355C14.6422 56.0349 12.5117 52.7205 10.0693 49.6409C8.62736 47.7914 6.96901 46.1212 5.12987 44.666C4.58921 44.2144 4.08262 43.7236 3.61409 43.1976C2.97662 42.5196 2.2872 41.8923 1.55208 41.3216C0.214342 40.3005 -0.213172 38.7965 0.0955382 37.1659C0.305303 36.0577 0.68923 34.9614 1.59953 34.2094C2.48036 33.4449 3.42442 32.7564 4.4215 32.1513C7.10082 30.5914 10.0398 29.5282 13.097 29.0128C13.235 28.9766 13.3679 28.9234 13.4928 28.8545C13.7065 28.7674 13.8054 28.6645 13.5521 28.4943C12.7142 27.8799 12.0645 27.0438 11.6761 26.08C11.5085 25.7464 11.2595 25.4605 10.9519 25.2489C10.5883 24.9942 10.2855 24.6621 10.0654 24.2764C9.84525 23.8908 9.71328 23.4613 9.67885 23.0186C9.64442 22.5759 9.70838 22.1311 9.86621 21.7161C10.024 21.3011 10.2718 20.9262 10.5917 20.6183C12.0964 19.2764 13.7752 18.1435 15.5825 17.2502C19.7334 15.0685 24.033 13.1826 28.4494 11.6063C34.0339 9.56014 39.6381 7.54955 45.2978 5.72103C50.0115 4.19727 54.7966 2.89912 59.5895 1.62074C62.0631 0.959786 64.6041 0.520471 67.1291 0.0653222C67.9524 -0.061328 68.8192 0.0653222 69.7334 0.0653222ZM70.6753 2.3094C67.8059 2.37272 65.1978 2.9664 62.6093 3.55216C56.6291 4.89782 50.7358 6.6353 44.9178 8.50339C41.9297 9.45723 38.9455 10.4308 35.9851 11.4638C33.1117 12.4612 30.2541 13.51 27.4124 14.6103C24.4005 15.7976 21.3847 16.9494 18.448 18.2871C16.3764 19.2802 14.3566 20.3779 12.3965 21.5761C11.13 22.3122 11.0508 23.3452 12.151 24.4376C12.8872 25.1737 13.8173 25.4508 14.6286 25.9811C16.927 27.5417 18.9765 29.4405 20.7079 31.6131C22.9025 34.2375 24.7637 37.1236 26.2488 40.2055C27.1314 42.0696 28.0457 43.9219 28.8926 45.8019C30.2708 48.9296 31.3997 52.1613 32.2687 55.4668C33.1974 58.8969 33.9758 62.3574 34.6038 65.8482C35.2331 69.335 36.0326 72.7942 36.7331 76.2691C37.8777 81.9653 39.7729 87.4845 42.369 92.6822C43.6683 95.2253 45.1831 97.6524 46.8967 99.9369C48.9497 102.735 51.3759 105.238 54.1079 107.378C56.0155 108.878 58.0657 110.211 60.1001 111.533C61.2403 112.254 62.4307 112.891 63.6621 113.441C64.8077 114.017 66.1205 114.167 67.3666 113.864C72.5117 112.467 77.6846 111.157 82.7625 109.554C89.9499 107.283 97.07 104.805 104.214 102.367C109.98 100.412 115.723 98.3775 121.232 95.8049C122.567 95.1216 123.842 94.3272 125.044 93.4302C125.804 92.8999 125.835 92.14 125.357 91.3405C124.537 89.9909 123.196 89.3181 121.862 88.6334C121.337 88.4337 120.828 88.1956 120.338 87.9209C118.668 86.7997 117.064 85.584 115.533 84.2798C112.727 81.723 110.107 78.9842 108.013 75.7784C106.106 72.8242 104.458 69.711 103.086 66.4735C101.69 63.2003 100.534 59.8299 99.6268 56.389C98.202 51.1528 97.5133 45.7741 96.5753 40.4509C95.9078 36.7265 95.0023 33.0488 93.8642 29.4403C92.6924 25.8742 91.2105 22.4177 89.4354 19.1103C87.4476 15.3917 84.9777 11.9517 82.0897 8.87939C80.1108 6.71842 77.7361 5.06009 75.5078 3.18408C75.1371 2.89703 74.6951 2.71642 74.2294 2.66165C73.0065 2.49938 71.7637 2.4123 70.6753 2.3094ZM56.823 126.466C58.323 126.165 59.8704 125.995 61.3309 125.54C65.3045 124.297 69.2623 122.986 73.2043 121.606C77.6252 120.066 82.0105 118.44 86.4195 116.857C91.7507 114.949 97.1056 113.101 102.425 111.145C106.557 109.626 110.641 107.979 114.738 106.396C115.604 106.056 115.644 105.771 114.92 105.141C114.631 104.903 114.317 104.699 113.982 104.532C113.151 104.097 112.26 103.74 111.472 103.25C110.685 102.759 110.008 102.878 109.232 103.182C107.843 103.736 106.434 104.255 105.021 104.765C103.296 105.367 101.554 105.917 99.8247 106.515C95.3603 108.058 90.9275 109.721 86.4235 111.145C81.3417 112.729 76.1925 114.149 71.0751 115.63C69.4141 116.132 67.6847 116.371 65.9497 116.338C64.9139 116.34 63.905 116.008 63.0724 115.392C62.6448 115.028 62.1882 114.7 61.707 114.411C60.2623 113.643 58.7702 112.954 57.3335 112.174C54.1055 110.359 51.1301 108.128 48.4838 105.537C47.9226 104.974 47.4028 104.371 46.9284 103.732C45.7015 102.201 44.3875 100.724 43.3071 99.0939C41.5216 96.3959 39.9773 93.5458 38.6922 90.5766C37.1942 87.1938 35.9932 83.6872 35.1025 80.0964C33.8598 74.9274 32.7714 69.7189 31.7344 64.5025C30.8143 59.6831 29.5228 54.942 27.8716 50.3217C26.2409 45.8093 24.1031 41.4967 21.4994 37.4667C20.1026 35.3625 18.5786 33.3456 16.9361 31.4271C16.2989 30.6632 15.6537 30.3545 14.6247 30.7819C12.9822 31.4627 11.2645 31.9693 9.59826 32.5748C7.7001 33.258 5.90079 34.1896 4.24728 35.3453C3.46138 35.8725 2.86395 36.6363 2.54154 37.5261C2.40646 37.87 2.39246 38.2497 2.50192 38.6026C2.97686 39.7226 3.49534 40.8269 4.78163 41.3058C5.29897 41.5246 5.79015 41.8008 6.246 42.129C8.32284 43.5769 10.1741 45.324 11.7395 47.3137C14.2678 50.4473 16.4766 53.8255 18.3332 57.3983C20.5843 61.6706 22.3728 66.1711 23.6683 70.8232C24.7448 74.5594 25.3583 78.3786 26.043 82.19C26.4823 84.6637 26.7554 87.169 27.1907 89.6466C28.3781 96.3749 30.5193 102.779 33.9745 108.723C35.7343 111.76 37.8611 114.569 40.307 117.086C41.5458 118.361 42.9072 119.516 44.2094 120.731C46.8961 123.308 50.2512 125.081 53.8942 125.849C54.856 126.047 55.8098 126.252 56.8111 126.466H56.823Z" fill="#122224"/>
<path d="M57.9508 95.429C57.5748 95.4013 57.3848 95.429 57.2028 95.3736C56.807 95.2984 56.6368 94.9184 56.8901 94.6414C57.1982 94.2934 57.5687 94.0061 57.9824 93.7944C60.0168 92.8406 62.059 91.8947 64.125 91.0239C67.4416 89.6097 70.7715 88.2271 74.1145 86.8762C79.2781 84.7996 84.455 82.7468 89.645 80.7178C91.7347 79.8985 93.8363 79.103 95.9775 78.3669C96.9593 78.065 97.9585 77.8232 98.9696 77.6426C99.144 77.5822 99.335 77.5923 99.502 77.6707C99.6691 77.749 99.799 77.8895 99.8641 78.0621C99.9322 78.4141 99.8688 78.7788 99.686 79.0872C99.4457 79.3744 99.1347 79.5941 98.7836 79.7244C97.1569 80.4407 95.5342 81.1729 93.8759 81.8181C88.7307 83.8286 83.5856 85.7996 78.4404 87.7944C74.3401 89.3775 70.2478 91.0002 66.1395 92.5754C63.9113 93.4303 61.6632 94.2258 59.4113 95.0293C58.8769 95.2311 58.307 95.334 57.9508 95.429Z" fill="#122224"/>
<path d="M48.4561 75.0936C48.2319 75.0724 48.0119 75.0191 47.803 74.9353C47.5774 74.8126 47.2252 74.5712 47.2449 74.4169C47.269 74.267 47.3244 74.124 47.4077 73.9972C47.4909 73.8703 47.6 73.7625 47.7278 73.6807C48.1595 73.5066 48.6041 73.3663 49.0576 73.2612L59.8269 69.6081C63.0169 68.5237 66.2227 67.4907 69.3929 66.3667C74.538 64.5342 79.6832 62.6226 84.8284 60.7861C86.5856 60.1608 88.3904 59.6304 90.1675 59.1041C90.8917 58.8864 91.3271 59.0724 91.4537 59.5434C91.62 60.1529 91.2756 60.4497 90.7928 60.7743C89.1819 61.8666 87.3653 62.5078 85.5764 63.1727C78.294 65.8838 70.9919 68.5316 63.5828 70.8667C59.7042 72.0897 55.8057 73.2414 51.9033 74.3891C50.7872 74.7137 49.6276 74.8562 48.4561 75.0936Z" fill="#122224"/>
<path d="M90.2351 50.2939C89.9055 50.6232 89.5342 50.9079 89.1308 51.1409C87.8116 51.6317 86.4804 52.0802 85.1374 52.4866C84.1123 52.7992 83.0437 52.9813 82.0226 53.3019C76.9777 54.885 71.9354 56.4971 66.8958 58.1383C62.5739 59.5315 58.2717 60.9879 53.9379 62.3494C51.1674 63.2162 48.3693 63.9603 45.579 64.7637C45.492 64.7875 45.4088 64.8429 45.3178 64.8627C44.8824 64.9656 44.4075 64.9893 44.2254 64.5104C44.0433 64.0315 44.4787 63.7188 44.8468 63.5526C45.6863 63.1351 46.5462 62.7599 47.4233 62.4286C49.9761 61.4945 52.5408 60.5961 55.1015 59.6898C58.6635 58.4272 62.2256 57.1133 65.847 55.9338C70.4737 54.418 75.1399 53.0407 79.7745 51.5525C81.8682 50.8757 83.954 50.1594 86.1348 49.8388C87.2036 49.7108 88.2806 49.6658 89.3564 49.7042C89.5978 49.7082 89.8393 50.0208 90.2351 50.2939Z" fill="#122224"/>
<path d="M33.919 31.1578C33.7132 30.9995 33.3215 30.8372 33.2146 30.5641C33.1513 30.39 33.4521 29.9309 33.6935 29.8122C34.6514 29.3208 35.6403 28.8924 36.6539 28.5298C41.2265 26.9836 45.8057 25.4625 50.3915 23.9665C56.538 21.9876 62.6963 20.0324 68.8507 18.0812C70.5882 17.5311 72.3376 17.0047 74.0948 16.5258C74.8651 16.3302 75.6501 16.1978 76.4419 16.13C76.7648 16.0969 77.0903 16.1617 77.3759 16.316C77.5036 16.3777 77.6109 16.4747 77.685 16.5955C77.7591 16.7164 77.797 16.856 77.7941 16.9977C77.7912 17.1395 77.7476 17.2774 77.6685 17.3951C77.5895 17.5128 77.4783 17.6053 77.3482 17.6617C76.6487 18.0434 75.9162 18.3613 75.1596 18.6115C71.7796 19.7237 68.3995 20.8279 65.0037 21.8886C58.9285 23.7805 52.8533 25.6644 46.7583 27.4968C42.8004 28.6842 38.8426 29.7686 34.8848 30.8966C34.6275 30.9837 34.3544 31.047 33.919 31.1578Z" fill="#122224"/>
<path d="M28.1882 24.6314C27.8478 24.6314 27.7925 24.6314 27.7569 24.6314C27.4046 24.5523 26.803 24.5444 26.7555 24.3781C26.5893 23.8042 27.1513 23.5866 27.5471 23.4243C28.687 23.0008 29.8466 22.6327 31.0062 22.237C34.2556 21.1763 37.5089 20.1116 40.7622 19.0707C45.4443 17.5667 50.1224 16.0628 54.8085 14.5905C58.4259 13.4506 62.0473 12.3266 65.6885 11.2698C66.993 10.9367 68.3141 10.6725 69.6464 10.4783C69.9211 10.41 70.2097 10.4224 70.4775 10.5139C70.7981 10.6643 71.2137 10.9097 71.2691 11.1907C71.3245 11.4717 71.0316 11.8833 70.7664 12.0495C70.2479 12.3695 69.6889 12.6184 69.1042 12.7897C66.0646 13.7277 63.0131 14.638 59.9695 15.5601L54.7254 17.1432C47.9615 19.1776 41.1976 21.2238 34.4218 23.2304C32.6764 23.7449 30.8914 24.1288 29.1183 24.5444C28.8121 24.6049 28.5004 24.6341 28.1882 24.6314Z" fill="#122224"/>
<path d="M46.7507 49.9931C43.8812 49.8902 41.4194 48.7187 39.7651 46.059C39.5533 45.7809 39.4114 45.456 39.3515 45.1116C39.2916 44.7672 39.3154 44.4134 39.4208 44.0801C39.5302 43.7743 39.5521 43.4439 39.4841 43.1263C38.6925 40.1975 39.9946 38.0128 42.0368 36.1408C42.7793 35.485 43.6441 34.9824 44.5814 34.6618C45.5187 34.3412 46.5101 34.2089 47.4986 34.2727C51.2546 34.427 54.3615 36.3703 55.2916 40.5141C55.535 41.7638 55.424 43.0566 54.9711 44.2464C53.6887 47.9469 50.5106 49.8427 46.7507 49.9931ZM52.8338 42.0458C53.2771 39.7226 50.5027 36.9323 48.2269 36.7305C46.6269 36.5974 45.0313 37.0346 43.7225 37.9646C42.4137 38.8946 41.4759 40.2575 41.0751 41.8123C40.8733 42.6039 40.4379 43.5379 41.6411 44.0643C41.8785 44.1672 41.9498 44.6224 42.1318 44.8954C42.5988 45.5841 43.0105 46.2807 43.7981 46.7398C45.9077 47.9707 47.9539 47.9984 50.0317 46.72C51.7771 45.6474 52.9288 44.2226 52.8338 42.0458Z" fill="#122224"/>
<path d="M63.0885 102.719C62.9222 102.6 62.6055 102.49 62.5224 102.284C62.4857 102.158 62.4781 102.025 62.5 101.895C62.5219 101.766 62.5729 101.643 62.6491 101.536C62.8998 101.257 63.2058 101.033 63.5475 100.879C66.508 99.4698 69.4407 97.9975 72.4526 96.7072C77.3524 94.6017 82.2918 92.5871 87.239 90.5964C89.0121 89.884 90.8605 89.3496 92.6652 88.7124C92.8382 88.6399 93.0296 88.6237 93.2123 88.6664C93.3949 88.709 93.5594 88.8083 93.6824 88.9499C94.0069 89.2665 94.0782 89.6069 93.6824 89.9077C93.3482 90.1612 92.9934 90.3862 92.6217 90.5805C88.9171 92.6228 84.9395 94.0397 81.0411 95.6268C76.793 97.3524 72.541 99.0674 68.285 100.772C66.8523 101.346 65.4077 101.896 63.9671 102.446C63.7257 102.541 63.4526 102.6 63.0885 102.719Z" fill="#122224"/>
<path d="M57.6305 34.8031C57.4169 34.7862 57.2051 34.7518 56.9972 34.7002C56.8919 34.6784 56.7956 34.6253 56.7209 34.5478C56.6463 34.4704 56.5968 34.3723 56.5788 34.2662C56.5608 34.1602 56.5753 34.0512 56.6203 33.9535C56.6653 33.8558 56.7387 33.7739 56.831 33.7187C57.1886 33.4217 57.5889 33.1802 58.0183 33.0023C59.6015 32.3374 61.2083 31.6447 62.8429 31.0827C66.8693 29.7001 70.909 28.3598 74.9618 27.0616C76.6043 26.5392 78.2349 25.9178 80.0001 25.9218C80.2678 25.9031 80.5367 25.9367 80.7916 26.0207C81.4249 26.3096 81.4842 26.9785 80.8787 27.3307C80.1175 27.7969 79.3113 28.1854 78.4723 28.4904C75.8087 29.369 73.1253 30.1843 70.4419 30.9996C66.4603 32.2107 62.4761 33.4113 58.4893 34.6012C58.2004 34.6923 57.8759 34.7477 57.6305 34.8031Z" fill="#122224"/>
<path d="M52.9841 82.7046C52.4419 82.7046 52.1926 82.7046 51.9709 82.7046C51.7841 82.7078 51.602 82.6448 51.4572 82.5267C51.3123 82.4086 51.2139 82.2431 51.1794 82.0594C51.1272 81.8763 51.1484 81.6801 51.2386 81.5123C51.3287 81.3446 51.4807 81.2186 51.6622 81.161C52.0426 80.9795 52.4323 80.8183 52.8297 80.6782C55.7744 79.7758 58.723 78.8813 61.6755 77.9948C63.8277 77.3829 66.0283 76.9566 68.2533 76.7203C68.4829 76.6926 68.7442 76.5858 68.9342 76.661C69.2152 76.7797 69.5911 76.9855 69.6544 77.227C69.7178 77.4684 69.4131 77.7692 69.2152 78.0185C69.0656 78.1281 68.8918 78.2 68.7086 78.2283C63.8206 79.8114 58.9604 81.4618 53.9379 82.5819C53.5145 82.6531 53.095 82.6887 52.9841 82.7046Z" fill="#122224"/>
<path d="M60.7334 40.4272C60.021 40.3797 59.3838 40.5618 59.1068 39.8652C58.9326 39.4259 59.2848 38.9905 60.1476 38.5591C60.526 38.3754 60.9161 38.2168 61.3153 38.0842C64.2836 37.0789 67.252 36.038 70.2283 35.1C71.4008 34.7938 72.5902 34.556 73.7903 34.3876C73.9661 34.3368 74.1527 34.3368 74.3285 34.3876C74.6175 34.5126 74.8618 34.7223 75.0291 34.9892C75.1043 35.1673 74.9222 35.5512 74.7362 35.7214C74.4531 35.9647 74.1269 36.1526 73.7745 36.2754C69.8443 37.7834 65.8588 39.129 61.81 40.2808C61.4554 40.3571 61.0954 40.406 60.7334 40.4272Z" fill="#122224"/>
<path d="M142.369 80.5743C142.138 79.8546 141.945 79.1244 141.792 78.3863V78.2619L141.743 78.1447C140.138 74.2374 134.824 75.09 130.944 75.6974C129.747 75.9267 128.533 76.0609 127.313 76.0987H127.216C125.219 76.2271 123.215 76.1772 121.228 75.9495C119.85 75.7826 118.066 75.0118 117.377 72.3052C116.893 70.4084 116.539 68.4228 116.2 66.5047C115.653 63.4357 115.083 60.2602 113.966 57.2693C112.849 54.2785 109.456 54.6834 107.181 54.9747C106.671 55.0386 106.187 55.1026 105.784 55.1239L105.62 55.1452C105.278 55.2127 104.909 55.2731 104.529 55.3406C102.351 55.6958 99.6435 56.1753 98.489 57.9868C97.9081 58.9033 97.8113 60.0151 98.2023 61.2938C98.3326 62.5868 98.8279 64.3663 99.394 66.4194C100.701 71.1472 102.675 78.2832 99.5057 79.6472C97.7293 80.2511 95.8078 80.4429 93.7782 80.6454C92.5716 80.7661 91.3278 80.8904 90.1249 81.1071C89.7972 81.1604 89.3243 81.203 88.7806 81.2527C86.5127 81.4588 83.4106 81.7394 82.1779 83.416C81.927 83.7621 81.7609 84.1576 81.6919 84.5732C81.623 84.9889 81.6529 85.414 81.7795 85.8171C81.8912 86.2469 82.0104 87.0532 82.1519 87.9839C82.7589 92.0687 83.5819 97.6348 86.8851 97.4572C89.9908 97.5609 93.099 97.3297 96.1504 96.7681H96.1951C101.267 95.7025 104.63 96.4413 106.805 99.0769C107.993 100.427 108.417 102.434 108.831 104.373C108.991 105.126 109.155 105.904 109.363 106.639L109.382 106.696C109.68 107.664 109.914 108.649 110.082 109.644C110.782 113.196 111.739 118.091 116.413 118.091H116.521H116.658C119.711 117.656 122.672 116.766 125.436 115.455C127.019 114.688 127.54 113.594 127.13 111.903C126.81 110.127 126.426 108.323 126.058 106.575C125.443 103.702 124.807 100.725 124.46 97.7627V97.6526C124.311 97.0841 124.29 96.4921 124.396 95.9151C124.503 95.3381 124.735 94.7888 125.078 94.303C125.446 93.8158 125.917 93.4076 126.46 93.1047C127.003 92.8018 127.607 92.6111 128.233 92.5447H128.296C129.905 92.2499 131.588 92.0616 133.212 91.884C136.086 91.5679 139.062 91.2411 141.926 90.2892C142.215 90.2111 142.484 90.0792 142.72 89.9012C142.955 89.7232 143.151 89.5025 143.296 89.252C144.272 87.5363 143.456 84.3075 142.369 80.5743Z" fill="white"/>
<path d="M145.646 87.6573C145.721 90.7049 142.637 92.8148 140.291 94.4346C139.584 95.2089 138.63 96.0827 137.64 96.4202C134.992 97.2299 132.253 97.7378 129.48 97.9333C128.598 98.1571 126.807 97.8516 126.792 99.0806C126.188 103.94 131.633 112.934 127.536 116.582C121.604 121.594 121.638 122.091 113.802 123.86C98.8655 126.634 106.987 102.793 96.4188 102.572C91.2722 102.26 80.279 106.547 77.6871 100.679C76.2832 97.8374 74.2349 88.3464 76.8641 86.0517C78.5548 84.1052 80.5657 82.6205 82.5804 81.157C86.0623 79.5337 90.2481 79.4201 94.0652 79.0258C94.7653 78.969 94.7691 78.9832 94.6536 78.2159C94.1509 74.8877 93.1975 71.6802 92.4825 68.4087C92.0506 65.798 90.7397 62.5159 92.9555 60.374C94.6232 58.5748 96.5125 56.9743 98.5824 55.6071C102.634 53.2202 107.624 52.9254 112.179 53.4759C117.057 54.6907 117.37 67.0483 118.766 71.3392C119.221 73.4704 120.007 73.9712 122.118 74.1808C124.23 74.3904 126.322 74.0103 128.427 73.9854C132.08 74.0068 135.975 72.284 139.539 73.6302C140.508 73.9963 141.374 74.5717 142.07 75.3114C142.766 76.051 143.273 76.9346 143.55 77.8927C144.51 81.1606 145.412 84.1798 145.646 87.6573ZM116.752 116.784C119.682 116.364 122.525 115.511 125.179 114.255C126.296 113.715 126.598 113.118 126.296 111.875C125.447 107.119 124.177 102.462 123.611 97.6669C122.867 94.3991 125.067 91.6995 128.326 91.2733C132.795 90.4492 137.472 90.5024 141.837 89.0461C143.743 88.4281 142.581 85.7285 142.507 84.3006C141.688 82.1019 141.673 77.1219 139.085 76.4861C135.282 75.4205 131.38 76.8413 127.54 76.9798C125.474 77.109 123.4 77.0567 121.343 76.8235C119.228 76.5678 117.284 75.25 116.551 72.3764C115.288 67.4283 114.964 62.2246 113.177 57.4151C112.205 54.6694 108.399 55.8806 106.101 55.9943C103.174 56.5839 98.2287 56.8219 99.5581 60.8997C99.9305 65.3149 105.781 78.152 100.176 80.4359C97.1375 81.4767 93.7561 81.3879 90.5684 81.9562C88.4345 82.2901 82.2527 82.18 83.1204 85.3591C83.6865 87.5578 84.152 96.4308 87.1274 96.1857C90.1718 96.292 93.2189 96.0679 96.2103 95.518C100.43 94.637 104.954 94.598 107.915 98.182C109.777 100.313 109.948 103.51 110.697 106.149C111.937 109.63 111.695 116.848 116.752 116.784Z" fill="#3F06A0"/>
</svg>
