<svg width="211" height="147" viewBox="0 0 211 147" fill="none" xmlns="http://www.w3.org/2000/svg">
<path d="M66.2764 86.4572C66.2764 86.7773 66.3018 87.0973 66.2948 87.4173C66.3022 87.7958 66.1881 88.1668 65.9693 88.4761C65.7506 88.7855 65.4385 89.017 65.0786 89.1371C64.4406 89.4113 63.7656 89.5904 63.0754 89.669C60.1213 89.8647 57.1811 89.8577 54.4417 88.4579C54.251 88.3942 54.0519 88.3593 53.8509 88.3543C53.8626 88.5503 53.8936 88.7446 53.9432 88.9345C54.0332 89.1832 54.2155 89.395 54.2824 89.6551C54.5271 90.5438 53.9778 91.253 53.05 91.2668C52.9434 91.2714 52.8366 91.2645 52.7316 91.246C49.7313 90.6336 46.7773 90.0005 44.0817 88.4326C40.2945 86.2293 39.1036 82.1496 39.7822 78.7099C40.1682 76.7716 40.7938 74.8885 41.6446 73.1038C42.8332 70.5966 44.0655 68.1124 45.2379 65.596C45.818 64.3994 46.3258 63.1693 46.7588 61.9123C48.0518 58.0861 48.016 53.9371 46.6573 50.1336C46.0388 48.3724 45.3649 46.6318 44.7394 44.8706C43.9132 42.5406 43.3755 40.1232 43.5186 37.662C43.6271 35.8202 44.0355 33.9783 44.4763 32.1595C45.8841 26.4037 48.7251 21.3386 52.5238 16.8422C55.7271 13.0457 59.8144 10.4717 64.5247 8.84167C67.121 7.94377 69.7913 7.44187 72.4984 7.0735C72.8196 7.05566 73.1381 7.00552 73.4492 6.92384C76.5025 5.83024 79.6805 5.94305 82.8238 6.09731C87.0056 6.29991 90.7766 7.78951 94.07 10.3221C100.11 14.9589 104.019 20.9795 105.443 28.4919C105.81 30.4212 105.976 32.4058 106.154 34.3559C106.385 36.9529 106.544 39.5591 106.74 42.1607C107.07 46.5167 108.713 50.4191 110.846 54.1696C112.008 56.1459 113.063 58.1825 114.008 60.2707C115.298 63.1591 115.9 66.3066 115.766 69.4662C115.535 74.2297 114.031 78.5442 111.077 82.3361C109.173 84.7834 106.872 86.7266 104.031 87.9998C103.403 88.2956 102.741 88.5144 102.06 88.6513C100.477 88.9322 99.5788 88.0573 99.7519 86.4826C99.7983 86.3327 99.8285 86.1784 99.8419 86.0221C99.7979 85.7305 99.7378 85.4415 99.6619 85.1564C99.3592 85.2058 99.0643 85.2949 98.7849 85.4212C97.7418 86.0704 96.7286 86.7657 95.697 87.4334C94.3155 88.3636 92.7461 88.9798 91.0997 89.2384C90.3082 89.3243 89.5088 89.3042 88.7226 89.1786C88.3452 89.1482 87.9818 89.0229 87.6662 88.8144C87.3505 88.6058 87.0931 88.3208 86.9179 87.986C86.581 87.3183 86.0294 87.1111 85.3301 87.1456C85.1178 87.1456 84.9031 87.1456 84.6885 87.1456C84.2269 87.1456 83.4653 86.9614 83.3361 87.1686C82.983 87.735 83.5669 88.2323 83.8623 88.7112C84.8178 90.3044 86.1978 91.5016 87.7556 92.4571C89.2001 93.3729 90.7105 94.1809 92.2744 94.8745C98.0095 97.308 102.524 101.141 106.009 106.276C109.087 110.811 111.453 115.697 113.461 120.766C114.441 123.241 115.651 125.64 116.172 128.283C116.215 128.551 116.35 128.795 116.553 128.974C117.509 129.652 118.488 130.299 119.491 130.915C119.611 130.989 120.017 130.821 120.112 130.659C120.305 130.279 120.454 129.878 120.557 129.464C121.827 125.224 123.036 120.962 124.368 116.742C125.847 112.064 127.405 107.408 128.995 102.767C129.383 101.717 129.888 100.713 130.5 99.7738C131.757 97.7501 133.731 97.0709 136.004 97.1653C137.601 97.2321 139.191 97.4945 140.79 97.5705C141.69 97.6142 142.6 97.3955 143.507 97.3932C149.768 97.3794 156.031 97.3702 162.295 97.4047C163.841 97.4047 165.392 97.5498 166.936 97.6994C167.68 97.7864 168.413 97.95 169.124 98.1875C170.576 98.648 171.392 99.6495 171.683 101.169C171.974 102.689 171.792 104.13 171.524 105.606C169.865 114.695 167.568 123.626 164.898 132.467C164.312 134.408 163.691 136.339 163.068 138.266C162.505 139.998 161.838 141.678 160.652 143.101C160.356 143.453 160.465 143.72 160.883 143.75C161.416 143.787 161.951 143.78 162.498 143.783C173.74 143.783 184.981 143.739 196.223 143.815C200.121 143.842 204.019 144.128 207.91 144.39C208.833 144.452 209.756 144.862 210.661 145.175C210.765 145.241 210.851 145.333 210.911 145.441C210.97 145.55 211.001 145.671 211 145.795C210.963 145.915 210.898 146.026 210.809 146.116C210.721 146.207 210.612 146.275 210.492 146.315C209.763 146.474 209.015 146.545 208.272 146.649C208.113 146.665 207.952 146.672 207.792 146.667C201.33 146.778 194.85 146.978 188.378 146.98C133.242 147.007 78.1057 147.007 22.9694 146.98C16.969 146.98 10.9893 146.787 5.00041 146.654C3.66646 146.624 2.33481 146.481 1.00318 146.368C0.740565 146.337 0.485705 146.259 0.250812 146.138C0.130804 146.078 -0.0168892 145.882 0.00157364 145.776C0.0361915 145.594 0.160827 145.316 0.301607 145.284C0.758227 145.144 1.23025 145.062 1.70709 145.037C5.01886 144.924 8.34678 144.984 11.6447 144.701C17.3636 144.208 23.0871 144.501 28.806 144.365C33.244 144.259 37.6843 144.179 42.1223 144.08C42.2651 144.057 42.4041 144.015 42.5354 143.955C42.434 143.848 42.3218 143.752 42.2008 143.667C42.0137 143.563 41.8194 143.472 41.6192 143.396C38.829 142.272 37.3358 139.569 37.8505 136.044C38.4805 131.732 39.9276 127.664 41.67 123.699C44.4778 117.355 47.6368 111.172 51.1322 105.177C52.817 102.27 54.6909 99.4768 57.0588 97.041C58.3714 95.7064 59.9017 94.6041 61.5845 93.7809C62.8746 93.1316 64.1947 92.5353 65.4594 91.8446C67.1276 90.9536 68.4331 89.5112 69.152 87.7649C69.5189 86.8878 69.3435 86.6299 68.3581 86.5723C67.6657 86.5309 66.9734 86.5263 66.281 86.5056L66.2764 86.4572ZM133.082 99.9004L132.766 100.225L132.443 100.547C131.487 101.151 130.954 102.062 130.61 103.094C129.719 105.774 128.819 108.451 127.972 111.152C126.32 116.387 124.688 121.629 123.077 126.877C122.09 130.086 121.141 133.307 120.19 136.528C120.088 136.883 120.046 137.253 120.066 137.622C120.066 137.762 120.315 137.93 120.486 138.006C120.553 138.036 120.788 137.868 120.827 137.75C121.183 136.691 121.52 135.625 121.843 134.555C123.871 127.706 125.894 120.857 127.912 114.007C129.256 109.467 130.246 104.797 132.438 100.55L132.761 100.227L133.089 99.9143L133.082 99.9004ZM113.814 128.069C113.687 127.719 113.583 127.36 113.433 127.019C112.454 124.768 111.455 122.528 110.49 120.274C108.469 115.554 106.172 110.988 103.202 106.775C100.273 102.615 96.5347 99.4492 91.8636 97.4047C91.2705 97.1446 90.7282 96.5943 89.9689 96.8245C90.1743 97.4231 90.3381 98.0402 90.5897 98.618C91.2703 100.194 91.5394 101.916 91.372 103.623C91.1413 106.156 89.1703 108.401 86.6571 108.815C85.1763 109.086 83.6523 109.008 82.2075 108.585C79.1242 107.639 76.7426 105.695 74.7463 103.264C73.2231 101.411 71.8107 99.4653 70.3613 97.559C69.5005 96.4332 68.3535 95.6527 67.1695 94.9205C66.8349 94.6949 66.4429 94.5688 66.0392 94.557C65.6354 94.5452 65.2367 94.6481 64.8894 94.8538C63.7562 95.4547 62.5423 95.9243 61.4668 96.6081C60.4398 97.262 59.3736 97.9895 58.6235 98.9104C56.9423 100.981 55.3782 103.144 53.9386 105.389C50.4768 110.85 47.6843 116.687 44.8895 122.505C43.2176 125.909 41.8812 129.467 40.8992 133.13C40.4814 134.741 40.1791 136.353 40.2991 138.027C40.4007 139.408 40.9707 140.513 42.3047 141.052C43.2878 141.45 44.2986 141.872 45.3349 142.037C49.0621 142.636 52.8008 142.162 56.5303 141.98C57.5415 141.895 58.5445 141.733 59.5305 141.494C60.3567 141.324 60.426 141.179 59.9621 140.426C58.3766 137.866 58.5774 135.255 59.6898 132.612C59.8767 132.172 60.1675 131.778 60.3821 131.352C60.5967 130.926 60.4214 130.719 59.9875 130.749C58.762 130.83 57.5388 130.949 56.3134 130.998C55.8341 131.006 55.3568 130.934 54.9009 130.786C54.6955 130.724 54.5594 130.431 54.3909 130.243C54.6079 130.052 54.804 129.736 55.0463 129.695C55.9388 129.53 56.842 129.429 57.7488 129.393C58.9212 129.359 59.5651 128.79 60.0175 127.74C60.8437 125.831 61.7737 123.967 62.6854 122.097C62.9118 121.616 63.2047 121.169 63.5554 120.769C63.6718 120.678 63.8067 120.614 63.9507 120.581C64.0947 120.548 64.2441 120.547 64.3885 120.578C64.5293 120.61 64.6886 121.022 64.6632 121.241C64.5928 121.659 64.4743 122.069 64.3101 122.461C63.6616 124.213 62.99 125.953 62.3507 127.708C62.1315 128.306 62.3276 128.557 62.9231 128.431C64.077 128.187 65.2309 127.91 66.3595 127.618C70.4614 126.582 74.4222 125.054 78.1549 123.066C79.8997 122.145 81.6283 121.165 83.4122 120.315C86.8394 118.685 90.3958 118.473 94.0284 119.59C94.3861 119.7 94.7346 119.841 95.0993 119.926C95.9393 120.122 96.2532 119.871 96.1701 119.086C96.0501 117.921 95.9924 116.749 95.9093 115.579C95.8793 115.156 95.7824 114.716 95.8586 114.311C95.9186 113.993 96.1378 113.56 96.3962 113.461C96.8232 113.295 97.0517 113.712 97.1486 114.09C97.2828 114.605 97.3907 115.127 97.4717 115.653C97.6264 116.707 97.7233 117.771 97.901 118.821C98.0625 119.76 98.3626 119.99 99.2972 120.023C99.9365 120.043 100.583 119.965 101.222 120.007C102.697 120.101 103.444 121.084 103.068 122.516C102.907 123.126 102.891 123.575 103.241 124.151C103.837 125.131 103.648 125.91 102.84 126.743C102.221 127.383 101.441 127.703 100.601 127.929C99.3065 128.276 99.1772 128.445 99.2303 129.755C99.2347 130.235 99.303 130.713 99.4334 131.175C99.551 131.573 99.7724 131.932 100.075 132.216C100.726 132.764 101.46 133.22 102.152 133.717C102.405 133.922 102.721 134.035 103.046 134.035C103.372 134.035 103.688 133.922 103.941 133.717C104.332 133.439 104.702 133.131 105.046 132.796C105.925 131.937 106.786 131.06 107.645 130.18C108.562 129.195 109.778 128.538 111.107 128.311C112 128.182 112.911 128.15 113.814 128.069ZM101.25 54.7751C101.148 53.1911 101.065 51.2226 100.885 49.2496C100.742 47.7139 100.474 46.1898 100.271 44.6588C99.4726 38.6543 97.7948 32.8847 95.6554 27.2348C95.4593 26.7168 95.1939 26.284 94.6492 26.0676C92.5999 25.2664 90.6266 24.3316 88.9511 22.8604C88.5772 22.5312 88.2865 22.6878 88.1872 23.215C87.9564 24.4168 87.8041 25.6393 87.4949 26.8227C87.2617 27.5842 86.9435 28.3171 86.5463 29.0076C86.3709 29.3461 85.9809 29.5947 85.6093 29.3184C85.4951 29.2205 85.4042 29.0984 85.3431 28.961C85.282 28.8236 85.2523 28.6744 85.2562 28.5241C85.3439 27.8334 85.5978 27.1796 85.697 26.4981C85.7755 25.9617 86.1078 25.3884 85.6324 24.8658C85.3047 25.2687 84.9401 25.6486 84.6562 26.0791C82.1659 29.8215 78.9569 33.0344 75.2147 35.5324C72.7915 37.1693 70.1144 38.2169 67.3934 39.1838C65.3902 39.893 65.7779 39.9666 66.1148 41.5783C66.9941 45.8122 67.5757 50.0807 67.608 54.4114C67.6357 58.3023 67.6934 62.1932 67.2272 66.0657C67.143 66.8564 67.2855 67.6548 67.638 68.368C68.7043 70.7509 69.7266 73.1568 70.7236 75.5719C71.6675 77.8581 72.0322 80.2686 72.2907 82.7229C72.5367 84.7956 72.2178 86.8962 71.3675 88.8033C70.7507 90.1684 69.8799 91.4043 68.8012 92.4455C68.3396 92.906 68.3627 93.1362 68.8843 93.4701C71.4229 95.0932 73.2069 97.3955 74.9401 99.783C76.1909 101.507 77.6172 103.108 79.3735 104.362C80.8713 105.431 82.4799 106.22 84.3446 106.446C86.9663 106.761 88.7572 105.26 88.7295 102.663C88.7314 101.919 88.6273 101.179 88.4203 100.465C87.6934 98.1046 86.5232 95.9451 85.2239 93.8569C84.9193 93.3688 84.4531 92.9797 84.07 92.5445C83.3569 91.7525 82.5883 91.0043 81.9421 90.1617C80.6059 88.4188 80.1397 86.3444 79.6897 84.2401C79.0619 81.3116 81.1921 78.977 83.5023 78.4705C84.4447 78.2808 85.4009 78.1669 86.3617 78.1298C87.5341 78.0653 88.7157 78.1298 89.8904 78.0676C91.8901 77.9729 93.7827 77.1381 95.1985 75.7262C96.9709 73.9948 98.0002 71.8399 98.8311 69.5813C100.53 64.9398 101.104 60.0865 101.25 54.7751ZM139.006 143.75C144.462 143.75 149.92 143.711 155.376 143.773C157.008 143.792 158.205 143.241 158.951 141.837C159.673 140.476 160.474 139.12 160.929 137.663C163.65 128.963 166.186 120.205 168.337 111.343C168.942 108.856 169.705 106.393 170.089 103.872C170.55 100.805 169.248 99.9027 167.033 99.6587C165.812 99.5229 164.587 99.3755 163.359 99.3525C155.394 99.1982 147.421 99.4722 139.461 98.9818C138.928 98.9477 138.394 99.0197 137.889 99.1936C136.921 99.5183 136.031 100.039 135.274 100.723C134.517 101.406 133.91 102.239 133.49 103.167C132.943 104.382 132.473 105.63 132.083 106.904C130.467 112.098 128.919 117.308 127.31 122.502C126.018 126.679 124.626 130.825 123.387 135.015C122.618 137.603 121.407 140.08 121.31 142.843C121.284 143.585 121.252 143.681 122.002 143.73C122.429 143.757 122.858 143.741 123.287 143.741L139.006 143.75ZM60.7167 136.01C60.8575 136.735 60.8783 137.511 61.1576 138.176C61.8661 139.848 63.5139 140.529 65.2725 139.945C68.1639 138.974 70.9254 137.654 73.4954 136.015C75.1109 134.988 76.6387 133.804 78.1896 132.672C78.3925 132.547 78.5674 132.383 78.7032 132.188C78.8391 131.993 78.9329 131.772 78.9788 131.539C79.1335 130.689 79.3342 130.618 80.1858 130.71C80.929 130.788 81.6698 130.899 82.4153 130.94C84.1646 131.023 85.6809 130.505 86.8625 129.156C87.1491 128.839 87.4518 128.537 87.7695 128.251C88.8842 127.192 89.385 127.118 90.7535 127.874C91.9282 128.52 93.1076 129.161 94.4461 129.37C94.9686 129.439 95.4986 129.428 96.0178 129.338C96.2993 129.294 96.5509 129.048 96.8186 128.893C96.6663 128.638 96.5694 128.309 96.357 128.136C94.7254 126.849 93.066 125.603 91.4251 124.319C91.0419 124.036 90.6837 123.721 90.3543 123.377C90.3072 123.314 90.2783 123.239 90.2707 123.161C90.263 123.083 90.2769 123.004 90.3108 122.933C90.3448 122.862 90.3975 122.801 90.4633 122.758C90.5291 122.714 90.6055 122.69 90.6843 122.686C91.1591 122.716 91.6263 122.819 92.069 122.993C93.5095 123.569 94.8523 124.363 96.0501 125.348C97.4094 126.499 98.9349 126.211 100.458 125.857C100.647 125.813 100.82 125.516 100.906 125.302C100.931 125.24 100.645 125.009 100.47 124.92C98.9003 124.118 97.3102 123.356 95.7501 122.539C91.7598 120.444 87.758 120.479 83.7492 122.442C82.5953 123.004 81.4598 123.594 80.3382 124.222C77.7626 125.65 75.1478 127.001 72.3207 127.853C69.7636 128.624 67.1765 129.292 64.594 129.973C63.8577 130.169 63.1469 130.346 62.6646 131C61.5614 132.485 60.7329 134.067 60.7167 136.01ZM65.5079 144.008V144.04C68.7635 143.948 72.0199 143.856 75.277 143.764C76.0248 143.746 76.7748 143.764 77.5226 143.764C79.6966 143.764 79.6989 143.764 79.7058 141.662C79.7058 141.397 79.6897 141.13 79.7058 140.863C79.7589 139.666 80.0589 139.284 81.2406 138.955C81.6505 138.831 82.0706 138.743 82.496 138.692C84.0884 138.536 85.6832 138.354 87.2802 138.278C90.322 138.137 93.366 138.066 96.4078 137.962C96.5694 137.962 96.7286 137.948 96.8879 137.932C96.9822 137.936 97.076 137.917 97.1622 137.879C97.2483 137.84 97.3244 137.783 97.3846 137.71C97.4449 137.638 97.4876 137.552 97.5095 137.461C97.5314 137.369 97.5319 137.274 97.511 137.182C97.3633 135.54 97.234 133.894 97.0609 132.255C96.9802 131.497 96.7863 131.322 95.9993 131.447C94.9008 131.619 93.8646 131.403 92.8491 131.081C92.087 130.833 91.3499 130.515 90.6474 130.13C89.9158 129.736 89.3342 129.812 88.8011 130.441C88.6649 130.602 88.4965 130.74 88.3395 130.901C86.6456 132.665 84.6238 133.565 82.1406 133.19C81.9057 133.145 81.6635 133.162 81.4366 133.237C81.2098 133.311 81.0057 133.443 80.8436 133.618C80.2902 134.197 79.7005 134.741 79.0781 135.246C75.0993 138.266 70.8483 140.806 66.0456 142.318C64.4301 142.832 62.7638 143.262 61.1206 143.732C61.0242 143.767 60.9308 143.81 60.8414 143.861C60.9498 143.914 61.0583 144.013 61.1668 144.013C62.6207 144.013 64.0631 144.008 65.5079 144.008ZM99.6088 143.766H108.586C110.991 143.766 113.398 143.711 115.801 143.787C117.01 143.826 117.979 143.373 118.916 142.744C119.19 142.573 119.397 142.314 119.504 142.01C119.611 141.706 119.61 141.374 119.503 141.07C119.325 140.437 118.836 140.292 118.268 140.271C118 140.271 117.732 140.271 117.467 140.271C108.755 140.285 100.045 140.271 91.3351 140.329C88.988 140.345 86.6432 140.534 84.2985 140.667C83.7661 140.714 83.2378 140.799 82.7176 140.921C81.7598 141.121 81.3121 141.858 81.4529 142.956C81.5336 143.58 81.8198 143.743 82.9369 143.778C83.3107 143.792 83.6846 143.778 84.0584 143.778L99.6088 143.766ZM112.858 130.091C111.695 130.084 110.576 130.532 109.74 131.339C108.058 132.95 106.643 134.891 104.414 135.879C104.353 135.924 104.305 135.983 104.272 136.051C104.24 136.12 104.225 136.195 104.229 136.27C104.253 136.342 104.295 136.406 104.35 136.457C104.406 136.509 104.474 136.545 104.548 136.562C105.021 136.562 105.533 136.609 105.958 136.447C106.81 136.142 107.627 135.744 108.393 135.262C109.823 134.313 111.268 134.198 112.796 134.923C113.47 135.243 114.139 135.582 114.788 135.95C115.577 136.397 116.332 136.906 117.128 137.331C117.37 137.465 117.82 137.582 117.959 137.463C118.123 137.322 118.226 137.124 118.246 136.909C118.267 136.694 118.202 136.48 118.067 136.312C117.816 135.973 117.449 135.727 117.144 135.418C116.807 135.082 116.498 134.718 116.221 134.332C116.186 134.238 116.174 134.137 116.186 134.037C116.198 133.938 116.235 133.843 116.292 133.761C116.362 133.687 116.448 133.631 116.544 133.598C116.639 133.565 116.742 133.556 116.842 133.572C117.251 133.808 117.648 134.065 118.03 134.343C118.245 134.481 118.476 134.592 118.699 134.714C118.869 134.458 119.013 134.186 119.129 133.901C119.214 133.645 119.211 133.367 119.119 133.113C119.028 132.858 118.853 132.642 118.623 132.499C116.922 131.246 115.055 130.372 112.858 130.091ZM101.245 137.946C102.207 137.946 102.288 137.861 101.961 136.984C101.801 136.56 101.603 136.063 101.268 135.812C100.846 135.487 100.564 134.845 99.8604 134.967C99.7979 135.482 99.7617 136 99.7519 136.519C99.7727 137.801 99.948 137.951 101.236 137.946H101.245ZM111.293 137.946C111.935 137.946 112.574 137.946 113.216 137.946C113.321 137.933 113.425 137.91 113.525 137.877C113.437 137.769 113.371 137.619 113.257 137.559C112.879 137.361 112.487 137.191 112.104 137.021C111.335 136.684 110.543 136.579 109.796 137.021C109.463 137.216 109.214 137.557 108.928 137.831C109.293 137.87 109.655 137.93 110.022 137.946C110.428 137.967 110.857 137.951 111.284 137.951L111.293 137.946ZM100.878 121.952C100.855 121.908 100.832 121.828 100.809 121.825C100.298 121.816 99.788 121.816 99.2788 121.825C99.2788 121.825 99.2419 121.959 99.258 121.968C99.5543 122.167 99.8776 122.322 100.218 122.429C100.405 122.465 100.647 122.226 100.857 122.099C100.876 122.086 100.857 122.007 100.869 121.957L100.878 121.952Z" fill="#122224"/>
<path d="M181 37.9541C180.885 39.9959 180.622 41.7339 179.93 43.3775C178.726 46.2274 176.6 48.2117 173.742 49.4363C172.498 49.9681 171.186 50.3433 169.905 50.7922C167.256 51.7245 165.294 53.566 163.452 55.5457C163.349 55.6902 163.28 55.856 163.253 56.0305C163.225 56.2049 163.239 56.3832 163.292 56.5517C163.565 57.2193 163.426 57.7879 163.173 58.3933C162.084 61.006 160.357 63.186 158.386 65.1956C157.656 65.9392 156.785 66.2085 155.711 65.8287C155.198 65.6714 154.654 65.6468 154.129 65.7573C150.166 66.5423 146.411 63.727 145.496 60.5341C145.287 59.8044 145.026 59.1322 144.489 58.5636C143.952 57.995 143.867 57.217 144.186 56.4711C144.406 55.9255 144.671 55.3989 144.979 54.8966C145.918 53.4578 146.871 52.0283 147.87 50.631C148.471 49.7931 149.166 49.0588 150.402 49.1578C150.672 49.1785 151.106 48.8401 151.25 48.5616C152.219 46.6141 152.892 44.6045 152.207 42.3969C151.827 41.1745 151.393 39.9591 151.128 38.7137C150.36 35.0835 151.008 31.7065 153.291 28.707C154.813 26.738 156.864 25.2236 159.214 24.3333C162.807 22.9153 166.512 22.5378 170.243 23.6427C176.044 25.36 179.463 29.2503 180.613 35.0582C180.817 36.0941 180.897 37.1622 181 37.9541ZM165.296 25.6961C162.95 25.5487 160.643 26.2716 158.458 27.4548C154.469 29.614 152.58 33.8473 153.5 37.8367C153.714 38.8819 153.986 39.9148 154.317 40.9305C155.255 43.5709 154.856 46.0731 153.646 48.527C153.401 48.9415 153.18 49.3697 152.986 49.8092C152.967 49.9261 152.978 50.0458 153.016 50.158C153.054 50.2702 153.12 50.3716 153.207 50.4538C153.709 50.8336 154.075 50.7185 154.357 50.1384C154.659 49.5146 154.936 48.8746 155.222 48.2416C156.63 45.1155 157.872 41.9388 158.491 38.5503C158.71 37.557 158.657 36.5247 158.339 35.5577C158.171 35.0019 158.115 34.4194 158.174 33.8427C158.215 33.6971 158.292 33.5637 158.399 33.4547C158.505 33.3457 158.638 33.2647 158.785 33.2189C158.938 33.2101 159.091 33.2382 159.23 33.3008C159.37 33.3634 159.491 33.4586 159.585 33.578C159.81 34.0557 159.982 34.5558 160.099 35.0697C160.317 35.8293 160.885 36.1171 161.554 35.6843C161.945 35.4334 162.218 34.9937 162.532 34.6461C162.884 34.2456 163.166 33.7576 163.59 33.4583C163.825 33.2995 164.337 33.3478 164.609 33.4997C164.797 33.6056 164.919 34.0868 164.844 34.3331C164.705 34.7773 164.362 35.1572 164.172 35.5922C163.939 36.0597 163.781 36.5598 163.703 37.0747C163.633 37.8689 163.952 38.2671 164.567 38.4168C165.393 38.6193 165.932 38.4006 166.252 37.6272C166.545 36.9205 166.902 36.2782 167.542 35.8247C168.183 35.3712 168.734 35.3367 169.201 35.6636C169.722 36.0296 169.858 36.6488 169.45 37.3832C169.143 37.938 168.668 38.4029 168.335 38.9462C168.284 39.0554 168.26 39.1752 168.266 39.2955C168.271 39.4157 168.306 39.5328 168.368 39.6368C168.463 39.7195 168.575 39.7797 168.697 39.8128C168.82 39.846 168.948 39.8511 169.072 39.8279C169.368 39.7427 169.602 39.4618 169.893 39.3283C170.315 39.0945 170.771 38.9267 171.245 38.8311C171.408 38.8008 171.575 38.8182 171.728 38.8813C171.88 38.9444 172.01 39.0503 172.101 39.1857C172.192 39.3211 172.24 39.4799 172.24 39.6421C172.239 39.8043 172.189 39.9626 172.097 40.0972C171.819 40.5485 171.411 40.9084 170.924 41.1308C169.687 41.5912 168.861 42.4866 168.063 43.4328C166.784 44.9521 165.498 46.4691 164.259 48.0206C162.919 49.701 161.624 51.4137 160.329 53.1241C160.146 53.3543 159.897 53.8147 159.991 53.9436C160.288 54.3039 160.669 54.5882 161.103 54.7723C161.242 54.8298 161.638 54.4937 161.807 54.2612C163.859 51.3358 166.866 49.1835 170.332 48.1587C170.909 48.0005 171.475 47.8091 172.029 47.5855C174.591 46.4645 176.694 44.9083 177.609 42.1252C178.318 39.9863 178.429 37.7001 177.931 35.5048C177.152 31.9574 175.349 29.0938 172.064 27.2407C170.006 26.0874 167.812 25.6132 165.296 25.6961ZM150.56 50.9441C150.377 51.0358 150.209 51.1554 150.065 51.2986C148.743 53.0604 147.432 54.8252 146.134 56.5931C145.996 56.7617 145.93 56.9769 145.952 57.1922C145.974 57.4076 146.082 57.6058 146.251 57.7441C146.486 57.9743 146.704 58.2045 146.955 58.4071C149.849 60.6883 153.073 62.4724 156.243 64.3393C156.713 64.6086 157.069 64.5326 157.37 64.1091C158.656 62.3251 159.967 60.5571 161.209 58.7432C161.786 57.8961 161.666 57.6474 160.739 57.0973C159.489 56.3468 158.221 55.6148 156.985 54.8505C155.234 53.7709 153.502 52.6637 151.756 51.5794C151.393 51.3631 150.999 51.1743 150.56 50.9326V50.9441ZM167.397 41.3886C167.317 41.2175 167.225 41.0521 167.122 40.8937C166.653 40.2906 166.026 40.0972 165.268 40.1087C163.673 40.1317 162.61 39.3951 162.058 37.9057C161.784 37.1645 161.589 37.1253 160.866 37.2589C160.143 37.3924 159.927 37.9333 159.841 38.5249C159.249 42.2956 157.912 45.813 156.117 49.1808C155.748 49.8714 155.485 50.6149 155.178 51.3331C155.903 51.782 156.605 52.2769 157.36 52.6706C158.416 53.2184 158.487 53.1793 159.191 52.1872C160.15 50.8359 161.042 49.4363 162.058 48.1288C163.63 46.0984 165.285 44.1303 166.897 42.1437C167.089 41.8812 167.242 41.6096 167.397 41.3771V41.3886Z" fill="#122224"/>
<path d="M162.998 10.2514C163.011 10.6273 162.973 11.0032 162.885 11.3645C162.815 11.5243 162.716 11.6638 162.596 11.773C162.476 11.8823 162.338 11.9586 162.191 11.9967C162.008 12.0352 161.691 11.7275 161.57 11.4799C161.414 11.1394 161.327 10.7598 161.315 10.3716C161.196 7.48688 161.094 4.60693 161.008 1.73178C160.981 1.34543 161.021 0.956512 161.127 0.5899C161.185 0.450896 161.266 0.327353 161.365 0.22659C161.464 0.125827 161.579 0.0498985 161.703 0.00333131C161.825 -0.0351321 162.082 0.267768 162.193 0.484125C162.302 0.728872 162.364 1.00008 162.373 1.27744C162.58 4.14538 162.775 7.01811 162.998 10.2514Z" fill="#122224"/>
<path d="M133.094 39.8074C131.976 39.8697 130.861 39.9398 129.743 39.9969C129.394 40.0151 129.015 39.9658 129 39.5063C129.021 39.368 129.07 39.2363 129.144 39.1209C129.219 39.0055 129.316 38.9093 129.43 38.8393C129.772 38.6329 130.15 38.5039 130.54 38.4603C132.431 38.2786 134.323 38.1255 136.218 38.0009C136.609 37.9912 136.998 38.059 137.365 38.2008C137.749 38.3383 138.116 38.6498 137.965 39.1248C137.898 39.2768 137.802 39.4125 137.684 39.5236C137.566 39.6347 137.427 39.7189 137.278 39.7711C136.897 39.8653 136.506 39.8969 136.116 39.8645C135.111 39.8645 134.102 39.8645 133.096 39.8645L133.094 39.8074Z" fill="#122224"/>
<path d="M193.811 39C193.335 38.9437 192.866 38.8492 192.407 38.7177C192.293 38.6554 192.197 38.5682 192.126 38.4633C192.055 38.3584 192.012 38.2389 192 38.1148C192.016 37.9912 192.063 37.8728 192.136 37.7692C192.209 37.6657 192.307 37.5799 192.421 37.5187C192.779 37.3909 193.158 37.3229 193.54 37.3177C195.515 37.2071 197.493 37.1123 199.47 37.0129C199.635 37.0013 199.8 36.9975 199.965 37.0016C200.391 37.0242 200.955 36.9361 200.998 37.5074C201.034 38.0313 200.489 38.1307 200.075 38.2436C199.703 38.3437 199.324 38.4147 198.94 38.4558C197.248 38.6477 195.553 38.8216 193.811 39Z" fill="#122224"/>
<path d="M186 64.6676C185.733 64.8122 185.536 65.0025 185.35 65C185.163 64.9974 184.996 64.8046 184.853 64.6498C183.497 63.178 182.14 61.7062 180.805 60.2065C180.484 59.8378 180.219 59.409 180.02 58.9377C179.993 58.8049 179.993 58.6663 180.022 58.5338C180.05 58.4013 180.105 58.2787 180.182 58.1764C180.279 58.0973 180.39 58.043 180.506 58.0172C180.622 57.9914 180.742 57.9946 180.857 58.0267C181.095 58.1141 181.308 58.2775 181.472 58.4987C182.842 60.2074 184.201 61.9244 185.549 63.65C185.738 63.8961 185.816 64.2489 186 64.6676Z" fill="#122224"/>
<path d="M144 20.6834C143.684 20.8265 143.432 21.0332 143.262 20.9955C142.892 20.9186 142.552 20.7631 142.277 20.5442C140.92 19.3364 139.404 18.2589 137.757 17.3319C137.483 17.1757 137.253 16.9723 137.083 16.7355C137.032 16.66 137.004 16.5755 137 16.489C136.997 16.4025 137.019 16.3166 137.064 16.2385C137.249 16.0868 137.499 16.0012 137.759 16C138.031 16.038 138.287 16.1346 138.5 16.2803C140.238 17.2632 141.835 18.4069 143.262 19.6895C143.54 20.0036 143.787 20.336 144 20.6834Z" fill="#122224"/>
<path d="M165 75.5939C164.953 76.2454 164.948 76.8968 164.837 77.5483C164.795 77.6589 164.721 77.7584 164.624 77.8373C164.526 77.9163 164.407 77.9723 164.278 78C164.148 77.9848 164.024 77.9408 163.918 77.8721C163.812 77.8033 163.727 77.7121 163.673 77.6069C163.487 76.9746 163.353 76.3317 163.27 75.683C163.158 74.836 163.097 73.9805 163.022 73.1292C162.978 72.9326 163 72.729 163.084 72.5429C163.262 72.3149 163.539 72.0174 163.796 72C163.955 72.0169 164.106 72.0687 164.236 72.1507C164.365 72.2327 164.469 72.3423 164.538 72.4691C164.726 73.1 164.855 73.7435 164.923 74.393C164.951 74.7944 164.951 75.1969 164.923 75.5983L165 75.5939Z" fill="#122224"/>
<path d="M191 16.4547C190.866 16.726 190.709 16.988 190.531 17.2386C189.902 18.005 189.249 18.7671 188.593 19.5074C188.457 19.6644 188.291 19.799 188.102 19.9048C187.993 19.9641 187.869 19.9969 187.742 19.9998C187.615 20.0027 187.489 19.9756 187.377 19.9213C187.265 19.867 187.172 19.7873 187.106 19.6905C187.04 19.5936 187.004 19.483 187.002 19.3698C186.988 19.1207 187.064 18.8741 187.22 18.6667C188.117 17.778 189.04 16.9089 189.998 16.0725C190.133 15.9524 190.511 16.007 190.757 16.0551C190.855 16.0747 190.907 16.2909 191 16.4547Z" fill="#122224"/>
<path d="M139 63.3523C138.911 63.67 138.906 63.9262 138.782 64.0913C137.911 65.2934 137.019 66.4807 136.128 67.6705C136.069 67.7662 135.983 67.8424 135.88 67.8897C135.672 67.9488 135.402 68.0523 135.25 67.9685C135.099 67.8848 135.052 67.604 135.002 67.3971C134.991 67.2822 135.023 67.1672 135.092 67.0744C135.96 65.8057 136.828 64.5347 137.718 63.2833C137.79 63.1962 137.881 63.1258 137.983 63.0769C138.085 63.028 138.197 63.0017 138.311 63C138.526 63.0271 138.754 63.2217 139 63.3523Z" fill="#122224"/>
<path d="M101 54.1494C100.856 59.4734 100.288 64.3381 98.5964 69.0067C97.7754 71.2706 96.7583 73.4307 95.0069 75.1661C93.6079 76.5814 91.7378 77.4182 89.7618 77.5131C88.601 77.5869 87.4334 77.5131 86.2749 77.5754C85.3256 77.6126 84.3808 77.7268 83.4495 77.9169C81.169 78.4246 79.0618 80.7647 79.6821 83.7001C80.1268 85.8094 80.5943 87.8887 81.9079 89.6356C82.5464 90.4803 83.3058 91.2303 84.0105 92.0242C84.3981 92.4603 84.8588 92.8503 85.1507 93.3396C86.4346 95.4327 87.5908 97.5974 88.3092 99.9628C88.5137 100.679 88.6165 101.421 88.6147 102.167C88.6398 104.77 86.8702 106.274 84.2818 105.958C82.4392 105.728 80.8611 104.941 79.3697 103.87C77.6343 102.612 76.2249 101.008 74.9889 99.2797C73.2762 96.8866 71.5043 94.5788 69.0049 92.9519C68.4895 92.6149 68.4667 92.3796 68.9228 91.9249C69.9887 90.8813 70.8492 89.6424 71.4587 88.2741C72.2989 86.3625 72.614 84.2569 72.3709 82.1793C72.1155 79.7193 71.7552 77.303 70.8225 75.0115C69.8373 72.5906 68.827 70.179 67.7735 67.7905C67.4251 67.0756 67.2843 66.2754 67.3675 65.4828C67.8236 61.6011 67.7712 57.7011 67.7438 53.801C67.7119 49.4601 67.1372 45.1815 66.2684 40.9376C65.9377 39.3221 65.5523 39.2483 67.5317 38.5375C70.2204 37.5683 72.8658 36.5182 75.2603 34.8774C78.9581 32.3736 82.129 29.153 84.5897 25.4018C84.8725 24.9703 85.2305 24.5895 85.5543 24.1856C86.0241 24.7095 85.6957 25.2841 85.6182 25.8218C85.5201 26.5142 85.2693 27.1673 85.1826 27.8527C85.1788 28.0032 85.2081 28.1528 85.2684 28.2905C85.3288 28.4282 85.4187 28.5506 85.5316 28.6488C85.8987 28.9257 86.2841 28.6765 86.4574 28.3373C86.8499 27.6451 87.1643 26.9105 87.3947 26.1472C87.7003 24.961 87.8508 23.7356 88.0788 22.531C88.1769 22.0025 88.4643 21.8387 88.8337 22.1756C90.4893 23.6502 92.4391 24.5872 94.4642 25.3903C95.0138 25.6072 95.2646 26.0411 95.4584 26.5603C97.577 32.2235 99.2349 38.0067 100.019 44.0253C100.22 45.56 100.476 47.0877 100.626 48.627C100.818 50.5793 100.9 52.5617 101 54.1494ZM87.5179 66.0205C85.4814 66.0043 84.421 65.6212 83.1712 64.4281C82.763 64.0404 82.5122 63.6989 82.7493 63.0435C82.9865 62.3881 82.478 61.9288 81.9056 62.1942C81.2457 62.5032 80.6462 62.93 80.1359 63.4543C79.6798 63.9158 79.9079 64.4651 80.592 64.562C81.0066 64.6181 81.3835 64.8349 81.6433 65.1666C82.031 65.6051 82.4689 65.9951 82.8474 66.4405C84.332 68.1851 87.6182 68.4667 89.9169 67.1743C90.0537 67.0982 90.2316 67.0174 90.2909 66.8905C90.4415 66.6369 90.5204 66.3463 90.5189 66.0505C90.4984 65.912 90.097 65.732 89.8781 65.7458C89.0845 65.8105 88.2978 65.9235 87.5179 66.0205ZM91.4904 58.0518C92.3775 57.7772 93.4653 57.5349 94.455 57.0895C94.9294 56.8772 95.333 56.3326 95.5953 55.8456C96.0514 54.9825 95.6341 53.9879 94.7447 53.6094C94.5013 53.5078 94.2416 53.4523 93.9784 53.4456C93.2372 53.4317 92.8382 53.014 92.5873 52.3609C92.4558 51.9595 92.2838 51.5729 92.0742 51.207C92.0059 51.1027 91.9149 51.0156 91.8082 50.9524C91.7014 50.8892 91.5819 50.8516 91.4585 50.8424C91.3394 50.8751 91.2299 50.9367 91.1397 51.022C91.0494 51.1073 90.9812 51.2136 90.9408 51.3317C90.6923 52.3794 91.1119 53.3163 91.5497 54.2279C91.8827 54.9202 92.4779 55.2041 93.2282 55.2041C93.329 55.2221 93.4261 55.2572 93.5155 55.3079C93.4425 55.4371 93.3992 55.6379 93.2874 55.6818C92.4186 56.0372 91.5292 56.3418 90.6671 56.7133C90.4209 56.8195 90.2453 57.0964 90.0377 57.2926C90.2255 57.5227 90.4364 57.7322 90.6671 57.918C90.8405 58.0149 91.0845 57.9895 91.4904 58.0518ZM85.9329 45.89C85.7732 45.2923 85.7048 44.7546 85.4768 44.2746C85.3384 43.9231 85.0887 43.628 84.7668 43.4355C84.4449 43.243 84.0691 43.1639 83.6981 43.2107C82.9181 43.2915 82.4871 43.7784 82.2385 44.4892C81.8463 45.6038 82.3822 47.6854 83.2784 48.4793C83.9763 49.0978 84.8497 48.987 85.2442 48.1193C85.5817 47.4108 85.7231 46.6146 85.9329 45.89ZM96.4049 44.383C96.2217 43.7501 96.0009 43.1289 95.7435 42.523C95.4128 41.8307 94.7834 41.5561 94.0331 41.6438C93.6869 41.6736 93.3609 41.8212 93.1083 42.0626C92.8557 42.304 92.6913 42.6249 92.6421 42.973C92.5119 43.572 92.5235 44.1937 92.6761 44.7873C92.8287 45.3809 93.1179 45.9296 93.52 46.3885C94.2954 47.2793 95.4698 47.0808 95.9738 46.0215C96.1927 45.5554 96.2452 45.0108 96.4049 44.383ZM82.0675 35.6644C82.1973 35.6979 82.3291 35.7233 82.462 35.7405C83.1849 35.7821 83.568 35.5767 83.7322 35.069C83.8964 34.5613 83.6798 34.0928 83.1302 33.7166C82.3617 33.1905 81.5338 33.0959 80.7471 33.6036C79.6068 34.3305 78.6947 35.2651 78.1907 36.5667C78.1164 36.7662 78.0555 36.9705 78.0082 37.1783C77.9056 37.6052 77.8167 38.0644 78.2911 38.3091C78.7654 38.5537 79.0482 38.1752 79.3059 37.8175C79.6776 37.3029 80.0493 36.7859 80.4643 36.3082C80.8793 35.8305 81.4563 35.4936 82.0675 35.6644ZM91.8735 29.9619C91.3422 30.0427 90.8473 30.0381 90.4186 30.2089C90.0359 30.3659 89.7036 30.6271 89.4585 30.9635C89.3172 31.1615 89.2512 31.4045 89.2726 31.6478C89.2939 31.8911 89.4013 32.1184 89.5748 32.2881C89.9283 32.6758 90.3297 32.5628 90.7151 32.3274C90.8496 32.2466 90.9841 32.1589 91.121 32.0827C91.4355 31.8843 91.7968 31.7747 92.1674 31.7653C92.5379 31.756 92.9043 31.8473 93.2282 32.0297C93.4036 32.1476 93.5981 32.2335 93.8028 32.2835C93.9898 32.3089 94.2863 32.2835 94.3706 32.1658C94.5099 31.9576 94.5647 31.703 94.5235 31.455C94.4527 31.1679 94.307 30.9052 94.1016 30.6945C93.8962 30.4838 93.6386 30.3328 93.3558 30.2573C92.8678 30.1333 92.3738 30.0347 91.8758 29.9619H91.8735Z" fill="white"/>
<path d="M138.757 143.967H122.99C122.56 143.967 122.13 143.983 121.702 143.956C120.955 143.907 120.987 143.81 121.008 143.065C121.103 140.279 122.317 137.793 123.09 135.202C124.339 130.994 125.734 126.829 127.023 122.634C128.642 117.416 130.192 112.183 131.807 106.966C132.198 105.686 132.669 104.433 133.218 103.213C133.639 102.28 134.248 101.444 135.006 100.757C135.765 100.07 136.658 99.5471 137.628 99.2211C138.134 99.0463 138.669 98.974 139.203 99.0083C147.183 99.5009 155.166 99.2257 163.16 99.3806C164.39 99.4037 165.619 99.5517 166.843 99.6882C169.064 99.9333 170.373 100.844 169.906 103.92C169.522 106.452 168.749 108.927 168.15 111.425C165.994 120.326 163.451 129.123 160.723 137.862C160.261 139.326 159.465 140.688 158.741 142.055C157.994 143.465 156.793 144.018 155.157 144C149.697 143.928 144.226 143.967 138.757 143.967ZM142.428 123.663C142.41 123.952 142.384 124.218 142.377 124.484C142.301 127.411 144.999 129.359 147.729 128.306C148.368 128.039 148.961 127.671 149.485 127.217C151.567 125.487 152.568 123.191 152.955 120.559C153.15 119.172 152.847 117.761 152.099 116.577C151.82 116.084 151.415 115.674 150.925 115.389C150.435 115.105 149.878 114.956 149.311 114.958C147.245 114.886 145.72 115.883 144.527 117.43C143.122 119.271 142.324 121.334 142.428 123.663Z" fill="white"/>
<path d="M61 135.912C61.0161 133.987 61.8408 132.415 62.9342 130.938C63.4143 130.29 64.1219 130.114 64.8547 129.92C67.4252 129.236 70.0004 128.584 72.5456 127.82C75.3597 126.976 77.9624 125.637 80.526 124.223C81.6425 123.607 82.775 123.017 83.9213 122.46C87.916 120.515 91.8993 120.48 95.8666 122.556C97.4195 123.365 99.0022 124.12 100.564 124.914C100.739 125.003 101.024 125.231 100.998 125.293C100.913 125.505 100.741 125.799 100.553 125.842C99.0367 126.194 97.5182 126.479 96.1652 125.338C94.9717 124.362 93.6335 123.574 92.1979 123.003C91.7573 122.831 91.2922 122.729 90.8196 122.7C90.7412 122.703 90.6652 122.727 90.5997 122.77C90.5342 122.813 90.4817 122.873 90.4479 122.943C90.4141 123.014 90.4003 123.092 90.4079 123.17C90.4155 123.247 90.4443 123.321 90.4911 123.384C90.819 123.724 91.1756 124.036 91.5571 124.317C93.1904 125.58 94.842 126.825 96.4661 128.098C96.6958 128.269 96.7808 128.595 96.9255 128.848C96.6591 129.001 96.4087 129.245 96.1284 129.289C95.6116 129.378 95.0841 129.388 94.564 129.32C93.2271 129.113 92.0532 128.479 90.8886 127.838C89.524 127.09 89.0279 127.154 87.9183 128.212C87.6021 128.495 87.3008 128.794 87.0155 129.108C85.8394 130.445 84.3301 130.958 82.5889 130.876C81.8469 130.839 81.1095 130.73 80.3698 130.648C79.5221 130.559 79.3223 130.627 79.1684 131.469C79.1226 131.7 79.0292 131.919 78.894 132.112C78.7588 132.305 78.5847 132.468 78.3827 132.591C76.839 133.713 75.3229 134.885 73.7103 135.903C71.1522 137.527 68.4035 138.835 65.5255 139.796C63.775 140.375 62.1348 139.7 61.4296 138.044C61.1608 137.399 61.1401 136.63 61 135.912Z" fill="white"/>
<path fill-rule="evenodd" clip-rule="evenodd" d="M113.996 127.66C113.997 127.66 113.999 127.66 114 127.66V127.671C113.999 127.668 113.997 127.664 113.996 127.66ZM113.996 127.66C113.961 127.562 113.928 127.464 113.895 127.367C113.808 127.112 113.723 126.862 113.617 126.617C113.235 125.738 112.849 124.862 112.464 123.985C111.857 122.604 111.25 121.224 110.656 119.839C108.622 115.097 106.311 110.51 103.322 106.277C100.375 102.097 96.6133 98.9162 91.913 96.8621C91.7574 96.794 91.6053 96.706 91.4519 96.6173C91.0168 96.3658 90.5713 96.1082 90.0064 96.2792C90.0728 96.4724 90.1349 96.6675 90.197 96.8627C90.3282 97.2749 90.4593 97.6871 90.6311 98.0812C91.316 99.6642 91.5868 101.394 91.4183 103.11C91.1954 105.666 89.2029 107.91 86.674 108.326C85.1839 108.599 83.6504 108.52 82.1966 108.095C79.1011 107.144 76.6976 105.192 74.6888 102.749C73.6328 101.458 72.6258 100.123 71.6184 98.7871C71.1726 98.196 70.7268 97.6047 70.2765 97.0171C69.4103 95.8859 68.2561 95.1018 67.0648 94.3662C66.7281 94.1395 66.3336 94.0128 65.9274 94.0009C65.5211 93.989 65.1199 94.0925 64.7704 94.2991C64.3376 94.5292 63.893 94.7386 63.4488 94.9478C62.7228 95.2897 61.9978 95.6312 61.3265 96.0617C60.2931 96.7141 59.2202 97.4381 58.4655 98.3749C56.7738 100.456 55.1999 102.629 53.7513 104.884C50.3325 110.259 47.5733 115.995 44.8188 121.721C44.7611 121.841 44.7034 121.961 44.6457 122.08C42.9634 125.501 41.6187 129.076 40.6305 132.756C40.2102 134.373 39.9059 135.994 40.0267 137.676C40.1289 139.066 40.7025 140.174 42.0448 140.716C42.0868 140.733 42.1288 140.75 42.1709 140.767C43.1205 141.151 44.0955 141.546 45.0939 141.706C48.042 142.178 50.9973 141.985 53.9496 141.792C54.7531 141.739 55.5563 141.687 56.3592 141.648C57.3766 141.563 58.386 141.4 59.3781 141.16C60.2095 140.988 60.2768 140.843 59.8124 140.086C58.217 137.514 58.412 134.891 59.5383 132.235C59.6484 131.974 59.8024 131.717 59.9512 131.469C60.0537 131.298 60.1536 131.131 60.235 130.97C60.4347 130.574 60.2745 130.334 59.8379 130.364C59.4006 130.393 58.9636 130.426 58.5266 130.46C57.7315 130.521 56.9367 130.582 56.1409 130.614C55.6586 130.622 55.1783 130.55 54.7197 130.401C54.5776 130.358 54.4685 130.206 54.3591 130.053C54.3093 129.984 54.2595 129.914 54.2064 129.855C54.2741 129.796 54.3409 129.724 54.4078 129.652C54.5566 129.493 54.7057 129.333 54.866 129.305C55.764 129.139 56.6728 129.038 57.5853 129.002C58.765 128.96 59.4037 128.395 59.8681 127.341C60.6799 125.458 61.5903 123.617 62.5024 121.773L62.5526 121.671C62.7805 121.188 63.0752 120.738 63.4281 120.336C63.5452 120.245 63.681 120.181 63.8259 120.147C63.9707 120.114 64.1211 120.113 64.2665 120.144C64.4081 120.177 64.5684 120.591 64.5428 120.811C64.472 121.231 64.3527 121.643 64.1875 122.037C63.912 122.78 63.6323 123.521 63.3527 124.262C62.9701 125.276 62.5876 126.29 62.2159 127.308C61.9953 127.91 62.1927 128.162 62.7918 128.035C63.9506 127.789 65.1025 127.512 66.2497 127.218C70.3772 126.178 74.3627 124.642 78.1187 122.645C78.5545 122.413 78.9893 122.178 79.4242 121.944C80.7413 121.233 82.0593 120.522 83.4089 119.881C86.8574 118.243 90.436 118.028 94.0913 119.152C94.2326 119.194 94.3726 119.242 94.5126 119.29C94.7292 119.364 94.946 119.438 95.1688 119.49C96.0141 119.686 96.3299 119.434 96.2463 118.645C96.1605 117.814 96.1064 116.978 96.0522 116.143C96.0302 115.803 96.0081 115.462 95.9839 115.122C95.9755 115.004 95.962 114.885 95.9483 114.765C95.913 114.454 95.8775 114.142 95.9328 113.848C95.9932 113.529 96.2138 113.094 96.4739 112.994C96.9035 112.828 97.1334 113.246 97.231 113.626C97.366 114.143 97.4746 114.668 97.5561 115.196C97.6209 115.638 97.6756 116.08 97.7303 116.523C97.807 117.143 97.8837 117.764 97.988 118.379C98.1506 119.323 98.4432 119.554 99.393 119.587C99.6841 119.596 99.9766 119.585 100.269 119.574C100.623 119.561 100.978 119.548 101.33 119.571C102.816 119.666 103.568 120.653 103.188 122.092C103.025 122.705 103.009 123.156 103.362 123.734C103.961 124.72 103.77 125.502 102.958 126.339C102.331 126.982 101.55 127.299 100.705 127.53C99.4023 127.88 99.2722 128.048 99.3256 129.365C99.3301 129.847 99.3988 130.327 99.53 130.792C99.6483 131.191 99.8712 131.552 100.176 131.837C100.621 132.212 101.106 132.544 101.59 132.875C101.816 133.031 102.043 133.186 102.266 133.346C102.52 133.552 102.838 133.665 103.166 133.665C103.493 133.665 103.811 133.552 104.065 133.346C104.46 133.066 104.831 132.757 105.178 132.42C106.063 131.558 106.929 130.676 107.793 129.793C108.715 128.803 109.939 128.143 111.276 127.914C111.897 127.817 112.527 127.771 113.156 127.726C113.436 127.705 113.717 127.685 113.996 127.66ZM61.3282 143.973H65.6972L65.7066 144C68.9917 143.904 72.2761 143.813 75.5596 143.727C76.0625 143.716 76.5664 143.72 77.07 143.723C77.3216 143.725 77.5732 143.727 77.8245 143.727C78.9481 143.722 79.4984 143.72 79.7679 143.444C80.0265 143.178 80.0265 142.661 80.0265 141.647V140.857C80.08 139.673 80.3826 139.295 81.5744 138.969C81.9879 138.846 82.4116 138.759 82.8406 138.709C83.1477 138.68 83.4549 138.649 83.7622 138.619C85.0619 138.489 86.3632 138.36 87.6659 138.299C89.7569 138.205 91.8489 138.142 93.9406 138.079C94.9178 138.049 95.895 138.02 96.8719 137.987C97.0349 137.983 97.1955 137.974 97.3561 137.958C97.4512 137.961 97.5459 137.943 97.6328 137.905C97.7197 137.867 97.7964 137.81 97.8572 137.738C97.9179 137.666 97.9609 137.582 97.983 137.491C98.0051 137.4 98.0057 137.306 97.9846 137.215C97.9402 136.731 97.8974 136.247 97.8547 135.763C97.754 134.621 97.6532 133.48 97.5307 132.341C97.4492 131.592 97.2537 131.419 96.4599 131.542C95.3519 131.713 94.3068 131.499 93.2827 131.18C92.514 130.935 91.7706 130.62 91.062 130.239C90.3195 129.85 89.7329 129.925 89.1999 130.547C89.1093 130.651 89.0098 130.743 88.9118 130.833C88.8513 130.889 88.7913 130.945 88.7343 131.002C87.0258 132.747 84.9868 133.637 82.4822 133.266C82.2453 133.222 82.001 133.238 81.7722 133.312C81.5433 133.387 81.3375 133.516 81.174 133.69C80.6159 134.263 80.0211 134.8 79.3933 135.3C75.3804 138.288 71.0928 140.8 66.2489 142.296C64.9808 142.689 63.6959 143.038 62.4127 143.386C62.0354 143.489 61.6582 143.591 61.2816 143.695C61.1844 143.73 61.0902 143.772 61 143.822C61.0347 143.839 61.0695 143.86 61.1042 143.881C61.1789 143.927 61.2535 143.973 61.3282 143.973Z" fill="#CBB5F5"/>
<path d="M100.107 143.987H84.6202C84.2479 143.987 83.8756 143.987 83.5032 143.987C82.3908 143.948 82.1057 143.762 82.0253 143.052C81.8851 141.804 82.331 140.958 83.2848 140.738C83.8029 140.599 84.3291 140.503 84.8593 140.45C87.1945 140.298 89.5296 140.084 91.8671 140.065C100.541 140.005 109.216 140.016 117.892 140C118.156 140 118.423 140 118.69 140C119.255 140.024 119.742 140.188 119.919 140.908C120.026 141.254 120.027 141.631 119.921 141.977C119.815 142.323 119.608 142.617 119.336 142.811C118.402 143.526 117.437 144.042 116.233 143.997C113.84 143.911 111.443 143.974 109.048 143.974H100.107V143.987ZM114.127 141.052V140.992C113.438 140.992 112.748 140.963 112.059 140.992C111.69 141.006 111.326 141.09 110.981 141.238C110.88 141.28 110.792 141.355 110.729 141.454C110.666 141.553 110.63 141.671 110.626 141.793C110.623 141.915 110.651 142.036 110.708 142.139C110.765 142.243 110.848 142.325 110.946 142.374C111.381 142.595 111.85 142.717 112.325 142.733C113.44 142.733 114.555 142.639 115.667 142.552C116.039 142.544 116.405 142.455 116.748 142.291C116.977 142.157 117.118 141.796 117.299 141.534C117.095 141.369 116.897 141.073 116.685 141.06C115.83 141.01 114.978 141.044 114.127 141.044V141.052Z" fill="white"/>
<path d="M112.647 130C114.859 130.265 116.731 131.085 118.431 132.273C118.661 132.408 118.837 132.612 118.929 132.852C119.021 133.091 119.024 133.353 118.938 133.595C118.822 133.863 118.678 134.12 118.508 134.361C118.276 134.246 118.045 134.144 117.837 134.012C117.453 133.75 117.055 133.507 116.645 133.285C116.545 133.27 116.442 133.279 116.346 133.31C116.25 133.341 116.164 133.393 116.094 133.463C116.037 133.54 116 133.63 115.988 133.724C115.975 133.817 115.987 133.913 116.023 134.001C116.301 134.366 116.61 134.708 116.948 135.026C117.242 135.317 117.61 135.549 117.874 135.868C118.009 136.027 118.074 136.229 118.053 136.431C118.033 136.634 117.93 136.821 117.765 136.954C117.619 137.066 117.175 136.954 116.932 136.83C116.134 136.419 115.377 135.94 114.586 135.527C113.936 135.18 113.265 134.861 112.589 134.559C111.057 133.875 109.609 133.984 108.174 134.878C107.407 135.333 106.588 135.708 105.734 135.996C105.308 136.148 104.794 136.105 104.32 136.105C104.246 136.088 104.178 136.054 104.122 136.006C104.066 135.957 104.024 135.897 104.001 135.829C103.997 135.758 104.012 135.687 104.044 135.623C104.076 135.558 104.125 135.502 104.186 135.46C106.421 134.529 107.839 132.705 109.526 131.179C110.362 130.419 111.482 129.996 112.647 130Z" fill="white"/>
<path d="M132.995 100.002C130.693 104.32 129.654 109.047 128.244 113.653C126.118 120.601 123.993 127.549 121.871 134.496C121.539 135.582 121.178 136.663 120.805 137.737C120.764 137.856 120.516 138.027 120.446 137.996C120.267 137.919 120.015 137.749 120.005 137.606C119.984 137.232 120.028 136.857 120.136 136.497C121.134 133.228 122.13 129.958 123.167 126.707C124.86 121.384 126.573 116.067 128.307 110.757C129.196 108.024 130.141 105.308 131.076 102.583C131.437 101.537 131.997 100.612 133 100L132.995 100.002Z" fill="white"/>
<path d="M101.254 138C100.174 138 100.027 137.855 100 136.57C100.008 136.05 100.039 135.531 100.091 135.015C100.672 134.893 100.918 135.537 101.272 135.862C101.555 136.122 101.721 136.611 101.853 137.036C102.129 137.915 102.062 137.995 101.254 138Z" fill="white"/>
<path d="M111.583 137.994C111.118 137.994 110.652 138.007 110.19 137.994C109.791 137.981 109.397 137.932 109 137.9C109.311 137.676 109.582 137.398 109.944 137.238C110.76 136.879 111.62 136.965 112.454 137.238C112.878 137.377 113.305 137.516 113.709 137.678C113.832 137.727 113.905 137.849 114 137.938C113.891 137.965 113.778 137.983 113.664 137.994C112.976 137.998 112.291 137.994 111.583 137.994Z" fill="white"/>
<path d="M165.207 26.0217C167.696 25.9506 169.877 26.4232 171.891 27.5679C175.142 29.4032 176.926 32.2685 177.697 35.8036C178.19 37.9914 178.08 40.2698 177.379 42.4014C176.473 45.1749 174.392 46.7257 171.856 47.8429C171.308 48.0658 170.747 48.2565 170.177 48.4141C166.748 49.4324 163.772 51.5732 161.739 54.4843C161.577 54.7137 161.184 55.0509 161.042 54.9935C160.613 54.8101 160.236 54.5268 159.942 54.1677C159.849 54.0507 160.095 53.5919 160.276 53.351C161.558 51.6465 162.831 49.9397 164.166 48.265C165.392 46.7188 166.665 45.207 167.931 43.6929C168.72 42.7478 169.538 41.8577 170.762 41.3989C171.244 41.1773 171.648 40.8186 171.923 40.3688C172.014 40.2347 172.064 40.0769 172.064 39.9153C172.065 39.7536 172.017 39.5954 171.927 39.4605C171.837 39.3256 171.709 39.22 171.558 39.1571C171.407 39.0942 171.241 39.0768 171.08 39.1071C170.611 39.2023 170.159 39.3695 169.742 39.6026C169.454 39.7357 169.222 40.0155 168.929 40.1004C168.806 40.1236 168.679 40.1184 168.559 40.0854C168.438 40.0524 168.326 39.9924 168.233 39.91C168.172 39.8063 168.137 39.6896 168.131 39.5698C168.125 39.45 168.149 39.3306 168.2 39.2218C168.53 38.6804 168.999 38.217 169.303 37.6641C169.707 36.9323 169.573 36.3152 169.057 35.9505C168.593 35.6247 168.031 35.6752 167.415 36.111C166.8 36.5469 166.428 37.203 166.138 37.9073C165.822 38.6781 165.288 38.896 164.47 38.6942C163.862 38.545 163.541 38.1482 163.616 37.3567C163.692 36.8435 163.849 36.3452 164.08 35.8793C164.268 35.4457 164.607 35.0672 164.744 34.6245C164.819 34.379 164.698 33.8995 164.512 33.794C164.243 33.6426 163.727 33.5944 163.504 33.7527C163.084 34.051 162.807 34.5373 162.457 34.9365C162.146 35.292 161.876 35.721 161.488 35.9711C160.826 36.4024 160.264 36.1156 160.048 35.3586C159.933 34.8465 159.763 34.3481 159.54 33.872C159.447 33.753 159.327 33.6581 159.189 33.5957C159.051 33.5333 158.899 33.5053 158.748 33.5141C158.603 33.5597 158.471 33.6405 158.366 33.7491C158.26 33.8577 158.184 33.9907 158.144 34.1358C158.085 34.7106 158.141 35.291 158.307 35.8449C158.622 36.8086 158.674 37.8373 158.458 38.8272C157.844 42.2041 156.618 45.3699 155.222 48.4853C154.939 49.1161 154.665 49.7539 154.365 50.3756C154.087 50.9537 153.724 51.0638 153.227 50.6899C153.141 50.608 153.077 50.5069 153.039 50.3951C153.001 50.2832 152.99 50.164 153.009 50.0475C153.201 49.6095 153.419 49.1828 153.662 48.7697C154.86 46.3334 155.257 43.8398 154.326 41.1993C153.999 40.187 153.729 39.1577 153.518 38.116C152.607 34.1404 154.472 29.9216 158.425 27.7698C160.601 26.5837 162.882 25.8634 165.207 26.0217Z" fill="white"/>
<path d="M150.727 51C151.182 51.2205 151.581 51.4124 151.954 51.6307C153.744 52.6693 155.519 53.73 157.314 54.7642C158.586 55.4963 159.885 56.1976 161.162 56.9165C162.108 57.4435 162.23 57.6817 161.644 58.4932C160.371 60.2308 159.026 61.9244 157.708 63.6334C157.4 64.0325 157.025 64.1053 156.554 63.8539C153.304 62.0655 149.999 60.3565 147.033 58.1712C146.775 57.9816 146.551 57.75 146.311 57.5361C146.137 57.4036 146.027 57.2137 146.004 57.0074C145.982 56.8011 146.049 56.595 146.191 56.4335C147.522 54.7311 148.865 53.0405 150.22 51.3617C150.367 51.2167 150.538 51.0945 150.727 51Z" fill="#CBB5F5"/>
<path d="M168 41.2486C167.835 41.4813 167.673 41.7583 167.466 42.0003C165.751 44.0205 163.991 46.0104 162.319 48.0515C161.238 49.3735 160.289 50.7885 159.268 52.1547C158.52 53.1578 158.445 53.1974 157.321 52.6435C156.518 52.2455 155.771 51.7451 155 51.2913C155.329 50.5651 155.609 49.8134 155.998 49.1151C157.908 45.7102 159.331 42.154 159.96 38.3417C160.06 37.7436 160.257 37.199 161.051 37.0616C161.844 36.9243 162.027 36.9662 162.319 37.7156C162.905 39.2215 164.036 39.9662 165.734 39.9429C166.54 39.9429 167.211 40.1268 167.705 40.7366C167.817 40.9005 167.915 41.0716 168 41.2486Z" fill="white"/>
<path d="M87.8963 65.9923C88.7089 65.893 89.519 65.7559 90.3362 65.7133C90.5724 65.6991 90.9787 65.8835 91 66.0254C91.0015 66.3284 90.9198 66.6261 90.7638 66.8859C90.7024 67.0159 90.5276 67.0987 90.3764 67.1767C88.0003 68.5006 84.5966 68.2121 83.0542 66.4249C82.6621 65.9686 82.2086 65.5691 81.8071 65.1199C81.538 64.7801 81.1476 64.558 80.7182 64.5005C80.0096 64.4012 79.7734 63.848 80.2458 63.3658C80.7743 62.8287 81.3952 62.3915 82.0787 62.075C82.6716 61.8031 83.1888 62.3114 82.9526 62.945C82.7164 63.5785 82.9668 63.9639 83.3896 64.3634C84.6887 65.5833 85.7871 65.9757 87.8963 65.9923Z" fill="#122224"/>
<path d="M91.5029 58C91.0789 57.9396 90.8241 57.9642 90.6573 57.8635C90.4164 57.6833 90.196 57.48 90 57.2568C90.2167 57.0665 90.4001 56.8091 90.6573 56.6949C91.5576 56.3345 92.4865 56.039 93.3939 55.6943C93.5035 55.6517 93.5487 55.457 93.6321 55.3316C93.5388 55.2825 93.4373 55.2484 93.332 55.2309C92.5484 55.2309 91.9268 54.9556 91.5791 54.284C91.1218 53.3998 90.6835 52.4931 90.9431 51.4746C90.9853 51.36 91.0565 51.2569 91.1508 51.1742C91.245 51.0915 91.3593 51.0317 91.4838 51C91.6126 51.0089 91.7375 51.0454 91.849 51.1067C91.9605 51.168 92.0556 51.2525 92.1269 51.3537C92.3458 51.7086 92.5253 52.0836 92.6628 52.473C92.9224 53.1065 93.3415 53.5117 94.1155 53.5251C94.3904 53.5317 94.6617 53.5855 94.9158 53.684C95.8447 54.0512 96.2829 55.0272 95.8042 55.8532C95.5327 56.3255 95.1111 56.8539 94.6133 57.0598C93.5654 57.4986 92.4293 57.7336 91.5029 58Z" fill="#122224"/>
<path d="M86 46.3689C85.7803 47.0076 85.6323 47.7093 85.2836 48.3378C84.8705 49.1026 83.956 49.2002 83.2253 48.6551C82.2869 47.9554 81.7257 46.1208 82.1364 45.1384C82.3967 44.5119 82.8528 44.0828 83.6647 44.0116C84.0532 43.9703 84.4467 44.04 84.7838 44.2097C85.1208 44.3793 85.3823 44.6394 85.5272 44.9492C85.7564 45.3682 85.8328 45.8421 86 46.3689Z" fill="#122224"/>
<path d="M97 44.5861C96.8343 45.1753 96.7798 45.6866 96.5525 46.1242C96.0292 47.1273 94.8098 47.3049 94.0047 46.4687C93.5872 46.0379 93.2869 45.5228 93.1285 44.9656C92.9701 44.4084 92.958 43.8247 93.0932 43.2624C93.1443 42.9356 93.3149 42.6344 93.5772 42.4078C93.8395 42.1811 94.178 42.0425 94.5375 42.0145C95.3165 41.9322 95.9581 42.1987 96.3133 42.8399C96.5805 43.4088 96.8099 43.9919 97 44.5861Z" fill="#122224"/>
<path d="M82.2384 36.3383C81.6014 36.1717 81.046 36.4735 80.605 36.9667C80.164 37.46 79.8 37.9375 79.4196 38.4397C79.156 38.7888 78.8946 39.1695 78.3812 38.9195C77.8678 38.6695 77.9868 38.2325 78.0919 37.8158C78.1402 37.6131 78.2026 37.4137 78.2785 37.219C78.7872 35.9487 79.737 35.0365 80.8944 34.327C81.7064 33.8315 82.5465 33.9238 83.3329 34.4374C83.8952 34.8045 84.1076 35.2842 83.9489 35.7572C83.7902 36.2302 83.3888 36.4532 82.6491 36.4127C82.5108 36.3961 82.3736 36.3713 82.2384 36.3383Z" fill="#122224"/>
<path d="M91.9615 30C92.5313 30.0844 93.0965 30.1991 93.6549 30.3437C93.977 30.4315 94.2703 30.6072 94.5042 30.8523C94.7382 31.0974 94.9041 31.403 94.9847 31.7371C95.0317 32.0256 94.9693 32.3217 94.8107 32.564C94.7146 32.7036 94.3769 32.7304 94.164 32.7009C93.9308 32.6428 93.7093 32.5428 93.5095 32.4056C93.1406 32.1934 92.7234 32.0872 92.3014 32.0981C91.8794 32.1089 91.4678 32.2364 91.1096 32.4673C90.9538 32.5559 90.8005 32.658 90.6473 32.7519C90.2032 33.0204 89.7461 33.1573 89.3487 32.7063C89.151 32.5088 89.0288 32.2443 89.0045 31.9613C88.9802 31.6782 89.0554 31.3956 89.2163 31.1652C89.4954 30.7738 89.8738 30.47 90.3097 30.2873C90.7928 30.0913 91.3564 30.0913 91.9615 30Z" fill="#122224"/>
<path d="M143.047 123.293C142.949 121.073 143.7 119.105 145.022 117.36C146.144 115.876 147.578 114.935 149.52 115.003C150.053 115.001 150.576 115.143 151.037 115.414C151.498 115.686 151.879 116.076 152.141 116.546C152.844 117.675 153.129 119.02 152.946 120.341C152.58 122.85 151.641 125.038 149.683 126.687C149.191 127.119 148.633 127.47 148.032 127.725C145.466 128.728 142.93 126.872 143.001 124.082C143.01 123.822 143.03 123.568 143.047 123.293ZM151.423 120.022C151.216 119.198 151.121 118.32 150.771 117.562C150.32 116.582 149.359 116.28 148.35 116.65C147.923 116.798 147.523 117.014 147.162 117.289C145.726 118.438 144.746 120.072 144.402 121.893C144.171 123.053 144.338 124.259 144.876 125.309C145.025 125.664 145.284 125.961 145.613 126.155C145.943 126.349 146.325 126.429 146.703 126.385C147.208 126.361 147.701 126.231 148.153 126.003C148.605 125.776 149.005 125.455 149.329 125.062C150.544 123.628 151.34 122.01 151.423 120.022Z" fill="#122224"/>
<path d="M113.682 141.07C114.574 141.07 115.467 141.032 116.356 141.097C116.578 141.112 116.785 141.449 117 141.636C116.81 141.934 116.667 142.345 116.421 142.497C116.062 142.684 115.678 142.785 115.288 142.795C114.121 142.893 112.952 142.997 111.782 143C111.283 142.982 110.792 142.843 110.336 142.592C110.233 142.536 110.146 142.443 110.086 142.325C110.026 142.207 109.996 142.07 110 141.931C110.004 141.792 110.042 141.657 110.108 141.545C110.174 141.433 110.266 141.347 110.372 141.3C110.734 141.131 111.116 141.036 111.503 141.02C112.226 140.975 112.949 141.02 113.673 141.02L113.682 141.07Z" fill="#122224"/>
<path d="M152 119.926C151.907 122.13 151.023 123.933 149.649 125.517C149.286 125.954 148.837 126.31 148.329 126.563C147.821 126.816 147.266 126.96 146.7 126.987C146.275 127.036 145.845 126.947 145.475 126.731C145.105 126.516 144.814 126.186 144.647 125.792C144.042 124.624 143.854 123.285 144.114 121.996C144.501 119.972 145.602 118.156 147.215 116.88C147.62 116.575 148.07 116.335 148.549 116.17C149.683 115.758 150.763 116.094 151.269 117.184C151.66 118.036 151.768 119.011 152 119.926Z" fill="white"/>
</svg>
