<svg width="157" height="160" viewBox="0 0 157 160" fill="none" xmlns="http://www.w3.org/2000/svg">
<path d="M75.6955 1.91076L76.9361 2.1474C77.684 2.28764 77.7368 2.26135 78.0799 1.5514C78.2452 1.1579 78.4393 0.777041 78.6607 0.411949C78.7751 0.227887 79.0302 0.131473 79.215 0C79.3697 0.217668 79.4912 0.456925 79.5757 0.709978C79.5992 1.00167 79.5992 1.29477 79.5757 1.58646C79.6373 2.34024 79.8837 2.5944 80.6316 2.69082C80.9283 2.68673 81.2242 2.72209 81.5115 2.79599C81.7842 2.90993 82.1362 3.12906 82.189 3.37447C82.2418 3.61989 81.9954 3.92666 81.8282 4.17208C81.7083 4.30792 81.5574 4.41313 81.3883 4.47886C81.2439 4.53072 81.1118 4.61165 81.0002 4.71662C80.8885 4.82159 80.7999 4.94833 80.7396 5.08896C80.6793 5.22958 80.6488 5.38107 80.6499 5.53397C80.651 5.68686 80.6837 5.83789 80.746 5.97764C80.8471 6.31875 80.8917 6.67402 80.8779 7.02943C80.8779 7.90592 80.394 8.1075 79.6813 7.62544C79.3889 7.41889 79.123 7.17752 78.8895 6.90671C78.5815 6.54735 78.3175 6.45093 77.8952 6.78399C77.4891 7.07604 77.0594 7.33404 76.6105 7.5553C76.5448 7.60596 76.4694 7.64282 76.389 7.66369C76.3085 7.68455 76.2246 7.68897 76.1424 7.67668C76.0602 7.6644 75.9813 7.63567 75.9106 7.59221C75.8398 7.54876 75.7786 7.49151 75.7307 7.42386C75.5954 7.18725 75.5576 6.90761 75.6251 6.64378C75.7699 6.20248 75.9524 5.77436 76.1706 5.36411C76.6017 4.48763 76.6106 4.48761 75.8627 3.72506C75.6376 3.54651 75.439 3.33699 75.2731 3.10277C75.1407 2.87159 75.1029 2.59847 75.1675 2.34023C75.2907 2.10358 75.5811 1.99841 75.6955 1.91076Z" fill="#8850EA"/>
<path d="M58.2034 60.3899C58.2194 60.4984 58.2133 60.609 58.1854 60.7151C58.1575 60.8212 58.1084 60.9205 58.041 61.0073C57.9737 61.094 57.8894 61.1664 57.7933 61.2199C57.6973 61.2735 57.5913 61.3071 57.4819 61.3189C57.2618 61.3231 57.0449 61.2664 56.8554 61.1549C56.6658 61.0435 56.5111 60.8818 56.4084 60.6878C53.7072 56.954 50.9796 53.2378 48.2871 49.4952C47.1257 47.8824 46.0346 46.2258 44.9172 44.578C44.7275 44.3067 44.5738 44.0121 44.4597 43.7016C44.4361 43.6139 44.4341 43.5219 44.4541 43.4334C44.474 43.3448 44.5152 43.2624 44.5741 43.1932C44.6599 43.1569 44.7536 43.1435 44.8462 43.1542C44.9388 43.165 45.0269 43.1996 45.102 43.2546C45.8059 44.0084 46.5274 44.7533 47.1521 45.5685C50.6012 50.0911 54.0327 54.6196 57.4466 59.154C57.7546 59.6098 57.9922 60.0656 58.2034 60.3899Z" fill="black"/>
<path d="M52.3091 36.0148C52.6218 36.2393 52.916 36.4885 53.1889 36.7598C54.3064 38.1621 55.4502 39.5382 56.4885 40.9932C58.9785 44.4378 61.4246 47.9174 63.8707 51.3971C64.513 52.2736 65.0761 53.2728 65.6304 54.2106C65.7745 54.4015 65.871 54.6238 65.912 54.8592C65.912 55.1485 65.9119 55.5604 65.7184 55.7357C65.6371 55.7954 65.5446 55.8381 65.4463 55.8612C65.348 55.8843 65.2461 55.8873 65.1466 55.8701C65.0471 55.8529 64.9521 55.8158 64.8674 55.7611C64.7827 55.7064 64.71 55.6351 64.6537 55.5516C64.4249 55.2711 64.249 54.9556 64.0466 54.6751C61.6709 51.1692 59.3129 47.6106 56.9108 44.0959C55.4326 41.931 53.9016 39.7924 52.4058 37.645C52.2095 37.384 52.0688 37.0857 51.9923 36.7685C51.9571 36.5757 52.1595 36.3478 52.3091 36.0148Z" fill="black"/>
<path d="M62.9729 56.7875C62.8762 56.9453 62.8057 57.2082 62.6738 57.2344C62.5685 57.2622 62.4583 57.2656 62.3515 57.2443C62.2448 57.2231 62.1443 57.1777 62.0579 57.1118C61.231 56.2532 60.4497 55.3521 59.7174 54.4122C56.7522 50.4154 53.8222 46.4011 50.9186 42.3868C50.4259 41.7119 49.9507 41.0195 49.5284 40.3008C49.3348 39.959 48.8773 39.5032 49.3876 39.1526C49.898 38.802 50.1619 39.2928 50.4435 39.6434C51.0154 40.3621 51.6313 41.037 52.2033 41.747C55.5468 45.9015 58.7671 50.1437 61.7587 54.5612C62.0667 55.0169 62.357 55.499 62.6386 55.9811C62.7882 56.2177 62.8762 56.4807 62.9729 56.7875Z" fill="black"/>
<path d="M21.8824 92.7059C21.5041 92.7059 21.0025 92.5657 20.7738 92.7059C20.545 92.8461 20.501 93.4159 20.3338 93.7577C20.1667 94.0995 20.2459 94.7043 19.7531 94.6342C19.4804 94.6342 19.2516 94.0995 19.0053 93.8103C18.9612 93.7558 18.9283 93.6933 18.9084 93.6262C18.8695 93.3866 18.781 93.1578 18.6486 92.9541C18.5162 92.7504 18.3427 92.5762 18.1393 92.4428C17.9358 92.3093 17.7067 92.2193 17.4665 92.1786C17.2263 92.1379 16.9803 92.1474 16.744 92.2063C16.5651 92.2422 16.3792 92.2175 16.216 92.1362C15.9804 92.011 15.7874 91.8187 15.6617 91.584C15.6177 91.4788 15.9081 91.1896 16.1016 91.0757C16.4888 90.8302 16.9287 90.6637 17.3335 90.4271C17.9758 90.0589 18.0286 89.9011 17.7822 89.2262L17.6151 88.8319C17.5007 88.4988 17.4919 88.1307 17.8438 87.9992C17.9718 87.9635 18.1068 87.9609 18.2361 87.9915C18.3654 88.0222 18.4848 88.0852 18.5829 88.1745C18.6835 88.3812 18.8342 88.5596 19.0213 88.6938C19.2084 88.8281 19.4262 88.9138 19.6548 88.9433C19.8835 88.9729 20.1159 88.9454 20.3312 88.8632C20.5465 88.781 20.7379 88.6467 20.8882 88.4725C21.0086 88.3901 21.1477 88.3389 21.2929 88.3235C21.8912 88.1832 22.1728 88.4637 22.1024 89.0597C22.0453 89.4136 21.9262 89.7548 21.7505 90.0677C21.4425 90.576 21.6889 90.8565 22.0672 91.137C22.2432 91.2597 22.472 91.3474 22.5776 91.5139C22.7624 91.7522 22.8753 92.038 22.9031 92.3378C22.9031 92.443 22.4543 92.5569 22.208 92.6445C22.1024 92.6783 21.9931 92.6989 21.8824 92.7059Z" fill="#8850EA"/>
<path d="M66.9588 33.9112C67.0996 35.9447 65.2695 37.5048 63.2193 37.61C62.156 37.5797 61.1439 37.1484 60.3877 36.4032C59.6314 35.658 59.1874 34.6545 59.1455 33.5957C59.1455 31.0627 60.9052 29.8443 63.1313 29.8005C65.1726 29.7654 66.9676 31.7901 66.9588 33.9112ZM63.1577 35.9447C63.4568 35.9592 63.7556 35.9122 64.0357 35.8067C64.3157 35.7012 64.571 35.5394 64.7856 35.3314C65.0002 35.1234 65.1695 34.8736 65.283 34.5976C65.3965 34.3216 65.4518 34.0254 65.4454 33.7272C65.3944 33.0713 65.1039 32.4567 64.6288 31.9996C64.1538 31.5426 63.5272 31.2748 62.8674 31.2467C62.2852 31.2595 61.7283 31.4856 61.303 31.8818C60.8777 32.2779 60.6139 32.8164 60.5621 33.3941C60.5521 33.7348 60.6127 34.0738 60.7401 34.3901C60.8674 34.7063 61.0589 34.993 61.3024 35.2324C61.5459 35.4717 61.8364 35.6585 62.1556 35.781C62.4748 35.9036 62.816 35.9593 63.1577 35.9447Z" fill="black"/>
<path d="M12.8995 23.6476C13.0454 23.7002 13.1866 23.7647 13.3218 23.8404C13.5601 24.0031 13.7892 24.1786 14.0081 24.3663C14.4041 24.7081 14.756 24.8308 15.1696 24.3663C15.4203 24.1071 15.7191 23.8988 16.0494 23.7528C16.1396 23.708 16.239 23.6847 16.3398 23.6847C16.4406 23.6847 16.54 23.708 16.6302 23.7528C16.7165 23.8325 16.7859 23.9286 16.8343 24.0355C16.8826 24.1424 16.909 24.2578 16.9118 24.375C16.8665 24.6817 16.7683 24.9783 16.6214 25.2515C16.5279 25.3909 16.4637 25.5477 16.4326 25.7124C16.4014 25.8772 16.404 26.0465 16.4402 26.2102C16.4763 26.3739 16.5453 26.5286 16.643 26.6651C16.7406 26.8016 16.865 26.917 17.0085 27.0045C17.2092 27.1588 17.3793 27.3491 17.5101 27.5654C17.7916 27.9774 17.6772 28.2403 17.2021 28.328C17.1298 28.3455 17.0544 28.3455 16.9821 28.328C15.7591 28.0212 15.3544 28.8013 15.0376 29.7479C14.9584 29.9845 14.7209 30.3264 14.5449 30.3351C14.3689 30.3439 14.1137 30.0459 13.9025 29.8706C13.9025 29.8706 13.9026 29.8093 13.8586 29.7742C13.5418 28.775 13.0491 28.0212 11.8084 28.3017C11.6501 28.3017 11.3597 28.0914 11.2629 27.9073C11.2483 27.8076 11.2601 27.7058 11.2972 27.612C11.3342 27.5182 11.3952 27.4357 11.4741 27.3726C12.7499 26.7065 12.7235 25.7336 12.266 24.5679C12.228 24.4653 12.2152 24.3552 12.2288 24.2467C12.2423 24.1383 12.2818 24.0346 12.3438 23.9445C12.4059 23.8543 12.4887 23.7804 12.5854 23.7287C12.6821 23.677 12.7898 23.6492 12.8995 23.6476Z" fill="#8850EA"/>
<path d="M42.6215 45.4984C42.9179 45.7422 43.1944 46.0089 43.4486 46.296C44.874 48.1541 46.2994 50.0211 47.6984 51.9055C49.9069 54.868 52.0978 57.8481 54.2887 60.8194C54.5098 61.0509 54.6805 61.3254 54.7903 61.6257C54.8314 61.9339 54.7562 62.2462 54.5791 62.5022C54.3591 62.8177 54.0072 62.7301 53.6992 62.5022C53.5452 62.3775 53.4116 62.2297 53.3033 62.064C49.7486 57.0855 46.1939 52.1012 42.6392 47.1111C42.433 46.8233 42.2837 46.4991 42.1992 46.1558C42.1992 45.9892 42.4368 45.7877 42.6215 45.4984Z" fill="black"/>
<path d="M108.26 18.8007C107.847 18.8007 107.328 18.6516 107.037 18.8445C106.747 19.0373 106.624 19.5632 106.466 19.9576C106.371 20.2748 106.157 20.5432 105.868 20.7066C105.58 20.87 105.239 20.9157 104.917 20.8341C103.861 20.6237 103.157 20.7552 102.928 21.9998C102.818 22.3657 102.58 22.6801 102.257 22.886C101.935 23.0919 101.548 23.1755 101.169 23.1217C100.957 23.0779 100.773 22.8588 100.579 22.7273C100.737 22.5783 100.878 22.3592 101.063 22.2978C101.307 22.2326 101.527 22.1001 101.698 21.9155C101.869 21.731 101.985 21.5019 102.031 21.2548C102.08 21.0068 102.166 20.7675 102.286 20.5448C102.456 20.2079 102.727 19.9317 103.061 19.7543C103.395 19.5769 103.776 19.507 104.151 19.5544C105.172 19.6859 105.172 19.6859 105.586 18.6779C105.586 18.6166 105.638 18.5465 105.674 18.4851C105.747 18.2826 105.86 18.097 106.007 17.9393C106.154 17.7815 106.331 17.6551 106.529 17.5675C106.726 17.4798 106.939 17.4329 107.155 17.4294C107.371 17.426 107.585 17.466 107.785 17.5473C108.234 17.6788 108.489 17.67 108.718 17.1967C108.947 16.7234 109.272 16.1274 109.791 16.3202C110.451 16.5919 109.888 17.1967 109.791 17.6349C109.781 17.8171 109.732 17.995 109.646 18.1563C109.561 18.3177 109.441 18.4585 109.296 18.5693C109.15 18.6801 108.982 18.7582 108.804 18.7981C108.625 18.8381 108.439 18.8389 108.26 18.8007Z" fill="#8850EA"/>
<path d="M68.0939 37.1455C68.4584 37.4153 68.8052 37.7081 69.1322 38.022C69.9592 38.9861 70.7863 39.9591 71.5694 40.9583C72.8717 42.6148 74.209 44.2889 75.4409 45.963C75.736 46.3376 75.9788 46.7504 76.1624 47.1901C76.2592 47.4355 76.1624 47.7598 76.092 48.0665C75.8337 48.036 75.5833 47.9587 75.3529 47.8386C75.0085 47.5671 74.6983 47.2552 74.429 46.9096C72.4845 44.3853 70.5399 41.8698 68.613 39.3367C68.3042 38.9223 68.0471 38.472 67.8475 37.9957C67.7771 37.838 67.9619 37.575 68.0939 37.1455Z" fill="black"/>
<path d="M1.14383 67.577C0.875687 67.551 0.61233 67.489 0.360779 67.3929C0.190478 67.284 0.0630419 67.1199 0 66.9284C0 66.8407 0.211183 66.6742 0.343165 66.5778C0.804356 66.3096 1.25082 66.0171 1.68059 65.7013C1.82172 65.538 1.99936 65.41 2.19926 65.3276C2.39916 65.2451 2.61573 65.2106 2.83146 65.2268C3.04719 65.243 3.25608 65.3095 3.44131 65.4208C3.62655 65.5321 3.7829 65.6853 3.89785 65.8679C4.37298 66.4025 4.37298 66.4025 4.77772 65.8153C5.55201 64.6759 6.34391 64.6057 7.1534 65.6575C7.46136 66.0607 7.74295 66.2623 8.22688 66.0694C8.33246 66.0694 8.44683 65.9555 8.53481 65.973C8.73153 65.9977 8.91741 66.0767 9.07153 66.2009C9.13312 66.2711 9.07153 66.5427 8.96594 66.6742C8.83205 66.8847 8.64895 67.0597 8.43235 67.1843C8.21574 67.3089 7.97209 67.3794 7.72217 67.3897C7.47226 67.4001 7.22352 67.35 6.99728 67.2437C6.77105 67.1374 6.57404 66.9781 6.42309 66.7794C6.03594 66.3236 6.03594 66.3236 5.70158 66.7794C4.98008 67.8136 4.24983 67.91 3.27317 67.1037C2.69245 66.6129 2.71005 66.6391 2.06774 67.1037C1.77403 67.2876 1.46489 67.446 1.14383 67.577Z" fill="#8850EA"/>
<path d="M42.419 8.57199C42.5198 8.3704 42.6314 8.17433 42.7533 7.98471C42.8134 7.92402 42.8587 7.85056 42.8859 7.76981C42.9132 7.68906 42.9217 7.60317 42.9106 7.5187C42.8996 7.43422 42.8694 7.35336 42.8223 7.28224C42.7753 7.21112 42.7125 7.1516 42.6389 7.10822C42.4741 6.96878 42.3237 6.81317 42.1902 6.64371C41.9456 6.37452 41.8154 6.02134 41.8268 5.65844C41.8383 5.29554 41.9907 4.95121 42.2518 4.69791C42.6653 4.30349 42.6829 4.13696 42.2518 3.71625C41.2487 2.6557 41.7063 1.69155 42.6301 0.850127C42.7709 0.727419 43.0701 0.771265 43.2988 0.736206C43.3493 0.930664 43.3701 1.13159 43.3604 1.33221C43.2934 1.53391 43.211 1.73021 43.1141 1.91944C43.031 2.09987 43.0119 2.30304 43.0598 2.4957C43.1078 2.68837 43.22 2.85913 43.378 2.98001C44.3635 3.93538 44.3547 4.41744 43.378 5.39034C43.114 5.64452 43.0437 5.80227 43.2988 6.08275C43.5141 6.32115 43.6974 6.58632 43.8444 6.8716C43.9709 7.24134 43.9636 7.6435 43.8238 8.00846C43.684 8.37341 43.4205 8.67815 43.0789 8.86996C42.7973 9.04526 42.4454 8.91382 42.419 8.57199Z" fill="#8850EA"/>
<path d="M46.5103 92.7584C46.6251 93.0216 46.7635 93.2739 46.9239 93.5122C47.8038 94.5377 47.7422 95.1951 46.5631 95.8963C46.1936 96.1154 46.22 96.203 46.5192 96.4747C47.399 97.246 47.399 97.5353 46.6247 98.4206C46.4136 98.666 46.3432 98.8062 46.5719 99.0428C46.7047 99.1606 46.8124 99.3037 46.8887 99.4636C46.9157 99.5254 46.9246 99.5936 46.9146 99.6602C46.9045 99.7269 46.8758 99.7894 46.8318 99.8406C46.7877 99.8918 46.7301 99.9296 46.6654 99.9498C46.6008 99.9699 46.5318 99.9715 46.4664 99.9544C46.0239 99.7314 45.6127 99.4514 45.2433 99.1217C44.8738 98.7536 45.0938 98.2978 45.3929 97.9735C45.6921 97.6492 45.8417 97.3775 45.3929 96.9743C45.2627 96.86 45.162 96.7161 45.0993 96.5548C45.0367 96.3936 45.0139 96.2197 45.0329 96.0478C45.0518 95.8759 45.1121 95.7111 45.2084 95.5673C45.3048 95.4234 45.4344 95.3048 45.5865 95.2214L45.8681 95.0724C46.4312 94.7481 46.4312 94.7393 46.0528 94.2835C45.952 94.1847 45.8579 94.0793 45.7713 93.968C45.58 93.749 45.4821 93.4643 45.4986 93.1745C45.515 92.8847 45.6444 92.6127 45.8592 92.4166C45.941 92.3311 46.0393 92.2631 46.1482 92.2164C46.257 92.1697 46.3743 92.1453 46.4928 92.1449C46.5984 92.1449 46.6863 92.4867 46.7831 92.6795L46.5103 92.7584Z" fill="#8850EA"/>
<path d="M105.629 42.1152C105.592 42.2319 105.536 42.3416 105.462 42.4395C105.389 42.5227 105.29 42.5784 105.18 42.5973C104.3 42.6937 104.133 43.2722 104.23 44.0259C104.245 44.2058 104.215 44.3866 104.142 44.5518C104.037 44.7972 103.843 44.841 103.641 44.6482C103.592 44.5937 103.554 44.5315 103.526 44.4642C102.963 43.7104 102.963 43.7191 102.11 43.9295C101.951 43.9295 101.714 43.9821 101.634 43.9295C101.595 43.8567 101.575 43.7755 101.575 43.6929C101.575 43.6103 101.595 43.5289 101.634 43.4562C101.753 43.3309 101.837 43.1781 101.88 43.0118C101.924 42.8454 101.925 42.6709 101.883 42.5042C101.84 42.3375 101.757 42.184 101.64 42.0579C101.523 41.9317 101.376 41.8369 101.212 41.7821C100.948 41.6331 101.063 41.3351 101.397 41.265C101.467 41.2515 101.538 41.2515 101.608 41.265C101.796 41.3183 101.992 41.332 102.185 41.3052C102.378 41.2784 102.564 41.2117 102.729 41.1094C102.895 41.007 103.037 40.8713 103.147 40.711C103.257 40.5506 103.332 40.3691 103.368 40.1782C103.417 40.0924 103.487 40.0202 103.572 39.9682C103.656 39.9162 103.753 39.8859 103.852 39.8801C103.993 39.8801 104.098 40.1782 104.195 40.3535C104.226 40.4594 104.226 40.5719 104.195 40.6778C104.089 41.4315 104.45 41.7996 105.172 41.9224C105.333 41.962 105.488 42.027 105.629 42.1152Z" fill="#8850EA"/>
<path d="M45.5777 55.2011C45.5777 55.8147 45.1993 56.0776 44.6978 55.8585C44.4555 55.7273 44.2475 55.5411 44.0907 55.315C42.6301 53.2348 41.1636 51.1518 39.6913 49.0657C39.4361 48.6976 38.9258 48.1892 39.4185 47.8211C39.9113 47.453 40.2985 48.0139 40.5536 48.347C42.1726 50.4944 43.7651 52.6768 45.3577 54.8505C45.4474 54.9563 45.5215 55.0744 45.5777 55.2011Z" fill="black"/>
<path d="M69.8446 46.2697C69.5952 46.1084 69.3597 45.9266 69.1407 45.7263C68.1816 44.5606 67.2138 43.3861 66.2899 42.2203C65.9251 41.7513 65.6096 41.2461 65.3484 40.7128C65.2605 40.5287 65.4276 40.222 65.4716 39.9678C65.718 40.0291 66.0523 39.9677 66.1931 40.1606C67.6473 41.6227 68.9286 43.2461 70.0118 44.9988C70.1423 45.2005 70.2153 45.4338 70.2229 45.6736C70.2229 45.8577 70.0118 46.0243 69.8446 46.2697Z" fill="black"/>
<path d="M91.1674 113.179C91.1693 113.177 91.1712 113.174 91.1731 113.172L91.2259 113.146C91.2063 113.157 91.1868 113.168 91.1674 113.179Z" fill="#A0A7A7"/>
<path d="M105.164 158.129C105.213 157.213 105.288 156.296 105.363 155.383C105.4 154.932 105.437 154.482 105.471 154.034C105.63 151.939 105.99 149.853 106.351 147.784C106.734 145.069 107.391 142.4 108.313 139.817C108.439 139.569 108.475 139.286 108.416 139.014C108.356 138.743 108.205 138.5 107.988 138.327C107.516 137.842 107.081 137.324 106.685 136.776C106.43 136.486 106.289 136.136 106.685 135.829C107.051 135.546 107.297 135.764 107.554 135.992C107.575 136.011 107.597 136.03 107.618 136.048C108.061 136.437 108.504 136.826 108.946 137.216C110.497 138.579 112.048 139.943 113.636 141.307C116.445 143.799 119.666 145.786 123.157 147.18C124.488 147.727 125.925 147.969 127.362 147.889C129.887 147.594 132.251 146.504 134.111 144.778C137.527 141.817 140.297 138.19 142.25 134.12L142.255 134.109C142.613 133.397 142.835 132.954 143.711 132.867C144.362 132.805 144.494 132.367 144.186 131.718C144.069 131.357 143.858 131.034 143.573 130.783C143.288 130.532 142.94 130.361 142.567 130.29C142.1 130.172 141.663 129.96 141.282 129.667C141.017 129.498 140.762 129.31 140.507 129.122C140.219 128.909 139.931 128.696 139.628 128.51C138.812 128.001 138.147 127.284 137.701 126.433C137.607 126.269 137.521 126.105 137.435 125.941C137.392 125.86 137.349 125.778 137.305 125.697C137.279 125.62 137.235 125.55 137.177 125.493C137.119 125.435 137.048 125.392 136.97 125.367C136.893 125.341 136.81 125.334 136.729 125.346C136.649 125.357 136.571 125.387 136.504 125.434C136.41 125.515 136.337 125.619 136.293 125.735C136.248 125.851 136.233 125.977 136.249 126.1C136.338 126.447 136.342 126.809 136.259 127.158C136.176 127.506 136.01 127.829 135.774 128.098C134.554 129.872 133.104 131.478 131.463 132.875C130.398 133.845 129.171 134.622 127.838 135.172C127.481 135.35 127.098 135.469 126.703 135.522C126.574 135.51 126.45 135.47 126.339 135.405C126.228 135.34 126.133 135.251 126.06 135.145C125.999 135.075 126.183 134.707 126.351 134.593C126.647 134.374 126.961 134.179 127.275 133.984C127.503 133.843 127.73 133.701 127.952 133.55C128.638 133.112 128.629 133.094 127.952 132.674L127.791 132.574C127.335 132.293 126.881 132.014 126.456 131.692C124.165 129.773 122.061 127.643 120.174 125.329C119.031 123.951 117.762 122.684 116.382 121.542C115.04 120.607 113.582 119.849 112.044 119.29C110.494 118.684 108.928 118.18 107.367 117.676C106.872 117.517 106.378 117.357 105.885 117.195C105.631 117.102 105.355 117.087 105.093 117.151C104.518 117.336 104.234 117.433 104.082 117.331C103.931 117.231 103.909 116.938 103.861 116.345V116.108C103.782 115.6 103.571 115.512 103.122 115.757C102.948 115.849 102.775 115.942 102.601 116.036C102.043 116.335 101.481 116.636 100.905 116.897C98.4479 117.988 95.753 118.437 93.0737 118.203C92.5193 118.163 91.9738 118.042 91.4547 117.844C91.1351 117.75 90.8409 117.586 90.5945 117.362C90.3481 117.139 90.1557 116.863 90.032 116.555C89.9083 116.247 89.8565 115.915 89.8804 115.584C89.9043 115.253 90.0033 114.932 90.1701 114.644C90.4641 114.131 90.7975 113.641 91.1674 113.179C90.122 113.76 89.3033 113.298 88.5863 112.541C87.9616 111.901 87.372 111.252 86.8265 110.569C84.1875 107.266 81.8328 103.748 79.7875 100.051C77.9315 96.6687 76.1724 93.1639 74.4132 89.6591L74.4115 89.6558C72.6907 86.3408 71.2543 82.8868 70.1177 79.3308C70.0464 79.0787 69.9683 78.8255 69.8898 78.5713C69.4552 77.1639 69.0104 75.7232 69.6514 74.2384C69.8626 73.7826 69.4842 73.4583 68.9827 73.5723C68.6854 73.668 68.4122 73.8264 68.1819 74.0368C68.0163 74.1704 67.8595 74.318 67.7029 74.4655C67.51 74.6472 67.3173 74.8286 67.1085 74.9834C65.3477 76.197 63.1933 76.7069 61.0726 76.4121C60.9951 76.4074 60.9071 76.3772 60.8167 76.3461C60.5682 76.2608 60.3024 76.1696 60.1927 76.5874C60.0976 76.9565 60.0767 77.3408 60.1311 77.7181C60.1881 77.9525 60.3249 78.16 60.5183 78.3053C60.7852 78.5152 61.0024 78.781 61.1545 79.084C61.3066 79.387 61.3898 79.7196 61.3982 80.0583C61.5624 81.8035 61.7096 83.5521 61.8567 85.2999C61.946 86.361 62.0353 87.4218 62.1284 88.4813C62.1707 88.9601 62.2101 89.4401 62.2496 89.9205C62.3663 91.3394 62.4833 92.7619 62.6739 94.1697C63.0786 97.1585 63.5538 100.139 64.0378 103.11C64.9576 108.791 66.3227 114.391 68.1203 119.859C68.8578 122.107 69.6539 124.337 70.4505 126.568C70.766 127.451 71.0815 128.335 71.3935 129.22C71.4709 129.398 71.5591 129.571 71.6575 129.737C71.8122 129.579 71.9507 129.406 72.0711 129.22C72.3923 128.625 72.7078 128.015 73.0247 127.402C73.3848 126.705 73.7468 126.005 74.1211 125.32C74.4289 124.764 74.7728 124.228 75.1506 123.716C75.211 123.632 75.3459 123.601 75.4815 123.571C75.5435 123.556 75.6057 123.542 75.6609 123.523C75.7296 123.7 75.7741 123.886 75.7929 124.075C75.7679 124.233 75.7143 124.384 75.6345 124.522C75.5062 124.818 75.3772 125.114 75.2482 125.409C74.8998 126.207 74.5519 127.003 74.218 127.809C73.9072 128.563 73.592 129.315 73.2767 130.067C72.4227 132.104 71.5688 134.14 70.804 136.215C69.1677 140.661 67.8447 145.215 66.8446 149.844C66.2183 152.58 65.7315 155.345 65.386 158.129H105.164Z" fill="#A0A7A7"/>
<path d="M128.778 100.007C126.126 99.9659 123.564 99.0401 121.502 97.3777C121.19 97.1329 120.854 96.9214 120.499 96.7466C120.426 96.7288 120.349 96.73 120.277 96.7499C120.205 96.7699 120.139 96.8079 120.085 96.8605C120.006 96.9482 120.041 97.141 120.032 97.29C120.024 97.439 120.032 97.3601 120.085 97.3952C120.27 97.7107 120.455 98.0262 120.631 98.3418C120.305 98.482 119.971 98.6047 119.645 98.7625C116.952 100.065 114.404 101.645 112.043 103.478C108.366 106.358 105.209 109.84 102.708 113.777C102.514 114.074 102.251 114.32 101.942 114.495C99.4209 115.8 96.6421 116.537 93.8032 116.652C93.2035 116.657 92.6077 116.556 92.0435 116.354C91.4011 116.152 91.3308 115.819 91.8235 115.328C93.1758 113.97 94.2831 112.389 95.0967 110.656C95.7387 109.412 96.0963 108.041 96.1437 106.642C96.1157 105.334 95.9055 104.036 95.519 102.786C95.1208 101.494 94.6116 100.239 93.9968 99.0342C93.0659 97.1433 92.2692 95.1898 91.6123 93.188C91.1238 91.5394 91.0037 89.8042 91.2604 88.1044C91.5092 86.2973 91.8766 84.5084 92.3602 82.7491C93.1625 79.9155 94.3277 77.1964 95.827 74.6591C98.1192 70.644 101.015 67.0023 104.415 63.8608C106.416 62.041 108.52 60.335 110.714 58.7509C113.492 56.7428 116.412 54.9383 119.452 53.3518C120.393 52.8346 120.631 52.9135 121.273 53.7111C121.405 53.8777 121.555 54.0267 121.273 54.1844C119.892 54.9557 120.059 56.1741 120.34 57.4187C120.753 58.8808 121.5 60.2279 122.522 61.3541C123.226 62.2306 123.974 63.0545 124.757 63.8433C128.077 67.1717 131.73 70.1526 135.659 72.7396C135.949 72.9324 136.213 73.1691 136.486 73.3883L135.474 73.5285C132.91 73.7257 130.452 74.6368 128.382 76.1579C127.481 76.8715 126.689 77.7131 126.033 78.6559C125.487 79.4232 125.218 80.3527 125.27 81.2921C125.323 82.2316 125.694 83.1253 126.323 83.8272C126.851 84.4845 126.834 84.5196 126.104 84.8878C124.186 85.8013 122.549 87.2083 121.361 88.9634C121.055 89.4292 120.834 89.9456 120.71 90.4885C120.603 90.8746 120.585 91.2801 120.659 91.6739C120.733 92.0677 120.896 92.4394 121.137 92.7608C121.377 93.0821 121.688 93.3445 122.045 93.5279C122.403 93.7113 122.798 93.811 123.2 93.8191C123.836 93.8632 124.474 93.7613 125.065 93.5211C127.113 92.6942 129.337 92.3929 131.532 92.6446C132.665 92.6833 133.744 93.132 134.568 93.9068C134.804 94.0923 134.998 94.3257 135.137 94.5917C135.276 94.8576 135.356 95.1499 135.373 95.4492C135.39 95.7485 135.342 96.0479 135.234 96.3275C135.125 96.6071 134.958 96.8605 134.744 97.0709C133.752 98.2844 132.395 99.1479 130.872 99.5338C130.072 99.7441 129.253 99.902 128.778 100.007ZM104.01 97.5091C104.775 97.3338 105.365 97.2374 105.937 97.0621C106.877 96.8418 107.73 96.3473 108.387 95.6416C109.044 94.9359 109.474 94.0511 109.623 93.1004C109.782 92.0028 109.87 90.8961 109.887 89.7873C109.887 89.165 109.597 88.4463 109.826 87.9467C110.055 87.4471 110.794 87.0702 111.286 86.5881C111.533 86.3602 111.753 86.1762 112.166 86.3339C112.307 86.3953 112.65 86.3339 112.677 86.2375C112.703 86.1411 112.738 85.7029 112.615 85.5977C112.159 85.2296 111.67 84.9039 111.154 84.6248C110.987 84.5283 110.723 84.6248 110.503 84.6248C110.565 84.8264 110.556 85.0981 110.688 85.212C111.102 85.5451 110.873 85.6941 110.582 85.9132C109.62 86.6364 108.453 87.041 107.248 87.0702C105.406 87.0843 103.59 86.6351 101.968 85.7642C101.545 85.5456 101.107 85.3552 100.657 85.1945C100.525 85.1507 100.279 85.2909 100.165 85.4224C100.129 85.4882 100.11 85.5621 100.11 85.6371C100.11 85.7122 100.129 85.786 100.165 85.8519C100.375 86.14 100.634 86.3892 100.93 86.5881C101.197 86.7274 101.412 86.948 101.543 87.2178C101.674 87.4875 101.716 87.7921 101.66 88.0869C101.485 89.5419 101.335 90.9968 101.106 92.4693C100.988 92.8929 100.797 93.2931 100.543 93.6526C100.433 93.81 100.276 93.9294 100.094 93.9944C99.2144 94.3713 99.0561 94.6343 99.628 95.388C99.9376 95.8524 100.362 96.2296 100.86 96.4836C101.925 96.9131 103.042 97.1936 104.01 97.5091ZM121.431 71.0568C121.286 69.5784 120.589 68.2083 119.478 67.2178C118.973 66.7755 118.403 66.412 117.789 66.1397C117.67 66.0855 117.542 66.0553 117.412 66.0506C117.282 66.046 117.152 66.0671 117.03 66.1127C116.909 66.1584 116.797 66.2276 116.702 66.3165C116.607 66.4054 116.531 66.5121 116.478 66.6305C116.337 67.1301 116.759 67.2967 117.067 67.507C118.396 68.515 119.513 69.6544 119.557 71.4688C119.557 71.7843 119.645 72.0998 119.672 72.4065C119.698 72.7133 119.804 73.2129 120.235 73.1779C120.4 73.152 120.558 73.0888 120.695 72.9931C120.832 72.8974 120.946 72.7717 121.027 72.6257C121.208 72.1158 121.344 71.5907 121.431 71.0568ZM109.729 62.8353L111.709 63.4226C112.193 63.5968 112.687 63.746 113.187 63.8696C113.303 63.8973 113.424 63.8922 113.538 63.855C113.651 63.8178 113.752 63.7499 113.828 63.6589C113.905 63.5679 113.955 63.4574 113.972 63.3398C113.989 63.2222 113.973 63.1022 113.926 62.9931C113.833 62.7767 113.698 62.5803 113.53 62.4146C111.911 60.6617 108.251 60.6617 106.605 62.4146C106.436 62.5812 106.314 62.7901 106.253 63.0194C106.222 63.1248 106.214 63.2356 106.229 63.3444C106.244 63.4532 106.283 63.5576 106.342 63.6505C106.426 63.7212 106.525 63.7728 106.631 63.8016C106.737 63.8304 106.849 63.8356 106.957 63.817C107.222 63.7283 107.478 63.6168 107.723 63.4839C108.383 63.2473 109.052 63.0457 109.729 62.8353ZM110.151 74.8958H109.799C109.333 74.8958 108.858 75.0711 108.779 75.5532C108.7 76.0352 109.254 76.2543 109.659 76.3069C109.976 76.3487 110.273 76.4836 110.513 76.6943C110.752 76.9051 110.924 77.1821 111.005 77.4902C111.063 77.6785 111.139 77.8605 111.234 78.0336C111.271 78.1399 111.341 78.2319 111.433 78.297C111.525 78.3621 111.635 78.397 111.748 78.397C111.861 78.397 111.972 78.3621 112.064 78.297C112.156 78.2319 112.226 78.1399 112.263 78.0336C112.416 77.7664 112.498 77.4647 112.501 77.1571C112.472 76.5531 112.212 75.9829 111.776 75.5627C111.339 75.1425 110.758 74.904 110.151 74.8958ZM103.35 81.6535L103.816 81.3818C103.702 81.1609 103.557 80.9573 103.385 80.777C103.139 80.5842 102.822 80.4878 102.505 80.3125C101.749 79.8216 101.722 79.6902 102.171 78.8663C102.4 78.4719 102.25 77.9898 101.872 78.0862C101.287 78.1639 100.717 78.3294 100.182 78.577C100.096 78.6291 100.021 78.6978 99.9612 78.7792C99.9018 78.8606 99.8594 78.9531 99.8364 79.0511C99.8134 79.1492 99.8104 79.2508 99.8275 79.35C99.8446 79.4492 99.8815 79.5441 99.936 79.6288C100.319 80.1968 100.824 80.673 101.415 81.0231C102.005 81.3732 102.666 81.5885 103.35 81.6535ZM103.024 68.7166C102.715 68.8283 102.42 68.9754 102.144 69.1548C102.052 69.2423 101.98 69.3487 101.933 69.4668C101.885 69.5848 101.865 69.7116 101.872 69.8385C101.872 69.9612 102.25 70.1628 102.426 70.1365C102.801 70.0799 103.184 70.1512 103.513 70.339C103.842 70.5268 104.098 70.8199 104.239 71.1707C104.304 71.3153 104.407 71.4394 104.538 71.5301C104.705 71.6089 104.96 71.6966 105.083 71.6265C105.276 71.5015 105.412 71.3065 105.462 71.0831C105.425 70.457 105.154 69.8672 104.703 69.4294C104.252 68.9916 103.654 68.7374 103.024 68.7166Z" fill="white"/>
<path d="M62.8404 64.8863C62.6116 65.158 62.3917 65.4385 62.1365 65.6926C61.5009 66.3619 61.105 67.2215 61.0103 68.138C60.9733 68.4384 61.0252 68.7431 61.1599 69.0145C61.2919 69.2599 61.591 69.409 61.811 69.6018C61.9958 69.3739 62.3477 69.146 62.3389 68.9269C62.3504 68.5287 62.4429 68.1369 62.6108 67.7754C62.7787 67.4138 63.0184 67.0899 63.3156 66.8233C63.7845 66.3417 64.2841 65.8909 64.8114 65.4735C65.5593 64.8687 65.6913 64.7285 65.3481 63.8783C64.6178 62.1253 65.4097 60.7142 66.3863 59.3557C66.4761 59.2267 66.5933 59.1189 66.7295 59.0401C67.0287 58.8736 67.2926 58.8999 67.3542 59.2855C67.3883 59.5767 67.3883 59.8708 67.3542 60.162C67.2316 62.7041 67.5047 65.2497 68.1637 67.7085C68.4892 69.031 68.3558 70.4242 67.7853 71.6615C67.4733 72.4203 66.9716 73.0868 66.3278 73.5977C65.684 74.1086 64.9196 74.4469 64.1074 74.5802C62.8685 74.8437 61.5802 74.7559 60.3889 74.3267C59.1975 73.8976 58.1508 73.1443 57.3676 72.1523C56.9008 71.5614 56.4689 70.9439 56.0742 70.303C56.0184 70.2391 55.9774 70.1638 55.954 70.0824C55.9307 70.001 55.9255 69.9155 55.9389 69.8319C55.9524 69.7483 55.984 69.6687 56.0317 69.5987C56.0794 69.5286 56.142 69.4698 56.215 69.4265L62.6909 64.9651C62.6909 64.9651 62.77 64.9651 62.8052 64.9651L62.8404 64.8863Z" fill="white"/>
<path d="M150.028 123.558C150.026 124.642 149.754 125.708 149.236 126.661C148.18 128.589 144.704 129.755 142.338 128.729C141.164 128.257 140.146 127.469 139.396 126.454C138.645 125.439 138.193 124.236 138.088 122.98C138.004 122.607 138.038 122.218 138.184 121.865C138.331 121.512 138.583 121.213 138.906 121.008C139.212 120.853 139.556 120.79 139.897 120.827C140.237 120.865 140.56 121.001 140.824 121.218C141.545 121.58 142.094 122.21 142.355 122.971C142.401 123.228 142.351 123.493 142.214 123.716C142.153 123.795 141.739 123.716 141.572 123.637C141.044 123.295 140.569 122.866 140.041 122.515C139.874 122.401 139.469 122.34 139.425 122.41C139.348 122.511 139.294 122.628 139.267 122.752C139.239 122.876 139.239 123.005 139.267 123.129C139.944 124.329 140.842 125.434 142.725 125.057C142.911 125.015 143.105 125.016 143.291 125.06C143.477 125.104 143.651 125.19 143.798 125.311C144.19 125.538 144.625 125.678 145.076 125.722C145.526 125.767 145.981 125.715 146.41 125.57C146.838 125.424 147.231 125.189 147.56 124.88C147.89 124.571 148.149 124.195 148.321 123.777C148.47 123.392 148.857 123.111 149.095 122.752C149.227 122.55 149.385 122.217 149.315 122.042C149.139 121.639 148.796 121.858 148.497 121.98C147.942 122.217 147.388 122.436 146.834 122.655C146.033 122.962 145.954 123.164 146.605 123.795C146.86 124.04 146.878 124.102 146.605 124.268C145.496 124.855 144.845 124.68 144.212 123.593C144.03 123.286 143.882 122.96 143.772 122.62C143.321 121.321 142.372 120.253 141.132 119.649C140.393 119.255 140.252 119.035 140.402 118.264C140.601 117.493 141.059 116.812 141.698 116.334C142.338 115.856 143.122 115.609 143.921 115.635C144.912 115.751 145.839 116.184 146.561 116.871C147.89 118.159 149.201 119.5 149.623 121.341C149.825 122.068 149.904 122.822 150.028 123.558ZM142.109 119.474C142.299 119.361 142.482 119.235 142.654 119.097C143.235 118.501 143.807 117.905 144.361 117.291C144.452 117.139 144.517 116.973 144.555 116.8C144.344 116.748 144.106 116.608 143.939 116.66C143.113 116.958 142.405 117.514 141.924 118.247C141.786 118.444 141.721 118.682 141.739 118.922C141.722 119.097 141.924 119.263 142.074 119.474H142.109ZM143.93 121.227L144.229 121.761C144.447 121.631 144.647 121.475 144.828 121.297C145.294 120.718 145.708 120.105 146.174 119.5C146.309 119.357 146.43 119.202 146.535 119.035C146.59 118.901 146.59 118.75 146.535 118.615C146.535 118.553 146.323 118.527 146.227 118.553C145.686 118.819 145.203 119.189 144.808 119.642C144.412 120.094 144.111 120.621 143.921 121.192L143.93 121.227Z" fill="white"/>
<path d="M63.0781 64.6496L63.562 64.4042L63.0781 64.6408V64.6496Z" fill="white"/>
<path d="M63.5625 64.4042L63.6065 64.3253V64.4129L63.5625 64.4042Z" fill="white"/>
<path d="M91.1289 113.163L91.1729 113.084V113.172L91.1289 113.163Z" fill="white"/>
<path d="M62.8408 64.8862L63.0784 64.6495L62.832 64.8862H62.8408Z" fill="white"/>
<path d="M63.1574 35.9447C62.812 35.9655 62.466 35.9144 62.1416 35.7947C61.8171 35.675 61.5213 35.4892 61.2729 35.2492C61.0245 35.0092 60.8291 34.7203 60.6991 34.4009C60.5691 34.0815 60.5073 33.7386 60.5177 33.3941C60.5695 32.8164 60.8333 32.2779 61.2586 31.8818C61.6839 31.4856 62.2409 31.2595 62.823 31.2467C63.4828 31.2747 64.1095 31.5426 64.5845 31.9996C65.0595 32.4567 65.35 33.0713 65.401 33.7272C65.4071 34.0215 65.3531 34.314 65.2422 34.587C65.1314 34.8599 64.9661 35.1075 64.7563 35.3149C64.5465 35.5223 64.2966 35.685 64.0217 35.7933C63.7469 35.9015 63.4528 35.953 63.1574 35.9447Z" fill="white"/>
<path d="M104.01 97.509C103.043 97.1935 101.925 96.913 100.869 96.4748C100.371 96.2208 99.9471 95.8435 99.6375 95.3792C99.0656 94.6254 99.1887 94.3625 100.104 93.9856C100.285 93.9206 100.442 93.8012 100.553 93.6437C100.807 93.2843 100.997 92.884 101.116 92.4605C101.344 91.0143 101.494 89.5593 101.67 88.078C101.725 87.7833 101.684 87.4787 101.552 87.2089C101.421 86.9392 101.206 86.7185 100.94 86.5793C100.643 86.3804 100.384 86.1312 100.174 85.843C100.138 85.7772 100.119 85.7033 100.119 85.6283C100.119 85.5532 100.138 85.4794 100.174 85.4135C100.289 85.2821 100.535 85.1418 100.667 85.1856C101.116 85.3463 101.554 85.5367 101.978 85.7554C103.599 86.6263 105.415 87.0755 107.257 87.0613C108.463 87.0322 109.629 86.6276 110.592 85.9044C110.882 85.6852 111.111 85.5362 110.698 85.2032C110.566 85.0892 110.574 84.8175 110.513 84.6159C110.733 84.6159 110.997 84.502 111.164 84.6159C111.68 84.8951 112.169 85.2207 112.624 85.5888C112.748 85.694 112.739 86.0271 112.686 86.2287C112.633 86.4302 112.317 86.3864 112.176 86.3251C111.797 86.1673 111.577 86.3251 111.296 86.5793C110.803 87.035 110.09 87.3769 109.835 87.9378C109.58 88.4988 109.914 89.1561 109.897 89.7784C109.88 90.8873 109.792 91.9939 109.633 93.0916C109.484 94.0422 109.053 94.927 108.396 95.6327C107.74 96.3384 106.886 96.833 105.946 97.0533C105.365 97.2373 104.776 97.3337 104.01 97.509ZM108.63 90.0589C108.63 89.6995 108.63 89.3402 108.63 88.9808C108.63 88.6215 108.498 88.2972 107.988 88.4286C106.971 88.6598 105.913 88.6357 104.908 88.3585L103.289 87.929C103.025 87.8589 102.858 87.8589 102.849 88.2446C102.864 89.1541 102.799 90.0633 102.655 90.9617C102.559 92.1554 102.133 93.2992 101.424 94.266C100.834 94.9234 100.86 94.976 101.635 95.4142C102.101 95.6772 102.515 95.7911 102.831 95.2039C102.962 95.0024 103.125 94.8246 103.315 94.678C103.812 94.1509 104.489 93.8286 105.212 93.7751C105.936 93.7215 106.653 93.9405 107.222 94.3887C107.565 94.6342 107.697 94.5465 107.829 94.2397C108.353 92.9074 108.625 91.4898 108.63 90.0589ZM105.647 95.1513C105.181 95.2827 104.767 95.3967 104.283 95.5457C104.195 95.5457 104.134 95.7123 104.054 95.7911C104.178 95.8876 104.292 96.0628 104.406 96.0541C104.838 96.0542 105.269 96.0101 105.691 95.9226C105.998 95.8132 106.293 95.6722 106.571 95.5019L105.647 95.1513Z" fill="black"/>
<path d="M121.432 71.0567C121.346 71.5995 121.21 72.1335 121.027 72.6519C120.946 72.7979 120.832 72.9236 120.695 73.0193C120.558 73.115 120.401 73.1782 120.235 73.2041C119.804 73.2041 119.707 72.8096 119.672 72.4328C119.637 72.0559 119.566 71.8104 119.558 71.4949C119.558 69.6806 118.396 68.5411 117.068 67.5332C116.76 67.2965 116.337 67.13 116.478 66.6567C116.531 66.5383 116.607 66.4316 116.702 66.3427C116.797 66.2539 116.909 66.1845 117.031 66.1389C117.153 66.0933 117.282 66.0722 117.413 66.0768C117.543 66.0814 117.671 66.1117 117.789 66.1659C118.404 66.4382 118.973 66.8017 119.478 67.244C120.584 68.228 121.28 69.5877 121.432 71.0567Z" fill="black"/>
<path d="M109.729 62.8352C109.052 63.0456 108.383 63.2472 107.723 63.4663C107.478 63.5993 107.222 63.7107 106.957 63.7994C106.849 63.818 106.737 63.8127 106.631 63.784C106.525 63.7552 106.426 63.7037 106.342 63.6329C106.283 63.54 106.244 63.4356 106.229 63.3268C106.214 63.2179 106.222 63.1071 106.253 63.0018C106.314 62.7724 106.436 62.5635 106.605 62.397C108.207 60.644 111.885 60.644 113.53 62.397C113.698 62.5627 113.833 62.7591 113.926 62.9755C113.973 63.0846 113.989 63.2046 113.972 63.3222C113.955 63.4398 113.905 63.5503 113.828 63.6413C113.752 63.7323 113.651 63.8002 113.538 63.8374C113.424 63.8747 113.303 63.8797 113.187 63.852C112.687 63.7285 112.193 63.5792 111.709 63.405L109.729 62.8352Z" fill="black"/>
<path d="M110.152 74.8958C110.752 74.9056 111.326 75.1402 111.759 75.5529C112.193 75.9655 112.455 76.5257 112.492 77.122C112.489 77.4296 112.408 77.7313 112.255 77.9985C112.217 78.1047 112.148 78.1968 112.056 78.2619C111.963 78.327 111.853 78.362 111.74 78.362C111.627 78.362 111.517 78.327 111.425 78.2619C111.332 78.1968 111.263 78.1047 111.225 77.9985C111.131 77.8254 111.054 77.6433 110.996 77.4551C110.915 77.147 110.744 76.8699 110.504 76.6592C110.265 76.4485 109.967 76.3136 109.65 76.2718C109.254 76.2193 108.674 76.1053 108.77 75.5181C108.867 74.9308 109.325 74.887 109.791 74.8607L110.152 74.8958Z" fill="black"/>
<path d="M103.351 81.6534C102.674 81.5822 102.022 81.3639 101.44 81.0141C100.857 80.6643 100.359 80.1913 99.9808 79.6288C99.9263 79.544 99.8894 79.4491 99.8723 79.3499C99.8552 79.2507 99.8581 79.1491 99.8811 79.051C99.904 78.953 99.9465 78.8606 100.006 78.7791C100.065 78.6977 100.141 78.629 100.227 78.577C100.762 78.3293 101.332 78.1638 101.916 78.0861C102.295 78.0248 102.444 78.4718 102.216 78.8662C101.767 79.6901 101.793 79.8216 102.55 80.3124C102.823 80.4877 103.139 80.5841 103.43 80.7769C103.601 80.9572 103.747 81.1609 103.861 81.3817L103.351 81.6534Z" fill="black"/>
<path d="M103.025 68.7166C103.654 68.7373 104.253 68.9915 104.704 69.4293C105.155 69.8671 105.425 70.4569 105.462 71.0831C105.412 71.3065 105.276 71.5015 105.084 71.6265C104.961 71.6966 104.706 71.6264 104.538 71.53C104.408 71.4394 104.305 71.3152 104.239 71.1707C104.099 70.8199 103.843 70.5268 103.514 70.339C103.185 70.1512 102.802 70.0798 102.427 70.1365C102.251 70.1365 101.881 69.9611 101.872 69.8384C101.865 69.7116 101.886 69.5848 101.933 69.4667C101.98 69.3487 102.053 69.2423 102.145 69.1548C102.421 68.9753 102.716 68.8283 103.025 68.7166Z" fill="black"/>
<path d="M108.63 90.0588C108.624 91.4898 108.353 92.9073 107.829 94.2397C107.697 94.5465 107.565 94.6341 107.222 94.3887C106.653 93.9405 105.935 93.7214 105.212 93.775C104.488 93.8286 103.812 94.1508 103.315 94.6779C103.125 94.8245 102.961 95.0023 102.831 95.2038C102.506 95.791 102.101 95.6771 101.635 95.4141C100.86 94.9759 100.834 94.9233 101.423 94.2659C102.133 93.2991 102.559 92.1553 102.655 90.9616C102.799 90.0633 102.864 89.1541 102.849 88.2445C102.849 87.8588 103.025 87.8589 103.289 87.929L104.908 88.3584C105.913 88.6357 106.971 88.6598 107.987 88.4286C108.498 88.2971 108.63 88.5425 108.63 88.9808C108.63 89.419 108.63 89.6995 108.63 90.0588Z" fill="white"/>
<path d="M105.646 95.1512L106.597 95.5019C106.319 95.6722 106.024 95.8132 105.717 95.9226C105.294 96.0101 104.864 96.0542 104.432 96.0541C104.318 96.0541 104.203 95.8875 104.08 95.7911C104.159 95.7122 104.221 95.5807 104.309 95.5457C104.731 95.3967 105.206 95.2827 105.646 95.1512Z" fill="white"/>
<path fill-rule="evenodd" clip-rule="evenodd" d="M63.5027 158.129C63.7788 155.735 64.1895 153.358 64.733 151.01C65.3401 148.38 65.9912 145.751 66.7655 143.121C67.8531 139.375 69.1936 135.706 70.7778 132.139C70.8811 131.97 70.9358 131.776 70.9358 131.578C70.9358 131.38 70.8811 131.186 70.7778 131.017C69.4983 128.719 68.452 126.3 67.6542 123.795C64.6458 115.526 62.5338 106.961 61.3543 98.2453C61.0111 95.4931 60.6856 92.7322 60.404 89.9712C60.2413 88.4515 60.1308 86.9266 60.0202 85.4004C59.9873 84.9462 59.9544 84.4918 59.9201 84.0374C59.885 83.5473 59.8582 83.0559 59.8315 82.5647C59.7914 81.826 59.7512 81.0879 59.6825 80.3562C59.6569 80.0079 59.5214 79.6766 59.2954 79.4096C58.3627 78.3754 57.9139 77.2797 58.5562 75.9037C58.5774 75.8023 58.5732 75.6973 58.5441 75.598C58.5149 75.4986 58.4617 75.4079 58.3891 75.3339C56.8585 74.3827 55.5935 73.0623 54.7112 71.4949C54.2448 70.7411 54.2009 70.7499 53.409 71.2758L47.6282 75.1148C47.4089 75.2865 47.162 75.4199 46.8979 75.5092C46.6382 75.5269 46.3772 75.5062 46.1236 75.4479C46.1421 75.3742 46.1542 75.2927 46.1664 75.2106C46.195 75.0191 46.2239 74.8247 46.3348 74.7204C46.9859 74.1419 47.6722 73.5897 48.3849 73.0726L49.6062 72.1895C53.9141 69.0746 58.2186 65.9622 62.5597 62.879C63.1777 62.4705 63.6177 61.8443 63.7915 61.1261C64.0986 59.7951 64.8685 58.6153 65.9648 57.7954C66.1334 57.6381 66.3325 57.5167 66.5498 57.4386C66.7672 57.3605 66.9982 57.3274 67.2288 57.3413C67.4595 57.3553 67.6848 57.416 67.8911 57.5197C68.0974 57.6234 68.2803 57.7679 68.4285 57.9444C68.798 58.3564 69.0092 58.3126 69.3963 58.0409C70.2701 57.423 71.1486 56.8145 72.0256 56.2068C72.8531 55.6335 73.6795 55.061 74.4996 54.4824C75.5241 53.7599 76.5453 53.0359 77.5667 52.3116C78.8876 51.375 80.2089 50.4381 81.5386 49.5039L81.546 49.4987C82.2163 49.0218 82.232 49.0106 81.7499 48.3382C80.4878 46.5152 79.1895 44.7013 77.8907 42.8867C77.3785 42.1711 76.8663 41.4554 76.3562 40.7391C75.4613 39.4823 74.5879 38.26 73.7202 37.0455C72.839 35.8122 71.9636 34.5869 71.0769 33.3415C70.3769 32.3582 69.6614 31.3249 68.9351 30.2759C67.8358 28.6881 66.7115 27.0644 65.5777 25.5232C65.1394 24.9425 65.0089 24.675 64.8448 24.6525C64.6794 24.6298 64.48 24.8556 63.8971 25.2603C62.1807 26.456 60.4745 27.6684 58.7679 28.8811C57.7099 29.6329 56.6517 30.3847 55.5911 31.1328C51.6844 33.8966 47.7749 36.6546 43.8623 39.4068C42.7795 40.1707 41.6942 40.9322 40.6078 41.6944C38.7899 42.9699 36.969 44.2474 35.1516 45.5422C33.3566 46.8043 31.5675 48.0752 29.7843 49.3549C29.142 49.8107 29.1508 49.9071 29.6347 50.5908C30.2373 51.4396 30.8383 52.2918 31.439 53.1436C32.2154 54.2445 32.9914 55.3449 33.7701 56.4369C37.4891 61.6608 41.2139 66.8788 44.9446 72.0909C45.1998 72.4503 45.4285 72.8184 45.6485 73.2041C45.7021 73.2772 45.7401 73.3605 45.7598 73.4488C45.7796 73.5372 45.7809 73.6287 45.7635 73.7176C45.7462 73.8065 45.7107 73.8908 45.659 73.9653C45.6369 73.9973 45.612 74.0271 45.5847 74.0546C45.5484 74.0912 45.5078 74.1234 45.4637 74.1507C45.3267 74.272 45.1498 74.3391 44.9665 74.3391C44.7833 74.3391 44.6063 74.272 44.4694 74.1507C44.229 73.9416 44.0162 73.7031 43.8359 73.4407L37.316 64.3077C34.2306 59.9604 31.1363 55.613 28.0333 51.2656C26.7507 49.4507 26.97 49.2984 28.2406 48.4158C28.3384 48.3478 28.4424 48.2756 28.5525 48.1979C32.95 45.1192 37.3239 42.0111 41.6984 38.9025C42.6542 38.2232 43.6101 37.5439 44.5662 36.865L53.6466 30.4404C54.2689 30.001 54.8913 29.5613 55.5138 29.1216C58.2443 27.1928 60.9768 25.2624 63.7211 23.3496C65.1377 22.3591 65.2697 22.3854 66.2816 23.7966C68.8156 27.3025 71.3408 30.8319 73.8573 34.3845C77.0777 38.8838 80.3039 43.3831 83.5359 47.8824C83.5662 47.9265 83.5968 47.9707 83.6277 48.015C83.7315 48.1644 83.837 48.3162 83.9319 48.4784C84.3982 49.2585 84.319 49.6616 83.5799 50.1788C83.1436 50.4858 82.7087 50.7921 82.2742 51.0981C80.5008 52.347 78.7355 53.5903 76.9192 54.8505C75.9723 55.5146 75.0297 56.1859 74.0868 56.8574C72.6903 57.852 71.2931 58.847 69.8802 59.8201C69.624 59.9672 69.413 60.1814 69.2704 60.4394C69.1276 60.6974 69.0586 60.9895 69.0708 61.2839C69.0085 62.915 69.1774 64.5467 69.5723 66.1308C70.1619 67.9186 70.1619 69.8474 69.5723 71.6352C69.4227 72.0121 69.4844 72.1523 69.9155 72.2925C71.2529 72.7483 71.6048 73.5547 71.0505 74.922C70.853 75.3992 70.853 75.9348 71.0505 76.412C72.1761 79.7709 73.4861 83.0656 74.9747 86.2812C75.147 86.6463 75.3185 87.0113 75.49 87.3762C76.5538 89.6397 77.6151 91.8979 78.8198 94.117C80.826 97.7807 82.9024 101.409 85.1285 104.95C86.0649 106.439 87.163 107.828 88.2595 109.214C88.7189 109.795 89.1779 110.376 89.6247 110.963C89.7215 111.09 89.8389 111.205 89.9565 111.32C90.042 111.404 90.1276 111.488 90.2055 111.577C90.2935 111.71 90.4306 111.803 90.5872 111.835C90.7437 111.868 90.9069 111.838 91.0413 111.752C91.3065 111.596 91.6148 111.528 91.9212 111.559C92.6427 111.761 92.9242 111.393 93.2146 110.849C93.9466 109.565 94.3675 108.129 94.4439 106.654C94.5203 105.18 94.25 103.708 93.6546 102.356C93.271 101.401 92.8828 100.446 92.4947 99.4906C91.8142 97.8163 91.1337 96.142 90.4782 94.4676C89.6768 92.0788 89.4507 89.5357 89.8183 87.0438C90.1531 83.9549 90.9478 80.933 92.1763 78.0773C93.7503 74.1539 95.9653 70.517 98.7314 67.3141C98.9785 67.0316 99.2244 66.7476 99.4701 66.4636C100.528 65.241 101.585 64.0199 102.735 62.9316C105.833 59.934 109.257 57.2883 112.941 55.0433C113.76 54.5349 114.578 54.0441 115.414 53.5795C115.757 53.3867 115.775 53.2377 115.511 52.966C113.557 50.9326 113.029 48.4171 112.994 45.7175C112.887 43.4752 113.231 41.2342 114.006 39.1263C114.608 37.5581 115.591 36.1631 116.867 35.0664C118.143 33.9696 119.672 33.2053 121.318 32.8419C123.768 32.2383 126.336 32.3018 128.753 33.026C131.653 33.8156 134.378 35.1417 136.786 36.9351C138.766 38.4217 140.513 40.1942 141.969 42.194C144.274 45.4006 146.056 48.9504 147.248 52.7118C147.269 52.7795 147.293 52.8461 147.317 52.9124C147.361 53.035 147.404 53.1564 147.433 53.2816C147.538 53.6848 147.661 53.8425 148.048 53.4744C148.413 53.1186 148.832 52.8227 149.289 52.5979C150.149 52.255 151.1 52.214 151.986 52.4816C152.872 52.7493 153.64 53.3097 154.164 54.0704C155.372 55.8172 156.078 57.8601 156.205 59.9779C156.373 63.9517 155.705 67.9166 154.243 71.6176C153.038 74.8372 151.248 77.8084 148.964 80.3825C148.843 80.4917 148.767 80.6411 148.749 80.8025C148.731 80.9639 148.773 81.1262 148.867 81.259C149.433 82.3091 149.906 83.4059 150.283 84.537C150.425 84.9316 150.483 85.3514 150.453 85.7694C150.422 86.1875 150.305 86.5946 150.108 86.9649C149.911 87.3352 149.638 87.6606 149.308 87.9201C148.978 88.1797 148.597 88.3678 148.189 88.4724C147.641 88.5315 147.086 88.4899 146.553 88.3497L146.537 88.3469C145.672 88.1918 145.603 88.1794 145.673 88.9896C145.726 91.3134 145.079 93.5999 143.816 95.5545C143.013 97.0343 141.828 98.2746 140.385 99.148C139.716 99.4927 138.993 99.721 138.247 99.8229C137.908 99.8811 137.559 99.8466 137.239 99.7232C136.918 99.5997 136.637 99.3918 136.425 99.1218C136.1 98.7536 135.871 98.7449 135.449 99.0692C133.976 100.341 132.168 101.167 130.24 101.448C128.311 101.729 126.341 101.454 124.565 100.656C124.15 100.506 123.756 100.302 123.394 100.051C122.444 99.1743 121.538 99.5074 120.561 99.9807C117.036 101.598 113.804 103.787 110.997 106.458C108.792 108.531 106.734 110.753 104.838 113.11L104.784 113.18C104.274 113.837 104.272 113.84 104.97 114.408C104.985 114.419 105 114.431 105.016 114.443C105.165 114.557 105.334 114.686 105.366 114.837C105.568 115.751 106.258 115.933 106.968 116.12C107.061 116.144 107.155 116.169 107.249 116.196C107.801 116.355 108.355 116.508 108.91 116.662C110.588 117.129 112.265 117.594 113.892 118.194C116.613 119.279 119.009 121.041 120.852 123.313C122.868 125.837 125.144 128.143 127.644 130.193C127.99 130.455 128.36 130.683 128.733 130.913C129.071 131.122 129.412 131.331 129.738 131.569C129.813 131.636 129.902 131.686 129.998 131.715C130.094 131.744 130.195 131.753 130.294 131.739C130.394 131.726 130.489 131.691 130.574 131.638C130.659 131.584 130.731 131.513 130.785 131.429L134.155 127.721C134.338 127.51 134.475 127.263 134.556 126.995C134.638 126.728 134.663 126.447 134.63 126.17C134.544 125.694 134.627 125.202 134.867 124.781C135.106 124.36 135.487 124.036 135.941 123.865C136.148 123.789 136.321 123.645 136.433 123.456C136.545 123.268 136.589 123.047 136.557 122.831C136.494 122.152 136.645 121.471 136.989 120.882C137.333 120.293 137.853 119.825 138.476 119.544C138.565 119.484 138.638 119.403 138.688 119.308C138.739 119.213 138.766 119.108 138.766 119C138.423 115.144 142.796 113.172 145.532 114.083C147.206 114.768 148.654 115.907 149.711 117.37C151.029 118.941 151.793 120.899 151.885 122.945C152.078 125.697 151.26 128.116 148.735 129.58C147.729 130.052 146.668 130.396 145.576 130.605L145.513 130.623C145.212 130.705 145.073 130.743 145.312 131.105C145.486 131.373 145.612 131.67 145.682 131.981C145.919 133.129 145.427 133.892 144.195 134.339C144.114 134.369 144.031 134.393 143.949 134.417C143.615 134.513 143.292 134.606 143.2 135.049C142.32 137.702 140.9 140.145 139.03 142.227C136.971 144.932 134.324 147.138 131.287 148.678C128.75 149.934 125.818 150.139 123.13 149.248C119.764 148.068 116.642 146.286 113.918 143.989C112.519 142.876 111.208 141.649 109.906 140.413C109.481 140.007 109.434 140.238 109.367 140.563L109.36 140.597C109.252 141.123 109.139 141.648 109.026 142.174C108.763 143.401 108.499 144.629 108.296 145.856C107.633 149.249 107.216 152.685 107.046 156.137C107.046 156.801 107.023 157.465 106.993 158.129H105.066C105.115 157.207 105.191 156.288 105.267 155.372C105.304 154.925 105.341 154.479 105.374 154.034C105.533 151.939 105.894 149.853 106.254 147.784C106.637 145.069 107.295 142.4 108.217 139.817C108.342 139.569 108.378 139.286 108.319 139.014C108.26 138.743 108.109 138.5 107.891 138.327C107.419 137.842 106.984 137.324 106.589 136.776C106.369 136.486 106.246 136.127 106.589 135.829C106.903 135.556 107.187 135.783 107.449 135.991C107.473 136.01 107.498 136.03 107.521 136.048C107.967 136.439 108.411 136.829 108.855 137.22C110.404 138.582 111.953 139.945 113.54 141.307C116.348 143.799 119.569 145.786 123.06 147.179C124.391 147.726 125.828 147.969 127.266 147.889C129.79 147.594 132.154 146.504 134.015 144.778C137.431 141.817 140.201 138.19 142.153 134.12C142.514 133.401 142.761 132.954 143.614 132.866C144.265 132.805 144.397 132.367 144.089 131.718C143.973 131.357 143.761 131.034 143.476 130.783C143.191 130.531 142.844 130.361 142.47 130.29C142.004 130.172 141.566 129.96 141.186 129.667C140.921 129.498 140.666 129.31 140.41 129.121C140.123 128.909 139.834 128.696 139.531 128.51C138.715 128.001 138.05 127.284 137.604 126.433C137.51 126.269 137.424 126.106 137.338 125.942C137.295 125.86 137.252 125.779 137.208 125.697C137.182 125.62 137.138 125.55 137.08 125.492C137.053 125.465 137.022 125.441 136.99 125.421C136.954 125.398 136.915 125.38 136.874 125.367C136.796 125.341 136.714 125.334 136.633 125.346C136.552 125.357 136.475 125.387 136.408 125.434C136.313 125.515 136.241 125.619 136.196 125.735C136.152 125.851 136.137 125.977 136.153 126.1C136.242 126.446 136.245 126.809 136.162 127.158C136.08 127.506 135.913 127.828 135.677 128.098C134.457 129.872 133.008 131.478 131.366 132.875C130.301 133.845 129.074 134.622 127.741 135.172C127.385 135.35 127.001 135.469 126.606 135.522C126.478 135.51 126.354 135.47 126.243 135.405C126.132 135.34 126.036 135.251 125.964 135.145C125.902 135.075 126.087 134.707 126.254 134.593C126.55 134.374 126.864 134.179 127.179 133.984C127.406 133.842 127.634 133.701 127.855 133.55C128.559 133.077 128.55 133.059 127.855 132.674L127.694 132.574C127.238 132.293 126.785 132.013 126.36 131.692C124.068 129.773 121.965 127.643 120.077 125.329C118.935 123.951 117.665 122.683 116.285 121.542C114.944 120.607 113.485 119.849 111.947 119.29C110.315 118.638 108.635 118.103 106.932 117.561C106.552 117.44 106.17 117.318 105.788 117.195C105.534 117.102 105.259 117.087 104.996 117.151C104.421 117.336 104.137 117.433 103.985 117.331C103.834 117.231 103.812 116.937 103.764 116.345V116.108C103.685 115.6 103.474 115.512 103.025 115.757C102.852 115.849 102.678 115.942 102.504 116.036C101.946 116.335 101.385 116.636 100.808 116.897C98.3513 117.987 95.6563 118.437 92.977 118.203C92.4226 118.163 91.8772 118.041 91.3581 117.843C91.0385 117.75 90.7443 117.585 90.4979 117.362C90.2515 117.139 90.0592 116.863 89.9354 116.555C89.8117 116.247 89.7598 115.915 89.7838 115.584C89.8077 115.253 89.9067 114.932 90.0734 114.644C90.3607 114.143 90.6857 113.664 91.0454 113.211C90.0205 113.769 89.2093 113.309 88.4897 112.558C87.8914 111.918 87.3018 111.27 86.7299 110.586C84.0908 107.284 81.7362 103.765 79.6909 100.068C78.2159 97.3975 76.838 94.6674 75.4602 91.9372C75.0791 91.1821 74.698 90.427 74.3148 89.6732C72.6094 86.3396 71.1907 82.868 70.0738 79.2957C70.0138 79.1018 69.9509 78.9079 69.888 78.7138C69.4162 77.258 68.9398 75.7887 69.6075 74.2033C69.7923 73.7475 69.4404 73.4232 68.9388 73.5371C68.6415 73.6329 68.3684 73.7913 68.1381 74.0017C67.9725 74.1352 67.8157 74.2829 67.6591 74.4304C67.4662 74.612 67.2735 74.7935 67.0647 74.9483C65.3039 76.1619 63.1494 76.6718 61.0287 76.3769C60.9397 76.3769 60.8395 76.344 60.739 76.3109C60.492 76.2295 60.2426 76.1473 60.1488 76.5522C60.0537 76.9214 60.0328 77.3056 60.0872 77.6829C60.1442 77.9174 60.281 78.1249 60.4744 78.2701C60.7413 78.48 60.9586 78.7459 61.1106 79.0489C61.2627 79.3519 61.3459 79.6845 61.3543 80.0231C61.5186 81.7688 61.6659 83.518 61.813 85.2662C61.9023 86.3268 61.9915 87.3871 62.0846 88.4462C62.1268 88.925 62.1663 89.405 62.2058 89.8854C62.3225 91.3043 62.4395 92.7268 62.6301 94.1346C63.0348 97.1234 63.51 100.103 63.9939 103.075C64.9119 108.767 66.277 114.379 68.0765 119.859C68.8139 122.107 69.61 124.337 70.4065 126.567C70.7221 127.451 71.0377 128.335 71.3497 129.22C71.4271 129.398 71.5153 129.57 71.6137 129.737C71.7684 129.579 71.9069 129.406 72.0271 129.22C72.2813 128.74 72.5319 128.255 72.7823 127.769C73.2083 126.945 73.6341 126.12 74.0773 125.32C74.3851 124.764 74.7289 124.228 75.1067 123.716C75.1671 123.632 75.302 123.601 75.4377 123.57C75.4997 123.556 75.5618 123.542 75.6171 123.523C75.6858 123.7 75.7302 123.886 75.7491 124.075C75.7241 124.233 75.6704 124.384 75.5907 124.522C75.4621 124.819 75.3328 125.115 75.2035 125.411C74.8554 126.208 74.5077 127.004 74.1741 127.809C73.8633 128.563 73.548 129.315 73.2328 130.067C72.3789 132.104 71.5249 134.14 70.7601 136.215C69.1238 140.66 67.8008 145.215 66.8007 149.844C66.1744 152.579 65.6876 155.345 65.3421 158.129H63.5027ZM63.0788 64.6496L63.5627 64.4042L63.5892 64.3253V64.4129L63.1052 64.6496L62.8589 64.8862C62.8085 64.946 62.7586 65.0062 62.7086 65.0665C62.5316 65.2801 62.354 65.4943 62.1549 65.6926C61.5193 66.3618 61.1234 67.2215 61.0287 68.138C60.9916 68.4384 61.0437 68.7431 61.1783 69.0144C61.2684 69.182 61.4363 69.3046 61.6039 69.4268C61.6818 69.4837 61.7596 69.5405 61.8294 69.6017C61.8888 69.5284 61.9646 69.4551 62.0401 69.3821C62.1994 69.2281 62.3573 69.0755 62.3573 68.9268C62.3688 68.5286 62.4613 68.1369 62.6292 67.7753C62.7971 67.4137 63.0368 67.0898 63.334 66.8232C63.8029 66.3417 64.3025 65.8908 64.8297 65.4735C65.5776 64.8687 65.7096 64.7547 65.3665 63.8783C64.645 62.099 65.4281 60.7142 66.4048 59.3556C66.4945 59.2266 66.6117 59.1189 66.7479 59.04C67.0471 58.8735 67.311 58.8998 67.3726 59.2855C67.4067 59.5767 67.4067 59.8708 67.3726 60.162C67.2639 62.6787 67.5428 65.1971 68.1997 67.6296C68.5252 68.9521 68.3919 70.3453 67.8214 71.5826C67.5094 72.3414 67.0076 73.0079 66.3638 73.5188C65.72 74.0297 64.9557 74.3679 64.1435 74.5013C62.9045 74.7648 61.6163 74.677 60.4249 74.2478C59.2335 73.8186 58.1868 73.0654 57.4036 72.0734C56.9368 71.4825 56.5049 70.865 56.1102 70.224C56.0544 70.1601 56.0134 70.0849 55.9901 70.0035C55.9667 69.9221 55.9615 69.8366 55.975 69.753C55.9884 69.6694 56.0201 69.5898 56.0678 69.5197C56.1154 69.4497 56.178 69.3909 56.251 69.3475L62.7268 64.8862H62.8412L63.0788 64.6496ZM129.257 99.9085C129.065 99.9487 128.894 99.9846 128.753 100.016L128.779 100.007C126.117 99.9692 123.544 99.0399 121.476 97.3688C121.165 97.1241 120.829 96.9125 120.473 96.7377C120.4 96.7199 120.324 96.7211 120.251 96.7411C120.212 96.752 120.174 96.7683 120.14 96.7894C120.111 96.807 120.084 96.8278 120.06 96.8516C120.007 96.9393 120.007 97.246 120.007 97.2811C120.007 97.3162 120.06 97.3863 120.06 97.3863L120.063 97.3924C120.247 97.7059 120.43 98.0194 120.605 98.3329C120.49 98.3825 120.374 98.4299 120.257 98.4774C120.044 98.5643 119.83 98.6517 119.62 98.7536C116.927 100.056 114.379 101.636 112.018 103.469C108.341 106.349 105.184 109.831 102.682 113.768C102.488 114.065 102.226 114.311 101.917 114.487C99.3954 115.792 96.6167 116.528 93.7777 116.643C93.1781 116.648 92.5823 116.547 92.018 116.345C91.3757 116.143 91.3053 115.81 91.798 115.319C93.1503 113.961 94.2576 112.38 95.0711 110.648C95.7132 109.403 96.0708 108.032 96.1182 106.633C96.0902 105.325 95.88 104.027 95.4935 102.777C95.0954 101.485 94.5861 100.23 93.9713 99.0254C93.0404 97.1345 92.2437 95.1809 91.5869 93.1792C91.0984 91.5305 90.9782 89.7954 91.2349 88.0955C91.4836 86.2884 91.8511 84.4995 92.3347 82.7402C93.137 79.9066 94.3022 77.1876 95.8015 74.6503C98.0936 70.6351 100.99 66.9935 104.389 63.852C106.391 62.0322 108.494 60.3262 110.689 58.7421C113.466 56.7339 116.386 54.9294 119.426 53.3429C120.368 52.8258 120.605 52.9047 121.247 53.7023C121.379 53.8688 121.529 54.0178 121.247 54.1756C119.866 54.9469 120.033 56.1652 120.315 57.4098C120.727 58.872 121.474 60.219 122.497 61.3452C123.201 62.2042 123.949 63.0456 124.732 63.8344C128.051 67.1628 131.704 70.1438 135.633 72.7308C135.844 72.8707 136.041 73.0338 136.237 73.1964C136.312 73.2579 136.386 73.3193 136.461 73.3794L135.449 73.5196C132.884 73.7169 130.427 74.628 128.357 76.149C127.455 76.8626 126.664 77.7043 126.008 78.6471C125.455 79.4177 125.184 80.3531 125.239 81.2983C125.293 82.2435 125.67 83.1419 126.307 83.8446C126.835 84.502 126.817 84.537 126.087 84.9051C124.17 85.8187 122.533 87.2258 121.344 88.9808C121.038 89.4466 120.818 89.9631 120.693 90.5059C120.586 90.892 120.568 91.2975 120.642 91.6913C120.716 92.0851 120.88 92.4569 121.12 92.7782C121.36 93.0995 121.671 93.3619 122.029 93.5453C122.386 93.7288 122.781 93.8284 123.183 93.8365C123.82 93.8806 124.458 93.7787 125.049 93.5385C127.097 92.7117 129.32 92.4103 131.516 92.6621C132.648 92.7007 133.727 93.1495 134.551 93.9242C134.788 94.1097 134.982 94.3432 135.12 94.6091C135.259 94.8751 135.34 95.1674 135.356 95.4667C135.373 95.766 135.326 96.0653 135.217 96.3449C135.109 96.6245 134.942 96.8779 134.727 97.0883C133.735 98.3018 132.378 99.1653 130.856 99.5512C130.286 99.693 129.713 99.8131 129.257 99.9085ZM149.888 122.82C149.924 123.07 149.961 123.319 150.002 123.567L150.028 123.558C150.031 124.644 149.762 125.714 149.245 126.67C148.189 128.598 144.714 129.764 142.347 128.738C141.174 128.266 140.155 127.478 139.405 126.463C138.655 125.447 138.202 124.245 138.097 122.988C138.014 122.616 138.047 122.227 138.194 121.874C138.34 121.521 138.592 121.221 138.915 121.016C139.221 120.861 139.565 120.799 139.906 120.836C140.247 120.874 140.569 121.009 140.834 121.227C141.554 121.589 142.104 122.218 142.365 122.98C142.41 123.237 142.36 123.502 142.224 123.725C142.162 123.804 141.749 123.76 141.581 123.646C141.308 123.469 141.049 123.268 140.789 123.068C140.547 122.88 140.305 122.693 140.05 122.524C139.883 122.419 139.435 122.349 139.435 122.419C139.357 122.52 139.303 122.637 139.276 122.761C139.249 122.885 139.249 123.013 139.276 123.137C139.954 124.338 140.851 125.443 142.734 125.066C142.921 125.023 143.114 125.024 143.3 125.068C143.487 125.112 143.66 125.199 143.808 125.32C144.199 125.546 144.635 125.687 145.085 125.731C145.536 125.776 145.991 125.724 146.419 125.578C146.848 125.433 147.24 125.198 147.57 124.889C147.899 124.579 148.159 124.203 148.33 123.786C148.42 123.554 148.596 123.361 148.773 123.165C148.891 123.035 149.01 122.904 149.104 122.761C149.236 122.559 149.395 122.226 149.324 122.051C149.17 121.697 148.887 121.822 148.618 121.941C148.58 121.958 148.543 121.974 148.506 121.989C147.952 122.226 147.397 122.445 146.843 122.664C146.042 122.927 145.981 123.172 146.614 123.804C146.905 124.049 146.922 124.11 146.614 124.277C145.506 124.864 144.846 124.689 144.221 123.602C144.039 123.295 143.891 122.969 143.781 122.629C143.33 121.33 142.381 120.262 141.141 119.658C140.411 119.263 140.288 119.044 140.411 118.273C140.611 117.502 141.068 116.821 141.708 116.343C142.347 115.865 143.131 115.618 143.931 115.643C144.922 115.759 145.848 116.193 146.57 116.879C147.873 118.168 149.184 119.474 149.632 121.349C149.743 121.832 149.815 122.327 149.888 122.82Z" fill="black"/>
<rect x="37.4268" y="158.129" width="95.4386" height="1.87134" rx="0.935672" fill="black"/>
</svg>
