<svg width="121" height="138" viewBox="0 0 121 138" fill="none" xmlns="http://www.w3.org/2000/svg">
<path d="M35.2581 137.251C31.9422 137.177 28.6214 137.251 25.3153 137.001C18.8111 136.544 12.2823 136.123 5.98403 134.224C4.45199 133.755 2.99141 133.079 1.64297 132.213C-0.402492 130.899 -0.505501 129.015 1.15245 127.234C2.47194 125.812 4.22307 125.125 5.97421 124.488C10.1829 122.957 14.5681 122.158 18.9681 121.437C20.4004 121.201 21.8326 120.985 23.2748 120.823C23.9124 120.75 24.1822 120.505 24.2166 119.842C24.3 118.032 24.4128 116.227 24.5453 114.417C24.6139 113.436 24.7169 112.455 24.8346 111.474C24.9278 110.66 24.5894 110.199 23.9026 109.708C22.9173 109.059 22.0663 108.227 21.3961 107.256C19.1299 103.582 21.2048 99.5545 25.0112 98.0781C25.6525 97.8745 26.3085 97.7204 26.9733 97.617C27.2581 97.592 27.5214 97.4551 27.7053 97.2362C27.8892 97.0173 27.9788 96.7344 27.9543 96.4496C27.9887 95.2625 28.1211 94.0804 28.2094 92.8933C28.2536 92.3439 28.0034 92.0692 27.4589 91.9123C25.8794 91.4218 24.2951 90.9312 22.7549 90.3426C22.5116 90.1994 22.2237 90.1517 21.9472 90.2088C21.6707 90.2659 21.4254 90.4237 21.2588 90.6516C20.3464 91.7112 19.3948 92.7363 18.502 93.8204C17.6093 94.9044 16.8637 95.9443 16.0495 97.0038C15.4118 97.823 13.9059 98.186 12.6158 97.6611C10.7163 96.918 9.09823 95.5968 7.99029 93.8841C7.20056 92.6628 7.29865 92.0398 8.22573 90.941C9.91638 88.9168 11.6184 86.8975 13.332 84.8832C14.0236 84.0689 14.0285 84.0738 13.2829 83.235C9.92696 79.5227 7.55129 75.031 6.37156 70.1676C5.66803 67.3893 5.75983 64.4692 6.63646 61.7405C7.11857 60.1174 7.97583 58.6305 9.13898 57.4C10.3021 56.1695 11.7385 55.23 13.332 54.6575C13.9255 54.4269 14.1315 54.2209 13.8225 53.5587C12.3509 50.233 14.2738 45.8085 16.7656 43.7778C18.484 42.4211 20.5561 41.5868 22.7352 41.3743C22.9412 41.3743 23.1473 41.3399 23.3533 41.3007C24.7512 41.0456 24.766 41.0358 24.8248 39.6378C24.9475 36.7585 26.6741 34.9975 29.0237 33.7516C33.1882 31.505 37.4998 31.6179 41.8065 33.2611C45.174 34.5481 48.0657 36.8372 50.0914 39.8193C51.3569 41.6293 51.249 41.8893 52.8138 39.8782C53.7948 38.6126 54.9524 37.4845 56.0168 36.2827C59.2542 32.643 62.472 28.9936 65.7193 25.3638C67.9266 22.9112 70.1977 20.4586 72.4001 18.006C75.147 14.9108 77.8449 11.7617 80.5869 8.65675C82.9871 5.93928 85.4086 3.2398 87.8514 0.558304C88.137 0.271215 88.5095 0.0866749 88.9109 0.0334504C91.1477 -0.231429 93.7033 1.10278 94.5322 3.1139C94.9345 4.09493 95.0718 4.92881 94.2968 5.67931C93.2324 6.70449 93.4433 7.64138 94.0565 8.86276C96.5581 13.817 99.0008 18.8023 101.385 23.8186C105.168 31.7258 108.929 39.6444 112.667 47.5744C115.06 52.6398 117.441 57.7085 119.809 62.7804C119.954 63.0551 120.069 63.3445 120.152 63.6437C120.259 63.9396 120.279 64.2601 120.21 64.5671C120.14 64.874 119.984 65.1545 119.76 65.3753C119.21 65.8658 118.631 65.7039 118.023 65.4538C108.056 61.34 98.082 57.2261 88.1016 53.1123C80.1993 49.8357 72.3167 46.51 64.4243 43.2039C62.8399 42.5368 62.8154 42.527 61.6185 43.8023C60.8043 44.6656 60.0292 45.578 59.264 46.4904C58.7735 47.0594 58.8765 47.2163 59.6516 47.3291C60.2157 47.4076 60.7798 47.4812 61.339 47.5891C64.9688 48.3102 67.2252 50.6745 68.731 53.8775C69.8195 56.1868 70.3569 58.7173 70.3007 61.2696C70.1682 67.3521 68.9027 73.2088 65.7585 78.5162C64.7468 80.2606 63.5987 81.922 62.3249 83.4852C60.5876 85.6283 58.3715 87.3336 55.855 88.4639C54.457 89.0771 53.8634 88.9152 54.4324 91.098C54.7588 92.4563 54.9851 93.8367 55.1094 95.2282C55.1878 95.9541 55.4625 96.2092 56.164 96.2435C57.5583 96.3826 58.9014 96.8426 60.0881 97.5876C63.561 99.6183 63.8308 104.793 61.1133 106.907C60.6236 107.364 60.1006 107.784 59.5486 108.163C58.8471 108.565 58.8373 109.026 59.0237 109.718C59.8379 112.72 60.6162 115.729 61.3586 118.744C61.3965 119.076 61.5577 119.381 61.8102 119.6C62.0627 119.819 62.3882 119.935 62.7222 119.926C65.2991 120.174 67.8677 120.47 70.4282 120.814C73.6262 121.177 76.7658 121.941 79.7726 123.09C80.4421 123.37 81.0801 123.72 81.6758 124.134C83.9371 125.67 84.0646 128.024 81.8671 129.633C80.6763 130.463 79.3983 131.161 78.0558 131.713C74.7056 133.184 71.1444 133.925 67.5636 134.514C63.6836 135.151 59.7791 135.637 55.8795 136.132C50.3237 136.812 44.7304 137.14 39.1332 137.113C37.8481 137.113 36.558 137.324 35.2729 137.432L35.2581 137.251ZM116.13 61.6572C115.983 61.2696 115.865 60.8723 115.693 60.4995C113.875 56.546 112.049 52.594 110.214 48.6437C107.15 42.0675 104.079 35.4913 101.002 28.9151C99.8004 26.3301 98.633 23.7303 97.4606 21.1355C95.7732 17.4027 94.1055 13.6649 92.4083 9.937C91.9571 8.95596 91.7559 8.8971 91.0005 9.72608C89.3328 11.5704 87.719 13.4589 86.0954 15.3376C83.6918 18.1139 81.303 20.905 78.8995 23.6764C76.6627 26.2614 74.4014 28.8268 72.1696 31.4118C69.8396 34.1195 67.5341 36.8468 65.2042 39.5544C64.4635 40.4177 64.439 40.4227 65.5132 40.869C70.3546 42.8654 75.201 44.8373 80.0375 46.8386C89.1938 50.6254 98.337 54.4171 107.467 58.2137C110.361 59.4057 113.241 60.5093 116.13 61.6572ZM67.1908 61.2745C67.0976 60.5191 67.0191 59.3811 66.8131 58.2628C66.6454 57.3979 66.4025 56.5494 66.0871 55.7268C64.7235 52.0626 61.6725 49.8406 58.1555 50.2134C56.4123 50.4411 54.7029 50.8775 53.0639 51.5132C50.7879 52.3471 48.9779 53.9364 47.2807 55.6287C45.0832 57.8262 42.9593 60.1071 40.4135 61.9269C39.4647 62.6758 38.7777 63.7062 38.4514 64.87C37.9609 66.2484 38.4858 68.3037 40.2369 68.8383C41.5122 69.2209 42.871 69.682 44.161 69.6035C48.0852 69.3534 51.6463 68.0535 54.5208 65.2183C54.7302 64.9881 54.9637 64.7809 55.2173 64.6003C55.7078 64.301 56.1983 63.8449 56.7477 64.355C57.2971 64.8651 56.9096 65.3753 56.6153 65.7726C56.0383 66.6268 55.3669 67.4133 54.6139 68.1173C52.6072 69.7731 50.2481 70.9477 47.7173 71.5509C47.4386 71.5928 47.1744 71.7018 46.9471 71.8684C46.7198 72.035 46.5364 72.2543 46.4125 72.5074C44.8052 75.7782 44.0766 79.411 44.2983 83.0486C44.3278 83.5391 44.5289 84.0738 44.5142 84.579C44.5298 84.75 44.4916 84.9216 44.4049 85.0699C44.3182 85.2181 44.1873 85.3355 44.0306 85.4057C43.8739 85.476 43.6992 85.4955 43.5309 85.4616C43.3626 85.4277 43.209 85.3421 43.0917 85.2167C42.8083 84.9921 42.5983 84.6881 42.4884 84.3436C41.9243 82.1313 41.5073 79.8652 41.8703 77.6039C42.2081 75.9867 42.679 74.4002 43.2781 72.8606C43.4841 72.2425 43.3811 72.061 42.7385 71.9433C41.5797 71.7197 40.4336 71.4348 39.3049 71.0898C39.0553 70.9602 38.7664 70.9282 38.4944 70.9998C38.2224 71.0714 37.9868 71.2416 37.8334 71.4773C34.1398 75.8086 30.3824 80.0859 26.6446 84.3828C25.9334 85.202 25.227 86.0261 24.5158 86.8354C24.0792 87.3259 24.0743 87.6791 24.8052 87.9538C27.037 88.7828 29.2199 89.6804 31.4615 90.5192C31.9079 90.686 32.5014 90.7448 32.4426 91.3089C32.3988 91.5219 32.3083 91.7226 32.1777 91.8965C32.0471 92.0704 31.8795 92.2131 31.6872 92.3145C31.4163 92.3933 31.1816 92.5646 31.0239 92.7985C30.8662 93.0323 30.7954 93.3141 30.8238 93.5947C30.8317 96.4939 30.5458 99.3864 29.9703 102.228C29.7447 103.474 29.9998 103.748 31.2899 103.964C34.7518 104.561 38.267 104.791 41.7771 104.651C45.0928 104.518 48.3721 103.909 51.5139 102.841C52.9119 102.35 52.9855 102.35 52.8726 100.845C52.6078 97.4453 52.2595 94.0509 51.8916 90.6565C51.817 90.3638 51.6604 90.0983 51.4403 89.8913C50.6113 88.9348 50.5966 88.7288 51.5972 87.9293C52.3677 87.3167 53.1736 86.75 54.0106 86.2321C56.4099 84.7823 58.5461 82.9364 60.3285 80.7726C64.8363 75.2151 66.8425 68.7206 67.1957 61.2745H67.1908ZM35.5868 134.205V134.421C40.7078 134.146 45.8288 133.93 50.94 133.577C54.0842 133.366 57.2186 132.949 60.3579 132.66C61.133 132.586 61.3095 132.248 61.1722 131.531C60.716 129.192 60.3236 126.842 59.8527 124.512C58.8717 119.69 57.8906 114.878 56.9096 110.057C56.8017 109.537 56.6054 109.326 56.0757 109.468C55.5791 109.621 55.0727 109.741 54.56 109.826C53.8291 109.929 53.0885 109.527 53.0541 109.046C53.0541 108.403 53.5446 108.202 54.0352 108.016C54.3875 107.924 54.7319 107.804 55.0652 107.658C56.3069 107.03 57.499 106.308 58.6313 105.5C59.2509 105.054 59.7044 104.415 59.9202 103.683C60.1361 102.951 60.1019 102.168 59.8232 101.458C59.0727 99.8047 57.6552 99.0052 55.9384 98.6961C55.8427 98.6899 55.7471 98.7089 55.6611 98.751C55.575 98.7932 55.5016 98.8571 55.4479 98.9365C55.3325 99.3427 55.3266 99.7722 55.4308 100.181C55.5351 100.591 55.7457 100.965 56.0414 101.266C57.0224 102.002 57.0224 102.468 56.1051 103.332C55.2142 104.162 54.1624 104.802 53.0148 105.21C49.0711 106.667 44.9021 107.419 40.698 107.432C38.8348 107.468 36.9717 107.358 35.1257 107.104C32.781 106.741 30.4707 106.123 28.1555 105.603C27.6738 105.482 27.2225 105.263 26.8299 104.959C26.4373 104.655 26.112 104.273 25.8745 103.837C25.774 103.641 25.7135 103.428 25.6967 103.209C25.6799 102.99 25.707 102.77 25.7765 102.561C25.9776 102.041 26.4975 102.105 26.9831 102.301C27.1798 102.346 27.3859 102.322 27.5668 102.233C27.6557 101.522 27.6983 100.806 27.6943 100.089C27.6943 99.5987 27.3755 99.4662 26.9438 99.7164C26.1003 100.108 25.2942 100.576 24.5354 101.114C22.6568 102.679 22.5979 104.896 24.2705 106.696C25.385 107.801 26.723 108.654 28.1947 109.198C29.0531 109.561 29.9458 109.85 30.7895 110.238C31.28 110.459 32.0551 110.576 31.8442 111.347C31.6332 112.117 30.9956 112.126 30.3137 111.94C29.7202 111.773 29.1021 111.68 28.4988 111.528C27.4147 111.253 27.4148 111.248 27.3706 112.421C27.2627 115.266 27.1564 118.111 27.0518 120.956C27.0518 121.167 27.0223 121.373 27.0125 121.579C26.8212 125.351 26.6005 129.118 26.4485 132.895C26.3994 134.121 26.5171 134.19 27.7925 134.2C30.4069 134.219 32.992 134.205 35.5868 134.205ZM17.4769 56.7814C16.0545 56.789 14.6574 57.1586 13.4174 57.8555C12.1773 58.5523 11.135 59.5534 10.3889 60.7644C8.64753 63.374 8.63775 66.2631 9.18713 69.1375C10.021 73.5081 12.2038 77.2556 15.0733 80.6255C15.9023 81.6065 16.0249 81.6065 16.8588 80.7088C18.5707 78.8351 20.2188 76.9122 21.916 75.0287C22.4703 74.4204 22.2153 74.0476 21.6855 73.6503C20.7045 72.89 19.7725 72.0757 18.8013 71.3105C17.9134 70.614 16.9814 69.9665 16.0985 69.2651C15.8245 69.0003 15.575 68.7114 15.353 68.4018C15.6963 68.132 16.0103 67.7052 16.3929 67.6267C16.8923 67.5371 17.4073 67.6075 17.8644 67.8279C18.7524 68.3449 19.6105 68.9115 20.4347 69.5251C21.7003 70.408 22.8481 71.5558 24.2362 72.1542C27.0371 73.3658 29.8526 72.4878 30.5394 69.1326C30.7668 68.0915 30.7454 67.0114 30.477 65.9801C30.2085 64.9488 29.7005 63.9954 28.9942 63.1974C26.8973 60.7424 24.2123 58.859 21.1901 57.7232C19.9762 57.3218 18.7353 57.0071 17.4769 56.7814ZM24.8346 44.2242C21.2931 44.1653 19.1888 45.0826 17.261 47.6578C16.7239 48.3257 16.3279 49.0957 16.0969 49.9211C15.8659 50.7465 15.8047 51.6102 15.917 52.4599C16.0789 53.6372 16.3241 53.7745 17.5112 53.8923C18.6984 53.9536 19.8758 54.141 21.0233 54.4515C25.5655 55.923 29.4259 58.4295 32.1434 62.4763C32.2947 62.7417 32.5106 62.9644 32.7712 63.1238C33.5281 63.4311 34.3663 63.4748 35.1511 63.2479C35.9358 63.021 36.6214 62.5367 37.0976 61.873C37.2459 61.66 37.4098 61.4583 37.5881 61.2696C39.663 59.0819 39.923 56.492 39.0597 53.7696C38.444 51.8333 37.3666 50.0758 35.9203 48.6486C32.8595 45.5535 29.0825 44.2879 24.8248 44.2242H24.8346ZM35.0668 35.1692C33.4189 35.0757 31.7828 35.4993 30.3873 36.3808C28.9157 37.2637 27.5963 38.3429 27.2921 40.2461C27.1303 41.2271 27.1008 41.2271 28.126 41.4037C32.2758 42.1297 35.9743 43.7435 38.731 47.0348C40.7862 49.4874 42.4589 52.146 42.3805 55.5355C42.4072 55.8207 42.4715 56.1011 42.5718 56.3694C42.7874 56.2459 42.9925 56.1048 43.1849 55.9475C44.8952 54.2896 46.6005 52.6251 48.301 50.9541C48.4838 50.7727 48.6274 50.5556 48.7228 50.3164C49.7823 47.7216 49.9148 45.1561 48.1882 42.7869C47.2671 41.4787 46.2384 40.2498 45.1126 39.113C42.4785 36.5427 39.3098 35.1888 35.057 35.1692H35.0668ZM52.6028 47.7461C52.3183 48.3102 52.4802 48.4671 53.0933 48.3543C54.5649 48.0747 55.5459 47.1231 56.4681 46.0342C58.1326 44.0525 59.8118 42.0904 61.5057 40.148C63.7376 37.5629 65.9988 35.0073 68.2258 32.4174C71.1689 28.9838 74.0777 25.5502 77.0012 22.1558L83.2749 14.8569L90.564 6.39546C90.9662 5.90494 91.3439 5.41443 91.7559 4.96315C91.8411 4.88123 91.9088 4.78296 91.9551 4.67423C92.0014 4.5655 92.0252 4.44855 92.0252 4.33038C92.0252 4.21222 92.0014 4.09526 91.9551 3.98654C91.9088 3.87781 91.8411 3.77954 91.7559 3.69762C91.413 3.25025 90.9986 2.86245 90.5296 2.54981C90.3523 2.48804 90.1643 2.46314 89.9771 2.47663C89.7898 2.49013 89.6073 2.54174 89.4407 2.62829C89.1404 2.83207 88.8822 3.09189 88.6804 3.39349C85.6981 6.76498 82.7189 10.1381 79.7431 13.5129C77.9282 15.5681 76.0986 17.6087 74.2837 19.6689C72.2676 21.9547 70.2664 24.2601 68.2503 26.5361C67.1565 27.782 66.0332 28.9887 64.9394 30.2395C62.9773 32.491 61.0152 34.767 59.0139 37.0136C57.0959 39.1816 55.1437 41.3252 53.216 43.4884C52.9352 43.7544 52.7273 44.088 52.6122 44.4573C52.4972 44.8265 52.4787 45.2192 52.5587 45.5976C52.6416 46.3108 52.6531 47.0306 52.593 47.7461H52.6028ZM26.2522 75.2151C25.4723 74.8619 24.9572 75.3671 24.4422 75.9214C23.9272 76.4757 23.3435 77.0251 22.8186 77.6039C19.8755 80.874 16.9324 84.1343 13.9893 87.3848C12.9445 88.5326 11.9046 89.6902 10.8353 90.8184C10.4232 91.2501 10.5115 91.4463 10.9923 91.7357C11.9274 92.2841 12.8254 92.8937 13.6803 93.5604C14.7153 94.3992 14.7202 94.4875 15.6424 93.4378C17.7908 90.9852 19.9 88.5032 22.0191 86.0261C24.1381 83.549 26.3062 80.9786 28.4645 78.4721C30.7307 75.8429 32.9821 73.2088 35.3023 70.6238C36.2441 69.5839 36.7738 68.5833 35.9694 67.2343C35.8365 66.9529 35.7774 66.6423 35.7977 66.3318C35.7977 65.6205 35.5034 65.3949 34.8167 65.6352C34.6177 65.6936 34.4108 65.7201 34.2035 65.7137C33.5119 65.7137 33.3696 66.062 33.404 66.7193C33.4847 67.6343 33.4468 68.556 33.2912 69.4613C32.5309 72.9342 30.6914 75.1954 26.2424 75.2396L26.2522 75.2151Z" fill="#122224"/>
<path d="M67.1954 61.2746C66.8472 68.7206 64.841 75.2151 60.3282 80.7726C58.5456 82.942 56.4076 84.7931 54.0054 86.2468C53.1684 86.7647 52.3625 87.3314 51.592 87.944C50.611 88.7386 50.611 88.925 51.4351 89.9061C51.6552 90.113 51.8118 90.3785 51.8864 90.6713C52.2298 94.0656 52.578 97.46 52.8674 100.859C52.9852 102.331 52.9067 102.375 51.5087 102.856C48.3669 103.924 45.0876 104.533 41.7719 104.666C38.2618 104.806 34.7466 104.575 31.2847 103.979C29.9946 103.763 29.7395 103.488 29.9652 102.243C30.5406 99.4011 30.8265 96.5086 30.8186 93.6095C30.7902 93.3288 30.861 93.0471 31.0188 92.8132C31.1765 92.5793 31.4111 92.408 31.682 92.3292C31.8744 92.2278 32.0419 92.0851 32.1725 91.9112C32.3032 91.7373 32.3936 91.5367 32.4374 91.3237C32.5061 90.7596 31.9125 90.7007 31.4563 90.5339C29.2343 89.6951 27.0417 88.7975 24.8 87.9685C24.0691 87.6938 24.074 87.3603 24.5106 86.8501C25.2218 86.0261 25.9282 85.202 26.6394 84.3975C30.3772 80.1006 34.1346 75.8233 37.8282 71.492C37.9816 71.2563 38.2172 71.0861 38.4892 71.0145C38.7612 70.9429 39.0501 70.975 39.2997 71.1045C40.4284 71.4495 41.5745 71.7344 42.7333 71.958C43.3759 72.0757 43.4789 72.2572 43.2729 72.8753C42.6738 74.4149 42.2029 76.0014 41.8651 77.6186C41.5021 79.8799 41.9191 82.1461 42.4832 84.3583C42.5931 84.7028 42.8031 85.0068 43.0865 85.2314C43.2038 85.3568 43.3574 85.4425 43.5257 85.4764C43.694 85.5102 43.8687 85.4907 44.0254 85.4205C44.1821 85.3502 44.313 85.2328 44.3997 85.0846C44.4864 84.9364 44.5246 84.7648 44.509 84.5938C44.509 84.1032 44.3226 83.5784 44.2932 83.0633C44.0715 79.4257 44.8 75.7929 46.4073 72.5221C46.5312 72.269 46.7146 72.0497 46.9419 71.8831C47.1692 71.7165 47.4334 71.6076 47.7121 71.5656C50.2429 70.9624 52.602 69.7879 54.6087 68.132C55.3617 67.428 56.0331 66.6415 56.6101 65.7873C56.9044 65.39 57.2232 64.8063 56.7425 64.3697C56.2618 63.9332 55.683 64.3158 55.2121 64.615C54.9585 64.7956 54.7251 65.0028 54.5156 65.233C51.6411 68.0682 48.08 69.3681 44.1558 69.6183C42.8658 69.6967 41.5071 69.2357 40.2317 68.853C38.4806 68.3282 37.9704 66.2631 38.4462 64.8848C38.7725 63.7209 39.4595 62.6905 40.4083 61.9417C42.9541 60.1218 45.078 57.8409 47.2755 55.6434C48.9727 53.9511 50.7827 52.3619 53.0588 51.528C54.6977 50.8923 56.4072 50.4559 58.1503 50.2281C61.6575 49.8553 64.7183 52.0774 66.082 55.7415C66.3973 56.5641 66.6402 57.4126 66.8079 58.2775C67.0188 59.3812 67.0973 60.5192 67.1954 61.2746Z" fill="white"/>
<path d="M116.129 61.657C113.24 60.5092 110.336 59.4055 107.461 58.2234C98.3049 54.4464 89.1617 50.6547 80.0315 46.8483C75.195 44.847 70.3487 42.8751 65.5073 40.8787C64.433 40.4323 64.4576 40.4274 65.1983 39.5641C67.5282 36.8564 69.8336 34.1292 72.1636 31.4215C74.3954 28.8365 76.6567 26.2711 78.8935 23.686C81.297 20.9097 83.6858 18.1187 86.0894 15.3472C87.7179 13.4686 89.3317 11.5801 90.9945 9.73573C91.7499 8.90675 91.9756 8.95581 92.4023 9.94665C94.0995 13.6746 95.7672 17.4123 97.4546 21.1452C98.627 23.74 99.7944 26.3397 100.996 28.9248C104.057 35.5075 107.128 42.0837 110.208 48.6534C112.043 52.5971 113.869 56.5491 115.687 60.5092C115.859 60.882 115.977 61.2793 116.124 61.6668L116.129 61.657Z" fill="#6200EE"/>
<path d="M35.5866 134.205C32.9918 134.205 30.3969 134.205 27.8021 134.205C26.5267 134.205 26.409 134.127 26.4581 132.9C26.6101 129.123 26.8309 125.356 27.0222 121.584C27.0222 121.378 27.0565 121.172 27.0615 120.961C27.1694 118.116 27.2756 115.271 27.3802 112.426C27.4244 111.254 27.4244 111.259 28.5085 111.533C29.1118 111.685 29.7298 111.779 30.3233 111.945C31.0052 112.132 31.6526 112.097 31.8538 111.352C32.0549 110.606 31.275 110.464 30.7992 110.243C29.9555 109.856 29.0627 109.566 28.2043 109.203C26.7327 108.659 25.3946 107.806 24.2802 106.702C22.6075 104.901 22.6664 102.684 24.5451 101.12C25.3039 100.582 26.11 100.114 26.9535 99.7216C27.3852 99.4715 27.6942 99.6284 27.704 100.094C27.708 100.811 27.6654 101.527 27.5765 102.238C27.3956 102.327 27.1895 102.351 26.9928 102.307C26.5023 102.11 26.0117 102.047 25.7861 102.567C25.7166 102.775 25.6895 102.995 25.7064 103.214C25.7232 103.433 25.7837 103.647 25.8842 103.842C26.1216 104.278 26.4469 104.66 26.8395 104.964C27.2321 105.268 27.6835 105.487 28.1651 105.608C30.4804 106.147 32.7907 106.746 35.1354 107.109C36.9814 107.363 38.8445 107.473 40.7076 107.437C44.9117 107.424 49.0808 106.672 53.0245 105.215C54.1721 104.807 55.2238 104.167 56.1148 103.337C57.0468 102.473 57.0468 102.007 56.051 101.272C55.7554 100.97 55.5447 100.596 55.4405 100.187C55.3363 99.7774 55.3421 99.3479 55.4575 98.9417C55.5112 98.8623 55.5847 98.7984 55.6707 98.7562C55.7568 98.7141 55.8523 98.6952 55.948 98.7013C57.6648 99.0153 59.0824 99.8099 59.8329 101.463C60.1116 102.173 60.1457 102.956 59.9299 103.688C59.714 104.42 59.2605 105.059 58.641 105.505C57.5087 106.314 56.3165 107.035 55.0749 107.663C54.7416 107.81 54.3971 107.929 54.0448 108.021C53.5542 108.208 53.0343 108.409 53.0637 109.051C53.0637 109.542 53.8388 109.934 54.5696 109.831C55.0824 109.746 55.5887 109.626 56.0853 109.473C56.6151 109.331 56.8113 109.542 56.9192 110.062C57.9003 114.884 58.8813 119.695 59.8624 124.517C60.3529 126.847 60.7256 129.197 61.1818 131.537C61.3192 132.253 61.1426 132.591 60.3675 132.665C57.2282 132.954 54.0938 133.371 50.9496 133.582C45.8384 133.93 40.7174 134.151 35.5964 134.426L35.5866 134.205Z" fill="#9FE5F3"/>
<path d="M17.4762 56.7812C18.738 57.0065 19.9821 57.3212 21.1992 57.723C24.2214 58.8589 26.9064 60.7423 29.0033 63.1972C29.7096 63.9953 30.2176 64.9487 30.4861 65.98C30.7546 67.0113 30.7759 68.0914 30.5485 69.1325C29.8618 72.4876 27.0461 73.3657 24.2453 72.1541C22.8571 71.5556 21.7093 70.4078 20.4438 69.5249C19.6196 68.9113 18.7614 68.3447 17.8735 67.8277C17.4164 67.6073 16.9014 67.5369 16.4019 67.6266C16.0193 67.7051 15.7054 68.1171 15.362 68.4016C15.5841 68.7112 15.8336 69.0002 16.1076 69.2649C16.9906 69.9664 17.9225 70.6138 18.8104 71.3104C19.7914 72.0756 20.7185 72.8898 21.6946 73.6501C22.2244 74.0622 22.4794 74.4203 21.9251 75.0285C20.228 76.9121 18.5799 78.8349 16.8679 80.7087C16.0341 81.6211 15.9114 81.6014 15.0825 80.6253C12.2276 77.2554 10.0448 73.5079 9.19625 69.1374C8.64687 66.263 8.65665 63.3738 10.398 60.7643C11.1433 59.5547 12.184 58.5544 13.4222 57.8577C14.6604 57.1609 16.0554 56.7905 17.4762 56.7812Z" fill="white"/>
<path d="M24.8248 44.2243C29.0825 44.2881 32.8791 45.5536 35.9252 48.639C37.3714 50.0661 38.4488 51.8237 39.0645 53.76C39.9082 56.4824 39.6482 59.0723 37.5929 61.26C37.4147 61.4487 37.2507 61.6503 37.1024 61.8633C36.6263 62.5271 35.9407 63.0113 35.1559 63.2382C34.3712 63.4651 33.5329 63.4214 32.776 63.1141C32.5155 62.9548 32.2995 62.732 32.1482 62.4667C29.4308 58.4199 25.5704 55.9379 21.0282 54.4418C19.8806 54.1314 18.7033 53.9439 17.516 53.8826C16.329 53.7649 16.0837 53.6275 15.9219 52.4503C15.8095 51.6006 15.8707 50.7369 16.1017 49.9115C16.3327 49.0861 16.7288 48.3161 17.2659 47.6481C19.1789 45.0827 21.2832 44.1655 24.8248 44.2243Z" fill="white"/>
<path d="M35.0564 35.1697C39.3091 35.1697 42.4779 36.5529 45.1021 39.0938C46.2279 40.2307 47.2567 41.4596 48.1777 42.7678C49.9043 45.137 49.7719 47.7024 48.7123 50.2972C48.6169 50.5365 48.4733 50.7535 48.2905 50.9349C46.5933 52.6092 44.888 54.2737 43.1744 55.9284C42.982 56.0856 42.7769 56.2267 42.5613 56.3502C42.461 56.0819 42.3967 55.8015 42.37 55.5163C42.4485 52.1269 40.7758 49.4634 38.7205 47.0157C35.9638 43.7243 32.2653 42.1105 28.1155 41.3845C27.0903 41.2079 27.1345 41.2129 27.2817 40.2269C27.5858 38.3482 28.9102 37.2446 30.3768 36.3616C31.7746 35.487 33.4105 35.0703 35.0564 35.1697Z" fill="white"/>
<path d="M52.5943 47.7457C52.656 47.0303 52.6462 46.3106 52.5649 45.5972C52.4849 45.2188 52.5034 44.8261 52.6184 44.4569C52.7335 44.0876 52.9414 43.754 53.2222 43.488C55.1499 41.3248 57.1021 39.1812 59.0201 37.0131C61.0067 34.7666 62.9442 32.4906 64.9456 30.2391C66.0394 28.9981 67.1627 27.7865 68.2566 26.5357C70.2726 24.245 72.2739 21.9395 74.2899 19.6685C76.1048 17.6083 77.9344 15.5677 79.7493 13.5125C82.7317 10.1377 85.7108 6.76457 88.6866 3.39308C88.8885 3.09148 89.1466 2.83166 89.4469 2.62788C89.6135 2.54132 89.796 2.48972 89.9833 2.47622C90.1705 2.46273 90.3585 2.48763 90.5358 2.54939C91.0049 2.86204 91.4192 3.24984 91.7621 3.69721C91.8473 3.77913 91.915 3.8774 91.9613 3.98613C92.0076 4.09485 92.0314 4.21181 92.0314 4.32997C92.0314 4.44814 92.0076 4.56509 91.9613 4.67382C91.915 4.78255 91.8473 4.88082 91.7621 4.96274C91.3501 5.42873 90.9724 5.94378 90.5702 6.39505L83.2811 14.8565L77.0074 22.1407C74.0643 25.5743 71.1702 29.0079 68.232 32.4023C66.0051 34.9922 63.7438 37.5478 61.5119 40.1328C59.8213 42.0949 58.1421 44.057 56.4743 46.019C55.557 47.108 54.5858 48.0596 53.0996 48.3392C52.4815 48.4667 52.3098 48.3147 52.5943 47.7457Z" fill="white"/>
<path d="M26.2443 75.2396C30.6932 75.1955 32.5327 72.9342 33.2684 69.4908C33.424 68.5855 33.462 67.6638 33.3813 66.7488C33.347 66.0915 33.4892 65.7677 34.1808 65.7432C34.388 65.7496 34.595 65.7231 34.7939 65.6647C35.4709 65.4244 35.775 65.6647 35.775 66.3613C35.7547 66.6718 35.8139 66.9824 35.9467 67.2638C36.7561 68.6128 36.2214 69.6134 35.2796 70.6533C32.9595 73.2285 30.708 75.8626 28.4418 78.5016C26.2835 81.0081 24.1448 83.5392 21.9964 86.0556C19.8479 88.5719 17.7681 91.0196 15.6196 93.4673C14.6975 94.517 14.6926 94.4483 13.6576 93.5899C12.8027 92.9232 11.9047 92.3136 10.9695 91.7652C10.479 91.4758 10.4006 91.2747 10.8126 90.8479C11.8819 89.7246 12.9218 88.567 13.9666 87.4143C16.9097 84.1442 19.8528 80.8839 22.7959 77.6334C23.3208 77.0546 23.8898 76.5248 24.4195 75.9509C24.9493 75.377 25.4643 74.8865 26.2443 75.2396Z" fill="white"/>
</svg>
