<svg width="121" height="167" viewBox="0 0 121 167" fill="none" xmlns="http://www.w3.org/2000/svg">
<path d="M11.649 105.333C15.3103 105.333 18.7691 106.226 22.1452 107.491C23.7093 107.948 25.2094 109.178 26.8974 109.022C31.1724 107.938 35.6188 107.763 40.0135 107.734C43.057 107.734 46.1357 108.632 49.1626 108.315C50.985 107.845 52.7888 107.309 54.6008 106.796C55.2661 106.609 55.2971 106.467 54.8074 105.894C51.2949 101.793 49.8258 96.432 49.6585 91.1344C48.8857 83.0717 59.7518 75.4746 62.3366 86.5539C64.4441 97.5261 81.0955 94.8474 88.7961 108.076C90.4444 110.737 91.498 113.721 91.8851 116.825C92.1764 118.042 91.6888 119.569 92.5049 120.6C94.4778 122.245 96.2929 124.07 97.9266 126.052C98.8336 127.35 101.365 125.291 102.846 125.337C105.78 124.756 107.421 128.819 105.239 131.201C104.914 131.679 105.003 132.004 105.458 132.355C106.84 133.416 108.218 134.483 109.549 135.606C111.02 136.842 112.472 138.114 113.865 139.441C115.894 141.373 117.863 143.368 119.857 145.342C120.345 145.787 121.033 146.459 120.584 147.114C119.824 147.592 119.113 146.702 118.545 146.269C115.522 143.737 112.541 141.153 109.468 138.682C107.131 136.768 104.534 135.155 102.179 133.274C99.8481 131.693 105.58 128.277 102.774 128.139C102.09 128.218 101.428 128.428 100.823 128.757C95.0773 131.885 90.1288 136.156 85.2051 140.407C82.174 143.38 78.4796 145.991 76.4155 149.766C75.463 151.664 78.3557 152.278 79.7214 151.888C81.4178 151.53 82.0128 151.748 82.8496 153.125C84.4199 156.09 89.5523 163.196 88.5234 166.256C86.887 165.638 86.4035 163.33 85.3849 161.997C84.0811 159.784 82.7628 157.579 81.4777 155.358C80.4301 153.139 77.302 156.005 74.8019 153.092C73.5332 151.75 73.1489 149.929 74.0043 148.286C76.5147 144.4 75.6738 145.95 73.1386 142.55C72.7253 142.023 72.3348 141.792 71.6261 141.994C65.5185 143.642 59.01 143.207 53.0119 141.326C44.1438 138.647 36.3998 133.546 28.6124 128.708C26.2363 127.622 23.1019 124.125 20.5976 124.57C15.6884 125.328 10.5085 127.028 5.65296 125.153C2.30161 123.853 0.059805 120.987 2.55369 117.639C3.17354 116.705 3.20453 116.67 2.21897 116.042C-3.29154 112.108 2.61566 106.357 7.4278 105.78C8.80388 105.517 10.2378 105.48 11.649 105.333ZM11.897 107.54C8.73776 108.033 5.11987 108.049 3.00203 110.837C0.468893 114.649 7.58689 115.461 9.89688 116.499C14.3454 117.876 18.6926 119.489 22.6824 121.922C36.8936 130.199 51.8507 142.956 69.4071 139.628C72.0931 139.031 74.7296 138.213 77.3908 137.494C78.3888 136.95 80.3206 137.121 79.3764 138.635C78.2751 139.628 76.6903 140.077 75.3866 140.768C74.1469 141.083 76.461 143.049 76.7193 143.815C76.9693 144.192 77.1966 144.176 77.4817 143.883C83.174 138.227 89.1453 132.822 95.8376 128.347C96.6311 127.828 96.5649 127.729 95.8376 127.049C94.8975 126.183 94.0173 125.25 93.1165 124.341C92.6785 124.086 91.7838 122.361 91.3416 123.284C91.1743 124.022 90.7218 124.951 89.8953 124.943C89.4015 124.881 89.4469 124.399 89.4821 123.948C91.5482 108.873 79.9405 101.694 67.6673 96.7658C63.8222 95.1483 60.9709 92.074 60.0865 87.9612C59.4667 85.9626 58.6588 82.4206 55.8488 83.9474C54.4562 84.6274 53.5408 85.7668 52.9747 87.1391C50.9085 93.2567 53.421 100.141 56.9149 105.259C58.0472 107.114 63.3573 104.828 65.4896 105.797C68.1281 107.519 61.2932 107.956 60.3737 108.253C55.3756 108.982 39.6664 113.081 37.3564 117.097C37.4969 117.684 37.061 117.715 36.6891 117.534C29.0628 112.848 21.1658 107.835 11.897 107.54ZM10.2874 123.554C12.6449 123.21 15.0024 122.868 17.3579 122.514C17.4632 122.497 17.6285 122.369 17.6327 122.287C17.579 121.999 17.1864 121.834 16.9322 121.731C13.2524 120.431 9.57457 119.126 5.88437 117.855C5.73979 117.811 5.5874 117.798 5.43739 117.817C5.28737 117.836 5.14318 117.887 5.01449 117.966C1.47099 121.465 7.25217 123.703 10.2874 123.554ZM44.241 110.046C39.2326 109.986 34.2245 110.183 29.2364 110.635C31.0463 112.164 33.1435 113.338 35.0341 114.77C35.5568 115.145 35.8957 115.069 36.3606 114.698C38.7305 112.671 41.5405 111.587 44.241 110.046Z" fill="black"/>
<path d="M11.8966 107.54C21.1676 107.837 29.0604 112.846 36.6908 117.535C37.0628 117.706 37.4987 117.686 37.3582 117.099C37.2177 116.511 37.5855 116.274 37.9905 116.044C44.9246 111.939 52.4703 109.584 60.3755 108.255C61.295 107.958 68.1382 107.515 65.4914 105.799C63.3529 104.83 58.0345 107.122 56.9167 105.261C53.4228 100.141 50.902 93.2587 52.9765 87.1411C53.5426 85.7688 54.458 84.6293 55.8506 83.9493C58.6606 82.4246 59.4726 85.9645 60.0863 87.9653C60.9726 92.0863 63.824 95.142 67.6712 96.7677C79.9319 101.696 91.5542 108.883 89.4839 123.952C89.4446 124.401 89.3992 124.883 89.8971 124.945C90.7236 124.945 91.1864 124.026 91.3434 123.286C91.8414 122.38 92.6369 124.059 93.1183 124.343C94.0192 125.252 94.8993 126.185 95.8395 127.051C96.5709 127.725 96.637 127.83 95.8395 128.349C89.1471 132.824 83.1758 138.229 77.4835 143.885C77.1984 144.178 76.9711 144.194 76.7211 143.817C76.4938 143.102 74.1259 141.056 75.3884 140.77C76.5785 139.978 79.8513 139.414 79.5848 137.662C79.1013 136.863 78.1095 137.263 77.3926 137.496C74.7313 138.215 72.0949 139.033 69.4089 139.63C51.8463 142.956 36.9036 130.203 22.6842 121.924C18.6944 119.491 14.3471 117.878 9.89863 116.501C7.49566 115.442 0.530552 114.665 3.00377 110.839C5.12368 108.049 8.73538 108.032 11.8966 107.54ZM83.5932 116.886C73.3056 109.081 53.6335 112.306 44.2861 120.583C42.9348 121.959 44.1766 122.849 45.2201 121.819C54.7245 115.654 67.0266 113.037 77.9939 116.48C79.2129 116.546 83.7192 119.007 83.5973 116.886H83.5932Z" fill="white"/>
<path d="M10.2873 123.554C7.25411 123.705 1.46878 121.465 5.01435 117.966C5.14304 117.887 5.28724 117.836 5.43725 117.817C5.58727 117.798 5.73966 117.811 5.88424 117.855C9.57445 119.126 13.2523 120.43 16.9321 121.731C17.1883 121.834 17.5789 121.998 17.6326 122.287C17.6326 122.369 17.4631 122.493 17.3578 122.514C15.0023 122.868 12.6427 123.21 10.2873 123.554Z" fill="white"/>
<path d="M44.2409 110.046C41.5425 111.587 38.7283 112.671 36.3605 114.698C35.8956 115.069 35.5568 115.145 35.034 114.77C33.1435 113.328 31.0463 112.164 29.2363 110.635C34.2245 110.183 39.2326 109.986 44.2409 110.046Z" fill="white"/>
<path d="M83.5972 116.887C83.7253 119.009 79.1756 116.538 77.9978 116.474C67.0305 113.031 54.7347 115.65 45.224 121.813C44.2178 122.831 42.912 121.966 44.2901 120.577C53.6272 112.31 73.3076 109.079 83.5972 116.887Z" fill="black"/>
<path d="M42.3979 82.0343C42.0945 91.5545 20.3739 107.565 12.9213 98.5647C11.9461 96.9351 11.0115 95.2743 9.91511 93.7295C7.89735 90.795 9.19111 87.1573 11.4356 84.8103C15.5765 79.6552 32.7656 65.6997 38.4898 73.3531C39.8896 76.0429 42.9235 78.8433 42.3979 82.0343ZM36.5959 76.6142C37.5028 66.2491 14.3274 82.6092 12.835 86.1911C12.6835 87.4746 11.6258 88.3217 11.3352 89.5664C10.3234 93.8479 15.4605 93.8387 18.301 92.9708C25.6408 90.9794 34.8601 84.3153 36.5959 76.6142ZM40.0071 81.9883C40.2795 80.591 39.7921 79.1653 38.9695 78.0342C34.8 87.9229 24.7636 95.3167 13.9739 95.7873C15.1069 97.6663 15.943 99.0976 18.3241 98.9628C26.5147 98.7203 38.5147 90.2135 40.0073 81.9854L40.0071 81.9883Z" fill="black"/>
<path d="M36.5964 76.6138C34.8636 84.3152 25.6411 90.9819 18.2872 92.9691C15.4672 93.836 10.3209 93.8501 11.3214 89.5647C11.612 88.32 12.6755 87.4734 12.8212 86.1895C14.3029 82.6298 37.5026 66.2255 36.5964 76.6138Z" fill="white"/>
<path d="M40.0081 81.9849C38.5223 90.202 26.5183 98.7201 18.3248 98.9623C15.9354 99.0934 15.1129 97.6721 13.9747 95.7868C24.7644 95.3162 34.8011 87.9195 38.9702 78.0338C39.7931 79.162 40.2805 80.5876 40.0081 81.9849Z" fill="#8850EA"/>
<path d="M65.6057 59.6583C58.3183 65.8319 31.8846 60.5175 33.6016 48.9517C34.1623 47.1366 34.7763 45.3228 35.1899 43.4762C36.0241 40.012 39.5936 38.5221 42.8408 38.6058C49.4434 38.2063 71.3185 41.5486 69.4519 50.9294C68.377 53.7726 68.3241 57.8939 65.6057 59.6583ZM65.7565 51.7146C74.0867 45.4104 46.4086 39.2655 42.7501 40.5653C41.6855 41.3096 40.3561 41.1023 39.2345 41.7246C35.3632 43.8444 38.8129 47.6472 41.3498 49.1561C47.7437 53.2608 58.864 55.6061 65.7546 51.7168L65.7565 51.7146ZM64.038 57.8504C65.2626 57.1103 65.9966 55.7925 66.2935 54.4189C56.1461 57.9811 43.9267 55.5316 36.364 47.8489C35.7228 49.9509 35.2165 51.5298 36.9109 53.2022C42.5695 59.1124 56.919 62.2759 64.038 57.8504Z" fill="black"/>
<path d="M65.7546 51.7167C58.8664 55.612 47.7398 53.265 41.3498 49.1561C38.819 47.6448 35.3697 43.8502 39.2345 41.7245C40.3562 41.1022 41.692 41.3154 42.7502 40.5652C46.3853 39.2482 74.0905 45.4019 65.7546 51.7167Z" fill="white"/>
<path d="M64.038 57.8504C56.9332 62.2731 42.5637 59.1189 36.9114 53.2145C35.2147 51.536 35.7216 49.9695 36.3646 47.8612C43.9209 55.5381 56.1403 57.9875 66.2942 54.4311C65.9966 55.7924 65.2627 57.1102 64.038 57.8504Z" fill="#8850EA"/>
<path d="M35.2392 10.0805C39.1964 18.7452 26.8607 42.7604 16.1879 38.0126C14.5865 36.9811 13.024 35.9245 11.349 35.0195C8.23918 33.2884 7.77153 29.4615 8.74524 26.3531C10.166 19.8912 19.3574 -0.26475 27.8813 4.04115C30.3272 5.83859 34.2864 6.98853 35.2392 10.0805ZM27.6286 7.80926C23.8293 -1.89539 10.3513 23.0921 10.6077 26.9657C11.0461 28.1821 10.4624 29.4171 10.759 30.6491C11.7553 34.9332 16.3487 32.64 18.4926 30.6002C24.2013 25.5578 29.4962 15.4818 27.6286 7.80926ZM33.0719 11.1042C32.6934 9.729 31.6243 8.66768 30.3946 8.01558C31.055 18.7336 25.3505 29.8225 15.8995 35.0533C17.7498 36.2305 19.134 37.144 21.206 35.9616C28.4242 32.1027 35.3902 19.1397 33.0719 11.1042Z" fill="black"/>
<path d="M27.6281 7.80928C29.4966 15.4778 24.2007 25.5579 18.4999 30.6124C16.3617 32.6451 11.7593 34.951 10.7647 30.6589C10.4716 29.4109 11.0431 28.1838 10.6135 26.9755C10.3414 23.1258 23.8241 -1.90267 27.6281 7.80928Z" fill="white"/>
<path d="M33.0713 11.1041C35.3906 19.1251 28.4251 32.1049 21.1955 35.9678C19.1155 37.1485 17.7465 36.2423 15.8891 35.0594C25.3479 29.8408 31.0446 18.7397 30.3842 8.02169C31.6236 8.66751 32.6927 9.72883 33.0713 11.1041Z" fill="#8850EA"/>
</svg>
