<svg width="112" height="129" viewBox="0 0 112 129" fill="none" xmlns="http://www.w3.org/2000/svg">
<g clip-path="url(#clip0_319_210)">
<path d="M7.63438 83.9976H25.4528V40.7328L3.86949e-07 21.6506V76.3628C-0.000318863 77.3653 0.196912 78.358 0.580432 79.2843C0.963952 80.2106 1.52625 81.0523 2.23519 81.7612C2.94414 82.4702 3.78586 83.0327 4.71227 83.4164C5.63867 83.8001 6.63161 83.9976 7.63438 83.9976Z" fill="#4285F4"/>
<path d="M86.5449 83.9976H104.363C105.366 83.9976 106.359 83.8001 107.285 83.4164C108.212 83.0327 109.054 82.4702 109.763 81.7612C110.471 81.0523 111.034 80.2106 111.417 79.2843C111.801 78.358 111.998 77.3653 111.998 76.3628V21.6506L86.5449 40.7328V83.9976Z" fill="#34A853"/>
<path d="M86.5449 7.65428V40.7328L111.998 21.6482V11.4717C111.998 2.03629 101.225 -3.35084 93.6713 2.31088L86.5449 7.65428Z" fill="#FBBC04"/>
<path fill-rule="evenodd" clip-rule="evenodd" d="M25.4526 40.7328V7.6543L55.9974 30.5563L86.5447 7.6543V40.7328L55.9974 63.6397L25.4526 40.7328Z" fill="#EA4335"/>
<path d="M0 11.4716V21.6506L25.4528 40.7328V7.65423L18.3264 2.30839C10.7722 -3.35576 0 2.03381 0 11.4692V11.4716Z" fill="#C5221F"/>
</g>
<g clip-path="url(#clip1_319_210)">
<path d="M32.3448 104.009L29.8815 106.453C29.0491 105.51 28.0258 104.76 26.8812 104.253C20.4916 101.411 13.0229 104.84 11.7131 112.157C10.9776 116.264 11.889 119.976 15.0166 122.918C16.8333 124.626 18.9997 125.523 21.4879 125.676C23.8871 125.824 26.1507 125.431 28.2044 124.115C30.7195 122.504 31.9951 120.118 32.3882 117.189C32.44 116.805 32.2196 116.802 31.9579 116.802C30.8902 116.802 29.8214 116.802 28.7507 116.802C26.8201 116.802 24.8906 116.788 22.957 116.812C22.4925 116.818 22.358 116.668 22.3797 116.215C22.4128 115.519 22.4004 114.822 22.3797 114.126C22.3714 113.782 22.4625 113.618 22.839 113.619C26.9574 113.627 31.0754 113.627 35.193 113.619C35.7662 113.619 35.7237 114.038 35.7331 114.37C35.761 115.361 35.8158 116.361 35.7268 117.343C35.5199 119.611 34.8712 121.743 33.4911 123.586C31.2533 126.571 28.312 128.352 24.6113 128.835C21.3306 129.262 18.1731 128.904 15.2825 127.207C11.2641 124.846 8.77389 121.348 8.15211 116.656C7.64619 112.841 8.30419 109.227 10.5948 106.053C12.965 102.77 16.0956 100.691 20.1346 100.158C24.0961 99.6344 27.7699 100.376 31.0257 102.814C31.5109 103.171 31.9216 103.62 32.3448 104.009Z" fill="#5F5F5F"/>
<path d="M43.1125 112.085C44.6375 110.02 46.597 108.794 49.1959 108.838C51.7948 108.882 53.7408 110.026 54.9513 112.473C55.1841 112.174 55.3651 111.933 55.5565 111.694C57.0049 109.856 58.8672 108.875 61.2095 108.826C62.7779 108.794 64.2698 109.02 65.5702 109.973C67.1521 111.132 67.8763 112.791 68.1039 114.687C68.195 115.586 68.2344 116.49 68.2219 117.393C68.2343 120.858 68.2219 124.323 68.2364 127.788C68.2364 128.263 68.1132 128.436 67.626 128.408C66.939 128.367 66.2479 128.398 65.5568 128.398C64.8657 128.398 64.8678 128.398 64.8678 127.718C64.8678 124.27 64.8864 120.823 64.8543 117.376C64.8464 116.474 64.7484 115.575 64.5615 114.693C64.2056 113.024 63.1359 112.145 61.4505 111.995C58.5651 111.736 56.3428 113.448 55.8234 116.372C55.7048 117.074 55.646 117.785 55.6476 118.497C55.6289 121.56 55.6403 124.624 55.6393 127.688C55.6393 128.397 55.6393 128.397 54.9151 128.398C54.2436 128.398 53.5701 128.368 52.8997 128.407C52.4083 128.435 52.2521 128.284 52.2552 127.771C52.2758 124.202 52.2852 120.633 52.2552 117.063C52.2454 116.213 52.1395 115.367 51.9396 114.542C51.5641 112.99 50.4912 112.132 48.9166 111.996C45.9504 111.732 43.6805 113.525 43.2026 116.525C43.1298 116.988 43.0932 117.456 43.0929 117.925C43.0836 121.215 43.0774 124.506 43.0991 127.796C43.0991 128.289 42.9532 128.425 42.4783 128.407C41.6869 128.371 40.8934 128.385 40.0988 128.407C39.7584 128.414 39.6508 128.284 39.6519 127.948C39.6581 121.942 39.6581 115.936 39.6519 109.929C39.6519 109.554 39.7915 109.446 40.1392 109.454C40.8978 109.469 41.6565 109.469 42.4152 109.454C42.7691 109.445 42.9139 109.569 42.8984 109.937C42.8777 110.46 42.888 110.984 42.8984 111.503C42.9107 111.683 42.9339 111.863 42.9677 112.041L43.1125 112.085Z" fill="#5F5F5F"/>
<path d="M71.9579 112.447C72.858 111.183 73.8988 110.228 75.2334 109.673C78.1385 108.463 81.0788 108.428 83.9425 109.757C86.1493 110.782 87.3918 112.625 87.7581 115.048C87.8389 115.633 87.877 116.223 87.8719 116.813C87.8822 120.452 87.8719 124.09 87.8884 127.728C87.8884 128.244 87.7726 128.445 87.2315 128.409C86.5073 128.362 85.7831 128.387 85.0588 128.402C84.7485 128.408 84.6305 128.288 84.6357 127.972C84.6502 127.246 84.6357 126.521 84.6357 125.795L84.4743 125.711C84.3181 125.884 84.1484 126.05 84.0067 126.234C82.9431 127.62 81.6023 128.574 79.8683 128.873C76.955 129.377 73.7777 128.373 72.1328 125.664C70.5561 123.068 70.9161 118.855 74.8444 117.023C76.7801 116.121 78.8286 116.037 80.9091 116.219C82.0957 116.317 83.2537 116.639 84.3233 117.168C84.4022 117.194 84.4846 117.207 84.5674 117.207C84.9657 115.217 83.8432 113.202 81.8516 112.315C79.7825 111.394 76.9332 111.8 75.311 113.886C75.0089 114.275 74.7875 114.297 74.3944 114.02C73.6277 113.479 72.8135 112.994 71.9579 112.447ZM80.0142 118.89C78.4954 118.834 77.075 119.204 75.8893 120.266C74.3695 121.628 74.4678 123.812 76.0869 125.052C76.834 125.621 77.7384 125.94 78.6734 125.963C81.4988 126.068 84.227 123.738 84.6253 120.909C84.6957 120.417 84.556 120.097 84.1132 119.845C82.849 119.122 81.4844 118.863 80.0142 118.89Z" fill="#5F5F5F"/>
<path d="M103.991 114.55C103.991 118.95 103.984 123.355 104.001 127.757C104.001 128.252 103.881 128.438 103.37 128.407C102.684 128.364 101.994 128.397 101.301 128.397C100.56 128.397 100.559 128.397 100.559 127.672V115.197C100.559 110.552 100.568 105.905 100.548 101.263C100.548 100.74 100.668 100.548 101.206 100.587C101.874 100.634 102.551 100.597 103.219 100.598C103.987 100.598 103.987 100.598 103.987 101.348L103.991 114.55Z" fill="#5F5F5F"/>
<path d="M92.3897 118.883C92.3897 115.941 92.4011 112.999 92.3794 110.057C92.3794 109.563 92.5346 109.423 93.0001 109.444C93.7057 109.477 94.4144 109.481 95.119 109.444C95.6187 109.418 95.7666 109.593 95.7645 110.095C95.747 113.803 95.7552 117.511 95.7552 121.219C95.7552 123.395 95.7428 125.572 95.7645 127.748C95.7645 128.231 95.6611 128.439 95.1345 128.409C94.3958 128.366 93.653 128.377 92.9132 128.409C92.4994 128.426 92.3815 128.279 92.3835 127.871C92.397 124.872 92.3897 121.884 92.3897 118.883Z" fill="#5F5F5F"/>
<path d="M91.6646 102.726C91.6708 101.389 92.8026 100.255 94.0959 100.283C94.7381 100.292 95.3506 100.559 95.7985 101.025C96.2465 101.491 96.4933 102.118 96.4847 102.769C96.4847 104.178 95.4315 105.22 94.0265 105.209C92.6774 105.196 91.6584 104.126 91.6646 102.726Z" fill="#5F5F5F"/>
</g>
<defs>
<clipPath id="clip0_319_210">
<rect width="112" height="84" fill="white"/>
</clipPath>
<clipPath id="clip1_319_210">
<rect width="96" height="29" fill="white" transform="translate(8 100)"/>
</clipPath>
</defs>
</svg>
