<svg width="154" height="158" viewBox="0 0 154 158" fill="none" xmlns="http://www.w3.org/2000/svg">
<path fill-rule="evenodd" clip-rule="evenodd" d="M19.5291 67.3822C20.7864 68.1387 21.9717 69.0124 23.0687 69.9929C25.335 71.912 27.3556 74.1035 29.0847 76.5179C29.3908 76.9518 29.6963 77.3822 30.0197 77.8131C30.7567 78.8477 31.5175 79.9172 32.2421 80.9823C33.8938 83.4707 35.347 86.0854 36.588 88.802C37.8746 91.5539 39.0775 94.4589 40.1664 97.4441C40.8417 99.2925 41.5816 101.144 42.3003 102.935L42.3022 102.94C42.7396 104.032 43.177 105.123 43.6006 106.218C45.4821 111.071 47.9975 115.655 51.0812 119.849C52.6188 121.906 54.3326 123.824 56.2033 125.583C58.4627 127.755 61.0075 129.609 63.7673 131.094C65.6176 132.092 67.5359 132.929 69.6728 133.839C70.8138 134.312 71.9872 134.703 73.1838 135.008C74.0164 135.241 74.8894 135.291 75.7432 135.155C76.1604 135.084 76.5663 134.957 76.9504 134.779L79.9119 133.41L79.9833 133.377C83.2092 131.887 86.5469 130.345 89.7552 128.682C94.2593 126.349 98.7787 123.879 103.148 121.488C104.559 120.713 105.966 119.942 107.368 119.176C108.948 118.317 110.618 117.4 112.328 116.425C112.356 116.43 112.383 116.435 112.411 116.44C112.618 116.482 112.832 116.527 113.049 116.592L113.102 116.611L113.158 116.629C114.449 117.036 115.803 117.462 116.822 118.633C117.642 119.571 117.645 120.653 116.821 121.481L116.62 121.675C115.742 122.594 114.785 123.435 113.759 124.187C109.129 127.402 104.141 130.172 99.8287 132.516C98.4255 133.281 97.0183 134.052 95.607 134.826C91.2355 137.216 86.7142 139.684 82.2081 142.016C78.998 143.678 75.6583 145.219 72.4306 146.709L72.3607 146.741L69.398 148.109C69.1987 148.202 68.9915 148.005 68.78 147.805C68.5836 147.619 68.3835 147.43 68.1825 147.464L68.165 147.467C67.3153 147.602 66.3547 147.755 65.5276 147.525C64.99 147.388 64.4779 147.398 63.9734 147.408C63.3545 147.42 62.7472 147.432 62.1185 147.172C59.9811 146.264 58.0624 145.428 56.2119 144.432C53.4516 142.949 50.9065 141.098 48.6469 138.929C46.7761 137.172 45.0623 135.256 43.5247 133.202C40.4411 129.013 37.9262 124.435 36.0453 119.587C35.6218 118.494 35.1845 117.403 34.7472 116.312L34.7454 116.308C34.0269 114.519 33.2873 112.67 32.6122 110.823C31.5237 107.842 30.3212 104.94 29.0349 102.192C27.7941 99.4782 26.3412 96.8667 24.6896 94.3814C23.9651 93.3176 23.2043 92.2494 22.4673 91.2161C22.1439 90.7857 21.8384 90.3558 21.5323 89.9225C19.8033 87.5112 17.7827 85.3225 15.5162 83.4061C14.5371 82.5322 14.0496 82.5708 13.4467 82.6184C12.9541 82.6574 12.3846 82.7024 11.4069 82.2609C11.651 83.6712 9.93236 81.8521 8.87863 80.7367C8.49095 80.3264 8.19328 80.0113 8.11647 79.9874C7.78499 79.8997 7.64897 79.5656 7.50949 79.223C7.39204 78.9345 7.27213 78.6399 7.031 78.4814C6.42282 78.0572 6.65894 77.8776 6.90737 77.6887C7.05037 77.5799 7.19745 77.468 7.18995 77.3046C7.18377 77.1699 7.06919 76.9548 6.9342 76.7013C6.62091 76.1129 6.1976 75.3179 6.76383 74.8428L7.16723 74.5032C8.58578 73.2691 10.0661 72.1077 11.6024 71.0234C12.8606 70.1673 14.0528 69.7922 15.2547 69.4141C16.3254 69.0773 17.4038 68.738 18.5434 68.054C18.8633 67.8601 19.1925 67.6331 19.5291 67.3822Z" fill="#418FA0"/>
<path d="M60.8048 34.6786C62.487 34.1315 64.1183 34.4604 65.8457 35.057C69.3827 36.26 72.7012 38.0283 75.6722 40.2933C77.9269 41.9845 79.9795 43.9295 81.7896 46.0899C84.1748 48.9579 86.2865 52.0429 88.097 55.3044C89.6013 58.0149 90.8985 60.8352 91.9775 63.7413C92.8235 66.0826 93.5969 68.4364 94.4846 70.7314C95.511 73.3968 96.5478 76.0605 97.7222 78.6363C99.2434 81.9016 101.051 85.0257 103.123 87.9722C105.161 90.8453 107.524 93.4736 110.165 95.8051C111.78 97.2894 113.602 98.5303 115.575 99.4886C116.84 100.101 118.071 100.787 119.312 101.447C119.539 101.552 119.747 101.694 119.928 101.866C120.861 102.863 122.109 103.319 123.301 103.88C124.698 104.538 125.309 105.708 125.296 107.192C125.289 108.259 124.549 109.038 123.869 109.745C122.217 111.453 120.247 112.782 118.279 114.1C117.145 114.861 115.973 115.565 114.822 116.304C114.691 116.404 114.57 116.515 114.46 116.637C114.597 116.706 114.729 116.793 114.874 116.85C115.837 117.22 116.833 117.531 117.764 117.967C119.407 118.749 119.631 120.536 118.215 121.681C117.143 122.535 116.015 123.317 114.839 124.021C111.332 126.141 107.807 128.235 104.262 130.301C102.043 131.587 99.7682 132.774 97.5343 134.035C93.1656 136.493 88.8272 139.003 84.4382 141.426C81.4244 143.089 78.3845 144.702 75.2937 146.208C73.6231 147.017 71.8882 147.687 70.107 148.211C69.0927 148.51 67.9805 148.429 66.9116 148.454C62.8367 148.545 59.2412 147.031 55.7156 145.182C53.7294 144.138 51.8403 142.919 50.0706 141.539C47.8852 139.822 45.8826 137.885 44.0944 135.757C41.5821 132.772 39.4536 129.483 37.7586 125.969C36.7388 123.896 35.8221 121.762 35.0142 119.599C33.8901 116.595 32.9801 113.494 31.8479 110.484C31.0055 108.245 29.9954 106.064 28.9835 103.893C27.4175 100.598 25.5153 97.4738 23.3076 94.5695C21.2211 91.7873 18.8636 89.2192 16.2696 86.903C14.7333 85.5081 13.0355 84.3022 11.2125 83.3111C10.673 82.999 10.1573 82.6475 9.66945 82.2597C9.01137 81.7647 8.31567 81.3219 7.58866 80.9353C6.2683 80.2469 5.66863 79.0002 5.69171 77.5321C5.70736 76.5343 5.87664 75.5205 6.55678 74.7276C7.20934 73.9282 7.9285 73.1855 8.70646 72.5075C10.8069 70.7432 13.2088 69.3727 15.7963 68.4621C15.9111 68.4097 16.019 68.3432 16.1175 68.2643C16.2907 68.1562 16.3614 68.0515 16.1149 67.9414C15.2916 67.5322 14.599 66.9012 14.115 66.1197C13.9186 65.8541 13.6583 65.6424 13.3582 65.5044C13.0027 65.3371 12.6886 65.0933 12.4385 64.7903C12.1885 64.4873 12.0086 64.1328 11.9118 63.752C11.8149 63.3713 11.8036 62.9738 11.8786 62.5882C11.9535 62.2026 12.113 61.8383 12.3454 61.5216C13.4547 60.1247 14.7473 58.8837 16.1882 57.8321C19.4778 55.3038 22.9417 53.0107 26.5542 50.9701C31.114 48.3435 35.6965 45.7449 40.3548 43.2967C44.2344 41.2569 48.2102 39.4031 52.1958 37.5653C54.2526 36.6158 56.4016 35.8494 58.5343 35.0715C59.2329 34.8369 60.0077 34.8165 60.8048 34.6786ZM61.9646 36.4928C59.4725 36.9811 57.2883 37.8922 55.1201 38.7935C50.1094 40.8691 45.2337 43.2732 40.4434 45.7798C37.9822 47.0622 35.5275 48.3614 33.1024 49.7087C30.7479 51.0118 28.4148 52.3574 26.1034 53.7455C23.6567 55.2351 21.2013 56.6943 18.8429 58.3037C17.1867 59.4821 15.5914 60.7439 14.0634 62.0843C13.0703 62.9172 13.1571 63.8297 14.2812 64.6161C15.0341 65.1468 15.8867 65.2479 16.6741 65.5879C18.9134 66.6016 20.9867 67.9477 22.824 69.5806C25.1334 71.5374 27.1915 73.7727 28.9513 76.2354C30.0021 77.7274 31.0786 79.2043 32.1007 80.7155C33.7743 83.2343 35.2461 85.8814 36.5025 88.6322C37.8298 91.4825 39.0307 94.3819 40.1049 97.3305C41.1797 100.275 42.3987 103.17 43.5338 106.094C45.3913 110.888 47.8764 115.413 50.9241 119.553C52.4406 121.574 54.1275 123.462 55.9662 125.195C58.1781 127.324 60.6711 129.14 63.3758 130.593C65.2653 131.613 67.254 132.467 69.227 133.312C70.3297 133.768 71.4638 134.144 72.6203 134.438C73.706 134.767 74.8732 134.7 75.9138 134.248C80.1887 132.254 84.5008 130.331 88.6859 128.167C94.6092 125.102 100.443 121.867 106.303 118.664C111.035 116.089 115.735 113.449 120.15 110.375C121.211 109.578 122.202 108.693 123.114 107.729C123.697 107.152 123.61 106.485 123.072 105.86C122.154 104.807 120.883 104.423 119.616 104.028C119.129 103.933 118.649 103.802 118.18 103.636C116.556 102.911 114.974 102.093 113.442 101.187C110.61 99.3815 107.912 97.3891 105.603 94.9101C103.495 92.6223 101.588 90.157 99.9033 87.5415C98.1923 84.8985 96.6758 82.1346 95.3658 79.2717C93.3334 74.9216 91.9214 70.3363 90.3003 65.837C89.1564 62.6907 87.8119 59.621 86.2752 56.6468C84.7155 53.7147 82.9019 50.9249 80.8553 48.3093C78.5612 45.3672 75.8887 42.7409 72.9073 40.4982C70.8559 38.9129 68.5354 37.8255 66.3096 36.5262C65.9431 36.3319 65.5305 36.2411 65.1163 36.2636C64.0256 36.3067 62.929 36.4183 61.9646 36.4928ZM68.6234 146.825C69.8857 146.337 71.2091 145.955 72.4137 145.338C75.6905 143.655 78.9431 141.914 82.1715 140.116C85.7934 138.107 89.3712 136.027 92.9761 133.981C97.3361 131.514 101.726 129.094 106.068 126.587C109.441 124.639 112.754 122.587 116.086 120.588C116.79 120.161 116.782 119.907 116.055 119.467C115.768 119.303 115.463 119.172 115.146 119.077C114.355 118.823 113.525 118.647 112.764 118.338C112.004 118.029 111.432 118.235 110.801 118.617C109.674 119.31 108.524 119.975 107.369 120.633C105.955 121.418 104.52 122.16 103.102 122.942C99.4431 124.962 95.8294 127.08 92.1178 129.002C87.9262 131.149 83.6515 133.165 79.4134 135.227C78.0411 135.916 76.5694 136.385 75.0519 136.618C74.1492 136.776 73.2195 136.639 72.4006 136.228C71.973 135.975 71.5253 135.758 71.0621 135.578C69.6868 135.127 68.282 134.752 66.9119 134.289C63.8237 133.193 60.8929 131.697 58.1949 129.838C57.6206 129.431 57.0764 128.984 56.5666 128.499C55.2658 127.349 53.8975 126.26 52.7094 125.001C50.7456 122.919 48.9692 120.667 47.4008 118.272C45.5844 115.549 44.0081 112.673 42.6898 109.677C40.8263 105.358 39.0914 100.982 37.4002 96.5903C35.8708 92.5274 34.0294 88.5889 31.8926 84.81C29.79 81.1222 27.2755 77.685 24.3974 74.5644C22.8621 72.9407 21.2291 71.4123 19.5076 69.9876C18.8368 69.4178 18.2278 69.246 17.3951 69.7739C16.0659 70.6153 14.6448 71.3161 13.2836 72.0955C11.7318 72.9775 10.3037 74.0612 9.03655 75.3183C8.43093 75.8965 8.02535 76.6526 7.87853 77.477C7.81266 77.7972 7.85775 78.1303 8.00644 78.4215C8.58952 79.3263 9.20817 80.2107 10.4019 80.4341C10.8859 80.5469 11.3558 80.7135 11.8027 80.9309C13.8319 81.8797 15.7095 83.1236 17.3745 84.622C20.0515 86.9724 22.487 89.5843 24.6448 92.4189C27.252 95.8039 29.4904 99.4577 31.3219 103.318C32.8242 106.413 33.9354 109.65 35.1075 112.869C35.8637 114.96 36.4798 117.103 37.2333 119.197C39.2837 124.884 42.1168 130.143 46.0262 134.805C48.0187 137.187 50.2967 139.314 52.809 141.14C54.0813 142.064 55.4426 142.866 56.7612 143.729C59.4924 145.57 62.685 146.61 65.9769 146.729C66.8452 146.756 67.7078 146.792 68.613 146.827L68.6234 146.825Z" fill="#122224"/>
<path d="M64.924 119.596C64.592 119.629 64.4305 119.682 64.2634 119.661C63.907 119.655 63.7013 119.35 63.8804 119.07C64.0964 118.72 64.3761 118.414 64.7049 118.167C66.3345 117.028 67.9722 115.895 69.642 114.824C72.3201 113.091 75.0145 111.383 77.7251 109.701C81.9135 107.111 86.1171 104.54 90.3356 101.988C92.0339 100.959 93.746 99.9479 95.5017 98.983C96.3121 98.5717 97.1467 98.21 98.0009 97.9C98.1439 97.8211 98.3119 97.8011 98.4693 97.8442C98.6268 97.8873 98.7612 97.9901 98.8441 98.1308C98.9566 98.4274 98.9564 98.7549 98.8435 99.0513C98.6774 99.338 98.4394 99.5765 98.1529 99.743C96.8429 100.613 95.5386 101.496 94.1902 102.309C90.008 104.838 85.8198 107.333 81.6351 109.848C78.2993 111.847 74.9764 113.88 71.6325 115.873C69.8188 116.954 67.979 117.987 66.1369 119.027C65.7015 119.284 65.2202 119.46 64.924 119.596Z" fill="#122224"/>
<path d="M53.5768 103.3C53.3782 103.316 53.1784 103.302 52.9836 103.261C52.7684 103.188 52.4249 103.031 52.4188 102.893C52.4172 102.759 52.444 102.626 52.4974 102.503C52.5508 102.38 52.6296 102.269 52.7287 102.178C53.0788 101.962 53.4452 101.772 53.8247 101.612L62.6623 96.8021C65.2798 95.3753 67.9188 93.991 70.513 92.5327C74.7222 90.1587 78.9193 87.7156 83.1279 85.3382C84.5655 84.5278 86.0589 83.7931 87.5288 83.066C88.1274 82.767 88.535 82.8635 88.7165 83.255C88.9534 83.7612 88.698 84.072 88.326 84.4278C87.0865 85.6232 85.5995 86.4563 84.1402 87.306C78.2004 90.7685 72.2338 94.1788 66.1268 97.3326C62.9298 98.9841 59.7049 100.576 56.4759 102.166C55.5518 102.617 54.5624 102.917 53.5768 103.3Z" fill="#122224"/>
<path d="M86.258 75.375C86.0203 75.7118 85.7396 76.016 85.4231 76.28C84.347 76.907 83.2542 77.4989 82.1446 78.0558C81.2981 78.4831 80.394 78.8031 79.5521 79.2367C75.3928 81.3781 71.2401 83.5445 67.0941 85.7358C63.5364 87.6026 60.0055 89.5216 56.4326 91.3625C54.1481 92.5363 51.8209 93.6072 49.5095 94.7287C49.4372 94.7626 49.373 94.8234 49.2967 94.8544C48.9326 95.0098 48.5222 95.1022 48.2912 94.7122C48.0602 94.3221 48.3926 93.9838 48.6884 93.7834C49.3573 93.2927 50.0504 92.8358 50.765 92.4146C52.8497 91.2151 54.95 90.0448 57.0457 88.8682C59.9606 87.23 62.8678 85.5469 65.8471 83.9722C69.652 81.9525 73.5122 80.0475 77.3282 78.0508C79.0514 77.1448 80.7617 76.2055 82.6146 75.5969C83.5271 75.3241 84.4593 75.1223 85.4029 74.9935C85.614 74.9605 85.8717 75.1966 86.258 75.375Z" fill="#122224"/>
<path d="M34.2734 67.1901C34.0701 67.0832 33.7041 67.0008 33.5697 66.7789C33.4882 66.6366 33.6812 66.191 33.8737 66.051C34.6347 65.4781 35.4322 64.9554 36.2612 64.4863C40.0143 62.4483 43.777 60.4311 47.5492 58.4348C52.6092 55.7821 57.6831 53.1482 62.7542 50.5184C64.186 49.7766 65.6317 49.0537 67.0914 48.371C67.7334 48.0843 68.3978 47.8504 69.0779 47.6718C69.3545 47.5942 69.648 47.6016 69.9203 47.693C70.0409 47.7275 70.1491 47.7959 70.2319 47.8901C70.3148 47.9842 70.3689 48.1002 70.3877 48.2243C70.4066 48.3483 70.3894 48.4751 70.3382 48.5896C70.2871 48.7042 70.2041 48.8016 70.0992 48.8704C69.5469 49.3088 68.9563 49.6965 68.3344 50.0288C65.5555 51.5084 62.7754 52.9811 59.9749 54.4183C54.9639 56.9844 49.9517 59.5436 44.9144 62.061C41.6431 63.6933 38.3562 65.236 35.076 66.8167C34.8648 66.9314 34.6362 67.0278 34.2734 67.1901Z" fill="#122224"/>
<path d="M28.2925 62.365C27.9957 62.4164 27.9475 62.4247 27.9164 62.4301C27.5974 62.4143 27.0717 62.4981 27.0052 62.3604C26.7737 61.8852 27.2308 61.6106 27.5514 61.4094C28.4812 60.8682 29.4366 60.3723 30.3879 59.8522C33.0607 58.4372 35.7363 57.0181 38.4156 55.6196C42.2706 53.6019 46.1221 51.5848 49.9853 49.5941C52.9671 48.0544 55.9547 46.528 58.9697 45.0573C60.0566 44.57 61.1685 44.1403 62.3007 43.7699C62.5299 43.6689 62.7834 43.6362 63.0307 43.6755C63.3329 43.7583 63.7322 43.9095 63.8229 44.1461C63.9137 44.3827 63.7204 44.7858 63.5143 44.9707C63.1106 45.3279 62.6607 45.6293 62.1768 45.8668C59.6684 47.1433 57.1454 48.3974 54.6311 49.6606L50.2981 51.8322C44.7082 54.6264 39.12 57.431 33.5156 60.2029C32.0715 60.9149 30.5733 61.5189 29.0902 62.1488C28.8323 62.2478 28.565 62.3203 28.2925 62.365Z" fill="#122224"/>
<path d="M48.3029 81.6747C45.7858 82.018 43.4627 81.3681 41.6191 79.299C41.3925 79.0885 41.2198 78.8266 41.1156 78.5354C41.0113 78.2442 40.9787 77.9322 41.0203 77.6257C41.0696 77.3426 41.0388 77.0513 40.9315 76.7846C39.7995 74.3507 40.605 72.2495 42.103 70.3093C42.6513 69.6255 43.3294 69.0568 44.0982 68.6359C44.867 68.2149 45.7113 67.95 46.5828 67.8564C49.8806 67.4242 52.8825 68.6496 54.3186 72.1219C54.7194 73.1746 54.8178 74.3184 54.6024 75.4241C54.0429 78.8438 51.5582 80.9762 48.3029 81.6747ZM52.407 73.8281C52.4429 71.7358 49.6031 69.7218 47.5886 69.8893C46.1735 70.0148 44.8485 70.6367 43.8478 71.645C42.8471 72.6533 42.2352 73.983 42.1204 75.3989C42.0638 76.1195 41.8252 76.9995 42.9536 77.2769C43.1762 77.3307 43.3069 77.7168 43.5069 77.9274C44.018 78.4573 44.482 79.0025 45.2379 79.2839C47.2628 80.0387 49.0509 79.7541 50.6695 78.326C52.0293 77.1275 52.8183 75.7116 52.407 73.8281Z" fill="#122224"/>
<path d="M70.5013 125.177C70.3385 125.098 70.0456 125.05 69.9421 124.883C69.8911 124.778 69.8644 124.664 69.864 124.547C69.8635 124.431 69.8894 124.316 69.9397 124.211C70.1162 123.931 70.3492 123.689 70.6238 123.503C72.9922 121.828 75.3268 120.102 77.758 118.523C81.7119 115.947 85.7142 113.446 89.7269 110.964C91.1652 110.075 92.696 109.33 94.1733 108.502C94.3131 108.413 94.4776 108.37 94.6432 108.38C94.8089 108.389 94.9673 108.451 95.0958 108.556C95.4266 108.783 95.54 109.069 95.2404 109.391C94.9873 109.662 94.7119 109.912 94.4172 110.138C91.4957 112.477 88.2417 114.313 85.0825 116.285C81.6393 118.43 78.1912 120.567 74.7379 122.695C73.5755 123.412 72.3991 124.109 71.2261 124.806C71.03 124.925 70.8008 125.018 70.5013 125.177Z" fill="#122224"/>
<path d="M55.4949 66.79C55.3061 66.8075 55.1163 66.8094 54.9272 66.7958C54.8321 66.7927 54.7402 66.7609 54.6634 66.7047C54.5866 66.6484 54.5286 66.5704 54.497 66.4806C54.4653 66.3909 54.4614 66.2936 54.4859 66.2017C54.5104 66.1097 54.5621 66.0273 54.6342 65.9652C54.9012 65.6523 55.2137 65.3814 55.5613 65.1615C56.8411 64.3429 58.1375 63.4966 59.4777 62.7599C62.7794 60.947 66.099 59.1688 69.4364 57.4255C70.7895 56.7221 72.1174 55.9343 73.6569 55.6714C73.8875 55.6148 74.127 55.6035 74.3619 55.6382C74.9576 55.7946 75.1103 56.3687 74.6355 56.7672C74.0422 57.2885 73.398 57.7489 72.7126 58.1413C70.523 59.3093 68.3065 60.425 66.0901 61.5408C62.8017 63.1975 59.5094 64.8453 56.2131 66.4844C55.975 66.6074 55.7004 66.7046 55.4949 66.79Z" fill="#122224"/>
<path d="M58.672 109.252C58.1993 109.334 57.9819 109.372 57.7887 109.405C57.6262 109.436 57.458 109.409 57.3139 109.328C57.1698 109.247 57.0591 109.117 57.0012 108.962C56.9281 108.811 56.917 108.636 56.9703 108.476C57.0236 108.317 57.137 108.184 57.2866 108.106C57.5908 107.891 57.9062 107.691 58.2316 107.509C60.6626 106.278 63.0983 105.053 65.5386 103.835C67.3226 102.977 69.1768 102.273 71.081 101.731C71.2769 101.672 71.4886 101.54 71.6656 101.577C71.9285 101.638 72.2873 101.76 72.3789 101.961C72.4705 102.162 72.2503 102.471 72.1154 102.718C72.0015 102.836 71.8609 102.925 71.7054 102.977C67.6829 105.095 63.6947 107.267 59.485 109.002C59.1266 109.128 58.7662 109.222 58.672 109.252Z" fill="#122224"/>
<path d="M59.0488 71.2249C58.4205 71.291 57.8925 71.5459 57.5458 70.9804C57.3277 70.6237 57.5691 70.191 58.2562 69.6847C58.5584 69.4674 58.8745 69.2702 59.2025 69.0944C61.6387 67.77 64.0695 66.4146 66.5227 65.1477C67.4988 64.7039 68.4998 64.317 69.5207 63.9891C69.6663 63.9183 69.8289 63.8902 69.9899 63.9079C70.2607 63.9733 70.5053 64.1193 70.6914 64.3267C70.7838 64.4706 70.6831 64.8328 70.5466 65.0092C70.3365 65.264 70.0805 65.4771 69.7917 65.6374C66.5929 67.5451 63.3213 69.3197 59.9653 70.9348C59.6677 71.0548 59.3612 71.1518 59.0488 71.2249Z" fill="#122224"/>
<path d="M70.1304 72.2812L76.7454 71.814L80.0527 71.8167L81.4713 70.4004L81.9449 68.9834L83.8356 68.0399L84.3092 66.6229L83.3703 59.0625L82.899 57.6447L81.4816 57.6436L64.9442 58.5752L63.9989 59.0469L63.9916 68.024L64.9354 69.4421L67.2978 69.4441L68.7133 71.8076L70.1304 72.2812Z" fill="#418FA0"/>
<path d="M92.1737 30.7912C92.1057 28.3635 91.4757 25.9847 90.333 23.8417C89.2834 21.8811 87.8631 20.143 86.1509 18.724C84.9809 17.7261 83.6803 16.8925 82.2851 16.246L81.6121 15.9362C80.424 15.3458 79.1845 14.8648 77.9091 14.4992L77.8737 14.4907L76.8136 14.3686C75.9798 14.2632 75.1506 14.165 74.3243 14.08C74.0259 14.0524 73.7102 14.0456 73.4179 14.0444C73.1466 14.0471 72.8753 14.0343 72.6054 14.0062C71.3951 13.9315 70.1802 14.0098 68.9895 14.2394L68.2989 14.3424C67.1776 14.5268 66.0782 14.8257 65.0178 15.2342C63.8241 15.6545 62.6629 16.1619 61.5437 16.7523C60.2352 17.4362 59.0106 18.2701 57.8949 19.2371C56.2201 20.6758 54.8001 22.3867 53.6944 24.2978C52.9695 25.5402 52.4055 26.8697 52.0163 28.2545C51.4945 30.317 51.3891 32.4629 51.7062 34.5666C52.0133 36.6826 52.7463 38.7144 53.8609 40.5391C54.7642 42.0241 55.9081 43.3486 57.2458 44.4584L58.4876 45.489C59.4597 46.2934 60.4689 47.1253 61.3773 48.0142C63.2299 49.784 64.5613 52.0284 65.2263 54.5027C65.3795 55.087 65.5137 55.673 65.6464 56.2648C65.7268 56.6325 65.8145 56.9957 65.9008 57.3649C66.0439 57.9654 66.2202 58.244 66.6089 58.3367C66.8118 58.3748 67.019 58.3844 67.2245 58.3652L70.2852 58.1366C72.0474 58.0028 73.8156 57.8705 75.5809 57.75C76.8204 57.668 78.0619 57.5947 79.3055 57.5303L80.3448 57.4793C81.3545 57.4213 81.604 57.1572 81.6134 56.1262C81.6159 54.9383 81.736 53.7535 81.9715 52.5891C82.0881 52.1003 82.2045 51.6115 82.3649 51.0957C82.4238 50.8484 82.4829 50.6011 82.5786 50.3562C82.924 49.1668 83.4336 48.0314 84.0927 46.9828C85.078 45.4539 86.1848 44.0069 87.4025 42.6558L87.7998 42.1903C88.5395 41.3431 89.2042 40.4333 89.7864 39.471C90.4847 38.3364 91.0439 37.1218 91.452 35.8536C91.9695 34.2173 92.2133 32.5069 92.1737 30.7912Z" fill="white"/>
<path d="M78.111 13.6261C80.2089 14.1894 82.2205 15.0356 84.0903 16.1412C86.1857 17.352 88.0222 18.9637 89.4946 20.8844C91.511 23.4743 92.7365 26.5914 93.0241 29.8611C93.201 31.9417 92.9699 34.0368 92.3438 36.0289C91.6424 38.3149 90.4868 40.4358 88.9461 42.2644C88.1169 43.2876 87.1902 44.2277 86.1791 45.0715C86.074 45.1595 85.9808 45.2607 85.9018 45.3726C85.0128 46.6548 84.2814 48.0393 83.7234 49.4964C83.411 50.3368 83.0868 51.1745 82.8391 52.0304C82.6932 52.6385 82.5856 53.2552 82.517 53.8769C82.4237 54.477 82.3323 55.1212 82.2348 55.7391C82.1898 55.9275 82.1449 56.116 82.1297 56.3364C82.1006 56.9021 82.1423 56.9619 82.6982 56.9015C82.9 56.8635 83.1087 56.896 83.2894 56.9934C83.4701 57.0909 83.6118 57.2475 83.6909 57.437C84.0822 58.0304 84.3114 58.716 84.3558 59.4254C84.4743 61.5388 84.6468 63.6339 84.7711 65.7487C84.7861 66.2682 84.7702 66.7882 84.7234 67.3058C84.7121 67.442 84.6638 67.5726 84.5837 67.6833C84.1431 68.3866 83.4784 68.9209 82.6969 69.2002C82.5974 69.2263 82.4359 69.3558 82.4454 69.4203C82.5229 70.0612 82.0234 70.4587 81.701 70.9233C81.6244 71.0358 81.4651 71.1036 81.6055 71.3238C81.9066 71.7317 81.8512 71.9115 81.4058 72.0044C80.685 72.1562 79.9462 72.2788 79.2159 72.366C78.8111 72.4189 78.4048 72.4527 77.9953 72.4733C76.0286 72.577 74.0647 72.6688 72.0966 72.7783C71.5536 72.8107 71.0145 72.9311 70.4757 72.9458C70.1273 72.9832 69.7753 72.923 69.4591 72.7718C68.9112 72.3698 68.3921 71.9299 67.9058 71.4553C67.7938 71.3318 67.7033 71.1903 67.6383 71.0367C67.4929 70.7593 67.4254 70.3635 67.2081 70.2308C66.9908 70.0981 66.5898 70.2141 66.2403 70.2179L66.0774 70.2226C65.5132 70.2515 64.9595 70.0627 64.5305 69.6952C64.1016 69.3276 63.8303 68.8095 63.7724 68.2476C63.4842 66.1028 63.3321 63.9419 63.3171 61.7779C63.2835 60.8487 63.2791 59.9015 63.2721 58.9911C63.2661 58.442 63.3125 58.3783 63.8059 58.2408C64.0973 58.1671 64.3979 58.133 64.6955 58.0857C64.9931 58.0384 65.1065 57.9285 65.0255 57.6416C64.7533 56.2975 64.4093 54.9688 63.9953 53.6614C63.6255 52.6595 63.1541 51.6982 62.5881 50.7926C61.4934 49.0805 60.075 47.5984 58.4126 46.4296C57.1474 45.5596 55.995 44.5363 54.9814 43.383C53.6989 41.9266 52.675 40.2615 51.9541 38.4598C51.1907 36.5002 50.7846 34.4197 50.755 32.3169C50.7638 30.5049 51.0463 28.7047 51.5927 26.9771C51.8742 26.1194 52.2385 25.2912 52.6804 24.504C54.1416 21.6664 56.2825 19.2346 58.912 17.4256C60.641 16.1696 62.5545 15.1897 64.5841 14.5208C65.9856 14.0327 67.4251 13.6619 68.888 13.4122C70.7798 13.0925 72.7072 13.0409 74.6134 13.2589C75.7793 13.3813 76.9479 13.4919 78.111 13.6261ZM77.7627 15.0866C76.5938 14.951 75.429 14.7978 74.2618 14.6812C73.6958 14.6272 73.1132 14.6688 72.5473 14.6147C71.152 14.5507 69.7543 14.6606 68.3863 14.942C67.3053 15.1163 66.2458 15.404 65.2251 15.8002C64.0625 16.2116 62.9324 16.7099 61.8446 17.2908C60.5752 17.9452 59.3901 18.7515 58.3155 19.6921C56.6933 21.0867 55.3143 22.7414 54.235 24.5884C53.5373 25.7984 52.9909 27.0897 52.6085 28.4331C52.1097 30.4198 52.0085 32.4855 52.3106 34.5115C52.6105 36.546 53.3175 38.4992 54.3893 40.2543C55.2487 41.6923 56.3473 42.9731 57.6377 44.0414C59.034 45.2333 60.4927 46.3467 61.8048 47.6306C63.7288 49.4776 65.1085 51.8176 65.7935 54.3952C66.0461 55.3455 66.2387 56.3126 66.4723 57.2646C66.6092 57.8387 66.6196 57.8475 67.1713 57.8047C69.952 57.6027 72.7426 57.3843 75.5277 57.1895C77.1096 57.0813 78.6845 57.0024 80.2843 56.9233C80.9916 56.8804 80.9888 56.8922 80.9999 56.1666C81.0005 54.9417 81.1231 53.7199 81.3657 52.5193C81.5468 51.7596 81.7765 51.0052 81.9871 50.2525C82.3449 49.0158 82.8716 47.8345 83.5524 46.7419C84.6757 45.0216 85.9359 43.3946 87.3206 41.8768C88.0391 41.0496 88.6857 40.1627 89.2536 39.2257C89.9252 38.1281 90.4659 36.9556 90.8647 35.7322C91.3651 34.1368 91.5965 32.4692 91.5496 30.7979C91.4903 28.4611 90.8856 26.1705 89.7837 24.109C88.7701 22.2165 87.3989 20.5388 85.746 19.1688C84.6186 18.2071 83.3652 17.4035 82.0207 16.7805C80.6539 16.0918 79.2291 15.525 77.7627 15.0866ZM82.1273 58.1471C81.9977 58.1256 81.8663 58.1172 81.735 58.122C80.4673 58.2181 79.2264 58.3578 77.9676 58.4685C76.1905 58.5862 74.4132 58.679 72.6417 58.7731L68.4563 59.0199L66.1681 59.1402C65.9216 59.1561 65.6703 59.1398 65.4269 59.1689C64.6906 59.2547 64.4443 59.557 64.4995 60.317C64.6017 61.7419 64.7374 63.156 64.8146 64.5811C64.8782 65.6979 64.9023 66.824 64.9041 67.9386C64.9022 68.107 64.9354 68.274 65.0016 68.4288C65.0679 68.5836 65.1657 68.7229 65.2889 68.8378C65.412 68.9527 65.5577 69.0406 65.7167 69.096C65.8758 69.1514 66.0447 69.1729 66.2125 69.1594C68.1198 68.9918 70.0801 68.8368 72.0168 68.6762C74.228 68.5126 76.444 68.3813 78.6497 68.2413C79.1368 68.2081 79.6291 68.2321 80.1194 68.2121C80.8842 68.1891 81.649 68.1661 82.4094 68.1358C82.6177 68.1414 82.8221 68.0775 82.9901 67.9542C83.1582 67.8308 83.2803 67.655 83.3374 67.4545C83.4423 67.121 83.4999 66.7743 83.5083 66.4247C83.4093 64.0733 83.278 61.7266 83.1599 59.3768C83.1249 58.5842 82.9134 58.3221 82.1273 58.1471ZM81.1296 69.5609C81.2083 69.2311 81.1709 69.1786 80.8206 69.2383C80.3927 69.3358 79.9596 69.4091 79.5234 69.458C78.1308 69.5553 76.7364 69.6087 75.3379 69.7047C73.5093 69.8039 71.6778 69.9149 69.8477 70.02C69.5513 70.0365 69.2223 70.0327 68.948 70.0607C68.6737 70.0886 68.6228 70.2756 68.754 70.4563C69.0046 70.8148 69.309 71.1302 69.5742 71.4797C69.6713 71.6111 69.8036 71.7123 69.9558 71.7718C70.1079 71.8312 70.2737 71.8463 70.434 71.8155C72.1856 71.6481 73.9313 71.4793 75.6775 71.3604C76.7164 71.2845 77.753 71.2703 78.8104 71.2735C79.3347 71.2972 79.8513 71.1401 80.2735 70.8283C80.6958 70.5165 80.9981 70.069 81.1296 69.5609Z" fill="#122224"/>
<path d="M77.2615 35.9302C77.3935 35.3766 77.5269 34.8171 77.659 34.2635C77.7418 33.916 77.5963 33.9 77.3307 33.9176C76.7978 33.9876 76.2561 33.9015 75.7711 33.6699C75.2861 33.4382 74.8788 33.0709 74.5984 32.6125C74.44 32.3631 74.271 32.3664 74.0435 32.5113C73.6323 32.7742 73.2151 33.0358 72.789 33.2827C72.256 33.573 71.6596 33.7271 71.0526 33.7311C70.4457 33.7352 69.8473 33.5891 69.3105 33.3059C68.8043 33.0794 68.7496 33.0477 68.4345 33.5078C67.9998 34.0995 67.4572 34.6036 66.8353 34.9937C66.782 35.0155 66.7341 35.0484 66.6945 35.0902C66.6549 35.1321 66.6248 35.1818 66.6059 35.2362C66.5871 35.2905 66.5799 35.3483 66.5851 35.4056C66.5903 35.4629 66.6076 35.5185 66.6359 35.5686C66.7054 35.747 66.7617 35.9285 66.8444 36.1038C67.7096 38.0001 68.3739 39.9818 68.8266 42.0164C69.4335 44.8519 69.7872 47.7358 69.8837 50.6339C69.9784 52.4553 69.8794 54.2802 69.8257 56.0973C69.8133 56.3453 69.7552 56.5889 69.6544 56.8158C69.6249 56.9395 69.4123 57.1004 69.3371 57.0763C69.2656 57.0464 69.2019 57.0005 69.1511 56.9419C69.1003 56.8834 69.0636 56.8138 69.0441 56.7388C69.0133 56.4114 69.0024 56.0825 69.0114 55.7538C68.9878 54.939 68.9466 54.12 68.9716 53.3106C68.966 51.5852 68.8461 49.8698 68.7011 48.1547C68.5785 46.7375 68.3459 45.3376 68.1706 43.9327C68.0584 43.2644 67.9041 42.604 67.7085 41.9552C67.5001 41.1586 67.3254 40.3514 67.0306 39.5777C66.6594 38.5244 66.2425 37.479 65.7762 36.459C65.48 35.822 65.3984 35.7465 64.7124 35.8568C64.2759 35.9166 63.8315 35.8751 63.4136 35.7355C62.9957 35.5959 62.6156 35.362 62.3026 35.0518C61.8761 34.6861 61.5306 34.2354 61.2881 33.7286C61.0457 33.2217 60.9115 32.6697 60.8945 32.1081C60.8816 31.9444 60.9068 31.7799 60.9679 31.6275C61.0291 31.4751 61.1247 31.3389 61.2472 31.2295C61.3697 31.1202 61.5157 31.0406 61.674 30.997C61.8324 30.9534 61.9987 30.947 62.1599 30.9783C62.9528 31.102 63.6789 31.495 64.2161 32.0911C64.7683 32.6262 65.2407 33.2377 65.6192 33.907C65.7588 34.183 65.9482 34.1722 66.1356 33.9866C66.6588 33.4889 67.177 32.9341 67.6955 32.4042C67.8192 32.2942 67.9018 32.1454 67.9294 31.9822C67.957 31.819 67.9281 31.6512 67.8473 31.5067C67.548 30.7943 67.5169 29.9975 67.7598 29.2638C67.8735 28.7868 67.9901 28.298 68.1039 27.8209C68.1574 27.6055 68.2749 27.4114 68.4411 27.2643C68.6074 27.1172 68.8144 27.0241 69.0347 26.9972C69.2117 26.9661 69.3939 26.9881 69.5583 27.0606C69.7227 27.133 69.8619 27.2526 69.9583 27.4042C70.1566 27.699 70.2748 28.0404 70.3011 28.3947C70.3528 29.3029 70.1668 30.2089 69.7613 31.0233C69.6924 31.1728 69.6404 31.3295 69.6063 31.4905C69.5793 31.5542 69.5666 31.6232 69.5691 31.6923C69.5717 31.7615 69.5894 31.8293 69.621 31.8909C69.6526 31.9525 69.6974 32.0064 69.7522 32.0487C69.807 32.0911 69.8703 32.1209 69.9379 32.136C70.3291 32.3094 70.7571 32.3836 71.1839 32.3518C71.6106 32.32 72.0228 32.1832 72.384 31.9537C72.5865 31.8091 72.8114 31.7009 73.0126 31.5621C73.2712 31.4344 73.4817 31.2265 73.6125 30.9694C73.7434 30.7124 73.7876 30.4199 73.7387 30.1356C73.6698 29.201 73.8105 28.2627 74.1508 27.3894C74.203 27.1742 74.3022 26.9732 74.4412 26.8009C74.5803 26.6285 74.7557 26.489 74.955 26.3924C75.0651 26.3409 75.1845 26.3125 75.306 26.309C75.4275 26.3055 75.5484 26.3269 75.6613 26.3719C75.7742 26.4169 75.8768 26.4846 75.9625 26.5707C76.0483 26.6568 76.1154 26.7596 76.1599 26.8727C76.4162 27.4831 76.4394 28.1664 76.2249 28.7928C76.0133 29.4952 75.7518 30.1817 75.4426 30.8469C75.3624 30.9722 75.3248 31.12 75.3354 31.2683C75.346 31.4166 75.4042 31.5576 75.5014 31.6701C76.1123 32.4756 76.587 32.651 77.4804 32.4283C77.6582 32.4044 77.8236 32.324 77.9521 32.1988C78.0806 32.0736 78.1654 31.9104 78.1939 31.7333C78.548 30.4063 79.1497 29.1581 79.9675 28.0545C80.1921 27.7451 80.4868 27.4934 80.8274 27.3197C81.0196 27.209 81.2373 27.1502 81.459 27.1492C81.6808 27.1481 81.899 27.2048 82.0922 27.3137C82.2855 27.4226 82.447 27.5799 82.561 27.7701C82.675 27.9604 82.7375 28.1771 82.7423 28.3988C82.8012 29.3707 82.4726 30.3263 81.8285 31.0565C81.3581 31.7263 80.7805 32.3141 80.119 32.7962C80.03 32.8559 79.9534 32.9683 79.8566 32.9826C79.2073 33.0954 79.0879 33.5959 78.9629 34.1201C78.8379 34.6442 78.682 35.2979 78.5416 35.8869C78.1506 37.8362 77.888 39.8092 77.7556 41.793C77.7103 43.027 77.5414 44.2316 77.449 45.4544C77.4132 45.9438 77.4449 46.4368 77.4282 46.9245C77.3635 48.9444 77.2798 50.966 77.2283 52.9828C77.2058 53.8862 77.2715 54.7857 77.2989 55.6885C77.3033 55.7975 77.298 55.9066 77.2833 56.0147C77.2229 56.2679 77.1627 56.5212 76.8191 56.5264C76.4755 56.5316 76.4419 56.2809 76.4184 56.0139C76.3481 55.0821 76.2382 54.1596 76.1869 53.2262C76.1107 51.6146 76.0416 49.9985 76.027 48.3892C76.011 46.9165 76.0449 45.4432 76.1155 43.9724C76.1861 42.5017 76.2697 41.1336 76.4438 39.7249C76.5988 38.4486 76.8743 37.1885 77.1014 35.9231L77.2615 35.9302ZM64.0781 34.6536C64.2027 34.6706 64.3287 34.6756 64.4543 34.6686C64.5585 34.6482 64.6601 34.6161 64.7572 34.5728C64.7208 34.4759 64.6766 34.382 64.6249 34.2923C64.4667 34.0679 64.2999 33.8538 64.1581 33.6395C63.7264 33.0349 63.1812 32.5201 62.5527 32.1239C62.492 32.0979 62.4268 32.0841 62.3608 32.0833C62.2947 32.0825 62.2292 32.0947 62.1679 32.1192C62.1208 32.108 62.0584 32.3172 62.1005 32.4019C62.2185 32.9118 62.4607 33.3847 62.8055 33.7786C63.1502 34.1724 63.5869 34.475 64.0767 34.6595L64.0781 34.6536ZM81.4036 29.2621C81.44 29.1549 81.4664 29.0445 81.4822 28.9323C81.4741 28.8639 81.4566 28.7969 81.4302 28.7332C81.3601 28.7663 81.2678 28.7878 81.2288 28.847C80.8505 29.4415 80.4825 30.0446 80.1146 30.6478C80.0802 30.7217 80.0611 30.8018 80.0585 30.8833C80.0547 30.9365 80.0588 30.9899 80.0705 31.0418C80.1143 31.0149 80.1728 31.004 80.2048 30.9743C80.6979 30.4751 81.1032 29.8962 81.4036 29.2621ZM69.0995 29.4401L69.1163 29.3695L69.0633 29.3568C69.055 29.3797 69.0494 29.4034 69.0464 29.4275L69.0995 29.4401Z" fill="#122224"/>
<path d="M67.1405 67.6749C67.0528 67.573 66.834 67.4462 66.8295 67.3082C66.8513 67.222 66.8929 67.1421 66.9511 67.075C67.0093 67.0078 67.0824 66.9551 67.1646 66.9213C67.6917 66.6893 68.2394 66.5073 68.8004 66.3777C71.2247 65.9475 73.6581 65.5568 76.0916 65.1662C77.3874 64.9523 78.6791 64.7562 79.9679 64.5718C80.4253 64.5066 80.8968 64.5132 81.3604 64.4744C81.6142 64.454 81.8075 64.5313 81.8515 64.7907C81.8954 65.0501 81.6976 65.2271 81.4284 65.3122C81.2906 65.3416 81.1571 65.3533 81.0207 65.3769L77.6305 65.9689C76.2806 66.2009 74.9289 66.4138 73.5879 66.6605C72.6705 66.8276 71.7685 67.0606 70.8479 67.2145C69.7692 67.4054 68.684 67.545 67.6224 67.6902C67.4616 67.6968 67.3005 67.6917 67.1405 67.6749Z" fill="#122224"/>
<path d="M81.9309 62.2889C81.7791 62.3929 81.6148 62.4772 81.4417 62.5395C80.426 62.7267 79.4012 62.8745 78.3869 63.0559C77.3727 63.2372 76.5295 63.4843 75.5919 63.6839C73.7752 64.0723 71.9522 64.4343 70.1341 64.8286C69.4119 64.9862 68.7095 65.2171 67.9886 65.3688C67.4301 65.4934 66.863 65.5767 66.2922 65.6178C66.122 65.627 65.9451 65.4292 65.7412 65.3184C65.8658 65.1614 65.9529 64.9269 66.115 64.8474C66.5068 64.6472 66.9212 64.4953 67.3494 64.3948C69.0295 64.0485 70.7139 63.7199 72.4022 63.4088C73.9864 63.1081 75.5752 62.8397 77.1535 62.5376C78.2556 62.3274 79.3453 62.0644 80.4254 61.8676C80.8039 61.8194 81.1876 61.8311 81.5625 61.9023C81.701 61.9478 81.7882 62.1304 81.9309 62.2889Z" fill="#122224"/>
<path d="M82.006 59.724C81.915 59.8029 81.8153 59.871 81.7087 59.927C81.2215 60.0909 80.7301 60.2725 80.2277 60.3954C79.2508 60.6293 78.2573 60.828 77.2728 61.0414C76.0978 61.2965 74.9197 61.5384 73.7478 61.8067C73.0286 61.9775 72.3173 62.1938 71.6026 62.3719C69.8759 62.8004 68.1552 63.2303 66.4296 63.628C66.0829 63.7091 65.7294 63.7581 65.3738 63.7746C65.2417 63.7804 65.0993 63.6469 64.9605 63.5764C65.0514 63.43 65.1123 63.2267 65.2509 63.1415C65.4414 63.0363 65.648 62.9635 65.8624 62.9263C67.0017 62.6378 68.1367 62.3421 69.2746 62.0595C69.8297 61.9242 70.3878 61.8021 70.9504 61.6873C71.9703 61.4824 72.986 61.2951 74.0028 61.077C75.0196 60.8589 75.9788 60.6208 76.9561 60.4119C78.1032 60.1689 79.2493 59.9567 80.3965 59.7137C80.7101 59.6515 81.0155 59.5189 81.3305 59.4509C81.4881 59.4123 81.6525 59.411 81.8107 59.4471C81.8771 59.4817 81.927 59.6118 82.006 59.724Z" fill="#122224"/>
<path d="M81.4037 29.2622C81.0937 29.8959 80.6784 30.4724 80.1755 30.9672C80.1671 31.0026 80.0849 31.0079 80.0412 31.0348C80.0294 30.9828 80.0254 30.9294 80.0291 30.8763C80.0318 30.7948 80.0509 30.7147 80.0853 30.6407C80.4532 30.0376 80.8212 29.4344 81.1994 28.84C81.2149 28.7752 81.3307 28.7593 81.4009 28.7262C81.4273 28.7899 81.4448 28.8569 81.4529 28.9253C81.4471 29.0389 81.4307 29.1517 81.4037 29.2622Z" fill="white"/>
<path d="M69.102 29.4429L69.0472 29.4298C69.0502 29.4049 69.056 29.3804 69.0646 29.3568C69.0646 29.3568 69.1011 29.3655 69.1194 29.3699L69.102 29.4429Z" fill="white"/>
<path d="M109.148 38L103.148 38" stroke="white" stroke-width="2" stroke-linecap="round"/>
<path d="M41.1484 38L35.1484 38" stroke="white" stroke-width="2" stroke-linecap="round"/>
<path d="M72.1484 1L72.1484 7" stroke="white" stroke-width="2" stroke-linecap="round"/>
<path d="M98.311 11.8371L94.0684 16.0797" stroke="white" stroke-width="2" stroke-linecap="round"/>
<path d="M98.311 64.1629L94.0684 59.9203" stroke="white" stroke-width="2" stroke-linecap="round"/>
<path d="M50.227 16.0797L45.9844 11.837" stroke="white" stroke-width="2" stroke-linecap="round"/>
<path fill-rule="evenodd" clip-rule="evenodd" d="M150.762 104.803C150.61 105.095 150.425 105.368 150.212 105.617C149.458 106.337 148.681 107.042 147.903 107.749C147.41 108.196 146.917 108.643 146.429 109.095C146.237 109.275 146.044 109.453 145.852 109.632L145.851 109.632L145.851 109.632C145.077 110.35 144.302 111.069 143.557 111.823C142.239 113.168 140.932 114.525 139.626 115.881C138.728 116.813 137.831 117.746 136.93 118.673C136.154 119.475 136.15 119.467 135.625 118.46L135.608 118.427L135.178 117.598C133.705 114.756 132.231 111.914 130.717 109.095C130.562 108.855 130.488 108.568 130.508 108.28C130.528 107.992 130.641 107.719 130.828 107.505C132.1 105.749 133.365 103.988 134.623 102.224C135.155 101.482 135.687 100.74 136.219 99.9989L136.22 99.9979L136.22 99.9968C137.623 98.0423 139.026 96.0875 140.417 94.126C141.139 93.2259 141.658 92.171 141.936 91.0379C142.067 90.372 142.383 90.338 142.797 90.8301C142.814 90.8501 142.829 90.8731 142.842 90.8955L142.842 90.8955L142.842 90.8956C142.852 90.9112 142.861 90.9265 142.871 90.9404L144.48 93.3752C144.249 93.6849 144.02 93.9947 143.791 94.3041C143.474 94.732 143.158 95.1593 142.839 95.5852C142.401 96.1582 141.961 96.7297 141.521 97.3013C140.909 98.0964 140.298 98.8917 139.691 99.6913C139.517 99.8884 139.4 100.133 139.355 100.395C139.355 100.523 139.765 100.82 139.798 100.79C140.156 100.551 140.482 100.266 140.77 99.9415C141.627 98.9117 142.469 97.8727 143.309 96.8346L143.309 96.8343C143.608 96.4657 143.906 96.0973 144.205 95.7294C144.301 95.6116 144.401 95.4977 144.5 95.384C144.633 95.2316 144.766 95.0796 144.89 94.9192C145.21 94.495 145.432 94.6095 145.67 95.0125C146.633 96.6583 147.608 98.2999 148.596 99.9373C148.842 100.361 148.686 100.599 148.395 100.854C147.859 101.32 147.321 101.785 146.783 102.25L146.782 102.251C145.46 103.395 144.137 104.539 142.839 105.715C141.86 106.602 140.927 107.55 139.994 108.496L139.994 108.497C139.812 108.681 139.631 108.865 139.449 109.049C139.423 109.075 139.395 109.101 139.366 109.129C139.141 109.341 138.866 109.601 139.207 109.897C139.318 109.999 139.773 109.833 139.974 109.664C140.379 109.319 140.769 108.956 141.159 108.592L141.159 108.592C141.509 108.266 141.858 107.94 142.219 107.628C144.308 105.812 146.4 104.001 148.514 102.219C149.334 101.528 149.503 101.587 149.925 102.571C150.133 103.056 150.313 103.557 150.507 104.099C150.589 104.326 150.673 104.56 150.762 104.803ZM122.999 119.247C123.111 119.394 123.214 119.545 123.309 119.702L123.852 120.742C124.666 122.297 125.479 123.853 126.281 125.412C126.427 125.701 126.562 125.998 126.697 126.295L126.697 126.295C126.96 126.875 127.225 127.457 127.572 127.994C128.097 128.805 127.933 129.469 127.378 130.223C125.551 132.704 123.762 135.208 122.01 137.736C121.356 138.624 120.791 139.57 120.323 140.559C119.644 142.1 118.439 143.203 117.226 144.309C116.585 144.891 116.443 144.895 115.983 144.182C115.015 142.692 114.072 141.194 113.126 139.691L113.125 139.691L113.125 139.691C112.646 138.929 112.166 138.167 111.681 137.404C111.436 137.026 111.587 136.781 111.789 136.469C113.088 134.485 114.378 132.495 115.66 130.498C117.012 128.38 118.352 126.258 119.692 124.136L119.692 124.135L119.692 124.135C120.484 122.881 121.276 121.627 122.07 120.375C122.259 120.075 122.461 119.788 122.672 119.506C122.77 119.407 122.88 119.321 122.999 119.247ZM111.913 145.789C112.44 145.87 112.973 145.953 113.518 146.04C113.648 146.017 113.786 145.995 113.929 145.973C114.271 145.919 114.637 145.861 114.969 145.78C115.439 145.665 115.637 145.41 115.324 144.904C113.926 142.63 112.533 140.351 111.164 138.059C111.081 137.882 110.94 137.741 110.765 137.663C110.59 137.585 110.393 137.575 110.212 137.634C109.362 137.823 108.496 137.919 107.627 137.919C107.216 137.897 106.806 137.877 106.395 137.856C104.241 137.75 102.081 137.644 99.9585 137.315C95.2298 136.563 90.4929 135.801 85.9003 134.339C85.488 134.207 85.3025 134.262 85.488 134.743C85.7934 135.631 86.1556 136.498 86.5723 137.336C86.8331 137.729 87.2201 138.013 87.6648 138.14C88.7505 138.461 89.8513 138.725 90.9629 138.931C91.5741 139.053 92.1907 139.15 92.8078 139.248C93.3936 139.341 93.9797 139.433 94.562 139.547C94.6887 139.573 94.7942 139.718 94.8996 139.863C94.9485 139.931 94.9974 139.998 95.0484 140.053C94.8969 140.185 94.7257 140.292 94.5413 140.368C94.2846 140.42 94.0212 140.427 93.7622 140.389C92.8434 140.27 91.9247 140.145 91.0053 140.02C90.2456 139.917 89.4853 139.813 88.7243 139.713C88.4357 139.679 88.1389 139.679 87.8463 139.679H87.8462C87.9004 139.97 87.9818 140.255 88.0894 140.529C88.298 140.924 88.5366 141.3 88.8026 141.656C88.9442 141.881 89.1328 142.071 89.3546 142.212C89.5764 142.352 89.8259 142.44 90.0848 142.468C92.2451 142.706 94.4053 142.953 96.5491 143.289C99.3606 143.728 102.165 144.194 104.969 144.66C106.371 144.892 107.774 145.125 109.177 145.355C110.081 145.504 110.986 145.645 111.913 145.789Z" fill="#A0A7A7"/>
<path d="M150.212 105.617L150.903 106.34L150.94 106.305L150.973 106.266L150.212 105.617ZM150.762 104.803L151.648 105.266L151.854 104.873L151.7 104.456L150.762 104.803ZM147.903 107.749L147.231 107.008H147.231L147.903 107.749ZM146.429 109.095L145.75 108.362L145.747 108.364L146.429 109.095ZM145.852 109.632L146.529 110.368L146.532 110.365L145.852 109.632ZM145.851 109.632L146.52 110.375L146.528 110.368L145.851 109.632ZM145.851 109.632L145.182 108.889L145.177 108.894L145.171 108.899L145.851 109.632ZM143.557 111.823L142.846 111.12L142.842 111.123L143.557 111.823ZM139.626 115.881L138.906 115.187H138.906L139.626 115.881ZM136.93 118.673L136.212 117.977L136.211 117.978L136.93 118.673ZM135.625 118.46L136.512 117.998L136.512 117.998L135.625 118.46ZM135.608 118.427L134.72 118.888L134.721 118.89L135.608 118.427ZM135.178 117.598L134.291 118.058L134.291 118.059L135.178 117.598ZM130.717 109.095L131.598 108.622L131.579 108.586L131.556 108.552L130.717 109.095ZM130.508 108.28L129.511 108.211V108.211L130.508 108.28ZM130.828 107.505L131.582 108.162L131.611 108.128L131.638 108.091L130.828 107.505ZM134.623 102.224L133.81 101.641L133.809 101.643L134.623 102.224ZM136.219 99.9989L135.407 99.4152L135.406 99.4159L136.219 99.9989ZM136.22 99.9979L135.408 99.4138L135.408 99.4142L136.22 99.9979ZM136.22 99.9968L137.032 100.581L137.033 100.58L136.22 99.9968ZM140.417 94.126L139.637 93.5005L139.619 93.5233L139.602 93.5473L140.417 94.126ZM141.936 91.0379L142.907 91.2762L142.912 91.2539L142.917 91.2314L141.936 91.0379ZM142.797 90.8301L142.033 91.4743L142.034 91.4761L142.797 90.8301ZM142.842 90.8955L143.749 90.4735L143.725 90.4217L143.695 90.3729L142.842 90.8955ZM142.842 90.8955L141.936 91.3175L141.949 91.3465L141.965 91.3746L142.842 90.8955ZM142.842 90.8956L141.965 91.3747L141.977 91.3969L141.99 91.4184L142.842 90.8956ZM142.871 90.9404L143.706 90.3891L143.694 90.3709L143.681 90.3531L142.871 90.9404ZM144.48 93.3752L145.282 93.9726L145.701 93.4097L145.314 92.824L144.48 93.3752ZM143.791 94.3041L142.987 93.7091L142.987 93.7091L143.791 94.3041ZM142.839 95.5852L143.633 96.1921L143.639 96.1848L142.839 95.5852ZM141.521 97.3013L140.729 96.6915V96.6915L141.521 97.3013ZM139.691 99.6913L140.44 100.354L140.465 100.325L140.488 100.296L139.691 99.6913ZM139.355 100.395L138.369 100.225L138.355 100.309V100.395H139.355ZM139.798 100.79L139.242 99.9583L139.181 99.999L139.127 100.048L139.798 100.79ZM140.77 99.9415L141.518 100.605L141.529 100.593L141.539 100.581L140.77 99.9415ZM143.309 96.8346L142.537 96.1995L142.532 96.2054L143.309 96.8346ZM143.309 96.8343L144.082 97.4693L144.087 97.4635L143.309 96.8343ZM144.205 95.7294L143.431 95.096L143.429 95.0988L144.205 95.7294ZM144.5 95.384L145.253 96.0415L145.253 96.0415L144.5 95.384ZM144.89 94.9192L145.68 95.5327L145.688 95.5215L144.89 94.9192ZM145.67 95.0125L146.533 94.5075L146.531 94.504L145.67 95.0125ZM148.596 99.9373L149.461 99.4353L149.456 99.428L149.452 99.4208L148.596 99.9373ZM148.395 100.854L149.052 101.607L149.052 101.607L148.395 100.854ZM146.783 102.25L147.437 103.007L147.438 103.007L146.783 102.25ZM146.782 102.251L146.129 101.494L146.128 101.495L146.782 102.251ZM142.839 105.715L142.167 104.974L142.167 104.974L142.839 105.715ZM139.994 108.496L140.701 109.204L140.706 109.198L139.994 108.496ZM139.994 108.497L139.287 107.789L139.281 107.795L139.994 108.497ZM139.449 109.049L140.155 109.757L140.16 109.752L139.449 109.049ZM139.366 109.129L140.052 109.856L139.366 109.129ZM139.207 109.897L139.884 109.161L139.873 109.151L139.863 109.142L139.207 109.897ZM139.974 109.664L140.619 110.428L140.623 110.425L139.974 109.664ZM141.159 108.592L140.559 107.792L140.517 107.824L140.478 107.86L141.159 108.592ZM141.159 108.592L141.759 109.392L141.802 109.36L141.841 109.323L141.159 108.592ZM142.219 107.628L142.874 108.383L142.875 108.382L142.219 107.628ZM148.514 102.219L147.869 101.455L147.869 101.455L148.514 102.219ZM149.925 102.571L149.006 102.966L149.007 102.966L149.925 102.571ZM150.507 104.099L151.449 103.761V103.761L150.507 104.099ZM123.309 119.702L124.195 119.239L124.181 119.213L124.166 119.187L123.309 119.702ZM122.999 119.247L123.793 118.639L123.245 117.923L122.476 118.395L122.999 119.247ZM123.852 120.742L122.966 121.205L122.966 121.206L123.852 120.742ZM126.281 125.412L127.175 124.963L127.17 124.954L126.281 125.412ZM126.697 126.295L127.625 125.924L127.617 125.902L127.607 125.881L126.697 126.295ZM126.697 126.295L125.768 126.666L125.777 126.688L125.786 126.709L126.697 126.295ZM127.572 127.994L126.732 128.537H126.732L127.572 127.994ZM127.378 130.223L128.183 130.816L128.184 130.816L127.378 130.223ZM122.01 137.736L122.815 138.328L122.824 138.317L122.832 138.305L122.01 137.736ZM120.323 140.559L119.419 140.132L119.414 140.144L119.408 140.156L120.323 140.559ZM117.226 144.309L117.898 145.05L117.9 145.048L117.226 144.309ZM115.983 144.182L116.823 143.64L116.822 143.638L115.983 144.182ZM113.126 139.691L112.278 140.221L112.279 140.224L113.126 139.691ZM113.125 139.691L112.262 140.195L112.269 140.208L112.277 140.221L113.125 139.691ZM113.125 139.691L113.989 139.187L113.981 139.172L113.971 139.158L113.125 139.691ZM111.681 137.404L112.526 136.868L112.52 136.858L111.681 137.404ZM111.789 136.469L110.952 135.921L110.95 135.925L111.789 136.469ZM115.66 130.498L116.502 131.038L116.503 131.036L115.66 130.498ZM119.692 124.136L120.538 124.67L120.542 124.662L119.692 124.136ZM119.692 124.135L118.855 123.589L118.848 123.599L118.842 123.609L119.692 124.135ZM119.692 124.135L120.53 124.681L120.534 124.675L120.538 124.669L119.692 124.135ZM122.07 120.375L122.915 120.91L122.915 120.909L122.07 120.375ZM122.672 119.506L121.963 118.8L121.913 118.851L121.87 118.908L122.672 119.506ZM113.518 146.04L113.362 147.027L113.525 147.053L113.689 147.025L113.518 146.04ZM111.913 145.789L112.067 144.801H112.067L111.913 145.789ZM113.929 145.973L114.084 146.961L114.084 146.961L113.929 145.973ZM114.969 145.78L114.732 144.809H114.732L114.969 145.78ZM115.324 144.904L114.472 145.428L114.473 145.431L115.324 144.904ZM111.164 138.059L110.257 138.481L110.279 138.528L110.305 138.572L111.164 138.059ZM110.765 137.663L111.172 136.75L111.172 136.75L110.765 137.663ZM110.212 137.634L110.429 138.61L110.476 138.6L110.522 138.585L110.212 137.634ZM107.627 137.919L107.574 138.917L107.6 138.919L107.626 138.919L107.627 137.919ZM106.395 137.856L106.444 136.858H106.444L106.395 137.856ZM99.9585 137.315L99.8013 138.303L99.8056 138.303L99.9585 137.315ZM85.9003 134.339L85.5958 135.291L85.5968 135.292L85.9003 134.339ZM85.488 134.743L86.4337 134.418L86.4276 134.4L86.4209 134.383L85.488 134.743ZM86.5723 137.336L85.6767 137.781L85.7046 137.837L85.7394 137.89L86.5723 137.336ZM87.6648 138.14L87.9483 137.181L87.9383 137.178L87.6648 138.14ZM90.9629 138.931L91.1589 137.95L91.1451 137.947L90.9629 138.931ZM92.8078 139.248L92.964 138.26H92.964L92.8078 139.248ZM94.562 139.547L94.764 138.568L94.7539 138.566L94.562 139.547ZM94.8996 139.863L94.0909 140.452L94.0909 140.452L94.8996 139.863ZM95.0484 140.053L95.7061 140.806L96.4802 140.131L95.7835 139.375L95.0484 140.053ZM94.5413 140.368L94.739 141.348L94.8336 141.329L94.9229 141.292L94.5413 140.368ZM93.7622 140.389L93.9062 139.399L93.8982 139.398L93.8903 139.397L93.7622 140.389ZM91.0053 140.02L90.8704 141.011H90.8704L91.0053 140.02ZM88.7243 139.713L88.8546 138.721L88.8413 138.72L88.7243 139.713ZM87.8462 139.679V138.679H86.6426L86.8631 139.862L87.8462 139.679ZM88.0894 140.529L87.1582 140.894L87.1789 140.947L87.2055 140.997L88.0894 140.529ZM88.8026 141.656L89.6493 141.124L89.6277 141.089L89.6033 141.057L88.8026 141.656ZM89.3546 142.212L89.8897 141.367L89.8897 141.367L89.3546 142.212ZM90.0848 142.468L90.1943 141.474L90.1937 141.474L90.0848 142.468ZM96.5491 143.289L96.3943 144.277L96.3947 144.277L96.5491 143.289ZM104.969 144.66L105.133 143.673H105.133L104.969 144.66ZM109.177 145.355L109.339 144.368L109.338 144.368L109.177 145.355ZM150.973 106.266C151.235 105.96 151.461 105.624 151.648 105.266L149.876 104.339C149.758 104.565 149.615 104.776 149.452 104.968L150.973 106.266ZM148.575 108.489C149.352 107.784 150.138 107.07 150.903 106.34L149.522 104.894C148.778 105.603 148.011 106.3 147.231 107.008L148.575 108.489ZM147.108 109.829C147.592 109.381 148.082 108.937 148.575 108.489L147.231 107.008C146.739 107.455 146.242 107.906 145.75 108.362L147.108 109.829ZM146.532 110.365C146.724 110.186 146.918 110.007 147.111 109.827L145.747 108.364C145.556 108.542 145.364 108.72 145.172 108.899L146.532 110.365ZM146.528 110.368L146.529 110.368L145.175 108.896L145.175 108.896L146.528 110.368ZM146.52 110.376L146.52 110.375L145.182 108.889L145.182 108.889L146.52 110.376ZM144.268 112.526C144.996 111.79 145.755 111.086 146.531 110.365L145.171 108.899C144.4 109.615 143.609 110.348 142.846 111.12L144.268 112.526ZM140.346 116.575C141.653 115.218 142.956 113.864 144.271 112.523L142.842 111.123C141.521 112.472 140.211 113.832 138.906 115.187L140.346 116.575ZM137.647 119.37C138.55 118.44 139.449 117.507 140.346 116.575L138.906 115.187C138.008 116.12 137.111 117.051 136.212 117.977L137.647 119.37ZM134.739 118.922C134.858 119.152 134.986 119.399 135.109 119.585C135.199 119.721 135.479 120.14 136.017 120.231C136.571 120.325 136.974 120.002 137.106 119.894C137.279 119.752 137.471 119.552 137.648 119.369L136.211 117.978C136.112 118.08 136.035 118.159 135.969 118.225C135.902 118.291 135.862 118.327 135.839 118.346C135.812 118.368 135.84 118.34 135.909 118.309C135.991 118.273 136.149 118.225 136.35 118.259C136.548 118.292 136.676 118.387 136.733 118.438C136.783 118.483 136.796 118.511 136.774 118.477C136.755 118.449 136.725 118.398 136.678 118.312C136.632 118.227 136.579 118.126 136.512 117.998L134.739 118.922ZM134.721 118.89L134.739 118.922L136.512 117.998L136.495 117.965L134.721 118.89ZM134.291 118.059L134.72 118.888L136.496 117.967L136.066 117.138L134.291 118.059ZM129.836 109.569C131.347 112.379 132.817 115.216 134.291 118.058L136.066 117.138C134.594 114.297 133.116 111.448 131.598 108.622L129.836 109.569ZM129.511 108.211C129.476 108.713 129.603 109.215 129.877 109.639L131.556 108.552C131.52 108.496 131.501 108.424 131.506 108.35L129.511 108.211ZM130.074 106.848C129.742 107.229 129.546 107.709 129.511 108.211L131.506 108.35C131.511 108.275 131.54 108.21 131.582 108.162L130.074 106.848ZM133.809 101.643C132.552 103.406 131.288 105.164 130.018 106.918L131.638 108.091C132.911 106.333 134.178 104.571 135.438 102.804L133.809 101.643ZM135.406 99.4159C134.874 100.157 134.342 100.899 133.81 101.641L135.436 102.806C135.967 102.065 136.499 101.323 137.031 100.582L135.406 99.4159ZM135.408 99.4142L135.407 99.4152L137.031 100.583L137.032 100.582L135.408 99.4142ZM135.409 99.4127L135.408 99.4138L137.031 100.582L137.032 100.581L135.409 99.4127ZM139.602 93.5473C138.212 95.5062 136.811 97.4589 135.408 99.4138L137.033 100.58C138.435 98.6256 139.839 96.6687 141.233 94.7047L139.602 93.5473ZM140.965 90.7996C140.721 91.7929 140.267 92.7153 139.637 93.5005L141.198 94.7515C142.011 93.7365 142.595 92.5491 142.907 91.2762L140.965 90.7996ZM143.562 90.1859C143.423 90.0202 143.247 89.8434 143.032 89.7107C142.82 89.5792 142.474 89.4351 142.059 89.5202C141.63 89.6084 141.361 89.8936 141.215 90.1333C141.074 90.3638 140.999 90.6195 140.955 90.8445L142.917 91.2314C142.938 91.1233 142.952 91.1251 142.92 91.1773C142.883 91.2387 142.744 91.4213 142.462 91.4793C142.195 91.5341 142.013 91.4322 141.981 91.4119C141.946 91.3905 141.965 91.394 142.033 91.4743L143.562 90.1859ZM143.695 90.3729C143.688 90.3624 143.636 90.2724 143.561 90.184L142.034 91.4761C142.01 91.4475 141.994 91.4248 141.989 91.4161C141.986 91.4114 141.984 91.4087 141.984 91.4092C141.985 91.4102 141.986 91.4118 141.99 91.4181L143.695 90.3729ZM143.749 90.4735L143.749 90.4735L141.936 91.3175L141.936 91.3175L143.749 90.4735ZM143.72 90.4165L143.72 90.4164L141.965 91.3746L141.965 91.3747L143.72 90.4165ZM143.681 90.3531C143.691 90.3673 143.698 90.3776 143.699 90.38C143.7 90.3815 143.7 90.3819 143.7 90.3805C143.699 90.379 143.697 90.3771 143.695 90.3728L141.99 91.4184C141.995 91.4272 142.025 91.4767 142.062 91.5276L143.681 90.3531ZM145.314 92.824L143.706 90.3891L142.037 91.4916L143.646 93.9264L145.314 92.824ZM144.594 94.8991C144.824 94.5895 145.052 94.2809 145.282 93.9726L143.678 92.7777C143.446 93.0889 143.216 93.3999 142.987 93.7091L144.594 94.8991ZM143.639 96.1848C143.96 95.7562 144.278 95.3266 144.594 94.8991L142.987 93.7091C142.67 94.1374 142.355 94.5623 142.038 94.9855L143.639 96.1848ZM142.314 97.9111C142.753 97.3398 143.194 96.7668 143.633 96.1921L142.044 94.9782C141.607 95.5495 141.169 96.1196 140.729 96.6915L142.314 97.9111ZM140.488 100.296C141.092 99.4992 141.702 98.7067 142.314 97.9111L140.729 96.6915C140.117 97.4861 139.503 98.2842 138.894 99.087L140.488 100.296ZM140.34 100.566C140.354 100.483 140.391 100.41 140.44 100.354L138.942 99.0288C138.643 99.3669 138.446 99.782 138.369 100.225L140.34 100.566ZM139.127 100.048C139.303 99.889 139.494 99.8291 139.621 99.8068C139.746 99.7849 139.848 99.7918 139.906 99.7988C140.02 99.8124 140.102 99.8432 140.128 99.8534C140.165 99.8673 140.19 99.8799 140.202 99.8859C140.215 99.8926 140.223 99.8975 140.226 99.8994C140.233 99.9034 140.218 99.8945 140.193 99.8745C140.167 99.8531 140.164 99.8468 140.177 99.8624C140.183 99.8695 140.213 99.9041 140.246 99.9632C140.27 100.006 140.355 100.164 140.355 100.395H138.355C138.355 100.659 138.453 100.854 138.499 100.937C138.554 101.037 138.616 101.115 138.662 101.167C138.753 101.274 138.854 101.363 138.934 101.429C139.016 101.495 139.11 101.563 139.203 101.618C139.244 101.642 139.319 101.685 139.41 101.72C139.451 101.736 139.545 101.77 139.669 101.785C139.737 101.793 140.128 101.84 140.469 101.532L139.127 100.048ZM140.023 99.2776C139.791 99.5386 139.529 99.7672 139.242 99.9583L140.353 101.621C140.783 101.335 141.174 100.993 141.518 100.605L140.023 99.2776ZM142.532 96.2054C141.691 97.2443 140.854 98.2781 140.002 99.3019L141.539 100.581C142.401 99.5453 143.246 98.5011 144.086 97.4639L142.532 96.2054ZM142.537 96.1992L142.537 96.1996L144.081 97.4697L144.082 97.4693L142.537 96.1992ZM143.429 95.0988C143.129 95.4674 142.83 95.8365 142.532 96.205L144.087 97.4635C144.385 97.0948 144.683 96.7271 144.981 96.36L143.429 95.0988ZM143.747 94.7265C143.649 94.8383 143.539 94.964 143.431 95.096L144.979 96.3628C145.064 96.2592 145.153 96.1571 145.253 96.0415L143.747 94.7265ZM144.101 94.3057C143.996 94.4398 143.883 94.5706 143.747 94.7265L145.253 96.0415C145.383 95.8926 145.535 95.7193 145.68 95.5327L144.101 94.3057ZM146.531 94.504C146.453 94.3713 146.347 94.2123 146.209 94.0703C146.072 93.9302 145.843 93.7449 145.514 93.6765C144.762 93.5205 144.278 94.0701 144.092 94.3169L145.688 95.5215C145.731 95.4652 145.716 95.5015 145.636 95.5507C145.534 95.6136 145.342 95.6834 145.108 95.6348C144.903 95.5924 144.795 95.4848 144.777 95.4663C144.757 95.4458 144.768 95.4522 144.809 95.5211L146.531 94.504ZM149.452 99.4208C148.467 97.7873 147.494 96.1495 146.533 94.5075L144.807 95.5175C145.772 97.1672 146.75 98.8126 147.739 100.454L149.452 99.4208ZM149.052 101.607C149.218 101.462 149.519 101.183 149.652 100.755C149.805 100.26 149.673 99.801 149.461 99.4353L147.731 100.439C147.751 100.473 147.735 100.458 147.725 100.401C147.713 100.334 147.715 100.249 147.741 100.163C147.766 100.085 147.799 100.042 147.803 100.038C147.804 100.037 147.789 100.055 147.737 100.1L149.052 101.607ZM147.438 103.007C147.975 102.542 148.514 102.076 149.052 101.607L147.738 100.1C147.203 100.565 146.667 101.029 146.129 101.494L147.438 103.007ZM147.436 103.008L147.437 103.007L146.13 101.493L146.129 101.494L147.436 103.008ZM143.51 106.456C144.798 105.289 146.112 104.153 147.436 103.008L146.128 101.495C144.807 102.637 143.475 103.788 142.167 104.974L143.51 106.456ZM140.706 109.198C141.642 108.248 142.556 107.321 143.51 106.455L142.167 104.974C141.163 105.884 140.211 106.851 139.281 107.795L140.706 109.198ZM140.701 109.204L140.701 109.204L139.287 107.789L139.287 107.79L140.701 109.204ZM140.16 109.752C140.343 109.567 140.525 109.382 140.706 109.198L139.281 107.795C139.1 107.979 138.919 108.163 138.738 108.345L140.16 109.752ZM140.052 109.856C140.079 109.831 140.117 109.794 140.155 109.757L138.743 108.34C138.729 108.355 138.711 108.372 138.679 108.402L140.052 109.856ZM139.863 109.142C139.879 109.156 139.974 109.245 140.022 109.422C140.073 109.611 140.036 109.775 139.995 109.87C139.962 109.949 139.928 109.981 139.947 109.959C139.964 109.94 139.99 109.915 140.052 109.856L138.679 108.402C138.615 108.462 138.306 108.73 138.153 109.092C138.058 109.316 138.002 109.613 138.091 109.941C138.175 110.257 138.364 110.49 138.551 110.652L139.863 109.142ZM139.329 108.9C139.352 108.88 139.354 108.883 139.324 108.899C139.298 108.912 139.27 108.924 139.247 108.932C139.217 108.941 139.231 108.933 139.283 108.929C139.309 108.928 139.377 108.925 139.468 108.944C139.555 108.963 139.723 109.013 139.884 109.161L138.53 110.633C138.879 110.954 139.3 110.932 139.408 110.925C139.583 110.915 139.744 110.873 139.867 110.833C140.102 110.756 140.392 110.619 140.619 110.428L139.329 108.9ZM140.478 107.86C140.085 108.227 139.711 108.575 139.326 108.902L140.623 110.425C141.047 110.064 141.454 109.684 141.841 109.323L140.478 107.86ZM140.559 107.792L140.559 107.792L141.759 109.392L141.759 109.392L140.559 107.792ZM141.564 106.872C141.187 107.199 140.825 107.537 140.478 107.86L141.841 109.323C142.193 108.996 142.529 108.682 142.874 108.383L141.564 106.872ZM147.869 101.455C145.75 103.242 143.652 105.057 141.563 106.873L142.875 108.382C144.963 106.567 147.051 104.76 149.158 102.984L147.869 101.455ZM150.844 102.177C150.738 101.93 150.618 101.668 150.476 101.453C150.34 101.247 150.077 100.918 149.621 100.799C149.155 100.678 148.762 100.845 148.537 100.969C148.306 101.097 148.078 101.279 147.869 101.455L149.158 102.984C149.253 102.904 149.328 102.843 149.39 102.797C149.454 102.75 149.49 102.728 149.505 102.719C149.523 102.71 149.494 102.728 149.43 102.743C149.396 102.751 149.35 102.757 149.295 102.758C149.239 102.758 149.178 102.751 149.117 102.735C148.988 102.701 148.899 102.64 148.85 102.597C148.806 102.559 148.794 102.535 148.808 102.556C148.82 102.575 148.844 102.615 148.88 102.688C148.916 102.76 148.957 102.851 149.006 102.966L150.844 102.177ZM151.449 103.761C151.257 103.225 151.066 102.694 150.844 102.176L149.007 102.966C149.2 103.417 149.37 103.889 149.566 104.436L151.449 103.761ZM151.7 104.456C151.613 104.219 151.53 103.989 151.449 103.761L149.566 104.436C149.647 104.663 149.733 104.901 149.824 105.149L151.7 104.456ZM124.166 119.187C124.052 118.998 123.928 118.815 123.793 118.639L122.205 119.855C122.294 119.972 122.377 120.093 122.452 120.218L124.166 119.187ZM124.739 120.279L124.195 119.239L122.423 120.166L122.966 121.205L124.739 120.279ZM127.17 124.954C126.367 123.392 125.552 121.833 124.739 120.279L122.966 121.206C123.78 122.761 124.592 124.314 125.392 125.869L127.17 124.954ZM127.607 125.881C127.473 125.587 127.331 125.273 127.175 124.963L125.388 125.86C125.523 126.13 125.65 126.409 125.786 126.709L127.607 125.881ZM127.625 125.924L127.625 125.924L125.768 126.666L125.768 126.666L127.625 125.924ZM128.412 127.45C128.111 126.986 127.876 126.473 127.607 125.881L125.786 126.709C126.045 127.278 126.338 127.927 126.732 128.537L128.412 127.45ZM128.184 130.816C128.507 130.377 128.798 129.858 128.872 129.252C128.951 128.613 128.775 128.012 128.412 127.45L126.732 128.537C126.894 128.787 126.898 128.923 126.887 129.007C126.873 129.125 126.805 129.316 126.573 129.63L128.184 130.816ZM122.832 138.305C124.578 135.786 126.362 133.289 128.183 130.816L126.573 129.63C124.741 132.119 122.946 134.631 121.188 137.166L122.832 138.305ZM121.227 140.987C121.668 140.056 122.199 139.166 122.815 138.328L121.204 137.143C120.513 138.083 119.915 139.084 119.419 140.132L121.227 140.987ZM117.9 145.048C119.089 143.964 120.46 142.727 121.238 140.963L119.408 140.156C118.827 141.473 117.79 142.442 116.552 143.571L117.9 145.048ZM115.143 144.725C115.26 144.907 115.401 145.113 115.563 145.281C115.731 145.454 116.022 145.69 116.448 145.728C116.86 145.764 117.182 145.595 117.367 145.477C117.555 145.356 117.738 145.195 117.898 145.05L116.554 143.569C116.479 143.637 116.42 143.689 116.372 143.728C116.323 143.768 116.296 143.787 116.286 143.794C116.274 143.801 116.299 143.784 116.352 143.766C116.412 143.746 116.507 143.725 116.625 143.735C116.746 143.746 116.843 143.785 116.911 143.824C116.942 143.842 116.965 143.859 116.979 143.87C116.992 143.881 116.999 143.889 116.999 143.889C116.999 143.889 116.995 143.884 116.986 143.873C116.977 143.862 116.964 143.846 116.948 143.825C116.916 143.78 116.875 143.721 116.823 143.64L115.143 144.725ZM112.279 140.224C113.225 141.726 114.172 143.229 115.144 144.727L116.822 143.638C115.858 142.154 114.919 140.662 113.972 139.158L112.279 140.224ZM112.277 140.221L112.278 140.221L113.974 139.161L113.973 139.161L112.277 140.221ZM112.262 140.195L112.262 140.195L113.989 139.187L113.989 139.187L112.262 140.195ZM110.837 137.939C111.32 138.701 111.8 139.462 112.279 140.224L113.971 139.158C113.492 138.397 113.011 137.633 112.526 136.868L110.837 137.939ZM110.95 135.925C110.87 136.048 110.668 136.341 110.59 136.698C110.492 137.146 110.598 137.572 110.843 137.949L112.52 136.858C112.511 136.845 112.531 136.872 112.544 136.934C112.551 136.965 112.555 136.999 112.554 137.035C112.554 137.07 112.55 137.101 112.544 137.125C112.534 137.171 112.522 137.189 112.535 137.163C112.541 137.152 112.551 137.134 112.567 137.108C112.584 137.082 112.602 137.052 112.628 137.014L110.95 135.925ZM114.819 129.958C113.539 131.952 112.25 133.94 110.952 135.921L112.625 137.017C113.926 135.031 115.218 133.038 116.502 131.038L114.819 129.958ZM118.847 123.602C117.506 125.724 116.168 127.845 114.817 129.96L116.503 131.036C117.857 128.916 119.198 126.791 120.538 124.67L118.847 123.602ZM118.842 123.609L118.842 123.609L120.542 124.662L120.543 124.662L118.842 123.609ZM118.855 123.589L118.855 123.589L120.53 124.682L120.53 124.681L118.855 123.589ZM121.225 119.839C120.431 121.093 119.639 122.347 118.847 123.601L120.538 124.669C121.33 123.415 122.121 122.162 122.915 120.91L121.225 119.839ZM121.87 118.908C121.649 119.205 121.432 119.513 121.225 119.84L122.915 120.909C123.087 120.637 123.273 120.372 123.474 120.103L121.87 118.908ZM122.476 118.395C122.29 118.509 122.118 118.645 121.963 118.8L123.381 120.211C123.422 120.17 123.469 120.132 123.522 120.1L122.476 118.395ZM113.674 145.052C113.128 144.965 112.593 144.882 112.067 144.801L111.76 146.777C112.286 146.859 112.818 146.941 113.362 147.027L113.674 145.052ZM113.773 144.985C113.632 145.007 113.486 145.03 113.347 145.054L113.689 147.025C113.809 147.004 113.94 146.983 114.084 146.961L113.773 144.985ZM114.732 144.809C114.448 144.878 114.124 144.93 113.773 144.985L114.084 146.961C114.417 146.908 114.827 146.844 115.206 146.752L114.732 144.809ZM114.473 145.431C114.512 145.493 114.496 145.486 114.484 145.423C114.469 145.345 114.467 145.204 114.542 145.05C114.613 144.905 114.712 144.833 114.751 144.809C114.786 144.788 114.79 144.795 114.732 144.809L115.206 146.752C115.507 146.678 116.064 146.49 116.339 145.928C116.638 145.316 116.39 144.727 116.174 144.378L114.473 145.431ZM110.305 138.572C111.677 140.869 113.074 143.152 114.472 145.428L116.176 144.381C114.779 142.107 113.388 139.832 112.022 137.546L110.305 138.572ZM110.357 138.576C110.307 138.554 110.274 138.517 110.257 138.481L112.071 137.637C111.889 137.246 111.572 136.929 111.172 136.75L110.357 138.576ZM110.522 138.585C110.467 138.602 110.408 138.599 110.357 138.576L111.172 136.75C110.772 136.571 110.319 136.547 109.901 136.683L110.522 138.585ZM107.626 138.919C108.569 138.919 109.509 138.815 110.429 138.61L109.994 136.658C109.216 136.832 108.422 136.919 107.627 136.919L107.626 138.919ZM106.345 138.855C106.757 138.876 107.165 138.896 107.574 138.917L107.68 136.92C107.267 136.898 106.855 136.878 106.444 136.858L106.345 138.855ZM99.8056 138.303C101.988 138.641 104.2 138.749 106.345 138.855L106.444 136.858C104.281 136.751 102.173 136.646 100.111 136.327L99.8056 138.303ZM85.5968 135.292C90.2727 136.781 95.0835 137.552 99.8013 138.303L100.116 136.327C95.3762 135.573 90.7131 134.822 86.2037 133.386L85.5968 135.292ZM86.4209 134.383C86.3895 134.301 86.4126 134.331 86.4157 134.427C86.4192 134.538 86.3908 134.865 86.0791 135.104C85.8212 135.302 85.569 135.277 85.5554 135.276C85.5157 135.272 85.5201 135.267 85.5958 135.291L86.2048 133.386C86.0743 133.345 85.901 133.297 85.7163 133.282C85.5578 133.269 85.1935 133.263 84.8608 133.518C84.4744 133.815 84.4086 134.238 84.4167 134.49C84.4243 134.727 84.4938 134.944 84.5552 135.103L86.4209 134.383ZM87.4679 136.891C87.0705 136.092 86.725 135.265 86.4337 134.418L84.5423 135.068C84.8617 135.997 85.2407 136.903 85.6767 137.781L87.4679 136.891ZM87.9383 137.178C87.7275 137.118 87.5369 136.981 87.4052 136.783L85.7394 137.89C86.1293 138.476 86.7126 138.909 87.3913 139.102L87.9383 137.178ZM91.1451 137.947C90.0677 137.748 89.0007 137.492 87.9482 137.181L87.3814 139.099C88.5003 139.43 89.6349 139.702 90.7807 139.914L91.1451 137.947ZM92.964 138.26C92.3436 138.162 91.747 138.068 91.1589 137.95L90.767 139.911C91.4013 140.038 92.0379 140.139 92.6516 140.236L92.964 138.26ZM94.7539 138.566C94.1509 138.448 93.5468 138.352 92.964 138.26L92.6515 140.236C93.2403 140.329 93.8085 140.419 94.37 140.529L94.7539 138.566ZM95.7083 139.275C95.6658 139.217 95.5718 139.084 95.4599 138.968C95.3552 138.859 95.1235 138.642 94.764 138.568L94.36 140.527C94.238 140.501 94.1501 140.454 94.0992 140.42C94.0498 140.387 94.0226 140.359 94.0177 140.354C94.0119 140.348 94.0152 140.35 94.0302 140.37C94.0457 140.39 94.0628 140.413 94.0909 140.452L95.7083 139.275ZM95.7835 139.375C95.7856 139.377 95.7806 139.372 95.7659 139.353C95.7508 139.333 95.7343 139.311 95.7083 139.275L94.0909 140.452C94.1315 140.507 94.2154 140.625 94.3133 140.731L95.7835 139.375ZM94.9229 141.292C95.2089 141.174 95.4732 141.01 95.7061 140.806L94.3907 139.3C94.3206 139.361 94.2425 139.409 94.1598 139.443L94.9229 141.292ZM93.6182 141.379C93.9908 141.433 94.3698 141.422 94.739 141.348L94.3437 139.388C94.1994 139.417 94.0516 139.421 93.9062 139.399L93.6182 141.379ZM90.8704 141.011C91.7892 141.136 92.7113 141.262 93.634 141.381L93.8903 139.397C92.9755 139.279 92.0602 139.154 91.1402 139.029L90.8704 141.011ZM88.594 140.704C89.3523 140.804 90.1103 140.907 90.8704 141.011L91.1402 139.029C90.3809 138.926 89.6184 138.822 88.8546 138.722L88.594 140.704ZM87.8463 140.679C88.1496 140.679 88.387 140.68 88.6072 140.706L88.8413 138.72C88.4845 138.678 88.1283 138.679 87.8463 138.679V140.679ZM87.8462 140.679H87.8463V138.679H87.8462V140.679ZM89.0205 140.165C88.9361 139.949 88.8719 139.725 88.8292 139.496L86.8631 139.862C86.9288 140.215 87.0276 140.56 87.1582 140.894L89.0205 140.165ZM89.6033 141.057C89.3684 140.743 89.1577 140.41 88.9733 140.062L87.2055 140.997C87.4383 141.437 87.7047 141.858 88.002 142.255L89.6033 141.057ZM89.8897 141.367C89.7955 141.307 89.7128 141.225 89.6493 141.124L87.956 142.188C88.1757 142.538 88.4701 142.835 88.8195 143.056L89.8897 141.367ZM90.1937 141.474C90.0877 141.462 89.9838 141.426 89.8897 141.367L88.8195 143.056C89.1691 143.278 89.5642 143.417 89.9759 143.462L90.1937 141.474ZM96.7039 142.301C94.5352 141.961 92.3546 141.712 90.1943 141.474L89.9752 143.462C92.1356 143.7 94.2754 143.945 96.3943 144.277L96.7039 142.301ZM105.133 143.673C102.329 143.207 99.5205 142.741 96.7035 142.301L96.3947 144.277C99.2006 144.715 102 145.18 104.805 145.646L105.133 143.673ZM109.338 144.368C107.936 144.139 106.535 143.906 105.133 143.673L104.805 145.646C106.207 145.879 107.611 146.112 109.015 146.342L109.338 144.368ZM112.067 144.801C111.139 144.656 110.239 144.517 109.339 144.368L109.014 146.342C109.924 146.492 110.833 146.633 111.76 146.777L112.067 144.801Z" fill="#A0A7A7"/>
<path d="M82.1484 131.736C82.1945 129.86 82.869 128.159 83.4891 126.459C85.4167 121.363 87.7174 116.415 90.3726 111.657C94.2151 104.47 98.6727 97.628 103.695 91.2091C105.719 88.6416 107.797 86.0992 110.428 84.0887C110.686 83.9118 110.904 83.6837 111.069 83.4186C111.614 82.3924 112.485 82.1202 113.583 82.0364C116.189 81.9042 118.802 82.1325 121.346 82.7149C126.897 83.8374 132.419 85.094 137.949 86.3212C139.69 86.6827 141.34 87.3898 142.803 88.4006C144.265 89.4115 145.51 90.7054 146.462 92.2059C148.356 95.0917 150.162 98.032 151.938 101.002C152.421 101.897 152.818 102.837 153.124 103.808C153.386 104.427 153.446 105.112 153.295 105.767C153.145 106.422 152.792 107.013 152.286 107.456C151.167 108.528 150.007 109.55 148.859 110.593C148.075 111.309 147.267 112 146.496 112.725C144.854 114.271 143.186 115.787 141.615 117.395C139.914 119.133 138.264 120.943 136.671 122.765C134.971 124.683 133.249 126.589 131.677 128.628C129.181 131.84 126.749 135.102 124.383 138.417C123.187 140.119 122.084 141.885 121.078 143.707C119.616 146.304 117.496 147.828 114.504 148C113.533 148.002 112.563 147.938 111.601 147.807C109.795 147.652 107.985 147.527 106.188 147.309C103.335 146.965 100.49 146.572 97.6456 146.161C95.6765 145.872 93.7242 145.479 91.7551 145.21C90.5831 145.09 89.4557 144.696 88.4633 144.061C87.4709 143.426 86.6411 142.567 86.0406 141.554C84.5009 139.116 83.3013 136.48 82.4752 133.717C82.3269 133.064 82.2178 132.403 82.1484 131.736ZM93.1126 112.951C92.7649 112.875 92.4017 112.925 92.0868 113.09C91.7719 113.256 91.5254 113.527 91.3906 113.856C88.9397 118.522 86.493 123.184 84.4401 128.042C83.9583 129.177 84.503 130.195 84.6035 131.259C84.6245 131.456 84.9345 131.678 85.1566 131.791C85.5835 132.022 86.0345 132.206 86.5014 132.339C88.0432 132.758 89.5765 133.177 91.1392 133.487C94.6585 134.132 98.1861 134.744 101.726 135.267C103.867 135.577 106.037 135.652 108.191 135.837C108.712 135.921 109.238 135.965 109.766 135.967C111.245 135.862 111.987 134.731 112.565 133.617C115.112 128.708 117.429 123.674 120.424 119.003C120.772 118.459 120.584 118.203 120.005 118.074C119.314 117.91 118.627 117.734 117.94 117.563C117.668 117.471 117.373 117.481 117.107 117.589C116.842 117.697 116.624 117.898 116.494 118.153C114.764 120.721 112.971 123.246 111.211 125.797C111.037 126.078 110.788 126.306 110.492 126.453C110.196 126.601 109.865 126.664 109.536 126.635C109.01 126.585 108.481 126.624 107.969 126.752C106.469 127.242 105.97 128.067 105.949 129.881C105.949 131.359 105.409 131.799 103.968 131.523C101.035 130.961 98.0646 130.404 95.1151 129.826C92.9366 129.408 92.8612 129.223 93.7452 127.154C94.3652 125.701 93.9086 124.57 92.4883 124.067C90.8125 123.456 90.6491 123.075 91.5457 121.487C91.5917 121.412 91.642 121.341 91.6839 121.261C92.9408 118.878 94.227 116.499 95.4797 114.107C95.8274 113.441 95.7813 113.374 95.0607 113.27C94.3401 113.165 93.7703 113.048 93.1126 112.951ZM151.247 104.901C150.937 104.088 150.694 103.376 150.409 102.694C149.99 101.722 149.81 101.663 148.968 102.346C146.81 104.105 144.674 105.894 142.541 107.686C141.762 108.34 141.033 109.052 140.249 109.697C140.044 109.864 139.579 110.028 139.466 109.927C139.072 109.58 139.466 109.295 139.713 109.089C140.853 107.975 141.98 106.844 143.174 105.797C145.038 104.164 146.944 102.593 148.846 100.997C149.144 100.746 149.303 100.495 149.052 100.093C148.041 98.4816 147.045 96.8606 146.064 95.2299C145.821 94.8111 145.595 94.7273 145.268 95.1378C145.046 95.4142 144.799 95.6655 144.569 95.9378C143.404 97.3242 142.248 98.7189 141.062 100.097C140.768 100.417 140.434 100.699 140.069 100.935C140.023 100.968 139.604 100.671 139.617 100.545C139.663 100.285 139.782 100.044 139.96 99.8498C141.024 98.4927 142.105 97.1482 143.174 95.7954C143.743 95.0708 144.296 94.342 144.85 93.6132L143.207 91.2091C143.182 91.1756 143.161 91.1337 143.132 91.1002C142.713 90.6143 142.386 90.6478 142.252 91.3054C141.968 92.4242 141.439 93.4658 140.702 94.3546C138.741 97.0268 136.759 99.6864 134.786 102.35C133.501 104.09 132.21 105.828 130.911 107.565C130.72 107.777 130.605 108.046 130.585 108.331C130.564 108.615 130.639 108.898 130.798 109.136C132.494 112.193 134.149 115.276 135.792 118.35C136.345 119.376 136.34 119.393 137.141 118.593C139.399 116.344 141.636 114.069 143.907 111.829C144.85 110.899 145.847 110.023 146.84 109.136C148.126 107.984 149.429 106.861 150.702 105.701C150.913 105.456 151.096 105.187 151.247 104.901ZM98.5799 102.861C98.1945 102.777 97.8174 103.159 97.4948 103.699C96.238 105.772 94.9224 107.825 93.6656 109.906C93.0413 110.945 93.2005 111.2 94.3694 111.309C96.1709 111.477 97.9725 111.632 99.7698 111.841C104.595 112.429 109.384 113.281 114.115 114.396C116.482 114.941 118.828 115.586 121.174 116.227C121.392 116.323 121.639 116.33 121.862 116.245C122.085 116.16 122.265 115.991 122.364 115.774C123.73 113.68 125.154 111.586 126.554 109.492C126.931 108.926 126.893 108.75 126.248 108.558C125.146 108.231 124.032 107.95 122.921 107.657C116.26 105.873 109.5 104.474 102.677 103.469L98.5799 102.861ZM117.332 87.3222C118.145 87.5023 119.134 87.741 120.131 87.9295C122.775 88.4656 125.422 88.9808 128.062 89.5211C129.134 89.7389 129.424 90.3295 128.996 91.3473C128.929 91.5106 128.837 91.6656 128.762 91.8248C128.066 93.274 128.313 94.0614 129.717 94.8949C129.905 95.008 130.136 95.0917 130.299 95.2132C131.263 95.8456 131.376 96.3273 130.777 97.3074C129.289 99.7199 127.794 102.12 126.311 104.532C125.339 106.107 125.355 106.057 127.086 106.56C128.02 106.832 128.573 106.677 129.181 105.852C132.784 100.926 136.449 96.0509 140.115 91.1923C140.195 91.1167 140.26 91.0261 140.305 90.9256C140.35 90.8251 140.375 90.7167 140.378 90.6066C140.381 90.4965 140.362 90.3869 140.323 90.284C140.284 90.1811 140.225 90.087 140.149 90.007C139.864 89.6817 139.505 89.4302 139.101 89.274C138.104 88.9074 137.085 88.5997 136.051 88.3525C131.351 87.2845 126.65 86.2081 121.933 85.228C119.511 84.7254 117.052 84.4196 114.609 84.0301C113.222 83.8081 112.322 84.2982 111.417 85.4919C109.2 88.4238 106.678 91.0834 104.399 93.9525C102.669 96.1305 101.106 98.4467 99.4974 100.721C99.0408 101.366 99.1245 101.492 99.9876 101.487C100.65 101.487 101.353 101.228 101.957 101.387C103.08 101.689 103.528 101.09 104.089 100.319C106.083 97.5587 108.145 94.8488 110.185 92.1263C110.725 91.4017 111.308 90.9871 112.33 91.3221C112.74 91.4483 113.179 91.4434 113.586 91.3083C113.993 91.1731 114.348 90.9144 114.601 90.5682C115.068 89.9348 115.451 89.2435 115.74 88.5117C116.088 87.6698 116.419 87.3264 117.332 87.3222ZM111.547 93.0645C111.299 93.2375 111.072 93.4369 110.868 93.6593C109.094 95.9797 107.332 98.3098 105.581 100.65C104.994 101.425 105.015 101.441 105.924 101.638C106.096 101.676 106.272 101.705 106.448 101.739C110.311 102.488 114.182 103.205 118.032 104.009C119.674 104.357 121.283 104.884 122.896 105.353C123.47 105.517 123.734 105.353 124.032 104.809C125.325 102.341 126.664 99.8959 128.049 97.4749C128.351 96.943 128.523 96.6373 127.903 96.1933C126.407 95.1001 125.707 93.6802 126.403 91.7954C126.587 91.3012 126.315 91.2216 125.896 91.1462C123.462 90.6981 121.032 90.2248 118.598 89.7557C117.592 89.5588 117.592 89.5546 117.077 90.4845C115.845 92.7001 114.442 93.4164 111.97 93.1399C111.882 93.1315 111.794 93.1106 111.547 93.0645ZM96.1416 125.99C96.0833 126.347 95.9993 126.7 95.8902 127.045C95.6724 127.619 95.8902 127.816 96.439 127.916C98.3956 128.277 100.348 128.67 102.304 129.047C103.306 129.24 103.486 129.186 103.704 128.184C104.253 125.671 106.31 124.415 108.505 124.415C108.833 124.426 109.157 124.344 109.44 124.178C109.722 124.012 109.952 123.769 110.101 123.477C110.763 122.43 111.446 121.382 112.158 120.386C112.871 119.389 113.625 118.388 114.379 117.408C114.706 116.989 114.584 116.788 114.106 116.691C113.889 116.645 113.687 116.57 113.465 116.516C108.394 115.277 103.26 114.307 98.0856 113.609C97.6666 113.55 97.3524 113.609 97.1303 114.061C95.9545 116.49 94.7521 118.91 93.5231 121.32C93.2424 121.877 93.2718 122.136 93.9086 122.4C95.4252 123.033 95.995 124.323 96.1416 125.99ZM123.093 119.246C122.975 119.322 122.867 119.412 122.77 119.514C122.565 119.803 122.352 120.097 122.184 120.402C120.089 123.849 118.032 127.305 115.941 130.748C114.701 132.792 113.445 134.826 112.171 136.85C111.974 137.169 111.827 137.42 112.066 137.805C113.474 140.109 114.84 142.438 116.256 144.733C116.704 145.462 116.842 145.458 117.467 144.863C118.648 143.732 119.821 142.605 120.483 141.03C120.933 140.018 121.477 139.051 122.109 138.14C123.818 135.56 125.561 133.001 127.337 130.463C127.878 129.692 128.045 129.047 127.526 128.184C127.006 127.322 126.688 126.421 126.269 125.546C125.314 123.598 124.342 121.655 123.374 119.711C123.288 119.557 123.194 119.408 123.093 119.263V119.246ZM113.683 146.224C114.132 146.149 114.66 146.086 115.171 145.969C115.682 145.851 115.849 145.604 115.531 145.106C114.111 142.865 112.695 140.62 111.304 138.362C111.22 138.188 111.076 138.049 110.898 137.972C110.72 137.895 110.521 137.885 110.336 137.944C109.473 138.13 108.592 138.224 107.709 138.224C105.107 138.09 102.485 138.015 99.9164 137.629C95.111 136.905 90.2804 136.155 85.63 134.697C85.211 134.568 85.0016 134.622 85.211 135.095C85.5213 135.97 85.8894 136.824 86.3129 137.65C86.5779 138.037 86.9711 138.317 87.4231 138.442C88.5264 138.758 89.6451 139.018 90.7747 139.221C91.9855 139.456 93.2173 139.598 94.4323 139.828C94.6208 139.866 94.7632 140.155 94.9266 140.327C94.7726 140.457 94.5986 140.562 94.4113 140.637C94.1504 140.688 93.8827 140.695 93.6195 140.658C91.9143 140.444 90.2092 140.209 88.4998 139.992C88.2066 139.958 87.9049 139.971 87.6075 139.958C87.6626 140.245 87.7453 140.525 87.8546 140.796C88.0667 141.184 88.309 141.555 88.5794 141.906C88.7233 142.128 88.915 142.315 89.1404 142.453C89.3658 142.592 89.6193 142.678 89.8824 142.706C92.0777 142.94 94.273 143.183 96.4516 143.514C100.738 144.163 105.007 144.871 109.284 145.55C110.713 145.78 112.154 145.989 113.683 146.224ZM129.604 127.238C129.754 127.168 129.895 127.079 130.023 126.974C131.481 125.202 132.955 123.435 134.363 121.63C134.441 121.486 134.487 121.328 134.496 121.165C134.506 121.002 134.479 120.839 134.417 120.687C132.83 117.282 131.204 113.894 129.604 110.497C129.344 109.94 129.16 109.977 128.841 110.447C127.509 112.428 126.172 114.405 124.802 116.361C124.584 116.636 124.464 116.977 124.464 117.328C124.464 117.68 124.584 118.021 124.802 118.296C125.753 119.833 126.658 121.408 127.513 123.003C128.137 124.168 128.653 125.395 129.227 126.593C129.335 126.809 129.455 127.019 129.587 127.221L129.604 127.238Z" fill="#122224"/>
<path d="M93.018 112.746C93.6803 112.841 94.3426 112.925 95.0006 113.033C95.6587 113.141 95.7642 113.22 95.4225 113.865C94.157 116.241 92.8914 118.605 91.6006 120.973C91.5584 121.052 91.5078 121.123 91.4614 121.198C90.5586 122.775 90.702 123.154 92.4105 123.761C93.8321 124.261 94.2919 125.384 93.676 126.828C92.786 128.884 92.8619 129.055 95.0555 129.483C98.0084 130.058 100.999 130.611 103.969 131.169C105.42 131.443 105.947 131.006 105.964 129.537C105.964 127.736 106.487 126.916 107.998 126.429C108.513 126.302 109.047 126.263 109.575 126.312C109.907 126.341 110.241 126.279 110.539 126.132C110.837 125.985 111.087 125.759 111.263 125.48C113.034 122.946 114.84 120.436 116.582 117.885C116.713 117.631 116.932 117.432 117.199 117.325C117.466 117.217 117.764 117.208 118.038 117.298C118.729 117.469 119.421 117.644 120.117 117.806C120.682 117.935 120.872 118.189 120.539 118.73C117.523 123.37 115.19 128.372 112.625 133.25C112.043 134.357 111.296 135.48 109.807 135.584C109.276 135.582 108.746 135.539 108.221 135.455C106.053 135.272 103.868 135.197 101.712 134.889C98.1476 134.382 94.5957 133.761 91.0522 133.121C89.4787 132.833 87.9348 132.388 86.3824 131.98C85.9123 131.848 85.4582 131.665 85.0283 131.435C84.8047 131.323 84.4925 131.102 84.4714 130.907C84.3702 129.85 83.8218 128.826 84.3069 127.711C86.3739 122.883 88.8375 118.251 91.3053 113.615C91.4454 113.298 91.6924 113.038 92.0045 112.879C92.3166 112.721 92.6746 112.674 93.018 112.746Z" fill="white"/>
<path d="M98.5064 102.922L102.584 103.5C109.374 104.478 116.1 105.838 122.73 107.573C123.835 107.858 124.943 108.131 126.04 108.448C126.682 108.636 126.72 108.807 126.344 109.357C124.952 111.393 123.534 113.429 122.175 115.465C122.077 115.676 121.897 115.84 121.676 115.923C121.454 116.005 121.208 115.999 120.991 115.905C118.656 115.282 116.322 114.655 113.966 114.125C109.258 113.041 104.492 112.212 99.6905 111.641C97.9019 111.438 96.1091 111.287 94.3164 111.124C93.1531 111.018 92.9947 110.77 93.6159 109.76C94.8667 107.723 96.1633 105.74 97.4266 103.724C97.7476 103.211 98.1228 102.841 98.5064 102.922Z" fill="white"/>
<path d="M117.253 87.3516C116.34 87.3516 115.996 87.7018 115.661 88.5246C115.371 89.2618 114.988 89.9581 114.521 90.5962C114.268 90.945 113.913 91.2056 113.506 91.3417C113.099 91.4779 112.659 91.4827 112.249 91.3557C111.227 91.0181 110.644 91.4358 110.104 92.1658C108.062 94.9083 106.001 97.6508 104.006 100.419C103.444 101.195 102.996 101.798 101.872 101.495C101.269 101.334 100.565 101.592 99.9026 101.596C99.0393 101.596 98.9555 101.473 99.4123 100.824C101.022 98.5326 102.585 96.1825 104.316 94.0054C106.596 91.1152 109.119 88.4191 111.336 85.4825C112.241 84.28 113.142 83.7948 114.529 84.01C116.973 84.4024 119.433 84.7104 121.855 85.2167C126.574 86.204 131.276 87.2883 135.979 88.3642C137.013 88.6132 138.032 88.9232 139.03 89.2925C139.433 89.4498 139.793 89.7031 140.077 90.0308C140.153 90.1114 140.212 90.2062 140.252 90.3099C140.291 90.4135 140.31 90.524 140.307 90.6349C140.304 90.7458 140.279 90.855 140.234 90.9562C140.189 91.0575 140.124 91.1488 140.044 91.2249C136.377 96.1361 132.71 101.047 129.105 105.992C128.498 106.836 127.945 106.98 127.01 106.705C125.279 106.199 125.262 106.25 126.235 104.663C127.718 102.233 129.214 99.8153 130.702 97.385C131.302 96.4061 131.188 95.9209 130.224 95.2754C130.04 95.153 129.83 95.0686 129.642 94.9547C128.238 94.1109 127.991 93.3219 128.686 91.862C128.762 91.7017 128.854 91.5455 128.921 91.381C129.34 90.3557 129.059 89.7608 127.986 89.5414C125.346 88.9971 122.697 88.4782 120.053 87.9381C119.055 87.7609 118.066 87.533 117.253 87.3516Z" fill="white"/>
<path d="M111.314 93.2385C111.558 93.2843 111.645 93.3052 111.728 93.3135C114.171 93.601 115.558 92.8968 116.776 90.6716C117.285 89.7465 117.285 89.7507 118.279 89.9465C120.685 90.4132 123.087 90.8841 125.493 91.33C125.907 91.405 126.176 91.4842 125.994 91.9759C125.307 93.8385 125.994 95.2637 127.477 96.3513C128.09 96.8055 127.92 97.0972 127.622 97.6264C126.261 100.04 124.937 102.473 123.65 104.923C123.364 105.465 123.095 105.627 122.528 105.465C120.934 104.998 119.343 104.473 117.72 104.127C113.914 103.327 110.088 102.614 106.27 101.868C106.096 101.835 105.922 101.806 105.752 101.768C104.853 101.573 104.833 101.556 105.412 100.785C107.143 98.4598 108.886 96.1415 110.639 93.8302C110.841 93.6087 111.068 93.4103 111.314 93.2385Z" fill="#E8E9E9"/>
<path d="M96.0107 125.893C95.8661 124.203 95.3043 122.897 93.8049 122.255C93.177 121.989 93.148 121.727 93.4248 121.165C94.631 118.737 95.8165 116.296 96.9814 113.843C97.2003 113.374 97.4895 113.328 97.9232 113.387C103.025 114.091 108.087 115.069 113.087 116.319C113.298 116.374 113.5 116.45 113.719 116.496C114.19 116.594 114.31 116.788 113.988 117.219C113.244 118.208 112.501 119.2 111.799 120.223C111.096 121.245 110.423 122.285 109.77 123.341C109.623 123.635 109.397 123.881 109.118 124.048C108.839 124.216 108.52 124.299 108.197 124.287C106.032 124.317 104.004 125.555 103.463 128.09C103.248 129.1 103.05 129.155 102.083 128.96C100.158 128.58 98.233 128.183 96.2998 127.82C95.7546 127.718 95.5439 127.52 95.7587 126.941C95.8669 126.598 95.9511 126.248 96.0107 125.893Z" fill="#E8E9E9"/>
<path d="M129.37 127.089C129.211 126.885 129.065 126.671 128.933 126.45C128.335 125.263 127.798 124.048 127.148 122.894C126.274 121.314 125.314 119.753 124.323 118.231C124.095 117.958 123.971 117.62 123.971 117.272C123.971 116.924 124.095 116.586 124.323 116.314C125.751 114.376 127.143 112.418 128.531 110.455C128.863 109.991 129.055 109.953 129.326 110.505C130.994 113.87 132.687 117.227 134.342 120.6C134.406 120.75 134.434 120.911 134.424 121.073C134.414 121.234 134.367 121.392 134.285 121.533C132.81 123.322 131.282 125.073 129.763 126.828C129.643 126.929 129.511 127.017 129.37 127.089Z" fill="white"/>
</svg>
