<svg width="146" height="175" viewBox="0 0 146 175" fill="none" xmlns="http://www.w3.org/2000/svg">
<path d="M84.9117 174.985C67.5255 174.985 50.1369 174.985 32.7457 174.985C31.8248 174.978 30.9055 174.908 29.9942 174.776C29.3564 174.686 29.0637 174.307 29.0912 173.83C29.1187 173.354 29.5289 172.969 30.1943 172.959C31.7676 172.939 33.341 172.984 34.9144 172.944C44.6547 172.695 54.3951 172.757 64.1379 172.75C65.1159 172.75 65.1384 172.75 65.2835 171.822C65.5987 169.883 65.8939 167.94 66.1915 165.999C66.5067 163.943 66.7318 161.883 66.8994 159.807C67.042 158.033 67.1896 156.255 67.3596 154.483C67.5272 152.767 67.4622 151.061 67.5422 149.349C67.5848 148.461 67.7323 147.573 67.7248 146.685C67.7073 145.273 67.6048 143.863 67.5272 142.444C67.5272 142.354 67.4447 142.269 67.3996 142.194C67.3103 142.254 67.2266 142.322 67.1495 142.396C65.3335 144.572 63.5 146.732 61.1137 148.334C60.4042 148.823 59.5862 149.134 58.7299 149.24C57.3317 149.402 56.2686 148.741 55.298 147.89C52.6166 145.512 50.598 142.609 48.747 139.575C48.3793 138.971 47.9965 138.377 47.6438 137.764C47.4812 137.479 47.3086 137.452 47.016 137.544C46.6725 137.683 46.3035 137.749 45.9329 137.736C45.6432 137.703 45.3641 137.607 45.115 137.456C44.8659 137.305 44.6527 137.102 44.49 136.86C44.3273 136.619 44.2191 136.345 44.1729 136.058C44.1266 135.771 44.1433 135.477 44.222 135.197C44.3821 134.556 44.6872 133.949 44.8698 133.313C44.9631 133.007 44.97 132.68 44.8898 132.37C44.5871 131.452 44.2095 130.559 43.8743 129.651C43.8283 129.472 43.7225 129.314 43.5742 129.202C43.426 129.091 43.2442 129.034 43.0589 129.04C40.575 128.915 38.2212 128.229 35.9249 127.313C33.8262 126.502 31.9235 125.256 30.3419 123.659C29.4953 122.809 28.9133 121.732 28.666 120.56C28.4483 119.522 28.9936 118.17 29.8991 117.629C30.7856 117.064 31.8012 116.734 32.8507 116.668C33.5161 116.638 34.194 116.419 34.8518 116.484C36.4027 116.648 37.941 116.925 39.4819 117.177C40.0822 117.277 40.0547 117.309 39.9021 116.678C39.7644 116.178 39.6806 115.665 39.652 115.147C39.6219 114.149 40.0947 113.622 41.0852 113.53C41.9404 113.423 42.8083 113.562 43.5866 113.932C45.704 114.992 47.4658 116.644 48.6569 118.687C49.5541 120.148 50.196 121.751 50.5555 123.427C50.708 124.162 51.3484 124.365 51.7761 124.796C51.8228 124.817 51.8739 124.826 51.9249 124.822C51.9759 124.819 52.0253 124.803 52.0688 124.776C52.2105 124.654 52.3458 124.525 52.474 124.389C53.0118 123.911 53.6221 123.626 54.3125 124C55.0029 124.375 55.188 124.998 55.158 125.707C55.1518 126.117 55.0669 126.523 54.9078 126.902C54.6577 127.428 54.9078 127.717 55.233 128.064C56.2661 129.139 57.2716 130.245 58.2947 131.332C58.6324 131.692 58.7149 131.682 58.9501 131.272C59.5829 130.175 60.1782 129.055 60.8436 127.977C62.3444 125.54 63.8327 123.075 65.6912 120.879C67.7099 118.494 70.2612 117.11 73.423 116.863C74.6279 116.808 75.7867 116.385 76.7423 115.65C77.4865 115.061 77.966 114.202 78.0755 113.261C78.2341 111.7 78.0171 110.125 77.4427 108.665C76.5433 106.334 75.4514 104.081 74.1784 101.929C73.8732 101.393 73.8057 101.383 73.4855 101.929C72.1198 104.294 68.7454 105.12 66.5342 103.716C65.7838 103.242 65.186 102.543 64.5556 101.912C64.0203 101.381 64.0303 101.333 63.3349 101.648C61.9332 102.263 60.4317 102.621 58.9025 102.705C57.0665 102.838 55.248 101.458 54.7152 99.5095C54.6177 99.1578 54.5851 98.7087 54.3475 98.4967C54.1774 98.3445 53.7222 98.5166 53.392 98.5291C52.1192 98.6085 50.8451 98.396 49.6675 97.9079C47.3712 96.91 46.2731 94.9941 45.7153 92.669C45.3678 91.4053 45.3895 90.0689 45.7778 88.8171C45.9629 88.2683 45.6928 88.1286 45.3176 88.0263C44.229 87.7419 43.2033 87.2571 42.2934 86.5968C41.1353 85.7311 40.1672 84.7058 39.9521 83.1865C39.8772 82.8984 39.8585 82.5986 39.8971 82.3034C40.0998 81.4744 40.3657 80.6621 40.6925 79.8735C41.1453 78.8756 41.1803 78.9006 40.3848 78.0598C39.8721 77.521 39.3843 76.9522 38.9266 76.3709C37.4533 74.5148 37.3207 72.4168 37.896 70.2264C38.1749 69.136 38.7405 68.1396 39.5344 67.34C40.1297 66.7412 40.1147 66.7313 39.717 65.928C39.275 65.0687 38.9294 64.1635 38.6865 63.2287C38.4163 62.111 38.6014 61.0832 38.834 60.0379C39.2442 58.2018 40.3198 56.8097 41.8807 55.7969C42.4735 55.4077 43.0813 55.0484 43.6992 54.6967C44.0068 54.5271 44.0994 54.3849 43.9919 54.0032C43.2715 51.4286 44.1494 49.1883 45.7853 47.2998C47.0185 45.8778 48.747 45.067 50.633 44.7153C51.2187 44.6073 51.8099 44.5315 52.4039 44.4883C52.8042 44.4583 52.9042 44.2537 52.9042 43.907C53.0243 41.3748 54.2074 39.4464 56.3011 38.0593C58.4398 36.6423 60.6835 36.5326 62.9898 37.6228C64.1929 38.1916 64.2254 38.219 64.8183 37.1014C65.9939 34.8811 67.8599 33.5663 70.2362 32.9426C72.2373 32.4162 74.1509 32.5984 75.8743 33.8358C76.3021 34.1426 76.5847 34.0578 76.9174 33.6786C77.6912 32.8157 78.6202 32.1049 79.6564 31.583C81.9876 30.3606 84.1939 30.6874 86.3326 32.0146C87.053 32.4637 87.4231 33.2295 87.7883 33.9655C88.2386 34.8711 88.2236 34.8661 89.1065 34.5218C90.4197 33.9817 91.8284 33.7102 93.2488 33.7235C95.2374 33.7759 96.8183 34.5817 97.6563 36.4328C97.9664 37.1188 98.0064 37.9296 98.114 38.7055C98.169 39.1021 98.1815 39.2518 98.7018 39.187C99.722 39.0433 100.761 39.1181 101.75 39.4063C102.739 39.6945 103.655 40.1895 104.437 40.8584C105.818 42.0135 106.584 44.5731 105.581 46.025C105.238 46.524 105.303 46.5963 105.871 46.7734C106.788 47.0502 107.627 47.5413 108.316 48.2061C109.005 48.8708 109.525 49.6899 109.833 50.5954C110.398 52.1072 110.583 53.624 109.495 55.051C109.032 55.6622 109.105 55.6871 109.685 56.196C110.673 57.0592 111.159 58.2392 111.609 59.4242C111.734 59.813 111.813 60.2148 111.847 60.6217C112.057 62.2408 111.484 63.558 110.231 64.5683C109.833 64.8902 109.69 65.1147 109.958 65.6311C111.869 69.3358 108.77 73.7465 105.058 73.8787C104.227 73.9086 104.2 74.0134 104.415 74.8342C105.01 77.0969 105.618 79.3571 106.166 81.6348C106.333 82.5109 106.435 83.3981 106.471 84.2892C106.602 85.4713 106.667 86.6598 106.666 87.8492C106.584 90.2267 106.321 92.6141 105.446 94.8344C104.715 96.6744 103.721 98.3988 102.494 99.9536C100.903 101.979 98.9019 103.416 96.6357 104.521C95.5326 105.06 94.3569 105.457 93.2038 105.884C91.6177 106.461 90.1866 107.396 89.0215 108.615C87.8809 109.805 87.6908 111.15 88.4637 112.607C89.3742 114.333 90.4798 114.603 92.1832 114.338C93.8867 114.074 95.5951 113.827 97.306 114.001C99.0275 114.18 100.674 114.798 102.086 115.795C104.087 117.205 106.088 118.657 108.032 120.158C110.096 121.755 112.094 123.432 114.118 125.073C114.568 125.437 114.591 125.46 114.938 124.911C115.891 123.399 116.812 121.865 117.757 120.348C118.258 119.56 118.758 118.771 119.278 118.008C119.578 117.581 119.808 117.202 119.318 116.761C119.238 116.691 119.218 116.561 119.158 116.466C118.177 114.919 119.453 113.812 120.851 113.747C121 113.72 121.153 113.734 121.294 113.787C121.962 114.194 122.242 113.707 122.522 113.265C123.922 111.117 125.557 109.13 127.395 107.34C128.298 106.445 129.365 105.729 130.537 105.232C130.775 105.125 131.028 105.055 131.287 105.023C132.896 104.853 133.601 105.739 133.093 107.268C133.048 107.41 132.936 107.538 132.926 107.677C132.926 107.747 133.078 107.894 133.158 107.892C133.306 107.869 133.447 107.816 133.573 107.737C135.3 106.931 137.123 106.35 138.999 106.011C139.909 105.841 140.855 105.499 141.858 105.894C143.359 106.48 144.327 107.969 143.947 109.526C143.748 110.358 143.429 111.156 142.999 111.896C142.233 113.221 141.278 114.429 140.165 115.481C138.935 116.658 137.463 117.554 135.852 118.109C134.241 118.664 132.528 118.863 130.832 118.694C130.582 118.677 130.249 118.297 130.097 118.799C129.956 119.258 130.144 119.525 130.539 119.797C131.08 120.182 131.593 120.605 132.073 121.064C132.24 121.263 132.346 121.507 132.378 121.765C132.55 122.691 132.103 123.292 131.175 123.409C130.988 123.426 130.8 123.432 130.612 123.427C129.471 123.441 129.456 123.439 129.196 124.589C128.627 127.17 127.848 129.701 126.867 132.156C125.787 134.817 124.556 137.417 122.865 139.762C122.389 140.456 121.753 141.027 121.011 141.426C120.268 141.824 119.441 142.04 118.598 142.055C116.747 142.137 115.028 141.675 113.38 140.964C111.669 140.216 110.028 139.328 108.355 138.497C108.223 138.426 108.088 138.362 107.949 138.305C107.699 138.21 107.597 138.357 107.609 138.575C107.638 138.72 107.68 138.863 107.734 139.001C108.497 142.494 109.303 145.951 110 149.444C110.413 151.515 110.641 153.623 110.969 155.711C111.159 156.918 111.401 158.118 111.586 159.326C111.704 160.097 111.771 160.875 111.837 161.651C111.929 162.686 111.987 163.726 112.087 164.759C112.207 165.977 112.364 167.192 112.499 168.407C112.516 168.631 112.521 168.855 112.514 169.08C112.514 169.938 112.529 170.796 112.529 171.657C112.529 172.757 112.464 172.737 113.658 172.73C114.033 172.73 114.408 172.73 114.783 172.73C121.537 172.73 128.276 172.712 135.019 172.745C137.861 172.757 140.7 172.872 143.539 172.967C144.169 172.987 144.79 173.107 145.422 173.189C145.758 173.231 146.013 173.408 145.995 173.76C145.978 174.112 145.848 174.446 145.452 174.509C144.869 174.63 144.277 174.708 143.681 174.741C140.207 174.838 136.73 174.968 133.253 174.973C117.138 174.996 101.022 174.996 84.9067 174.973L84.9117 174.985ZM97.4461 115.793C97.4393 115.764 97.4266 115.738 97.4086 115.715C97.4086 115.7 97.3686 115.703 97.3461 115.695L97.4486 115.79C97.7588 116.254 98.0665 116.718 98.3791 117.18C100.098 119.714 101.678 122.329 102.842 125.163C103.745 127.368 104.663 129.569 105.531 131.786C105.953 132.859 106.281 133.969 106.636 135.069C106.668 135.212 106.732 135.345 106.824 135.459C106.915 135.572 107.032 135.664 107.164 135.726C108.857 136.519 110.523 137.375 112.222 138.155C113.337 138.669 114.493 139.101 115.636 139.56C116.656 139.936 117.747 140.083 118.83 139.992C119.507 139.971 120.15 139.691 120.626 139.211C121.769 138.096 122.512 136.716 123.263 135.346C125.124 131.964 126.304 128.304 127.493 124.654C127.608 124.3 127.685 123.935 127.765 123.574C127.87 123.115 127.743 122.86 127.247 122.651C125.624 121.975 124.088 121.107 122.672 120.066C122.255 119.754 121.824 119.455 121.439 119.108C121.054 118.761 120.861 118.896 120.611 119.26C119.075 121.506 117.526 123.741 115.964 125.966C115.493 126.635 114.981 127.274 114.43 127.88C114.26 128.067 113.863 128.239 113.663 128.164C113.262 128.017 113.56 127.665 113.612 127.393C113.63 127.282 113.664 127.175 113.713 127.074C113.963 126.61 113.8 126.325 113.365 126.076C112.619 125.651 111.896 125.188 111.199 124.689C109.153 123.192 107.129 121.673 105.093 120.168C103.387 118.909 101.796 117.484 99.8825 116.519C99.112 116.149 98.3316 115.795 97.4461 115.793ZM67.0895 92.4694L66.992 92.3696L67.0845 92.4769C67.197 93.5097 67.3346 94.54 67.4097 95.5754C67.4317 95.9357 67.3997 96.2972 67.3146 96.6481C67.2321 97.0298 66.992 97.3965 66.5642 97.3117C66.3866 97.2743 66.234 96.8701 66.1615 96.6082C65.6112 94.6423 65.296 92.6166 64.328 90.7705C64.0779 90.2716 64.3455 89.84 64.6481 89.4508C64.8282 89.2213 65.1059 89.0417 65.2134 88.7847C65.8313 87.3253 66.214 85.8234 65.7687 84.2318C65.6212 83.6979 65.4286 83.174 65.2885 82.6377C65.0084 81.56 65.211 81.2132 66.244 80.7616C66.9945 80.4348 67.7449 80.1055 68.2451 79.3945C68.727 78.7553 69.0426 78.007 69.1639 77.2165C69.2853 76.426 69.2085 75.6178 68.9405 74.8641C68.7879 74.4051 68.6078 73.9535 68.4903 73.4845C68.2726 72.6188 68.6604 72.1124 69.5508 72.065C69.9235 72.045 70.3013 72.065 70.674 72.065C71.742 72.0151 73.2328 70.7428 73.3429 69.6875C73.4405 68.767 73.5256 67.8165 72.9552 66.9758C72.8637 66.8163 72.7858 66.6494 72.7226 66.4768C72.5984 66.2469 72.5506 65.9837 72.5861 65.725C72.6216 65.4662 72.7386 65.2255 72.9202 65.0373C73.3204 64.5858 73.7607 64.6706 74.2459 64.8652C74.9321 65.1521 75.6541 65.3451 76.3921 65.439C77.2402 65.5633 78.1051 65.3867 78.836 64.9401C80.3793 63.9771 81.1872 62.4827 81.6625 60.7963C81.8851 60.013 81.9902 59.1972 82.1453 58.3964C82.1763 58.1343 82.2898 57.8887 82.4696 57.6951C82.6494 57.5014 82.8862 57.3696 83.1458 57.3187C83.6461 57.2189 84.0638 57.4933 84.3965 57.9074C84.7592 58.3799 85.1598 58.8221 85.5946 59.2296C86.385 59.9381 87.9209 60.0055 88.7188 59.3319C89.2949 58.8575 89.8063 58.3098 90.2397 57.7028C90.6503 57.0402 91.0058 56.3452 91.3028 55.6247C91.4954 55.2156 91.7855 54.9212 92.2333 54.9487C92.4783 54.9419 92.7195 55.01 92.9247 55.1437C93.1299 55.2775 93.2893 55.4705 93.3814 55.6971C93.4527 55.9096 93.5363 56.1178 93.6315 56.3208C93.8699 56.7875 94.2792 57.1449 94.7747 57.3187C95.7752 57.7228 96.5256 57.2763 97.2335 56.7C97.6387 56.3732 97.9664 55.9515 98.3541 55.5998C98.4722 55.5004 98.6117 55.4297 98.7618 55.3931C98.9118 55.3565 99.0683 55.3551 99.219 55.3889C99.3697 55.4228 99.5106 55.4909 99.6304 55.5881C99.7503 55.6853 99.846 55.8088 99.91 55.9491C100.045 56.2921 100.119 56.6559 100.13 57.0243C100.158 58.3639 100.913 59.2346 101.961 59.9082C102.194 60.0579 102.461 60.1227 102.366 60.4545C102.271 60.7863 101.926 60.9111 101.541 60.7739C100.835 60.5106 100.221 60.0476 99.7749 59.4417C99.5358 59.156 99.312 58.8579 99.1045 58.5486C98.9044 58.2168 98.7219 58.1394 98.4092 58.4213C98.1415 58.6708 97.7263 58.798 98.0464 59.2945C98.3359 59.7267 98.587 60.1833 98.7968 60.6591C100.243 64.1717 101.666 67.6917 103.099 71.2093C103.254 71.591 103.302 71.8779 103.947 71.9228C105.948 72.065 107.739 71.1145 108.352 69.2659C108.532 68.7271 108.687 68.1757 108.51 67.5196C108.383 66.9067 108.123 66.3292 107.747 65.8282C107.041 64.9625 107.171 64.3638 108.089 63.7002C108.43 63.4737 108.759 63.2297 109.075 62.9692C109.715 62.3904 110.186 61.647 109.971 60.7938C109.608 59.3494 109.163 57.9324 107.504 57.3261C106.419 56.9295 106.253 56.0314 106.911 55.0809C107.274 54.5645 107.624 54.0381 107.964 53.5067C108.118 53.2685 108.216 52.9983 108.249 52.7167C108.282 52.4352 108.249 52.1498 108.155 51.8826C107.919 51.2192 107.582 50.5964 107.154 50.0365C106.361 49.0137 105.18 48.6096 103.97 48.2902C102.932 48.0183 102.526 47.2374 102.969 46.2595C103.171 45.8608 103.404 45.4787 103.667 45.1169C103.896 44.7942 104.012 44.4058 103.999 44.0108C103.986 43.6159 103.844 43.2361 103.595 42.9291C103.298 42.5455 102.933 42.2205 102.516 41.9711C101.121 41.0904 99.5723 40.9507 97.9814 41.1977C96.7582 41.3873 96.1329 40.9208 96.0879 39.6859C96.0679 39.1645 96.1054 38.6406 96.0879 38.1192C96.0329 37.0589 95.3374 36.3879 94.4795 36.0112C93.6215 35.6345 92.5935 35.6469 91.6129 35.8365C90.4948 36.0536 89.5043 36.5625 88.4962 37.054C87.4882 37.5454 86.8178 37.2785 86.4051 36.1808C86.2875 35.8665 86.1875 35.5471 86.0774 35.2303C85.4871 33.5588 83.3259 32.4861 81.6124 32.9851C80.2667 33.3742 79.2287 34.205 78.3106 35.2079C76.9949 36.6498 76.6322 36.9342 74.7337 35.5896C74.1667 35.1636 73.5068 34.8774 72.8078 34.7543C72.1087 34.6311 71.3904 34.6746 70.7115 34.881C69.1981 35.3151 67.8924 36.066 67.057 37.4656C66.7054 37.993 66.3846 38.5403 66.0964 39.1046C65.5737 40.2771 64.383 40.6015 63.3024 40.0177C62.8872 39.7647 62.4493 39.5509 61.9942 39.3791C61.371 39.1396 60.7194 38.9811 60.0557 38.9075C57.6969 38.7554 55.1179 41.1528 54.9653 43.6326C54.9353 44.1165 54.9653 44.603 54.9653 45.0895C54.9378 45.9926 54.4851 46.4641 53.5971 46.504C53.1869 46.524 52.7742 46.504 52.3614 46.504C49.8951 46.484 47.1261 47.931 46.153 50.6378C45.7603 51.728 45.3876 52.8531 46.2881 53.9134C46.3645 54.0409 46.417 54.1812 46.4432 54.3275C46.6934 55.0759 46.4882 55.6247 45.7953 55.994C45.235 56.2958 44.6647 56.5802 44.0844 56.8422C43.3672 57.1647 42.7231 57.629 42.1909 58.2068C40.2248 60.3173 40.0997 62.9867 41.7281 65.2394C41.9096 65.4718 42.0767 65.7151 42.2284 65.9679C42.7086 66.8385 42.6686 67.108 41.9782 67.8489C41.6956 68.1483 41.4054 68.4427 41.0978 68.7121C39.8471 69.8148 39.0717 72.771 40.1873 74.4924C40.5417 75.1027 40.961 75.6731 41.438 76.1938C41.9095 76.6702 42.3521 77.1742 42.7636 77.7031C43.454 78.5812 43.454 79.1999 42.8987 80.143C42.5887 80.692 42.3106 81.2584 42.0658 81.8394C41.7907 82.463 41.9182 83.0593 42.2109 83.6655C42.6161 84.4963 43.3365 84.9603 44.1019 85.342C44.9324 85.7586 45.8129 86.0904 46.6783 86.4297C47.7064 86.8438 48.0591 87.4276 47.7689 88.5228C47.5411 89.4661 47.4652 90.4395 47.5438 91.4067C47.7264 94.6199 50.2953 97.1795 53.9523 96.5433C55.353 96.2938 55.9534 96.6705 56.3211 98.0401C56.4985 98.6457 56.7175 99.2383 56.9765 99.8139C57.0757 100.06 57.2428 100.274 57.4583 100.429C57.6738 100.585 57.9291 100.677 58.1947 100.695C58.9747 100.772 59.7617 100.742 60.5334 100.605C61.5053 100.35 62.4549 100.016 63.3725 99.6068C63.7098 99.4399 64.0939 99.3916 64.4622 99.47C64.8305 99.5484 65.1614 99.7487 65.4011 100.038C65.9714 100.632 66.5617 101.206 67.1345 101.797C67.4959 102.177 67.9643 102.438 68.4777 102.546C69.871 102.852 71.657 102.166 72.3499 100.934C72.7001 100.313 72.8652 99.6867 72.2948 98.9807C71.2618 97.7133 70.3588 96.3412 69.3507 95.054C68.6353 94.1733 67.8449 93.3376 67.0895 92.4694ZM88.8064 172.742H109.385C110.803 172.742 110.843 172.673 110.693 171.303C110.528 169.791 110.406 168.274 110.271 166.76C110.181 165.725 110.108 164.687 110.021 163.652C109.955 162.948 109.885 162.247 109.77 161.551C109.5 159.755 109.21 157.964 108.927 156.17C108.532 153.675 108.21 151.18 107.722 148.706C107.161 145.867 106.421 143.068 105.816 140.239C105.232 137.549 104.481 134.898 103.564 132.303C102.689 129.808 101.671 127.368 100.67 124.921C99.4197 121.84 97.7763 118.951 96.0028 116.139C95.8131 115.873 95.5334 115.683 95.2149 115.606C94.8062 115.556 94.3929 115.556 93.9842 115.606C93.7866 115.606 93.7116 115.705 93.8566 115.882C94.1941 116.228 94.5005 116.603 94.7722 117.003C95.5026 118.297 96.273 119.58 96.8583 120.944C98.084 123.846 98.9369 126.824 98.3766 130.048C98.1265 131.504 97.6988 132.859 96.8433 134.074C95.5126 135.963 93.569 136.664 91.4028 136.611C89.6694 136.566 88.0885 135.828 86.6727 134.785C84.5841 133.243 83.0633 131.252 81.8901 128.965C81.2098 127.643 80.5127 126.328 79.799 125.021C78.8434 123.274 77.7503 121.643 76.237 120.316C75.8357 119.98 75.4823 119.591 75.1864 119.161C74.7412 118.472 74.2134 118.235 73.418 118.504C72.9427 118.664 72.8502 118.754 73.0803 119.19C73.3505 119.719 73.7281 120.206 73.9383 120.755C74.5086 122.252 75.0713 123.748 75.5291 125.28C76.0683 127.019 76.3967 128.817 76.5072 130.634C76.5972 132.452 76.6748 134.286 76.3121 136.097C75.9694 137.819 75.5466 139.505 74.4961 140.972C73.2829 142.671 71.4594 143.197 69.7109 142.289C69.3607 142.107 69.3282 142.262 69.3432 142.526C69.4108 143.524 69.5583 144.522 69.5483 145.52C69.5183 148.651 69.736 151.782 69.3733 154.91C69.1932 156.459 69.1931 158.028 69.1106 159.588C69.1106 159.737 69.0806 159.885 69.0606 160.032C68.933 161.03 68.7904 162.027 68.6779 163.008C68.5703 163.931 68.5453 164.864 68.3952 165.777C68.0725 167.715 67.6873 169.644 67.3346 171.575C67.122 172.742 67.127 172.745 68.3352 172.745L88.8064 172.742ZM104.848 86.961C104.955 85.219 104.811 83.4707 104.42 81.7695C103.802 79.2473 103.322 76.6753 102.509 74.2155C101.241 70.3636 99.7574 66.5816 98.3316 62.7821C97.9389 61.7393 97.4286 60.7389 96.9709 59.7186C96.9491 59.6461 96.9128 59.5789 96.8642 59.5208C96.8156 59.4628 96.7557 59.4151 96.6881 59.3809C96.6206 59.3466 96.5467 59.3263 96.471 59.3213C96.3954 59.3164 96.3195 59.3267 96.248 59.3519C94.8997 59.7386 93.7616 59.2745 92.7085 58.4812C92.5059 58.329 92.4209 58.2317 92.2083 58.5136C91.6821 59.2324 91.0964 59.9058 90.4573 60.5269C88.9565 61.894 86.25 62.3181 84.5691 60.951C84.4265 60.8337 84.2489 60.7589 84.0988 60.6491C83.8787 60.487 83.8237 60.5668 83.7436 60.8013C83.4084 61.7443 83.1458 62.7347 82.673 63.6079C81.2547 66.2224 78.7084 67.814 75.6442 67.2477C75.1715 67.1604 75.2865 67.3674 75.3365 67.6693C75.6967 69.8771 75.0638 71.6933 73.2153 73.0554C72.5875 73.5169 71.8671 73.6716 71.1542 73.8537C70.849 73.9311 70.8041 74.0209 70.8866 74.2953C70.9516 74.5073 70.9066 74.7493 70.9716 74.9589C71.722 77.4237 70.5013 80.8514 68.0225 82.0315C67.5422 82.2585 67.5223 82.5678 67.6398 83.0294C67.8142 83.7864 67.9329 84.5552 67.995 85.3295C68.1026 86.7265 67.7448 88.0612 67.3321 89.3759C67.2622 89.5436 67.2489 89.7294 67.294 89.9053C67.3391 90.0812 67.4402 90.2378 67.5822 90.3514C68.2151 90.9751 68.948 91.4765 69.4883 92.2174C70.9541 94.2307 72.6 96.1192 73.9908 98.1824C75.9288 101.016 77.5636 104.045 78.8685 107.218C79.5663 108.965 80.0016 110.768 79.914 112.654C79.829 114.458 79.1336 115.972 77.5527 116.985C77.3026 117.145 77.0525 117.302 76.8023 117.484C76.3921 117.771 76.4021 117.833 76.7698 118.178C78.2106 119.537 79.6914 120.872 80.7095 122.591C81.68 124.225 82.558 125.914 83.461 127.58C84.409 129.327 85.4045 131.025 86.9404 132.338C88.4137 133.585 89.9595 134.605 92.0607 134.428C93.8116 134.279 94.9998 133.368 95.7377 131.896C96.2767 130.745 96.5437 129.486 96.5181 128.216C96.5181 126.111 95.9503 124.105 95.3175 122.122C94.7471 120.338 93.8366 118.709 92.9236 117.082C92.1182 115.648 92.1507 115.603 90.5498 115.611C89.9472 115.627 89.3493 115.5 88.8058 115.24C88.2624 114.979 87.7892 114.593 87.4256 114.114C85.7747 111.928 85.7197 109.825 87.3531 107.627C88.4837 106.111 90.0771 105.083 91.8555 104.384C93.2063 103.848 94.6071 103.436 95.9378 102.845C98.042 101.942 99.8702 100.501 101.238 98.6688C102.569 96.8576 103.702 94.9542 104.24 92.7314C104.678 90.7954 104.988 88.8595 104.848 86.961ZM74.7537 132.325C74.6469 130.17 74.359 128.028 73.8933 125.921C73.3732 123.71 72.6713 121.546 71.7946 119.45C71.6395 119.071 71.4744 118.886 71.0442 119.091C69.931 119.63 68.848 120.186 67.9475 121.074C66.5017 122.501 65.3735 124.165 64.2104 125.814C62.8772 127.7 61.584 129.613 60.2508 131.499C59.4203 132.672 59.4103 132.647 60.4208 133.71C60.9086 134.221 61.3614 134.77 61.7991 135.326C61.8437 135.402 61.8684 135.487 61.871 135.574C61.8737 135.661 61.8541 135.748 61.8141 135.825C61.7485 135.88 61.6698 135.917 61.5857 135.933C61.5016 135.948 61.4149 135.942 61.3338 135.915C60.9501 135.688 60.5914 135.421 60.2633 135.119C58.3622 133.323 56.4787 131.509 54.5851 129.706C54.0849 129.232 54.0849 129.232 53.7397 129.863C52.9944 131.322 52.0892 132.694 51.0407 133.954C50.4529 134.628 49.8651 135.301 49.2397 135.95C49.1801 135.993 49.1298 136.048 49.0919 136.111C49.0539 136.174 49.0291 136.244 49.0188 136.317C49.0086 136.39 49.0131 136.464 49.0322 136.535C49.0512 136.606 49.0844 136.673 49.1297 136.731C49.2498 136.921 49.3297 137.133 49.4523 137.32C50.5154 138.939 51.5535 140.563 52.6616 142.162C53.3741 143.161 54.1372 144.124 54.9479 145.046C55.5982 145.818 56.3714 146.478 57.2366 146.999C57.907 147.391 58.5523 147.498 59.2527 147.151C59.5251 147.03 59.7848 146.882 60.0281 146.71C60.8997 146.069 61.7347 145.38 62.5295 144.647C64.1704 143.015 65.7437 141.314 67.3421 139.637C67.4947 139.478 67.6073 139.278 67.7624 139.118C68.7629 138.069 69.7768 137.022 70.804 135.978C70.9941 135.785 71.2893 135.643 71.4894 135.903C71.5575 136.004 71.6034 136.118 71.6241 136.238C71.6448 136.358 71.6398 136.481 71.6095 136.599C71.4662 136.941 71.2741 137.261 71.0392 137.549C70.5539 138.208 70.0386 138.841 69.5559 139.505C69.5077 139.575 69.4765 139.655 69.4648 139.739C69.4531 139.823 69.4611 139.909 69.4883 139.989C69.7396 140.359 70.1094 140.632 70.5372 140.765C70.9649 140.897 71.4251 140.88 71.8421 140.718C72.53 140.468 72.9327 139.969 73.2579 139.363C74.426 137.185 74.6487 134.822 74.7537 132.33V132.325ZM34.7943 118.27C33.4561 118.285 32.293 118.332 31.2449 118.879C30.472 119.28 30.2843 119.864 30.627 120.647C30.997 121.419 31.5324 122.1 32.1954 122.643C34.0989 124.365 36.3677 125.362 38.7715 126.098C40.156 126.529 41.563 126.885 42.9863 127.164C43.4468 127.237 43.8806 127.428 44.2463 127.716C44.612 128.005 44.8973 128.383 45.0749 128.813C45.8653 130.454 46.6908 132.083 47.5163 133.71C47.939 134.546 47.9715 134.556 48.6444 133.847C50.1452 132.27 51.2684 130.427 52.2589 128.503C52.5991 127.845 52.559 127.827 51.9837 127.296C51.7031 127.049 51.4367 126.787 51.1858 126.51C50.2678 125.442 49.2672 124.442 48.857 123.017C48.6201 122.272 48.304 121.553 47.914 120.874C46.9985 119.2 45.9554 117.606 44.307 116.551C43.5732 116.111 42.8082 115.725 42.0182 115.396C41.7081 115.256 41.5455 115.446 41.6606 115.785C41.8482 116.349 42.1283 116.888 42.2634 117.462C42.446 118.23 42.9613 118.642 43.5991 119.003C44.1304 119.274 44.6227 119.614 45.0625 120.016C45.485 120.484 45.8448 121.005 46.133 121.565C46.3056 121.875 46.028 122.164 45.6678 122.087C45.4912 122.039 45.3226 121.966 45.1675 121.87C44.0194 121.244 42.9038 120.558 41.7256 119.999C39.5616 118.946 37.2005 118.357 34.7943 118.27ZM132.268 116.708C134.326 116.825 136.147 116.045 137.708 114.9C139.343 113.699 140.662 112.12 141.55 110.299C141.76 109.865 141.896 109.399 141.95 108.92C142.036 108.104 141.683 107.672 140.852 107.757C139.703 107.844 138.564 108.034 137.448 108.323C134.955 108.981 132.544 109.914 130.259 111.105C130.061 111.21 129.851 111.297 129.654 111.402C129.361 111.557 129.073 111.592 128.846 111.31C128.566 110.963 128.766 110.686 129.016 110.431C129.151 110.252 129.315 110.096 129.501 109.97C130.562 109.471 130.874 108.473 131.2 107.475C131.239 107.307 131.265 107.136 131.277 106.964C131.113 106.99 130.952 107.037 130.799 107.104C128.996 108.164 127.62 109.706 126.297 111.267C125.169 112.599 124.233 114.089 123.223 115.508C122.92 115.932 122.645 116.374 122.357 116.808C122.312 116.856 122.278 116.914 122.259 116.977C122.24 117.04 122.236 117.107 122.247 117.172C122.258 117.237 122.285 117.299 122.324 117.352C122.363 117.405 122.414 117.449 122.472 117.479C123.723 118.297 124.936 119.148 126.224 119.911C126.882 120.306 127.635 120.538 128.346 120.842L128.833 118.682C128.833 118.647 128.876 118.604 128.866 118.577C128.812 118.383 128.733 118.197 128.633 118.023C128.528 117.876 128.341 117.793 128.208 117.661C127.795 117.245 127.85 116.865 128.406 116.633C128.716 116.51 129.05 116.457 129.384 116.476C130.342 116.526 131.305 116.626 132.268 116.708ZM45.9204 135.376C45.9904 135.518 46.078 135.693 46.1705 135.875C46.2381 135.808 46.3782 135.716 46.3632 135.676C46.2724 135.449 46.1697 135.228 46.0555 135.012L45.9204 135.376ZM120.864 115.418C120.804 115.446 120.721 115.456 120.696 115.501C120.671 115.546 120.719 115.616 120.734 115.675C120.795 115.654 120.85 115.62 120.896 115.576C120.919 115.536 120.876 115.463 120.864 115.401V115.418Z" fill="#717A7C"/>
<path d="M132.703 36.6472C131.994 36.5747 131.279 36.6728 130.616 36.9332C129.954 37.1937 129.364 37.6089 128.896 38.144C128.792 38.2525 128.673 38.3458 128.543 38.4209C128.028 38.7328 127.587 38.7477 127.292 38.4758C126.935 38.1465 126.749 37.4654 127.075 37.0463C127.617 36.3478 128.193 35.6193 128.908 35.1204C130.349 34.1225 132.04 33.7208 133.786 33.7533C135.734 33.7857 137.515 34.4693 139.134 35.522C140.293 36.2831 141.221 37.346 141.818 38.5956C142.684 40.3459 142.872 42.3536 142.346 44.2336C141.55 47.3645 139.479 49.1957 136.482 50.0863C134.699 50.6177 132.875 51.0118 131.087 51.5282C129.389 52.0219 127.9 53.0568 126.847 54.4745C126.569 54.8263 126.26 55.1527 125.924 55.45C125.564 55.7768 124.766 55.8516 124.466 55.5772C124.273 55.426 124.129 55.221 124.053 54.9882C123.978 54.7554 123.973 54.5053 124.041 54.27C124.318 53.2586 124.904 52.3582 125.716 51.6929C127.703 50.0389 130.101 49.3454 132.538 48.7641C134.156 48.3774 135.699 47.8585 136.978 46.7683C138.779 45.2166 139.852 43.2931 139.451 40.8782C139.226 39.5236 138.321 38.4534 137.113 37.7374C135.764 36.9191 134.579 36.6522 132.703 36.6472Z" fill="#AA82F0"/>
<path d="M0.0602473 70.9273C-0.247421 69.0313 0.675602 67.2949 1.64113 65.611C2.8693 63.468 4.54024 61.7417 6.85651 60.7163C9.00019 59.7658 11.1838 59.5837 13.38 60.4669C14.8162 61.0349 16.0117 62.08 16.7644 63.4256C17.6614 64.8882 18.1996 66.5413 18.3353 68.2504C18.4679 70.356 18.7405 72.4541 18.9931 74.5521C19.1603 76.1926 19.8134 77.7462 20.8691 79.0152C21.2396 79.3915 21.4479 79.8974 21.4495 80.4247C21.417 81.258 20.6991 81.722 19.9787 81.3128C19.5868 81.1004 19.2514 80.7976 19.0006 80.4297C17.8275 78.6036 16.7869 76.7001 16.5293 74.5072C16.4042 73.437 16.4743 72.3443 16.4643 71.2641C16.4309 68.7165 15.6329 66.2374 14.173 64.1466C13.2775 62.8194 11.9042 62.2356 10.3709 62.071C9.91814 62.0211 9.4204 62.2306 8.96766 62.3853C5.60831 63.5479 3.44961 65.828 2.56913 69.2758C2.40404 69.9219 2.17645 70.578 2.16644 71.2316C2.15394 72.0374 2.35405 72.8432 2.41658 73.654C2.44577 74.0514 2.43737 74.4507 2.39154 74.8465C2.37783 75.0543 2.28837 75.25 2.14 75.3966C1.99163 75.5432 1.79462 75.6306 1.58611 75.6423C1.34327 75.6519 1.10428 75.5795 0.907758 75.4369C0.711232 75.2944 0.568625 75.0898 0.502995 74.8565C0.310508 74.1032 0.162666 73.3394 0.0602473 72.5688C0.0261963 72.0222 0.0261963 71.4739 0.0602473 70.9273Z" fill="#AA82F0"/>
<path d="M67.9173 20.5561C67.8697 18.1661 68.8678 16.2352 70.4661 14.5463C71.2341 13.7355 72.007 12.9222 72.7174 12.0516C73.4678 11.121 73.6954 9.95099 73.7754 8.80841C73.7841 8.10028 73.6247 7.40017 73.3102 6.76522C72.7567 5.48755 71.7944 4.42871 70.5737 3.75408C69.9648 3.42366 69.2897 3.23255 68.5974 3.19458C67.9052 3.15661 67.2132 3.27274 66.5715 3.53456C65.8302 3.79473 65.1403 4.18226 64.5329 4.67963C64.0059 5.14858 63.6016 5.73857 63.3547 6.3985C63.0949 7.20819 62.9312 8.04549 62.867 8.89323C62.7769 9.64165 62.5018 10.1406 62.039 10.1556C61.4787 10.1556 61.0885 9.66909 61.0085 8.9082C60.7759 6.61305 61.5513 4.62974 63.0471 2.95827C63.7243 2.2062 64.6051 1.66555 65.5835 1.40155C67.3138 0.91792 69.1372 0.868226 70.8914 1.25687C73.0976 1.74084 74.5509 3.1828 75.3939 5.24844C76.1994 7.15135 76.3558 9.26549 75.8391 11.2657C75.4343 12.9911 74.4225 14.5144 72.9875 15.5591C71.5611 16.5477 70.5608 18.0363 70.186 19.7278C70.0985 20.1245 70.1159 20.5436 70.0209 20.9353C69.908 21.5147 69.7301 22.0795 69.4906 22.6192C69.396 22.746 69.273 22.849 69.1315 22.9201C68.9899 22.9911 68.8336 23.0282 68.6752 23.0284C68.4676 23.0284 68.1499 22.6791 68.1024 22.4421C68.0039 21.8176 67.9421 21.1878 67.9173 20.5561Z" fill="#AA82F0"/>
<path d="M124.011 61.6494C124.011 62.7545 123.366 63.5379 122.435 63.5579C121.342 63.5828 120.509 62.8593 120.489 61.8639C120.462 60.664 121.157 59.9355 122.318 59.938C123.478 59.9405 124.014 60.4868 124.011 61.6494Z" fill="#AA82F0"/>
<path d="M23.9035 86.3895C23.8999 86.1578 23.9425 85.9278 24.0288 85.7128C24.1152 85.4977 24.2436 85.3019 24.4066 85.1369C24.5695 84.9718 24.7638 84.8407 24.978 84.7512C25.1923 84.6618 25.4222 84.6157 25.6545 84.6157C26.084 84.6505 26.4855 84.8421 26.7823 85.1537C27.079 85.4653 27.2501 85.8751 27.2629 86.3046C27.2629 87.2726 26.3899 88.2131 25.4844 88.2081C24.634 88.2081 23.891 87.3499 23.9035 86.3895Z" fill="#AA82F0"/>
<path d="M68.1924 26.1118C68.1924 24.9892 68.6076 24.5676 69.5656 24.5027C70.3786 24.4478 71.169 25.5605 71.1464 26.2141C71.1468 26.4092 71.1081 26.6025 71.0324 26.7825C70.9567 26.9625 70.8456 27.1255 70.7057 27.262C70.5658 27.3985 70.4 27.5056 70.218 27.5772C70.0359 27.6487 69.8413 27.6831 69.6456 27.6785C68.7426 27.6735 68.1949 27.0872 68.1924 26.1118Z" fill="#AA82F0"/>
<path d="M67.0892 92.4693C67.8396 93.3375 68.6351 94.1732 69.3405 95.0763C70.341 96.3636 71.2515 97.7357 72.2846 99.003C72.8549 99.7015 72.6898 100.335 72.3396 100.956C71.6467 102.189 69.8608 102.875 68.4675 102.568C67.9541 102.46 67.4856 102.199 67.1243 101.82C66.5515 101.228 65.9612 100.655 65.3909 100.061C65.1512 99.771 64.8202 99.5707 64.4519 99.4923C64.0836 99.414 63.6996 99.4622 63.3622 99.6292C62.4446 100.038 61.4951 100.372 60.5231 100.627C59.7514 100.765 58.9644 100.795 58.1844 100.717C57.9188 100.699 57.6635 100.607 57.448 100.452C57.2325 100.296 57.0655 100.083 56.9662 99.8362C56.7072 99.2607 56.4883 98.668 56.3109 98.0625C55.9332 96.6829 55.3428 96.3162 53.9421 96.5657C50.2851 97.2018 47.7161 94.6422 47.5335 91.429C47.4549 90.4619 47.5309 89.4884 47.7586 88.5451C48.0488 87.4574 47.6961 86.8661 46.6681 86.452C45.8026 86.1027 44.9171 85.7809 44.0916 85.3643C43.3262 84.9826 42.6058 84.5186 42.2006 83.6879C41.9079 83.0816 41.7804 82.4854 42.0556 81.8617C42.3003 81.2808 42.5784 80.7144 42.8885 80.1653C43.4438 79.2223 43.4438 78.6036 42.7535 77.7254C42.3419 77.1966 41.8992 76.6926 41.4277 76.2161C40.9508 75.6954 40.5315 75.125 40.177 74.5147C39.0614 72.7934 39.8343 69.8371 41.0875 68.7344C41.3952 68.465 41.6853 68.1706 41.968 67.8713C42.6634 67.1228 42.7034 66.8609 42.2181 65.9902C42.0665 65.7374 41.8994 65.4942 41.7178 65.2618C40.0895 63.0165 40.2171 60.3397 42.1806 58.2291C42.7129 57.6513 43.357 57.1871 44.0741 56.8645C44.6544 56.6026 45.2248 56.3182 45.7851 56.0163C46.478 55.6471 46.6806 55.0958 46.433 54.3498C46.4068 54.2036 46.3542 54.0633 46.2778 53.9357C45.3774 52.8754 45.75 51.7503 46.1428 50.6601C47.1158 47.9533 49.8948 46.5064 52.3512 46.5263C52.7639 46.5263 53.1766 46.5413 53.5868 46.5263C54.4748 46.4864 54.9276 46.0274 54.9551 45.1118C54.9701 44.6129 54.9326 44.1389 54.9551 43.6549C55.1077 41.1826 57.6866 38.7777 60.0454 38.9299C60.7092 39.0035 61.3607 39.1619 61.984 39.4014C62.439 39.5732 62.877 39.787 63.2922 40.04C64.3728 40.6338 65.5634 40.2895 66.0862 39.127C66.3744 38.5626 66.6951 38.0153 67.0467 37.4879C67.8822 36.0884 69.1879 35.3375 70.7013 34.9034C71.3802 34.6969 72.0985 34.6535 72.7975 34.7766C73.4965 34.8997 74.1564 35.1859 74.7234 35.6119C76.622 36.9566 76.9747 36.6722 78.3004 35.2302C79.2184 34.2323 80.2565 33.3966 81.6022 33.0074C83.3081 32.5084 85.4768 33.5937 86.0672 35.2527C86.1772 35.5695 86.2773 35.8888 86.3949 36.2031C86.8076 37.3008 87.4429 37.5827 88.486 37.0763C89.529 36.5699 90.4871 36.0784 91.6027 35.8589C92.5832 35.6693 93.5788 35.6443 94.4693 36.0335C95.3598 36.4227 96.0226 37.0813 96.0777 38.1416C96.1052 38.663 96.0777 39.1869 96.0777 39.7083C96.1227 40.9431 96.748 41.4097 97.9712 41.2201C99.5621 40.9706 101.11 41.1128 102.506 41.9934C102.922 42.2429 103.288 42.5678 103.584 42.9514C103.834 43.2584 103.976 43.6383 103.989 44.0332C104.002 44.4281 103.885 44.8165 103.657 45.1393C103.394 45.5011 103.161 45.8831 102.959 46.2819C102.521 47.2598 102.926 48.0282 103.959 48.3126C105.17 48.6269 106.351 49.0311 107.144 50.0589C107.571 50.6187 107.909 51.2416 108.144 51.905C108.239 52.1722 108.271 52.4575 108.238 52.739C108.205 53.0206 108.108 53.2909 107.954 53.5291C107.614 54.0604 107.264 54.5868 106.901 55.1032C106.233 56.0462 106.401 56.9443 107.494 57.3485C109.152 57.9547 109.598 59.3717 109.96 60.8162C110.175 61.6694 109.71 62.4128 109.065 62.9916C108.749 63.2521 108.42 63.496 108.079 63.7225C107.161 64.3861 107.031 64.9849 107.737 65.8505C108.112 66.3516 108.373 66.9291 108.499 67.5419C108.677 68.1881 108.522 68.7394 108.342 69.2883C107.729 71.1369 105.936 72.0874 103.937 71.9452C103.292 71.9002 103.244 71.6134 103.089 71.2317C101.656 67.7141 100.232 64.194 98.7866 60.6814C98.5768 60.2056 98.3257 59.749 98.0362 59.3168C97.716 58.8179 98.1313 58.6857 98.3989 58.4437C98.7116 58.1618 98.8992 58.2391 99.0943 58.5709C99.3018 58.8802 99.5256 59.1783 99.7647 59.464C100.211 60.07 100.825 60.5329 101.531 60.7962C101.916 60.9334 102.281 60.7962 102.356 60.4769C102.431 60.1576 102.183 60.0802 101.951 59.9305C100.903 59.257 100.147 58.3863 100.12 57.0466C100.104 56.6747 100.024 56.3083 99.8822 55.9639C99.8182 55.8237 99.7225 55.7002 99.6027 55.603C99.4828 55.5058 99.342 55.4376 99.1913 55.4038C99.0406 55.37 98.8841 55.3714 98.734 55.408C98.584 55.4446 98.4445 55.5153 98.3264 55.6146C97.9387 55.9689 97.611 56.388 97.2058 56.7148C96.4929 57.2911 95.7525 57.7377 94.7469 57.3335C94.2515 57.1597 93.8421 56.8024 93.6038 56.3356C93.5085 56.1327 93.425 55.9244 93.3536 55.7119C93.2615 55.4854 93.1022 55.2923 92.897 55.1586C92.6918 55.0248 92.4506 54.9568 92.2055 54.9635C91.7578 54.9361 91.4551 55.2305 91.275 55.6396C90.9781 56.3601 90.6226 57.0551 90.212 57.7177C89.7785 58.3247 89.2672 58.8723 88.6911 59.3468C87.8932 60.0203 86.3573 59.953 85.5669 59.2445C85.1321 58.837 84.7314 58.3948 84.3687 57.9223C84.0385 57.5081 83.6183 57.2337 83.118 57.3335C82.8584 57.3845 82.6217 57.5163 82.4419 57.7099C82.2621 57.9036 82.1485 58.1491 82.1175 58.4112C81.9624 59.212 81.8674 60.0278 81.6347 60.8112C81.1595 62.4976 80.3515 63.9919 78.8082 64.9549C78.0773 65.4015 77.2124 65.5781 76.3643 65.4539C75.6263 65.3599 74.9043 65.1669 74.2181 64.8801C73.7329 64.6855 73.2927 64.6007 72.8925 65.0522C72.7109 65.2403 72.5939 65.4811 72.5584 65.7398C72.5228 65.9985 72.5706 66.2618 72.6948 66.4917C72.7581 66.6643 72.8359 66.8312 72.9275 66.9906C73.4978 67.8313 73.4127 68.7818 73.3152 69.7024C73.2051 70.7577 71.7143 72.03 70.6462 72.0799C70.2735 72.0973 69.8958 72.0799 69.5231 72.0799C68.6326 72.1273 68.2449 72.6337 68.4625 73.4994C68.5801 73.9684 68.7602 74.4199 68.9127 74.879C69.1808 75.6327 69.2575 76.4409 69.1362 77.2314C69.0149 78.0219 68.6992 78.7701 68.2174 79.4094C67.7171 80.1204 66.9667 80.4497 66.2163 80.7765C65.1832 81.228 64.9806 81.5748 65.2608 82.6525C65.4009 83.1889 65.5934 83.7128 65.741 84.2467C66.1813 85.8383 65.8036 87.3401 65.1857 88.7996C65.0782 89.049 64.8005 89.2361 64.6204 89.4656C64.3178 89.8548 64.0401 90.2914 64.3002 90.7854C65.2683 92.6215 65.5835 94.6572 66.1338 96.623C66.2063 96.885 66.3588 97.2891 66.5364 97.3265C66.9642 97.4139 67.2043 97.0446 67.2869 96.6629C67.372 96.3121 67.404 95.9505 67.3819 95.5902C67.2969 94.5549 67.1693 93.5246 67.0567 92.4918L67.0892 92.4693Z" fill="#F3F4F4"/>
<path d="M88.8059 172.742H68.3472C67.1291 172.742 67.1241 172.742 67.3467 171.572C67.6994 169.641 68.0846 167.713 68.4073 165.774C68.5573 164.861 68.5824 163.928 68.6899 163.005C68.8025 162.007 68.9401 161.022 69.0727 160.029C69.0927 159.882 69.1127 159.735 69.1227 159.585C69.2052 158.026 69.2052 156.457 69.3853 154.907C69.748 151.779 69.5304 148.648 69.5604 145.517C69.5604 144.519 69.4228 143.521 69.3553 142.524C69.3403 142.259 69.3728 142.104 69.723 142.287C71.4739 143.195 73.295 142.668 74.5081 140.969C75.5587 139.502 75.9814 137.816 76.3241 136.095C76.6868 134.283 76.6093 132.45 76.5192 130.631C76.4088 128.814 76.0804 127.017 75.5412 125.277C75.0834 123.748 74.5206 122.246 73.9503 120.752C73.7402 120.203 73.3625 119.717 73.0923 119.188C72.8622 118.739 72.9548 118.661 73.43 118.502C74.2255 118.232 74.7533 118.469 75.1985 119.158C75.4944 119.589 75.8478 119.977 76.2491 120.313C77.7624 121.64 78.8555 123.279 79.811 125.018C80.5264 126.324 81.2234 127.638 81.9021 128.962C83.0753 131.25 84.5961 133.241 86.6848 134.782C88.1006 135.825 89.6864 136.564 91.4149 136.609C93.581 136.661 95.5246 135.96 96.8553 134.071C97.7108 132.856 98.1361 131.502 98.3887 130.045C98.949 126.822 98.096 123.843 96.8704 120.942C96.295 119.577 95.5146 118.295 94.7842 117C94.5125 116.601 94.2062 116.226 93.8687 115.88C93.7236 115.703 93.7987 115.61 93.9963 115.603C94.405 115.553 94.8182 115.553 95.2269 115.603C95.5454 115.681 95.8252 115.87 96.0149 116.137C97.7884 118.948 99.4243 121.837 100.682 124.918C101.683 127.366 102.701 129.808 103.577 132.3C104.493 134.896 105.244 137.546 105.828 140.236C106.433 143.065 107.173 145.864 107.734 148.703C108.234 151.173 108.544 153.677 108.939 156.167C109.222 157.961 109.512 159.752 109.782 161.548C109.888 162.244 109.958 162.945 110.033 163.649C110.128 164.684 110.2 165.722 110.283 166.757C110.418 168.272 110.533 169.788 110.705 171.3C110.856 172.67 110.816 172.74 109.397 172.74H88.826L88.8059 172.742Z" fill="#E8E9E9"/>
<path d="M104.848 86.9611C104.988 88.8546 104.677 90.7905 104.222 92.719C103.694 94.9418 102.561 96.8453 101.221 98.6564C99.8526 100.489 98.0243 101.929 95.9201 102.833C94.5944 103.424 93.1887 103.831 91.8379 104.372C90.0695 105.075 88.4761 106.103 87.3355 107.615C85.7021 109.808 85.7571 111.911 87.408 114.101C87.7715 114.581 88.2447 114.967 88.7882 115.227C89.3316 115.488 89.9295 115.615 90.5322 115.598C92.133 115.598 92.1006 115.636 92.906 117.07C93.819 118.697 94.7295 120.326 95.2998 122.109C95.9326 124.093 96.5105 126.101 96.5005 128.204C96.5261 129.474 96.2591 130.733 95.7201 131.884C94.9822 133.356 93.8015 134.266 92.043 134.416C89.9419 134.593 88.396 133.583 86.9227 132.325C85.3869 131.013 84.3913 129.307 83.4433 127.568C82.5328 125.899 81.6548 124.21 80.6918 122.578C79.6738 120.86 78.1904 119.525 76.7522 118.165C76.3845 117.821 76.3744 117.759 76.7846 117.472C77.0348 117.3 77.2849 117.142 77.5351 116.973C79.1159 115.96 79.8113 114.446 79.8964 112.642C79.9839 110.756 79.5487 108.945 78.8508 107.206C77.5432 104.038 75.9068 101.015 73.9681 98.1874C72.5823 96.1243 70.9364 94.2358 69.4656 92.2225C68.9253 91.4741 68.1925 90.9752 67.5596 90.3565C67.4176 90.2428 67.3164 90.0863 67.2713 89.9104C67.2262 89.7345 67.2396 89.5487 67.3095 89.381C67.7297 88.0663 68.0799 86.7316 67.9723 85.3346C67.9102 84.5603 67.7915 83.7915 67.6171 83.0344C67.5096 82.5679 67.5196 82.2586 67.9999 82.0365C70.4787 80.8565 71.6969 77.4288 70.949 74.964C70.884 74.7544 70.929 74.5124 70.8639 74.3004C70.7814 74.026 70.8264 73.9361 71.1316 73.8588C71.8445 73.6767 72.5649 73.522 73.1927 73.0605C75.0412 71.6984 75.6741 69.8822 75.3139 67.6744C75.2638 67.3725 75.1488 67.1754 75.6215 67.2528C78.6857 67.8191 81.2321 66.2274 82.6504 63.6129C83.1232 62.7398 83.3858 61.7494 83.7209 60.8064C83.801 60.5719 83.8561 60.492 84.0762 60.6542C84.2263 60.764 84.4038 60.8388 84.5464 60.9561C86.2273 62.3232 88.9338 61.8991 90.4346 60.532C91.0737 59.9109 91.6594 59.2374 92.1856 58.5187C92.4007 58.2443 92.4858 58.3341 92.6859 58.4863C93.7389 59.2796 94.877 59.7336 96.2253 59.3569C96.2968 59.3318 96.3727 59.3214 96.4484 59.3264C96.524 59.3314 96.5979 59.3516 96.6655 59.3859C96.7331 59.4202 96.793 59.4678 96.8416 59.5259C96.8902 59.5839 96.9265 59.6512 96.9482 59.7237C97.406 60.744 97.9162 61.7444 98.3089 62.7872C99.7347 66.5867 101.218 70.3687 102.486 74.2205C103.299 76.6803 103.779 79.2524 104.397 81.7746C104.795 83.4731 104.947 85.2197 104.848 86.9611ZM98.0488 90.9876L97.9063 90.9552C97.9263 90.6229 97.9263 90.2896 97.9063 89.9573C97.8562 89.5282 97.3584 89.0742 96.9857 89.179C96.6331 89.2785 96.3147 89.4726 96.0652 89.7403C95.7233 90.1316 95.4695 90.5915 95.321 91.089C95.1726 91.5866 95.1329 92.1101 95.2048 92.6242C95.2773 93.3077 95.5525 93.7169 96.0152 93.8142C96.7356 93.9638 97.2184 93.7493 97.516 92.9909C97.7308 92.3352 97.9087 91.6681 98.0488 90.9926V90.9876ZM96.0928 85.0252C96.6105 84.9579 97.0232 84.9404 97.4159 84.8456C98.406 84.6503 99.3203 84.1789 100.052 83.486C100.169 83.3899 100.261 83.2689 100.324 83.132C100.387 82.9951 100.418 82.8459 100.414 82.6954C100.411 82.545 100.373 82.3972 100.305 82.2633C100.236 82.1293 100.138 82.0125 100.017 81.9218C99.5772 81.5251 99.1294 81.1359 98.6517 80.7842C98.5683 80.7238 98.4722 80.6834 98.3707 80.6661C98.2692 80.6488 98.165 80.6551 98.0663 80.6844C97.994 80.7625 97.9414 80.8566 97.9127 80.9589C97.884 81.0613 97.8801 81.169 97.9013 81.2732C98.0149 81.5823 98.1599 81.879 98.334 82.1588C98.6066 82.6827 98.6091 82.7924 98.0988 83.0344C97.5247 83.2945 96.9349 83.5186 96.3329 83.7055C95.9127 83.8452 95.4624 83.8926 95.0471 84.0423C94.9767 84.0689 94.9159 84.1159 94.8725 84.1772C94.829 84.2385 94.8049 84.3114 94.8033 84.3865C94.8017 84.4616 94.8226 84.5354 94.8634 84.5986C94.9042 84.6617 94.963 84.7112 95.0322 84.7408C95.3791 84.8601 95.7333 84.9567 96.0928 85.0302V85.0252ZM84.6815 70.1292C84.7749 70.5066 84.8979 70.8761 85.0492 71.2344C85.1049 71.3252 85.1822 71.4009 85.2743 71.4548C85.3663 71.5088 85.4703 71.5393 85.577 71.5437C85.7271 71.5188 85.8547 71.2493 85.9572 71.0697C85.9938 70.963 86.0023 70.8488 85.9822 70.7379C85.9222 69.5629 86.605 68.8644 87.5581 68.3829C88.0655 68.1572 88.5859 67.9614 89.1164 67.7966C89.5767 67.627 89.6592 67.2627 89.279 66.9584C89.1114 66.8144 88.9071 66.7194 88.6887 66.684C86.8152 66.4844 84.7765 67.6893 84.6815 70.1342V70.1292ZM95.0322 65.696C95.67 65.8333 96.3179 65.9705 96.9632 66.1127C97.4435 66.2174 97.7736 65.9231 97.6661 65.4541C97.6211 65.2781 97.5202 65.1215 97.3784 65.0075C96.7483 64.4785 95.984 64.1332 95.1697 64.0096C94.6697 63.9292 94.1573 63.9827 93.6848 64.1646C93.2124 64.3465 92.7968 64.6503 92.4807 65.0449C92.4037 65.1632 92.3534 65.2967 92.3331 65.4362C92.3128 65.5757 92.323 65.718 92.3632 65.8532C92.4707 66.1601 92.7984 66.1651 93.1261 66.0827C93.744 65.9231 94.3768 65.8283 95.0322 65.701V65.696ZM92.1581 76.2338C91.9878 75.8177 91.7801 75.4177 91.5377 75.0388C91.1375 74.5 90.7873 74.4226 90.287 74.6197C90.0568 74.7001 89.8613 74.857 89.7333 75.0642C89.6053 75.2713 89.5527 75.516 89.5842 75.7573C89.6522 76.3034 89.7909 76.8384 89.9969 77.3489C90.1795 77.803 90.6322 77.9152 91.11 77.9127C91.5402 77.9127 91.6628 77.5809 91.7979 77.2866C91.9329 76.9922 92.013 76.6754 92.1581 76.2338ZM99.4896 74.465C99.4045 73.8912 99.337 73.1827 98.6467 72.7611C97.9563 72.3395 97.2484 72.7087 97.2209 73.4821C97.2134 73.9932 97.2816 74.5027 97.4235 74.9939C97.4837 75.2641 97.6452 75.5011 97.8749 75.6565C98.1046 75.8118 98.3852 75.8738 98.6592 75.8296C99.272 75.6899 99.5021 75.3482 99.4896 74.4725V74.465Z" fill="white"/>
<path d="M74.7531 132.33C74.648 134.825 74.4254 137.185 73.2522 139.345C72.927 139.947 72.5243 140.463 71.8364 140.7C71.4194 140.863 70.9592 140.88 70.5315 140.747C70.1038 140.615 69.7339 140.341 69.4826 139.971C69.4555 139.891 69.4474 139.806 69.4591 139.722C69.4709 139.638 69.502 139.557 69.5502 139.487C70.0304 138.824 70.5507 138.19 71.0335 137.532C71.2684 137.244 71.4605 136.924 71.6038 136.581C71.6341 136.463 71.6391 136.34 71.6184 136.22C71.5977 136.1 71.5518 135.986 71.4837 135.885C71.2836 135.636 70.9835 135.768 70.7984 135.96C69.7745 136.999 68.7606 138.046 67.7567 139.101C67.6016 139.26 67.489 139.46 67.3364 139.62C65.7381 141.296 64.1647 142.998 62.5238 144.629C61.7291 145.363 60.894 146.051 60.0224 146.692C59.7791 146.865 59.5194 147.012 59.247 147.134C58.5467 147.488 57.9013 147.383 57.2309 146.982C56.3657 146.46 55.5925 145.8 54.9422 145.028C54.1316 144.106 53.3685 143.144 52.6559 142.144C51.5478 140.558 50.5097 138.921 49.4466 137.302C49.3241 137.115 49.2441 136.903 49.124 136.713C49.0787 136.655 49.0455 136.589 49.0265 136.518C49.0074 136.447 49.0029 136.373 49.0132 136.3C49.0234 136.227 49.0483 136.157 49.0862 136.094C49.1241 136.031 49.1744 135.976 49.234 135.932C49.8594 135.294 50.4472 134.62 51.035 133.937C52.0835 132.677 52.9887 131.304 53.734 129.845C54.0742 129.214 54.0817 129.214 54.5794 129.688C56.473 131.492 58.3566 133.306 60.2576 135.102C60.5857 135.404 60.9445 135.67 61.3281 135.898C61.4092 135.925 61.496 135.931 61.5801 135.915C61.6641 135.899 61.7428 135.862 61.8085 135.808C61.8484 135.73 61.868 135.644 61.8654 135.556C61.8627 135.469 61.838 135.384 61.7934 135.309C61.3557 134.752 60.9029 134.204 60.4152 133.692C59.4146 132.629 59.4146 132.654 60.2451 131.482C61.5783 129.596 62.8715 127.682 64.2047 125.796C65.3679 124.157 66.496 122.493 67.9418 121.056C68.8423 120.168 69.9254 119.612 71.0385 119.073C71.4637 118.869 71.6288 119.053 71.7889 119.432C72.6656 121.528 73.3676 123.693 73.8876 125.904C74.3563 128.018 74.6458 130.168 74.7531 132.33Z" fill="white"/>
<path d="M97.4453 115.792C98.3308 115.792 99.1112 116.137 99.8816 116.526C101.795 117.491 103.384 118.916 105.092 120.176C107.128 121.673 109.152 123.204 111.198 124.696C111.896 125.195 112.619 125.658 113.364 126.083C113.799 126.333 113.964 126.617 113.712 127.081C113.663 127.182 113.629 127.29 113.612 127.4C113.559 127.67 113.261 128.024 113.662 128.171C113.862 128.246 114.26 128.074 114.43 127.887C114.98 127.281 115.492 126.642 115.963 125.973C117.529 123.748 119.078 121.513 120.61 119.268C120.861 118.903 121.063 118.769 121.438 119.115C121.814 119.462 122.254 119.762 122.672 120.073C124.087 121.115 125.623 121.982 127.247 122.658C127.747 122.868 127.869 123.122 127.764 123.581C127.684 123.943 127.607 124.307 127.492 124.661C126.304 128.311 125.123 131.971 123.262 135.354C122.512 136.721 121.761 138.098 120.625 139.218C120.149 139.698 119.506 139.978 118.83 139.999C117.746 140.09 116.655 139.943 115.635 139.567C114.492 139.108 113.337 138.677 112.221 138.163C110.522 137.382 108.857 136.526 107.163 135.733C107.031 135.671 106.914 135.58 106.823 135.466C106.731 135.352 106.667 135.219 106.635 135.077C106.285 133.977 105.952 132.866 105.53 131.794C104.662 129.576 103.744 127.376 102.841 125.17C101.678 122.329 100.089 119.714 98.3783 117.187C98.0656 116.726 97.758 116.261 97.4478 115.797L97.4453 115.792Z" fill="white"/>
<path d="M34.7941 118.27C37.1985 118.353 39.5587 118.938 41.7228 119.986C42.901 120.545 44.0166 121.233 45.1647 121.857C45.3199 121.954 45.4884 122.027 45.665 122.074C46.0252 122.151 46.3029 121.862 46.1303 121.553C45.8421 120.992 45.4822 120.472 45.0597 120.003C44.6199 119.602 44.1277 119.261 43.5964 118.991C42.9585 118.629 42.4432 118.217 42.2606 117.449C42.1255 116.875 41.8454 116.336 41.6578 115.772C41.5427 115.433 41.7053 115.244 42.0155 115.383C42.8054 115.712 43.5704 116.099 44.3043 116.538C45.9527 117.594 46.9957 119.188 47.9112 120.862C48.3012 121.54 48.6174 122.259 48.8542 123.005C49.2645 124.429 50.265 125.43 51.183 126.497C51.4339 126.774 51.7003 127.036 51.981 127.283C52.5563 127.814 52.5963 127.832 52.2561 128.491C51.2556 130.414 50.1474 132.258 48.6416 133.834C47.9687 134.543 47.9362 134.533 47.5135 133.697C46.688 132.071 45.8626 130.454 45.0721 128.8C44.8945 128.37 44.6092 127.992 44.2435 127.704C43.8778 127.415 43.444 127.225 42.9835 127.151C41.5603 126.872 40.1532 126.517 38.7687 126.086C36.3649 125.35 34.0961 124.352 32.1926 122.63C31.5296 122.088 30.9942 121.406 30.6242 120.635C30.2815 119.851 30.4692 119.268 31.2421 118.866C32.2977 118.332 33.4558 118.285 34.7941 118.27Z" fill="white"/>
<path d="M132.267 116.708C131.304 116.626 130.341 116.526 129.376 116.474C129.042 116.454 128.708 116.508 128.398 116.631C127.843 116.863 127.787 117.242 128.2 117.659C128.333 117.791 128.52 117.873 128.625 118.02C128.726 118.195 128.804 118.381 128.858 118.574C128.858 118.602 128.833 118.644 128.826 118.679L128.338 120.839C127.627 120.535 126.874 120.303 126.217 119.909C124.938 119.145 123.715 118.295 122.465 117.476C122.406 117.446 122.355 117.403 122.316 117.349C122.277 117.296 122.251 117.235 122.24 117.169C122.228 117.104 122.232 117.038 122.252 116.975C122.271 116.911 122.304 116.853 122.35 116.805C122.637 116.371 122.912 115.93 123.215 115.506C124.216 114.081 125.161 112.592 126.289 111.265C127.61 109.703 128.986 108.161 130.792 107.101C130.944 107.035 131.105 106.988 131.269 106.961C131.258 107.133 131.232 107.305 131.192 107.473C130.867 108.47 130.554 109.468 129.493 109.967C129.307 110.094 129.144 110.25 129.008 110.429C128.758 110.678 128.558 110.96 128.838 111.307C129.066 111.589 129.353 111.556 129.646 111.399C129.844 111.295 130.054 111.207 130.251 111.102C132.536 109.911 134.947 108.978 137.44 108.321C138.556 108.031 139.695 107.841 140.845 107.755C141.675 107.68 142.028 108.101 141.943 108.917C141.888 109.396 141.753 109.862 141.543 110.297C140.657 112.118 139.341 113.699 137.708 114.902C136.15 116.044 134.326 116.825 132.267 116.708Z" fill="white"/>
<path d="M45.9199 135.376L46.0475 135.007C46.1617 135.222 46.2644 135.444 46.3552 135.67C46.3702 135.71 46.2301 135.803 46.1626 135.87C46.0775 135.693 45.99 135.518 45.9199 135.376Z" fill="white"/>
<path d="M120.863 115.401C120.876 115.456 120.918 115.528 120.896 115.558C120.85 115.603 120.794 115.637 120.733 115.658C120.718 115.598 120.673 115.523 120.696 115.483C120.718 115.443 120.803 115.436 120.863 115.401Z" fill="white"/>
<path d="M97.4483 115.79L97.3457 115.695C97.3682 115.695 97.3957 115.695 97.4082 115.715C97.4262 115.738 97.4389 115.764 97.4458 115.793L97.4483 115.79Z" fill="white"/>
<path d="M67.0847 92.4769L66.9922 92.3696L67.0897 92.4694L67.0847 92.4769Z" fill="white"/>
<path d="M98.0486 90.9925C97.9043 91.6674 97.7222 92.3337 97.5033 92.9883C97.2081 93.7367 96.7254 93.9613 96.0025 93.8116C95.5397 93.7143 95.2521 93.3126 95.192 92.6216C95.1202 92.1075 95.1599 91.584 95.3083 91.0865C95.4567 90.589 95.7105 90.129 96.0525 89.7377C96.302 89.4701 96.6204 89.2759 96.973 89.1764C97.3457 89.0716 97.8435 89.5256 97.8935 89.9547C97.9136 90.2871 97.9136 90.6203 97.8935 90.9526L98.0486 90.9925Z" fill="#717A7C"/>
<path d="M96.0923 85.03C95.733 84.9582 95.3787 84.8632 95.0317 84.7456C94.9625 84.7161 94.9037 84.6665 94.8629 84.6034C94.8221 84.5402 94.8012 84.4664 94.8028 84.3913C94.8044 84.3162 94.8286 84.2434 94.872 84.182C94.9155 84.1207 94.9763 84.0737 95.0467 84.0471C95.4619 83.8974 95.9122 83.85 96.3324 83.7103C96.9345 83.5234 97.5242 83.2993 98.0983 83.0392C98.5986 82.7898 98.5987 82.6875 98.3335 82.1636C98.1594 81.8838 98.0144 81.5871 97.9008 81.278C97.8796 81.1738 97.8835 81.0661 97.9122 80.9637C97.9409 80.8614 97.9935 80.7673 98.0658 80.6892C98.1645 80.6599 98.2687 80.6536 98.3702 80.6709C98.4717 80.6882 98.5679 80.7286 98.6512 80.789C99.129 81.1408 99.5767 81.5374 100.017 81.9266C100.137 82.0174 100.235 82.1341 100.304 82.2681C100.373 82.4021 100.41 82.5498 100.414 82.7002C100.417 82.8507 100.386 82.9999 100.324 83.1369C100.261 83.2738 100.168 83.3947 100.052 83.4908C99.3198 84.1837 98.4056 84.6552 97.4155 84.8504C97.0227 84.9452 96.6101 84.9652 96.0923 85.03Z" fill="#717A7C"/>
<path d="M84.6816 70.1341C84.7767 67.6892 86.8153 66.4843 88.6838 66.6888C88.9022 66.7243 89.1065 66.8193 89.2742 66.9633C89.6544 67.2676 89.5718 67.6319 89.1116 67.8015C88.581 67.9663 88.0607 68.162 87.5532 68.3877C86.6002 68.8692 85.9173 69.5678 85.9773 70.7428C85.9975 70.8537 85.9889 70.9679 85.9524 71.0746C85.8498 71.2542 85.7222 71.5236 85.5721 71.5486C85.4655 71.5442 85.3615 71.5137 85.2695 71.4597C85.1774 71.4058 85.1001 71.33 85.0443 71.2392C84.8947 70.8808 84.7735 70.5113 84.6816 70.1341Z" fill="#717A7C"/>
<path d="M95.0322 65.7009C94.3644 65.8282 93.744 65.9229 93.1362 66.0726C92.8085 66.155 92.4808 66.15 92.3733 65.8431C92.3331 65.7079 92.3228 65.5656 92.3431 65.4261C92.3634 65.2866 92.4138 65.1531 92.4908 65.0348C92.8069 64.6402 93.2224 64.3364 93.6949 64.1545C94.1674 63.9726 94.6798 63.9191 95.1798 63.9995C95.9941 64.1231 96.7584 64.4684 97.3885 64.9974C97.5288 65.1161 97.6263 65.2773 97.6661 65.4564C97.7737 65.9254 97.4435 66.2198 96.9633 66.115C96.3179 65.9753 95.6701 65.8381 95.0322 65.7009Z" fill="#717A7C"/>
<path d="M92.1578 76.2336C92.0128 76.6677 91.9352 76.982 91.8027 77.2864C91.6701 77.5907 91.5525 77.9101 91.1148 77.9126C90.637 77.9126 90.1843 77.8028 90.0017 77.3487C89.7957 76.8382 89.657 76.3032 89.589 75.7571C89.5575 75.5159 89.6101 75.2711 89.7381 75.064C89.8661 74.8569 90.0616 74.6999 90.2918 74.6195C90.7921 74.4224 91.1373 74.4998 91.5425 75.0386C91.7832 75.4177 91.9891 75.8177 92.1578 76.2336Z" fill="#717A7C"/>
<path d="M99.49 74.4724C99.49 75.348 99.2724 75.6898 98.6596 75.837C98.3856 75.8811 98.105 75.8192 97.8753 75.6638C97.6456 75.5085 97.4841 75.2715 97.4238 75.0013C97.282 74.51 97.2137 74.0006 97.2213 73.4894C97.2488 72.7161 97.9942 72.3693 98.647 72.7685C99.2999 73.1676 99.4049 73.8986 99.49 74.4724Z" fill="#717A7C"/>
</svg>
