<svg width="100" height="133" viewBox="0 0 100 133" fill="none" xmlns="http://www.w3.org/2000/svg">
<path d="M59.7757 102.203L60.0356 102.06C61.1295 101.506 62.1263 100.779 62.9872 99.9058C63.3261 99.603 63.5508 99.1932 63.6241 98.7447C63.6973 98.2962 63.6146 97.8362 63.3897 97.4413C62.7746 96.4428 61.8231 95.6966 60.7065 95.3373C60.6393 95.307 60.5663 95.2913 60.4926 95.2913C60.4188 95.2913 60.346 95.307 60.2788 95.3373C60.0598 95.4429 59.8868 95.6247 59.7924 95.8487C59.7642 96.0011 59.7757 96.1582 59.8256 96.305C59.8755 96.4518 59.9623 96.5833 60.0776 96.6869C60.1636 96.7595 60.2645 96.8122 60.3732 96.8411C60.4819 96.8701 60.5958 96.8747 60.7065 96.8546C60.7301 96.8508 60.7544 96.8523 60.7773 96.8591C60.8003 96.8659 60.8214 96.8778 60.8391 96.8939C60.8569 96.91 60.8707 96.9299 60.8797 96.9522C60.8886 96.9744 60.8925 96.9983 60.8909 97.0222C60.8745 97.1149 60.8342 97.2016 60.7736 97.2737L60.3376 97.5084C59.6518 97.9172 58.9271 98.257 58.1742 98.5227C55.9489 99.1683 53.6551 99.5482 51.3404 99.6544C49.0278 99.8219 46.703 99.6725 44.4309 99.2101C43.2843 99.028 42.1947 98.5864 41.2447 97.9191C41.0868 97.8123 40.953 97.6735 40.8519 97.5118C40.7508 97.3501 40.6845 97.1691 40.6576 96.9803C40.6576 96.93 40.6576 96.8294 40.6576 96.821C40.7346 96.8012 40.8154 96.8012 40.8924 96.821C41.0186 96.88 41.1394 96.9501 41.2531 97.0306C41.3802 97.1184 41.5118 97.1995 41.6472 97.2737C41.7538 97.3089 41.8672 97.3181 41.978 97.3006C42.0889 97.2831 42.194 97.2394 42.2845 97.1731C42.362 97.1294 42.4266 97.0661 42.4722 96.9897C42.5178 96.9132 42.5426 96.8262 42.5443 96.7372C42.5443 96.2678 42.4941 95.79 42.4605 95.3206L42.3934 94.3817L41.8652 94.5913L41.3788 94.7589C40.9757 94.8798 40.5877 95.0456 40.2218 95.2535C39.677 95.5744 39.2293 96.0369 38.9266 96.592C38.6239 97.147 38.4775 97.7737 38.5028 98.4054C38.533 98.9446 38.7119 99.465 39.0197 99.9089C39.3276 100.353 39.7522 100.703 40.2468 100.92C40.5488 101.06 40.8428 101.217 41.1272 101.39L41.622 101.666L41.9909 101.851C42.2018 101.946 42.4063 102.055 42.603 102.178C42.9217 102.387 42.8882 102.463 42.8714 102.53C42.8546 102.597 42.7959 102.731 42.3682 102.664C42.158 102.632 41.9506 102.585 41.7477 102.521L41.404 102.437C40.8338 102.303 40.5151 102.228 40.2384 102.437C39.9617 102.647 39.9618 102.974 39.945 103.561L39.6934 112.899C39.6934 112.999 39.6934 113.108 39.6934 113.209L39.5593 114.76C39.4503 115.908 39.3496 117.048 39.2742 118.197C39.1987 119.345 39.1484 120.418 39.0897 121.55L39.0226 123.109C39.018 123.162 39.018 123.215 39.0226 123.268L38.8801 125.045C38.7795 126.395 38.6788 127.753 38.6033 129.111C38.5703 129.291 38.5742 129.476 38.6146 129.655C38.6549 129.833 38.7309 130.002 38.8381 130.15C38.9921 130.277 39.1707 130.371 39.3626 130.426C39.5545 130.481 39.7556 130.495 39.9534 130.469L47.3071 130.653L49.0261 130.695V130.787L50.9965 130.67C52.1872 130.603 53.3695 130.528 54.5602 130.486C55.994 130.427 57.4364 130.377 58.8702 130.335L61.8467 130.234C62.1798 130.265 62.5115 130.162 62.7692 129.949C62.8602 129.819 62.9242 129.671 62.9573 129.516C62.9904 129.36 62.992 129.2 62.962 129.044C62.9117 127.946 62.8278 126.755 62.7104 125.288C62.6601 124.752 62.6015 124.215 62.5428 123.679C62.4422 122.732 62.3331 121.751 62.3164 120.795C62.2577 117.576 62.0396 114.416 61.8635 112.027C61.7294 110.351 61.6958 108.565 61.6539 106.88C61.6539 106.134 61.6541 105.388 61.5954 104.642V104.315C61.6037 104.153 61.6037 103.991 61.5954 103.829C61.6037 103.687 61.581 103.546 61.5288 103.414C61.4767 103.282 61.3963 103.164 61.2934 103.066C61.1666 102.996 61.0262 102.953 60.8815 102.942C60.7369 102.93 60.5913 102.95 60.4549 102.999L60.0944 103.083C59.6568 103.199 59.2111 103.283 58.7611 103.334C58.6691 103.312 58.5793 103.281 58.4927 103.242C58.5173 103.116 58.5822 103.001 58.6774 102.915C59.0252 102.651 59.3922 102.412 59.7757 102.203Z" fill="#CBB5F5"/>
<path d="M68.3773 73.5174V73.048C68.2737 71.6793 68.0833 70.3186 67.8071 68.9741C67.6897 68.3286 67.5724 67.6747 67.4718 67.0293C67.1207 65.0011 67.1805 62.923 67.6479 60.9184C67.7317 60.5831 67.8322 60.2561 67.9244 59.9208C68.0981 59.3697 68.2436 58.8102 68.3605 58.2443C68.4877 57.8672 68.5112 57.4629 68.4286 57.0736C68.346 56.6843 68.1604 56.3243 67.8911 56.0313C67.5789 55.7974 67.21 55.6509 66.8225 55.6067C66.4349 55.5625 66.0425 55.6222 65.6857 55.7798C64.6775 56.1319 63.7608 56.7047 63.0025 57.4563C60.6621 59.652 59.1093 62.5564 58.5835 65.7216C58.4075 66.6102 58.0385 66.8868 57.527 67.0293C55.3053 67.6541 53.3202 68.9265 51.8251 70.6841C50.4277 72.1462 49.3636 73.8935 48.7059 75.8059C48.2624 77.1855 48.0278 78.6236 48.0099 80.0726C47.867 79.4266 47.867 78.7571 48.0099 78.1111C48.1025 77.8144 48.1589 77.5076 48.1777 77.1974C48.1777 77.0549 48.1776 76.9124 48.2279 76.7783C48.2768 76.5863 48.2803 76.3856 48.2381 76.1921C48.1959 75.9985 48.1093 75.8175 47.9849 75.6634C47.8472 75.5126 47.6761 75.3963 47.4854 75.3235C47.2946 75.2507 47.0895 75.2235 46.8864 75.2442C46.723 75.2444 46.56 75.2612 46.4 75.2945L44.8906 75.6047C43.6077 75.8646 42.3753 76.1244 41.0588 76.443C39.0781 76.9481 37.1405 77.6096 35.2646 78.4212L34.4261 78.7733C34.0937 78.8861 33.8193 79.1254 33.6623 79.4393C33.5053 79.7532 33.4784 80.1163 33.5876 80.4498C33.8731 81.6836 34.2746 82.8876 34.7866 84.046C35.4014 85.5354 36.3627 86.8569 37.5905 87.9007C38.8184 88.9445 40.2776 89.6806 41.8469 90.0479C42.6109 90.2239 43.3833 90.361 44.1612 90.4587C44.5637 90.5173 44.9997 90.576 45.377 90.6514L45.7124 90.7185C45.3266 90.7772 44.9242 90.8023 44.4882 90.8359C44.2927 90.8253 44.0974 90.8582 43.9162 90.9321C43.735 91.006 43.5723 91.1191 43.44 91.2634C43.3271 91.4204 43.2474 91.5987 43.2056 91.7875C43.1638 91.9762 43.1607 92.1716 43.1968 92.3615C43.3226 93.3507 43.3813 94.3817 43.44 95.3709L43.5156 96.5109V96.7121C43.5072 96.8349 43.5072 96.9581 43.5156 97.0809C43.591 98.1203 44.0103 98.5563 45.0249 98.6401C46.0395 98.7239 46.9618 98.7909 47.8842 98.858L49.0162 98.9419H49.0748L50.6177 98.858C51.7665 98.7993 52.8481 98.749 53.9717 98.6149C55.0953 98.4808 55.9674 98.2712 56.9233 98.0533L58.1559 97.7934C58.3395 97.7675 58.516 97.7042 58.6742 97.6075C58.8325 97.5107 58.9692 97.3826 59.0761 97.2311C59.1829 97.0795 59.2575 96.9076 59.2953 96.7261C59.3332 96.5446 59.3337 96.3572 59.2964 96.1756C59.2541 95.542 59.2541 94.9063 59.2964 94.2727V93.6776C59.2964 93.3087 59.2962 92.9315 59.3465 92.5627V91.9927C59.3628 91.8103 59.3408 91.6265 59.2816 91.4532C59.2224 91.2799 59.1274 91.121 59.0028 90.9867C58.707 90.7266 58.3232 90.5888 57.9295 90.6012H57.5102C57.2063 90.6312 56.9001 90.6312 56.5962 90.6012C56.3476 90.5612 56.1072 90.482 55.8836 90.3664C56.16 90.3006 56.44 90.2503 56.7221 90.2156H56.8058C58.7048 90.0487 60.5224 89.3677 62.0633 88.2456C63.043 87.4943 63.9498 86.6523 64.7716 85.7309C66.2468 84.0375 67.3547 82.0566 68.0251 79.9133C68.5392 77.8218 68.6585 75.6527 68.3773 73.5174Z" fill="white"/>
<path fill-rule="evenodd" clip-rule="evenodd" d="M98.4129 52.3178L98.5052 53.4494L98.5386 53.6841L98.4716 54.5811C98.4131 56.3117 98.1312 58.0276 97.6331 59.6861C97.3885 60.7092 96.773 61.6052 95.9058 62.2009L95.7633 62.2763C95.2555 63.0222 94.6024 63.658 93.8431 64.1456L93.8394 64.1484C93.5807 64.3403 93.3218 64.5322 93.0715 64.7408C91.8118 65.7702 90.4685 66.6927 89.0552 67.4987L88.5436 67.8088C86.411 69.0853 84.13 70.0959 81.7516 70.8182C79.4139 71.6075 77.0166 72.2074 74.5825 72.6121H74.4483C74.3025 72.6332 74.1562 72.6542 74.0094 72.6754C72.8731 72.8392 71.7106 73.0068 70.5745 73.2072H70.2641C69.9459 73.2192 69.6343 73.1141 69.3885 72.9116C69.1428 72.7092 68.9801 72.4236 68.931 72.1091C68.7968 71.4804 68.6877 70.7344 68.5787 69.8039C68.5116 69.2758 68.6793 68.5716 69.8113 68.228C70.5408 68.01 71.2704 67.8004 72.0083 67.5993C72.5752 67.4206 73.1506 67.2533 73.727 67.0856C74.5571 66.8442 75.3892 66.6022 76.2008 66.3251C78.647 65.473 80.9833 64.3334 83.1605 62.9301C85.1687 61.7769 87.0084 60.3524 88.6276 58.6969C88.9162 58.3748 89.221 58.058 89.5246 57.7423C89.6003 57.6637 89.6758 57.5851 89.751 57.5066C90.7553 56.5964 91.6048 55.5291 92.2665 54.3464L92.3924 54.1536C94.0024 52.3178 94.1365 50.1802 93.8179 47.2882C93.7424 46.9026 93.7423 46.517 93.7423 46.123V45.9302C93.6799 44.4796 93.487 43.0144 93.2983 41.582C93.2842 41.4749 93.2701 41.3679 93.2561 41.2611C93.1387 40.3977 93.0212 39.5092 92.929 38.6709C92.8466 37.9545 92.7158 37.2542 92.576 36.5066L92.5685 36.4663C92.3177 35.3219 92.1661 34.158 92.1157 32.9875C92.101 32.8791 92.0756 32.7724 92.0401 32.669C91.996 32.5314 91.9597 32.3915 91.9312 32.2498C91.7551 31.3613 91.579 30.4643 91.4113 29.5674C91.0591 27.7232 90.6987 25.8791 90.313 24.0349C89.7763 21.6375 89.1894 19.2317 88.6359 16.9935C88.3868 15.9001 88.0892 14.811 87.791 13.72C87.6777 13.3055 87.5643 12.8907 87.4535 12.4753C87.2607 11.7544 87.0679 11.0335 86.8834 10.3042C86.8578 10.2166 86.8409 10.1268 86.833 10.036C86.8119 9.94767 86.7782 9.86293 86.7325 9.78446C86.6052 9.58933 86.5258 9.36683 86.501 9.13517C86.4762 8.9035 86.5066 8.66926 86.5898 8.45163C86.8897 7.91743 87.2983 7.45197 87.789 7.08526C88.0209 6.89816 88.2933 6.76808 88.5846 6.70547C88.8758 6.64287 89.1778 6.6495 89.4661 6.72481C89.7338 6.7944 89.9813 6.92639 90.1883 7.10997C90.3952 7.29355 90.5557 7.52351 90.6567 7.78103L90.8663 8.33428C91.5064 9.89452 92.0662 11.4865 92.5433 13.104C92.895 14.2065 93.1247 15.3319 93.3488 16.4293C93.3598 16.4833 93.3708 16.5373 93.3818 16.5911C93.5495 17.3959 93.7171 18.1922 93.91 18.9886C94.6266 21.9459 95.1695 24.9694 95.6946 27.8947L95.7045 27.9496L95.805 28.486C96.005 29.6295 96.1364 30.7883 96.2645 31.9186L96.283 32.0822C96.3669 32.845 96.4508 33.5994 96.5598 34.3623C96.694 35.3263 96.8617 36.4076 97.0042 37.2626C97.1468 38.1177 97.2726 38.9056 97.4067 39.8361C97.5317 40.7028 97.6056 41.5768 97.6762 42.4107C97.6813 42.472 97.6865 42.5331 97.6917 42.594L97.9684 46.45L98.1529 48.9648C98.1877 49.4202 98.2239 49.8801 98.2604 50.343C98.3119 50.9962 98.3638 51.6555 98.4129 52.3178ZM49.4666 70.2281C49.6271 70.2602 49.7776 70.3303 49.9053 70.4326C50.1292 70.5852 50.2938 70.81 50.3717 71.0694C50.4495 71.3288 50.4358 71.607 50.333 71.8576L50.1905 72.1091C49.9481 72.6078 49.6377 73.0704 49.2681 73.4838C48.8253 73.857 48.2834 74.093 47.7086 74.1628L47.6154 74.1795C46.6077 74.3597 45.4851 74.5606 44.3545 74.6825C42.2229 74.9886 40.1293 75.5167 38.1077 76.2585L37.9398 76.3088C35.3231 77.0781 32.8258 78.2065 30.5191 79.6618L28.6829 80.8941L26.6535 82.2604C26.4434 82.4073 26.247 82.5728 26.0666 82.755L25.4209 83.3669C25.3004 83.4821 25.1799 83.5972 25.0594 83.7123C24.2244 84.5095 23.3919 85.3043 22.5785 86.1248C22.412 86.317 22.2685 86.528 22.1508 86.7535L21.9328 87.1139C21.2999 88.1853 20.3426 89.0278 19.1993 89.5197C18.9345 89.6344 18.6493 89.6943 18.3608 89.6958C18.0124 89.6651 17.6769 89.5488 17.3843 89.3572C17.0917 89.1656 16.8511 88.9047 16.6838 88.5977C16.5305 88.4301 16.4129 88.2331 16.338 88.0187C16.2631 87.8043 16.2324 87.577 16.2481 87.3504C16.2638 87.1239 16.3254 86.9029 16.4291 86.7009C16.5328 86.4988 16.6765 86.3199 16.8514 86.1751C17.5132 85.4425 18.2433 84.7745 19.0316 84.18C19.7045 83.63 20.3325 83.0273 20.9099 82.3778L21.4632 81.791C23.2505 79.9381 25.2648 78.3186 27.4585 76.971C29.9519 75.41 32.6128 74.1334 35.3909 73.1653C38.4406 72.1426 41.5593 71.3386 44.7234 70.7595C45.7026 70.5806 46.6907 70.4547 47.6834 70.3823L48.9831 70.2481C49.1404 70.2029 49.3061 70.196 49.4666 70.2281ZM49.5448 71.5474L49.352 71.8744V71.8995C49.471 71.8795 49.5832 71.8305 49.6789 71.757L49.5448 71.5474Z" fill="#6E30E3"/>
<path d="M49.8557 132.338C48.1032 132.338 46.3507 132.338 44.5982 132.338C42.3929 132.296 40.1875 132.254 37.9907 132.104C35.9195 131.961 33.8485 131.693 31.7858 131.458C29.8656 131.24 27.9453 131.039 26.0419 130.746C22.8065 130.31 19.6272 129.528 16.5583 128.415C15.4869 128.019 14.4998 127.425 13.6487 126.663C13.3588 126.419 13.124 126.115 12.9595 125.774C12.795 125.432 12.7047 125.059 12.6944 124.68C12.6841 124.301 12.754 123.924 12.8997 123.574C13.0454 123.223 13.2636 122.908 13.5398 122.648C14.6828 121.643 16.0218 120.887 17.4724 120.427C20.2357 119.478 23.0827 118.794 25.975 118.381C27.9203 118.088 29.8657 117.769 31.8445 117.543C32.9765 117.4 34.1167 117.375 35.2487 117.275C35.7351 117.233 36.2214 117.141 36.7077 117.074C37.6468 116.931 37.605 116.931 37.6721 115.984C37.7811 114.391 37.9404 112.815 38.083 111.231C38.083 111.038 38.083 110.854 38.083 110.661C38.2255 108.775 38.3681 106.889 38.5274 104.994C38.5861 104.206 38.67 103.418 38.7622 102.622C38.8128 102.398 38.7968 102.165 38.7164 101.951C38.6359 101.736 38.4945 101.55 38.3094 101.415C36.188 99.8473 36.7162 96.3852 38.6615 94.8344C39.0462 94.4417 39.5116 94.1371 40.0255 93.9417C40.5395 93.7463 41.0897 93.6648 41.6382 93.7028C42.0156 93.7531 42.2084 93.5771 42.1916 93.1831V92.9567C42.2335 91.7496 42.1917 91.7664 41.0597 91.4227C39.5728 91.0091 38.1867 90.294 36.988 89.322C35.7892 88.3501 34.8034 87.142 34.0917 85.7728C33.3322 84.3656 32.8242 82.8366 32.5907 81.2546C32.5069 80.7014 32.4817 80.693 31.9702 81.0031C29.2382 82.5774 26.745 84.5335 24.5661 86.8123C24.0372 87.3579 23.4296 87.8213 22.7634 88.187C22.1196 88.6522 21.5139 89.168 20.9521 89.7294C20.6095 90.0825 20.2202 90.3871 19.7951 90.6348C19.1361 90.9973 18.3648 91.0985 17.6345 90.9184C16.9043 90.7382 16.2687 90.2898 15.8541 89.6624C15.6907 89.4523 15.5422 89.231 15.4097 89.0002C15.3023 88.7753 15.1317 88.5866 14.9188 88.457C14.7058 88.3275 14.4598 88.2628 14.2107 88.2709C13.8541 88.2494 13.5071 88.1469 13.1961 87.9711C12.8852 87.7954 12.6184 87.551 12.4162 87.2566C11.0997 85.8399 10.5883 84.046 9.95939 82.3108C9.43113 80.8942 9.04535 79.4188 8.63448 77.9603C8.22361 76.5017 7.88816 75.194 7.54438 73.769C7.26767 72.5954 7.02457 71.4135 6.77301 70.2231L5.096 62.3435C4.58451 59.9041 4.05617 57.4648 3.55307 55.0255C3.19251 53.2903 2.75652 51.5551 2.53851 49.7947C2.32049 48.0344 1.7 46.1902 1.7 44.3125C1.66559 43.8208 1.58985 43.3329 1.47358 42.8539C1.24719 41.4373 0.970463 40.029 0.827917 38.604C0.64944 37.1715 0.88213 35.7179 1.49876 34.4127C1.67622 34.0796 1.90552 33.7768 2.178 33.5157C2.83396 32.9341 3.36716 32.2273 3.74611 31.4368C3.92487 31.0582 4.15005 30.7034 4.41676 30.3806C5.06241 29.5424 5.683 28.7041 6.40412 27.9077C7.5361 26.6923 8.72675 25.5187 9.92581 24.3703C10.6374 23.6839 11.3937 23.0454 12.1897 22.4591C15.2309 20.2415 18.5893 18.4951 22.1513 17.2786C25.031 16.216 28.0207 15.4793 31.0646 15.0824C32.1882 14.9483 33.2866 14.6633 34.4186 14.4621C34.645 14.4202 34.8798 14.4621 35.1062 14.4201L39.2988 13.9926H39.5336C41.1184 13.9172 42.7115 13.8669 44.2963 13.7495C45.6211 13.649 46.9291 13.4645 48.2456 13.3304C49.2266 13.2382 50.2161 13.2214 51.1804 13.0622C53.1331 12.8285 55.0706 12.4815 56.983 12.0227C58.66 11.5449 60.3789 11.2683 62.014 10.7821C64.4186 10.1195 66.7458 9.20349 68.9567 8.04936C69.5604 7.72244 70.1895 7.43745 70.7932 7.1273C72.6223 6.27749 74.2903 5.11754 75.7235 3.69882C75.945 3.49227 76.1899 3.31221 76.4531 3.16232C76.5789 3.07849 76.7801 3.05333 76.8472 2.94436C77.6354 1.61991 79.2033 1.39359 80.2934 0.496655C80.8294 0.102733 81.498 -0.0668429 82.1571 0.0239315C82.8162 0.114706 83.4141 0.458673 83.8236 0.982835C84.3823 1.78327 84.881 2.62381 85.316 3.49762C85.7772 4.44485 86.1547 5.434 86.532 6.43153C86.6913 6.85904 86.884 6.85905 87.1943 6.65787C87.3623 6.56639 87.5198 6.45675 87.6639 6.33094C88.7036 5.21605 90.5401 5.71062 91.3786 6.80036C91.8229 7.41319 92.1969 8.07398 92.4937 8.77028C93.458 10.9246 93.9444 13.2382 94.7159 15.4764C94.8762 16.1372 95.0021 16.8059 95.0931 17.4798C95.6549 19.9946 96.2754 22.5597 96.7702 25.1164C97.1643 27.0779 97.4409 29.0646 97.7511 31.0429C98.1285 33.4319 98.5059 35.8209 98.858 38.21C98.9838 39.1069 99.0342 40.0122 99.1264 40.9176C99.2019 41.5965 99.2772 42.2671 99.361 42.9461C99.4952 44.0275 99.6377 45.1172 99.7719 46.1986C99.7801 46.313 99.7801 46.4279 99.7719 46.5423C99.8557 49.8031 100.024 53.0723 99.9733 56.3415C99.9417 58.2627 99.1907 60.1022 97.8687 61.4968C96.9128 62.5195 95.9902 63.5841 95.0008 64.5816C92.9604 66.5626 90.6584 68.2548 88.1587 69.6112C86.2518 70.7086 84.2441 71.6209 82.1632 72.3355C80.3772 72.9391 78.5243 73.3666 76.6963 73.8444C74.836 74.3658 72.9238 74.6807 70.9944 74.7833C69.9882 74.8252 69.812 75.0348 69.854 76.049C70.0636 80.7852 67.9925 84.549 64.8229 87.8601C63.7326 89.0911 62.3519 90.0304 60.8064 90.5928C60.7035 90.6145 60.606 90.6567 60.5198 90.717C60.4336 90.7773 60.3605 90.8544 60.3049 90.9437C60.2493 91.0329 60.2123 91.1325 60.1962 91.2365C60.1801 91.3404 60.1851 91.4465 60.2111 91.5485C60.2153 91.6238 60.2153 91.6994 60.2111 91.7748C60.2111 92.3783 60.0853 93.0993 60.3704 93.5435C60.6555 93.9878 61.3934 93.9124 61.8714 94.189C62.7837 94.6283 63.6303 95.1926 64.3869 95.8655C64.8794 96.4002 65.1997 97.0707 65.3058 97.7898C65.412 98.5089 65.2992 99.2434 64.9822 99.8976C64.6676 100.806 64.0563 101.583 63.2466 102.102C63.0346 102.229 62.8693 102.42 62.7756 102.648C62.6818 102.877 62.6646 103.129 62.7266 103.368C62.8692 105.044 63.0285 106.721 63.1627 108.347C63.3304 110.535 63.473 112.731 63.6323 114.919C63.6826 115.523 63.7916 116.118 63.8335 116.721C63.8335 117.124 64.0599 117.233 64.4204 117.258C66.1562 117.4 67.8918 117.526 69.6275 117.727C72.5686 118.015 75.4875 118.497 78.3649 119.169C80.1594 119.622 81.9453 120.133 83.7061 120.728C84.8679 121.114 85.9202 121.772 86.775 122.648C87.7309 123.62 88.058 124.702 86.8254 126.169C85.8018 127.254 84.5129 128.055 83.0856 128.491C80.5511 129.41 77.9341 130.083 75.2707 130.502C72.8899 130.961 70.4853 131.286 68.068 131.475C65.955 131.609 63.8755 131.894 61.7457 132.12H61.5192L49.7801 132.447L49.8557 132.338ZM92.368 48.3362C92.259 47.0117 92.1582 45.6873 92.0409 44.3712C91.9738 43.5832 91.8901 42.7869 91.7811 42.0073C91.6082 41.1567 91.4792 40.2977 91.3952 39.4338C91.229 37.5133 90.949 35.6043 90.5567 33.7169C90.3554 32.3757 90.0621 31.0429 89.8105 29.71C89.3577 27.3294 88.9719 24.9487 88.452 22.5848C88.0076 20.4389 87.5045 18.3097 87.0098 16.1721C86.7834 15.183 86.5068 14.1938 86.2468 13.213C85.9114 11.9724 85.5844 10.6983 85.2155 9.49956C84.6032 7.14529 83.7607 4.85699 82.7 2.66775C82.1214 1.57801 81.3835 1.30975 80.4276 2.34081C79.9497 2.84377 79.6646 3.47248 79.2202 3.95867C78.3786 4.86943 77.4644 5.71044 76.4867 6.47345C74.3214 8.19193 71.9283 9.60243 69.376 10.6648C66.9778 11.7042 64.4625 12.4838 61.9972 13.3472C61.2055 13.6112 60.3991 13.8295 59.5822 14.001C57.9052 14.3615 56.2282 14.7303 54.5512 15.0153C53.1341 15.2417 51.692 15.2919 50.2749 15.5267C48.6728 15.8155 47.0478 15.9586 45.4199 15.9542C44.8151 15.9486 44.2103 15.9766 43.6086 16.038C41.5375 16.2308 39.4749 16.4403 37.4037 16.6164C36.2298 16.7254 35.0476 16.7002 33.8904 16.8846C31.2745 17.2629 28.6822 17.7891 26.1258 18.4606C25.6898 18.5863 25.2873 18.7623 24.8429 18.9048C23.8702 19.2066 22.864 19.4162 21.9249 19.8102C19.701 20.68 17.555 21.7373 15.5102 22.9704C13.8707 23.9284 12.3338 25.0519 10.9236 26.3234C8.69702 28.3539 6.67755 30.6003 4.89476 33.0295C3.88855 34.463 3.09207 35.9215 3.31847 37.7489C3.40232 38.4195 3.44426 39.1069 3.54488 39.7775C3.91382 42.351 4.27428 44.9328 4.69353 47.5063C5.03452 49.6299 5.41474 51.7479 5.83399 53.8603C6.1107 55.2602 6.36225 56.6685 6.6725 58.0516C7.15883 59.9964 7.40189 61.9914 7.82115 63.9194C8.11463 65.2858 8.42492 66.6521 8.71002 68.0101C9.47306 71.6398 10.2529 75.2527 11.2255 78.8404C11.6783 80.5589 12.3324 82.1935 12.9445 83.87C13.1697 84.467 13.4741 85.0309 13.85 85.5465C14.4453 86.3848 14.6885 86.3848 15.527 85.8735C16.3245 85.2962 17 84.5669 17.5144 83.7275C18.2271 82.8389 18.8728 81.9001 19.661 81.0786C21.1665 79.4736 22.82 78.0142 24.5997 76.7196C26.1618 75.5909 27.8073 74.5821 29.5218 73.7019C32.7083 72.078 36.0899 70.8694 39.5839 70.1058C40.7662 69.8459 41.9401 69.5274 43.1224 69.2675C44.1286 69.0831 45.1431 68.9909 46.1577 68.8652C47.1723 68.7394 48.4049 68.555 49.5117 68.4712C51.0127 68.3538 52.5136 68.3454 53.7043 67.1802C54.2008 66.827 54.7536 66.5605 55.3393 66.3923C55.7594 66.2155 56.1908 66.0671 56.6307 65.948C56.7954 65.9116 56.9438 65.8221 57.0528 65.6935C57.1618 65.5648 57.2255 65.4039 57.2344 65.2355C57.8086 61.6776 59.5841 58.4235 62.2654 56.0146C63.2007 55.1714 64.3122 54.5472 65.5189 54.1872C67.372 53.6507 68.6969 54.1872 69.4767 55.7296C69.8825 56.5581 69.9691 57.507 69.7199 58.3953C69.4935 59.3174 69.2754 60.2394 69.0238 61.1531C68.6732 62.8279 68.5688 64.5449 68.7137 66.2498C68.7137 66.5935 68.8394 66.8282 69.2838 66.7024C70.3068 66.4258 71.3549 66.2246 72.3695 65.9145C73.8117 65.4786 75.2457 64.9756 76.6795 64.481C79.896 63.3111 82.9221 61.6728 85.6599 59.6191C87.6436 58.161 89.4626 56.4914 91.0851 54.6399C91.2974 54.3969 91.4548 54.111 91.5463 53.8016C92.1086 52.0349 92.3859 50.19 92.368 48.3362ZM49.4196 130.259V130.335C51.0966 130.243 52.8238 130.125 54.5344 130.058C56.9577 129.958 59.3895 129.89 61.8212 129.807C62.4836 129.807 62.559 129.731 62.5254 129.077C62.4667 127.828 62.3744 126.563 62.2738 125.33C62.148 123.821 61.9133 122.321 61.8797 120.812C61.8294 117.887 61.6449 114.944 61.4269 112.069C61.2424 109.605 61.2426 107.132 61.1587 104.667C61.1587 104.399 61.1587 104.131 61.1587 103.829C61.1587 103.318 61.0246 103.259 60.5215 103.376C59.9376 103.532 59.3435 103.647 58.7437 103.72C58.6031 103.713 58.4665 103.672 58.3464 103.598C58.2262 103.525 58.1263 103.423 58.0561 103.301C58.0472 103.158 58.0723 103.016 58.1292 102.884C58.186 102.753 58.273 102.637 58.3832 102.546C58.842 102.214 59.324 101.914 59.8254 101.649C60.8802 101.119 61.8427 100.423 62.6763 99.5874C62.9527 99.3458 63.1378 99.0166 63.2004 98.655C63.2629 98.2933 63.1994 97.9211 63.0202 97.6007C62.4563 96.6851 61.5811 96.0036 60.555 95.6811C60.4796 95.6811 60.2363 95.832 60.1943 95.9577C60.1524 96.0835 60.2782 96.2595 60.3788 96.3685C60.4794 96.4774 60.5969 96.3685 60.7059 96.3685C60.7833 96.3651 60.8606 96.3773 60.9331 96.4043C61.0057 96.4314 61.0721 96.4726 61.1284 96.5258C61.1847 96.5789 61.2298 96.6429 61.2609 96.7138C61.292 96.7846 61.3086 96.8611 61.3096 96.9385C61.3036 97.0636 61.2696 97.1858 61.2101 97.296C61.1506 97.4062 61.0672 97.5018 60.9659 97.5756C60.1227 98.0866 59.2325 98.516 58.3077 98.8581C56.0503 99.5162 53.7223 99.9018 51.3732 100.007C49.0213 100.179 46.6569 100.027 44.3466 99.5538C43.1431 99.3506 41.9984 98.8872 40.9926 98.1959C40.7916 98.0524 40.6212 97.8703 40.4916 97.6601C40.362 97.45 40.2757 97.216 40.2378 96.972C40.2305 96.8641 40.2479 96.756 40.2886 96.6557C40.3292 96.5555 40.3921 96.4659 40.4726 96.3936C40.5687 96.3498 40.6731 96.3272 40.7787 96.3272C40.8843 96.3272 40.9886 96.3498 41.0847 96.3936C41.3614 96.5026 41.5963 96.7205 41.8647 96.8463C41.9234 96.8463 42.158 96.754 42.158 96.7121C42.158 96.117 42.091 95.5302 42.0491 94.935C41.5089 95.0979 40.9841 95.3083 40.481 95.5637C38.4267 96.8546 38.4602 99.5622 40.481 100.459C40.9589 100.677 41.4119 100.97 41.8814 101.222C42.2169 101.398 42.569 101.549 42.8876 101.75C43.2062 101.951 43.4662 102.194 43.3237 102.588C43.1811 102.982 42.7534 103.058 42.3676 102.999C41.9819 102.94 41.6969 102.84 41.3699 102.764C40.4475 102.538 40.4476 102.546 40.4224 103.477C40.4266 103.555 40.4266 103.633 40.4224 103.712L40.1709 112.824C40.1709 112.941 40.1709 113.05 40.1709 113.167C40.0283 114.844 39.8606 116.478 39.7516 118.138C39.6426 119.798 39.5755 121.399 39.4916 123.025C39.4916 123.142 39.4916 123.251 39.4916 123.369C39.3575 125.255 39.1982 127.141 39.0975 129.035C39.0975 129.874 39.1981 129.924 40.0366 129.949L49.4196 130.259ZM48.9416 98.0953C50.6186 97.9863 52.2202 97.9695 53.763 97.7767C55.1466 97.6007 56.5049 97.2402 57.88 96.9385C58.2741 96.8546 58.4 96.687 58.3497 96.226C58.3035 95.3604 58.3035 94.493 58.3497 93.6274C58.3497 93.0657 58.4 92.4957 58.4252 91.9508C58.4252 91.5485 58.2154 91.4227 57.8549 91.4311C57.361 91.4731 56.8647 91.4731 56.3709 91.4311C55.9299 91.3643 55.5089 91.2012 55.1381 90.9533C55.0181 90.8717 54.925 90.7564 54.8701 90.6221C54.8153 90.4877 54.8012 90.3401 54.8298 90.1979C54.8584 90.0556 54.9285 89.9249 55.031 89.8222C55.1336 89.7195 55.2642 89.6493 55.4065 89.6205C55.8071 89.5058 56.2166 89.4245 56.6307 89.3774C58.383 89.2363 60.0628 88.6156 61.4857 87.5835C62.4224 86.8701 63.2925 86.0733 64.0851 85.2028C65.4851 83.598 66.5359 81.7197 67.1708 79.6871C67.85 77.516 67.6571 75.303 67.5313 73.1151C67.4223 71.1285 66.9361 69.1585 66.6342 67.1802C66.2658 65.0431 66.3314 62.8537 66.8271 60.7424C67.0535 59.8539 67.3552 58.9904 67.5313 58.1019C67.7409 57.0122 67.5314 56.1152 65.9298 56.6014C65.0345 56.9258 64.2234 57.4472 63.5568 58.127C61.3441 60.2042 59.8717 62.9479 59.3642 65.9396C59.3217 66.3979 59.1372 66.8314 58.8367 67.18C58.5361 67.5286 58.1343 67.7748 57.6872 67.8844C55.6205 68.4644 53.7749 69.6497 52.388 71.2877C51.0697 72.6609 50.063 74.3021 49.4364 76.0993C48.9629 77.5829 48.7473 79.1366 48.7991 80.693C48.8453 81.2257 48.8453 81.7614 48.7991 82.2941C48.766 82.4117 48.7075 82.5207 48.6278 82.6133C48.5481 82.706 48.4493 82.7802 48.3379 82.8306C48.2121 82.8725 47.8934 82.6797 47.8096 82.5204C47.5318 82.0281 47.3391 81.4925 47.2394 80.9361C47.0089 79.9423 46.9917 78.9109 47.1891 77.91C47.2791 77.5037 47.3435 77.0921 47.3819 76.6777C47.4574 76.2586 47.2646 76.1245 46.8873 76.1329C46.7731 76.12 46.6576 76.12 46.5434 76.1329C44.7741 76.5017 42.9883 76.8454 41.2274 77.2477C38.9893 77.8459 36.8 78.6138 34.6786 79.5446C34.6049 79.5595 34.5355 79.5907 34.4755 79.636C34.4155 79.6813 34.3664 79.7394 34.3318 79.8062C34.2972 79.8729 34.2779 79.9466 34.2755 80.0217C34.2731 80.0968 34.2878 80.1716 34.3181 80.2403C34.5867 81.4237 34.9714 82.5777 35.4667 83.6856C36.0287 85.0599 36.9122 86.2795 38.0429 87.2421C39.1735 88.2047 40.5185 88.8823 41.9652 89.2181C43.0972 89.5031 44.2712 89.6037 45.4283 89.8049C45.7635 89.8574 46.0904 89.9533 46.4009 90.0899C46.5542 90.1599 46.6755 90.2849 46.7407 90.4402C46.806 90.5956 46.8104 90.7698 46.753 90.9282C46.7082 91.0415 46.6393 91.1437 46.551 91.2277C46.4626 91.3116 46.3571 91.3753 46.2416 91.4143C45.649 91.5236 45.0493 91.5909 44.4471 91.6155C44.053 91.6155 43.8687 91.6658 43.9357 92.2107C44.1202 93.5938 44.1621 95.0021 44.2627 96.402C44.2627 96.5864 44.2627 96.7792 44.2627 96.972C44.2627 97.5923 44.3969 97.7013 45.0007 97.7516C46.3674 97.9109 47.7342 98.0031 48.9416 98.0953ZM97.7008 53.7345C97.7008 53.6591 97.7008 53.592 97.7008 53.5166L97.3487 48.99C97.1978 46.8776 97.044 44.7652 96.8875 42.6527C96.812 41.7474 96.7367 40.8421 96.6109 39.9452C96.3426 38.1178 96.0155 36.2987 95.7724 34.4629C95.5292 32.6272 95.3698 30.5567 95.0176 28.5951C94.4558 25.4349 93.894 22.2747 93.1394 19.1479C92.6614 17.2032 92.3595 15.2081 91.8144 13.2801C91.3113 11.4946 90.607 9.7678 89.9362 8.03261C89.8732 7.89168 89.7781 7.76745 89.6584 7.66988C89.5387 7.57231 89.3979 7.50411 89.2471 7.4707C89.0964 7.4373 88.9399 7.43964 88.7902 7.47753C88.6405 7.51543 88.5018 7.58781 88.3851 7.68892C87.9847 7.9763 87.6525 8.34839 87.4123 8.77867C87.3033 8.98823 87.5968 9.39059 87.6974 9.70913C87.7251 9.81932 87.7448 9.93138 87.7562 10.0444C88.3432 12.2742 88.9551 14.504 89.5169 16.7505C90.0787 18.997 90.6657 21.4531 91.194 23.8254C91.7809 26.5582 92.2842 29.3076 92.8208 32.0488C92.9156 32.3351 92.983 32.6298 93.022 32.9289C93.022 34.8318 93.6258 36.6592 93.8606 38.5369C94.1205 40.9762 94.5733 43.3904 94.6991 45.8549C94.6991 46.2992 94.6989 46.7518 94.7828 47.1961C95.0679 49.8786 95.1015 52.5023 93.1477 54.6986C92.2673 56.5176 90.6993 57.7833 89.3996 59.2503C87.7278 60.9625 85.8291 62.4376 83.7565 63.6344C81.5222 65.0721 79.1238 66.2372 76.6124 67.1048C74.4994 67.8257 72.3361 68.3873 70.1979 69.0244C69.8709 69.125 69.5019 69.2507 69.5522 69.7034C69.6445 70.4495 69.745 71.1955 69.8959 71.9416C69.9546 72.2601 70.1811 72.4194 70.5752 72.3439C71.9168 72.1176 73.2584 71.9248 74.6001 71.732C76.9916 71.3365 79.3471 70.7478 81.6434 69.9717C83.958 69.2685 86.1771 68.2831 88.2508 67.0377C89.8025 66.168 91.2804 65.1727 92.6697 64.0619C93.5586 63.2991 94.6403 62.7626 95.2524 61.698C95.3195 61.5807 95.4871 61.5136 95.6129 61.4298C96.306 60.9518 96.794 60.2306 96.9798 59.4096C97.4546 57.5551 97.6967 55.6488 97.7008 53.7345ZM49.2602 71.0865C47.6586 71.271 46.2499 71.338 44.8832 71.6062C41.7573 72.1821 38.6753 72.9748 35.6596 73.9785C32.9413 74.931 30.3372 76.182 27.895 77.7088C25.7477 79.0157 23.7753 80.5902 22.0254 82.3947C21.2542 83.2976 20.4131 84.1384 19.5099 84.9094C18.7629 85.4762 18.0697 86.1103 17.4388 86.8039C16.9525 87.3572 16.9274 87.5919 17.3467 88.1954C17.7659 88.799 18.227 89.0337 18.8642 88.8074C19.8484 88.3822 20.6711 87.6538 21.2121 86.7285C21.4243 86.3265 21.6773 85.9473 21.9669 85.5968C23.1156 84.4484 24.2979 83.3335 25.4718 82.2438C25.6862 82.0307 25.9191 81.8372 26.1678 81.6654C27.4507 80.8271 28.7503 79.9386 30.0332 79.0668C32.4019 77.555 34.9703 76.3813 37.6637 75.5796C39.7937 74.7939 41.9995 74.232 44.2459 73.9031C45.3359 73.7858 46.4177 73.6013 47.491 73.4001C47.9024 73.3547 48.2936 73.1983 48.6229 72.9475C48.9991 72.5216 49.3178 72.0481 49.5705 71.5392C49.5705 71.4721 49.4531 71.2626 49.3357 71.1704C49.2183 71.0782 49.1511 71.0781 49.2602 71.0865Z" fill="black"/>
<path d="M29.1612 65.8055C29.1949 66.0699 29.1949 66.3374 29.1612 66.6018C29.0857 66.87 28.9432 67.2808 28.7671 67.3227C28.4061 67.3889 28.0334 67.3297 27.7106 67.1551C27.4673 66.9755 27.2928 66.7182 27.216 66.4258C26.9316 65.7194 26.6879 64.9974 26.4864 64.2631C25.9581 62.1423 25.4885 59.9963 24.9603 57.8671C24.3565 55.453 23.6857 53.0471 23.082 50.6246C22.4783 48.202 21.9502 45.7711 21.3381 43.3569C20.835 41.3367 20.2311 39.3416 19.728 37.3214C19.3339 35.7119 19.0069 34.0857 18.6715 32.4511C18.6297 32.1115 18.6297 31.768 18.6715 31.4284C18.6715 31.1434 18.5793 30.7997 18.965 30.6488C19.1659 30.5832 19.3826 30.5835 19.5833 30.6499C19.7839 30.7163 19.9582 30.8452 20.0803 31.0177C20.16 31.1457 20.222 31.2838 20.2647 31.4284C20.9272 33.5492 21.623 35.67 22.2519 37.816C22.6292 39.1153 22.8977 40.4565 23.2499 41.7641C23.6021 43.0718 24.0296 44.5304 24.4153 45.9135C24.7088 46.9698 24.9855 48.026 25.2538 49.0822C25.7737 51.0186 26.3607 52.9382 26.78 54.8829C27.3334 57.3977 28.1969 59.9125 28.5323 62.4943C28.6078 63.0895 28.8594 63.6511 28.9935 64.2379C29.1277 64.8247 29.1697 65.2774 29.2619 65.7971L29.1612 65.8055Z" fill="black"/>
<path d="M53.0337 59.4011C52.933 60.0717 52.8241 60.7423 52.7403 61.4129C52.69 61.7901 52.5726 62.0752 52.1534 62.1422C51.9418 62.1713 51.7267 62.124 51.5468 62.0088C51.367 61.8935 51.2341 61.7179 51.1722 61.5135C50.9666 60.8633 50.807 60.1994 50.6944 59.5268C50.4261 57.7414 50.2247 55.9391 49.9564 54.1452C49.8558 53.4327 49.6461 52.7369 49.512 52.0328C49.1262 49.9958 48.7826 47.9505 48.3801 45.9135C47.9776 43.8765 47.4661 41.7222 47.0636 39.5847C46.6276 37.2878 46.2251 34.9742 45.8478 32.669C45.7136 31.9313 45.5207 31.1937 45.3866 30.4476C45.0791 28.7711 44.7996 27.0946 44.5481 25.418C44.4737 25.0034 44.488 24.5778 44.59 24.169C44.6418 24.0331 44.725 23.9114 44.8328 23.8138C44.9407 23.7162 45.0701 23.6455 45.2105 23.6074C45.3525 23.624 45.4878 23.6766 45.6038 23.7602C45.7197 23.8438 45.8125 23.9557 45.873 24.0852C46.3191 25.331 46.7024 26.5984 47.0216 27.8825C47.6253 30.4979 48.162 33.1217 48.6986 35.7538C48.9166 36.7849 49.0843 37.8243 49.2939 38.8637C49.9731 42.1497 50.7112 45.4357 51.3401 48.7384C51.9354 51.8484 52.43 54.9835 52.9415 58.1186C52.9751 58.5342 52.9751 58.9519 52.9415 59.3676L53.0337 59.4011Z" fill="black"/>
<path d="M36.0288 27.0778C36.0078 26.6981 36.0078 26.3175 36.0288 25.9378C36.0533 25.6781 36.1457 25.4294 36.297 25.2169C36.3647 25.0999 36.4669 25.0065 36.5893 24.9491C36.7118 24.8918 36.8487 24.8733 36.9819 24.8961C37.1152 24.9189 37.2385 24.9819 37.3349 25.0768C37.4313 25.1716 37.4962 25.2936 37.5212 25.4265C37.6589 25.8192 37.7628 26.2231 37.8315 26.6336C38.3262 29.3076 38.8042 31.9817 39.3157 34.6473C39.8859 37.6148 40.4476 40.5738 41.0848 43.5245C41.5208 45.5196 42.091 47.4727 42.5606 49.451C42.8373 50.591 43.0135 51.7478 43.2734 52.8879C43.743 54.9919 44.288 57.0792 44.7324 59.1832C44.8604 60.0155 44.9276 60.8559 44.9336 61.698C44.9336 62.2261 44.5815 62.4524 44.1623 62.5362C43.743 62.6201 43.5082 62.2596 43.3238 61.9075C42.5247 60.2267 41.9605 58.4441 41.6468 56.6097C41.5797 56.0984 41.3701 55.6206 41.2611 55.1093C40.498 51.488 39.5839 47.9002 38.7957 44.2873C38.3848 42.4431 38.1165 40.5738 37.7644 38.7213C37.496 37.2711 37.1774 35.8377 36.9259 34.3875C36.6408 32.7109 36.406 30.9506 36.1545 29.2405C36.0455 28.528 35.9532 27.8155 35.8525 27.1114L36.0288 27.0778Z" fill="black"/>
<path d="M80.8466 53.3489C80.8466 53.8435 80.8466 54.3381 80.8466 54.8326C80.8522 55.0241 80.792 55.2117 80.6761 55.3643C80.5601 55.5168 80.3954 55.625 80.2093 55.6709C79.8877 55.6458 79.5878 55.4989 79.3708 55.2601C79.1784 55.0185 79.0564 54.7284 79.0185 54.4219C78.6244 52.5777 78.2556 50.7252 77.895 48.8726C77.5596 47.1961 77.2327 45.4609 76.914 43.7592C76.5954 42.0575 76.3438 40.4062 76.0755 38.7297C75.8072 37.0531 75.3879 35.3766 75.1447 33.7001C74.8093 31.42 74.1468 29.207 73.9874 26.8934C73.8868 25.4348 73.4677 24.0014 73.2413 22.5428C73.0819 21.5034 72.9982 20.4472 72.8808 19.3994C72.8682 19.2459 72.8682 19.0918 72.8808 18.9383C72.9227 18.5695 72.9394 18.1001 73.4089 18.0498C73.6375 18.0466 73.8607 18.1187 74.0442 18.2551C74.2276 18.3915 74.3608 18.5845 74.4235 18.8042C74.6834 19.7514 74.9686 20.6987 75.1615 21.6627C75.5723 23.6577 75.9328 25.6612 76.3101 27.6646C76.7042 29.819 76.9727 32.0068 77.5177 34.1192C78.1382 36.5753 78.4401 39.0817 79.0019 41.5462C79.5637 44.0107 79.9493 46.3578 80.3686 48.772C80.6201 50.2641 80.7794 51.7646 80.9891 53.2651L80.8466 53.3489Z" fill="black"/>
<path d="M78.7002 17.3959C78.7064 16.7588 78.6389 16.123 78.4989 15.5014C78.3908 14.9859 78.4344 14.4502 78.6246 13.959C78.6716 13.8433 78.747 13.7412 78.8437 13.6621C78.9403 13.583 79.0554 13.5295 79.1782 13.5063C79.3 13.5144 79.4179 13.5523 79.5217 13.6166C79.6255 13.6809 79.712 13.7697 79.7735 13.8752C80.0641 14.4504 80.2648 15.0666 80.3688 15.7026C80.5532 17.7396 81.2074 19.6927 81.5176 21.7045C81.8866 23.9343 82.2806 26.1725 82.6915 28.4106C83.1778 31.0092 83.7145 33.5994 84.2008 36.1981C84.5614 38.168 84.8716 40.1463 85.207 42.1246C85.3076 42.6778 85.4167 43.2311 85.5089 43.8011C85.7689 45.4022 86.0539 47.0032 86.2635 48.6127C86.3001 49.1415 86.2405 49.6727 86.0875 50.1802C85.9759 50.5078 85.7757 50.798 85.5089 51.0185C85.4503 51.097 85.3711 51.158 85.2803 51.1948C85.1894 51.2317 85.0902 51.2429 84.9935 51.2274C84.8967 51.2118 84.8062 51.1701 84.7314 51.1066C84.6567 51.0432 84.6008 50.9606 84.5697 50.8676C84.3495 50.4691 84.1911 50.0395 84.1001 49.5935C83.7479 47.6152 83.4713 45.6369 83.1275 43.667C82.8173 41.915 82.44 40.1798 82.1213 38.4362C81.7524 36.4328 81.4338 34.4126 81.0816 32.4091C80.8217 30.917 80.5448 29.4333 80.2932 27.9412C80.0836 26.6754 79.9076 25.4264 79.7063 24.1439C79.6589 23.8829 79.5945 23.6253 79.5135 23.3727C79.4109 23.1279 79.3377 22.8719 79.2955 22.6099C79.2238 21.0216 78.9991 19.444 78.6246 17.8988C78.6078 17.7512 78.6078 17.6022 78.6246 17.4545L78.7002 17.3959Z" fill="black"/>
<path d="M62.7683 35.2257C61.7255 35.2165 60.7017 34.9471 59.7895 34.4421C58.8772 33.9371 58.1055 33.2123 57.5444 32.3337C56.8403 31.298 56.421 30.0954 56.3286 28.8466C56.1379 27.0244 56.6508 25.1981 57.7624 23.7415C58.4286 22.8546 59.337 22.1792 60.3784 21.7968C60.4452 21.7606 60.5206 21.7432 60.5965 21.7465C61.9297 22.0399 63.2797 21.5872 64.6297 21.9057C65.344 22.1463 66.0068 22.5188 66.5835 23.0039C67.2639 23.4642 67.8431 24.0584 68.2857 24.7503C68.7283 25.4421 69.0251 26.217 69.1578 27.0275C69.4507 28.3316 69.3559 29.6929 68.8851 30.9439C68.4144 32.1949 67.5881 33.2811 66.508 34.0689C65.4485 34.9056 64.1153 35.318 62.7683 35.2257ZM66.8937 28.4022C66.8508 27.7941 66.7296 27.194 66.5332 26.6168C66.1899 25.8299 65.6678 25.1338 65.0085 24.5838C64.3491 24.0337 63.5706 23.6449 62.7347 23.4482C62.596 23.4015 62.4458 23.4015 62.307 23.4482C61.7452 23.7583 61.2002 24.102 60.63 24.4038C58.2571 25.6695 58.0223 29.0142 59.3974 30.9506C59.9406 31.8124 60.7917 32.435 61.7777 32.692C62.7636 32.9489 63.8104 32.8208 64.7053 32.3337C65.4009 31.9381 65.9744 31.3591 66.3632 30.6599C66.7521 29.9607 66.9414 29.1682 66.9104 28.3687L66.8937 28.4022Z" fill="black"/>
<path d="M20.9358 60.1807C20.9527 60.2919 20.9527 60.4049 20.9358 60.5161C20.8017 60.9017 20.7261 61.3543 20.2062 61.4298C19.6863 61.5052 19.527 61.1196 19.3677 60.7675C19.1078 60.1891 18.8813 59.5856 18.6549 58.9904C18.4179 58.4422 18.208 57.8827 18.026 57.3139C17.4139 55.1763 16.8103 53.0304 16.2485 50.8761C15.6867 48.7217 15.1417 46.4081 14.5715 44.17C14.1438 42.4935 13.6574 40.9008 13.2214 39.2578C12.8944 38.0591 12.6178 36.8436 12.3159 35.6365C12.3119 35.5975 12.3119 35.5581 12.3159 35.5191C12.2572 34.9994 12.4835 34.3875 12.8021 34.3539C13.2633 34.2953 13.5318 34.5887 13.7917 34.9575C14.3432 35.9062 14.7501 36.9317 14.9991 38.0004C15.9382 40.8002 16.76 43.6335 17.565 46.4752C18.4706 49.7109 19.3397 52.9577 20.1726 56.2158C20.4494 57.5067 20.6675 58.8479 20.9358 60.1807Z" fill="black"/>
<path d="M67.3637 37.8327C67.3342 37.6438 67.3342 37.4515 67.3637 37.2626C67.4476 37.0279 67.5733 36.6926 67.7494 36.6423C68.0379 36.5859 68.3372 36.6397 68.5879 36.7932C68.7741 36.9764 68.9098 37.2045 68.982 37.4555C69.586 38.7647 69.9741 40.1632 70.1308 41.5965C70.2433 42.2295 70.3889 42.8563 70.5669 43.4742C70.919 45.0585 71.2796 46.6428 71.5898 48.2355C72.0259 50.4988 72.4283 52.7621 72.814 55.0422C72.8561 55.6838 72.7852 56.3279 72.6044 56.945C72.5899 57.0692 72.5403 57.1868 72.4617 57.2842C72.3831 57.3815 72.2786 57.4545 72.1602 57.4949C72.0417 57.5352 71.9142 57.5412 71.7925 57.5121C71.6708 57.4831 71.5597 57.4201 71.4723 57.3306C71.154 57.0688 70.9255 56.7142 70.8185 56.3163C70.4579 54.6985 70.1727 53.0555 69.8625 51.4292L69.3343 48.7552C68.915 46.6428 68.4036 44.5639 68.1017 42.4179C67.9467 41.142 67.7142 39.8767 67.4057 38.629C67.3605 38.3661 67.3408 38.0994 67.3469 37.8327H67.3637Z" fill="black"/>
<path d="M32.9681 38.738C32.9681 40.0541 33.0521 40.993 33.0521 41.9318C33.0521 42.6946 32.9179 42.879 32.4232 42.9545C32.293 42.9809 32.1586 42.9797 32.0289 42.951C31.8992 42.9222 31.7772 42.8664 31.6705 42.7874C31.5637 42.7083 31.4748 42.6078 31.4094 42.4921C31.3441 42.3765 31.3037 42.2484 31.2911 42.1162C31.1653 41.563 31.115 41.0013 31.0311 40.4397C30.637 37.9249 30.0417 35.4102 29.8069 32.8954C29.5877 31.5552 29.4477 30.2033 29.3877 28.8466C29.3962 28.693 29.3962 28.5391 29.3877 28.3855C29.3877 27.9412 29.4632 27.5473 30.0082 27.4634C30.2536 27.4059 30.5116 27.4441 30.7298 27.5702C30.948 27.6964 31.1099 27.9011 31.1822 28.1424C31.3835 28.8633 31.5426 29.6094 31.6768 30.3471C31.8948 31.6128 32.0793 32.8618 32.2721 34.1444C32.5321 35.7622 32.7753 37.4304 32.9681 38.738Z" fill="black"/>
<path d="M66.7598 50.4233C66.6179 50.8036 66.4231 51.1619 66.1813 51.4879C66.0709 51.5766 65.9396 51.636 65.8001 51.6604C65.6605 51.6848 65.5171 51.6734 65.3831 51.6274C65.2491 51.5813 65.1291 51.5021 65.0341 51.3971C64.939 51.2921 64.8721 51.1647 64.8396 51.0269C64.5042 49.7918 64.2022 48.5512 63.9339 47.305C63.4644 45.1674 63.0117 43.0215 62.6008 40.8755C62.5403 40.3183 62.5403 39.7562 62.6008 39.199C62.584 38.9547 62.6616 38.7133 62.8176 38.5246C62.9736 38.3359 63.1962 38.2142 63.4393 38.1847C63.5622 38.1581 63.6892 38.1577 63.8123 38.1834C63.9354 38.209 64.0518 38.2603 64.1538 38.3338C64.2558 38.4073 64.3411 38.5014 64.4044 38.61C64.4676 38.7187 64.5074 38.8393 64.521 38.9643C64.8061 40.0205 65.066 41.0851 65.2924 42.1581C65.6781 44.0022 66.0555 45.8464 66.3741 47.7074C66.525 48.5959 66.5335 49.5096 66.6089 50.4149L66.7598 50.4233Z" fill="black"/>
<path d="M43.4824 29.0058L43.6501 28.8466L43.9352 29.1064C43.9352 29.1064 43.8765 29.1902 43.8597 29.1819L43.4824 29.0058Z" fill="black"/>
<path d="M13.2383 75.5632H13.1543V75.4454C13.1543 75.4454 13.2215 75.4454 13.2383 75.4454C13.2551 75.4454 13.2299 75.538 13.2383 75.5632Z" fill="black"/>
</svg>
