<svg width="113" height="113" viewBox="0 0 113 113" fill="none" xmlns="http://www.w3.org/2000/svg">
<path d="M111 56.5C111 87.7041 87.7041 110.5 56.5 110.5C25.2959 110.5 2 87.7041 2 56.5C2 25.2959 25.2959 2.5 56.5 2.5C87.7041 2.5 111 25.2959 111 56.5Z" fill="white"/>
<path d="M49.4042 27.5722C47.8704 27.9146 46.2508 27.279 45.4959 25.9006L44.7767 24.5877C43.4763 22.2135 40.0271 22.3314 38.8919 24.7889L31.9891 39.7317C31.039 41.7885 32.3985 44.1686 34.6528 44.3949L50.8432 46.0208C53.3878 46.2763 55.1767 43.5748 53.9481 41.3319C52.9253 39.4646 54.0058 37.1388 56.1346 37.111C59.6693 37.0647 63.2676 37.8823 66.612 39.6603C77.1944 45.2863 81.2275 58.3974 75.6201 68.9449C70.0127 79.4923 56.8883 83.4819 46.3059 77.8559C38.3493 73.6259 34.0951 65.1645 34.8571 56.7429C35.0106 55.0464 34.1012 53.3635 32.4857 52.8232L28.8361 51.6027C27.0327 50.9996 25.0774 52.0441 24.7943 53.9245C22.8329 66.9539 29.14 80.3944 41.4711 86.9501C57.0928 95.2551 76.4669 89.3657 84.7445 73.7957C93.022 58.2257 87.0684 38.8712 71.4468 30.5662C64.4083 26.8243 56.608 25.9639 49.4042 27.5722Z" fill="#8850EA"/>
<path fill-rule="evenodd" clip-rule="evenodd" d="M37.7692 24.1551C39.3301 20.7762 41.8093 17.8646 45.8608 23.8785L46.58 25.1914C47.0416 26.0343 48.0773 26.4863 49.1345 26.2502C56.6158 24.58 64.7186 25.4739 72.0269 29.3592C88.7165 38.232 95.26 56.436 86.6601 72.6123C78.0602 88.7886 57.1116 96.5503 40.8905 87.9266C28.0839 81.1182 21.5341 67.1589 23.5714 53.6252C23.983 50.891 24.0878 48.3621 29.2279 50.3149L32.8775 51.5354C36.4517 52.66 36.3987 53.3077 36.0882 56.739C35.3696 64.6808 39.3824 72.6598 46.886 76.649C60.7673 81.128 69.2431 78.1903 74.5281 68.2492C79.8131 58.3082 76.2439 47.1358 66.0313 40.6368C62.8749 38.9587 59.4824 38.1884 56.1505 38.232C55.5829 38.2394 55.1828 38.533 54.9655 38.9685C54.7382 39.424 54.7153 40.0441 55.0322 40.6227C56.7387 43.7382 57.0581 47.95 50.7194 47.1358L34.5289 45.5099C31.4294 45.1986 29.56 41.926 30.8664 39.098L37.7692 24.1551ZM43.692 25.0664C42.2215 21.9859 40.7236 23.6562 40.0141 25.1921L36.4517 31.4648L33.1112 40.135C32.5174 41.4205 33.3671 42.908 34.776 43.0495L50.9665 44.6754C52.5211 44.8315 55.6192 45.8894 52.8635 41.8106C52.0408 40.5931 50.6989 38.8279 51.2883 37.6468C51.8877 36.4456 54.557 35.7799 56.1182 35.7594C59.8556 35.7105 63.6597 36.5755 67.1921 38.4534C78.901 45.5099 82.6412 58.2563 76.7115 69.41C70.7818 80.5638 56.9072 84.7771 45.7252 78.8324C37.3157 74.3616 32.8201 65.4178 33.6255 56.5162C33.9789 53.9933 33.0704 54.2073 32.0933 53.8805L28.4437 52.66C27.2753 52.2693 26.0167 52.0713 26.0167 53.9933C24.1312 66.5184 30.1954 79.4402 42.0512 85.7432C57.0734 93.7294 76.5215 86.4152 84.4767 71.4515C92.4319 56.4879 85.8882 39.5289 70.8661 31.5426C64.0974 27.9441 56.5997 27.1173 49.6733 28.6636C47.663 29.1124 46.3428 29.8163 44.4112 26.3794L43.692 25.0664Z" fill="#101E20"/>
<path fill-rule="evenodd" clip-rule="evenodd" d="M56.5 109.441C85.7385 109.441 109.441 85.7385 109.441 56.5C109.441 27.2615 85.7385 3.55906 56.5 3.55906C27.2615 3.55906 3.55906 27.2615 3.55906 56.5C3.55906 85.7385 24.5 109.441 56.5 109.441ZM56.5 113C87.7041 113 113 87.7041 113 56.5C113 25.2959 90.5 2.5 56.5 0C25.2959 0 0 25.2959 0 56.5C0 87.7041 25.2959 113 56.5 113Z" fill="#CBB5F5"/>
</svg>
