<svg width="147" height="145" viewBox="0 0 147 145" fill="none" xmlns="http://www.w3.org/2000/svg">
<path d="M78.763 130.359C78.4035 129.941 77.9559 129.607 77.4521 129.381C76.9482 129.154 76.4004 129.04 75.8475 129.048C72.9808 129.048 71.0601 131.489 71.0601 134.465C71.0601 137.818 73.272 139.849 75.8023 139.849C77.8677 139.849 78.763 138.536 78.763 138.536V139.567H82.4344V129.312H78.763V130.359ZM76.788 136.53C76.2408 136.528 75.7162 136.313 75.3269 135.93C74.9376 135.548 74.7148 135.029 74.7062 134.484C74.7031 134.212 74.7546 133.943 74.8579 133.691C74.9611 133.439 75.114 133.21 75.3074 133.018C75.5009 132.825 75.7311 132.674 75.9844 132.571C76.2377 132.469 76.5091 132.418 76.7825 132.421C77.0548 132.417 77.3251 132.467 77.5779 132.567C77.8308 132.668 78.0612 132.817 78.256 133.006C78.4508 133.195 78.606 133.421 78.7129 133.67C78.8198 133.919 78.8761 134.187 78.8787 134.457C78.8758 135.008 78.6544 135.534 78.2627 135.922C77.8711 136.311 77.3409 136.529 76.788 136.53Z" fill="#7F19FF"/>
<path d="M66.4446 129.048C64.1748 129.048 63.2614 130.703 63.2614 130.703C62.9945 130.198 62.5922 129.775 62.099 129.483C61.6059 129.191 61.0411 129.04 60.4671 129.048C59.9153 129.045 59.3721 129.184 58.8905 129.452C58.409 129.72 58.0056 130.107 57.7198 130.577V129.318H54.0483V139.572H57.7741V134.065C57.7741 133.126 58.2172 132.477 58.966 132.477C59.7744 132.477 60.1868 133.157 60.1868 133.957V139.567H63.9125V134.058C63.9125 133.258 64.296 132.477 65.1261 132.477C65.9273 132.477 66.3234 133.177 66.3234 133.848V139.567H70.0492V133.126C70.0492 130.5 68.6782 129.048 66.4446 129.048Z" fill="#7F19FF"/>
<path d="M87.7048 129.323H83.979V139.57H87.7048V129.323Z" fill="#7F19FF"/>
<path d="M87.7804 127.168C88.2234 126.104 87.7155 124.884 86.646 124.443C85.5764 124.003 84.3502 124.508 83.9072 125.572C83.4641 126.636 83.972 127.855 85.0416 128.296C86.1112 128.737 87.3374 128.232 87.7804 127.168Z" fill="#7F19FF"/>
<path d="M92.9518 124.8H89.2261V139.572H92.9518V124.8Z" fill="#7F19FF"/>
<path d="M7.00244 95.6877H14.9155L19.523 107.413L24.1899 95.6877H31.8951L20.2928 123.446H12.5397L15.715 116.09L7.00244 95.6877ZM39.92 95.2219C33.9807 95.2219 30.2161 100.525 30.2161 105.806C30.2161 111.75 34.3279 116.461 39.8104 116.461C43.8925 116.461 45.4299 113.988 45.4299 113.988V115.915H52.3332V95.6923H45.4253V97.5305C45.4253 97.5305 43.7098 95.2265 39.92 95.2265V95.2219ZM41.3866 101.721C44.1278 101.721 45.5464 103.879 45.5464 105.829C45.5464 107.926 44.0296 109.985 41.3866 109.985C39.1982 109.985 37.2199 108.206 37.2199 105.917C37.2199 103.629 38.819 101.721 41.3866 101.721ZM54.7044 115.915V86.7578H61.9275V97.5964C61.9275 97.5964 63.6431 95.2242 67.2341 95.2242C71.6269 95.2242 74.1991 98.4781 74.1991 103.132V115.915H67.0262V104.881C67.0262 103.307 66.2724 101.786 64.566 101.786C62.8596 101.786 61.9275 103.332 61.9275 104.881V115.915H54.7044ZM86.4981 95.2242C79.6907 95.2242 75.6383 100.373 75.6383 105.89C75.6383 112.168 80.5451 116.461 86.5255 116.461C92.3209 116.461 97.3922 112.371 97.3922 105.995C97.3922 99.0279 92.0811 95.2242 86.4981 95.2242ZM86.5643 101.78C87.1036 101.783 87.6368 101.893 88.1334 102.102C88.63 102.311 89.0803 102.615 89.4583 102.998C89.8363 103.38 90.1346 103.833 90.3362 104.331C90.5377 104.828 90.6385 105.361 90.6328 105.897C90.6328 107.715 89.0817 109.946 86.5643 109.946C86.0294 109.947 85.4995 109.843 85.0056 109.638C84.5118 109.433 84.0638 109.133 83.6878 108.755C83.3119 108.376 83.0155 107.927 82.816 107.433C82.6164 106.939 82.5177 106.411 82.5256 105.879C82.5256 103.734 83.9647 101.78 86.5643 101.78ZM109.408 95.2242C102.601 95.2242 98.5458 100.373 98.5458 105.89C98.5458 112.168 103.455 116.461 109.433 116.461C115.228 116.461 120.3 112.371 120.3 105.995C120.309 99.0279 115 95.2242 109.417 95.2242H109.408ZM109.472 101.78C110.012 101.782 110.547 101.89 111.045 102.098C111.543 102.307 111.995 102.611 112.374 102.994C112.753 103.376 113.053 103.83 113.255 104.328C113.458 104.826 113.559 105.36 113.554 105.897C113.554 107.715 112.003 109.946 109.483 109.946C108.948 109.947 108.418 109.843 107.925 109.638C107.431 109.433 106.983 109.133 106.607 108.755C106.231 108.376 105.934 107.927 105.735 107.433C105.535 106.939 105.437 106.411 105.445 105.879C105.442 103.734 106.881 101.78 109.481 101.78H109.472Z" fill="#35007D"/>
<path d="M126.004 116.342C128.651 116.342 130.797 114.208 130.797 111.575C130.797 108.942 128.651 106.808 126.004 106.808C123.357 106.808 121.211 108.942 121.211 111.575C121.211 114.208 123.357 116.342 126.004 116.342Z" fill="#35007D"/>
<path d="M132.373 105.056H123.745L131.402 86.7578H140L132.373 105.056Z" fill="#35007D"/>
<path d="M116.731 0H29.8088C27.4814 0 25.5947 1.8767 25.5947 4.19172V66.1534C25.5947 68.4684 27.4814 70.3451 29.8088 70.3451H116.731C119.059 70.3451 120.945 68.4684 120.945 66.1534V4.19172C120.945 1.8767 119.059 0 116.731 0Z" fill="#7F19FF"/>
<path d="M30.8164 20.381V8.11473C30.8164 7.49326 31.0646 6.89725 31.5064 6.4578C31.9482 6.01836 32.5474 5.77148 33.1721 5.77148H113.368C113.993 5.77148 114.592 6.01836 115.034 6.4578C115.476 6.89725 115.724 7.49326 115.724 8.11473V20.4212C115.724 20.8761 115.591 21.3213 115.341 21.7025C115.092 22.0837 114.736 22.3846 114.318 22.5685L75.1815 39.6996C74.8881 39.8274 74.5717 39.8947 74.2514 39.8973C73.9311 39.8999 73.6136 39.8377 73.3181 39.7146L32.2607 22.5459C31.8323 22.3668 31.4666 22.0657 31.2097 21.6805C30.9527 21.2953 30.8159 20.8432 30.8164 20.381Z" fill="white"/>
</svg>
