<svg width="28" height="28" viewBox="0 0 28 28" fill="none" xmlns="http://www.w3.org/2000/svg">
<path d="M14.0002 2.33333C20.4402 2.33333 25.6668 7.56 25.6668 14C25.6668 20.44 20.4402 25.6667 14.0002 25.6667C7.56016 25.6667 2.3335 20.44 2.3335 14C2.3335 7.56 7.56016 2.33333 14.0002 2.33333ZM14.0002 7C10.779 7 8.16683 10.1337 8.16683 14C8.16683 17.8663 10.779 21 14.0002 21C17.2213 21 19.8335 17.8663 19.8335 14C19.8335 10.1337 17.2213 7 14.0002 7ZM16.7127 11.0507C17.205 11.8557 17.5002 12.8823 17.5002 14C17.5002 16.5783 15.9333 18.6667 14.0002 18.6667C13.5592 18.6667 13.1368 18.5582 12.7483 18.3598L12.557 18.2525L16.7127 11.0507ZM14.0002 9.33333C14.4412 9.33333 14.8635 9.44183 15.252 9.64016L15.4433 9.74749L11.2877 16.9493C10.7953 16.1443 10.5002 15.1177 10.5002 14C10.5002 11.4217 12.067 9.33333 14.0002 9.33333Z" fill="#785EF0"/>
</svg>
