<svg width="20" height="20" viewBox="0 0 20 20" fill="none" xmlns="http://www.w3.org/2000/svg">
<path d="M11.2 14.8V16.4H16V18H11.2C10.7757 18 10.3687 17.8314 10.0686 17.5314C9.76857 17.2313 9.6 16.8243 9.6 16.4V14.8H7.2C6.35131 14.8 5.53737 14.4629 4.93726 13.8627C4.33714 13.2626 4 12.4487 4 11.6V6C4 5.78783 4.08429 5.58434 4.23431 5.43431C4.38434 5.28429 4.58783 5.2 4.8 5.2H7.2V2H8.8V5.2H12V2H13.6V5.2H16C16.2122 5.2 16.4157 5.28429 16.5657 5.43431C16.7157 5.58434 16.8 5.78783 16.8 6V11.6C16.8 12.4487 16.4629 13.2626 15.8627 13.8627C15.2626 14.4629 14.4487 14.8 13.6 14.8H11.2ZM7.2 13.2H13.6C14.0243 13.2 14.4313 13.0314 14.7314 12.7314C15.0314 12.4313 15.2 12.0243 15.2 11.6V9.2H5.6V11.6C5.6 12.0243 5.76857 12.4313 6.06863 12.7314C6.36869 13.0314 6.77565 13.2 7.2 13.2ZM15.2 6.8H5.6V7.6H15.2V6.8ZM10.4 12C10.1878 12 9.98434 11.9157 9.83432 11.7657C9.68429 11.6157 9.6 11.4122 9.6 11.2C9.6 10.9878 9.68429 10.7843 9.83432 10.6343C9.98434 10.4843 10.1878 10.4 10.4 10.4C10.6122 10.4 10.8157 10.4843 10.9657 10.6343C11.1157 10.7843 11.2 10.9878 11.2 11.2C11.2 11.4122 11.1157 11.6157 10.9657 11.7657C10.8157 11.9157 10.6122 12 10.4 12Z" fill="#1F1F33"/>
</svg>
