<svg width="20" height="20" viewBox="0 0 20 20" fill="none" xmlns="http://www.w3.org/2000/svg">
<path d="M10.95 17.6V19.5H9.05V17.6H1.45C1.19804 17.6 0.956408 17.4999 0.778249 17.3218C0.600089 17.1436 0.5 16.902 0.5 16.65V3.35H19.5V16.65C19.5 16.902 19.3999 17.1436 19.2218 17.3218C19.0436 17.4999 18.802 17.6 18.55 17.6H10.95ZM0.5 0.5H19.5V2.4H0.5V0.5Z" fill="#AFAFCC"/>
<path d="M6.19995 7.15005C5.63627 7.15005 5.08525 7.3172 4.61657 7.63037C4.14789 7.94353 3.7826 8.38864 3.56689 8.90941C3.35118 9.43018 3.29474 10.0032 3.40471 10.5561C3.51468 11.1089 3.78611 11.6167 4.18469 12.0153C4.58327 12.4139 5.09109 12.6853 5.64394 12.7953C6.19678 12.9053 6.76982 12.8488 7.29059 12.6331C7.81136 12.4174 8.25647 12.0521 8.56963 11.5834C8.8828 11.1148 9.04995 10.5637 9.04995 10.0001H6.19995V7.15005ZM10.9499 7.15005V9.05005H16.6499V7.15005H10.9499ZM10.9499 10.9501V12.8501H16.6499V10.9501H10.9499Z" fill="#7D7DA0"/>
</svg>
