<svg width="20" height="21" viewBox="0 0 20 21" fill="none" xmlns="http://www.w3.org/2000/svg">
<path d="M10.8 17.0666V18.6666H9.2V17.0666H2.8C2.58783 17.0666 2.38434 16.9823 2.23431 16.8323C2.08429 16.6823 2 16.4788 2 16.2666V5.06663H18V16.2666C18 16.4788 17.9157 16.6823 17.7657 16.8323C17.6157 16.9823 17.4122 17.0666 17.2 17.0666H10.8ZM3.6 15.4666H16.4V6.66663H3.6V15.4666ZM10.8 8.26663H14.8V9.86663H10.8V8.26663ZM10.8 11.4666H14.8V13.0666H10.8V11.4666ZM7.6 8.26663V10.6666H10C10 11.1413 9.85924 11.6053 9.59553 12C9.33181 12.3947 8.95698 12.7023 8.51844 12.8839C8.0799 13.0656 7.59734 13.1131 7.13178 13.0205C6.66623 12.9279 6.23859 12.6993 5.90294 12.3637C5.5673 12.028 5.33872 11.6004 5.24612 11.1348C5.15351 10.6693 5.20104 10.1867 5.38269 9.74819C5.56434 9.30964 5.87195 8.93481 6.26663 8.6711C6.66131 8.40738 7.12532 8.26663 7.6 8.26663ZM2 2.66663H18V4.26663H2V2.66663Z" fill="#1F1F33"/>
</svg>
