<svg width="20" height="20" viewBox="0 0 20 20" fill="none" xmlns="http://www.w3.org/2000/svg">
<path d="M17.6986 8.88189L18.8424 9.56798C18.913 9.61022 18.9714 9.67004 19.012 9.74158C19.0525 9.81313 19.0738 9.89397 19.0738 9.97621C19.0738 10.0585 19.0525 10.1393 19.012 10.2108C18.9714 10.2824 18.913 10.3422 18.8424 10.3844L10.007 15.6857L1.17155 10.3844C1.10099 10.3422 1.04258 10.2824 1.00202 10.2108C0.961465 10.1393 0.940147 10.0585 0.940147 9.97621C0.940147 9.89397 0.961465 9.81313 1.00202 9.74158C1.04258 9.67004 1.10099 9.61022 1.17155 9.56798L2.31535 8.88189L10.007 13.4971L17.6986 8.88189ZM17.6986 13.3543L18.8424 14.0404C18.913 14.0827 18.9714 14.1425 19.012 14.214C19.0525 14.2856 19.0738 14.3664 19.0738 14.4486C19.0738 14.5309 19.0525 14.6117 19.012 14.6833C18.9714 14.7548 18.913 14.8146 18.8424 14.8569L10.4971 19.8641C10.3491 19.953 10.1797 20 10.007 20C9.83433 20 9.66493 19.953 9.51693 19.8641L1.17155 14.8569C1.10099 14.8146 1.04258 14.7548 1.00202 14.6833C0.961465 14.6117 0.940147 14.5309 0.940147 14.4486C0.940147 14.3664 0.961465 14.2856 1.00202 14.214C1.04258 14.1425 1.10099 14.0827 1.17155 14.0404L2.31535 13.3543L10.007 17.9695L17.6986 13.3543ZM10.4961 0.135895L18.8424 5.14312C18.913 5.18537 18.9714 5.24518 19.012 5.31673C19.0525 5.38827 19.0738 5.46911 19.0738 5.55135C19.0738 5.63359 19.0525 5.71443 19.012 5.78598C18.9714 5.85752 18.913 5.91734 18.8424 5.95958L10.007 11.2608L1.17155 5.95958C1.10099 5.91734 1.04258 5.85752 1.00202 5.78598C0.961465 5.71443 0.940147 5.63359 0.940147 5.55135C0.940147 5.46911 0.961465 5.38827 1.00202 5.31673C1.04258 5.24518 1.10099 5.18537 1.17155 5.14312L9.51693 0.135895C9.66493 0.0469762 9.83433 0 10.007 0C10.1797 0 10.3481 0.0469762 10.4961 0.135895Z" fill="#B6F72B"/>
<path d="M17.6985 13.3542L18.8423 14.0402C18.9129 14.0825 18.9713 14.1423 19.0118 14.2139C19.0524 14.2854 19.0737 14.3662 19.0737 14.4485C19.0737 14.5307 19.0524 14.6116 19.0118 14.6831C18.9713 14.7546 18.9129 14.8145 18.8423 14.8567L10.4969 19.8639C10.3489 19.9529 10.1795 19.9998 10.0068 19.9998C9.83419 19.9998 9.66478 19.9529 9.51678 19.8639L1.1714 14.8567C1.10084 14.8145 1.04243 14.7546 1.00188 14.6831C0.96132 14.6116 0.940002 14.5307 0.940002 14.4485C0.940002 14.3662 0.96132 14.2854 1.00188 14.2139C1.04243 14.1423 1.10084 14.0825 1.1714 14.0402L2.31521 13.3542L10.0068 17.9693L17.6985 13.3542Z" fill="#B6F72B"/>
<path d="M17.6985 8.88173L18.8423 9.56782C18.9129 9.61006 18.9713 9.66988 19.0118 9.74142C19.0524 9.81297 19.0737 9.89381 19.0737 9.97605C19.0737 10.0583 19.0524 10.1391 19.0118 10.2107C18.9713 10.2822 18.9129 10.342 18.8423 10.3843L10.0068 15.6855L1.1714 10.3843C1.10084 10.342 1.04243 10.2822 1.00188 10.2107C0.96132 10.1391 0.940002 10.0583 0.940002 9.97605C0.940002 9.89381 0.96132 9.81297 1.00188 9.74142C1.04243 9.66988 1.10084 9.61006 1.1714 9.56782L2.31521 8.88173L10.0068 13.4969L17.6985 8.88173Z" fill="#6B8B2F"/>
</svg>
