<svg width="24" height="24" viewBox="0 0 24 24" fill="none" xmlns="http://www.w3.org/2000/svg">
<path d="M19.7586 10.882L20.9024 11.5681C20.973 11.6103 21.0314 11.6702 21.0719 11.7417C21.1125 11.8133 21.1338 11.8941 21.1338 11.9763C21.1338 12.0586 21.1125 12.1394 21.0719 12.211C21.0314 12.2825 20.973 12.3423 20.9024 12.3846L12.067 17.6858L3.23152 12.3846C3.16096 12.3423 3.10255 12.2825 3.062 12.211C3.02144 12.1394 3.00012 12.0586 3.00012 11.9763C3.00012 11.8941 3.02144 11.8133 3.062 11.7417C3.10255 11.6702 3.16096 11.6103 3.23152 11.5681L4.37533 10.882L12.067 15.4972L19.7586 10.882ZM19.7586 15.3545L20.9024 16.0405C20.973 16.0828 21.0314 16.1426 21.0719 16.2141C21.1125 16.2857 21.1338 16.3665 21.1338 16.4488C21.1338 16.531 21.1125 16.6118 21.0719 16.6834C21.0314 16.7549 20.973 16.8148 20.9024 16.857L12.557 21.8642C12.409 21.9531 12.2396 22.0001 12.067 22.0001C11.8943 22.0001 11.7249 21.9531 11.5769 21.8642L3.23152 16.857C3.16096 16.8148 3.10255 16.7549 3.062 16.6834C3.02144 16.6118 3.00012 16.531 3.00012 16.4488C3.00012 16.3665 3.02144 16.2857 3.062 16.2141C3.10255 16.1426 3.16096 16.0828 3.23152 16.0405L4.37533 15.3545L12.067 19.9696L19.7586 15.3545ZM12.5561 2.13602L20.9024 7.14324C20.973 7.18549 21.0314 7.2453 21.0719 7.31685C21.1125 7.38839 21.1338 7.46923 21.1338 7.55147C21.1338 7.63372 21.1125 7.71455 21.0719 7.7861C21.0314 7.85765 20.973 7.91746 20.9024 7.9597L12.067 13.261L3.23152 7.9597C3.16096 7.91746 3.10255 7.85765 3.062 7.7861C3.02144 7.71455 3.00012 7.63372 3.00012 7.55147C3.00012 7.46923 3.02144 7.38839 3.062 7.31685C3.10255 7.2453 3.16096 7.18549 3.23152 7.14324L11.5769 2.13602C11.7249 2.0471 11.8943 2.00012 12.067 2.00012C12.2396 2.00012 12.4081 2.0471 12.5561 2.13602Z" fill="#AFAFCC"/>
<path d="M19.7585 15.3544L20.9023 16.0405C20.9729 16.0827 21.0313 16.1425 21.0718 16.2141C21.1124 16.2856 21.1337 16.3664 21.1337 16.4487C21.1337 16.5309 21.1124 16.6118 21.0718 16.6833C21.0313 16.7549 20.9729 16.8147 20.9023 16.8569L12.5569 21.8641C12.4089 21.9531 12.2395 22 12.0668 22C11.8942 22 11.7248 21.9531 11.5768 21.8641L3.2314 16.8569C3.16084 16.8147 3.10243 16.7549 3.06187 16.6833C3.02132 16.6118 3 16.5309 3 16.4487C3 16.3664 3.02132 16.2856 3.06187 16.2141C3.10243 16.1425 3.16084 16.0827 3.2314 16.0405L4.3752 15.3544L12.0668 19.9695L19.7585 15.3544Z" fill="#AFAFCC"/>
<path d="M19.7585 10.8818L20.9023 11.5679C20.9729 11.6102 21.0313 11.67 21.0718 11.7415C21.1124 11.8131 21.1337 11.8939 21.1337 11.9762C21.1337 12.0584 21.1124 12.1392 21.0718 12.2108C21.0313 12.2823 20.9729 12.3421 20.9023 12.3844L12.0668 17.6857L3.2314 12.3844C3.16084 12.3421 3.10243 12.2823 3.06187 12.2108C3.02132 12.1392 3 12.0584 3 11.9762C3 11.8939 3.02132 11.8131 3.06187 11.7415C3.10243 11.67 3.16084 11.6102 3.2314 11.5679L4.3752 10.8818L12.0668 15.497L19.7585 10.8818Z" fill="#7D7DA0"/>
</svg>
