<svg width="20" height="20" viewBox="0 0 20 20" fill="none" xmlns="http://www.w3.org/2000/svg">
<path d="M16.7866 12.783L17.7958 13.3884C17.8581 13.4256 17.9096 13.4784 17.9454 13.5415C17.9812 13.6047 18 13.676 18 13.7486C18 13.8211 17.9812 13.8924 17.9454 13.9556C17.9096 14.0187 17.8581 14.0715 17.7958 14.1087L10.4324 18.5268C10.3018 18.6053 10.1523 18.6467 10 18.6467C9.84766 18.6467 9.69818 18.6053 9.5676 18.5268L2.20417 14.1087C2.14191 14.0715 2.09038 14.0187 2.05459 13.9556C2.01881 13.8924 2 13.8211 2 13.7486C2 13.676 2.01881 13.6047 2.05459 13.5415C2.09038 13.4784 2.14191 13.4256 2.20417 13.3884L3.21339 12.783L10 16.8551L16.7866 12.783ZM16.7866 8.83681L17.7958 9.44217C17.8581 9.47944 17.9096 9.53222 17.9454 9.59534C17.9812 9.65847 18 9.7298 18 9.80236C18 9.87493 17.9812 9.94625 17.9454 10.0094C17.9096 10.0725 17.8581 10.1253 17.7958 10.1626L10 14.8401L2.20417 10.1626C2.14191 10.1253 2.09038 10.0725 2.05459 10.0094C2.01881 9.94625 2 9.87493 2 9.80236C2 9.7298 2.01881 9.65847 2.05459 9.59534C2.09038 9.53222 2.14191 9.47944 2.20417 9.44217L3.21339 8.83681L10 12.9089L16.7866 8.83681ZM10.4316 1.11991L17.7958 5.53796C17.8581 5.57523 17.9096 5.62801 17.9454 5.69114C17.9812 5.75426 18 5.82559 18 5.89815C18 5.97072 17.9812 6.04204 17.9454 6.10517C17.9096 6.1683 17.8581 6.22108 17.7958 6.25835L10 10.9358L2.20417 6.25835C2.14191 6.22108 2.09038 6.1683 2.05459 6.10517C2.01881 6.04204 2 5.97072 2 5.89815C2 5.82559 2.01881 5.75426 2.05459 5.69114C2.09038 5.62801 2.14191 5.57523 2.20417 5.53796L9.5676 1.11991C9.69818 1.04145 9.84766 1 10 1C10.1523 1 10.3018 1.04145 10.4324 1.11991H10.4316ZM10 2.81845L4.86743 5.89815L10 8.97786L15.1326 5.89815L10 2.81845Z" fill="#1F1F33"/>
</svg>
