<svg width="16" height="20" viewBox="0 0 16 20" fill="none" xmlns="http://www.w3.org/2000/svg">
<path d="M9 16V18H15V20H9C8.46957 20 7.96086 19.7893 7.58579 19.4142C7.21071 19.0391 7 18.5304 7 18V16H4C2.93913 16 1.92172 15.5786 1.17157 14.8284C0.421427 14.0783 0 13.0609 0 12V8H16V12C16 13.0609 15.5786 14.0783 14.8284 14.8284C14.0783 15.5786 13.0609 16 12 16H9ZM12 4H15C15.2652 4 15.5196 4.10536 15.7071 4.29289C15.8946 4.48043 16 4.73478 16 5V7H0V5C0 4.73478 0.105357 4.48043 0.292893 4.29289C0.48043 4.10536 0.734784 4 1 4H4V0H6V4H10V0H12V4Z" fill="#B6F72B"/>
<path d="M12 4H15C15.2652 4 15.5196 4.10536 15.7071 4.29289C15.8946 4.48043 16 4.73478 16 5V7H0V5C0 4.73478 0.105357 4.48043 0.292893 4.29289C0.48043 4.10536 0.734784 4 1 4H4V0H6V4H10V0H12V4ZM8 12.5C8.26522 12.5 8.51957 12.3946 8.70711 12.2071C8.89464 12.0196 9 11.7652 9 11.5C9 11.2348 8.89464 10.9804 8.70711 10.7929C8.51957 10.6054 8.26522 10.5 8 10.5C7.73478 10.5 7.48043 10.6054 7.29289 10.7929C7.10536 10.9804 7 11.2348 7 11.5C7 11.7652 7.10536 12.0196 7.29289 12.2071C7.48043 12.3946 7.73478 12.5 8 12.5Z" fill="#6B8B2F"/>
</svg>
