<svg width="20" height="21" viewBox="0 0 20 21" fill="none" xmlns="http://www.w3.org/2000/svg">
<path d="M16.6667 18.9999H3.33333C3.11232 18.9999 2.90036 18.9121 2.74408 18.7558C2.5878 18.5996 2.5 18.3876 2.5 18.1666V3.16659C2.5 2.94557 2.5878 2.73361 2.74408 2.57733C2.90036 2.42105 3.11232 2.33325 3.33333 2.33325H16.6667C16.8877 2.33325 17.0996 2.42105 17.2559 2.57733C17.4122 2.73361 17.5 2.94557 17.5 3.16659V18.1666C17.5 18.3876 17.4122 18.5996 17.2559 18.7558C17.0996 18.9121 16.8877 18.9999 16.6667 18.9999ZM15.8333 17.3332V3.99992H4.16667V17.3332H15.8333ZM5.83333 5.66658H9.16667V8.99992H5.83333V5.66658ZM5.83333 10.6666H14.1667V12.3333H5.83333V10.6666ZM5.83333 13.9999H14.1667V15.6666H5.83333V13.9999ZM10.8333 6.49992H14.1667V8.16658H10.8333V6.49992Z" fill="#1F1F33"/>
</svg>
