<svg width="20" height="20" viewBox="0 0 20 20" fill="none" xmlns="http://www.w3.org/2000/svg">
<path d="M16.65 19.5H3.35C2.59413 19.5 1.86922 19.1997 1.33475 18.6653C0.800267 18.1308 0.5 17.4059 0.5 16.65V1.45C0.5 1.19804 0.600089 0.956408 0.778249 0.778249C0.956408 0.600089 1.19804 0.5 1.45 0.5H14.75C15.002 0.5 15.2436 0.600089 15.4218 0.778249C15.5999 0.956408 15.7 1.19804 15.7 1.45V12.85H19.5V16.65C19.5 17.4059 19.1997 18.1308 18.6653 18.6653C18.1308 19.1997 17.4059 19.5 16.65 19.5Z" fill="#B6F72B"/>
<path d="M4.29999 5.25V7.15H11.9V5.25H4.29999ZM4.29999 9.05V10.95H11.9V9.05H4.29999ZM4.29999 12.85V14.75H9.04999V12.85H4.29999Z" fill="#6B8B2F"/>
<path d="M15.7 14.75V16.65C15.7 17.1747 16.1253 17.6 16.65 17.6C17.1747 17.6 17.6 17.1747 17.6 16.65V14.75H15.7Z" fill="#6B8B2F"/>
</svg>
