<svg width="24" height="24" viewBox="0 0 24 24" fill="none" xmlns="http://www.w3.org/2000/svg">
<path d="M18.725 21.5H5.775C5.03902 21.5 4.33319 21.2076 3.81278 20.6872C3.29237 20.1668 3 19.461 3 18.725V3.925C3 3.67967 3.09746 3.4444 3.27093 3.27093C3.4444 3.09746 3.67967 3 3.925 3H16.875C17.1203 3 17.3556 3.09746 17.5291 3.27093C17.7025 3.4444 17.8 3.67967 17.8 3.925V15.025H21.5V18.725C21.5 19.461 21.2076 20.1668 20.6872 20.6872C20.1668 21.2076 19.461 21.5 18.725 21.5Z" fill="#AFAFCC"/>
<path d="M6.69995 7.625V9.475H14.1V7.625H6.69995ZM6.69995 11.325V13.175H14.1V11.325H6.69995ZM6.69995 15.025V16.875H11.325V15.025H6.69995Z" fill="#7D7DA0"/>
<path d="M17.8 16.875V18.725C17.8 19.2359 18.2141 19.65 18.725 19.65C19.2358 19.65 19.65 19.2359 19.65 18.725V16.875H17.8Z" fill="#7D7DA0"/>
</svg>
