<svg width="20" height="21" viewBox="0 0 20 21" fill="none" xmlns="http://www.w3.org/2000/svg">
<path d="M10.0001 18.9999C5.39758 18.9999 1.66675 15.2691 1.66675 10.6666C1.66675 6.06409 5.39758 2.33325 10.0001 2.33325C14.6026 2.33325 18.3334 6.06409 18.3334 10.6666C18.3334 15.2691 14.6026 18.9999 10.0001 18.9999ZM10.0001 17.3333C11.7682 17.3333 13.4639 16.6309 14.7141 15.3806C15.9644 14.1304 16.6667 12.4347 16.6667 10.6666C16.6667 8.89848 15.9644 7.20278 14.7141 5.95254C13.4639 4.7023 11.7682 3.99992 10.0001 3.99992C8.23197 3.99992 6.53628 4.7023 5.28604 5.95254C4.03579 7.20278 3.33341 8.89848 3.33341 10.6666C3.33341 12.4347 4.03579 14.1304 5.28604 15.3806C6.53628 16.6309 8.23197 17.3333 10.0001 17.3333ZM7.08341 12.3333H11.6667C11.7773 12.3333 11.8832 12.2894 11.9614 12.2112C12.0395 12.1331 12.0834 12.0271 12.0834 11.9166C12.0834 11.8061 12.0395 11.7001 11.9614 11.622C11.8832 11.5438 11.7773 11.4999 11.6667 11.4999H8.33341C7.78088 11.4999 7.25098 11.2804 6.86028 10.8897C6.46957 10.499 6.25008 9.96912 6.25008 9.41658C6.25008 8.86405 6.46957 8.33415 6.86028 7.94345C7.25098 7.55275 7.78088 7.33325 8.33341 7.33325H9.16675V5.66659H10.8334V7.33325H12.9167V8.99992H8.33341C8.22291 8.99992 8.11693 9.04382 8.03879 9.12196C7.96065 9.2001 7.91675 9.30608 7.91675 9.41658C7.91675 9.52709 7.96065 9.63307 8.03879 9.71121C8.11693 9.78935 8.22291 9.83325 8.33341 9.83325H11.6667C12.2193 9.83325 12.7492 10.0527 13.1399 10.4434C13.5306 10.8341 13.7501 11.3641 13.7501 11.9166C13.7501 12.4691 13.5306 12.999 13.1399 13.3897C12.7492 13.7804 12.2193 13.9999 11.6667 13.9999H10.8334V15.6666H9.16675V13.9999H7.08341V12.3333Z" fill="#1F1F33"/>
</svg>
