<svg width="20" height="20" viewBox="0 0 20 20" fill="none" xmlns="http://www.w3.org/2000/svg">
<path d="M15.4737 16.3158H5.36842V18H3.68421V16.3158H2.84211C2.61876 16.3158 2.40457 16.2271 2.24665 16.0691C2.08872 15.9112 2 15.697 2 15.4737V2.84211C2 2.61877 2.08872 2.40457 2.24665 2.24665C2.40457 2.08872 2.61876 2 2.84211 2H18C18.2233 2 18.4375 2.08872 18.5955 2.24665C18.7534 2.40457 18.8421 2.61877 18.8421 2.84211V15.4737C18.8421 15.697 18.7534 15.9112 18.5955 16.0691C18.4375 16.2271 18.2233 16.3158 18 16.3158H17.1579V18H15.4737V16.3158ZM3.68421 14.6316H17.1579V3.68421H3.68421V14.6316ZM11.2632 11.1571V13.7895H9.57895V11.1571C8.78695 10.9501 8.09735 10.462 7.6389 9.78385C7.18045 9.1057 6.9845 8.28387 7.08763 7.47181C7.19076 6.65976 7.58593 5.913 8.19934 5.37097C8.81275 4.82894 9.60248 4.5287 10.4211 4.52632C11.2415 4.5255 12.034 4.82415 12.6499 5.36621C13.2657 5.90827 13.6626 6.65646 13.766 7.47035C13.8693 8.28425 13.6721 9.10789 13.2113 9.78669C12.7505 10.4655 12.0577 10.9528 11.2632 11.1571ZM10.4211 9.57895C10.8677 9.57895 11.2961 9.4015 11.612 9.08565C11.9278 8.7698 12.1053 8.34142 12.1053 7.89474C12.1053 7.44806 11.9278 7.01967 11.612 6.70382C11.2961 6.38797 10.8677 6.21053 10.4211 6.21053C9.97437 6.21053 9.54598 6.38797 9.23013 6.70382C8.91428 7.01967 8.73684 7.44806 8.73684 7.89474C8.73684 8.34142 8.91428 8.7698 9.23013 9.08565C9.54598 9.4015 9.97437 9.57895 10.4211 9.57895Z" fill="#7D7DA0"/>
</svg>
