<svg width="18" height="20" viewBox="0 0 18 20" fill="none" xmlns="http://www.w3.org/2000/svg">
<path d="M9.00636 0L17.6427 5V15L9.00636 20L0.369995 15V5L9.00636 0Z" fill="#B6F72B"/>
<path d="M9.00633 12.7273C9.72964 12.7273 10.4233 12.4399 10.9348 11.9285C11.4463 11.417 11.7336 10.7233 11.7336 9.99999C11.7336 9.27667 11.4463 8.58298 10.9348 8.07152C10.4233 7.56006 9.72964 7.27272 9.00633 7.27272C8.28301 7.27272 7.58931 7.56006 7.07785 8.07152C6.56639 8.58298 6.27905 9.27667 6.27905 9.99999C6.27905 10.7233 6.56639 11.417 7.07785 11.9285C7.58931 12.4399 8.28301 12.7273 9.00633 12.7273Z" fill="#6B8B2F"/>
</svg>
