<svg width="20" height="20" viewBox="0 0 20 20" fill="none" xmlns="http://www.w3.org/2000/svg">
<path d="M7.56741 4.12845L9.48085 2.21502C9.61849 2.07742 9.80514 2.00012 9.99976 2.00012C10.1944 2.00012 10.381 2.07742 10.5187 2.21502L12.4321 4.12845H15.1375C15.3321 4.12845 15.5188 4.20578 15.6565 4.34342C15.7941 4.48106 15.8714 4.66775 15.8714 4.86241V7.56778L17.7849 9.48121C17.9225 9.61885 17.9998 9.8055 17.9998 10.0001C17.9998 10.1947 17.9225 10.3814 17.7849 10.519L15.8714 12.4325V15.1378C15.8714 15.3325 15.7941 15.5192 15.6565 15.6568C15.5188 15.7945 15.3321 15.8718 15.1375 15.8718H12.4321L10.5187 17.7852C10.381 17.9228 10.1944 18.0001 9.99976 18.0001C9.80514 18.0001 9.61849 17.9228 9.48085 17.7852L7.56741 15.8718H4.86204C4.66738 15.8718 4.4807 15.7945 4.34305 15.6568C4.20541 15.5192 4.12808 15.3325 4.12808 15.1378V12.4325L2.21465 10.519C2.07705 10.3814 1.99976 10.1947 1.99976 10.0001C1.99976 9.8055 2.07705 9.61885 2.21465 9.48121L4.12808 7.56778V4.86241C4.12808 4.66775 4.20541 4.48106 4.34305 4.34342C4.4807 4.20578 4.66738 4.12845 4.86204 4.12845H7.56741ZM5.596 5.59637V8.17623L3.77211 10.0001L5.596 11.824V14.4039H8.17587L9.99976 16.2278L11.8236 14.4039H14.4035V11.824L16.2274 10.0001L14.4035 8.17623V5.59637H11.8236L9.99976 3.77248L8.17587 5.59637H5.596ZM9.99976 12.936C9.22112 12.936 8.47438 12.6266 7.92381 12.0761C7.37323 11.5255 7.06392 10.7788 7.06392 10.0001C7.06392 9.22149 7.37323 8.47475 7.92381 7.92417C8.47438 7.3736 9.22112 7.06429 9.99976 7.06429C10.7784 7.06429 11.5251 7.3736 12.0757 7.92417C12.6263 8.47475 12.9356 9.22149 12.9356 10.0001C12.9356 10.7788 12.6263 11.5255 12.0757 12.0761C11.5251 12.6266 10.7784 12.936 9.99976 12.936ZM9.99976 11.468C10.3891 11.468 10.7624 11.3134 11.0377 11.0381C11.313 10.7628 11.4677 10.3894 11.4677 10.0001C11.4677 9.61081 11.313 9.23744 11.0377 8.96215C10.7624 8.68686 10.3891 8.5322 9.99976 8.5322C9.61044 8.5322 9.23707 8.68686 8.96178 8.96215C8.68649 9.23744 8.53184 9.61081 8.53184 10.0001C8.53184 10.3894 8.68649 10.7628 8.96178 11.0381C9.23707 11.3134 9.61044 11.468 9.99976 11.468Z" fill="#7D7DA0"/>
</svg>
