<svg width="24" height="24" viewBox="0 0 24 24" fill="none" xmlns="http://www.w3.org/2000/svg">
<path d="M12.25 1L21.5 6.35526V17.0658L12.25 22.4211L3 17.0658V6.35526L12.25 1ZM12.25 14.6316C13.0247 14.6316 13.7677 14.3238 14.3155 13.776C14.8633 13.2282 15.1711 12.4852 15.1711 11.7105C15.1711 10.9358 14.8633 10.1928 14.3155 9.64503C13.7677 9.09723 13.0247 8.78947 12.25 8.78947C11.4753 8.78947 10.7323 9.09723 10.1845 9.64503C9.6367 10.1928 9.32895 10.9358 9.32895 11.7105C9.32895 12.4852 9.6367 13.2282 10.1845 13.776C10.7323 14.3238 11.4753 14.6316 12.25 14.6316Z" fill="#AFAFCC"/>
<path d="M12.25 14.6315C13.0247 14.6315 13.7677 14.3238 14.3155 13.776C14.8633 13.2282 15.1711 12.4852 15.1711 11.7105C15.1711 10.9358 14.8633 10.1928 14.3155 9.64498C13.7677 9.09718 13.0247 8.78943 12.25 8.78943C11.4753 8.78943 10.7323 9.09718 10.1845 9.64498C9.63673 10.1928 9.32898 10.9358 9.32898 11.7105C9.32898 12.4852 9.63673 13.2282 10.1845 13.776C10.7323 14.3238 11.4753 14.6315 12.25 14.6315Z" fill="#8383A5"/>
</svg>
