<svg width="54" height="54" viewBox="0 0 54 54" fill="none" xmlns="http://www.w3.org/2000/svg">
<rect width="54" height="54" fill="url(#paint0_linear_5254_10977)"/>
<path fill-rule="evenodd" clip-rule="evenodd" d="M39.6 9.77149H22.6286V39.0858H21.6V22.6286H14.4V39.0858H12.8571V41.1429H41.1429V39.0858H39.6V9.77149ZM29.8285 12.8572H32.4V15.9429H29.8285V12.8572ZM25.1999 12.8572H27.7713V15.9429H25.1999V12.8572ZM37.0285 12.8572H34.4571V15.9429H37.0285V12.8572ZM25.2 19.0286H27.7714V22.1144H25.2V19.0286ZM32.4 19.0286H29.8285V22.1144H32.4V19.0286ZM34.4571 19.0286H37.0285V22.1144H34.4571V19.0286ZM27.7714 25.2001H25.2V28.2858H27.7714V25.2001ZM29.8285 25.2001H32.4V28.2858H29.8285V25.2001ZM37.0285 25.2001H34.4571V28.2858H37.0285V25.2001ZM25.2 31.3715H27.7714V34.4572H25.2V31.3715ZM32.4 31.3715H29.8285V34.4572H32.4V31.3715ZM34.4571 31.3715H37.0285V34.4572H34.4571V31.3715ZM19.543 25.2001H16.9715V28.2858H19.543V25.2001ZM16.9715 31.3715H19.543V34.4572H16.9715V31.3715Z" fill="url(#paint1_linear_5254_10977)"/>
<defs>
<linearGradient id="paint0_linear_5254_10977" x1="0" y1="0" x2="55.5429" y2="56.8286" gradientUnits="userSpaceOnUse">
<stop stop-color="#8937FD"/>
<stop offset="1" stop-color="#4500A8"/>
</linearGradient>
<linearGradient id="paint1_linear_5254_10977" x1="24.1715" y1="9.77148" x2="34.4572" y2="49.8858" gradientUnits="userSpaceOnUse">
<stop stop-color="#D6C7ED"/>
<stop offset="1" stop-color="white" stop-opacity="0.14"/>
</linearGradient>
</defs>
</svg>
