<svg width="131" height="161" viewBox="0 0 131 161" fill="none" xmlns="http://www.w3.org/2000/svg">
<path d="M20.6846 70.373C29.8091 51.3914 37.4503 31.7317 43.5398 11.5704C49.7646 -8.87827 80.1899 6.62873 63.549 28.2361C48.6038 47.6214 20.6846 70.373 20.6846 70.373Z" fill="#FFF6FF" stroke="#101737" stroke-width="2.07285" stroke-linejoin="bevel"/>
<path d="M20.6846 70.374C27.2887 64.8063 35.4391 56.4569 55.4753 33.187C69.4235 16.9836 90.9977 43.4103 67.0874 56.4838C45.5484 68.2265 20.6846 70.374 20.6846 70.374Z" fill="#FFF6FF" stroke="#101737" stroke-width="2.07285" stroke-linejoin="bevel"/>
<path d="M20.6846 70.3731C28.976 67.9333 31.4012 67.2451 59.1442 54.0141C78.4487 44.792 87.5403 77.6446 60.332 79.9911C35.8972 82.0847 20.6846 70.3731 20.6846 70.3731Z" fill="#FFF6FF" stroke="#101737" stroke-width="2.07285" stroke-linejoin="bevel"/>
<path d="M20.7324 70.6201C21.9616 66.5698 23.0892 60.9606 25.1248 46.034C26.5447 35.647 42.5036 40.7856 36.1295 52.5511C30.4043 63.1226 20.7324 70.6201 20.7324 70.6201Z" fill="#FFF6FF" stroke="#101737" stroke-width="2.07285" stroke-linejoin="bevel"/>
<path d="M20.7324 70.62C23.4644 67.4071 24.5237 65.67 32.4129 52.8349C37.9122 43.8926 50.4405 55.0176 39.8524 63.2241C30.3422 70.591 20.7324 70.62 20.7324 70.62Z" fill="#FFF6FF" stroke="#101737" stroke-width="2.07285" stroke-linejoin="bevel"/>
<path d="M20.7324 70.6207C24.5568 68.7924 21.6818 70.687 34.094 62.1137C42.7274 56.1356 49.7088 71.3565 36.7037 74.6068C25.0087 77.5295 20.7324 70.6207 20.7324 70.6207Z" fill="#FFF6FF" stroke="#101737" stroke-width="2.07285" stroke-linejoin="bevel"/>
<path d="M2 117.521L46.2326 98.981L90.1231 121.884L49.7502 142.447L2 117.521Z" fill="#FD6EFF" stroke="#101737" stroke-width="2.07285" stroke-linejoin="bevel"/>
<path d="M6.83594 115.497L42.2092 134.758H64.8468L90.1231 121.884L46.2326 98.981L6.83594 115.497Z" fill="#101737"/>
<path d="M5.51855 59.3647L50.7565 82.0977V129.075L5.51855 106.506V59.3668V59.3647Z" fill="#FD6EFF" stroke="#101737" stroke-width="2.07285" stroke-linejoin="bevel"/>
<path d="M11.0439 71.7373L45.5632 89.112V117.52L11.0439 100.289V71.7394V71.7373Z" fill="#101737"/>
<path d="M20.781 67.0336L5.51855 59.364L15.0682 54.186L59.3008 77.0807L50.7565 82.097L20.781 67.0336ZM20.8411 57.1709L53.0988 50.8384L83.4225 65.2136L59.3008 77.0807L20.8411 57.1709Z" fill="#FD6EFF" stroke="#101737" stroke-width="2.07285" stroke-linejoin="bevel"/>
<path d="M83.4216 65.2139V94.2172L59.2998 117.705V77.0809L83.4216 65.2139Z" fill="#FD6EFF" stroke="#101737" stroke-width="2.07285" stroke-linejoin="bevel"/>
<path d="M81.1746 96.4073V110.351L59.2998 121.885V117.706L81.1746 96.4053V96.4073Z" fill="#FD6EFF" stroke="#101737" stroke-width="2.07285" stroke-linejoin="bevel"/>
<path d="M59.2998 124.535L50.7555 129.074V82.0972L59.2998 77.5576V124.535ZM2 117.52L49.7502 142.448V159.999L2 135.092V117.52Z" fill="#FD6EFF" stroke="#101737" stroke-width="2.07285" stroke-linejoin="bevel"/>
<path d="M49.751 142.45L90.1239 121.885V139.477L49.751 160V142.45Z" fill="#FD6EFF" stroke="#101737" stroke-width="2.07285" stroke-linejoin="bevel"/>
<path d="M31.4844 142.449L40.0307 146.959" stroke="#101737" stroke-width="2.07285" stroke-linejoin="bevel"/>
<path d="M61.2607 93.077C75.0205 74.0707 87.2897 54.0286 97.9585 33.1301C108.826 11.9518 139.111 34.9377 116.593 55.3366C96.3728 73.6606 61.2607 93.077 61.2607 93.077Z" fill="#FFF6FF" stroke="#101737" stroke-width="2.07285" stroke-linejoin="bevel"/>
<path d="M61.2607 93.0778C69.6019 88.3082 80.19 80.734 106.764 59.1763C125.262 44.1793 143.694 77.376 114.846 86.9919C88.9416 95.6357 61.2607 93.0778 61.2607 93.0778Z" fill="#FFF6FF" stroke="#101737" stroke-width="2.07285" stroke-linejoin="bevel"/>
<path d="M61.2607 93.0768C70.8249 92.0341 73.6315 91.7709 106.654 82.7167C129.648 76.4193 133.106 114.228 102.821 111.434C75.6194 108.917 61.2607 93.0768 61.2607 93.0768Z" fill="#FFF6FF" stroke="#101737" stroke-width="2.07285" stroke-linejoin="bevel"/>
<path d="M61.2607 93.3589C63.4124 89.1593 65.763 83.2351 70.9472 67.272C74.5622 56.1615 91.0393 64.9484 81.7198 76.5895C73.3517 87.045 61.2607 93.3589 61.2607 93.3589Z" fill="#FFF6FF" stroke="#101737" stroke-width="2.07285" stroke-linejoin="bevel"/>
<path d="M61.2607 93.3593C64.9297 90.3868 66.3972 88.6891 77.5948 76.167C85.3887 67.4507 96.92 82.112 83.689 89.0229C71.8095 95.2248 61.2607 93.3572 61.2607 93.3572V93.3593Z" fill="#FFF6FF" stroke="#101737" stroke-width="2.07285" stroke-linejoin="bevel"/>
<path d="M61.2607 93.3602C65.8169 92.1123 62.293 93.6255 77.5948 86.6649C88.2451 81.8185 92.8821 99.8752 77.9845 100.885C64.6291 101.784 61.2607 93.3602 61.2607 93.3602Z" fill="#FFF6FF" stroke="#101737" stroke-width="2.07285" stroke-linejoin="bevel"/>
</svg>
