<svg width="131" height="161" viewBox="0 0 131 161" fill="none" xmlns="http://www.w3.org/2000/svg">
<path d="M20.7036 70.3683C29.8279 51.388 37.4699 31.7302 43.5613 11.5709C49.7841 -8.87817 80.2059 6.62911 63.5709 28.2286C48.6026 47.6205 20.7036 70.3683 20.7036 70.3683Z" fill="#FFF6FF" stroke="#101737" stroke-width="2.07289" stroke-linejoin="bevel"/>
<path d="M20.7036 70.3684C27.3037 64.8047 35.4522 56.4551 55.495 33.1849C69.4455 16.9832 91.018 43.4084 67.1094 56.4759C45.543 68.2271 20.7036 70.3663 20.7036 70.3663V70.3684Z" fill="#FFF6FF" stroke="#101737" stroke-width="2.07289" stroke-linejoin="bevel"/>
<path d="M20.7036 70.3675C28.991 67.9257 31.4225 67.2437 59.1578 54.0062C78.4501 44.784 87.5356 77.6123 60.3248 79.9837C35.8979 82.0835 20.7036 70.3655 20.7036 70.3655V70.3675Z" fill="#FFF6FF" stroke="#101737" stroke-width="2.07289" stroke-linejoin="bevel"/>
<path d="M20.7036 70.6169C21.9411 66.5706 23.0667 60.9531 25.1044 46.0325C26.5181 35.639 42.4814 40.7839 36.1093 52.5496C30.3985 63.1214 20.7036 70.619 20.7036 70.619V70.6169Z" fill="#FFF6FF" stroke="#101737" stroke-width="2.07289" stroke-linejoin="bevel"/>
<path d="M20.7036 70.6191C23.4709 67.4082 24.5011 65.6711 32.3926 52.8275C37.8568 43.8934 50.4143 55.0103 39.8322 63.2168C30.3425 70.5922 20.7036 70.6191 20.7036 70.6191Z" fill="#FFF6FF" stroke="#101737" stroke-width="2.07289" stroke-linejoin="bevel"/>
<path d="M20.7036 70.6192C24.5364 68.793 21.6613 70.6876 34.0654 62.1059C42.7073 56.1359 49.6826 71.3489 36.6835 74.6054C25.0214 77.5302 20.7036 70.6192 20.7036 70.6192Z" fill="#FFF6FF" stroke="#101737" stroke-width="2.07289" stroke-linejoin="bevel"/>
<path d="M2 117.523L46.2251 98.9827L90.1247 121.884L49.7448 142.447L2 117.523Z" fill="#FDDA00" stroke="#101737" stroke-width="2.07289" stroke-linejoin="bevel"/>
<path d="M6.82959 115.497L42.2097 134.761H64.8477L90.1245 121.884L46.2248 98.9827L6.82959 115.497Z" fill="#101737"/>
<path d="M5.51123 59.3649L50.7541 82.0962V129.074L5.51123 106.506V59.3649Z" fill="#FDDA00" stroke="#101737" stroke-width="2.07289" stroke-linejoin="bevel"/>
<path d="M11.0435 71.7362L45.555 89.1112V117.522L11.0435 100.284V71.7362Z" fill="#101737"/>
<path d="M20.7718 67.0328L5.51123 59.3652L15.0672 54.1788L59.2944 77.0801L50.7541 82.0965L20.7718 67.0328Z" fill="#FDDA00" stroke="#101737" stroke-width="2.07289" stroke-linejoin="bevel"/>
<path d="M20.8345 57.1701L53.099 50.8374L83.4233 65.2129L59.2948 77.0802L20.8345 57.1701Z" fill="#FDDA00" stroke="#101737" stroke-width="2.07289" stroke-linejoin="bevel"/>
<path d="M83.4233 65.2131V94.217L59.2949 117.707V77.0804L83.4233 65.2131Z" fill="#FDDA00" stroke="#101737" stroke-width="2.07289" stroke-linejoin="bevel"/>
<path d="M81.176 96.4036V110.35L59.2946 121.884V117.705L81.176 96.4036ZM59.2946 124.535L50.7543 129.074V82.0965L59.2946 77.5569V124.535ZM2 117.522L49.7448 142.449V160L2 135.094V117.522Z" fill="#FDDA00" stroke="#101737" stroke-width="2.07289" stroke-linejoin="bevel"/>
<path d="M49.7441 142.448L90.124 121.885V139.469L49.7441 159.999V142.448Z" fill="#FDDA00" stroke="#101737" stroke-width="2.07289" stroke-linejoin="bevel"/>
<path d="M31.4849 142.449L40.0293 146.961" stroke="#101737" stroke-width="2.07289" stroke-linejoin="bevel"/>
<path d="M61.2554 93.0786C75.0158 74.0709 87.2872 54.0287 97.96 33.1306C108.828 11.9519 139.111 34.934 116.595 55.3375C96.368 73.6597 61.2554 93.0786 61.2554 93.0786Z" fill="#FFF6FF" stroke="#101737" stroke-width="2.07289" stroke-linejoin="bevel"/>
<path d="M61.2554 93.0788C69.5967 88.307 80.185 80.7348 106.757 59.1747C125.264 44.1794 143.696 77.3746 114.846 86.9928C88.9347 95.6347 61.2554 93.0788 61.2554 93.0788Z" fill="#FFF6FF" stroke="#101737" stroke-width="2.07289" stroke-linejoin="bevel"/>
<path d="M61.2554 93.0783C70.8176 92.0356 73.6264 91.7682 106.656 82.718C129.65 76.4185 133.106 114.228 102.823 111.427C75.6205 108.919 61.2554 93.0783 61.2554 93.0783Z" fill="#FFF6FF" stroke="#101737" stroke-width="2.07289" stroke-linejoin="bevel"/>
<path d="M61.2554 93.356C63.4132 89.1584 65.7556 83.2361 70.9482 67.2707C74.555 56.16 91.0324 64.9408 81.7148 76.5821C73.3465 87.0461 61.2554 93.358 61.2554 93.358V93.356Z" fill="#FFF6FF" stroke="#101737" stroke-width="2.07289" stroke-linejoin="bevel"/>
<path d="M61.2554 93.3567C64.9223 90.3863 66.3982 88.6824 77.5877 76.1684C85.3838 67.4498 96.9153 82.1113 83.6882 89.0161C71.8022 95.2265 61.2554 93.3588 61.2554 93.3588V93.3567Z" fill="#FFF6FF" stroke="#101737" stroke-width="2.07289" stroke-linejoin="bevel"/>
<path d="M61.2554 93.3565C65.8178 92.1107 62.2939 93.6239 77.5877 86.6652C88.2444 81.8188 92.8773 99.8737 77.9774 100.877C64.5948 101.783 61.2554 93.3586 61.2554 93.3586V93.3565Z" fill="#FFF6FF" stroke="#101737" stroke-width="2.07289" stroke-linejoin="bevel"/>
</svg>
