<svg width="121" height="126" viewBox="0 0 121 126" fill="none" xmlns="http://www.w3.org/2000/svg">
<g clip-path="url(#clip0_2463_7694)">
<path d="M62 18H8C5.23858 18 3 20.2386 3 23V101C3 103.761 5.23858 106 8 106H62C64.7614 106 67 103.761 67 101V23C67 20.2386 64.7614 18 62 18Z" fill="#122224"/>
<path d="M62 109H8C5.87827 109 3.84344 108.157 2.34315 106.657C0.842854 105.157 0 103.122 0 101V23C0 20.8783 0.842854 18.8434 2.34315 17.3431C3.84344 15.8429 5.87827 15 8 15H62C64.1217 15 66.1566 15.8429 67.6569 17.3431C69.1572 18.8434 70 20.8783 70 23V101C70 103.122 69.1572 105.157 67.6569 106.657C66.1566 108.157 64.1217 109 62 109ZM8 21C7.46957 21 6.96086 21.2107 6.58579 21.5858C6.21071 21.9609 6 22.4696 6 23V101C6 101.53 6.21071 102.039 6.58579 102.414C6.96086 102.789 7.46957 103 8 103H62C62.5304 103 63.0391 102.789 63.4142 102.414C63.7893 102.039 64 101.53 64 101V23C64 22.4696 63.7893 21.9609 63.4142 21.5858C63.0391 21.2107 62.5304 21 62 21H8Z" fill="#122224"/>
<path d="M78 3H24C21.2386 3 19 5.23858 19 8V85C19 87.7614 21.2386 90 24 90H78C80.7614 90 83 87.7614 83 85V8C83 5.23858 80.7614 3 78 3Z" fill="white"/>
<path d="M78 93H24C21.8783 93 19.8434 92.1571 18.3431 90.6569C16.8429 89.1566 16 87.1217 16 85V8C16 5.87827 16.8429 3.84344 18.3431 2.34315C19.8434 0.842854 21.8783 0 24 0H78C80.1217 0 82.1566 0.842854 83.6569 2.34315C85.1572 3.84344 86 5.87827 86 8V85C86 87.1217 85.1572 89.1566 83.6569 90.6569C82.1566 92.1571 80.1217 93 78 93ZM24 6C23.4696 6 22.9609 6.21071 22.5858 6.58579C22.2107 6.96086 22 7.46957 22 8V85C22 85.5304 22.2107 86.0391 22.5858 86.4142C22.9609 86.7893 23.4696 87 24 87H78C78.5304 87 79.0391 86.7893 79.4142 86.4142C79.7893 86.0391 80 85.5304 80 85V8C80 7.46957 79.7893 6.96086 79.4142 6.58579C79.0391 6.21071 78.5304 6 78 6H24Z" fill="#122224"/>
<path fill-rule="evenodd" clip-rule="evenodd" d="M34 18C34 17.2044 34.3161 16.4413 34.8787 15.8787C35.4413 15.3161 36.2044 15 37 15H67C67.7956 15 68.5587 15.3161 69.1213 15.8787C69.6839 16.4413 70 17.2044 70 18C70 18.7956 69.6839 19.5587 69.1213 20.1213C68.5587 20.6839 67.7956 21 67 21H37C36.2044 21 35.4413 20.6839 34.8787 20.1213C34.3161 19.5587 34 18.7956 34 18ZM34 60C34 59.2043 34.3161 58.4413 34.8787 57.8787C35.4413 57.3161 36.2044 57 37 57H67C67.7956 57 68.5587 57.3161 69.1213 57.8787C69.6839 58.4413 70 59.2043 70 60C70 60.7957 69.6839 61.5587 69.1213 62.1213C68.5587 62.6839 67.7956 63 67 63H37C36.2044 63 35.4413 62.6839 34.8787 62.1213C34.3161 61.5587 34 60.7957 34 60ZM37 71C36.2044 71 35.4413 71.3161 34.8787 71.8787C34.3161 72.4413 34 73.2043 34 74C34 74.7957 34.3161 75.5587 34.8787 76.1213C35.4413 76.6839 36.2044 77 37 77H45C45.7956 77 46.5587 76.6839 47.1213 76.1213C47.6839 75.5587 48 74.7957 48 74C48 73.2043 47.6839 72.4413 47.1213 71.8787C46.5587 71.3161 45.7956 71 45 71H37ZM34 32C34 31.2044 34.3161 30.4413 34.8787 29.8787C35.4413 29.3161 36.2044 29 37 29H54C54.7956 29 55.5587 29.3161 56.1213 29.8787C56.6839 30.4413 57 31.2044 57 32C57 32.7957 56.6839 33.5587 56.1213 34.1213C55.5587 34.6839 54.7956 35 54 35H37C36.2044 35 35.4413 34.6839 34.8787 34.1213C34.3161 33.5587 34 32.7957 34 32ZM37 43C36.2044 43 35.4413 43.3161 34.8787 43.8787C34.3161 44.4413 34 45.2044 34 46C34 46.7957 34.3161 47.5587 34.8787 48.1213C35.4413 48.6839 36.2044 49 37 49H63C63.7956 49 64.5587 48.6839 65.1213 48.1213C65.6839 47.5587 66 46.7957 66 46C66 45.2044 65.6839 44.4413 65.1213 43.8787C64.5587 43.3161 63.7956 43 63 43H37Z" fill="#E8E9E9"/>
<path d="M113.15 72.44L111.3 72.03L112.3 70.44C113.238 68.9558 113.772 67.2524 113.849 65.4985C113.926 63.7445 113.544 62.0008 112.74 60.44L113.07 60.11L107.01 54.03C105.391 52.43 103.278 51.4255 101.016 51.1804C98.7529 50.9352 96.4738 51.4638 94.55 52.68L92.96 53.68L92.56 51.83C92.0599 49.6091 90.8214 47.6235 89.0468 46.1977C87.2722 44.7718 85.0664 43.99 82.79 43.98H77.2C74.9248 43.9905 72.7205 44.7726 70.9476 46.1986C69.1746 47.6246 67.938 49.6099 67.44 51.83L67.03 53.68L65.44 52.68C63.5162 51.4638 61.2371 50.9352 58.9744 51.1804C56.7116 51.4255 54.5987 52.43 52.98 54.03L48.98 58.03C47.38 59.6487 46.3756 61.7616 46.1304 64.0244C45.8852 66.2871 46.4138 68.5662 47.63 70.49L48.63 72.07L46.79 72.48C44.5691 72.9801 42.5836 74.2186 41.1577 75.9932C39.7318 77.7678 38.95 79.9735 38.94 82.25V87.84C38.9711 90.1109 39.7697 92.3045 41.2059 94.0638C42.6421 95.8232 44.6313 97.0448 46.85 97.53L48.69 97.94L47.69 99.53C46.4738 101.454 45.9452 103.733 46.1904 105.996C46.4356 108.258 47.44 110.371 49.04 111.99L53.04 115.99C54.6587 117.59 56.7717 118.594 59.0344 118.84C61.2971 119.085 63.5762 118.556 65.5 117.34L67.09 116.34L67.5 118.19C67.998 120.41 69.2346 122.395 71.0076 123.821C72.7805 125.247 74.9848 126.03 77.26 126.04H82.85C85.1264 126.03 87.3322 125.248 89.1068 123.822C90.8814 122.396 92.1199 120.411 92.62 118.19L93.02 116.34L94.61 117.34C96.5338 118.556 98.8129 119.085 101.076 118.84C103.338 118.594 105.451 117.59 107.07 115.99L111.07 111.99C112.656 110.36 113.643 108.241 113.87 105.978C114.097 103.715 113.551 101.442 112.32 99.53L111.32 97.94L113.17 97.53C115.389 97.0303 117.374 95.7932 118.799 94.0207C120.225 92.2481 121.008 90.0447 121.02 87.77V82.21C121.009 79.9308 120.224 77.7229 118.794 75.9479C117.365 74.173 115.375 72.9361 113.15 72.44Z" fill="white"/>
<path fill-rule="evenodd" clip-rule="evenodd" d="M77.2 50C76.2896 50.0015 75.407 50.3134 74.6979 50.8843C73.9888 51.4552 73.4957 52.2509 73.3 53.14L72.11 58.53C71.9709 59.0639 71.71 59.5582 71.3478 59.9743C70.9855 60.3904 70.5318 60.7168 70.0221 60.9281C69.5125 61.1393 68.9608 61.2295 68.4104 61.1917C67.86 61.1538 67.3259 60.989 66.85 60.71L62.21 57.71C61.4406 57.2144 60.5244 56.9977 59.6145 57.0959C58.7046 57.1942 57.8559 57.6016 57.21 58.25L53.21 62.25C52.5615 62.8959 52.1542 63.7446 52.0559 64.6545C51.9577 65.5645 52.1744 66.4806 52.67 67.25L55.67 71.9C55.957 72.3647 56.1286 72.8913 56.1703 73.4358C56.2121 73.9804 56.1228 74.527 55.91 75.03C55.7047 75.5457 55.3787 76.0047 54.9594 76.3684C54.54 76.732 54.0396 76.9898 53.5 77.12L48.12 78.3C47.2292 78.4961 46.4323 78.9907 45.8612 79.7018C45.2901 80.413 44.9792 81.2979 44.98 82.21V87.8C44.9815 88.7103 45.2934 89.593 45.8643 90.3021C46.4352 91.0111 47.2309 91.5043 48.12 91.7L53.5 92.89C54.0362 93.0254 54.5334 93.2842 54.9519 93.6458C55.3704 94.0075 55.6986 94.4618 55.9103 94.9728C56.1221 95.4837 56.2115 96.037 56.1715 96.5887C56.1316 97.1403 55.9632 97.675 55.68 98.15L52.68 102.79C52.1844 103.559 51.9677 104.476 52.0659 105.385C52.1642 106.295 52.5715 107.144 53.22 107.79L57.22 111.79C57.8659 112.438 58.7146 112.846 59.6245 112.944C60.5344 113.042 61.4505 112.826 62.22 112.33L66.86 109.33C67.3348 109.049 67.8685 108.882 68.4189 108.842C68.9693 108.803 69.5214 108.892 70.0315 109.102C70.5417 109.313 70.9959 109.639 71.3583 110.055C71.7208 110.471 71.9815 110.966 72.12 111.5L73.31 116.89C73.5057 117.779 73.9988 118.575 74.7079 119.146C75.417 119.717 76.2996 120.029 77.21 120.03H82.8C83.712 120.031 84.597 119.72 85.3081 119.149C86.0193 118.578 86.5139 117.781 86.71 116.89L87.91 111.47C88.0484 110.936 88.3092 110.441 88.6716 110.025C89.0341 109.609 89.4883 109.283 89.9984 109.072C90.5086 108.862 91.0606 108.773 91.611 108.812C92.1615 108.852 92.6952 109.019 93.17 109.3L97.82 112.3C98.5894 112.796 99.5055 113.012 100.415 112.914C101.325 112.816 102.174 112.408 102.82 111.76L106.82 107.76C107.468 107.114 107.876 106.265 107.974 105.355C108.072 104.446 107.856 103.529 107.36 102.76L104.36 98.12C104.081 97.6441 103.916 97.1099 103.878 96.5596C103.84 96.0092 103.931 95.4575 104.142 94.9479C104.353 94.4382 104.68 93.9845 105.096 93.6222C105.512 93.26 106.006 92.9991 106.54 92.86L111.93 91.67C112.819 91.4743 113.615 90.9811 114.186 90.272C114.757 89.563 115.069 88.6803 115.07 87.77V82.21C115.07 81.2952 114.756 80.408 114.181 79.6965C113.606 78.985 112.804 78.4921 111.91 78.3L106.52 77.12C105.986 76.9809 105.492 76.72 105.076 76.3578C104.66 75.9955 104.333 75.5418 104.122 75.0321C103.911 74.5225 103.82 73.9708 103.858 73.4204C103.896 72.8701 104.061 72.3359 104.34 71.86L107.34 67.21C107.836 66.4406 108.052 65.5245 107.954 64.6145C107.856 63.7046 107.448 62.8559 106.8 62.21L102.8 58.21C102.154 57.5616 101.305 57.1542 100.395 57.0559C99.4855 56.9577 98.5694 57.1744 97.8 57.67L93.15 60.67C92.6774 60.9454 92.1478 61.1084 91.6021 61.1467C91.0565 61.1849 90.5094 61.0972 90.003 60.8904C89.4966 60.6836 89.0445 60.3632 88.6816 59.9539C88.3187 59.5447 88.0547 59.0575 87.91 58.53L86.73 53.14C86.5339 52.2493 86.0393 51.4523 85.3281 50.8812C84.617 50.3101 83.732 49.9992 82.82 50H77.2ZM79.5 98C81.9735 98 84.3915 97.2661 86.4477 95.8913C88.504 94.5164 90.1061 92.5624 91.0513 90.2766C91.9965 87.9908 92.2423 85.4759 91.7576 83.0503C91.2728 80.6247 90.0793 78.3975 88.3282 76.6506C86.577 74.9036 84.3469 73.7155 81.9202 73.2365C79.4934 72.7576 76.9792 73.0094 74.6956 73.9601C72.4121 74.9108 70.4619 76.5177 69.092 78.5772C67.7221 80.6368 66.994 83.0565 67 85.53C67.0079 88.84 68.3284 92.0117 70.6717 94.3494C73.0151 96.6872 76.19 98 79.5 98V98Z" stroke="#6200EE" stroke-width="4"/>
</g>
<defs>
<clipPath id="clip0_2463_7694">
<rect width="121" height="126" fill="white"/>
</clipPath>
</defs>
</svg>
