<svg width="15" height="14" viewBox="0 0 15 14" fill="none" xmlns="http://www.w3.org/2000/svg">
<path d="M7.32922 0.599976L9.82106 4.24575L14.0588 5.48931L11.3612 8.9859L11.488 13.4L7.32922 11.9152L3.17046 13.4L3.29723 8.9859L0.599609 5.48931L4.83738 4.24575L7.32922 0.599976ZM6.14993 7.38089H4.97064C4.97063 7.99621 5.21109 8.58718 5.64072 9.02769C6.07034 9.4682 6.6551 9.72337 7.27024 9.73876C7.88537 9.75415 8.48216 9.52853 8.93327 9.11005C9.38438 8.69158 9.65409 8.11337 9.68485 7.49881L9.6878 7.38089H8.50851C8.50988 7.6869 8.39224 7.98147 8.18044 8.20235C7.96865 8.42323 7.67928 8.55314 7.37348 8.56462C7.06768 8.5761 6.76938 8.46826 6.54162 8.26388C6.31386 8.0595 6.17446 7.77459 6.15288 7.46933L6.14993 7.38089Z" fill="#0065FF"/>
</svg>
