<svg width="10" height="13" viewBox="0 0 10 13" fill="none" xmlns="http://www.w3.org/2000/svg">
<path d="M2.63204 9.49999C2.45879 8.7574 1.67713 8.15015 1.35629 7.74999C0.806905 7.06357 0.462596 6.23593 0.363031 5.36238C0.263466 4.48884 0.412694 3.60494 0.793525 2.8125C1.17436 2.02007 1.7713 1.35133 2.51558 0.883326C3.25987 0.415323 4.12123 0.167096 5.00042 0.167236C5.87962 0.167377 6.7409 0.415881 7.48504 0.884122C8.22917 1.35236 8.8259 2.02129 9.20648 2.81385C9.58705 3.60641 9.736 4.49036 9.63615 5.36387C9.53631 6.23738 9.19174 7.06492 8.64213 7.75115C8.32129 8.15074 7.54079 8.75799 7.36754 9.49999H2.63146H2.63204ZM7.33313 10.6667V11.25C7.33313 11.5594 7.21021 11.8562 6.99142 12.0749C6.77263 12.2937 6.47588 12.4167 6.16646 12.4167H3.83313C3.52371 12.4167 3.22696 12.2937 3.00817 12.0749C2.78938 11.8562 2.66646 11.5594 2.66646 11.25V10.6667H7.33313ZM5.58313 4.83624V2.49998L2.95813 6.0029H4.41646V8.33624L7.04146 4.83624H5.58313Z" fill="#FFCE00"/>
</svg>
