<svg id="svg" version="1.1" xmlns="http://www.w3.org/2000/svg" xmlns:xlink="http://www.w3.org/1999/xlink" width="400" height="400" viewBox="0, 0, 400,400"><g id="svgg"><path id="path0" d="M166.400 72.813 C 101.512 78.820,51.881 129.090,47.180 193.568 C 42.195 261.953,99.520 326.262,173.600 335.390 C 178.554 336.000,203.925 336.092,209.200 335.519 C 275.951 328.263,342.953 282.117,359.036 232.322 C 363.019 219.992,362.119 213.164,355.756 207.421 C 350.429 202.613,349.266 202.419,325.707 202.408 L 307.813 202.400 307.654 197.000 C 305.796 133.723,256.703 81.163,192.000 73.177 C 187.847 72.665,170.645 72.420,166.400 72.813 M111.333 160.305 C 116.918 161.478,122.135 166.249,124.151 172.026 L 124.933 174.267 125.012 190.495 C 125.114 211.749,124.927 212.726,119.760 217.893 C 109.974 227.679,93.835 223.164,90.385 209.676 C 89.691 206.960,89.591 176.960,90.266 173.733 C 92.224 164.379,101.769 158.294,111.333 160.305 M172.662 160.448 C 177.354 161.621,181.754 165.177,183.955 169.573 C 185.901 173.461,185.900 173.457,185.810 192.400 L 185.729 209.200 185.017 211.156 C 180.464 223.656,165.258 227.185,155.970 217.897 C 150.829 212.756,150.616 211.645,150.720 190.519 L 150.800 174.267 151.623 171.969 C 154.812 163.061,163.683 158.203,172.662 160.448 " stroke="none" fill="#f0ecfb" fill-rule="evenodd"></path><path id="path1" d="M188.133 0.166 C 167.821 1.657,149.954 5.262,133.218 11.246 C 59.195 37.714,7.791 103.888,0.677 181.867 C -0.090 190.280,-0.093 211.162,0.673 217.600 C 0.734 218.113,0.840 219.133,0.910 219.867 C 0.979 220.600,1.098 221.740,1.175 222.400 C 1.251 223.060,1.362 224.080,1.421 224.667 C 1.480 225.253,1.556 225.733,1.589 225.733 C 1.621 225.733,1.690 226.213,1.740 226.800 C 1.791 227.387,1.908 228.347,1.999 228.933 C 2.091 229.520,2.160 230.264,2.154 230.587 C 2.147 230.910,2.248 231.240,2.379 231.320 C 2.510 231.401,2.554 231.708,2.477 232.002 C 2.400 232.296,2.456 232.686,2.601 232.868 C 2.746 233.051,2.827 233.433,2.782 233.718 C 2.736 234.003,2.771 234.354,2.860 234.498 C 2.949 234.641,3.055 235.068,3.096 235.446 C 3.199 236.402,3.359 237.121,3.587 237.654 C 3.693 237.904,3.708 238.225,3.619 238.369 C 3.531 238.512,3.569 238.699,3.705 238.783 C 3.841 238.867,3.919 239.145,3.877 239.401 C 3.836 239.657,3.920 240.015,4.064 240.197 C 4.208 240.378,4.258 240.704,4.175 240.921 C 4.091 241.139,4.149 241.394,4.302 241.488 C 4.455 241.583,4.521 241.887,4.448 242.163 C 4.376 242.440,4.434 242.738,4.577 242.827 C 4.719 242.915,4.773 243.151,4.696 243.352 C 4.620 243.552,4.670 243.786,4.808 243.871 C 4.946 243.957,5.051 244.290,5.043 244.613 C 5.024 245.331,5.148 245.893,5.423 246.333 C 5.538 246.517,5.562 246.778,5.478 246.915 C 5.394 247.051,5.455 247.244,5.614 247.342 C 5.773 247.440,5.840 247.685,5.763 247.885 C 5.686 248.086,5.746 248.326,5.896 248.418 C 6.047 248.511,6.107 248.751,6.030 248.952 C 5.953 249.152,6.013 249.392,6.163 249.485 C 6.313 249.578,6.373 249.818,6.296 250.018 C 6.220 250.219,6.275 250.456,6.419 250.545 C 6.563 250.634,6.663 250.848,6.642 251.020 C 6.539 251.852,6.663 252.151,6.938 251.733 C 7.155 251.404,7.194 251.428,7.159 251.867 C 7.135 252.160,7.135 252.670,7.158 253.000 L 7.200 253.600 32.867 253.579 C 46.983 253.567,58.390 253.500,58.215 253.428 C 58.040 253.357,57.959 253.136,58.036 252.937 C 58.112 252.738,57.948 252.348,57.671 252.071 C 57.393 251.793,57.207 251.445,57.257 251.297 C 57.386 250.908,56.011 248.000,55.698 248.000 C 55.553 248.000,55.510 247.879,55.601 247.731 C 55.804 247.403,55.500 246.348,55.247 246.504 C 55.148 246.565,55.046 246.357,55.020 246.041 C 54.995 245.725,54.130 243.007,53.098 240.000 C 33.677 183.430,59.668 118.736,113.944 88.549 C 148.037 69.586,189.815 67.011,226.215 81.628 C 274.338 100.953,308.000 149.476,308.000 199.520 L 308.000 202.400 326.891 202.400 C 350.422 202.400,351.071 202.520,356.409 207.858 C 363.759 215.208,363.372 225.242,355.062 242.849 C 354.287 244.489,353.722 245.899,353.805 245.982 C 353.888 246.065,353.808 246.133,353.629 246.133 C 353.449 246.133,353.376 246.253,353.467 246.400 C 353.557 246.547,353.497 246.667,353.333 246.667 C 353.169 246.667,353.092 246.758,353.161 246.870 C 353.230 246.982,352.923 247.608,352.478 248.260 C 352.034 248.912,351.636 249.570,351.596 249.723 C 351.318 250.761,351.112 251.177,350.929 251.064 C 350.813 250.992,350.590 251.264,350.432 251.667 C 350.274 252.070,349.948 252.670,349.707 253.000 L 349.268 253.600 370.976 253.600 L 392.684 253.600 393.032 252.333 C 393.224 251.637,393.449 250.887,393.533 250.667 C 393.616 250.447,393.662 250.126,393.635 249.953 C 393.608 249.781,393.704 249.567,393.848 249.478 C 393.992 249.389,394.047 249.152,393.970 248.952 C 393.893 248.751,393.953 248.511,394.104 248.418 C 394.254 248.326,394.314 248.086,394.237 247.885 C 394.160 247.685,394.227 247.440,394.386 247.342 C 394.545 247.244,394.606 247.051,394.522 246.915 C 394.438 246.778,394.462 246.517,394.577 246.333 C 394.852 245.893,394.976 245.331,394.957 244.613 C 394.949 244.290,395.054 243.957,395.192 243.871 C 395.330 243.786,395.380 243.552,395.304 243.352 C 395.227 243.151,395.281 242.915,395.423 242.827 C 395.566 242.738,395.624 242.440,395.552 242.163 C 395.479 241.887,395.539 241.587,395.685 241.496 C 395.831 241.406,395.891 241.106,395.818 240.830 C 395.746 240.553,395.812 240.249,395.965 240.155 C 396.118 240.060,396.175 239.805,396.092 239.588 C 396.009 239.371,396.073 239.034,396.235 238.839 C 396.396 238.644,396.455 238.410,396.365 238.320 C 396.275 238.230,396.292 237.941,396.404 237.678 C 396.641 237.121,396.800 236.411,396.904 235.446 C 396.945 235.068,397.051 234.641,397.140 234.498 C 397.229 234.354,397.264 234.003,397.218 233.718 C 397.173 233.433,397.254 233.051,397.399 232.868 C 397.544 232.686,397.600 232.296,397.523 232.002 C 397.446 231.708,397.490 231.401,397.621 231.320 C 397.752 231.240,397.853 230.910,397.846 230.587 C 397.840 230.264,397.909 229.520,398.001 228.933 C 398.092 228.347,398.209 227.387,398.260 226.800 C 398.310 226.213,398.379 225.733,398.411 225.733 C 398.444 225.733,398.520 225.253,398.579 224.667 C 398.638 224.080,398.749 223.060,398.825 222.400 C 398.902 221.740,399.021 220.600,399.090 219.867 C 399.160 219.133,399.266 218.113,399.327 217.600 C 399.881 212.942,400.096 192.926,399.663 186.400 C 392.719 81.863,306.402 0.687,201.600 0.132 C 194.927 0.097,188.867 0.112,188.133 0.166 M103.867 160.411 C 97.487 161.789,91.983 167.158,90.535 173.415 C 90.171 174.986,90.125 177.516,90.191 192.215 L 90.267 209.200 90.981 211.156 C 96.929 227.440,119.995 226.434,124.274 209.704 C 125.083 206.540,125.083 176.393,124.274 173.229 C 121.978 164.251,112.793 158.481,103.867 160.411 M165.028 160.403 C 158.369 161.729,153.135 166.677,151.459 173.229 C 150.964 175.165,150.933 176.235,150.933 191.467 C 150.933 211.895,151.093 212.703,156.121 217.757 C 165.271 226.954,180.641 223.306,184.874 210.933 C 185.784 208.272,185.941 176.058,185.059 172.845 C 182.686 164.193,173.778 158.660,165.028 160.403 " stroke="none" fill="#543ac8" fill-rule="evenodd"></path><path id="path2" d="M6.849 251.835 C 6.659 252.330,7.205 254.428,7.480 254.259 C 7.599 254.185,7.783 254.265,7.889 254.437 C 8.010 254.632,7.967 254.678,7.775 254.559 C 7.235 254.226,8.454 259.189,9.069 259.832 C 9.192 259.960,9.228 260.230,9.151 260.432 C 9.073 260.635,9.150 260.800,9.321 260.800 C 9.492 260.800,9.564 260.909,9.481 261.043 C 9.290 261.353,11.233 266.978,13.736 273.358 C 38.559 336.626,94.560 383.343,161.200 396.374 C 186.151 401.253,213.849 401.253,238.800 396.374 C 305.440 383.343,361.441 336.626,386.264 273.358 C 388.767 266.978,390.710 261.353,390.519 261.043 C 390.436 260.909,390.508 260.800,390.679 260.800 C 390.850 260.800,390.927 260.635,390.849 260.432 C 390.772 260.230,390.812 259.960,390.938 259.832 C 391.246 259.521,393.371 252.216,393.203 252.047 C 393.130 251.974,392.995 252.294,392.902 252.757 L 392.733 253.600 371.033 253.600 C 357.696 253.600,349.333 253.696,349.333 253.850 C 349.333 253.988,348.979 254.488,348.546 254.963 C 348.113 255.437,347.820 255.925,347.896 256.048 C 347.972 256.170,347.847 256.342,347.618 256.430 C 347.390 256.517,347.270 256.697,347.352 256.830 C 347.434 256.962,347.314 257.142,347.085 257.230 C 346.857 257.317,346.732 257.489,346.807 257.612 C 346.883 257.734,346.788 257.931,346.596 258.050 C 346.207 258.292,343.733 261.721,343.733 262.018 C 343.733 262.123,343.571 262.341,343.373 262.504 C 343.175 262.667,342.075 264.000,340.930 265.467 C 312.600 301.737,259.385 330.234,209.867 335.652 C 203.513 336.347,180.227 336.349,174.177 335.655 C 126.180 330.150,82.513 300.229,60.649 257.867 C 59.779 256.180,58.966 254.727,58.844 254.637 C 58.721 254.547,58.631 254.397,58.644 254.304 C 58.656 254.210,58.667 254.013,58.667 253.867 C 58.667 253.691,49.911 253.600,32.933 253.600 L 7.200 253.600 7.158 253.000 C 7.135 252.670,7.133 252.190,7.155 251.933 C 7.201 251.374,7.045 251.324,6.849 251.835 " stroke="none" fill="#5421f0" fill-rule="evenodd"></path><path id="path3" d="M118.933 164.350 C 118.933 164.396,119.323 164.786,119.800 165.217 L 120.667 166.000 119.883 165.133 C 119.153 164.325,118.933 164.144,118.933 164.350 M124.925 191.600 C 124.925 199.960,124.959 203.341,125.000 199.114 C 125.041 194.887,125.041 188.047,125.000 183.914 C 124.958 179.781,124.925 183.240,124.925 191.600 M150.791 191.467 C 150.791 199.753,150.825 203.143,150.866 199.000 C 150.908 194.857,150.908 188.077,150.866 183.933 C 150.825 179.790,150.791 183.180,150.791 191.467 M307.801 197.467 C 307.804 198.053,307.858 198.262,307.922 197.930 C 307.986 197.599,307.983 197.119,307.917 196.864 C 307.850 196.609,307.798 196.880,307.801 197.467 M46.773 202.133 C 46.773 204.260,46.814 205.130,46.865 204.067 C 46.915 203.003,46.915 201.263,46.865 200.200 C 46.814 199.137,46.773 200.007,46.773 202.133 M361.676 220.667 C 361.678 221.400,361.730 221.668,361.791 221.263 C 361.853 220.858,361.851 220.258,361.788 219.930 C 361.724 219.602,361.674 219.933,361.676 220.667 M106.867 223.122 C 107.197 223.185,107.737 223.185,108.067 223.122 C 108.397 223.058,108.127 223.006,107.467 223.006 C 106.807 223.006,106.537 223.058,106.867 223.122 M167.667 223.122 C 167.997 223.185,168.537 223.185,168.867 223.122 C 169.197 223.058,168.927 223.006,168.267 223.006 C 167.607 223.006,167.337 223.058,167.667 223.122 M182.870 336.189 C 183.201 336.252,183.681 336.250,183.936 336.183 C 184.191 336.116,183.920 336.064,183.333 336.067 C 182.747 336.070,182.538 336.125,182.870 336.189 M200.203 336.189 C 200.535 336.252,201.015 336.250,201.270 336.183 C 201.525 336.116,201.253 336.064,200.667 336.067 C 200.080 336.070,199.871 336.125,200.203 336.189 " stroke="none" fill="#947fe3" fill-rule="evenodd"></path><path id="path4" d="M172.067 72.450 C 172.323 72.518,172.743 72.518,173.000 72.450 C 173.257 72.383,173.047 72.329,172.533 72.329 C 172.020 72.329,171.810 72.383,172.067 72.450 M181.933 72.450 C 182.190 72.518,182.610 72.518,182.867 72.450 C 183.123 72.383,182.913 72.329,182.400 72.329 C 181.887 72.329,181.677 72.383,181.933 72.450 M188.083 336.200 C 190.255 336.244,193.735 336.244,195.816 336.199 C 197.897 336.154,196.120 336.118,191.867 336.118 C 187.613 336.118,185.911 336.155,188.083 336.200 " stroke="none" fill="#b4a4ec" fill-rule="evenodd"></path><path id="path5" d="" stroke="none" fill="#ac9cf4" fill-rule="evenodd"></path><path id="path6" d="M175.413 72.465 C 176.630 72.515,178.550 72.515,179.679 72.465 C 180.809 72.415,179.813 72.374,177.467 72.375 C 175.120 72.375,174.196 72.416,175.413 72.465 M84.800 110.533 C 83.707 111.633,82.873 112.533,82.947 112.533 C 83.020 112.533,83.974 111.633,85.067 110.533 C 86.159 109.433,86.993 108.533,86.920 108.533 C 86.847 108.533,85.893 109.433,84.800 110.533 M271.067 112.000 C 271.937 112.880,272.710 113.600,272.783 113.600 C 272.857 113.600,272.204 112.880,271.333 112.000 C 270.463 111.120,269.690 110.400,269.617 110.400 C 269.543 110.400,270.196 111.120,271.067 112.000 M107.000 159.917 C 107.257 159.984,107.677 159.984,107.933 159.917 C 108.190 159.850,107.980 159.795,107.467 159.795 C 106.953 159.795,106.743 159.850,107.000 159.917 M167.800 159.917 C 168.057 159.984,168.477 159.984,168.733 159.917 C 168.990 159.850,168.780 159.795,168.267 159.795 C 167.753 159.795,167.543 159.850,167.800 159.917 M307.823 200.533 C 307.823 201.633,307.870 202.083,307.928 201.533 C 307.985 200.983,307.985 200.083,307.928 199.533 C 307.870 198.983,307.823 199.433,307.823 200.533 M94.133 217.150 C 94.133 217.196,94.523 217.586,95.000 218.017 L 95.867 218.800 95.083 217.933 C 94.353 217.125,94.133 216.944,94.133 217.150 M180.519 218.067 L 179.600 219.067 180.600 218.148 C 181.531 217.292,181.723 217.067,181.519 217.067 C 181.474 217.067,181.024 217.517,180.519 218.067 M90.133 296.400 C 90.631 296.913,91.098 297.333,91.171 297.333 C 91.245 297.333,90.898 296.913,90.400 296.400 C 89.902 295.887,89.435 295.467,89.362 295.467 C 89.289 295.467,89.636 295.887,90.133 296.400 " stroke="none" fill="#c4b4ec" fill-rule="evenodd"></path><path id="path7" d="M185.725 191.467 C 185.725 199.900,185.759 203.350,185.800 199.133 C 185.841 194.917,185.841 188.017,185.800 183.800 C 185.759 179.583,185.725 183.033,185.725 191.467 M89.991 191.467 C 89.991 199.753,90.025 203.143,90.066 199.000 C 90.108 194.857,90.108 188.077,90.066 183.933 C 90.025 179.790,89.991 183.180,89.991 191.467 M46.734 197.467 C 46.737 198.053,46.791 198.262,46.855 197.930 C 46.919 197.599,46.917 197.119,46.850 196.864 C 46.783 196.609,46.731 196.880,46.734 197.467 M46.729 206.667 C 46.729 207.180,46.783 207.390,46.850 207.133 C 46.918 206.877,46.918 206.457,46.850 206.200 C 46.783 205.943,46.729 206.153,46.729 206.667 M119.583 217.933 L 118.800 218.800 119.667 218.017 C 120.475 217.287,120.656 217.067,120.450 217.067 C 120.404 217.067,120.014 217.457,119.583 217.933 M155.200 217.150 C 155.200 217.196,155.590 217.586,156.067 218.017 L 156.933 218.800 156.150 217.933 C 155.420 217.125,155.200 216.944,155.200 217.150 M331.583 276.067 L 330.800 276.933 331.667 276.150 C 332.475 275.420,332.656 275.200,332.450 275.200 C 332.404 275.200,332.014 275.590,331.583 276.067 " stroke="none" fill="#7a5be2" fill-rule="evenodd"></path><path id="path8" d="M329.059 278.600 L 327.333 280.400 329.133 278.674 C 330.805 277.072,331.055 276.800,330.859 276.800 C 330.818 276.800,330.008 277.610,329.059 278.600 M84.933 291.467 C 85.506 292.053,86.035 292.533,86.108 292.533 C 86.182 292.533,85.773 292.053,85.200 291.467 C 84.627 290.880,84.098 290.400,84.025 290.400 C 83.952 290.400,84.360 290.880,84.933 291.467 M87.989 294.467 C 89.094 295.644,89.333 295.856,89.333 295.656 C 89.333 295.613,88.763 295.043,88.067 294.389 L 86.800 293.200 87.989 294.467 " stroke="none" fill="#8464ec" fill-rule="evenodd"></path></g></svg>