<svg width="72" height="56" viewBox="0 0 72 56" fill="none" xmlns="http://www.w3.org/2000/svg">
<path d="M20.2261 49.9228C25.4521 48.644 30.3935 46.3942 35.3869 44.4197C36.7654 43.8143 38.1783 43.2468 39.4037 42.359C40.4105 41.6584 38.8936 40.7958 38.2092 40.6683C38.1095 40.662 38.0076 40.5856 37.9198 40.5226C37.2621 40.0503 36.601 39.583 35.9525 39.096C35.2773 38.5873 34.7194 37.9581 34.1749 37.317C34.1103 37.1467 33.4842 36.7698 33.9149 36.6703C34.4953 36.4741 34.9077 36.5414 35.3159 37.0676C35.936 37.812 36.654 38.4695 37.4504 39.0224C38.3638 39.569 39.1367 40.2661 40.0044 40.8848C42.1031 42.75 37.579 44.309 36.3087 45.0118C32.0123 46.7123 27.7559 48.5964 23.3464 50.0321C22.1049 50.3229 20.6856 51.2421 19.4413 50.573C15.9669 48.9755 13.5668 47.4263 11.5792 44.0343C8.18769 38.5257 8.49753 31.54 4.84961 26.1364C4.23343 25.2493 3.58915 24.3497 2.85212 23.5579C2.06098 22.8846 1.23613 22.2484 0.590438 21.43C-0.143783 20.8758 0.0283525 20.1534 0.57006 19.6363C1.93662 18.4171 3.70366 17.7872 5.32176 16.9737C7.12605 16.1217 8.97531 15.3664 10.8442 14.6769C12.1792 14.1528 13.5331 13.6862 14.8975 13.2468C15.1652 13.188 15.6739 12.7991 15.773 13.23C15.9901 13.8214 15.9395 13.8943 15.3437 14.0848C14.3334 14.4072 13.3251 14.7393 12.3225 15.0931C8.90926 16.2843 5.60773 17.7655 2.36381 19.3546C1.89236 19.5851 1.39843 19.8093 1.04713 20.2297C0.438676 20.8043 1.13215 21.0656 1.5783 21.3816C4.5468 22.9603 6.0623 26.1161 7.4647 29.0098C8.97038 32.5251 9.39547 36.3634 10.6721 39.9543C12.1574 44.4316 15.5805 48.5943 20.2261 49.9228Z" fill="#414E50"/>
<path d="M17.3803 25.66C16.8158 26.2477 16.4157 25.246 16.9552 25.1638C17.1064 25.2592 17.2089 25.4507 17.3803 25.66Z" fill="#414E50"/>
<path d="M17.2111 44.0266C16.493 43.7415 17.391 43.2461 17.724 43.0744C19.6414 42.1348 21.5848 41.2527 23.5324 40.3782C24.4838 40.0594 30.8247 36.657 31.0615 37.5405C31.592 38.2699 26.7517 39.7869 26.085 40.2171C23.1158 41.4769 20.2653 42.9707 17.2111 44.0266Z" fill="#414E50"/>
<path d="M15.6947 26.2106C15.8352 29.1191 11.6287 30.1975 10.3865 27.6435C10.4118 26.9428 10.0696 26.2583 10.3739 25.5415C11.2992 22.9105 15.6729 23.3008 15.6947 26.2106ZM14.7504 26.2653C14.7237 24.1065 11.3364 24.1367 10.9296 26.5203C10.8411 26.9905 11.3118 27.3562 11.5802 27.6877C12.6924 28.8865 14.8684 27.9049 14.7483 26.2681L14.7504 26.2653Z" fill="#414E50"/>
<path d="M29.217 41.4732C29.1587 41.5391 29.0828 41.6834 28.9627 41.7486C28.1519 42.1809 27.3417 42.616 26.512 43.0098C24.1189 44.1309 21.7102 45.2218 19.2857 46.2826C18.9189 46.4108 18.8445 46.0472 19.0047 45.7844C19.786 45.2533 20.6909 44.835 21.5284 44.3831C23.847 43.2417 26.1782 42.1157 28.5959 41.1908C28.8671 41.0745 29.2057 41.0297 29.217 41.4732Z" fill="#414E50"/>
<path d="M6.03736 21.0326C5.26449 20.5737 6.69288 20.2878 7.01538 20.0979C8.89227 19.4182 10.761 18.7176 12.6215 17.9959C13.4829 17.6778 14.3541 17.3863 15.2211 17.078C15.5471 17.0275 16.2855 16.4047 16.3523 16.9911C16.367 17.3337 16.549 17.5839 16.1008 17.6813C12.7578 18.8416 9.49698 20.2478 6.03736 21.0326Z" fill="#414E50"/>
<path d="M16.6261 19.8535C16.7322 20.3944 15.3993 20.5373 15.0143 20.7749C14.077 21.1161 13.1405 21.4601 12.199 21.7901C10.9441 22.1909 9.70263 22.6744 8.4274 22.996C8.05713 23.0597 8.03745 22.626 8.27493 22.4551C8.48145 22.3159 8.70418 22.2022 8.9382 22.1166C11.2364 21.2513 13.5416 20.4035 15.8307 19.515C16.2403 19.3497 16.6879 19.2025 16.6261 19.8535Z" fill="#414E50"/>
<path d="M13.965 37.3237C13.3403 37.4386 13.1282 36.9075 13.7949 36.7225C15.9121 35.9447 18.0155 35.1322 20.105 34.2849C20.3987 34.1363 21.44 34.5133 21.0184 34.8951C18.7089 35.7815 16.3847 36.7982 13.965 37.3237Z" fill="#414E50"/>
<path d="M12.5399 34.0712C12.0221 33.9458 12.3846 33.4673 12.7233 33.3769C13.5547 33.0265 14.3875 32.6806 15.2217 32.3392C16.2883 31.9041 17.3577 31.476 18.4256 31.045C18.7186 30.9105 18.9835 30.7991 19.0502 31.2251C19.195 31.6413 19.1535 31.7156 18.7284 31.869C18.1579 32.0729 17.5902 32.2852 17.0218 32.4947C15.5175 33.0174 14.0849 33.6592 12.5399 34.0712Z" fill="#414E50"/>
<path d="M20.6104 37.5141C21.0229 37.4356 21.0706 38.0151 20.6322 38.1048C18.9228 38.6997 17.2527 39.4494 15.4821 39.8467C15.2615 39.9167 14.8779 39.8151 14.8076 39.6119C14.8139 38.9225 16.999 38.6191 17.5906 38.3136C18.5729 37.9415 19.5565 37.5779 20.6104 37.5141Z" fill="#414E50"/>
<path d="M17.0982 23.3256C17.1684 23.7334 16.5874 23.8301 16.2916 23.8861C15.4344 23.6991 16.2642 23.1483 16.6935 23.0243C17.0413 22.887 17.1094 22.9409 17.0982 23.3256Z" fill="#414E50"/>
<path d="M14.7468 26.2681C14.8669 27.9077 12.691 28.8893 11.5766 27.6905C11.3075 27.3598 10.8375 26.9898 10.9253 26.5232C11.3328 24.136 14.7201 24.1073 14.7468 26.2681Z" fill="white"/>
<path d="M30.3869 0C32.8558 0.00700737 33.171 0.667102 34.9149 2.15477C38.9659 5.91913 39.6867 11.7065 39.963 16.9235C40.1297 21.9408 41.7408 27.0611 45.6922 30.4071C47.7344 32.3692 48.1619 33.339 45.0393 34.4651C41.7966 35.5407 38.4289 36.1763 35.0986 36.9176C32.4262 37.5434 29.7156 37.9737 27.0078 38.3955C26.109 38.4838 25.2674 38.4116 24.5735 37.7095C23.508 36.8847 22.3018 36.2043 21.3782 35.1917C16.1415 30.0679 17.0481 22.3682 15.7818 15.7729C15.3437 13.8262 14.7219 11.935 13.7474 10.1614C12.9179 8.57913 11.5951 7.411 10.6984 5.8869C10.4066 5.48537 10.673 4.83018 11.205 4.53868C14.6562 2.68593 18.6111 2.0861 22.3979 1.2375C25.0343 0.67085 27.7018 0.257641 30.3869 0ZM31.1189 0.854203C27.7272 1.12329 24.5128 1.68178 21.2009 2.35308C17.9744 3.1316 14.601 3.69499 11.5972 5.13641C10.1557 5.78599 13.4485 6.81047 14.7523 9.99742C16.0623 12.4843 16.7308 15.253 17.1251 18.0181C17.4869 21.2246 17.4671 24.4936 18.2797 27.6364C19.0754 30.9796 20.9302 34.0593 23.6599 36.1994C24.8194 37.1909 25.8977 37.8468 27.482 37.404C31.9174 36.8371 36.2667 35.7719 40.6251 34.8035C42.4701 34.3221 44.385 33.9907 46.1098 33.1526C47.4856 32.4224 45.517 31.5409 44.9432 31.0027C44.3532 30.4688 43.7893 29.9047 43.241 29.3287C40.5148 26.2868 39.4669 22.137 39.0719 18.1757C38.8599 13.0954 38.5469 7.6892 35.2343 3.52541C34.6252 2.74339 33.908 2.04265 33.2013 1.34191C32.547 1.06793 31.6821 1.00976 31.1189 0.851398V0.854203Z" fill="#122224"/>
<path d="M30.9516 0.680176C31.5116 0.83378 32.3664 0.894801 33.0161 1.17115C33.7161 1.87254 34.4253 2.57393 35.0294 3.35598C38.3106 7.52574 38.6194 12.9335 38.8315 18.0199C39.2235 21.9849 40.261 26.1392 42.9618 29.1833C43.5051 29.7598 44.0637 30.3244 44.6483 30.8589C45.2244 31.42 47.1797 32.2616 45.8041 33.0107C44.0959 33.8524 42.1974 34.1807 40.3702 34.6632C36.0515 35.6325 31.7427 36.6972 27.3491 37.2661C25.7802 37.703 24.7154 37.0613 23.5624 36.0604C20.8581 33.9176 19.0197 30.8364 18.2322 27.4887C17.4271 24.343 17.4467 21.0717 17.0883 17.8621C16.6997 15.0944 16.0382 12.3211 14.7375 9.83401C13.4409 6.63427 10.192 5.63269 11.6117 4.96847C14.5877 3.52501 17.9304 2.9625 21.1262 2.18256C24.4081 1.51133 27.5927 0.953016 30.9516 0.680176ZM37.7807 26.6716C33.0067 27.6915 28.2947 28.9832 23.6674 30.5404C23.225 30.8911 23.7788 31.1016 24.1351 30.9991C26.747 30.4254 29.3155 29.6897 31.9058 29.0268C33.9772 28.4657 36.0753 27.9944 38.116 27.3274C38.3148 27.2657 38.3792 27.117 38.3526 26.9269C38.2854 26.6316 38.0635 26.6793 37.7807 26.6744V26.6716ZM21.694 23.9502C26.5363 23.267 31.3814 22.2437 36.0494 20.8115C36.3295 20.6635 36.3778 20.1367 35.9451 20.2076C34.5142 20.3156 33.1575 20.8115 31.7643 21.1194C29.2815 21.6889 26.7956 22.2486 24.3066 22.7985C23.2971 23.0356 22.2456 23.1415 21.2487 23.4115C20.7559 23.7559 21.3937 23.9614 21.694 23.953V23.9502ZM18.739 8.88644C23.5232 8.04477 28.3761 7.22414 33.1162 6.13208C33.5257 6.03318 33.3661 5.58009 33.0322 5.51416C29.2833 5.78068 25.531 6.90922 21.8158 7.56081C20.7363 7.79156 19.6624 8.04757 18.585 8.29025C18.375 8.33655 18.1468 8.39547 18.165 8.64516C18.1923 8.92992 18.4611 8.85487 18.739 8.88644ZM34.9706 16.9454C30.8802 17.5451 26.7638 18.4751 22.7357 19.4452C22.0293 19.6787 21.1955 19.685 20.5655 20.0897C20.3408 20.3485 20.6838 20.5541 20.9323 20.4517C24.1708 19.9445 27.3512 19.1393 30.5777 18.5733C32.3475 18.2416 34.1355 17.9975 35.887 17.5781C36.2202 17.5079 36.1075 17.092 35.8352 17.0345C35.5811 16.9812 35.3144 16.9756 34.9706 16.944V16.9454ZM17.0533 6.5508C20.6033 6.10963 24.1421 5.35284 27.6641 4.70756C28.829 4.44033 30.0499 4.427 31.177 4.02019C31.5368 3.92691 31.4465 3.58533 31.1861 3.44014C30.486 3.21289 29.7034 3.51028 28.9872 3.58042C26.2878 4.09243 23.5925 4.63251 20.8952 5.15505C19.3796 5.51696 17.7792 5.6404 16.3147 6.16504C15.9619 6.5985 16.7508 6.52135 17.0533 6.5508ZM21.9082 15.6198C24.2842 15.7874 25.991 13.2351 24.5481 11.4157C23.5904 10.2015 21.8508 9.982 20.5893 10.9871C19.7191 11.6422 19.6792 12.3639 19.6687 13.3802C19.4398 14.6378 21.0436 15.6156 21.9082 15.6198ZM25.3945 33.6378C28.3088 32.8719 31.1266 32.0021 34.0395 31.2622C34.6052 31.1016 35.1498 30.8673 35.7029 30.6632C35.8961 30.593 35.9626 30.4422 35.9045 30.2515C35.8464 30.0607 35.7015 30.0544 35.5286 30.0922C34.9531 30.2192 34.37 30.3146 33.8001 30.4598C32.288 30.8708 30.7766 31.2881 29.2658 31.7005C27.9287 32.1059 26.5944 32.5247 25.3063 33.0675C24.8939 33.2247 25.0816 33.5185 25.3945 33.6392V33.6378ZM26.0743 11.0334C28.6834 10.4723 31.3667 10.2107 33.9233 9.43142C34.1621 9.31428 34.2132 8.83313 33.8323 8.8703C32.6632 8.8191 31.5263 9.14034 30.3887 9.36128C30.0219 9.54855 24.1022 10.459 26.0743 11.0348V11.0334ZM22.6867 26.6835C24.4522 26.438 26.1919 26.114 27.9371 25.7675C28.6162 25.7268 28.5133 25.0521 27.858 25.1706C27.4317 25.1362 19.8801 25.8832 22.6867 26.6849V26.6835ZM30.6947 11.4732C30.6947 11.4598 30.6905 11.4472 30.6891 11.4346C29.4507 11.6275 28.229 11.9564 26.999 12.2061C26.649 12.2426 25.9713 12.601 26.5167 12.911C26.803 13.045 27.1292 12.9755 27.4268 12.911C28.7835 12.7209 30.1122 12.4025 31.4346 12.056C31.6138 12.009 31.7784 11.9277 31.7784 11.7292C31.7035 11.2445 31.0328 11.4276 30.6947 11.4746V11.4732Z" fill="white"/>
<path d="M37.8802 26.8648C38.1706 26.8683 38.385 26.8213 38.4554 27.1241C38.4822 27.3178 38.4174 27.4681 38.2172 27.5308C36.1622 28.2083 34.0493 28.6884 31.9633 29.2569C29.3549 29.9301 26.769 30.6774 24.138 31.2601C23.8003 31.3577 23.2074 31.1561 23.6671 30.7942C28.327 29.2125 33.0724 27.9005 37.8802 26.8648Z" fill="#122224"/>
<path d="M21.7502 24.1427C21.462 24.1497 20.7947 23.9508 21.302 23.6069C22.3062 23.3372 23.3639 23.2314 24.38 22.9947C26.8845 22.4474 29.3867 21.8884 31.8869 21.3178C33.2892 21.0082 34.6549 20.513 36.0953 20.4072C36.5272 20.3477 36.4913 20.8492 36.1996 21.0096C31.5015 22.4385 26.6244 23.4605 21.7502 24.1427Z" fill="#122224"/>
<path d="M18.6351 9.18077C18.3532 9.15035 18.0846 9.22603 18.0599 8.93747C18.0388 8.68569 18.2714 8.62628 18.4829 8.5796C19.5676 8.33489 20.6489 8.07673 21.7358 7.84405C25.4765 7.187 29.2538 6.04903 33.029 5.78027C33.3518 5.84746 33.5393 6.2994 33.1129 6.40266C28.3389 7.50315 23.4514 8.33206 18.6351 9.18077Z" fill="#122224"/>
<path d="M34.9561 17.0024C35.3007 17.0359 35.5682 17.0418 35.8258 17.0968C36.0834 17.1517 36.2203 17.598 35.8777 17.6723C34.1229 18.1179 32.3288 18.3748 30.5543 18.7261C27.3192 19.3254 24.1296 20.178 20.8833 20.7149C20.6411 20.8219 20.2824 20.608 20.5155 20.3317C21.143 19.9032 21.9811 19.8965 22.6914 19.6492C24.0208 19.292 25.3587 18.9712 26.6994 18.6734C29.4046 18.0228 32.2228 17.4139 34.9561 17.0024Z" fill="#122224"/>
<path d="M17.1907 6.80113C16.8698 6.77127 16.0961 6.85039 16.4466 6.38841C17.9213 5.83015 19.5342 5.69879 21.0611 5.31293C23.7785 4.75766 26.4916 4.18297 29.2132 3.63815C29.9361 3.56351 30.7203 3.25005 31.4284 3.48888C31.6766 3.64412 31.7951 4.00385 31.4192 4.10685C30.2845 4.54196 29.0531 4.55465 27.8803 4.83826C24.3356 5.52639 20.7699 6.33168 17.1907 6.80113Z" fill="#122224"/>
<path d="M22.0246 15.6351C21.1601 15.6351 19.5516 14.6858 19.7809 13.47C19.7914 12.4888 19.8321 11.7884 20.7036 11.1564C21.9657 10.1848 23.7094 10.397 24.6686 11.5707C26.1129 13.3297 24.4042 15.7978 22.0246 15.6351ZM22.3204 14.8146C25.0444 14.799 24.8894 11.014 22.0652 11.4561C21.2505 11.5714 19.9618 12.7018 20.5227 13.5107C20.8824 14.2111 21.383 14.856 22.3204 14.816V14.8146Z" fill="#122224"/>
<path d="M25.5252 33.6651C24.3898 33.1713 26.5517 32.7819 26.9159 32.5771C29.7929 31.6751 32.7182 30.8748 35.6829 30.2826C35.8562 30.2464 36.0007 30.2504 36.0597 30.4345C36.1186 30.6185 36.0512 30.759 35.8576 30.8272C35.3032 31.022 34.7573 31.2455 34.1904 31.3987C31.2685 32.1047 28.447 32.9351 25.5252 33.6651Z" fill="#122224"/>
<path d="M26.2857 11.2219C24.2954 10.6823 30.2626 9.82395 30.6321 9.64912C31.7782 9.43866 32.9235 9.1365 34.1013 9.1873C34.4779 9.15629 34.4405 9.60624 34.1929 9.71509C31.6174 10.4481 28.9141 10.6915 26.2857 11.2219Z" fill="#122224"/>
<path d="M22.7752 26.8641C19.9213 25.9731 27.584 25.1461 28.0471 25.1797C28.7049 25.0462 28.8319 25.7958 28.1277 25.8442C26.3476 26.23 24.5746 26.5908 22.7752 26.8641Z" fill="#122224"/>
<path d="M30.9196 11.6406C31.2583 11.5895 31.9224 11.3942 31.9984 11.9148C32.0102 12.5084 28.2965 13.0268 27.6665 13.1816C27.3703 13.2492 27.0449 13.3236 26.7605 13.1816C26.2191 12.8495 26.8944 12.4663 27.2407 12.4265C28.4651 12.1598 29.6798 11.8074 30.914 11.6C30.9154 11.6128 30.9175 11.6263 30.9196 11.6406Z" fill="#122224"/>
<path d="M22.3016 14.961C21.4015 15.0004 20.9191 14.3581 20.5715 13.6554C20.0325 12.8448 21.2735 11.715 22.0536 11.5982C24.7707 11.1555 24.9182 14.9454 22.3016 14.961Z" fill="white"/>
<path d="M56.9852 18.3728C57.8612 22.4834 56.4677 26.9738 52.6637 29.0011C52.2044 29.1301 52.8805 30.0117 52.9355 30.3365C52.9679 30.4127 52.9897 30.52 53.1053 30.4381C54.883 29.5493 57.2971 29.8605 58.9067 30.9526C62.5181 33.4426 62.9198 38.1593 65.1242 41.6404C65.3652 42.3112 66.373 40.9522 67.5391 41.453C67.9797 41.6046 68.2232 42.0607 68.0443 42.5524C67.909 42.9203 68.0337 43.1114 68.2698 43.3543C69.1632 44.2724 70.0342 45.2107 70.9156 46.1422C71.0184 46.2504 71.2017 46.3646 71.0512 46.523C70.8053 46.7653 70.297 46.0509 70.0786 45.9173C69.2129 45.156 68.3471 44.3949 67.481 43.6337C67.202 43.4077 66.9739 43.0919 67.1199 42.7224C67.7548 41.4828 65.4423 42.6998 65.095 42.9669C63.3797 44.1371 61.6062 45.7214 61.1878 47.8424C61.1234 48.5505 62.1784 47.7837 62.6328 48.6555C63.2676 49.5851 63.9116 50.5081 64.5515 51.4337C64.7723 51.7935 65.1207 52.0944 65.1596 52.5344C64.9648 52.4783 64.7558 52.434 64.6343 52.2552C63.9001 51.3129 63.1213 50.4019 62.422 49.4331C61.8104 48.2933 60.4067 49.5904 60.4329 47.7287C60.59 46.127 61.7998 46.0093 59.7891 45.1107C59.4571 44.9979 59.0425 45.1577 59.15 45.5729C59.5841 47.5926 56.8334 49.4991 55.3609 47.3414C55.0334 46.7991 54.9144 46.195 54.8002 45.5838C54.7267 45.2478 54.7115 45.2239 54.3801 45.3087C52.8589 45.7052 50.8046 45.0508 50.5278 43.3246C50.5423 43.0792 50.439 42.9929 50.2154 42.9163C48.4932 42.392 47.2723 40.4946 47.7285 38.712C48.3916 37.8762 46.7317 36.8405 47.7517 34.7348C47.9675 34.2456 48.3617 33.929 48.8275 33.7018C49.3034 33.4614 49.5303 32.9526 49.9243 32.6143C50.1857 32.4342 49.5131 31.1745 49.4687 30.7655C49.3438 30.0446 48.7439 30.3996 48.266 30.5328C40.938 32.1259 35.4811 23.2882 38.1551 16.9069C39.1695 13.9651 41.795 12.0538 44.7214 11.1911C50.3441 9.09915 55.7061 12.7918 56.9852 18.3728ZM42.0978 13.2711C34.3454 17.9242 39.2221 31.7778 48.3083 29.8844C40.6478 29.092 37.1822 18.812 42.1713 13.2155C42.1304 13.2001 42.1207 13.2451 42.0976 13.2698L42.0978 13.2711ZM40.7943 21.8637C42.7439 30.7829 54.1133 32.1421 56.2508 22.5911C56.7688 19.8155 55.9984 16.7717 54.2284 14.5739C48.3642 7.40487 38.8161 13.4377 40.7941 21.8625L40.7943 21.8637ZM53.788 30.7395C53.5664 30.804 53.0484 30.7905 53.2314 31.146C53.3689 31.4234 53.3734 31.6921 53.7482 31.7093C54.1254 31.7787 56.3974 32.2822 56.1017 32.8151C56.0365 32.9609 55.9055 32.9563 55.7747 32.9235C53.3172 32.1148 49.7268 32.1363 49.2986 35.3702C49.1182 36.4547 49.5286 37.2617 50.4133 37.8594C50.818 38.1343 51.2929 38.1065 51.6247 37.8099C52.1379 37.3967 51.9952 37.3043 51.5046 36.9922C51.1055 36.7983 51.3143 36.4037 51.7131 36.4594C54.0147 36.8476 54.3479 39.601 56.2122 40.635C57.1145 41.2139 58.1506 41.3574 59.2102 41.3468C59.3996 41.3724 59.4718 41.5563 59.3281 41.6925C59.0625 41.9648 58.6442 41.9154 58.2956 41.96C57.8229 41.9157 58.121 42.2565 58.1887 42.5102C59.2635 44.7061 58.312 45.0569 60.5335 43.6135C60.65 43.5378 60.7857 43.4405 60.9135 43.5819C61.0542 43.7398 60.9376 43.8731 60.8278 43.9836C60.6912 44.1904 60.2702 44.3346 60.3217 44.6075C60.875 44.7409 61.2409 45.782 61.4476 45.3577C62.2243 44.2291 63.2306 43.2817 64.3636 42.5131C64.5506 42.3873 64.5431 42.2855 64.4238 42.1038C61.632 37.5444 61.0848 29.4942 53.7865 30.7385L53.788 30.7395ZM48.3641 39.8743C48.8313 42.8577 54.1893 43.3433 54.3507 40.1227C54.3247 39.9226 54.136 39.7613 54.0208 39.5981C53.7717 39.0898 53.4149 40.1703 52.1194 40.3225C50.6837 40.5803 49.3254 39.8995 48.3581 38.8822C48.2599 39.2039 48.3617 39.5452 48.3641 39.8743ZM58.2823 45.2081C58.0639 44.6662 57.3267 41.5674 56.6349 41.7031C57.3082 42.8142 56.5972 44.1878 55.5597 44.7785C55.3753 44.8878 55.2938 45.0118 55.355 45.2237C55.4947 45.7094 55.6013 46.2053 55.7672 46.6818C55.9527 47.2148 56.5371 47.5897 57.0426 47.5559C58.2493 47.5583 58.5829 46.1141 58.2798 45.2085L58.2823 45.2081ZM54.1378 44.6297C55.4801 44.4025 57.1933 42.443 55.3126 41.592C55.0027 41.4482 54.937 41.4879 54.6926 41.7313C54.2842 42.1972 53.776 42.5657 53.2057 42.8094C52.6354 43.0531 52.0176 43.1659 51.398 43.1394C51.1242 43.1327 51.0698 43.2038 51.1665 43.462C51.5882 44.6148 53.0354 44.7813 54.1353 44.6301L54.1378 44.6297ZM48.0859 36.8469C48.5192 38.495 49.9334 39.7864 51.7006 39.6882C52.3388 39.6664 52.9205 39.4544 53.31 38.8973C53.5653 38.5914 52.803 38.0464 52.6285 37.7785C52.5085 37.6507 52.3754 37.6816 52.2846 37.8403C51.0064 39.8538 48.3179 37.7117 48.5393 35.624C48.5637 35.2362 48.7022 34.8564 48.7097 34.4668C48.0139 35.0223 47.9526 35.9443 48.0859 36.8469ZM50.4842 31.8701C50.4867 32.0431 50.4685 32.2309 50.6938 32.0998C51.2712 31.8143 51.8879 31.6915 52.5277 31.663C52.6897 31.6564 52.767 31.5887 52.6888 31.4198C52.4234 30.8468 52.1585 30.2733 51.8938 29.6993C51.8089 29.5161 51.7115 29.4717 51.5002 29.5653C51.0896 29.7469 50.6589 29.8824 50.2338 30.0284C49.9695 30.1195 49.9497 30.1366 50.0242 30.4219C50.2013 30.8967 50.3337 31.3809 50.4867 31.8697L50.4842 31.8701Z" fill="#122224"/>
<path d="M40.7941 21.8625C38.8173 13.437 48.3629 7.40447 54.2257 14.5731C55.9957 16.7709 56.7661 19.8146 56.2481 22.5903C54.112 32.1423 42.7422 30.78 40.7941 21.8625ZM50.1631 28.6042C50.3808 28.5064 50.5208 28.4699 50.633 28.391C50.8842 28.224 50.8512 27.9418 50.518 27.961C47.7986 27.952 45.012 26.9283 43.4407 24.6221C43.1577 24.3251 42.9571 23.7158 42.482 23.7423C42.3057 23.7934 42.3185 23.9789 42.3508 24.137C43.5285 27.2255 47.0457 28.6846 50.1631 28.6042ZM46.5676 12.5748C45.8426 12.747 45.1582 13.0584 44.5524 13.4915C44.3792 13.5914 44.0127 14.0976 44.4384 14.0711C45.2863 13.689 46.1142 13.2615 47.0731 13.2506C48.3831 13.1051 49.6389 13.3782 50.8936 13.727C51.037 13.7616 51.1745 13.8042 51.2657 13.6435C51.3496 13.4942 51.2922 13.3566 51.1704 13.2744C49.8475 12.306 48.1192 12.3776 46.5676 12.5748ZM52.1766 14.0509C51.3851 14.2591 52.6863 15.1752 53.0012 14.9349C53.0409 14.8392 53.0494 14.667 52.989 14.6047C52.755 14.4037 52.4936 14.0925 52.1766 14.0509Z" fill="#CBB5F5"/>
<path d="M53.7903 30.7385C61.0923 29.4974 61.6326 37.5404 64.4282 42.0998C64.5476 42.2816 64.5551 42.3834 64.368 42.5091C63.2357 43.2777 62.2287 44.2252 61.452 45.3537C61.2517 45.7822 60.876 44.7356 60.3261 44.6036C60.2763 44.333 60.6932 44.183 60.8322 43.9797C60.9433 43.869 61.0587 43.7359 60.918 43.578C60.6956 43.3118 59.9032 44.0954 59.6195 44.2105C59.5384 44.2667 59.4527 44.316 59.3633 44.3578C58.995 44.5188 58.9808 44.6502 58.8311 44.1539C58.6615 43.5916 58.4099 43.0542 58.1944 42.5061C58.1255 42.2487 57.8289 41.9135 58.3013 41.9558C58.6499 41.9119 59.0681 41.9601 59.3338 41.6884C59.4755 41.5474 59.4131 41.3728 59.2159 41.3427C58.1556 41.3533 57.1196 41.2105 56.2178 40.6309C54.3543 39.5974 54.0203 36.8435 51.7188 36.4553C51.3337 36.4013 51.0988 36.7885 51.5103 36.9881C52.0052 37.3027 52.1422 37.3915 51.6304 37.8057C51.2951 38.1004 50.8205 38.1307 50.419 37.8553C49.5368 37.2572 49.1239 36.4506 49.3043 35.3661C49.7351 32.1324 53.3196 32.11 55.7803 32.9194C55.9137 32.9518 56.0428 32.9566 56.1074 32.8109C56.4015 32.2757 54.138 31.7779 53.7539 31.7052C53.3839 31.6943 53.3709 31.4128 53.2371 31.1419C53.0498 30.7832 53.5698 30.806 53.7903 30.7385Z" fill="white"/>
<path d="M42.0981 13.2684C37.2402 18.9373 40.6635 29.0767 48.3094 29.8829C39.2212 31.776 34.3481 17.9205 42.0989 13.2696L42.0981 13.2684Z" fill="#8850EA"/>
<path d="M48.3634 39.8745C48.3635 39.5449 48.2591 39.2041 48.3576 38.8842C49.3249 39.9016 50.682 40.5825 52.1189 40.3245C53.4157 40.1722 53.7689 39.0928 54.0204 39.6002C54.1353 39.7615 54.324 39.9228 54.3502 40.1248C54.1861 43.3439 48.8274 42.8584 48.3634 39.8745Z" fill="white"/>
<path d="M58.2822 45.2084C58.5847 46.1141 58.2518 47.5588 57.0432 47.5561C56.5352 47.5903 55.9531 47.2137 55.7678 46.682C55.6019 46.2055 55.4953 45.7096 55.3556 45.2239C55.2941 45.0101 55.3759 44.888 55.5603 44.7787C56.5977 44.188 57.3079 42.8132 56.6355 41.7033C57.3241 41.5636 58.0659 44.6713 58.2822 45.2084Z" fill="#8850EA"/>
<path d="M54.1379 44.63C53.038 44.7818 51.5903 44.6153 51.1685 43.4626C51.0719 43.2044 51.1263 43.1333 51.4 43.14C52.0197 43.1665 52.6375 43.0537 53.2078 42.81C53.778 42.5662 54.2862 42.1978 54.6946 41.7318C54.9372 41.4887 55.0033 41.4516 55.3146 41.5926C57.1929 42.4439 55.4808 44.4026 54.1379 44.63Z" fill="white"/>
<path d="M48.0888 36.8466C47.9525 35.9451 48.0142 35.0218 48.7145 34.4662C48.7071 34.8558 48.5683 35.2344 48.5441 35.6234C48.3195 37.711 51.0081 39.8537 52.2894 37.8398C52.3802 37.681 52.5134 37.6501 52.6327 37.7781C52.8106 38.0473 53.569 38.5923 53.3148 38.8967C52.9266 39.4536 52.3474 39.6653 51.7054 39.6877C49.9395 39.7857 48.5241 38.4944 48.0888 36.8466Z" fill="white"/>
<path d="M50.487 31.869C50.3341 31.3809 50.2016 30.896 50.027 30.4209C49.9529 30.1381 49.9723 30.1184 50.2366 30.0274C50.663 29.8811 51.0911 29.7461 51.503 29.5643C51.7143 29.4707 51.8118 29.5163 51.8966 29.6982C52.1612 30.2718 52.4262 30.8453 52.6915 31.4187C52.7698 31.5876 52.6924 31.6553 52.5305 31.662C51.8932 31.69 51.274 31.8132 50.6966 32.0988C50.4723 32.2284 50.4887 32.0447 50.487 31.869Z" fill="#8850EA"/>
<path d="M50.1643 28.6041C47.0466 28.6826 43.5291 27.2255 42.3508 24.1371C42.2277 23.7582 42.5844 23.6093 42.8457 23.8617C43.0579 24.1046 43.2569 24.3586 43.442 24.6226C45.0133 26.9288 47.7992 27.9519 50.5192 27.9609C50.8424 27.9388 50.8929 28.2227 50.6342 28.3909C50.522 28.4698 50.3837 28.5086 50.1643 28.6041Z" fill="white"/>
<path d="M46.5683 12.5744C48.1198 12.3767 49.8488 12.3055 51.1681 13.2713C51.2904 13.3566 51.3477 13.4942 51.2633 13.6404C51.1741 13.8009 51.0365 13.7583 50.8913 13.7239C49.6366 13.3751 48.3808 13.102 47.0707 13.2475C46.11 13.2587 45.2839 13.6859 44.4361 14.068C44.009 14.0941 44.3789 13.5886 44.55 13.4884C45.1568 13.0556 45.8424 12.7451 46.5683 12.5744Z" fill="white"/>
<path d="M52.1784 14.0507C52.4954 14.0923 52.7562 14.4037 52.9909 14.6046C53.0512 14.6669 53.0427 14.839 53.0031 14.9348C52.6882 15.1751 51.3869 14.2589 52.1784 14.0507Z" fill="white"/>
</svg>
