<svg xmlns="http://www.w3.org/2000/svg" version="1.1" xmlns:xlink="http://www.w3.org/1999/xlink" xmlns:svgjs="http://svgjs.com/svgjs" width="27" height="24"><svg width="27" height="24" viewBox="0 0 27 24" fill="none" xmlns="http://www.w3.org/2000/svg">
<path d="M8.97791 13.9264C6.43299 13.9264 4.66568 11.9116 4.66568 8.94256C4.66568 6.00884 6.43299 3.99411 8.97791 3.99411C10.4271 3.99411 12.0884 4.84242 12.8306 5.93814V11.9823C12.0884 13.0427 10.4271 13.9264 8.97791 13.9264ZM7.56407 17.9205C9.57879 17.9205 11.4521 17.0722 12.8306 15.3049V24H17.3549V0.424154H12.8306V2.58027C11.5228 0.918999 9.64948 0 7.56407 0C3.18115 0 0 3.25184 0 8.94256C0 14.6333 3.18115 17.9205 7.56407 17.9205Z" fill="black"></path>
<path d="M24.071 17.8851C25.6262 17.8851 26.934 16.5773 26.934 15.0221C26.934 13.4669 25.6262 12.1591 24.071 12.1591C22.5157 12.1591 21.2079 13.4669 21.2079 15.0221C21.2079 16.5773 22.5157 17.8851 24.071 17.8851Z" fill="black"></path>
</svg><style>@media (prefers-color-scheme: light) { :root { filter: none; } }
</style></svg>