<svg width="304" height="304" viewBox="0 0 304 304" fill="none" xmlns="http://www.w3.org/2000/svg">
<rect width="304" height="304" fill="white"/>
<g clip-path="url(#clip0_583_840)">
<path d="M90.984 132.28C80.776 140.864 71.264 150.144 61.984 159.192V127.176C82.168 104.208 119.52 72.656 164.992 72.656C202.344 72.656 239.696 94.464 268 127.176V159.192C250.832 141.56 229.72 122.768 207.912 110.704C220.208 138.08 210.232 161.744 199.56 174.968L203.272 179.608C217.192 168.936 230.416 156.408 241.784 144.344V177.056C213.712 209.768 176.824 231.112 139.472 231.112C101.888 231.112 64.536 209.768 36 177.056V144.344C64.536 173.808 101.888 205.128 139.472 205.128C147.36 205.128 155.48 203.736 162.904 201.184L161.512 197.008C117.432 201.88 88.2 167.08 90.984 132.28ZM36 268H268V182.624C268 182.624 257.328 194.456 241.784 205.128V242.016H61.984V226.704C46.904 216.96 36 205.128 36 205.128V268ZM36 121.144C36 121.144 46.904 109.544 61.984 99.104V61.984H241.784V77.064C257.56 87.04 268 99.104 268 99.104V61.984H241.784V36H36V121.144ZM146.896 121.376C156.64 121.376 164.76 129.96 164.76 139.472H169.632C169.632 129.96 177.752 121.376 187.728 121.376V116.272C177.752 116.272 169.632 108.152 169.632 98.64H164.76C164.76 108.152 156.64 116.272 146.896 116.272V121.376Z" fill="#1F1F33"/>
</g>
<defs>
<clipPath id="clip0_583_840">
<rect width="232" height="232" fill="white" transform="translate(36 36)"/>
</clipPath>
</defs>
</svg>
