<svg width="84" height="16" viewBox="0 0 84 16" fill="none" xmlns="http://www.w3.org/2000/svg">
<path d="M29.2959 7.68326C29.2959 5.05558 27.5529 2.92967 24.648 2.92967C21.743 2.92967 20 5.05558 20 7.68326C20 10.3109 21.743 12.4368 24.648 12.4368C25.3214 12.4368 25.942 12.318 26.4834 12.1067L27.3417 13.1763H29.0846L27.6718 11.4201C28.7149 10.5486 29.2959 9.20176 29.2959 7.68326ZM24.648 10.8523C22.8654 10.8523 21.7958 9.43944 21.7958 7.68326C21.7958 5.92707 22.8654 4.5142 24.648 4.5142C26.4305 4.5142 27.5001 5.92707 27.5001 7.68326C27.5001 8.64718 27.1832 9.50546 26.6022 10.0865L25.8628 9.16215H24.1198L25.4006 10.7599C25.1629 10.8259 24.912 10.8523 24.648 10.8523Z" fill="#1F1F33"/>
<path d="M32.2531 12.4368C33.4679 12.4368 34.2337 11.4465 34.577 10.7599C34.6299 10.6542 34.6695 10.575 34.7751 10.6014C34.9468 10.641 34.8675 10.8259 34.8147 10.9447C34.6959 11.222 34.6035 11.4729 34.6035 11.8955V12.3312H36.2936V5.35928L34.6035 5.35928V8.19823C34.6035 9.80917 33.7056 10.9051 32.7284 10.9051C31.8437 10.9051 31.4344 10.4694 31.4344 8.89806V5.35928H29.7442V9.47906C29.7442 11.4597 30.7478 12.4368 32.2531 12.4368Z" fill="#1F1F33"/>
<path d="M43.5055 8.75281C43.5055 6.21757 41.8285 5.25365 40.2176 5.25365C38.0917 5.25365 36.7448 6.66652 36.7448 8.84524C36.7448 10.9183 37.9861 12.4368 40.244 12.4368C42.1058 12.4368 43.083 11.3409 43.3867 9.9016H41.6701C41.472 10.5222 41.0627 10.9579 40.2572 10.9579C39.2009 10.9579 38.5142 10.3241 38.3954 9.26778H43.4659C43.4923 9.06972 43.5055 8.93768 43.5055 8.75281ZM38.4614 8.1058C38.6331 7.27392 39.1216 6.6269 40.2704 6.6269C41.2475 6.6269 41.7493 7.26072 41.8153 8.1058H38.4614Z" fill="#1F1F33"/>
<path d="M43.7375 9.98082C43.8035 11.4729 44.8731 12.4368 46.8934 12.4368C48.9532 12.4368 50.0756 11.605 50.0756 10.1525C50.0756 8.75281 48.8476 8.19823 47.1442 8.02657C45.7842 7.89453 45.6389 7.61723 45.6389 7.28712C45.6389 6.89099 45.9294 6.57409 46.8934 6.57409C47.8705 6.57409 48.161 7.06265 48.2006 7.49839H49.8643C49.7719 6.23077 48.7684 5.25365 46.933 5.25365C44.9523 5.25365 43.9488 6.24398 43.9488 7.37955C43.9488 8.15861 44.2261 9.26778 46.3652 9.53187C47.6988 9.69033 48.3854 9.76955 48.3854 10.2845C48.3854 10.7467 48.0289 11.1164 46.9462 11.1164C45.7182 11.1164 45.4145 10.4958 45.4013 9.98082H43.7375Z" fill="#1F1F33"/>
<path d="M54.9655 6.83817V5.35928H53.064V3.45785L51.3739 3.45785V5.35928H50.1063V6.83817L51.3739 6.83817V10.1921C51.3739 11.8691 52.0341 12.3312 53.4338 12.3312H54.9655V10.8523H53.7903C53.0772 10.8523 53.064 10.7863 53.064 10.0204V6.83817H54.9655Z" fill="#1F1F33"/>
<path d="M57.1312 2.82404H55.441V12.3312H57.1312V12.0275C57.1312 11.7634 57.0652 11.5521 56.9463 11.3145C56.8803 11.1824 56.8275 11.0504 56.9727 10.9976C57.0916 10.9579 57.1444 11.09 57.1708 11.1296C57.5934 11.8955 58.3196 12.4368 59.3759 12.4368C61.185 12.4368 62.413 10.8523 62.413 8.84524C62.413 6.83818 61.185 5.25365 59.3759 5.25365C58.2932 5.25365 57.5934 5.80823 57.1708 6.54768C57.1444 6.6005 57.0652 6.77215 56.9331 6.70613C56.8011 6.64011 56.8935 6.48166 56.9463 6.34961C57.0652 6.11193 57.1312 5.90066 57.1312 5.62337V2.82404ZM58.9798 10.9051C57.8706 10.9051 57.1312 9.95441 57.1312 8.84524C57.1312 7.73607 57.8706 6.78536 58.9798 6.78536C60.1682 6.78536 60.7228 7.73607 60.7228 8.84524C60.7228 9.95441 60.1682 10.9051 58.9798 10.9051Z" fill="#1F1F33"/>
<path d="M66.245 5.25365C64.0663 5.25365 62.7591 6.86458 62.7591 8.84524C62.7591 10.8259 64.0663 12.4368 66.245 12.4368C68.4238 12.4368 69.731 10.8259 69.731 8.84524C69.731 6.86458 68.4238 5.25365 66.245 5.25365ZM66.245 10.9051C65.0962 10.9051 64.4492 9.98082 64.4492 8.84524C64.4492 7.70967 65.0962 6.78536 66.245 6.78536C67.3938 6.78536 68.0408 7.70967 68.0408 8.84524C68.0408 9.98082 67.3938 10.9051 66.245 10.9051Z" fill="#1F1F33"/>
<path d="M73.5085 5.25365C71.3298 5.25365 70.0225 6.86458 70.0225 8.84524C70.0225 10.8259 71.3298 12.4368 73.5085 12.4368C75.6872 12.4368 76.9944 10.8259 76.9944 8.84524C76.9944 6.86458 75.6872 5.25365 73.5085 5.25365ZM73.5085 10.9051C72.3597 10.9051 71.7127 9.98082 71.7127 8.84524C71.7127 7.70967 72.3597 6.78536 73.5085 6.78536C74.6573 6.78536 75.3043 7.70967 75.3043 8.84524C75.3043 9.98082 74.6573 10.9051 73.5085 10.9051Z" fill="#1F1F33"/>
<path d="M84 12.3312L80.8838 8.27745L83.7887 5.35928L81.676 5.35928L79.0219 8.21143C78.9823 8.25105 78.9031 8.33027 78.7975 8.25105C78.7182 8.18502 78.7446 8.09259 78.7975 8.02657C79.0087 7.76248 79.1408 7.53801 79.1408 6.98342V2.82404H77.4506V12.3312H79.1408V10.0204L79.7482 9.41303L81.8873 12.3312H84Z" fill="#1F1F33"/>
<path d="M3.792 6.64C3.088 7.232 2.432 7.872 1.792 8.496V6.288C3.184 4.704 5.76 2.528 8.896 2.528C11.472 2.528 14.048 4.032 16 6.288V8.496C14.816 7.28 13.36 5.984 11.856 5.152C12.704 7.04 12.016 8.672 11.28 9.584L11.536 9.904C12.496 9.168 13.408 8.304 14.192 7.472V9.728C12.256 11.984 9.712 13.456 7.136 13.456C4.544 13.456 1.968 11.984 0 9.728V7.472C1.968 9.504 4.544 11.664 7.136 11.664C7.68 11.664 8.24 11.568 8.752 11.392L8.656 11.104C5.616 11.44 3.6 9.04 3.792 6.64ZM0 16H16V10.112C16 10.112 15.264 10.928 14.192 11.664V14.208H1.792V13.152C0.752 12.48 0 11.664 0 11.664V16ZM0 5.872C0 5.872 0.752 5.072 1.792 4.352V1.792H14.192V2.832C15.28 3.52 16 4.352 16 4.352V1.792H14.192V0H0V5.872ZM7.648 5.888C8.32 5.888 8.88 6.48 8.88 7.136H9.216C9.216 6.48 9.776 5.888 10.464 5.888V5.536C9.776 5.536 9.216 4.976 9.216 4.32H8.88C8.88 4.976 8.32 5.536 7.648 5.536V5.888Z" fill="#1F1F33"/>
</svg>
