<svg width="155" height="36" viewBox="0 0 155 36" fill="none" xmlns="http://www.w3.org/2000/svg">
<path d="M55.2678 17.4454C55.2678 12.847 52.2176 9.12663 47.1339 9.12663C42.0502 9.12663 39 12.847 39 17.4454C39 22.0438 42.0502 25.7642 47.1339 25.7642C48.3124 25.7642 49.3985 25.5562 50.3459 25.1865L51.8479 27.0582H54.8981L52.4256 23.9849C54.2511 22.4598 55.2678 20.1028 55.2678 17.4454ZM47.1339 22.9913C44.0144 22.9913 42.1426 20.5187 42.1426 17.4454C42.1426 14.3721 44.0144 11.8996 47.1339 11.8996C50.2535 11.8996 52.1252 14.3721 52.1252 17.4454C52.1252 19.1323 51.5706 20.6343 50.5539 21.651L49.2598 20.0335H46.2096L48.4511 22.8295C48.0351 22.945 47.5961 22.9913 47.1339 22.9913Z" fill="#F8FFF2"/>
<path d="M60.4429 25.7642C62.5688 25.7642 63.909 24.0311 64.5098 22.8295C64.6023 22.6446 64.6716 22.506 64.8564 22.5522C65.1568 22.6215 65.0182 22.945 64.9258 23.153C64.7178 23.6383 64.556 24.0773 64.556 24.8168V25.5793H67.5138V13.3785H64.556V18.3466C64.556 21.1657 62.9847 23.0837 61.2747 23.0837C59.7265 23.0837 59.0102 22.3211 59.0102 19.5713V13.3785H56.0524V20.5881C56.0524 24.0542 57.8086 25.7642 60.4429 25.7642Z" fill="#F8FFF2"/>
<path d="M80.1346 19.3171C80.1346 14.8805 77.1999 13.1936 74.3808 13.1936C70.6604 13.1936 68.3035 15.6661 68.3035 19.4789C68.3035 23.1068 70.4756 25.7642 74.427 25.7642C77.6852 25.7642 79.3952 23.8462 79.9266 21.3275H76.9226C76.576 22.4136 75.8597 23.1761 74.4501 23.1761C72.6015 23.1761 71.3999 22.0669 71.1919 20.2183H80.0653C80.1115 19.8717 80.1346 19.6406 80.1346 19.3171ZM71.3075 18.1849C71.6079 16.7291 72.4628 15.5968 74.4732 15.5968C76.1832 15.5968 77.0613 16.706 77.1768 18.1849H71.3075Z" fill="#F8FFF2"/>
<path d="M80.5406 21.4662C80.6562 24.0773 82.5279 25.7642 86.0634 25.7642C89.6682 25.7642 91.6323 24.3084 91.6323 21.7666C91.6323 19.3171 89.4833 18.3466 86.5024 18.0462C84.1223 17.8151 83.8681 17.3299 83.8681 16.7522C83.8681 16.0589 84.3765 15.5044 86.0634 15.5044C87.7733 15.5044 88.2817 16.3593 88.351 17.1219H91.2626C91.1008 14.9036 89.3447 13.1936 86.1327 13.1936C82.6665 13.1936 80.9103 14.9267 80.9103 16.9139C80.9103 18.2773 81.3956 20.2183 85.1391 20.6805C87.4729 20.9578 88.6745 21.0964 88.6745 21.9976C88.6745 22.8064 88.0506 23.4534 86.1558 23.4534C84.0068 23.4534 83.4753 22.3674 83.4522 21.4662H80.5406Z" fill="#F8FFF2"/>
<path d="M100.19 15.9665V13.3785L96.8621 13.3785V10.0509H93.9043V13.3785H91.6859V15.9665H93.9043V21.8359C93.9043 24.7706 95.0597 25.5793 97.5091 25.5793H100.19V22.9913L98.133 22.9913C96.8852 22.9913 96.8621 22.8757 96.8621 21.5355V15.9665L100.19 15.9665Z" fill="#F8FFF2"/>
<path d="M103.98 8.94177H101.022V25.5793H103.98V25.0478C103.98 24.5857 103.864 24.216 103.656 23.8C103.541 23.569 103.448 23.3379 103.702 23.2454C103.91 23.1761 104.003 23.4072 104.049 23.4765C104.788 24.8168 106.059 25.7642 107.908 25.7642C111.074 25.7642 113.223 22.9913 113.223 19.4789C113.223 15.9665 111.074 13.1936 107.908 13.1936C106.013 13.1936 104.788 14.1641 104.049 15.4581C104.003 15.5506 103.864 15.851 103.633 15.7354C103.402 15.6199 103.564 15.3426 103.656 15.1115C103.864 14.6956 103.98 14.3259 103.98 13.8406V8.94177ZM107.215 23.0837C105.274 23.0837 103.98 21.4199 103.98 19.4789C103.98 17.5378 105.274 15.8741 107.215 15.8741C109.294 15.8741 110.265 17.5378 110.265 19.4789C110.265 21.4199 109.294 23.0837 107.215 23.0837Z" fill="#F8FFF2"/>
<path d="M119.929 13.1936C116.116 13.1936 113.828 16.0127 113.828 19.4789C113.828 22.945 116.116 25.7642 119.929 25.7642C123.742 25.7642 126.029 22.945 126.029 19.4789C126.029 16.0127 123.742 13.1936 119.929 13.1936ZM119.929 23.0837C117.918 23.0837 116.786 21.4662 116.786 19.4789C116.786 17.4916 117.918 15.8741 119.929 15.8741C121.939 15.8741 123.071 17.4916 123.071 19.4789C123.071 21.4662 121.939 23.0837 119.929 23.0837Z" fill="#F8FFF2"/>
<path d="M132.64 13.1936C128.827 13.1936 126.539 16.0127 126.539 19.4789C126.539 22.945 128.827 25.7642 132.64 25.7642C136.453 25.7642 138.74 22.945 138.74 19.4789C138.74 16.0127 136.453 13.1936 132.64 13.1936ZM132.64 23.0837C130.629 23.0837 129.497 21.4662 129.497 19.4789C129.497 17.4916 130.629 15.8741 132.64 15.8741C134.65 15.8741 135.782 17.4916 135.782 19.4789C135.782 21.4662 134.65 23.0837 132.64 23.0837Z" fill="#F8FFF2"/>
<path d="M151 25.5793L145.547 18.4853L150.63 13.3785H146.933L142.288 18.3697C142.219 18.439 142.08 18.5777 141.896 18.439C141.757 18.3235 141.803 18.1617 141.896 18.0462C142.265 17.5841 142.496 17.1912 142.496 16.2207V8.94177H139.539V25.5793H142.496V21.5355L143.559 20.4725L147.303 25.5793H151Z" fill="#F8FFF2"/>
<rect width="28" height="28" transform="translate(4 4)" fill="#F8FFF2"/>
<path d="M11.9181 16.0344C10.9006 16.89 9.9525 17.815 9.0275 18.7169V15.5256C11.0394 13.2363 14.7625 10.0913 19.295 10.0913C23.0181 10.0913 26.7413 12.265 29.5625 15.5256V18.7169C27.8513 16.9594 25.7469 15.0863 23.5731 13.8838C24.7988 16.6125 23.8044 18.9713 22.7406 20.2894L23.1106 20.7519C24.4981 19.6881 25.8163 18.4394 26.9494 17.2369V20.4975C24.1513 23.7581 20.4744 25.8856 16.7513 25.8856C13.005 25.8856 9.28188 23.7581 6.4375 20.4975V17.2369C9.28188 20.1738 13.005 23.2956 16.7513 23.2956C17.5375 23.2956 18.3469 23.1569 19.0869 22.9025L18.9481 22.4863C14.5544 22.9719 11.6406 19.5031 11.9181 16.0344ZM6.4375 29.5625H29.5625V21.0525C29.5625 21.0525 28.4988 22.2319 26.9494 23.2956V26.9725H9.0275V25.4463C7.52438 24.475 6.4375 23.2956 6.4375 23.2956V29.5625ZM6.4375 14.9244C6.4375 14.9244 7.52438 13.7681 9.0275 12.7275V9.0275H26.9494V10.5306C28.5219 11.525 29.5625 12.7275 29.5625 12.7275V9.0275H26.9494V6.4375H6.4375V14.9244ZM17.4913 14.9475C18.4625 14.9475 19.2719 15.8031 19.2719 16.7513H19.7575C19.7575 15.8031 20.5669 14.9475 21.5613 14.9475V14.4388C20.5669 14.4388 19.7575 13.6294 19.7575 12.6813H19.2719C19.2719 13.6294 18.4625 14.4388 17.4913 14.4388V14.9475Z" fill="#1F1F33"/>
</svg>
