<svg width="42" height="56" viewBox="0 0 42 56" fill="none" xmlns="http://www.w3.org/2000/svg">
<path d="M4.59121 35.4794C5.82444 35.4794 6.98946 35.7799 8.12665 36.206C8.65348 36.3601 9.15874 36.7745 9.72734 36.7217C11.1673 36.3566 12.6649 36.2977 14.1452 36.2879C15.1704 36.2879 16.2073 36.5905 17.2269 36.4837C17.8407 36.3254 18.4483 36.145 19.0587 35.9722C19.2828 35.909 19.2932 35.8611 19.1283 35.6682C17.9451 34.287 17.4503 32.4811 17.3939 30.6968C17.1336 27.981 20.7937 25.4221 21.6643 29.1539C22.3742 32.8497 27.9829 31.9474 30.5767 36.4031C31.1319 37.2994 31.4867 38.3046 31.6171 39.35C31.7152 39.7602 31.551 40.2745 31.8259 40.6215C32.4904 41.1758 33.1018 41.7906 33.6521 42.4579C33.9576 42.8952 34.8101 42.2018 35.3091 42.2171C36.2974 42.0214 36.85 43.39 36.115 44.1923C36.0058 44.3533 36.0357 44.463 36.1888 44.581C36.6544 44.9384 37.1186 45.2979 37.5668 45.6762C38.0623 46.0926 38.5516 46.5208 39.0206 46.9678C39.7041 47.6188 40.3673 48.2906 41.0389 48.9555C41.2031 49.1054 41.4349 49.3317 41.2839 49.5524C41.0278 49.7134 40.7884 49.4136 40.597 49.2678C39.5788 48.4149 38.5745 47.5445 37.5397 46.7124C36.7525 46.0676 35.8777 45.5242 35.0843 44.8905C34.2993 44.3582 36.2299 43.2075 35.2848 43.161C35.0544 43.1878 34.8314 43.2585 34.6278 43.3692C32.6924 44.4228 31.0255 45.8615 29.3671 47.2933C28.3461 48.2948 27.1018 49.1741 26.4065 50.4456C26.0857 51.0848 27.06 51.2916 27.52 51.1605C28.0914 51.0397 28.2918 51.1133 28.5737 51.5769C29.1026 52.5756 30.8314 54.9693 30.4848 56C29.9336 55.7918 29.7707 55.0144 29.4276 54.5654C28.9885 53.82 28.5445 53.0774 28.1116 52.3292C27.7587 51.5817 26.7051 52.5471 25.863 51.5658C25.4357 51.114 25.3062 50.5004 25.5943 49.9473C26.4399 48.6383 26.1567 49.1602 25.3027 48.0151C25.1635 47.8374 25.032 47.7597 24.7933 47.8277C22.7361 48.3829 20.5438 48.2365 18.5235 47.6028C15.5364 46.7006 12.928 44.9821 10.305 43.3525C9.50464 42.9868 8.44887 41.809 7.60538 41.9589C5.9518 42.2143 4.20705 42.7869 2.57157 42.1553C1.44273 41.7174 0.687625 40.752 1.52764 39.6242C1.73642 39.3098 1.74686 39.298 1.41489 39.0863C-0.441209 37.7614 1.54851 35.8243 3.16939 35.63C3.63289 35.5412 4.11588 35.5287 4.59121 35.4794ZM4.67473 36.2227C3.61062 36.3886 2.392 36.3941 1.67865 37.3332C0.825417 38.6171 3.22297 38.8906 4.00104 39.2404C5.49943 39.704 6.96371 40.2474 8.30759 41.0671C13.0943 43.855 18.1323 48.1518 24.0458 47.0309C24.9506 46.8297 25.8386 46.5541 26.735 46.3119C27.0712 46.1287 27.7219 46.1863 27.4038 46.6964C27.0329 47.0309 26.4991 47.1822 26.0599 47.4147C25.6424 47.5209 26.4218 48.183 26.5088 48.4412C26.593 48.5682 26.6696 48.5627 26.7656 48.4641C28.683 46.559 30.6943 44.7385 32.9485 43.2311C33.2157 43.0562 33.1934 43.0229 32.9485 42.7938C32.6318 42.5023 32.3353 42.1879 32.0319 41.8819C31.8843 41.7958 31.583 41.2149 31.4341 41.5258C31.3777 41.7743 31.2253 42.0873 30.9469 42.0845C30.7806 42.0637 30.7959 41.9013 30.8077 41.7493C31.5037 36.6717 27.5938 34.2537 23.4599 32.5936C22.1647 32.0488 21.2043 31.0133 20.9064 29.628C20.6976 28.9547 20.4255 27.7617 19.479 28.276C19.0099 28.505 18.7016 28.8888 18.5109 29.351C17.815 31.4116 18.6613 33.7304 19.8381 35.4544C20.2195 36.079 22.0081 35.3093 22.7263 35.6355C23.6151 36.2158 21.3128 36.3629 21.0031 36.4628C19.3196 36.7085 14.0283 38.089 13.2502 39.4416C13.2976 39.6394 13.1507 39.6499 13.0255 39.5888C10.4567 38.0105 7.79677 36.3219 4.67473 36.2227ZM4.13258 41.6168C4.92666 41.5009 5.72074 41.3856 6.51412 41.2663C6.54962 41.2607 6.6053 41.2177 6.60669 41.1899C6.5886 41.0928 6.45637 41.0372 6.37076 41.0025C5.13127 40.5646 3.89248 40.1253 2.64951 39.697C2.60081 39.6821 2.54948 39.6778 2.49895 39.6842C2.44842 39.6907 2.39986 39.7078 2.35651 39.7345C1.16295 40.913 3.11023 41.6667 4.13258 41.6168ZM15.5692 37.0666C13.8822 37.0467 12.1953 37.113 10.5152 37.2651C11.1248 37.7801 11.8312 38.1757 12.468 38.6581C12.6441 38.7844 12.7582 38.7587 12.9148 38.6338C13.7131 37.9509 14.6596 37.5858 15.5692 37.0666Z" fill="black"/>
<path d="M4.67506 36.2226C7.7978 36.3225 10.4563 38.0097 13.0265 39.5894C13.1518 39.647 13.2986 39.64 13.2513 39.4422C13.204 39.2444 13.3278 39.1646 13.4642 39.0869C15.7999 37.7044 18.3415 36.9111 21.0042 36.4634C21.3139 36.3635 23.6189 36.2143 22.7274 35.6361C22.0071 35.3099 20.2157 36.0817 19.8392 35.455C18.6623 33.7303 17.8132 31.4122 18.512 29.3516C18.7027 28.8894 19.011 28.5056 19.4801 28.2766C20.4266 27.763 20.7001 28.9553 20.9068 29.6292C21.2053 31.0173 22.1657 32.0466 23.4616 32.5942C27.5914 34.2543 31.5061 36.6751 30.8088 41.7506C30.7955 41.9019 30.7802 42.0643 30.9479 42.0851C31.2263 42.0851 31.3822 41.7756 31.4351 41.5264C31.6028 41.2211 31.8708 41.7867 32.0329 41.8825C32.3364 42.1885 32.6328 42.5029 32.9495 42.7944C33.1959 43.0214 33.2181 43.0568 32.9495 43.2317C30.6953 44.7391 28.684 46.5596 26.7667 48.4647C26.6706 48.5633 26.5941 48.5688 26.5099 48.4418C26.4333 48.201 25.6357 47.5118 26.061 47.4153C26.4618 47.1488 27.5642 46.9587 27.4745 46.3687C27.3116 46.0994 26.9775 46.2341 26.736 46.3125C25.8397 46.5547 24.9516 46.8303 24.0469 47.0315C18.1313 48.1517 13.0982 43.8563 8.30863 41.0677C6.96474 40.248 5.50046 39.7046 4.00207 39.241C3.19268 38.8842 0.846628 38.6226 1.67968 37.3338C2.39373 36.394 3.61026 36.3885 4.67506 36.2226ZM28.8246 39.3708C25.3594 36.7417 18.7333 37.8279 15.5848 40.6159C15.1297 41.0795 15.5479 41.3793 15.8994 41.0323C19.1008 38.9557 23.2445 38.0743 26.9386 39.234C27.3492 39.2562 28.8671 40.0849 28.826 39.3708H28.8246Z" fill="white"/>
<path d="M4.13274 41.6168C3.11108 41.6675 1.1624 40.9131 2.35666 39.7346C2.40001 39.7079 2.44858 39.6908 2.49911 39.6843C2.54964 39.6778 2.60097 39.6822 2.64966 39.6971C3.89264 40.1253 5.13143 40.5647 6.37093 41.0026C6.45722 41.0373 6.58876 41.0928 6.60686 41.19C6.60686 41.2178 6.54978 41.2594 6.51429 41.2663C5.7209 41.3857 4.92612 41.5009 4.13274 41.6168Z" fill="white"/>
<path d="M15.5691 37.0667C14.6602 37.5858 13.7123 37.9509 12.9148 38.6338C12.7582 38.7588 12.644 38.7845 12.468 38.6581C11.8312 38.1723 11.1248 37.7802 10.5151 37.2652C12.1953 37.113 13.8822 37.0467 15.5691 37.0667Z" fill="white"/>
<path d="M28.8256 39.3709C28.8687 40.0858 27.3362 39.2536 26.9395 39.2321C23.2454 38.0724 19.1038 38.9545 15.9003 41.0303C15.5614 41.3732 15.1216 41.0817 15.5858 40.6139C18.7308 37.8294 25.3597 36.7412 28.8256 39.3709Z" fill="black"/>
<path d="M14.9485 27.6315C14.8463 30.8382 7.5302 36.2311 5.01994 33.1995C4.69146 32.6506 4.37667 32.0912 4.00737 31.5708C3.32773 30.5824 3.7635 29.3571 4.51952 28.5666C5.91431 26.8302 11.7041 22.1296 13.6322 24.7075C14.1037 25.6135 15.1256 26.5567 14.9485 27.6315ZM12.9943 25.8059C13.2997 22.3146 5.49357 27.8252 4.99088 29.0317C4.93983 29.464 4.58358 29.7493 4.48569 30.1686C4.14489 31.6107 5.87523 31.6076 6.832 31.3153C9.30424 30.6445 12.4096 28.3999 12.9943 25.8059ZM14.1432 27.616C14.235 27.1454 14.0708 26.6652 13.7938 26.2842C12.3894 29.615 9.00878 32.1055 5.3745 32.264C5.75612 32.8969 6.03775 33.379 6.83976 33.3336C9.5986 33.2519 13.6406 30.3866 14.1433 27.6151L14.1432 27.616Z" fill="black"/>
<path d="M12.9945 25.8056C12.4108 28.3997 9.30437 30.6452 6.82736 31.3146C5.87749 31.6065 4.14406 31.6113 4.48106 30.1679C4.57895 29.7486 4.93715 29.4634 4.98625 29.031C5.48531 27.832 13.2997 22.3065 12.9945 25.8056Z" fill="white"/>
<path d="M14.1434 27.6149C13.6429 30.3826 9.59964 33.2518 6.83983 33.3333C6.035 33.3775 5.75796 32.8988 5.37458 32.2638C9.00886 32.1052 12.3895 29.6138 13.7938 26.284C14.071 26.664 14.2352 27.1442 14.1434 27.6149Z" fill="#8850EA"/>
<path d="M22.7654 20.0947C20.3108 22.1741 11.4072 20.3841 11.9855 16.4884C12.1744 15.877 12.3812 15.266 12.5205 14.644C12.8015 13.4772 14.0038 12.9754 15.0975 13.0036C17.3215 12.869 24.6897 13.9948 24.0609 17.1545C23.6989 18.1122 23.6811 19.5004 22.7654 20.0947ZM22.8162 17.419C25.6221 15.2956 16.2993 13.2258 15.067 13.6636C14.7084 13.9143 14.2606 13.8444 13.8828 14.054C12.5789 14.7681 13.7408 16.049 14.5953 16.5572C16.749 17.9398 20.4946 18.7297 22.8156 17.4197L22.8162 17.419ZM22.2374 19.4857C22.6499 19.2364 22.8971 18.7925 22.9971 18.3299C19.5792 19.5297 15.4633 18.7047 12.916 16.1169C12.7 16.8249 12.5294 17.3567 13.1002 17.92C15.0062 19.9108 19.8395 20.9763 22.2374 19.4857Z" fill="black"/>
<path d="M22.8159 17.4195C20.4957 18.7315 16.748 17.941 14.5956 16.557C13.7432 16.048 12.5814 14.7698 13.8831 14.0538C14.261 13.8442 14.7109 13.916 15.0673 13.6633C16.2917 13.2197 25.6237 15.2925 22.8159 17.4195Z" fill="white"/>
<path d="M22.2374 19.4855C19.8443 20.9752 15.0042 19.9128 13.1004 17.924C12.5289 17.3587 12.6996 16.831 12.9162 16.1209C15.4614 18.7067 19.5772 19.5317 22.9974 18.3338C22.8971 18.7923 22.6499 19.2362 22.2374 19.4855Z" fill="#8850EA"/>
<path d="M12.5371 3.39535C13.87 6.31389 9.71496 14.4029 6.12004 12.8037C5.58064 12.4563 5.05436 12.1004 4.49015 11.7955C3.44268 11.2125 3.28516 9.92344 3.61314 8.87647C4.09169 6.6999 7.18764 -0.0892321 10.0587 1.36112C10.8826 1.96656 12.2162 2.35389 12.5371 3.39535ZM9.97362 2.63034C8.69389 -0.63848 4.15412 7.77806 4.24049 9.08279C4.38812 9.49253 4.19151 9.90851 4.29144 10.3235C4.62702 11.7665 6.1742 10.9941 6.89634 10.307C8.81918 8.60858 10.6027 5.21467 9.97362 2.63034ZM11.8071 3.74018C11.6796 3.27696 11.3195 2.91948 10.9053 2.69983C11.1277 6.30997 9.20628 10.0451 6.02291 11.8069C6.64614 12.2034 7.11237 12.5112 7.81029 12.1129C10.2416 10.8131 12.588 6.44676 11.8071 3.74018Z" fill="black"/>
<path d="M9.97347 2.63038C10.6028 5.21337 8.81902 8.60864 6.8988 10.3111C6.1786 10.9958 4.62836 11.7725 4.29337 10.3268C4.19462 9.90646 4.38713 9.49312 4.24242 9.08613C4.15078 7.78943 8.69215 -0.64089 9.97347 2.63038Z" fill="white"/>
<path d="M11.8072 3.74003C12.5884 6.44175 10.2422 10.8138 7.80705 12.1149C7.10644 12.5126 6.64531 12.2073 6.01968 11.8089C9.20569 10.0511 11.1245 6.31193 10.9021 2.70179C11.3195 2.91932 11.6797 3.27681 11.8072 3.74003Z" fill="#8850EA"/>
</svg>
