<svg width="1416" height="766" viewBox="0 0 1416 766" fill="none" xmlns="http://www.w3.org/2000/svg">
<path d="M1415.3 7.32065L1408.3 7.32065V0.320648L1407.2 0.320648V7.32065L1400.2 7.32065V8.32065H1407.2V15.3206L1408.3 15.3206V8.32065H1415.3V7.32065Z" fill="#B6F72B" fill-opacity="0.4"/>
<path d="M1415.3 57.3206H1408.3V50.3206H1407.2V57.3206H1400.2V58.3206H1407.2V65.3206H1408.3V58.3206H1415.3V57.3206Z" fill="#B6F72B" fill-opacity="0.4"/>
<path d="M1415.3 107.321H1408.3V100.321H1407.2V107.321H1400.2V108.321H1407.2V115.321H1408.3V108.321H1415.3V107.321Z" fill="#B6F72B" fill-opacity="0.4"/>
<path d="M1415.3 157.321H1408.3V150.321H1407.2V157.321H1400.2V158.321H1407.2V165.321H1408.3V158.321H1415.3V157.321Z" fill="#B6F72B" fill-opacity="0.4"/>
<path d="M1415.3 207.321H1408.3V200.321H1407.2V207.321H1400.2V208.321H1407.2V215.321H1408.3V208.321H1415.3V207.321Z" fill="#B6F72B" fill-opacity="0.4"/>
<path d="M1415.3 257.321H1408.3V250.321H1407.2V257.321H1400.2V258.321H1407.2V265.321H1408.3V258.321H1415.3V257.321Z" fill="#B6F72B" fill-opacity="0.4"/>
<path d="M1415.3 307.321H1408.3V300.321H1407.2V307.321H1400.2V308.321H1407.2V315.321H1408.3V308.321H1415.3V307.321Z" fill="#B6F72B" fill-opacity="0.4"/>
<path d="M1415.3 357.321H1408.3V350.321H1407.2V357.321H1400.2V358.321H1407.2V365.321H1408.3V358.321H1415.3V357.321Z" fill="#B6F72B" fill-opacity="0.4"/>
<path d="M1415.3 407.321H1408.3V400.321H1407.2V407.321H1400.2V408.321H1407.2V415.321H1408.3V408.321H1415.3V407.321Z" fill="#B6F72B" fill-opacity="0.4"/>
<path d="M1415.3 457.321H1408.3V450.321H1407.2V457.321H1400.2V458.321H1407.2V465.321H1408.3V458.321H1415.3V457.321Z" fill="#B6F72B" fill-opacity="0.4"/>
<path d="M1415.3 507.321H1408.3V500.321H1407.2V507.321H1400.2V508.321H1407.2V515.321H1408.3V508.321H1415.3V507.321Z" fill="#B6F72B" fill-opacity="0.4"/>
<path d="M1415.3 557.321H1408.3V550.321H1407.2V557.321H1400.2V558.321H1407.2V565.321H1408.3V558.321H1415.3V557.321Z" fill="#B6F72B" fill-opacity="0.4"/>
<path d="M1415.3 607.321H1408.3V600.321H1407.2V607.321H1400.2V608.321H1407.2V615.321H1408.3V608.321H1415.3V607.321Z" fill="#B6F72B" fill-opacity="0.4"/>
<path d="M1415.3 657.321H1408.3V650.321H1407.2V657.321H1400.2V658.321H1407.2V665.321H1408.3V658.321H1415.3V657.321Z" fill="#B6F72B" fill-opacity="0.4"/>
<path d="M1415.3 707.321H1408.3V700.321H1407.2V707.321H1400.2V708.321H1407.2V715.321H1408.3V708.321H1415.3V707.321Z" fill="#B6F72B" fill-opacity="0.4"/>
<path d="M1415.3 757.321H1408.3V750.321H1407.2V757.321H1400.2V758.321H1407.2V765.321H1408.3V758.321H1415.3V757.321Z" fill="#B6F72B" fill-opacity="0.4"/>
<path d="M1365.3 7.32065L1358.3 7.32065V0.320648L1357.2 0.320648V7.32065L1350.2 7.32065V8.32065H1357.2V15.3206L1358.3 15.3206V8.32065H1365.3V7.32065Z" fill="#B6F72B" fill-opacity="0.4"/>
<path d="M1365.3 57.3206H1358.3V50.3206H1357.2V57.3206H1350.2V58.3206H1357.2V65.3206H1358.3V58.3206H1365.3V57.3206Z" fill="#B6F72B" fill-opacity="0.4"/>
<path d="M1365.3 107.321H1358.3V100.321H1357.2V107.321H1350.2V108.321H1357.2V115.321H1358.3V108.321H1365.3V107.321Z" fill="#B6F72B" fill-opacity="0.4"/>
<path d="M1365.3 157.321H1358.3V150.321H1357.2V157.321H1350.2V158.321H1357.2V165.321H1358.3V158.321H1365.3V157.321Z" fill="#B6F72B" fill-opacity="0.4"/>
<path d="M1365.3 207.321H1358.3V200.321H1357.2V207.321H1350.2V208.321H1357.2V215.321H1358.3V208.321H1365.3V207.321Z" fill="#B6F72B" fill-opacity="0.4"/>
<path d="M1365.3 257.321H1358.3V250.321H1357.2V257.321H1350.2V258.321H1357.2V265.321H1358.3V258.321H1365.3V257.321Z" fill="#B6F72B" fill-opacity="0.4"/>
<path d="M1365.3 307.321H1358.3V300.321H1357.2V307.321H1350.2V308.321H1357.2V315.321H1358.3V308.321H1365.3V307.321Z" fill="#B6F72B" fill-opacity="0.4"/>
<path d="M1365.3 357.321H1358.3V350.321H1357.2V357.321H1350.2V358.321H1357.2V365.321H1358.3V358.321H1365.3V357.321Z" fill="#B6F72B" fill-opacity="0.4"/>
<path d="M1365.3 407.321H1358.3V400.321H1357.2V407.321H1350.2V408.321H1357.2V415.321H1358.3V408.321H1365.3V407.321Z" fill="#B6F72B" fill-opacity="0.4"/>
<path d="M1365.3 457.321H1358.3V450.321H1357.2V457.321H1350.2V458.321H1357.2V465.321H1358.3V458.321H1365.3V457.321Z" fill="#B6F72B" fill-opacity="0.4"/>
<path d="M1365.3 507.321H1358.3V500.321H1357.2V507.321H1350.2V508.321H1357.2V515.321H1358.3V508.321H1365.3V507.321Z" fill="#B6F72B" fill-opacity="0.4"/>
<path d="M1365.3 557.321H1358.3V550.321H1357.2V557.321H1350.2V558.321H1357.2V565.321H1358.3V558.321H1365.3V557.321Z" fill="#B6F72B" fill-opacity="0.4"/>
<path d="M1365.3 607.321H1358.3V600.321H1357.2V607.321H1350.2V608.321H1357.2V615.321H1358.3V608.321H1365.3V607.321Z" fill="#B6F72B" fill-opacity="0.4"/>
<path d="M1365.3 657.321H1358.3V650.321H1357.2V657.321H1350.2V658.321H1357.2V665.321H1358.3V658.321H1365.3V657.321Z" fill="#B6F72B" fill-opacity="0.4"/>
<path d="M1365.3 707.321H1358.3V700.321H1357.2V707.321H1350.2V708.321H1357.2V715.321H1358.3V708.321H1365.3V707.321Z" fill="#B6F72B" fill-opacity="0.4"/>
<path d="M1365.3 757.321H1358.3V750.321H1357.2V757.321H1350.2V758.321H1357.2V765.321H1358.3V758.321H1365.3V757.321Z" fill="#B6F72B" fill-opacity="0.4"/>
<path d="M1315.3 7.32065L1308.3 7.32065V0.320648L1307.2 0.320648V7.32065L1300.2 7.32065V8.32065H1307.2V15.3206L1308.3 15.3206V8.32065H1315.3V7.32065Z" fill="#B6F72B" fill-opacity="0.4"/>
<path d="M1315.3 57.3206H1308.3V50.3206H1307.2V57.3206H1300.2V58.3206H1307.2V65.3206H1308.3V58.3206H1315.3V57.3206Z" fill="#B6F72B" fill-opacity="0.4"/>
<path d="M1315.3 107.321H1308.3V100.321H1307.2V107.321H1300.2V108.321H1307.2V115.321H1308.3V108.321H1315.3V107.321Z" fill="#B6F72B" fill-opacity="0.4"/>
<path d="M1315.3 157.321H1308.3V150.321H1307.2V157.321H1300.2V158.321H1307.2V165.321H1308.3V158.321H1315.3V157.321Z" fill="#B6F72B" fill-opacity="0.4"/>
<path d="M1315.3 207.321H1308.3V200.321H1307.2V207.321H1300.2V208.321H1307.2V215.321H1308.3V208.321H1315.3V207.321Z" fill="#B6F72B" fill-opacity="0.4"/>
<path d="M1315.3 257.321H1308.3V250.321H1307.2V257.321H1300.2V258.321H1307.2V265.321H1308.3V258.321H1315.3V257.321Z" fill="#B6F72B" fill-opacity="0.4"/>
<path d="M1315.3 307.321H1308.3V300.321H1307.2V307.321H1300.2V308.321H1307.2V315.321H1308.3V308.321H1315.3V307.321Z" fill="#B6F72B" fill-opacity="0.4"/>
<path d="M1315.3 357.321H1308.3V350.321H1307.2V357.321H1300.2V358.321H1307.2V365.321H1308.3V358.321H1315.3V357.321Z" fill="#B6F72B" fill-opacity="0.4"/>
<path d="M1315.3 407.321H1308.3V400.321H1307.2V407.321H1300.2V408.321H1307.2V415.321H1308.3V408.321H1315.3V407.321Z" fill="#B6F72B" fill-opacity="0.4"/>
<path d="M1315.3 457.321H1308.3V450.321H1307.2V457.321H1300.2V458.321H1307.2V465.321H1308.3V458.321H1315.3V457.321Z" fill="#B6F72B" fill-opacity="0.4"/>
<path d="M1315.3 507.321H1308.3V500.321H1307.2V507.321H1300.2V508.321H1307.2V515.321H1308.3V508.321H1315.3V507.321Z" fill="#B6F72B" fill-opacity="0.4"/>
<path d="M1315.3 557.321H1308.3V550.321H1307.2V557.321H1300.2V558.321H1307.2V565.321H1308.3V558.321H1315.3V557.321Z" fill="#B6F72B" fill-opacity="0.4"/>
<path d="M1315.3 607.321H1308.3V600.321H1307.2V607.321H1300.2V608.321H1307.2V615.321H1308.3V608.321H1315.3V607.321Z" fill="#B6F72B" fill-opacity="0.4"/>
<path d="M1315.3 657.321H1308.3V650.321H1307.2V657.321H1300.2V658.321H1307.2V665.321H1308.3V658.321H1315.3V657.321Z" fill="#B6F72B" fill-opacity="0.4"/>
<path d="M1315.3 707.321H1308.3V700.321H1307.2V707.321H1300.2V708.321H1307.2V715.321H1308.3V708.321H1315.3V707.321Z" fill="#B6F72B" fill-opacity="0.4"/>
<path d="M1315.3 757.321H1308.3V750.321H1307.2V757.321H1300.2V758.321H1307.2V765.321H1308.3V758.321H1315.3V757.321Z" fill="#B6F72B" fill-opacity="0.4"/>
<path d="M1265.3 7.32065L1258.3 7.32065V0.320648L1257.2 0.320648V7.32065L1250.2 7.32065V8.32065H1257.2V15.3206L1258.3 15.3206V8.32065H1265.3V7.32065Z" fill="#B6F72B" fill-opacity="0.4"/>
<path d="M1265.3 57.3206H1258.3V50.3206H1257.2V57.3206H1250.2V58.3206H1257.2V65.3206H1258.3V58.3206H1265.3V57.3206Z" fill="#B6F72B" fill-opacity="0.4"/>
<path d="M1265.3 107.321H1258.3V100.321H1257.2V107.321H1250.2V108.321H1257.2V115.321H1258.3V108.321H1265.3V107.321Z" fill="#B6F72B" fill-opacity="0.4"/>
<path d="M1265.3 157.321H1258.3V150.321H1257.2V157.321H1250.2V158.321H1257.2V165.321H1258.3V158.321H1265.3V157.321Z" fill="#B6F72B" fill-opacity="0.4"/>
<path d="M1265.3 207.321H1258.3V200.321H1257.2V207.321H1250.2V208.321H1257.2V215.321H1258.3V208.321H1265.3V207.321Z" fill="#B6F72B" fill-opacity="0.4"/>
<path d="M1265.3 257.321H1258.3V250.321H1257.2V257.321H1250.2V258.321H1257.2V265.321H1258.3V258.321H1265.3V257.321Z" fill="#B6F72B" fill-opacity="0.4"/>
<path d="M1265.3 307.321H1258.3V300.321H1257.2V307.321H1250.2V308.321H1257.2V315.321H1258.3V308.321H1265.3V307.321Z" fill="#B6F72B" fill-opacity="0.4"/>
<path d="M1265.3 357.321H1258.3V350.321H1257.2V357.321H1250.2V358.321H1257.2V365.321H1258.3V358.321H1265.3V357.321Z" fill="#B6F72B" fill-opacity="0.4"/>
<path d="M1265.3 407.321H1258.3V400.321H1257.2V407.321H1250.2V408.321H1257.2V415.321H1258.3V408.321H1265.3V407.321Z" fill="#B6F72B" fill-opacity="0.4"/>
<path d="M1265.3 457.321H1258.3V450.321H1257.2V457.321H1250.2V458.321H1257.2V465.321H1258.3V458.321H1265.3V457.321Z" fill="#B6F72B" fill-opacity="0.4"/>
<path d="M1265.3 507.321H1258.3V500.321H1257.2V507.321H1250.2V508.321H1257.2V515.321H1258.3V508.321H1265.3V507.321Z" fill="#B6F72B" fill-opacity="0.4"/>
<path d="M1265.3 557.321H1258.3V550.321H1257.2V557.321H1250.2V558.321H1257.2V565.321H1258.3V558.321H1265.3V557.321Z" fill="#B6F72B" fill-opacity="0.4"/>
<path d="M1265.3 607.321H1258.3V600.321H1257.2V607.321H1250.2V608.321H1257.2V615.321H1258.3V608.321H1265.3V607.321Z" fill="#B6F72B" fill-opacity="0.4"/>
<path d="M1265.3 657.321H1258.3V650.321H1257.2V657.321H1250.2V658.321H1257.2V665.321H1258.3V658.321H1265.3V657.321Z" fill="#B6F72B" fill-opacity="0.4"/>
<path d="M1265.3 707.321H1258.3V700.321H1257.2V707.321H1250.2V708.321H1257.2V715.321H1258.3V708.321H1265.3V707.321Z" fill="#B6F72B" fill-opacity="0.4"/>
<path d="M1265.3 757.321H1258.3V750.321H1257.2V757.321H1250.2V758.321H1257.2V765.321H1258.3V758.321H1265.3V757.321Z" fill="#B6F72B" fill-opacity="0.4"/>
<path d="M1215.3 7.32065L1208.3 7.32065V0.320648L1207.2 0.320648V7.32065L1200.2 7.32065V8.32065H1207.2V15.3206L1208.3 15.3206V8.32065H1215.3V7.32065Z" fill="#B6F72B" fill-opacity="0.4"/>
<path d="M1215.3 57.3206H1208.3V50.3206H1207.2V57.3206H1200.2V58.3206H1207.2V65.3206H1208.3V58.3206H1215.3V57.3206Z" fill="#B6F72B" fill-opacity="0.4"/>
<path d="M1215.3 107.321H1208.3V100.321H1207.2V107.321H1200.2V108.321H1207.2V115.321H1208.3V108.321H1215.3V107.321Z" fill="#B6F72B" fill-opacity="0.4"/>
<path d="M1215.3 157.321H1208.3V150.321H1207.2V157.321H1200.2V158.321H1207.2V165.321H1208.3V158.321H1215.3V157.321Z" fill="#B6F72B" fill-opacity="0.4"/>
<path d="M1215.3 207.321H1208.3V200.321H1207.2V207.321H1200.2V208.321H1207.2V215.321H1208.3V208.321H1215.3V207.321Z" fill="#B6F72B" fill-opacity="0.4"/>
<path d="M1215.3 257.321H1208.3V250.321H1207.2V257.321H1200.2V258.321H1207.2V265.321H1208.3V258.321H1215.3V257.321Z" fill="#B6F72B" fill-opacity="0.4"/>
<path d="M1215.3 307.321H1208.3V300.321H1207.2V307.321H1200.2V308.321H1207.2V315.321H1208.3V308.321H1215.3V307.321Z" fill="#B6F72B" fill-opacity="0.4"/>
<path d="M1215.3 357.321H1208.3V350.321H1207.2V357.321H1200.2V358.321H1207.2V365.321H1208.3V358.321H1215.3V357.321Z" fill="#B6F72B" fill-opacity="0.4"/>
<path d="M1215.3 407.321H1208.3V400.321H1207.2V407.321H1200.2V408.321H1207.2V415.321H1208.3V408.321H1215.3V407.321Z" fill="#B6F72B" fill-opacity="0.4"/>
<path d="M1215.3 457.321H1208.3V450.321H1207.2V457.321H1200.2V458.321H1207.2V465.321H1208.3V458.321H1215.3V457.321Z" fill="#B6F72B" fill-opacity="0.4"/>
<path d="M1215.3 507.321H1208.3V500.321H1207.2V507.321H1200.2V508.321H1207.2V515.321H1208.3V508.321H1215.3V507.321Z" fill="#B6F72B" fill-opacity="0.4"/>
<path d="M1215.3 557.321H1208.3V550.321H1207.2V557.321H1200.2V558.321H1207.2V565.321H1208.3V558.321H1215.3V557.321Z" fill="#B6F72B" fill-opacity="0.4"/>
<path d="M1215.3 607.321H1208.3V600.321H1207.2V607.321H1200.2V608.321H1207.2V615.321H1208.3V608.321H1215.3V607.321Z" fill="#B6F72B" fill-opacity="0.4"/>
<path d="M1215.3 657.321H1208.3V650.321H1207.2V657.321H1200.2V658.321H1207.2V665.321H1208.3V658.321H1215.3V657.321Z" fill="#B6F72B" fill-opacity="0.4"/>
<path d="M1215.3 707.321H1208.3V700.321H1207.2V707.321H1200.2V708.321H1207.2V715.321H1208.3V708.321H1215.3V707.321Z" fill="#B6F72B" fill-opacity="0.4"/>
<path d="M1215.3 757.321H1208.3V750.321H1207.2V757.321H1200.2V758.321H1207.2V765.321H1208.3V758.321H1215.3V757.321Z" fill="#B6F72B" fill-opacity="0.4"/>
<path d="M1165.3 7.32065L1158.3 7.32065V0.320648L1157.2 0.320648V7.32065L1150.2 7.32065V8.32065H1157.2V15.3206L1158.3 15.3206V8.32065H1165.3V7.32065Z" fill="#B6F72B" fill-opacity="0.4"/>
<path d="M1165.3 57.3206H1158.3V50.3206H1157.2V57.3206H1150.2V58.3206H1157.2V65.3206H1158.3V58.3206H1165.3V57.3206Z" fill="#B6F72B" fill-opacity="0.4"/>
<path d="M1165.3 107.321H1158.3V100.321H1157.2V107.321H1150.2V108.321H1157.2V115.321H1158.3V108.321H1165.3V107.321Z" fill="#B6F72B" fill-opacity="0.4"/>
<path d="M1165.3 157.321H1158.3V150.321H1157.2V157.321H1150.2V158.321H1157.2V165.321H1158.3V158.321H1165.3V157.321Z" fill="#B6F72B" fill-opacity="0.4"/>
<path d="M1165.3 207.321H1158.3V200.321H1157.2V207.321H1150.2V208.321H1157.2V215.321H1158.3V208.321H1165.3V207.321Z" fill="#B6F72B" fill-opacity="0.4"/>
<path d="M1165.3 257.321H1158.3V250.321H1157.2V257.321H1150.2V258.321H1157.2V265.321H1158.3V258.321H1165.3V257.321Z" fill="#B6F72B" fill-opacity="0.4"/>
<path d="M1165.3 307.321H1158.3V300.321H1157.2V307.321H1150.2V308.321H1157.2V315.321H1158.3V308.321H1165.3V307.321Z" fill="#B6F72B" fill-opacity="0.4"/>
<path d="M1165.3 357.321H1158.3V350.321H1157.2V357.321H1150.2V358.321H1157.2V365.321H1158.3V358.321H1165.3V357.321Z" fill="#B6F72B" fill-opacity="0.4"/>
<path d="M1165.3 407.321H1158.3V400.321H1157.2V407.321H1150.2V408.321H1157.2V415.321H1158.3V408.321H1165.3V407.321Z" fill="#B6F72B" fill-opacity="0.4"/>
<path d="M1165.3 457.321H1158.3V450.321H1157.2V457.321H1150.2V458.321H1157.2V465.321H1158.3V458.321H1165.3V457.321Z" fill="#B6F72B" fill-opacity="0.4"/>
<path d="M1165.3 507.321H1158.3V500.321H1157.2V507.321H1150.2V508.321H1157.2V515.321H1158.3V508.321H1165.3V507.321Z" fill="#B6F72B" fill-opacity="0.4"/>
<path d="M1165.3 557.321H1158.3V550.321H1157.2V557.321H1150.2V558.321H1157.2V565.321H1158.3V558.321H1165.3V557.321Z" fill="#B6F72B" fill-opacity="0.4"/>
<path d="M1165.3 607.321H1158.3V600.321H1157.2V607.321H1150.2V608.321H1157.2V615.321H1158.3V608.321H1165.3V607.321Z" fill="#B6F72B" fill-opacity="0.4"/>
<path d="M1165.3 657.321H1158.3V650.321H1157.2V657.321H1150.2V658.321H1157.2V665.321H1158.3V658.321H1165.3V657.321Z" fill="#B6F72B" fill-opacity="0.4"/>
<path d="M1165.3 707.321H1158.3V700.321H1157.2V707.321H1150.2V708.321H1157.2V715.321H1158.3V708.321H1165.3V707.321Z" fill="#B6F72B" fill-opacity="0.4"/>
<path d="M1165.3 757.321H1158.3V750.321H1157.2V757.321H1150.2V758.321H1157.2V765.321H1158.3V758.321H1165.3V757.321Z" fill="#B6F72B" fill-opacity="0.4"/>
<path d="M1115.3 7.32065L1108.3 7.32065V0.320648L1107.2 0.320648V7.32065L1100.2 7.32065V8.32065H1107.2V15.3206L1108.3 15.3206V8.32065H1115.3V7.32065Z" fill="#B6F72B" fill-opacity="0.4"/>
<path d="M1115.3 57.3206H1108.3V50.3206H1107.2V57.3206H1100.2V58.3206H1107.2V65.3206H1108.3V58.3206H1115.3V57.3206Z" fill="#B6F72B" fill-opacity="0.4"/>
<path d="M1115.3 107.321H1108.3V100.321H1107.2V107.321H1100.2V108.321H1107.2V115.321H1108.3V108.321H1115.3V107.321Z" fill="#B6F72B" fill-opacity="0.4"/>
<path d="M1115.3 157.321H1108.3V150.321H1107.2V157.321H1100.2V158.321H1107.2V165.321H1108.3V158.321H1115.3V157.321Z" fill="#B6F72B" fill-opacity="0.4"/>
<path d="M1115.3 207.321H1108.3V200.321H1107.2V207.321H1100.2V208.321H1107.2V215.321H1108.3V208.321H1115.3V207.321Z" fill="#B6F72B" fill-opacity="0.4"/>
<path d="M1115.3 257.321H1108.3V250.321H1107.2V257.321H1100.2V258.321H1107.2V265.321H1108.3V258.321H1115.3V257.321Z" fill="#B6F72B" fill-opacity="0.4"/>
<path d="M1115.3 307.321H1108.3V300.321H1107.2V307.321H1100.2V308.321H1107.2V315.321H1108.3V308.321H1115.3V307.321Z" fill="#B6F72B" fill-opacity="0.4"/>
<path d="M1115.3 357.321H1108.3V350.321H1107.2V357.321H1100.2V358.321H1107.2V365.321H1108.3V358.321H1115.3V357.321Z" fill="#B6F72B" fill-opacity="0.4"/>
<path d="M1115.3 407.321H1108.3V400.321H1107.2V407.321H1100.2V408.321H1107.2V415.321H1108.3V408.321H1115.3V407.321Z" fill="#B6F72B" fill-opacity="0.4"/>
<path d="M1115.3 457.321H1108.3V450.321H1107.2V457.321H1100.2V458.321H1107.2V465.321H1108.3V458.321H1115.3V457.321Z" fill="#B6F72B" fill-opacity="0.4"/>
<path d="M1115.3 507.321H1108.3V500.321H1107.2V507.321H1100.2V508.321H1107.2V515.321H1108.3V508.321H1115.3V507.321Z" fill="#B6F72B" fill-opacity="0.4"/>
<path d="M1115.3 557.321H1108.3V550.321H1107.2V557.321H1100.2V558.321H1107.2V565.321H1108.3V558.321H1115.3V557.321Z" fill="#B6F72B" fill-opacity="0.4"/>
<path d="M1115.3 607.321H1108.3V600.321H1107.2V607.321H1100.2V608.321H1107.2V615.321H1108.3V608.321H1115.3V607.321Z" fill="#B6F72B" fill-opacity="0.4"/>
<path d="M1115.3 657.321H1108.3V650.321H1107.2V657.321H1100.2V658.321H1107.2V665.321H1108.3V658.321H1115.3V657.321Z" fill="#B6F72B" fill-opacity="0.4"/>
<path d="M1115.3 707.321H1108.3V700.321H1107.2V707.321H1100.2V708.321H1107.2V715.321H1108.3V708.321H1115.3V707.321Z" fill="#B6F72B" fill-opacity="0.4"/>
<path d="M1115.3 757.321H1108.3V750.321H1107.2V757.321H1100.2V758.321H1107.2V765.321H1108.3V758.321H1115.3V757.321Z" fill="#B6F72B" fill-opacity="0.4"/>
<path d="M1065.3 7.32065L1058.3 7.32065V0.320648L1057.2 0.320648V7.32065L1050.2 7.32065V8.32065H1057.2V15.3206L1058.3 15.3206V8.32065H1065.3V7.32065Z" fill="#B6F72B" fill-opacity="0.4"/>
<path d="M1065.3 57.3206H1058.3V50.3206H1057.2V57.3206H1050.2V58.3206H1057.2V65.3206H1058.3V58.3206H1065.3V57.3206Z" fill="#B6F72B" fill-opacity="0.4"/>
<path d="M1065.3 107.321H1058.3V100.321H1057.2V107.321H1050.2V108.321H1057.2V115.321H1058.3V108.321H1065.3V107.321Z" fill="#B6F72B" fill-opacity="0.4"/>
<path d="M1065.3 157.321H1058.3V150.321H1057.2V157.321H1050.2V158.321H1057.2V165.321H1058.3V158.321H1065.3V157.321Z" fill="#B6F72B" fill-opacity="0.4"/>
<path d="M1065.3 207.321H1058.3V200.321H1057.2V207.321H1050.2V208.321H1057.2V215.321H1058.3V208.321H1065.3V207.321Z" fill="#B6F72B" fill-opacity="0.4"/>
<path d="M1065.3 257.321H1058.3V250.321H1057.2V257.321H1050.2V258.321H1057.2V265.321H1058.3V258.321H1065.3V257.321Z" fill="#B6F72B" fill-opacity="0.4"/>
<path d="M1065.3 307.321H1058.3V300.321H1057.2V307.321H1050.2V308.321H1057.2V315.321H1058.3V308.321H1065.3V307.321Z" fill="#B6F72B" fill-opacity="0.4"/>
<path d="M1065.3 357.321H1058.3V350.321H1057.2V357.321H1050.2V358.321H1057.2V365.321H1058.3V358.321H1065.3V357.321Z" fill="#B6F72B" fill-opacity="0.4"/>
<path d="M1065.3 407.321H1058.3V400.321H1057.2V407.321H1050.2V408.321H1057.2V415.321H1058.3V408.321H1065.3V407.321Z" fill="#B6F72B" fill-opacity="0.4"/>
<path d="M1065.3 457.321H1058.3V450.321H1057.2V457.321H1050.2V458.321H1057.2V465.321H1058.3V458.321H1065.3V457.321Z" fill="#B6F72B" fill-opacity="0.4"/>
<path d="M1065.3 507.321H1058.3V500.321H1057.2V507.321H1050.2V508.321H1057.2V515.321H1058.3V508.321H1065.3V507.321Z" fill="#B6F72B" fill-opacity="0.4"/>
<path d="M1065.3 557.321H1058.3V550.321H1057.2V557.321H1050.2V558.321H1057.2V565.321H1058.3V558.321H1065.3V557.321Z" fill="#B6F72B" fill-opacity="0.4"/>
<path d="M1065.3 607.321H1058.3V600.321H1057.2V607.321H1050.2V608.321H1057.2V615.321H1058.3V608.321H1065.3V607.321Z" fill="#B6F72B" fill-opacity="0.4"/>
<path d="M1065.3 657.321H1058.3V650.321H1057.2V657.321H1050.2V658.321H1057.2V665.321H1058.3V658.321H1065.3V657.321Z" fill="#B6F72B" fill-opacity="0.4"/>
<path d="M1065.3 707.321H1058.3V700.321H1057.2V707.321H1050.2V708.321H1057.2V715.321H1058.3V708.321H1065.3V707.321Z" fill="#B6F72B" fill-opacity="0.4"/>
<path d="M1065.3 757.321H1058.3V750.321H1057.2V757.321H1050.2V758.321H1057.2V765.321H1058.3V758.321H1065.3V757.321Z" fill="#B6F72B" fill-opacity="0.4"/>
<path d="M1015.3 7.32065L1008.3 7.32065V0.320648L1007.2 0.320648V7.32065L1000.2 7.32065V8.32065H1007.2V15.3206L1008.3 15.3206V8.32065H1015.3V7.32065Z" fill="#B6F72B" fill-opacity="0.4"/>
<path d="M1015.3 57.3206H1008.3V50.3206H1007.2V57.3206H1000.2V58.3206H1007.2V65.3206H1008.3V58.3206H1015.3V57.3206Z" fill="#B6F72B" fill-opacity="0.4"/>
<path d="M1015.3 107.321H1008.3V100.321H1007.2V107.321H1000.2V108.321H1007.2V115.321H1008.3V108.321H1015.3V107.321Z" fill="#B6F72B" fill-opacity="0.4"/>
<path d="M1015.3 157.321H1008.3V150.321H1007.2V157.321H1000.2V158.321H1007.2V165.321H1008.3V158.321H1015.3V157.321Z" fill="#B6F72B" fill-opacity="0.4"/>
<path d="M1015.3 207.321H1008.3V200.321H1007.2V207.321H1000.2V208.321H1007.2V215.321H1008.3V208.321H1015.3V207.321Z" fill="#B6F72B" fill-opacity="0.4"/>
<path d="M1015.3 257.321H1008.3V250.321H1007.2V257.321H1000.2V258.321H1007.2V265.321H1008.3V258.321H1015.3V257.321Z" fill="#B6F72B" fill-opacity="0.4"/>
<path d="M1015.3 307.321H1008.3V300.321H1007.2V307.321H1000.2V308.321H1007.2V315.321H1008.3V308.321H1015.3V307.321Z" fill="#B6F72B" fill-opacity="0.4"/>
<path d="M1015.3 357.321H1008.3V350.321H1007.2V357.321H1000.2V358.321H1007.2V365.321H1008.3V358.321H1015.3V357.321Z" fill="#B6F72B" fill-opacity="0.4"/>
<path d="M1015.3 407.321H1008.3V400.321H1007.2V407.321H1000.2V408.321H1007.2V415.321H1008.3V408.321H1015.3V407.321Z" fill="#B6F72B" fill-opacity="0.4"/>
<path d="M1015.3 457.321H1008.3V450.321H1007.2V457.321H1000.2V458.321H1007.2V465.321H1008.3V458.321H1015.3V457.321Z" fill="#B6F72B" fill-opacity="0.4"/>
<path d="M1015.3 507.321H1008.3V500.321H1007.2V507.321H1000.2V508.321H1007.2V515.321H1008.3V508.321H1015.3V507.321Z" fill="#B6F72B" fill-opacity="0.4"/>
<path d="M1015.3 557.321H1008.3V550.321H1007.2V557.321H1000.2V558.321H1007.2V565.321H1008.3V558.321H1015.3V557.321Z" fill="#B6F72B" fill-opacity="0.4"/>
<path d="M1015.3 607.321H1008.3V600.321H1007.2V607.321H1000.2V608.321H1007.2V615.321H1008.3V608.321H1015.3V607.321Z" fill="#B6F72B" fill-opacity="0.4"/>
<path d="M1015.3 657.321H1008.3V650.321H1007.2V657.321H1000.2V658.321H1007.2V665.321H1008.3V658.321H1015.3V657.321Z" fill="#B6F72B" fill-opacity="0.4"/>
<path d="M1015.3 707.321H1008.3V700.321H1007.2V707.321H1000.2V708.321H1007.2V715.321H1008.3V708.321H1015.3V707.321Z" fill="#B6F72B" fill-opacity="0.4"/>
<path d="M1015.3 757.321H1008.3V750.321H1007.2V757.321H1000.2V758.321H1007.2V765.321H1008.3V758.321H1015.3V757.321Z" fill="#B6F72B" fill-opacity="0.4"/>
<path d="M965.3 7.32065L958.3 7.32065V0.320648L957.2 0.320648V7.32065L950.2 7.32065V8.32065H957.2V15.3206L958.3 15.3206V8.32065H965.3V7.32065Z" fill="#B6F72B" fill-opacity="0.4"/>
<path d="M965.3 57.3206H958.3V50.3206H957.2V57.3206H950.2V58.3206H957.2V65.3206H958.3V58.3206H965.3V57.3206Z" fill="#B6F72B" fill-opacity="0.4"/>
<path d="M965.3 107.321H958.3V100.321H957.2V107.321H950.2V108.321H957.2V115.321H958.3V108.321H965.3V107.321Z" fill="#B6F72B" fill-opacity="0.4"/>
<path d="M965.3 157.321H958.3V150.321H957.2V157.321H950.2V158.321H957.2V165.321H958.3V158.321H965.3V157.321Z" fill="#B6F72B" fill-opacity="0.4"/>
<path d="M965.3 207.321H958.3V200.321H957.2V207.321H950.2V208.321H957.2V215.321H958.3V208.321H965.3V207.321Z" fill="#B6F72B" fill-opacity="0.4"/>
<path d="M965.3 257.321H958.3V250.321H957.2V257.321H950.2V258.321H957.2V265.321H958.3V258.321H965.3V257.321Z" fill="#B6F72B" fill-opacity="0.4"/>
<path d="M965.3 307.321H958.3V300.321H957.2V307.321H950.2V308.321H957.2V315.321H958.3V308.321H965.3V307.321Z" fill="#B6F72B" fill-opacity="0.4"/>
<path d="M965.3 357.321H958.3V350.321H957.2V357.321H950.2V358.321H957.2V365.321H958.3V358.321H965.3V357.321Z" fill="#B6F72B" fill-opacity="0.4"/>
<path d="M965.3 407.321H958.3V400.321H957.2V407.321H950.2V408.321H957.2V415.321H958.3V408.321H965.3V407.321Z" fill="#B6F72B" fill-opacity="0.4"/>
<path d="M965.3 457.321H958.3V450.321H957.2V457.321H950.2V458.321H957.2V465.321H958.3V458.321H965.3V457.321Z" fill="#B6F72B" fill-opacity="0.4"/>
<path d="M965.3 507.321H958.3V500.321H957.2V507.321H950.2V508.321H957.2V515.321H958.3V508.321H965.3V507.321Z" fill="#B6F72B" fill-opacity="0.4"/>
<path d="M965.3 557.321H958.3V550.321H957.2V557.321H950.2V558.321H957.2V565.321H958.3V558.321H965.3V557.321Z" fill="#B6F72B" fill-opacity="0.4"/>
<path d="M965.3 607.321H958.3V600.321H957.2V607.321H950.2V608.321H957.2V615.321H958.3V608.321H965.3V607.321Z" fill="#B6F72B" fill-opacity="0.4"/>
<path d="M965.3 657.321H958.3V650.321H957.2V657.321H950.2V658.321H957.2V665.321H958.3V658.321H965.3V657.321Z" fill="#B6F72B" fill-opacity="0.4"/>
<path d="M965.3 707.321H958.3V700.321H957.2V707.321H950.2V708.321H957.2V715.321H958.3V708.321H965.3V707.321Z" fill="#B6F72B" fill-opacity="0.4"/>
<path d="M965.3 757.321H958.3V750.321H957.2V757.321H950.2V758.321H957.2V765.321H958.3V758.321H965.3V757.321Z" fill="#B6F72B" fill-opacity="0.4"/>
<path d="M915.3 7.32065L908.3 7.32065V0.320648L907.2 0.320648V7.32065L900.2 7.32065V8.32065H907.2V15.3206L908.3 15.3206V8.32065H915.3V7.32065Z" fill="#B6F72B" fill-opacity="0.4"/>
<path d="M915.3 57.3206H908.3V50.3206H907.2V57.3206H900.2V58.3206H907.2V65.3206H908.3V58.3206H915.3V57.3206Z" fill="#B6F72B" fill-opacity="0.4"/>
<path d="M915.3 107.321H908.3V100.321H907.2V107.321H900.2V108.321H907.2V115.321H908.3V108.321H915.3V107.321Z" fill="#B6F72B" fill-opacity="0.4"/>
<path d="M915.3 157.321H908.3V150.321H907.2V157.321H900.2V158.321H907.2V165.321H908.3V158.321H915.3V157.321Z" fill="#B6F72B" fill-opacity="0.4"/>
<path d="M915.3 207.321H908.3V200.321H907.2V207.321H900.2V208.321H907.2V215.321H908.3V208.321H915.3V207.321Z" fill="#B6F72B" fill-opacity="0.4"/>
<path d="M915.3 257.321H908.3V250.321H907.2V257.321H900.2V258.321H907.2V265.321H908.3V258.321H915.3V257.321Z" fill="#B6F72B" fill-opacity="0.4"/>
<path d="M915.3 307.321H908.3V300.321H907.2V307.321H900.2V308.321H907.2V315.321H908.3V308.321H915.3V307.321Z" fill="#B6F72B" fill-opacity="0.4"/>
<path d="M915.3 357.321H908.3V350.321H907.2V357.321H900.2V358.321H907.2V365.321H908.3V358.321H915.3V357.321Z" fill="#B6F72B" fill-opacity="0.4"/>
<path d="M915.3 407.321H908.3V400.321H907.2V407.321H900.2V408.321H907.2V415.321H908.3V408.321H915.3V407.321Z" fill="#B6F72B" fill-opacity="0.4"/>
<path d="M915.3 457.321H908.3V450.321H907.2V457.321H900.2V458.321H907.2V465.321H908.3V458.321H915.3V457.321Z" fill="#B6F72B" fill-opacity="0.4"/>
<path d="M915.3 507.321H908.3V500.321H907.2V507.321H900.2V508.321H907.2V515.321H908.3V508.321H915.3V507.321Z" fill="#B6F72B" fill-opacity="0.4"/>
<path d="M915.3 557.321H908.3V550.321H907.2V557.321H900.2V558.321H907.2V565.321H908.3V558.321H915.3V557.321Z" fill="#B6F72B" fill-opacity="0.4"/>
<path d="M915.3 607.321H908.3V600.321H907.2V607.321H900.2V608.321H907.2V615.321H908.3V608.321H915.3V607.321Z" fill="#B6F72B" fill-opacity="0.4"/>
<path d="M915.3 657.321H908.3V650.321H907.2V657.321H900.2V658.321H907.2V665.321H908.3V658.321H915.3V657.321Z" fill="#B6F72B" fill-opacity="0.4"/>
<path d="M915.3 707.321H908.3V700.321H907.2V707.321H900.2V708.321H907.2V715.321H908.3V708.321H915.3V707.321Z" fill="#B6F72B" fill-opacity="0.4"/>
<path d="M915.3 757.321H908.3V750.321H907.2V757.321H900.2V758.321H907.2V765.321H908.3V758.321H915.3V757.321Z" fill="#B6F72B" fill-opacity="0.4"/>
<path d="M865.3 7.32065L858.3 7.32065V0.320648L857.2 0.320648V7.32065L850.2 7.32065V8.32065H857.2V15.3206L858.3 15.3206V8.32065H865.3V7.32065Z" fill="#B6F72B" fill-opacity="0.4"/>
<path d="M865.3 57.3206H858.3V50.3206H857.2V57.3206H850.2V58.3206H857.2V65.3206H858.3V58.3206H865.3V57.3206Z" fill="#B6F72B" fill-opacity="0.4"/>
<path d="M865.3 107.321H858.3V100.321H857.2V107.321H850.2V108.321H857.2V115.321H858.3V108.321H865.3V107.321Z" fill="#B6F72B" fill-opacity="0.4"/>
<path d="M865.3 157.321H858.3V150.321H857.2V157.321H850.2V158.321H857.2V165.321H858.3V158.321H865.3V157.321Z" fill="#B6F72B" fill-opacity="0.4"/>
<path d="M865.3 207.321H858.3V200.321H857.2V207.321H850.2V208.321H857.2V215.321H858.3V208.321H865.3V207.321Z" fill="#B6F72B" fill-opacity="0.4"/>
<path d="M865.3 257.321H858.3V250.321H857.2V257.321H850.2V258.321H857.2V265.321H858.3V258.321H865.3V257.321Z" fill="#B6F72B" fill-opacity="0.4"/>
<path d="M865.3 307.321H858.3V300.321H857.2V307.321H850.2V308.321H857.2V315.321H858.3V308.321H865.3V307.321Z" fill="#B6F72B" fill-opacity="0.4"/>
<path d="M865.3 357.321H858.3V350.321H857.2V357.321H850.2V358.321H857.2V365.321H858.3V358.321H865.3V357.321Z" fill="#B6F72B" fill-opacity="0.4"/>
<path d="M865.3 407.321H858.3V400.321H857.2V407.321H850.2V408.321H857.2V415.321H858.3V408.321H865.3V407.321Z" fill="#B6F72B" fill-opacity="0.4"/>
<path d="M865.3 457.321H858.3V450.321H857.2V457.321H850.2V458.321H857.2V465.321H858.3V458.321H865.3V457.321Z" fill="#B6F72B" fill-opacity="0.4"/>
<path d="M865.3 507.321H858.3V500.321H857.2V507.321H850.2V508.321H857.2V515.321H858.3V508.321H865.3V507.321Z" fill="#B6F72B" fill-opacity="0.4"/>
<path d="M865.3 557.321H858.3V550.321H857.2V557.321H850.2V558.321H857.2V565.321H858.3V558.321H865.3V557.321Z" fill="#B6F72B" fill-opacity="0.4"/>
<path d="M865.3 607.321H858.3V600.321H857.2V607.321H850.2V608.321H857.2V615.321H858.3V608.321H865.3V607.321Z" fill="#B6F72B" fill-opacity="0.4"/>
<path d="M865.3 657.321H858.3V650.321H857.2V657.321H850.2V658.321H857.2V665.321H858.3V658.321H865.3V657.321Z" fill="#B6F72B" fill-opacity="0.4"/>
<path d="M865.3 707.321H858.3V700.321H857.2V707.321H850.2V708.321H857.2V715.321H858.3V708.321H865.3V707.321Z" fill="#B6F72B" fill-opacity="0.4"/>
<path d="M865.3 757.321H858.3V750.321H857.2V757.321H850.2V758.321H857.2V765.321H858.3V758.321H865.3V757.321Z" fill="#B6F72B" fill-opacity="0.4"/>
<path d="M815.3 7.32065L808.3 7.32065V0.320648L807.2 0.320648V7.32065L800.2 7.32065V8.32065H807.2V15.3206L808.3 15.3206V8.32065H815.3V7.32065Z" fill="#B6F72B" fill-opacity="0.4"/>
<path d="M815.3 57.3206H808.3V50.3206H807.2V57.3206H800.2V58.3206H807.2V65.3206H808.3V58.3206H815.3V57.3206Z" fill="#B6F72B" fill-opacity="0.4"/>
<path d="M815.3 107.321H808.3V100.321H807.2V107.321H800.2V108.321H807.2V115.321H808.3V108.321H815.3V107.321Z" fill="#B6F72B" fill-opacity="0.4"/>
<path d="M815.3 157.321H808.3V150.321H807.2V157.321H800.2V158.321H807.2V165.321H808.3V158.321H815.3V157.321Z" fill="#B6F72B" fill-opacity="0.4"/>
<path d="M815.3 207.321H808.3V200.321H807.2V207.321H800.2V208.321H807.2V215.321H808.3V208.321H815.3V207.321Z" fill="#B6F72B" fill-opacity="0.4"/>
<path d="M815.3 257.321H808.3V250.321H807.2V257.321H800.2V258.321H807.2V265.321H808.3V258.321H815.3V257.321Z" fill="#B6F72B" fill-opacity="0.4"/>
<path d="M815.3 307.321H808.3V300.321H807.2V307.321H800.2V308.321H807.2V315.321H808.3V308.321H815.3V307.321Z" fill="#B6F72B" fill-opacity="0.4"/>
<path d="M815.3 357.321H808.3V350.321H807.2V357.321H800.2V358.321H807.2V365.321H808.3V358.321H815.3V357.321Z" fill="#B6F72B" fill-opacity="0.4"/>
<path d="M815.3 407.321H808.3V400.321H807.2V407.321H800.2V408.321H807.2V415.321H808.3V408.321H815.3V407.321Z" fill="#B6F72B" fill-opacity="0.4"/>
<path d="M815.3 457.321H808.3V450.321H807.2V457.321H800.2V458.321H807.2V465.321H808.3V458.321H815.3V457.321Z" fill="#B6F72B" fill-opacity="0.4"/>
<path d="M815.3 507.321H808.3V500.321H807.2V507.321H800.2V508.321H807.2V515.321H808.3V508.321H815.3V507.321Z" fill="#B6F72B" fill-opacity="0.4"/>
<path d="M815.3 557.321H808.3V550.321H807.2V557.321H800.2V558.321H807.2V565.321H808.3V558.321H815.3V557.321Z" fill="#B6F72B" fill-opacity="0.4"/>
<path d="M815.3 607.321H808.3V600.321H807.2V607.321H800.2V608.321H807.2V615.321H808.3V608.321H815.3V607.321Z" fill="#B6F72B" fill-opacity="0.4"/>
<path d="M815.3 657.321H808.3V650.321H807.2V657.321H800.2V658.321H807.2V665.321H808.3V658.321H815.3V657.321Z" fill="#B6F72B" fill-opacity="0.4"/>
<path d="M815.3 707.321H808.3V700.321H807.2V707.321H800.2V708.321H807.2V715.321H808.3V708.321H815.3V707.321Z" fill="#B6F72B" fill-opacity="0.4"/>
<path d="M815.3 757.321H808.3V750.321H807.2V757.321H800.2V758.321H807.2V765.321H808.3V758.321H815.3V757.321Z" fill="#B6F72B" fill-opacity="0.4"/>
<path d="M765.3 7.32065L758.3 7.32065V0.320648L757.2 0.320648V7.32065L750.2 7.32065V8.32065H757.2V15.3206L758.3 15.3206V8.32065H765.3V7.32065Z" fill="#B6F72B" fill-opacity="0.4"/>
<path d="M765.3 57.3206H758.3V50.3206H757.2V57.3206H750.2V58.3206H757.2V65.3206H758.3V58.3206H765.3V57.3206Z" fill="#B6F72B" fill-opacity="0.4"/>
<path d="M765.3 107.321H758.3V100.321H757.2V107.321H750.2V108.321H757.2V115.321H758.3V108.321H765.3V107.321Z" fill="#B6F72B" fill-opacity="0.4"/>
<path d="M765.3 157.321H758.3V150.321H757.2V157.321H750.2V158.321H757.2V165.321H758.3V158.321H765.3V157.321Z" fill="#B6F72B" fill-opacity="0.4"/>
<path d="M765.3 207.321H758.3V200.321H757.2V207.321H750.2V208.321H757.2V215.321H758.3V208.321H765.3V207.321Z" fill="#B6F72B" fill-opacity="0.4"/>
<path d="M765.3 257.321H758.3V250.321H757.2V257.321H750.2V258.321H757.2V265.321H758.3V258.321H765.3V257.321Z" fill="#B6F72B" fill-opacity="0.4"/>
<path d="M765.3 307.321H758.3V300.321H757.2V307.321H750.2V308.321H757.2V315.321H758.3V308.321H765.3V307.321Z" fill="#B6F72B" fill-opacity="0.4"/>
<path d="M765.3 357.321H758.3V350.321H757.2V357.321H750.2V358.321H757.2V365.321H758.3V358.321H765.3V357.321Z" fill="#B6F72B" fill-opacity="0.4"/>
<path d="M765.3 407.321H758.3V400.321H757.2V407.321H750.2V408.321H757.2V415.321H758.3V408.321H765.3V407.321Z" fill="#B6F72B" fill-opacity="0.4"/>
<path d="M765.3 457.321H758.3V450.321H757.2V457.321H750.2V458.321H757.2V465.321H758.3V458.321H765.3V457.321Z" fill="#B6F72B" fill-opacity="0.4"/>
<path d="M765.3 507.321H758.3V500.321H757.2V507.321H750.2V508.321H757.2V515.321H758.3V508.321H765.3V507.321Z" fill="#B6F72B" fill-opacity="0.4"/>
<path d="M765.3 557.321H758.3V550.321H757.2V557.321H750.2V558.321H757.2V565.321H758.3V558.321H765.3V557.321Z" fill="#B6F72B" fill-opacity="0.4"/>
<path d="M765.3 607.321H758.3V600.321H757.2V607.321H750.2V608.321H757.2V615.321H758.3V608.321H765.3V607.321Z" fill="#B6F72B" fill-opacity="0.4"/>
<path d="M765.3 657.321H758.3V650.321H757.2V657.321H750.2V658.321H757.2V665.321H758.3V658.321H765.3V657.321Z" fill="#B6F72B" fill-opacity="0.4"/>
<path d="M765.3 707.321H758.3V700.321H757.2V707.321H750.2V708.321H757.2V715.321H758.3V708.321H765.3V707.321Z" fill="#B6F72B" fill-opacity="0.4"/>
<path d="M765.3 757.321H758.3V750.321H757.2V757.321H750.2V758.321H757.2V765.321H758.3V758.321H765.3V757.321Z" fill="#B6F72B" fill-opacity="0.4"/>
<path d="M715.3 7.32065L708.3 7.32065V0.320648L707.2 0.320648V7.32065L700.2 7.32065V8.32065H707.2V15.3206L708.3 15.3206V8.32065H715.3V7.32065Z" fill="#B6F72B" fill-opacity="0.4"/>
<path d="M715.3 57.3206H708.3V50.3206H707.2V57.3206H700.2V58.3206H707.2V65.3206H708.3V58.3206H715.3V57.3206Z" fill="#B6F72B" fill-opacity="0.4"/>
<path d="M715.3 107.321H708.3V100.321H707.2V107.321H700.2V108.321H707.2V115.321H708.3V108.321H715.3V107.321Z" fill="#B6F72B" fill-opacity="0.4"/>
<path d="M715.3 157.321H708.3V150.321H707.2V157.321H700.2V158.321H707.2V165.321H708.3V158.321H715.3V157.321Z" fill="#B6F72B" fill-opacity="0.4"/>
<path d="M715.3 207.321H708.3V200.321H707.2V207.321H700.2V208.321H707.2V215.321H708.3V208.321H715.3V207.321Z" fill="#B6F72B" fill-opacity="0.4"/>
<path d="M715.3 257.321H708.3V250.321H707.2V257.321H700.2V258.321H707.2V265.321H708.3V258.321H715.3V257.321Z" fill="#B6F72B" fill-opacity="0.4"/>
<path d="M715.3 307.321H708.3V300.321H707.2V307.321H700.2V308.321H707.2V315.321H708.3V308.321H715.3V307.321Z" fill="#B6F72B" fill-opacity="0.4"/>
<path d="M715.3 357.321H708.3V350.321H707.2V357.321H700.2V358.321H707.2V365.321H708.3V358.321H715.3V357.321Z" fill="#B6F72B" fill-opacity="0.4"/>
<path d="M715.3 407.321H708.3V400.321H707.2V407.321H700.2V408.321H707.2V415.321H708.3V408.321H715.3V407.321Z" fill="#B6F72B" fill-opacity="0.4"/>
<path d="M715.3 457.321H708.3V450.321H707.2V457.321H700.2V458.321H707.2V465.321H708.3V458.321H715.3V457.321Z" fill="#B6F72B" fill-opacity="0.4"/>
<path d="M715.3 507.321H708.3V500.321H707.2V507.321H700.2V508.321H707.2V515.321H708.3V508.321H715.3V507.321Z" fill="#B6F72B" fill-opacity="0.4"/>
<path d="M715.3 557.321H708.3V550.321H707.2V557.321H700.2V558.321H707.2V565.321H708.3V558.321H715.3V557.321Z" fill="#B6F72B" fill-opacity="0.4"/>
<path d="M715.3 607.321H708.3V600.321H707.2V607.321H700.2V608.321H707.2V615.321H708.3V608.321H715.3V607.321Z" fill="#B6F72B" fill-opacity="0.4"/>
<path d="M715.3 657.321H708.3V650.321H707.2V657.321H700.2V658.321H707.2V665.321H708.3V658.321H715.3V657.321Z" fill="#B6F72B" fill-opacity="0.4"/>
<path d="M715.3 707.321H708.3V700.321H707.2V707.321H700.2V708.321H707.2V715.321H708.3V708.321H715.3V707.321Z" fill="#B6F72B" fill-opacity="0.4"/>
<path d="M715.3 757.321H708.3V750.321H707.2V757.321H700.2V758.321H707.2V765.321H708.3V758.321H715.3V757.321Z" fill="#B6F72B" fill-opacity="0.4"/>
<path d="M665.3 7.32065L658.3 7.32065V0.320648L657.2 0.320648V7.32065L650.2 7.32065V8.32065H657.2V15.3206L658.3 15.3206V8.32065H665.3V7.32065Z" fill="#B6F72B" fill-opacity="0.4"/>
<path d="M665.3 57.3206H658.3V50.3206H657.2V57.3206H650.2V58.3206H657.2V65.3206H658.3V58.3206H665.3V57.3206Z" fill="#B6F72B" fill-opacity="0.4"/>
<path d="M665.3 107.321H658.3V100.321H657.2V107.321H650.2V108.321H657.2V115.321H658.3V108.321H665.3V107.321Z" fill="#B6F72B" fill-opacity="0.4"/>
<path d="M665.3 157.321H658.3V150.321H657.2V157.321H650.2V158.321H657.2V165.321H658.3V158.321H665.3V157.321Z" fill="#B6F72B" fill-opacity="0.4"/>
<path d="M665.3 207.321H658.3V200.321H657.2V207.321H650.2V208.321H657.2V215.321H658.3V208.321H665.3V207.321Z" fill="#B6F72B" fill-opacity="0.4"/>
<path d="M665.3 257.321H658.3V250.321H657.2V257.321H650.2V258.321H657.2V265.321H658.3V258.321H665.3V257.321Z" fill="#B6F72B" fill-opacity="0.4"/>
<path d="M665.3 307.321H658.3V300.321H657.2V307.321H650.2V308.321H657.2V315.321H658.3V308.321H665.3V307.321Z" fill="#B6F72B" fill-opacity="0.4"/>
<path d="M665.3 357.321H658.3V350.321H657.2V357.321H650.2V358.321H657.2V365.321H658.3V358.321H665.3V357.321Z" fill="#B6F72B" fill-opacity="0.4"/>
<path d="M665.3 407.321H658.3V400.321H657.2V407.321H650.2V408.321H657.2V415.321H658.3V408.321H665.3V407.321Z" fill="#B6F72B" fill-opacity="0.4"/>
<path d="M665.3 457.321H658.3V450.321H657.2V457.321H650.2V458.321H657.2V465.321H658.3V458.321H665.3V457.321Z" fill="#B6F72B" fill-opacity="0.4"/>
<path d="M665.3 507.321H658.3V500.321H657.2V507.321H650.2V508.321H657.2V515.321H658.3V508.321H665.3V507.321Z" fill="#B6F72B" fill-opacity="0.4"/>
<path d="M665.3 557.321H658.3V550.321H657.2V557.321H650.2V558.321H657.2V565.321H658.3V558.321H665.3V557.321Z" fill="#B6F72B" fill-opacity="0.4"/>
<path d="M665.3 607.321H658.3V600.321H657.2V607.321H650.2V608.321H657.2V615.321H658.3V608.321H665.3V607.321Z" fill="#B6F72B" fill-opacity="0.4"/>
<path d="M665.3 657.321H658.3V650.321H657.2V657.321H650.2V658.321H657.2V665.321H658.3V658.321H665.3V657.321Z" fill="#B6F72B" fill-opacity="0.4"/>
<path d="M665.3 707.321H658.3V700.321H657.2V707.321H650.2V708.321H657.2V715.321H658.3V708.321H665.3V707.321Z" fill="#B6F72B" fill-opacity="0.4"/>
<path d="M665.3 757.321H658.3V750.321H657.2V757.321H650.2V758.321H657.2V765.321H658.3V758.321H665.3V757.321Z" fill="#B6F72B" fill-opacity="0.4"/>
<path d="M615.3 7.32065L608.3 7.32065V0.320648L607.2 0.320648V7.32065L600.2 7.32065V8.32065H607.2V15.3206L608.3 15.3206V8.32065H615.3V7.32065Z" fill="#B6F72B" fill-opacity="0.4"/>
<path d="M615.3 57.3206H608.3V50.3206H607.2V57.3206H600.2V58.3206H607.2V65.3206H608.3V58.3206H615.3V57.3206Z" fill="#B6F72B" fill-opacity="0.4"/>
<path d="M615.3 107.321H608.3V100.321H607.2V107.321H600.2V108.321H607.2V115.321H608.3V108.321H615.3V107.321Z" fill="#B6F72B" fill-opacity="0.4"/>
<path d="M615.3 157.321H608.3V150.321H607.2V157.321H600.2V158.321H607.2V165.321H608.3V158.321H615.3V157.321Z" fill="#B6F72B" fill-opacity="0.4"/>
<path d="M615.3 207.321H608.3V200.321H607.2V207.321H600.2V208.321H607.2V215.321H608.3V208.321H615.3V207.321Z" fill="#B6F72B" fill-opacity="0.4"/>
<path d="M615.3 257.321H608.3V250.321H607.2V257.321H600.2V258.321H607.2V265.321H608.3V258.321H615.3V257.321Z" fill="#B6F72B" fill-opacity="0.4"/>
<path d="M615.3 307.321H608.3V300.321H607.2V307.321H600.2V308.321H607.2V315.321H608.3V308.321H615.3V307.321Z" fill="#B6F72B" fill-opacity="0.4"/>
<path d="M615.3 357.321H608.3V350.321H607.2V357.321H600.2V358.321H607.2V365.321H608.3V358.321H615.3V357.321Z" fill="#B6F72B" fill-opacity="0.4"/>
<path d="M615.3 407.321H608.3V400.321H607.2V407.321H600.2V408.321H607.2V415.321H608.3V408.321H615.3V407.321Z" fill="#B6F72B" fill-opacity="0.4"/>
<path d="M615.3 457.321H608.3V450.321H607.2V457.321H600.2V458.321H607.2V465.321H608.3V458.321H615.3V457.321Z" fill="#B6F72B" fill-opacity="0.4"/>
<path d="M615.3 507.321H608.3V500.321H607.2V507.321H600.2V508.321H607.2V515.321H608.3V508.321H615.3V507.321Z" fill="#B6F72B" fill-opacity="0.4"/>
<path d="M615.3 557.321H608.3V550.321H607.2V557.321H600.2V558.321H607.2V565.321H608.3V558.321H615.3V557.321Z" fill="#B6F72B" fill-opacity="0.4"/>
<path d="M615.3 607.321H608.3V600.321H607.2V607.321H600.2V608.321H607.2V615.321H608.3V608.321H615.3V607.321Z" fill="#B6F72B" fill-opacity="0.4"/>
<path d="M615.3 657.321H608.3V650.321H607.2V657.321H600.2V658.321H607.2V665.321H608.3V658.321H615.3V657.321Z" fill="#B6F72B" fill-opacity="0.4"/>
<path d="M615.3 707.321H608.3V700.321H607.2V707.321H600.2V708.321H607.2V715.321H608.3V708.321H615.3V707.321Z" fill="#B6F72B" fill-opacity="0.4"/>
<path d="M615.3 757.321H608.3V750.321H607.2V757.321H600.2V758.321H607.2V765.321H608.3V758.321H615.3V757.321Z" fill="#B6F72B" fill-opacity="0.4"/>
<path d="M565.3 7.32065L558.3 7.32065V0.320648L557.2 0.320648V7.32065L550.2 7.32065V8.32065H557.2V15.3206L558.3 15.3206V8.32065H565.3V7.32065Z" fill="#B6F72B" fill-opacity="0.4"/>
<path d="M565.3 57.3206H558.3V50.3206H557.2V57.3206H550.2V58.3206H557.2V65.3206H558.3V58.3206H565.3V57.3206Z" fill="#B6F72B" fill-opacity="0.4"/>
<path d="M565.3 107.321H558.3V100.321H557.2V107.321H550.2V108.321H557.2V115.321H558.3V108.321H565.3V107.321Z" fill="#B6F72B" fill-opacity="0.4"/>
<path d="M565.3 157.321H558.3V150.321H557.2V157.321H550.2V158.321H557.2V165.321H558.3V158.321H565.3V157.321Z" fill="#B6F72B" fill-opacity="0.4"/>
<path d="M565.3 207.321H558.3V200.321H557.2V207.321H550.2V208.321H557.2V215.321H558.3V208.321H565.3V207.321Z" fill="#B6F72B" fill-opacity="0.4"/>
<path d="M565.3 257.321H558.3V250.321H557.2V257.321H550.2V258.321H557.2V265.321H558.3V258.321H565.3V257.321Z" fill="#B6F72B" fill-opacity="0.4"/>
<path d="M565.3 307.321H558.3V300.321H557.2V307.321H550.2V308.321H557.2V315.321H558.3V308.321H565.3V307.321Z" fill="#B6F72B" fill-opacity="0.4"/>
<path d="M565.3 357.321H558.3V350.321H557.2V357.321H550.2V358.321H557.2V365.321H558.3V358.321H565.3V357.321Z" fill="#B6F72B" fill-opacity="0.4"/>
<path d="M565.3 407.321H558.3V400.321H557.2V407.321H550.2V408.321H557.2V415.321H558.3V408.321H565.3V407.321Z" fill="#B6F72B" fill-opacity="0.4"/>
<path d="M565.3 457.321H558.3V450.321H557.2V457.321H550.2V458.321H557.2V465.321H558.3V458.321H565.3V457.321Z" fill="#B6F72B" fill-opacity="0.4"/>
<path d="M565.3 507.321H558.3V500.321H557.2V507.321H550.2V508.321H557.2V515.321H558.3V508.321H565.3V507.321Z" fill="#B6F72B" fill-opacity="0.4"/>
<path d="M565.3 557.321H558.3V550.321H557.2V557.321H550.2V558.321H557.2V565.321H558.3V558.321H565.3V557.321Z" fill="#B6F72B" fill-opacity="0.4"/>
<path d="M565.3 607.321H558.3V600.321H557.2V607.321H550.2V608.321H557.2V615.321H558.3V608.321H565.3V607.321Z" fill="#B6F72B" fill-opacity="0.4"/>
<path d="M565.3 657.321H558.3V650.321H557.2V657.321H550.2V658.321H557.2V665.321H558.3V658.321H565.3V657.321Z" fill="#B6F72B" fill-opacity="0.4"/>
<path d="M565.3 707.321H558.3V700.321H557.2V707.321H550.2V708.321H557.2V715.321H558.3V708.321H565.3V707.321Z" fill="#B6F72B" fill-opacity="0.4"/>
<path d="M565.3 757.321H558.3V750.321H557.2V757.321H550.2V758.321H557.2V765.321H558.3V758.321H565.3V757.321Z" fill="#B6F72B" fill-opacity="0.4"/>
<path d="M515.3 7.32065L508.3 7.32065V0.320648L507.2 0.320648V7.32065L500.2 7.32065V8.32065H507.2V15.3206L508.3 15.3206V8.32065H515.3V7.32065Z" fill="#B6F72B" fill-opacity="0.4"/>
<path d="M515.3 57.3206H508.3V50.3206H507.2V57.3206H500.2V58.3206H507.2V65.3206H508.3V58.3206H515.3V57.3206Z" fill="#B6F72B" fill-opacity="0.4"/>
<path d="M515.3 107.321H508.3V100.321H507.2V107.321H500.2V108.321H507.2V115.321H508.3V108.321H515.3V107.321Z" fill="#B6F72B" fill-opacity="0.4"/>
<path d="M515.3 157.321H508.3V150.321H507.2V157.321H500.2V158.321H507.2V165.321H508.3V158.321H515.3V157.321Z" fill="#B6F72B" fill-opacity="0.4"/>
<path d="M515.3 207.321H508.3V200.321H507.2V207.321H500.2V208.321H507.2V215.321H508.3V208.321H515.3V207.321Z" fill="#B6F72B" fill-opacity="0.4"/>
<path d="M515.3 257.321H508.3V250.321H507.2V257.321H500.2V258.321H507.2V265.321H508.3V258.321H515.3V257.321Z" fill="#B6F72B" fill-opacity="0.4"/>
<path d="M515.3 307.321H508.3V300.321H507.2V307.321H500.2V308.321H507.2V315.321H508.3V308.321H515.3V307.321Z" fill="#B6F72B" fill-opacity="0.4"/>
<path d="M515.3 357.321H508.3V350.321H507.2V357.321H500.2V358.321H507.2V365.321H508.3V358.321H515.3V357.321Z" fill="#B6F72B" fill-opacity="0.4"/>
<path d="M515.3 407.321H508.3V400.321H507.2V407.321H500.2V408.321H507.2V415.321H508.3V408.321H515.3V407.321Z" fill="#B6F72B" fill-opacity="0.4"/>
<path d="M515.3 457.321H508.3V450.321H507.2V457.321H500.2V458.321H507.2V465.321H508.3V458.321H515.3V457.321Z" fill="#B6F72B" fill-opacity="0.4"/>
<path d="M515.3 507.321H508.3V500.321H507.2V507.321H500.2V508.321H507.2V515.321H508.3V508.321H515.3V507.321Z" fill="#B6F72B" fill-opacity="0.4"/>
<path d="M515.3 557.321H508.3V550.321H507.2V557.321H500.2V558.321H507.2V565.321H508.3V558.321H515.3V557.321Z" fill="#B6F72B" fill-opacity="0.4"/>
<path d="M515.3 607.321H508.3V600.321H507.2V607.321H500.2V608.321H507.2V615.321H508.3V608.321H515.3V607.321Z" fill="#B6F72B" fill-opacity="0.4"/>
<path d="M515.3 657.321H508.3V650.321H507.2V657.321H500.2V658.321H507.2V665.321H508.3V658.321H515.3V657.321Z" fill="#B6F72B" fill-opacity="0.4"/>
<path d="M515.3 707.321H508.3V700.321H507.2V707.321H500.2V708.321H507.2V715.321H508.3V708.321H515.3V707.321Z" fill="#B6F72B" fill-opacity="0.4"/>
<path d="M515.3 757.321H508.3V750.321H507.2V757.321H500.2V758.321H507.2V765.321H508.3V758.321H515.3V757.321Z" fill="#B6F72B" fill-opacity="0.4"/>
<path d="M465.3 7.32065L458.3 7.32065V0.320648L457.2 0.320648V7.32065L450.2 7.32065V8.32065H457.2V15.3206L458.3 15.3206V8.32065H465.3V7.32065Z" fill="#B6F72B" fill-opacity="0.4"/>
<path d="M465.3 57.3206H458.3V50.3206H457.2V57.3206H450.2V58.3206H457.2V65.3206H458.3V58.3206H465.3V57.3206Z" fill="#B6F72B" fill-opacity="0.4"/>
<path d="M465.3 107.321H458.3V100.321H457.2V107.321H450.2V108.321H457.2V115.321H458.3V108.321H465.3V107.321Z" fill="#B6F72B" fill-opacity="0.4"/>
<path d="M465.3 157.321H458.3V150.321H457.2V157.321H450.2V158.321H457.2V165.321H458.3V158.321H465.3V157.321Z" fill="#B6F72B" fill-opacity="0.4"/>
<path d="M465.3 207.321H458.3V200.321H457.2V207.321H450.2V208.321H457.2V215.321H458.3V208.321H465.3V207.321Z" fill="#B6F72B" fill-opacity="0.4"/>
<path d="M465.3 257.321H458.3V250.321H457.2V257.321H450.2V258.321H457.2V265.321H458.3V258.321H465.3V257.321Z" fill="#B6F72B" fill-opacity="0.4"/>
<path d="M465.3 307.321H458.3V300.321H457.2V307.321H450.2V308.321H457.2V315.321H458.3V308.321H465.3V307.321Z" fill="#B6F72B" fill-opacity="0.4"/>
<path d="M465.3 357.321H458.3V350.321H457.2V357.321H450.2V358.321H457.2V365.321H458.3V358.321H465.3V357.321Z" fill="#B6F72B" fill-opacity="0.4"/>
<path d="M465.3 407.321H458.3V400.321H457.2V407.321H450.2V408.321H457.2V415.321H458.3V408.321H465.3V407.321Z" fill="#B6F72B" fill-opacity="0.4"/>
<path d="M465.3 457.321H458.3V450.321H457.2V457.321H450.2V458.321H457.2V465.321H458.3V458.321H465.3V457.321Z" fill="#B6F72B" fill-opacity="0.4"/>
<path d="M465.3 507.321H458.3V500.321H457.2V507.321H450.2V508.321H457.2V515.321H458.3V508.321H465.3V507.321Z" fill="#B6F72B" fill-opacity="0.4"/>
<path d="M465.3 557.321H458.3V550.321H457.2V557.321H450.2V558.321H457.2V565.321H458.3V558.321H465.3V557.321Z" fill="#B6F72B" fill-opacity="0.4"/>
<path d="M465.3 607.321H458.3V600.321H457.2V607.321H450.2V608.321H457.2V615.321H458.3V608.321H465.3V607.321Z" fill="#B6F72B" fill-opacity="0.4"/>
<path d="M465.3 657.321H458.3V650.321H457.2V657.321H450.2V658.321H457.2V665.321H458.3V658.321H465.3V657.321Z" fill="#B6F72B" fill-opacity="0.4"/>
<path d="M465.3 707.321H458.3V700.321H457.2V707.321H450.2V708.321H457.2V715.321H458.3V708.321H465.3V707.321Z" fill="#B6F72B" fill-opacity="0.4"/>
<path d="M465.3 757.321H458.3V750.321H457.2V757.321H450.2V758.321H457.2V765.321H458.3V758.321H465.3V757.321Z" fill="#B6F72B" fill-opacity="0.4"/>
<path d="M415.3 7.32065L408.3 7.32065V0.320648L407.2 0.320648V7.32065L400.2 7.32065V8.32065H407.2V15.3206L408.3 15.3206V8.32065H415.3V7.32065Z" fill="#B6F72B" fill-opacity="0.4"/>
<path d="M415.3 57.3206H408.3V50.3206H407.2V57.3206H400.2V58.3206H407.2V65.3206H408.3V58.3206H415.3V57.3206Z" fill="#B6F72B" fill-opacity="0.4"/>
<path d="M415.3 107.321H408.3V100.321H407.2V107.321H400.2V108.321H407.2V115.321H408.3V108.321H415.3V107.321Z" fill="#B6F72B" fill-opacity="0.4"/>
<path d="M415.3 157.321H408.3V150.321H407.2V157.321H400.2V158.321H407.2V165.321H408.3V158.321H415.3V157.321Z" fill="#B6F72B" fill-opacity="0.4"/>
<path d="M415.3 207.321H408.3V200.321H407.2V207.321H400.2V208.321H407.2V215.321H408.3V208.321H415.3V207.321Z" fill="#B6F72B" fill-opacity="0.4"/>
<path d="M415.3 257.321H408.3V250.321H407.2V257.321H400.2V258.321H407.2V265.321H408.3V258.321H415.3V257.321Z" fill="#B6F72B" fill-opacity="0.4"/>
<path d="M415.3 307.321H408.3V300.321H407.2V307.321H400.2V308.321H407.2V315.321H408.3V308.321H415.3V307.321Z" fill="#B6F72B" fill-opacity="0.4"/>
<path d="M415.3 357.321H408.3V350.321H407.2V357.321H400.2V358.321H407.2V365.321H408.3V358.321H415.3V357.321Z" fill="#B6F72B" fill-opacity="0.4"/>
<path d="M415.3 407.321H408.3V400.321H407.2V407.321H400.2V408.321H407.2V415.321H408.3V408.321H415.3V407.321Z" fill="#B6F72B" fill-opacity="0.4"/>
<path d="M415.3 457.321H408.3V450.321H407.2V457.321H400.2V458.321H407.2V465.321H408.3V458.321H415.3V457.321Z" fill="#B6F72B" fill-opacity="0.4"/>
<path d="M415.3 507.321H408.3V500.321H407.2V507.321H400.2V508.321H407.2V515.321H408.3V508.321H415.3V507.321Z" fill="#B6F72B" fill-opacity="0.4"/>
<path d="M415.3 557.321H408.3V550.321H407.2V557.321H400.2V558.321H407.2V565.321H408.3V558.321H415.3V557.321Z" fill="#B6F72B" fill-opacity="0.4"/>
<path d="M415.3 607.321H408.3V600.321H407.2V607.321H400.2V608.321H407.2V615.321H408.3V608.321H415.3V607.321Z" fill="#B6F72B" fill-opacity="0.4"/>
<path d="M415.3 657.321H408.3V650.321H407.2V657.321H400.2V658.321H407.2V665.321H408.3V658.321H415.3V657.321Z" fill="#B6F72B" fill-opacity="0.4"/>
<path d="M415.3 707.321H408.3V700.321H407.2V707.321H400.2V708.321H407.2V715.321H408.3V708.321H415.3V707.321Z" fill="#B6F72B" fill-opacity="0.4"/>
<path d="M415.3 757.321H408.3V750.321H407.2V757.321H400.2V758.321H407.2V765.321H408.3V758.321H415.3V757.321Z" fill="#B6F72B" fill-opacity="0.4"/>
<path d="M365.3 7.32065L358.3 7.32065V0.320648L357.2 0.320648V7.32065L350.2 7.32065V8.32065H357.2V15.3206L358.3 15.3206V8.32065H365.3V7.32065Z" fill="#B6F72B" fill-opacity="0.4"/>
<path d="M365.3 57.3206H358.3V50.3206H357.2V57.3206H350.2V58.3206H357.2V65.3206H358.3V58.3206H365.3V57.3206Z" fill="#B6F72B" fill-opacity="0.4"/>
<path d="M365.3 107.321H358.3V100.321H357.2V107.321H350.2V108.321H357.2V115.321H358.3V108.321H365.3V107.321Z" fill="#B6F72B" fill-opacity="0.4"/>
<path d="M365.3 157.321H358.3V150.321H357.2V157.321H350.2V158.321H357.2V165.321H358.3V158.321H365.3V157.321Z" fill="#B6F72B" fill-opacity="0.4"/>
<path d="M365.3 207.321H358.3V200.321H357.2V207.321H350.2V208.321H357.2V215.321H358.3V208.321H365.3V207.321Z" fill="#B6F72B" fill-opacity="0.4"/>
<path d="M365.3 257.321H358.3V250.321H357.2V257.321H350.2V258.321H357.2V265.321H358.3V258.321H365.3V257.321Z" fill="#B6F72B" fill-opacity="0.4"/>
<path d="M365.3 307.321H358.3V300.321H357.2V307.321H350.2V308.321H357.2V315.321H358.3V308.321H365.3V307.321Z" fill="#B6F72B" fill-opacity="0.4"/>
<path d="M365.3 357.321H358.3V350.321H357.2V357.321H350.2V358.321H357.2V365.321H358.3V358.321H365.3V357.321Z" fill="#B6F72B" fill-opacity="0.4"/>
<path d="M365.3 407.321H358.3V400.321H357.2V407.321H350.2V408.321H357.2V415.321H358.3V408.321H365.3V407.321Z" fill="#B6F72B" fill-opacity="0.4"/>
<path d="M365.3 457.321H358.3V450.321H357.2V457.321H350.2V458.321H357.2V465.321H358.3V458.321H365.3V457.321Z" fill="#B6F72B" fill-opacity="0.4"/>
<path d="M365.3 507.321H358.3V500.321H357.2V507.321H350.2V508.321H357.2V515.321H358.3V508.321H365.3V507.321Z" fill="#B6F72B" fill-opacity="0.4"/>
<path d="M365.3 557.321H358.3V550.321H357.2V557.321H350.2V558.321H357.2V565.321H358.3V558.321H365.3V557.321Z" fill="#B6F72B" fill-opacity="0.4"/>
<path d="M365.3 607.321H358.3V600.321H357.2V607.321H350.2V608.321H357.2V615.321H358.3V608.321H365.3V607.321Z" fill="#B6F72B" fill-opacity="0.4"/>
<path d="M365.3 657.321H358.3V650.321H357.2V657.321H350.2V658.321H357.2V665.321H358.3V658.321H365.3V657.321Z" fill="#B6F72B" fill-opacity="0.4"/>
<path d="M365.3 707.321H358.3V700.321H357.2V707.321H350.2V708.321H357.2V715.321H358.3V708.321H365.3V707.321Z" fill="#B6F72B" fill-opacity="0.4"/>
<path d="M365.3 757.321H358.3V750.321H357.2V757.321H350.2V758.321H357.2V765.321H358.3V758.321H365.3V757.321Z" fill="#B6F72B" fill-opacity="0.4"/>
<path d="M315.3 7.32065L308.3 7.32065V0.320648L307.2 0.320648V7.32065L300.2 7.32065V8.32065H307.2V15.3206L308.3 15.3206V8.32065H315.3V7.32065Z" fill="#B6F72B" fill-opacity="0.4"/>
<path d="M315.3 57.3206H308.3V50.3206H307.2V57.3206H300.2V58.3206H307.2V65.3206H308.3V58.3206H315.3V57.3206Z" fill="#B6F72B" fill-opacity="0.4"/>
<path d="M315.3 107.321H308.3V100.321H307.2V107.321H300.2V108.321H307.2V115.321H308.3V108.321H315.3V107.321Z" fill="#B6F72B" fill-opacity="0.4"/>
<path d="M315.3 157.321H308.3V150.321H307.2V157.321H300.2V158.321H307.2V165.321H308.3V158.321H315.3V157.321Z" fill="#B6F72B" fill-opacity="0.4"/>
<path d="M315.3 207.321H308.3V200.321H307.2V207.321H300.2V208.321H307.2V215.321H308.3V208.321H315.3V207.321Z" fill="#B6F72B" fill-opacity="0.4"/>
<path d="M315.3 257.321H308.3V250.321H307.2V257.321H300.2V258.321H307.2V265.321H308.3V258.321H315.3V257.321Z" fill="#B6F72B" fill-opacity="0.4"/>
<path d="M315.3 307.321H308.3V300.321H307.2V307.321H300.2V308.321H307.2V315.321H308.3V308.321H315.3V307.321Z" fill="#B6F72B" fill-opacity="0.4"/>
<path d="M315.3 357.321H308.3V350.321H307.2V357.321H300.2V358.321H307.2V365.321H308.3V358.321H315.3V357.321Z" fill="#B6F72B" fill-opacity="0.4"/>
<path d="M315.3 407.321H308.3V400.321H307.2V407.321H300.2V408.321H307.2V415.321H308.3V408.321H315.3V407.321Z" fill="#B6F72B" fill-opacity="0.4"/>
<path d="M315.3 457.321H308.3V450.321H307.2V457.321H300.2V458.321H307.2V465.321H308.3V458.321H315.3V457.321Z" fill="#B6F72B" fill-opacity="0.4"/>
<path d="M315.3 507.321H308.3V500.321H307.2V507.321H300.2V508.321H307.2V515.321H308.3V508.321H315.3V507.321Z" fill="#B6F72B" fill-opacity="0.4"/>
<path d="M315.3 557.321H308.3V550.321H307.2V557.321H300.2V558.321H307.2V565.321H308.3V558.321H315.3V557.321Z" fill="#B6F72B" fill-opacity="0.4"/>
<path d="M315.3 607.321H308.3V600.321H307.2V607.321H300.2V608.321H307.2V615.321H308.3V608.321H315.3V607.321Z" fill="#B6F72B" fill-opacity="0.4"/>
<path d="M315.3 657.321H308.3V650.321H307.2V657.321H300.2V658.321H307.2V665.321H308.3V658.321H315.3V657.321Z" fill="#B6F72B" fill-opacity="0.4"/>
<path d="M315.3 707.321H308.3V700.321H307.2V707.321H300.2V708.321H307.2V715.321H308.3V708.321H315.3V707.321Z" fill="#B6F72B" fill-opacity="0.4"/>
<path d="M315.3 757.321H308.3V750.321H307.2V757.321H300.2V758.321H307.2V765.321H308.3V758.321H315.3V757.321Z" fill="#B6F72B" fill-opacity="0.4"/>
<path d="M265.3 7.32065L258.3 7.32065V0.320648L257.2 0.320648V7.32065L250.2 7.32065V8.32065H257.2V15.3206L258.3 15.3206V8.32065H265.3V7.32065Z" fill="#B6F72B" fill-opacity="0.4"/>
<path d="M265.3 57.3206H258.3V50.3206H257.2V57.3206H250.2V58.3206H257.2V65.3206H258.3V58.3206H265.3V57.3206Z" fill="#B6F72B" fill-opacity="0.4"/>
<path d="M265.3 107.321H258.3V100.321H257.2V107.321H250.2V108.321H257.2V115.321H258.3V108.321H265.3V107.321Z" fill="#B6F72B" fill-opacity="0.4"/>
<path d="M265.3 157.321H258.3V150.321H257.2V157.321H250.2V158.321H257.2V165.321H258.3V158.321H265.3V157.321Z" fill="#B6F72B" fill-opacity="0.4"/>
<path d="M265.3 207.321H258.3V200.321H257.2V207.321H250.2V208.321H257.2V215.321H258.3V208.321H265.3V207.321Z" fill="#B6F72B" fill-opacity="0.4"/>
<path d="M265.3 257.321H258.3V250.321H257.2V257.321H250.2V258.321H257.2V265.321H258.3V258.321H265.3V257.321Z" fill="#B6F72B" fill-opacity="0.4"/>
<path d="M265.3 307.321H258.3V300.321H257.2V307.321H250.2V308.321H257.2V315.321H258.3V308.321H265.3V307.321Z" fill="#B6F72B" fill-opacity="0.4"/>
<path d="M265.3 357.321H258.3V350.321H257.2V357.321H250.2V358.321H257.2V365.321H258.3V358.321H265.3V357.321Z" fill="#B6F72B" fill-opacity="0.4"/>
<path d="M265.3 407.321H258.3V400.321H257.2V407.321H250.2V408.321H257.2V415.321H258.3V408.321H265.3V407.321Z" fill="#B6F72B" fill-opacity="0.4"/>
<path d="M265.3 457.321H258.3V450.321H257.2V457.321H250.2V458.321H257.2V465.321H258.3V458.321H265.3V457.321Z" fill="#B6F72B" fill-opacity="0.4"/>
<path d="M265.3 507.321H258.3V500.321H257.2V507.321H250.2V508.321H257.2V515.321H258.3V508.321H265.3V507.321Z" fill="#B6F72B" fill-opacity="0.4"/>
<path d="M265.3 557.321H258.3V550.321H257.2V557.321H250.2V558.321H257.2V565.321H258.3V558.321H265.3V557.321Z" fill="#B6F72B" fill-opacity="0.4"/>
<path d="M265.3 607.321H258.3V600.321H257.2V607.321H250.2V608.321H257.2V615.321H258.3V608.321H265.3V607.321Z" fill="#B6F72B" fill-opacity="0.4"/>
<path d="M265.3 657.321H258.3V650.321H257.2V657.321H250.2V658.321H257.2V665.321H258.3V658.321H265.3V657.321Z" fill="#B6F72B" fill-opacity="0.4"/>
<path d="M265.3 707.321H258.3V700.321H257.2V707.321H250.2V708.321H257.2V715.321H258.3V708.321H265.3V707.321Z" fill="#B6F72B" fill-opacity="0.4"/>
<path d="M265.3 757.321H258.3V750.321H257.2V757.321H250.2V758.321H257.2V765.321H258.3V758.321H265.3V757.321Z" fill="#B6F72B" fill-opacity="0.4"/>
<path d="M215.3 7.32065L208.3 7.32065V0.320648L207.2 0.320648V7.32065L200.2 7.32065V8.32065H207.2V15.3206L208.3 15.3206V8.32065H215.3V7.32065Z" fill="#B6F72B" fill-opacity="0.4"/>
<path d="M215.3 57.3206H208.3V50.3206H207.2V57.3206H200.2V58.3206H207.2V65.3206H208.3V58.3206H215.3V57.3206Z" fill="#B6F72B" fill-opacity="0.4"/>
<path d="M215.3 107.321H208.3V100.321H207.2V107.321H200.2V108.321H207.2V115.321H208.3V108.321H215.3V107.321Z" fill="#B6F72B" fill-opacity="0.4"/>
<path d="M215.3 157.321H208.3V150.321H207.2V157.321H200.2V158.321H207.2V165.321H208.3V158.321H215.3V157.321Z" fill="#B6F72B" fill-opacity="0.4"/>
<path d="M215.3 207.321H208.3V200.321H207.2V207.321H200.2V208.321H207.2V215.321H208.3V208.321H215.3V207.321Z" fill="#B6F72B" fill-opacity="0.4"/>
<path d="M215.3 257.321H208.3V250.321H207.2V257.321H200.2V258.321H207.2V265.321H208.3V258.321H215.3V257.321Z" fill="#B6F72B" fill-opacity="0.4"/>
<path d="M215.3 307.321H208.3V300.321H207.2V307.321H200.2V308.321H207.2V315.321H208.3V308.321H215.3V307.321Z" fill="#B6F72B" fill-opacity="0.4"/>
<path d="M215.3 357.321H208.3V350.321H207.2V357.321H200.2V358.321H207.2V365.321H208.3V358.321H215.3V357.321Z" fill="#B6F72B" fill-opacity="0.4"/>
<path d="M215.3 407.321H208.3V400.321H207.2V407.321H200.2V408.321H207.2V415.321H208.3V408.321H215.3V407.321Z" fill="#B6F72B" fill-opacity="0.4"/>
<path d="M215.3 457.321H208.3V450.321H207.2V457.321H200.2V458.321H207.2V465.321H208.3V458.321H215.3V457.321Z" fill="#B6F72B" fill-opacity="0.4"/>
<path d="M215.3 507.321H208.3V500.321H207.2V507.321H200.2V508.321H207.2V515.321H208.3V508.321H215.3V507.321Z" fill="#B6F72B" fill-opacity="0.4"/>
<path d="M215.3 557.321H208.3V550.321H207.2V557.321H200.2V558.321H207.2V565.321H208.3V558.321H215.3V557.321Z" fill="#B6F72B" fill-opacity="0.4"/>
<path d="M215.3 607.321H208.3V600.321H207.2V607.321H200.2V608.321H207.2V615.321H208.3V608.321H215.3V607.321Z" fill="#B6F72B" fill-opacity="0.4"/>
<path d="M215.3 657.321H208.3V650.321H207.2V657.321H200.2V658.321H207.2V665.321H208.3V658.321H215.3V657.321Z" fill="#B6F72B" fill-opacity="0.4"/>
<path d="M215.3 707.321H208.3V700.321H207.2V707.321H200.2V708.321H207.2V715.321H208.3V708.321H215.3V707.321Z" fill="#B6F72B" fill-opacity="0.4"/>
<path d="M215.3 757.321H208.3V750.321H207.2V757.321H200.2V758.321H207.2V765.321H208.3V758.321H215.3V757.321Z" fill="#B6F72B" fill-opacity="0.4"/>
<path d="M165.3 7.32065L158.3 7.32065V0.320648L157.2 0.320648V7.32065L150.2 7.32065V8.32065H157.2V15.3206L158.3 15.3206V8.32065H165.3V7.32065Z" fill="#B6F72B" fill-opacity="0.4"/>
<path d="M165.3 57.3206H158.3V50.3206H157.2V57.3206H150.2V58.3206H157.2V65.3206H158.3V58.3206H165.3V57.3206Z" fill="#B6F72B" fill-opacity="0.4"/>
<path d="M165.3 107.321H158.3V100.321H157.2V107.321H150.2V108.321H157.2V115.321H158.3V108.321H165.3V107.321Z" fill="#B6F72B" fill-opacity="0.4"/>
<path d="M165.3 157.321H158.3V150.321H157.2V157.321H150.2V158.321H157.2V165.321H158.3V158.321H165.3V157.321Z" fill="#B6F72B" fill-opacity="0.4"/>
<path d="M165.3 207.321H158.3V200.321H157.2V207.321H150.2V208.321H157.2V215.321H158.3V208.321H165.3V207.321Z" fill="#B6F72B" fill-opacity="0.4"/>
<path d="M165.3 257.321H158.3V250.321H157.2V257.321H150.2V258.321H157.2V265.321H158.3V258.321H165.3V257.321Z" fill="#B6F72B" fill-opacity="0.4"/>
<path d="M165.3 307.321H158.3V300.321H157.2V307.321H150.2V308.321H157.2V315.321H158.3V308.321H165.3V307.321Z" fill="#B6F72B" fill-opacity="0.4"/>
<path d="M165.3 357.321H158.3V350.321H157.2V357.321H150.2V358.321H157.2V365.321H158.3V358.321H165.3V357.321Z" fill="#B6F72B" fill-opacity="0.4"/>
<path d="M165.3 407.321H158.3V400.321H157.2V407.321H150.2V408.321H157.2V415.321H158.3V408.321H165.3V407.321Z" fill="#B6F72B" fill-opacity="0.4"/>
<path d="M165.3 457.321H158.3V450.321H157.2V457.321H150.2V458.321H157.2V465.321H158.3V458.321H165.3V457.321Z" fill="#B6F72B" fill-opacity="0.4"/>
<path d="M165.3 507.321H158.3V500.321H157.2V507.321H150.2V508.321H157.2V515.321H158.3V508.321H165.3V507.321Z" fill="#B6F72B" fill-opacity="0.4"/>
<path d="M165.3 557.321H158.3V550.321H157.2V557.321H150.2V558.321H157.2V565.321H158.3V558.321H165.3V557.321Z" fill="#B6F72B" fill-opacity="0.4"/>
<path d="M165.3 607.321H158.3V600.321H157.2V607.321H150.2V608.321H157.2V615.321H158.3V608.321H165.3V607.321Z" fill="#B6F72B" fill-opacity="0.4"/>
<path d="M165.3 657.321H158.3V650.321H157.2V657.321H150.2V658.321H157.2V665.321H158.3V658.321H165.3V657.321Z" fill="#B6F72B" fill-opacity="0.4"/>
<path d="M165.3 707.321H158.3V700.321H157.2V707.321H150.2V708.321H157.2V715.321H158.3V708.321H165.3V707.321Z" fill="#B6F72B" fill-opacity="0.4"/>
<path d="M165.3 757.321H158.3V750.321H157.2V757.321H150.2V758.321H157.2V765.321H158.3V758.321H165.3V757.321Z" fill="#B6F72B" fill-opacity="0.4"/>
<path d="M115.3 7.32065L108.3 7.32065V0.320648L107.2 0.320648V7.32065L100.2 7.32065V8.32065H107.2V15.3206L108.3 15.3206V8.32065H115.3V7.32065Z" fill="#B6F72B" fill-opacity="0.4"/>
<path d="M115.3 57.3206H108.3V50.3206H107.2V57.3206H100.2V58.3206H107.2V65.3206H108.3V58.3206H115.3V57.3206Z" fill="#B6F72B" fill-opacity="0.4"/>
<path d="M115.3 107.321H108.3V100.321H107.2V107.321H100.2V108.321H107.2V115.321H108.3V108.321H115.3V107.321Z" fill="#B6F72B" fill-opacity="0.4"/>
<path d="M115.3 157.321H108.3V150.321H107.2V157.321H100.2V158.321H107.2V165.321H108.3V158.321H115.3V157.321Z" fill="#B6F72B" fill-opacity="0.4"/>
<path d="M115.3 207.321H108.3V200.321H107.2V207.321H100.2V208.321H107.2V215.321H108.3V208.321H115.3V207.321Z" fill="#B6F72B" fill-opacity="0.4"/>
<path d="M115.3 257.321H108.3V250.321H107.2V257.321H100.2V258.321H107.2V265.321H108.3V258.321H115.3V257.321Z" fill="#B6F72B" fill-opacity="0.4"/>
<path d="M115.3 307.321H108.3V300.321H107.2V307.321H100.2V308.321H107.2V315.321H108.3V308.321H115.3V307.321Z" fill="#B6F72B" fill-opacity="0.4"/>
<path d="M115.3 357.321H108.3V350.321H107.2V357.321H100.2V358.321H107.2V365.321H108.3V358.321H115.3V357.321Z" fill="#B6F72B" fill-opacity="0.4"/>
<path d="M115.3 407.321H108.3V400.321H107.2V407.321H100.2V408.321H107.2V415.321H108.3V408.321H115.3V407.321Z" fill="#B6F72B" fill-opacity="0.4"/>
<path d="M115.3 457.321H108.3V450.321H107.2V457.321H100.2V458.321H107.2V465.321H108.3V458.321H115.3V457.321Z" fill="#B6F72B" fill-opacity="0.4"/>
<path d="M115.3 507.321H108.3V500.321H107.2V507.321H100.2V508.321H107.2V515.321H108.3V508.321H115.3V507.321Z" fill="#B6F72B" fill-opacity="0.4"/>
<path d="M115.3 557.321H108.3V550.321H107.2V557.321H100.2V558.321H107.2V565.321H108.3V558.321H115.3V557.321Z" fill="#B6F72B" fill-opacity="0.4"/>
<path d="M115.3 607.321H108.3V600.321H107.2V607.321H100.2V608.321H107.2V615.321H108.3V608.321H115.3V607.321Z" fill="#B6F72B" fill-opacity="0.4"/>
<path d="M115.3 657.321H108.3V650.321H107.2V657.321H100.2V658.321H107.2V665.321H108.3V658.321H115.3V657.321Z" fill="#B6F72B" fill-opacity="0.4"/>
<path d="M115.3 707.321H108.3V700.321H107.2V707.321H100.2V708.321H107.2V715.321H108.3V708.321H115.3V707.321Z" fill="#B6F72B" fill-opacity="0.4"/>
<path d="M115.3 757.321H108.3V750.321H107.2V757.321H100.2V758.321H107.2V765.321H108.3V758.321H115.3V757.321Z" fill="#B6F72B" fill-opacity="0.4"/>
<path d="M65.2999 7.32065L58.2999 7.32065V0.320648L57.1998 0.320648V7.32065L50.1998 7.32065V8.32065H57.1998V15.3206L58.2999 15.3206V8.32065H65.2999V7.32065Z" fill="#B6F72B" fill-opacity="0.4"/>
<path d="M65.2999 57.3206H58.2999V50.3206H57.1998V57.3206H50.1998V58.3206H57.1998V65.3206H58.2999V58.3206H65.2999V57.3206Z" fill="#B6F72B" fill-opacity="0.4"/>
<path d="M65.2999 107.321H58.2999V100.321H57.1998V107.321H50.1998V108.321H57.1998V115.321H58.2999V108.321H65.2999V107.321Z" fill="#B6F72B" fill-opacity="0.4"/>
<path d="M65.2999 157.321H58.2999V150.321H57.1998V157.321H50.1998V158.321H57.1998V165.321H58.2999V158.321H65.2999V157.321Z" fill="#B6F72B" fill-opacity="0.4"/>
<path d="M65.2999 207.321H58.2999V200.321H57.1998V207.321H50.1998V208.321H57.1998V215.321H58.2999V208.321H65.2999V207.321Z" fill="#B6F72B" fill-opacity="0.4"/>
<path d="M65.2999 257.321H58.2999V250.321H57.1998V257.321H50.1998V258.321H57.1998V265.321H58.2999V258.321H65.2999V257.321Z" fill="#B6F72B" fill-opacity="0.4"/>
<path d="M65.2999 307.321H58.2999V300.321H57.1998V307.321H50.1998V308.321H57.1998V315.321H58.2999V308.321H65.2999V307.321Z" fill="#B6F72B" fill-opacity="0.4"/>
<path d="M65.2999 357.321H58.2999V350.321H57.1998V357.321H50.1998V358.321H57.1998V365.321H58.2999V358.321H65.2999V357.321Z" fill="#B6F72B" fill-opacity="0.4"/>
<path d="M65.2999 407.321H58.2999V400.321H57.1998V407.321H50.1998V408.321H57.1998V415.321H58.2999V408.321H65.2999V407.321Z" fill="#B6F72B" fill-opacity="0.4"/>
<path d="M65.2999 457.321H58.2999V450.321H57.1998V457.321H50.1998V458.321H57.1998V465.321H58.2999V458.321H65.2999V457.321Z" fill="#B6F72B" fill-opacity="0.4"/>
<path d="M65.2999 507.321H58.2999V500.321H57.1998V507.321H50.1998V508.321H57.1998V515.321H58.2999V508.321H65.2999V507.321Z" fill="#B6F72B" fill-opacity="0.4"/>
<path d="M65.2999 557.321H58.2999V550.321H57.1998V557.321H50.1998V558.321H57.1998V565.321H58.2999V558.321H65.2999V557.321Z" fill="#B6F72B" fill-opacity="0.4"/>
<path d="M65.2999 607.321H58.2999V600.321H57.1998V607.321H50.1998V608.321H57.1998V615.321H58.2999V608.321H65.2999V607.321Z" fill="#B6F72B" fill-opacity="0.4"/>
<path d="M65.2999 657.321H58.2999V650.321H57.1998V657.321H50.1998V658.321H57.1998V665.321H58.2999V658.321H65.2999V657.321Z" fill="#B6F72B" fill-opacity="0.4"/>
<path d="M65.2999 707.321H58.2999V700.321H57.1998V707.321H50.1998V708.321H57.1998V715.321H58.2999V708.321H65.2999V707.321Z" fill="#B6F72B" fill-opacity="0.4"/>
<path d="M65.2999 757.321H58.2999V750.321H57.1998V757.321H50.1998V758.321H57.1998V765.321H58.2999V758.321H65.2999V757.321Z" fill="#B6F72B" fill-opacity="0.4"/>
<path d="M15.2999 7.32065L8.29993 7.32065V0.320648L7.19983 0.320648L7.19983 7.32065L0.199829 7.32065L0.199829 8.32065H7.19983L7.19983 15.3206L8.29993 15.3206L8.29993 8.32065H15.2999V7.32065Z" fill="#B6F72B" fill-opacity="0.4"/>
<path d="M15.2999 57.3206H8.29993V50.3206H7.19983L7.19983 57.3206H0.199829L0.199829 58.3206H7.19983L7.19983 65.3206H8.29993L8.29993 58.3206H15.2999V57.3206Z" fill="#B6F72B" fill-opacity="0.4"/>
<path d="M15.2999 107.321H8.29993V100.321H7.19983L7.19983 107.321H0.199829L0.199829 108.321H7.19983L7.19983 115.321H8.29993L8.29993 108.321H15.2999V107.321Z" fill="#B6F72B" fill-opacity="0.4"/>
<path d="M15.2999 157.321H8.29993V150.321H7.19983L7.19983 157.321H0.199829L0.199829 158.321H7.19983L7.19983 165.321H8.29993L8.29993 158.321H15.2999V157.321Z" fill="#B6F72B" fill-opacity="0.4"/>
<path d="M15.2999 207.321H8.29993V200.321H7.19983L7.19983 207.321H0.199829L0.199829 208.321H7.19983L7.19983 215.321H8.29993L8.29993 208.321H15.2999V207.321Z" fill="#B6F72B" fill-opacity="0.4"/>
<path d="M15.2999 257.321H8.29993V250.321H7.19983L7.19983 257.321H0.199829L0.199829 258.321H7.19983L7.19983 265.321H8.29993L8.29993 258.321H15.2999V257.321Z" fill="#B6F72B" fill-opacity="0.4"/>
<path d="M15.2999 307.321H8.29993V300.321H7.19983L7.19983 307.321H0.199829L0.199829 308.321H7.19983L7.19983 315.321H8.29993L8.29993 308.321H15.2999V307.321Z" fill="#B6F72B" fill-opacity="0.4"/>
<path d="M15.2999 357.321H8.29993V350.321H7.19983L7.19983 357.321H0.199829L0.199829 358.321H7.19983L7.19983 365.321H8.29993L8.29993 358.321H15.2999V357.321Z" fill="#B6F72B" fill-opacity="0.4"/>
<path d="M15.2999 407.321H8.29993V400.321H7.19983L7.19983 407.321H0.199829L0.199829 408.321H7.19983L7.19983 415.321H8.29993L8.29993 408.321H15.2999V407.321Z" fill="#B6F72B" fill-opacity="0.4"/>
<path d="M15.2999 457.321H8.29993V450.321H7.19983L7.19983 457.321H0.199829L0.199829 458.321H7.19983L7.19983 465.321H8.29993L8.29993 458.321H15.2999V457.321Z" fill="#B6F72B" fill-opacity="0.4"/>
<path d="M15.2999 507.321H8.29993V500.321H7.19983L7.19983 507.321H0.199829L0.199829 508.321H7.19983L7.19983 515.321H8.29993L8.29993 508.321H15.2999V507.321Z" fill="#B6F72B" fill-opacity="0.4"/>
<path d="M15.2999 557.321H8.29993V550.321H7.19983L7.19983 557.321H0.199829L0.199829 558.321H7.19983L7.19983 565.321H8.29993L8.29993 558.321H15.2999V557.321Z" fill="#B6F72B" fill-opacity="0.4"/>
<path d="M15.2999 607.321H8.29993V600.321H7.19983L7.19983 607.321H0.199829L0.199829 608.321H7.19983L7.19983 615.321H8.29993L8.29993 608.321H15.2999V607.321Z" fill="#B6F72B" fill-opacity="0.4"/>
<path d="M15.2999 657.321H8.29993V650.321H7.19983L7.19983 657.321H0.199829L0.199829 658.321H7.19983L7.19983 665.321H8.29993L8.29993 658.321H15.2999V657.321Z" fill="#B6F72B" fill-opacity="0.4"/>
<path d="M15.2999 707.321H8.29993V700.321H7.19983L7.19983 707.321H0.199829L0.199829 708.321H7.19983L7.19983 715.321H8.29993L8.29993 708.321H15.2999V707.321Z" fill="#B6F72B" fill-opacity="0.4"/>
<path d="M15.2999 757.321H8.29993V750.321H7.19983L7.19983 757.321H0.199829L0.199829 758.321H7.19983L7.19983 765.321H8.29993L8.29993 758.321H15.2999V757.321Z" fill="#B6F72B" fill-opacity="0.4"/>
</svg>
