<svg width="48" height="48" viewBox="0 0 48 48" fill="none" xmlns="http://www.w3.org/2000/svg">
<rect width="48" height="48" rx="2" fill="#E3F6C1"/>
<path d="M13.3766 21.5527H16.6493V34.6436H13.3766C13.0872 34.6436 12.8097 34.5286 12.6052 34.3241C12.4006 34.1195 12.2856 33.842 12.2856 33.5527V22.6436C12.2856 22.3543 12.4006 22.0768 12.6052 21.8722C12.8097 21.6676 13.0872 21.5527 13.3766 21.5527ZM19.1507 20.1421L26.1326 13.1603C26.2253 13.0673 26.3486 13.0108 26.4797 13.0014C26.6108 12.992 26.7409 13.0302 26.846 13.109L27.7766 13.8072C28.035 14.0012 28.2302 14.2674 28.3376 14.5722C28.4449 14.877 28.4596 15.2068 28.3798 15.52L27.122 20.4618H34.1038C34.6825 20.4618 35.2374 20.6916 35.6466 21.1008C36.0558 21.51 36.2856 22.0649 36.2856 22.6436V24.9389C36.2859 25.224 36.2303 25.5064 36.122 25.7701L32.7456 33.9683C32.6633 34.1682 32.5234 34.3391 32.3437 34.4593C32.1641 34.5795 31.9527 34.6437 31.7366 34.6436H19.922C19.6327 34.6436 19.3552 34.5286 19.1506 34.3241C18.946 34.1195 18.8311 33.842 18.8311 33.5527V20.9134C18.8312 20.6241 18.9461 20.3467 19.1507 20.1421Z" fill="#0DC98B"/>
</svg>
