<svg width="12" height="13" viewBox="0 0 12 13" fill="none" xmlns="http://www.w3.org/2000/svg">
<rect x="0.5" y="0.5" width="8.6" height="9.8" rx="1.5" stroke="#CBB5F5"/>
<mask id="path-2-outside-1_5478_11155" maskUnits="userSpaceOnUse" x="2.59985" y="2.6004" width="10" height="11" fill="black">
<rect fill="white" x="2.59985" y="2.6004" width="10" height="11"/>
<path fill-rule="evenodd" clip-rule="evenodd" d="M3.59985 10.8004V11.0004C3.59985 11.5527 4.04757 12.0004 4.59985 12.0004H9.79985C10.3521 12.0004 10.7999 11.5527 10.7999 11.0004V4.6004C10.7999 4.04812 10.3521 3.6004 9.79985 3.6004H9.59985V8.8004C9.59985 9.90497 8.70442 10.8004 7.59985 10.8004H3.59985Z"/>
</mask>
<path d="M3.59985 10.8004V9.8004H2.59985V10.8004H3.59985ZM9.59985 3.6004V2.6004H8.59985V3.6004H9.59985ZM4.59985 11.0004V10.8004H2.59985V11.0004H4.59985ZM4.59985 11.0004H4.59985H2.59985C2.59985 12.105 3.49529 13.0004 4.59985 13.0004V11.0004ZM9.79985 11.0004H4.59985V13.0004H9.79985V11.0004ZM9.79985 11.0004V13.0004C10.9044 13.0004 11.7999 12.105 11.7999 11.0004H9.79985ZM9.79985 4.6004V11.0004H11.7999V4.6004H9.79985ZM9.79985 4.6004H9.79985H11.7999C11.7999 3.49583 10.9044 2.6004 9.79985 2.6004V4.6004ZM9.59985 4.6004H9.79985V2.6004H9.59985V4.6004ZM8.59985 3.6004V8.8004H10.5999V3.6004H8.59985ZM8.59985 8.8004C8.59985 9.35269 8.15214 9.8004 7.59985 9.8004V11.8004C9.25671 11.8004 10.5999 10.4573 10.5999 8.8004H8.59985ZM7.59985 9.8004H3.59985V11.8004H7.59985V9.8004Z" fill="#CBB5F5" mask="url(#path-2-outside-1_5478_11155)"/>
</svg>
