<svg width="24" height="25" viewBox="0 0 24 25" fill="none" xmlns="http://www.w3.org/2000/svg">
<g clip-path="url(#clip0_1529_82)">
<path d="M5.688 9.97172C4.632 10.8597 3.648 11.8197 2.688 12.7557V9.44372C4.776 7.06772 8.64 3.80372 13.344 3.80372C17.208 3.80372 21.072 6.05972 24 9.44372V12.7557C22.224 10.9317 20.04 8.98772 17.784 7.73972C19.056 10.5717 18.024 13.0197 16.92 14.3877L17.304 14.8677C18.744 13.7637 20.112 12.4677 21.288 11.2197V14.6037C18.384 17.9877 14.568 20.1957 10.704 20.1957C6.816 20.1957 2.952 17.9877 0 14.6037V11.2197C2.952 14.2677 6.816 17.5077 10.704 17.5077C11.52 17.5077 12.36 17.3637 13.128 17.0997L12.984 16.6677C8.424 17.1717 5.4 13.5717 5.688 9.97172ZM0 24.0117H24V15.1797C24 15.1797 22.896 16.4037 21.288 17.5077V21.3237H2.688V19.7397C1.128 18.7317 0 17.5077 0 17.5077V24.0117ZM0 8.81972C0 8.81972 1.128 7.61972 2.688 6.53972V2.69972H21.288V4.25972C22.92 5.29172 24 6.53972 24 6.53972V2.69972H21.288V0.0117188H0V8.81972ZM11.472 8.84372C12.48 8.84372 13.32 9.73172 13.32 10.7157H13.824C13.824 9.73172 14.664 8.84372 15.696 8.84372V8.31572C14.664 8.31572 13.824 7.47572 13.824 6.49172H13.32C13.32 7.47572 12.48 8.31572 11.472 8.31572V8.84372Z" fill="#1F1F33"/>
</g>
<defs>
<clipPath id="clip0_1529_82">
<rect width="24" height="24" fill="white" transform="translate(0 0.0117188)"/>
</clipPath>
</defs>
</svg>
