<svg width="54" height="54" viewBox="0 0 54 54" fill="none" xmlns="http://www.w3.org/2000/svg">
<rect width="54" height="54" rx="8" fill="#8347E5"/>
<g clip-path="url(#clip0_6455_11575)">
<path d="M23.6316 39.6316C28.7482 39.6316 32.8947 35.485 32.8947 30.3684C32.8947 25.2518 28.7482 21.1052 23.6316 21.1052C18.5149 21.1052 14.3684 25.2518 14.3684 30.3684C14.3684 35.485 18.5149 39.6316 23.6316 39.6316ZM23.6316 43C16.6556 43 11 37.3444 11 30.3684C11 23.3924 16.6556 17.7368 23.6316 17.7368C30.6076 17.7368 36.2632 23.3924 36.2632 30.3684C36.2632 37.3444 30.6076 43 23.6316 43Z" fill="white"/>
<path d="M30.3684 32.8947C35.485 32.8947 39.6316 28.7482 39.6316 23.6316C39.6316 18.5149 35.485 14.3684 30.3684 14.3684C25.2518 14.3684 21.1052 18.5149 21.1052 23.6316C21.1052 28.7482 25.2518 32.8947 30.3684 32.8947ZM30.3684 36.2632C23.3924 36.2632 17.7368 30.6076 17.7368 23.6316C17.7368 16.6556 23.3924 11 30.3684 11C37.3444 11 43 16.6556 43 23.6316C43 30.6076 37.3444 36.2632 30.3684 36.2632Z" fill="white"/>
<path d="M30.7861 36.2631C31.6619 35.2021 32.2884 33.9591 32.6219 32.6219C33.9558 32.2884 35.1987 31.6619 36.2631 30.7861C36.216 32.3322 35.8825 33.8547 35.2796 35.2829C33.8547 35.8825 32.3322 36.216 30.7861 36.2631ZM21.3781 21.3781C20.0442 21.7116 18.8012 22.3381 17.7368 23.2139C17.784 21.6678 18.1174 20.1452 18.7204 18.7204C20.1452 18.1208 21.6711 17.7873 23.2139 17.7368C22.3381 18.7979 21.7116 20.0408 21.3781 21.3781Z" fill="white"/>
</g>
<defs>
<clipPath id="clip0_6455_11575">
<rect width="32" height="32" fill="white" transform="translate(11 11)"/>
</clipPath>
</defs>
</svg>
