<svg width="20" height="20" viewBox="0 0 20 20" fill="none" xmlns="http://www.w3.org/2000/svg">
<path d="M19.9453 9.99999C19.9453 15.4938 15.4918 19.9474 9.99809 19.9474C4.50432 19.9474 0.0507812 15.4938 0.0507812 9.99999C0.0507812 4.50627 4.50432 0.0527344 9.99809 0.0527344C15.4917 0.0527344 19.9453 4.50627 19.9453 9.99999Z" fill="#02181B"/>
<g opacity="0.8">
<path d="M9.96378 5.38477L9.90234 5.5936V11.6534L9.96378 11.7148L12.7767 10.0521L9.96378 5.38477Z" fill="white"/>
<path d="M9.96526 5.38477L7.15234 10.0521L9.96526 11.7148V8.77353V5.38477Z" fill="white"/>
<path d="M9.96431 12.6306L9.92969 12.6728V14.8315L9.96431 14.9326L12.7789 10.9688L9.96431 12.6306Z" fill="white"/>
<path d="M9.96526 14.9326V12.6306L7.15234 10.9688L9.96526 14.9326Z" fill="white"/>
<path d="M9.96484 11.7147L12.7777 10.052L9.96484 8.77344V11.7147Z" fill="white"/>
<path d="M7.15234 10.052L9.96521 11.7147V8.77344L7.15234 10.052Z" fill="white"/>
</g>
</svg>
