<svg width="17" height="15" viewBox="0 0 17 15" fill="none" xmlns="http://www.w3.org/2000/svg">
<path d="M12.872 4.58453C12.7081 4.49693 12.5252 4.45111 12.3394 4.45111C12.1537 4.45111 11.9708 4.49693 11.8068 4.58453L9.32131 6.05134L7.63456 6.99L5.19336 8.45681C5.02952 8.54472 4.84657 8.59072 4.66075 8.59072C4.47493 8.59072 4.29198 8.54472 4.12814 8.45681L2.21923 7.30288C2.05652 7.20663 1.92177 7.06934 1.82838 6.90467C1.735 6.73999 1.68623 6.55366 1.68694 6.36422V4.13898C1.68817 3.95043 1.73778 3.76538 1.83101 3.60164C1.92424 3.43789 2.05794 3.30098 2.21923 3.20408L4.12814 2.09145C4.29198 2.00354 4.47493 1.95754 4.66075 1.95754C4.84657 1.95754 5.02952 2.00354 5.19336 2.09145L7.10164 3.24851C7.26388 3.3444 7.39837 3.48108 7.49183 3.64503C7.58529 3.80899 7.63449 3.99456 7.63456 4.18341V5.6521L9.31944 4.67276V3.16027C9.31809 2.97168 9.26835 2.78661 9.17501 2.62287C9.08168 2.45913 8.94789 2.32224 8.78652 2.22537L5.23579 0.133414C5.07185 0.0458165 4.88894 0 4.70318 0C4.51742 0 4.33451 0.0458165 4.17057 0.133414L0.530609 2.27043C0.367975 2.35406 0.23203 2.48182 0.138254 2.63914C0.0444772 2.79646 -0.00336181 2.97702 0.000183703 3.16027V7.34418C0.00127962 7.53254 0.0506397 7.71745 0.143526 7.88117C0.236411 8.04488 0.369704 8.18191 0.530609 8.27909L4.12814 10.3692C4.29208 10.4568 4.47499 10.5026 4.66075 10.5026C4.84651 10.5026 5.02942 10.4568 5.19336 10.3692L7.63456 8.94491L9.31944 7.96557L11.7631 6.54319C11.927 6.45528 12.1099 6.40928 12.2958 6.40928C12.4816 6.40928 12.6645 6.45528 12.8284 6.54319L14.7366 7.65582C14.899 7.75162 15.0335 7.88827 15.127 8.05225C15.2205 8.21623 15.2696 8.40184 15.2696 8.59072V10.816C15.2682 11.0046 15.2185 11.1896 15.1251 11.3534C15.0318 11.5171 14.898 11.654 14.7366 11.7509L12.872 12.8635C12.7081 12.9511 12.5252 12.9969 12.3394 12.9969C12.1537 12.9969 11.9708 12.9511 11.8068 12.8635L9.89792 11.7509C9.73588 11.6548 9.60158 11.5181 9.50824 11.3541C9.41491 11.1902 9.36575 11.0047 9.36562 10.816V9.39171L7.67887 10.3692V11.8397C7.68022 12.0283 7.72996 12.2134 7.8233 12.3771C7.91663 12.5409 8.05042 12.6778 8.21179 12.7746L11.8068 14.8666C11.9708 14.9542 12.1537 15 12.3394 15C12.5252 15 12.7081 14.9542 12.872 14.8666L16.4671 12.7746C16.6293 12.6787 16.7638 12.5421 16.8573 12.3781C16.9507 12.2141 16.9999 12.0286 17 11.8397V7.61139C16.9985 7.4229 16.9487 7.23796 16.8554 7.07434C16.7621 6.91072 16.6284 6.77393 16.4671 6.67711L12.872 4.58453Z" fill="#3E4969"/>
</svg>
