<svg width="18" height="18" viewBox="0 0 18 18" fill="none" xmlns="http://www.w3.org/2000/svg">
<path d="M9.00002 17.3354C4.39752 17.3354 0.666687 13.6045 0.666687 9.00203C0.666687 4.39953 4.39752 0.668701 9.00002 0.668701C13.6025 0.668701 17.3334 4.39953 17.3334 9.00203C17.3334 13.6045 13.6025 17.3354 9.00002 17.3354ZM9.00002 15.6687C10.7681 15.6687 12.4638 14.9663 13.7141 13.7161C14.9643 12.4658 15.6667 10.7701 15.6667 9.00203C15.6667 7.23392 14.9643 5.53823 13.7141 4.28799C12.4638 3.03775 10.7681 2.33537 9.00002 2.33537C7.23191 2.33537 5.53622 3.03775 4.28598 4.28799C3.03573 5.53823 2.33335 7.23392 2.33335 9.00203C2.33335 10.7701 3.03573 12.4658 4.28598 13.7161C5.53622 14.9663 7.23191 15.6687 9.00002 15.6687ZM8.16919 12.3354L4.63335 8.79953L5.81169 7.6212L8.16919 9.9787L12.8825 5.26453L14.0617 6.44287L8.16919 12.3354Z" fill="#1D1919"/>
</svg>
