<svg width="44" height="44" viewBox="0 0 44 44" fill="none" xmlns="http://www.w3.org/2000/svg">
<rect width="44" height="44" rx="22" fill="#F2943E" fill-opacity="0.2"/>
<path d="M27 14H31C31.2652 14 31.5196 14.1054 31.7071 14.2929C31.8946 14.4804 32 14.7348 32 15V31C32 31.2652 31.8946 31.5196 31.7071 31.7071C31.5196 31.8946 31.2652 32 31 32H13C12.7348 32 12.4804 31.8946 12.2929 31.7071C12.1054 31.5196 12 31.2652 12 31V15C12 14.7348 12.1054 14.4804 12.2929 14.2929C12.4804 14.1054 12.7348 14 13 14H17V12H19V14H25V12H27V14ZM14 20V30H30V20H14ZM16 22H18V24H16V22ZM21 22H23V24H21V22ZM26 22H28V24H26V22Z" fill="#F2943E"/>
</svg>
