<svg width="40" height="40" viewBox="0 0 40 40" fill="none" xmlns="http://www.w3.org/2000/svg">
<g filter="url(#filter0_d_158_6235)">
<rect x="4" y="2" width="32" height="32" rx="16" fill="white"/>
<g clip-path="url(#clip0_158_6235)">
<path d="M18.4404 25.9463C21.4797 25.9463 23.9433 23.4826 23.9433 20.4434C23.9433 17.4042 21.4797 14.9406 18.4404 14.9406C15.4012 14.9406 12.9376 17.4042 12.9376 20.4434C12.9376 23.4826 15.4012 25.9463 18.4404 25.9463ZM18.4404 27.9473C14.2963 27.9473 10.9365 24.5875 10.9365 20.4434C10.9365 16.2992 14.2963 12.9395 18.4404 12.9395C22.5846 12.9395 25.9444 16.2992 25.9444 20.4434C25.9444 24.5875 22.5846 27.9473 18.4404 27.9473Z" fill="#FBCC5C"/>
<path d="M22.4434 21.944C25.4826 21.944 27.9463 19.4803 27.9463 16.4411C27.9463 13.4019 25.4826 10.9382 22.4434 10.9382C19.4042 10.9382 16.9406 13.4019 16.9406 16.4411C16.9406 19.4803 19.4042 21.944 22.4434 21.944ZM22.4434 23.945C18.2992 23.945 14.9395 20.5853 14.9395 16.4411C14.9395 12.297 18.2992 8.93719 22.4434 8.93719C26.5875 8.93719 29.9473 12.297 29.9473 16.4411C29.9473 20.5853 26.5875 23.945 22.4434 23.945Z" fill="#35D07F"/>
<path d="M22.6896 23.9409C23.2097 23.3108 23.5824 22.5725 23.7806 21.7798C24.5732 21.5817 25.3115 21.2091 25.9417 20.6891C25.9129 21.6068 25.7153 22.5114 25.3586 23.3575C24.5125 23.7143 23.6077 23.9122 22.6898 23.9409H22.6896ZM17.1045 15.1039C16.3119 15.3021 15.5735 15.6748 14.9434 16.1947C14.9721 15.277 15.1698 14.3724 15.5265 13.5264C16.3727 13.1696 17.2774 12.9719 18.1952 12.9432C17.6754 13.5733 17.3027 14.3115 17.1045 15.1039Z" fill="#5EA33B"/>
</g>
</g>
<defs>
<filter id="filter0_d_158_6235" x="0" y="0" width="40" height="40" filterUnits="userSpaceOnUse" color-interpolation-filters="sRGB">
<feFlood flood-opacity="0" result="BackgroundImageFix"/>
<feColorMatrix in="SourceAlpha" type="matrix" values="0 0 0 0 0 0 0 0 0 0 0 0 0 0 0 0 0 0 127 0" result="hardAlpha"/>
<feOffset dy="2"/>
<feGaussianBlur stdDeviation="2"/>
<feColorMatrix type="matrix" values="0 0 0 0 0.113725 0 0 0 0 0.0980392 0 0 0 0 0.0980392 0 0 0 0.1 0"/>
<feBlend mode="normal" in2="BackgroundImageFix" result="effect1_dropShadow_158_6235"/>
<feBlend mode="normal" in="SourceGraphic" in2="effect1_dropShadow_158_6235" result="shape"/>
</filter>
<clipPath id="clip0_158_6235">
<rect width="20" height="20" fill="white" transform="translate(10 8)"/>
</clipPath>
</defs>
</svg>
