<svg width="124" height="28" viewBox="0 0 124 28" fill="none" xmlns="http://www.w3.org/2000/svg">
<path d="M13.9019 21.5363C16.5612 21.5363 18.7169 19.3806 18.7169 16.7213C18.7169 14.062 16.5612 11.9063 13.9019 11.9063C11.2426 11.9063 9.08684 14.062 9.08684 16.7213C9.08684 19.3806 11.2426 21.5363 13.9019 21.5363ZM13.9019 23.2872C10.2757 23.2872 7.33594 20.3474 7.33594 16.7213C7.33594 13.0951 10.2757 10.1553 13.9019 10.1553C17.528 10.1553 20.4678 13.0951 20.4678 16.7213C20.4678 20.3474 17.528 23.2872 13.9019 23.2872Z" fill="#FBCC5C"/>
<path d="M17.4038 18.0343C20.0631 18.0343 22.2189 15.8786 22.2189 13.2193C22.2189 10.56 20.0631 8.40428 17.4038 8.40428C14.7446 8.40428 12.5889 10.56 12.5889 13.2193C12.5889 15.8786 14.7446 18.0343 17.4038 18.0343ZM17.4038 19.7852C13.7777 19.7852 10.8379 16.8455 10.8379 13.2193C10.8379 9.59317 13.7777 6.65338 17.4038 6.65338C21.03 6.65338 23.9698 9.59317 23.9698 13.2193C23.9698 16.8455 21.03 19.7852 17.4038 19.7852Z" fill="#35D07F"/>
<path d="M17.6197 19.7816C18.0748 19.2303 18.401 18.5842 18.5744 17.8906C19.2679 17.7173 19.9139 17.3912 20.4653 16.9362C20.4402 17.7393 20.2673 18.5308 19.9551 19.2711C19.2148 19.5833 18.4231 19.7565 17.6199 19.7816H17.6197ZM12.7328 12.0493C12.0393 12.2227 11.3932 12.5487 10.8418 13.0037C10.867 12.2007 11.0399 11.4091 11.352 10.6689C12.0924 10.3567 12.8841 10.1837 13.6872 10.1586C13.2323 10.71 12.9062 11.3558 12.7328 12.0493Z" fill="#5EA33B"/>
<path d="M40.4413 22.1242C39.3157 22.1242 38.2304 21.9312 37.1852 21.5453C36.1401 21.1594 35.2075 20.6127 34.3874 19.9052C33.5674 19.1817 32.9162 18.3214 32.4338 17.3245C31.9675 16.3115 31.7344 15.194 31.7344 13.972C31.7344 12.7982 31.9836 11.7129 32.4821 10.716C32.9805 9.71905 33.6639 8.85077 34.5322 8.11113C35.4004 7.37149 36.3893 6.80068 37.4988 6.39869C38.6243 5.98064 39.8061 5.77161 41.0442 5.77161C41.6713 5.77161 42.2019 5.79572 42.6361 5.84396C43.0702 5.8922 43.4883 5.96456 43.8903 6.06103C44.3083 6.14143 44.7907 6.25398 45.3374 6.39869C45.5786 6.46301 45.7474 6.55949 45.8439 6.68812C45.9564 6.81675 46.0208 6.99363 46.0368 7.21873C46.069 7.58856 46.1092 7.99054 46.1574 8.42468C46.2057 8.84273 46.2378 9.36531 46.2539 9.9924C46.27 10.105 46.2137 10.2014 46.0851 10.2818C45.9725 10.3461 45.8439 10.3622 45.6992 10.3301C45.5705 10.2979 45.4821 10.1934 45.4339 10.0165C45.2731 9.40551 45.0882 8.88293 44.8791 8.44879C44.6701 7.99858 44.3566 7.62875 43.9385 7.33933C43.5365 7.06598 43.0461 6.86499 42.4672 6.73636C41.9045 6.59165 41.2935 6.51929 40.6342 6.51929C39.7016 6.51929 38.8333 6.71224 38.0294 7.09814C37.2415 7.46796 36.5581 7.9825 35.9793 8.64174C35.4165 9.28491 34.9743 10.0165 34.6528 10.8366C34.3312 11.6566 34.1704 12.5088 34.1704 13.3932C34.1704 14.374 34.3231 15.3387 34.6286 16.2874C34.9502 17.2361 35.4004 18.0963 35.9793 18.8681C36.5742 19.6238 37.2737 20.2349 38.0776 20.7011C38.8977 21.1514 39.8061 21.3765 40.8031 21.3765C41.9608 21.3765 42.9175 21.1112 43.6732 20.5806C44.4289 20.0499 45.0721 19.3103 45.6027 18.3616C45.7152 18.1526 45.876 18.0481 46.0851 18.0481C46.3102 18.0481 46.4227 18.1767 46.4227 18.434C46.4227 18.5626 46.3906 18.7716 46.3263 19.0611C46.2619 19.3344 46.1735 19.6319 46.0609 19.9535C45.9645 20.259 45.868 20.5323 45.7715 20.7735C45.659 20.9986 45.5625 21.1433 45.4821 21.2076C45.4178 21.272 45.257 21.3443 44.9997 21.4247C44.4048 21.6659 43.6893 21.8428 42.8531 21.9553C42.0331 22.0679 41.2291 22.1242 40.4413 22.1242ZM52.8856 22.1242C52.0012 22.1242 51.2294 21.9071 50.5702 21.473C49.9109 21.0388 49.3964 20.4278 49.0266 19.6399C48.6568 18.836 48.4719 17.9114 48.4719 16.8663C48.4719 15.9337 48.6809 15.0895 49.099 14.3338C49.5331 13.562 50.1039 12.9429 50.8114 12.4766C51.5189 12.0103 52.2907 11.7772 53.1268 11.7772C53.77 11.7772 54.3408 11.9058 54.8392 12.1631C55.3377 12.4204 55.7236 12.7821 55.9969 13.2484C56.2864 13.6987 56.4311 14.2212 56.4311 14.8162C56.4311 15.3146 56.1899 15.5638 55.7075 15.5638H50.6184C50.3933 15.5638 50.2325 15.6282 50.1361 15.7568C50.0557 15.8693 50.0155 16.1025 50.0155 16.4562C50.0155 17.228 50.1843 17.9355 50.522 18.5787C50.8596 19.2058 51.3098 19.7123 51.8726 20.0982C52.4354 20.468 53.0544 20.6529 53.7298 20.6529C54.2121 20.6529 54.6463 20.5645 55.0322 20.3876C55.4342 20.1947 55.7879 19.9213 56.0934 19.5676C56.1577 19.4872 56.206 19.4389 56.2381 19.4229C56.2703 19.3907 56.3105 19.3746 56.3587 19.3746C56.4873 19.3746 56.5517 19.455 56.5517 19.6158C56.5517 19.9213 56.407 20.259 56.1175 20.6288C55.8763 20.9343 55.5869 21.1996 55.2492 21.4247C54.9116 21.6498 54.5418 21.8187 54.1398 21.9312C53.7378 22.0598 53.3197 22.1242 52.8856 22.1242ZM50.6667 14.8162H52.8615C53.2474 14.8162 53.577 14.8081 53.8504 14.792C54.1237 14.776 54.389 14.7438 54.6463 14.6956C54.7267 14.6795 54.7749 14.6312 54.791 14.5509C54.8231 14.4544 54.8392 14.3257 54.8392 14.165C54.8392 13.6987 54.6302 13.3047 54.2121 12.9831C53.8102 12.6455 53.3278 12.4766 52.765 12.4766C52.3952 12.4766 52.0254 12.5892 51.6555 12.8143C51.2857 13.0233 50.9802 13.2886 50.739 13.6102C50.4978 13.9318 50.3772 14.2534 50.3772 14.575C50.3772 14.7358 50.4737 14.8162 50.6667 14.8162ZM58.0868 21.8347C58.0064 21.8347 57.9019 21.8187 57.7733 21.7865C57.6607 21.7704 57.6044 21.7141 57.6044 21.6177C57.6044 21.489 57.6607 21.4006 57.7733 21.3524C57.9019 21.288 58.0305 21.2318 58.1592 21.1835C58.4004 21.1031 58.6335 21.0147 58.8586 20.9182C59.0837 20.8057 59.1963 20.5886 59.1963 20.267V8.11113C59.1963 7.64483 59.1078 7.25893 58.931 6.95343C58.7702 6.63184 58.4888 6.43085 58.0868 6.35046C57.9582 6.3183 57.8939 6.21378 57.8939 6.03691C57.8939 5.87612 57.9501 5.77965 58.0627 5.74749C58.4808 5.65101 58.8425 5.55454 59.148 5.45806C59.4535 5.34551 59.7349 5.23295 59.9922 5.1204C60.2655 5.00784 60.5308 4.90333 60.7881 4.80685C60.8524 4.7747 60.9007 4.75862 60.9328 4.75862C60.965 4.75862 60.9891 4.78274 61.0052 4.83097C61.0373 4.86313 61.0534 4.89529 61.0534 4.92745C61.0534 5.07216 61.0213 5.38571 60.957 5.86808C60.9087 6.33438 60.8846 7.11422 60.8846 8.20761V20.267C60.8846 20.5886 60.9971 20.8057 61.2223 20.9182C61.4474 21.0147 61.6805 21.1031 61.9217 21.1835C62.0503 21.2318 62.1709 21.288 62.2835 21.3524C62.4121 21.4006 62.4764 21.489 62.4764 21.6177C62.4764 21.7141 62.4121 21.7704 62.2835 21.7865C62.1709 21.8187 62.0745 21.8347 61.9941 21.8347C61.6886 21.8347 61.4393 21.8187 61.2464 21.7865C61.0695 21.7704 60.8926 21.7543 60.7158 21.7383C60.555 21.7222 60.3299 21.7141 60.0404 21.7141C59.7671 21.7141 59.542 21.7222 59.3651 21.7383C59.1882 21.7543 59.0114 21.7704 58.8345 21.7865C58.6576 21.8187 58.4084 21.8347 58.0868 21.8347ZM68.5842 22.1C67.6837 22.1 66.8717 21.891 66.1482 21.473C65.4246 21.0549 64.8458 20.4841 64.4116 19.7605C63.9936 19.0209 63.7845 18.1848 63.7845 17.2522C63.7845 16.5768 63.9132 15.9176 64.1704 15.2744C64.4438 14.6312 64.8216 14.0444 65.304 13.5137C65.7864 12.9831 66.3492 12.5651 66.9923 12.2596C67.6355 11.938 68.3269 11.7772 69.0666 11.7772C69.9989 11.7772 70.8354 12.0023 71.5749 12.4525C72.3304 12.9027 72.9257 13.4977 73.3596 14.2373C73.8101 14.9609 74.0353 15.7568 74.0353 16.6251C74.0353 17.5577 73.826 18.442 73.4081 19.2781C73.0061 20.1143 72.4031 20.7976 71.5992 21.3282C70.7952 21.8428 69.7901 22.1 68.5842 22.1ZM69.0907 21.3765C69.6374 21.3765 70.1278 21.272 70.5616 21.0629C70.9962 20.8539 71.3337 20.5162 71.5749 20.0499C71.7676 19.6801 71.8965 19.2299 71.961 18.6993C72.0254 18.1687 72.0573 17.6702 72.0573 17.2039C72.0573 16.4321 71.9124 15.6925 71.6234 14.985C71.3497 14.2614 70.956 13.6745 70.441 13.2243C69.9429 12.758 69.3479 12.5249 68.6565 12.5249C68.2224 12.5249 67.8285 12.5972 67.4747 12.7419C67.1371 12.8706 66.8235 13.1198 66.5341 13.4896C66.2125 13.8916 66.0035 14.382 65.907 14.9609C65.8105 15.5397 65.7623 16.1186 65.7623 16.6974C65.7623 17.4853 65.907 18.241 66.1964 18.9646C66.4858 19.6721 66.8798 20.2509 67.3782 20.7011C67.8767 21.1514 68.4475 21.3765 69.0907 21.3765ZM84.631 22.1483C83.9552 22.1483 83.328 22.0438 82.7493 21.8347C82.1865 21.6418 81.6799 21.3604 81.2301 20.9906C81.1656 20.9263 81.1011 20.8539 81.0367 20.7735C80.9889 20.6931 80.9487 20.6047 80.9161 20.5082C80.8357 20.1866 80.7796 19.7686 80.7477 19.254C80.7317 18.7395 80.7075 18.3134 80.6749 17.9757C80.6749 17.8632 80.7234 17.7828 80.8198 17.7345C80.9161 17.6702 81.0291 17.6381 81.1573 17.6381C81.2377 17.6381 81.3181 17.6622 81.3985 17.7104C81.4789 17.7426 81.5274 17.8069 81.5433 17.9034C81.8649 19.1415 82.3397 20.0258 82.9662 20.5564C83.6094 21.0871 84.2768 21.3524 84.9685 21.3524C85.5312 21.3524 86.0296 21.2318 86.4634 20.9906C86.898 20.7494 87.2355 20.4117 87.4767 19.9776C87.7338 19.5274 87.8627 19.0048 87.8627 18.4099C87.8627 17.7506 87.7498 17.22 87.5252 16.818C87.3159 16.4 87.0103 16.0382 86.6083 15.7327C86.2063 15.4272 85.7163 15.0975 85.1369 14.7438C84.5104 14.3418 83.8908 13.9398 83.2802 13.5379C82.6689 13.1198 82.1622 12.6455 81.7603 12.1149C81.3583 11.5682 81.1573 10.9089 81.1573 10.1371C81.1573 9.31707 81.3423 8.57743 81.7124 7.91818C82.0818 7.25893 82.637 6.73636 83.3765 6.35046C84.1319 5.94848 85.0731 5.74749 86.1987 5.74749C86.7774 5.74749 87.2757 5.8118 87.6936 5.94044C88.1282 6.05299 88.4733 6.16555 88.7312 6.2781C88.8594 6.32634 88.964 6.40674 89.0444 6.51929C89.1408 6.63184 89.2052 6.75244 89.2371 6.88107C89.3341 7.21873 89.4381 7.60464 89.551 8.03877C89.6633 8.47291 89.7195 8.88293 89.7195 9.26883C89.7195 9.4457 89.5989 9.53414 89.3577 9.53414C89.2135 9.53414 89.0687 9.50198 88.9238 9.43766C88.7949 9.37335 88.7145 9.29295 88.6826 9.19648C88.3451 8.34428 87.9508 7.69307 87.501 7.24285C87.0505 6.79264 86.4801 6.56753 85.7884 6.56753C85.306 6.56753 84.8555 6.65596 84.4376 6.83283C84.0197 7.0097 83.6738 7.29913 83.4008 7.70111C83.1436 8.10309 83.0147 8.64174 83.0147 9.31707C83.0147 9.79945 83.1672 10.2416 83.4728 10.6436C83.7944 11.0295 84.2123 11.3993 84.7273 11.7531C85.2415 12.1068 85.7967 12.4686 86.3913 12.8384C86.9541 13.1761 87.501 13.5459 88.0312 13.9479C88.578 14.3499 89.0202 14.8322 89.3577 15.395C89.7118 15.9417 89.8886 16.617 89.8886 17.421C89.8886 18.3697 89.6716 19.2058 89.2371 19.9293C88.8032 20.6368 88.1919 21.1835 87.4046 21.5694C86.6166 21.9553 85.692 22.1483 84.631 22.1483ZM93.7441 22.1C93.4544 22.1 93.1571 21.9875 92.8514 21.7624C92.5617 21.5373 92.3129 21.2639 92.1036 20.9423C91.911 20.6208 91.8146 20.3152 91.8146 20.0258C91.8146 19.5113 91.9512 19.1093 92.2242 18.8199C92.498 18.5305 92.9318 18.2651 93.5265 18.024L95.9869 17.011C96.3085 16.8823 96.4935 16.7698 96.5413 16.6733C96.6058 16.5768 96.646 16.3678 96.6619 16.0462L96.7105 14.5026C96.7264 14.0846 96.6058 13.7228 96.3487 13.4173C96.1075 13.1118 95.754 12.959 95.2876 12.959C95.0464 12.959 94.8052 12.9992 94.564 13.0796C94.3228 13.16 94.1218 13.2645 93.961 13.3932C93.8647 13.4575 93.8003 13.5539 93.7677 13.6826C93.7358 13.8112 93.7199 13.9479 93.7199 14.0926C93.7199 14.1569 93.7199 14.2293 93.7199 14.3097C93.7358 14.3901 93.7441 14.4624 93.7441 14.5267C93.7441 14.6071 93.6395 14.7197 93.4302 14.8644C93.2375 14.993 93.0122 15.1136 92.7551 15.2262C92.5139 15.3227 92.3129 15.3709 92.1521 15.3709C92.0717 15.3709 92.0073 15.3548 91.9588 15.3227C91.9109 15.2744 91.8867 15.2181 91.8867 15.1538C91.8867 14.8966 91.9671 14.6232 92.1279 14.3338C92.3046 14.0283 92.5458 13.7469 92.8514 13.4896C93.2215 13.152 93.6235 12.8545 94.0574 12.5972C94.4912 12.34 94.9175 12.139 95.3354 11.9943C95.754 11.8495 96.1234 11.7772 96.445 11.7772C97.0237 11.7772 97.4985 11.9862 97.8679 12.4043C98.2539 12.8063 98.439 13.3128 98.423 13.9238L98.3024 19.7123C98.2865 20.0499 98.3586 20.3233 98.5194 20.5323C98.6961 20.7413 98.913 20.8459 99.1709 20.8459C99.5728 20.8459 99.8702 20.7574 100.063 20.5806C100.143 20.5002 100.208 20.46 100.256 20.46C100.337 20.46 100.4 20.4841 100.449 20.5323C100.497 20.5806 100.521 20.6449 100.521 20.7253C100.521 20.9021 100.433 21.079 100.256 21.2559C99.9984 21.5131 99.717 21.7141 99.412 21.8589C99.1223 22.0196 98.8493 22.1 98.5914 22.1C97.8519 22.1 97.2649 21.682 96.831 20.8459H96.759C96.2281 21.28 95.7214 21.5935 95.2391 21.7865C94.7567 21.9955 94.2584 22.1 93.7441 22.1ZM94.8773 20.9423C95.1989 20.9423 95.4726 20.8941 95.6972 20.7976C95.9224 20.6851 96.1234 20.5404 96.3002 20.3635C96.3806 20.2831 96.445 20.1786 96.4935 20.0499C96.558 19.9052 96.5982 19.6801 96.6141 19.3746L96.6619 18.1928C96.6786 18.0159 96.6703 17.8873 96.6384 17.8069C96.6058 17.7265 96.5413 17.6863 96.445 17.6863C96.4131 17.6863 96.357 17.6943 96.2766 17.7104C96.1962 17.7265 96.0915 17.7587 95.9626 17.8069C95.1109 18.1124 94.5155 18.434 94.178 18.7716C93.8564 19.0932 93.6956 19.3907 93.6956 19.664C93.6956 20.0821 93.8162 20.4037 94.0574 20.6288C94.3145 20.8378 94.5883 20.9423 94.8773 20.9423ZM101.617 21.8347C101.456 21.8347 101.335 21.8106 101.255 21.7624C101.175 21.7302 101.134 21.6659 101.134 21.5694C101.134 21.4408 101.182 21.3524 101.279 21.3041C101.391 21.2559 101.528 21.2157 101.689 21.1835C102.059 21.1031 102.324 20.9906 102.485 20.8459C102.646 20.6851 102.726 20.4439 102.726 20.1223V13.3208C102.566 13.3208 102.38 13.3208 102.171 13.3208C101.963 13.3047 101.729 13.2886 101.472 13.2726C101.423 13.2565 101.351 13.2002 101.255 13.1037C101.175 13.0072 101.134 12.9188 101.134 12.8384C101.134 12.8063 101.159 12.7821 101.206 12.7661C101.255 12.7339 101.287 12.7098 101.303 12.6937C101.592 12.549 101.842 12.4204 102.051 12.3078C102.26 12.1952 102.485 12.0827 102.726 11.9701C102.726 10.5712 102.895 9.40551 103.232 8.47291C103.586 7.54032 104.036 6.80068 104.583 6.25398C105.13 5.70729 105.709 5.32139 106.32 5.09628C106.93 4.85509 107.502 4.7345 108.032 4.7345C108.933 4.7345 109.6 4.87117 110.034 5.14452C110.468 5.41786 110.686 5.76357 110.686 6.18163C110.686 6.50321 110.605 6.7444 110.444 6.90519C110.284 7.06598 110.09 7.14638 109.865 7.14638C109.721 7.14638 109.584 7.0901 109.455 6.97755C109.342 6.86499 109.206 6.73636 109.045 6.59165C108.836 6.38262 108.579 6.18967 108.274 6.01279C107.968 5.81984 107.55 5.72337 107.019 5.72337C106.264 5.72337 105.636 6.05299 105.138 6.71224C104.656 7.37149 104.415 8.38448 104.415 9.75121V11.8737C104.415 11.9701 104.438 12.0345 104.487 12.0666C104.551 12.0988 104.616 12.1149 104.679 12.1149H107.694C107.775 12.1149 107.847 12.139 107.912 12.1872C107.976 12.2354 108.008 12.2998 108.008 12.3802C108.008 12.4927 107.992 12.6133 107.96 12.7419C107.944 12.8706 107.912 12.9831 107.863 13.0796C107.815 13.2082 107.743 13.2726 107.646 13.2726H104.873C104.679 13.2726 104.551 13.3047 104.487 13.369C104.438 13.4173 104.415 13.4896 104.415 13.5861V20.1223C104.415 20.4439 104.519 20.6851 104.728 20.8459C104.937 20.9906 105.363 21.1031 106.006 21.1835C106.376 21.2318 106.561 21.3604 106.561 21.5694C106.561 21.6659 106.521 21.7302 106.44 21.7624C106.36 21.8106 106.239 21.8347 106.079 21.8347C105.596 21.8347 105.17 21.8106 104.8 21.7624C104.431 21.7302 104.036 21.7141 103.618 21.7141C103.345 21.7141 103.12 21.7222 102.943 21.7383C102.766 21.7543 102.581 21.7704 102.388 21.7865C102.195 21.8187 101.938 21.8347 101.617 21.8347ZM112.758 22.1242C111.874 22.1242 111.103 21.9071 110.444 21.473C109.784 21.0388 109.27 20.4278 108.899 19.6399C108.53 18.836 108.345 17.9114 108.345 16.8663C108.345 15.9337 108.554 15.0895 108.972 14.3338C109.406 13.562 109.977 12.9429 110.685 12.4766C111.392 12.0103 112.164 11.7772 113 11.7772C113.643 11.7772 114.214 11.9058 114.712 12.1631C115.211 12.4204 115.597 12.7821 115.87 13.2484C116.159 13.6987 116.304 14.2212 116.304 14.8162C116.304 15.3146 116.063 15.5638 115.581 15.5638H110.491C110.266 15.5638 110.105 15.6282 110.009 15.7568C109.929 15.8693 109.888 16.1025 109.888 16.4562C109.888 17.228 110.058 17.9355 110.395 18.5787C110.733 19.2058 111.183 19.7123 111.746 20.0982C112.309 20.468 112.928 20.6529 113.603 20.6529C114.085 20.6529 114.52 20.5645 114.906 20.3876C115.308 20.1947 115.661 19.9213 115.967 19.5676C116.031 19.4872 116.079 19.4389 116.112 19.4229C116.143 19.3907 116.184 19.3746 116.232 19.3746C116.36 19.3746 116.425 19.455 116.425 19.6158C116.425 19.9213 116.28 20.259 115.991 20.6288C115.75 20.9343 115.46 21.1996 115.123 21.4247C114.785 21.6498 114.415 21.8187 114.013 21.9312C113.611 22.0598 113.193 22.1242 112.758 22.1242ZM110.54 14.8162H112.735C113.12 14.8162 113.45 14.8081 113.723 14.792C113.997 14.776 114.262 14.7438 114.52 14.6956C114.6 14.6795 114.648 14.6312 114.664 14.5509C114.696 14.4544 114.712 14.3257 114.712 14.165C114.712 13.6987 114.504 13.3047 114.085 12.9831C113.683 12.6455 113.201 12.4766 112.638 12.4766C112.268 12.4766 111.898 12.5892 111.529 12.8143C111.159 13.0233 110.853 13.2886 110.612 13.6102C110.371 13.9318 110.25 14.2534 110.25 14.575C110.25 14.7358 110.347 14.8162 110.54 14.8162Z" fill="#2E3338"/>
</svg>
