<svg width="20" height="21" viewBox="0 0 20 21" fill="none" xmlns="http://www.w3.org/2000/svg">
<path d="M6.07583 17.3554L1.66667 18.3354L2.64667 13.9262C2.00128 12.719 1.6646 11.3709 1.66667 10.002C1.66667 5.39953 5.3975 1.6687 10 1.6687C14.6025 1.6687 18.3333 5.39953 18.3333 10.002C18.3333 14.6045 14.6025 18.3354 10 18.3354C8.63113 18.3374 7.28301 18.0008 6.07583 17.3554ZM6.3175 15.5945L6.86167 15.8862C7.82712 16.4022 8.90533 16.671 10 16.6687C11.3185 16.6687 12.6075 16.2777 13.7038 15.5452C14.8001 14.8126 15.6546 13.7714 16.1592 12.5533C16.6638 11.3351 16.7958 9.99464 16.5386 8.70143C16.2813 7.40823 15.6464 6.22034 14.714 5.28799C13.7817 4.35564 12.5938 3.7207 11.3006 3.46347C10.0074 3.20623 8.66695 3.33825 7.44878 3.84284C6.2306 4.34742 5.18941 5.20191 4.45687 6.29823C3.72433 7.39456 3.33333 8.68349 3.33333 10.002C3.33333 11.1137 3.60417 12.1837 4.11667 13.1404L4.4075 13.6845L3.86167 16.1404L6.3175 15.5945Z" fill="black"/>
</svg>
