<svg width="18" height="18" viewBox="0 0 18 18" fill="none" xmlns="http://www.w3.org/2000/svg">
<rect width="18" height="18" rx="9" fill="#E7E4DD"/>
<path d="M6.22222 5.72222V4.05556C6.22222 3.90821 6.28075 3.76691 6.38494 3.66272C6.48913 3.55853 6.63044 3.5 6.77778 3.5H13.4444C13.5918 3.5 13.7331 3.55853 13.8373 3.66272C13.9415 3.76691 14 3.90821 14 4.05556V11.8333C14 11.9807 13.9415 12.122 13.8373 12.2262C13.7331 12.3304 13.5918 12.3889 13.4444 12.3889H11.7778V14.0556C11.7778 14.3622 11.5278 14.6111 11.2183 14.6111H4.55944C4.48618 14.6116 4.41355 14.5975 4.34573 14.5698C4.27792 14.5421 4.21624 14.5012 4.16425 14.4496C4.11227 14.398 4.071 14.3366 4.04281 14.269C4.01462 14.2013 4.00007 14.1288 4 14.0556L4.00167 6.27778C4.00167 5.97111 4.25167 5.72222 4.56111 5.72222H6.22222ZM5.11278 6.83333L5.11111 13.5H10.6667V6.83333H5.11278ZM7.33333 5.72222H11.7778V11.2778H12.8889V4.61111H7.33333V5.72222Z" fill="#8D8B87"/>
</svg>
