<svg width="24" height="24" viewBox="0 0 24 24" fill="none" xmlns="http://www.w3.org/2000/svg">
<path d="M7 6.00025V3.00024C7 2.73503 7.10536 2.48067 7.29289 2.29314C7.48043 2.1056 7.73478 2.00024 8 2.00024H20C20.2652 2.00024 20.5196 2.1056 20.7071 2.29314C20.8946 2.48067 21 2.73503 21 3.00024V17.0002C21 17.2655 20.8946 17.5198 20.7071 17.7074C20.5196 17.8949 20.2652 18.0002 20 18.0002H17V21.0002C17 21.5522 16.55 22.0002 15.993 22.0002H4.007C3.87513 22.001 3.7444 21.9758 3.62232 21.9259C3.50025 21.876 3.38923 21.8025 3.29566 21.7095C3.20208 21.6166 3.12779 21.5061 3.07705 21.3844C3.02632 21.2627 3.00013 21.1321 3 21.0002L3.003 7.00025C3.003 6.44825 3.453 6.00025 4.01 6.00025H7ZM5.003 8.00025L5 20.0002H15V8.00025H5.003ZM9 6.00025H17V16.0002H19V4.00024H9V6.00025Z" fill="#1D1919"/>
</svg>
