<svg width="16" height="16" viewBox="0 0 16 16" fill="none" xmlns="http://www.w3.org/2000/svg">
<path d="M11.3333 3.99992H14.6666V5.33325H13.3333V13.9999C13.3333 14.1767 13.263 14.3463 13.138 14.4713C13.013 14.5963 12.8434 14.6666 12.6666 14.6666H3.33325C3.15644 14.6666 2.98687 14.5963 2.86185 14.4713C2.73682 14.3463 2.66659 14.1767 2.66659 13.9999V5.33325H1.33325V3.99992H4.66658V1.99992C4.66658 1.82311 4.73682 1.65354 4.86185 1.52851C4.98687 1.40349 5.15644 1.33325 5.33325 1.33325H10.6666C10.8434 1.33325 11.013 1.40349 11.138 1.52851C11.263 1.65354 11.3333 1.82311 11.3333 1.99992V3.99992ZM11.9999 5.33325H3.99992V13.3333H11.9999V5.33325ZM5.99992 2.66659V3.99992H9.99992V2.66659H5.99992Z" fill="#1D1919"/>
</svg>
