<svg width="20" height="20" viewBox="0 0 20 20" fill="none" xmlns="http://www.w3.org/2000/svg">
<path d="M8.39667 9.16663C8.89667 9.16663 9.30167 9.54163 9.2925 9.99996C9.2925 10.4583 8.8975 10.8333 8.39667 10.8333C7.905 10.8333 7.5 10.4583 7.5 9.99996C7.5 9.54163 7.89583 9.16663 8.39667 9.16663ZM11.6033 9.16663C12.1042 9.16663 12.5 9.54163 12.5 9.99996C12.5 10.4583 12.1042 10.8333 11.6033 10.8333C11.1117 10.8333 10.7075 10.4583 10.7075 9.99996C10.7075 9.54163 11.1025 9.16663 11.6033 9.16663ZM15.7425 1.66663C16.7117 1.66663 17.5 2.47163 17.5 3.46913V19.1666L15.6575 17.5041L14.62 16.5241L13.5225 15.4825L13.9775 17.1016H4.2575C3.28833 17.1016 2.5 16.2966 2.5 15.2991V3.46913C2.5 2.47163 3.28833 1.66663 4.2575 1.66663H15.7417H15.7425ZM12.4342 13.0941C14.3283 13.0333 15.0575 11.7641 15.0575 11.7641C15.0575 8.94663 13.8225 6.66246 13.8225 6.66246C12.5892 5.71829 11.4142 5.74413 11.4142 5.74413L11.2942 5.88413C12.7517 6.33913 13.4283 6.99579 13.4283 6.99579C12.6326 6.54745 11.7555 6.26191 10.8483 6.15579C10.2729 6.0908 9.69161 6.09639 9.1175 6.17246C9.06583 6.17246 9.0225 6.18163 8.97167 6.18996C8.67167 6.21663 7.9425 6.32996 7.02583 6.74163C6.70917 6.88996 6.52 6.99579 6.52 6.99579C6.52 6.99579 7.23167 6.30413 8.77417 5.84913L8.68833 5.74413C8.68833 5.74413 7.51417 5.71829 6.28 6.66329C6.28 6.66329 5.04583 8.94663 5.04583 11.7641C5.04583 11.7641 5.76583 13.0325 7.66 13.0941C7.66 13.0941 7.97667 12.7008 8.235 12.3683C7.14583 12.035 6.735 11.335 6.735 11.335C6.735 11.335 6.82 11.3966 6.97417 11.4841C6.9825 11.4925 6.99083 11.5016 7.00833 11.51C7.03417 11.5283 7.06 11.5366 7.08583 11.5541C7.3 11.6766 7.51417 11.7725 7.71083 11.8516C8.0625 11.9916 8.4825 12.1316 8.97167 12.2283C9.70443 12.3719 10.4578 12.3748 11.1917 12.2366C11.6191 12.1603 12.0361 12.0342 12.4342 11.8608C12.7342 11.7466 13.0683 11.58 13.42 11.3441C13.42 11.3441 12.9917 12.0616 11.8683 12.3858C12.1258 12.7183 12.435 13.0941 12.435 13.0941H12.4342Z" fill="black"/>
</svg>
