<svg width="44" height="32" viewBox="0 0 44 32" fill="none" xmlns="http://www.w3.org/2000/svg">
<rect width="44" height="32" rx="2" fill="#E7E4DD"/>
<path d="M20.3967 15.1667C20.8967 15.1667 21.3017 15.5417 21.2925 16C21.2925 16.4584 20.8975 16.8334 20.3967 16.8334C19.905 16.8334 19.5 16.4584 19.5 16C19.5 15.5417 19.8958 15.1667 20.3967 15.1667ZM23.6033 15.1667C24.1042 15.1667 24.5 15.5417 24.5 16C24.5 16.4584 24.1042 16.8334 23.6033 16.8334C23.1117 16.8334 22.7075 16.4584 22.7075 16C22.7075 15.5417 23.1025 15.1667 23.6033 15.1667ZM27.7425 7.66669C28.7117 7.66669 29.5 8.47169 29.5 9.46919V25.1667L27.6575 23.5042L26.62 22.5242L25.5225 21.4825L25.9775 23.1017H16.2575C15.2883 23.1017 14.5 22.2967 14.5 21.2992V9.46919C14.5 8.47169 15.2883 7.66669 16.2575 7.66669H27.7417H27.7425ZM24.4342 19.0942C26.3283 19.0334 27.0575 17.7642 27.0575 17.7642C27.0575 14.9467 25.8225 12.6625 25.8225 12.6625C24.5892 11.7184 23.4142 11.7442 23.4142 11.7442L23.2942 11.8842C24.7517 12.3392 25.4283 12.9959 25.4283 12.9959C24.6326 12.5475 23.7555 12.262 22.8483 12.1559C22.2729 12.0909 21.6916 12.0965 21.1175 12.1725C21.0658 12.1725 21.0225 12.1817 20.9717 12.19C20.6717 12.2167 19.9425 12.33 19.0258 12.7417C18.7092 12.89 18.52 12.9959 18.52 12.9959C18.52 12.9959 19.2317 12.3042 20.7742 11.8492L20.6883 11.7442C20.6883 11.7442 19.5142 11.7184 18.28 12.6634C18.28 12.6634 17.0458 14.9467 17.0458 17.7642C17.0458 17.7642 17.7658 19.0325 19.66 19.0942C19.66 19.0942 19.9767 18.7009 20.235 18.3684C19.1458 18.035 18.735 17.335 18.735 17.335C18.735 17.335 18.82 17.3967 18.9742 17.4842C18.9825 17.4925 18.9908 17.5017 19.0083 17.51C19.0342 17.5284 19.06 17.5367 19.0858 17.5542C19.3 17.6767 19.5142 17.7725 19.7108 17.8517C20.0625 17.9917 20.4825 18.1317 20.9717 18.2284C21.7044 18.372 22.4578 18.3748 23.1917 18.2367C23.6191 18.1604 24.0361 18.0343 24.4342 17.8609C24.7342 17.7467 25.0683 17.58 25.42 17.3442C25.42 17.3442 24.9917 18.0617 23.8683 18.3859C24.1258 18.7184 24.435 19.0942 24.435 19.0942H24.4342Z" fill="black"/>
</svg>
