<svg width="44" height="44" viewBox="0 0 44 44" fill="none" xmlns="http://www.w3.org/2000/svg">
<rect width="44" height="44" rx="22" fill="#0A84FF" fill-opacity="0.2"/>
<path d="M29 32H15C14.2044 32 13.4413 31.6839 12.8787 31.1213C12.3161 30.5587 12 29.7956 12 29V13C12 12.7348 12.1054 12.4804 12.2929 12.2929C12.4804 12.1054 12.7348 12 13 12H27C27.2652 12 27.5196 12.1054 27.7071 12.2929C27.8946 12.4804 28 12.7348 28 13V25H32V29C32 29.7956 31.6839 30.5587 31.1213 31.1213C30.5587 31.6839 29.7956 32 29 32ZM28 27V29C28 29.2652 28.1054 29.5196 28.2929 29.7071C28.4804 29.8946 28.7348 30 29 30C29.2652 30 29.5196 29.8946 29.7071 29.7071C29.8946 29.5196 30 29.2652 30 29V27H28ZM16 17V19H24V17H16ZM16 21V23H24V21H16ZM16 25V27H21V25H16Z" fill="#0A84FF"/>
</svg>
