<svg width="20" height="20" viewBox="0 0 20 20" fill="none" xmlns="http://www.w3.org/2000/svg">
<path d="M16.6665 7.5V4.16667H3.33317V7.5H16.6665ZM16.6665 9.16667H3.33317V15.8333H16.6665V9.16667ZM2.49984 2.5H17.4998C17.7208 2.5 17.9328 2.5878 18.0891 2.74408C18.2454 2.90036 18.3332 3.11232 18.3332 3.33333V16.6667C18.3332 16.8877 18.2454 17.0996 18.0891 17.2559C17.9328 17.4122 17.7208 17.5 17.4998 17.5H2.49984C2.27882 17.5 2.06686 17.4122 1.91058 17.2559C1.7543 17.0996 1.6665 16.8877 1.6665 16.6667V3.33333C1.6665 3.11232 1.7543 2.90036 1.91058 2.74408C2.06686 2.5878 2.27882 2.5 2.49984 2.5ZM4.1665 10H6.6665V14.1667H4.1665V10ZM4.1665 5H5.83317V6.66667H4.1665V5ZM7.49984 5H9.1665V6.66667H7.49984V5Z" fill="#0A84FF"/>
</svg>
