<svg width="41" height="41" viewBox="0 0 41 41" fill="none" xmlns="http://www.w3.org/2000/svg">
<rect x="0.5" y="0.5" width="40" height="40" rx="2" fill="#036AFF"/>
<path d="M9 17.2H31.8C32.1183 17.2 32.4235 17.3264 32.6485 17.5515C32.8736 17.7765 33 18.0817 33 18.4V30.4C33 30.7183 32.8736 31.0235 32.6485 31.2485C32.4235 31.4736 32.1183 31.6 31.8 31.6H10.2C9.88174 31.6 9.57652 31.4736 9.35147 31.2485C9.12643 31.0235 9 30.7183 9 30.4V17.2ZM10.2 10H28.2V14.8H9V11.2C9 10.8817 9.12643 10.5765 9.35147 10.3515C9.57652 10.1264 9.88174 10 10.2 10V10ZM24.6 23.2V25.6H28.2V23.2H24.6Z" fill="#D1D7F4"/>
</svg>