<?xml version="1.0" encoding="UTF-8"?>
<svg width="2307px" height="1800px" viewBox="0 0 2307 1800" version="1.1" xmlns="http://www.w3.org/2000/svg" xmlns:xlink="http://www.w3.org/1999/xlink">
    <!-- Generator: Sketch 55.2 (78181) - https://sketchapp.com -->
    <title>Group 4</title>
    <desc>Created with Sketch.</desc>
    <defs>
        <linearGradient x1="19.0144559%" y1="-103.592148%" x2="160.247498%" y2="100%" id="linearGradient-1">
            <stop stop-color="#42FFB1" offset="0%"></stop>
            <stop stop-color="#00D3DC" offset="100%"></stop>
        </linearGradient>
        <linearGradient x1="-601.597884%" y1="-30.6073889%" x2="2368.40487%" y2="76.2407259%" id="linearGradient-2">
            <stop stop-color="#42FFB1" offset="0%"></stop>
            <stop stop-color="#00D3DC" offset="100%"></stop>
        </linearGradient>
        <linearGradient x1="-601.597884%" y1="-60.5423178%" x2="2368.40487%" y2="85.9856671%" id="linearGradient-3">
            <stop stop-color="#42FFB1" offset="0%"></stop>
            <stop stop-color="#00D3DC" offset="100%"></stop>
        </linearGradient>
        <linearGradient x1="-601.597884%" y1="-43.5923875%" x2="2368.40487%" y2="80.4678296%" id="linearGradient-4">
            <stop stop-color="#42FFB1" offset="0%"></stop>
            <stop stop-color="#00D3DC" offset="100%"></stop>
        </linearGradient>
        <linearGradient x1="-601.597884%" y1="-52.9685231%" x2="2368.40487%" y2="83.5201131%" id="linearGradient-5">
            <stop stop-color="#42FFB1" offset="0%"></stop>
            <stop stop-color="#00D3DC" offset="100%"></stop>
        </linearGradient>
        <linearGradient x1="-439.732543%" y1="-103.592148%" x2="1792.48312%" y2="100%" id="linearGradient-6">
            <stop stop-color="#42FFB1" offset="0%"></stop>
            <stop stop-color="#00D3DC" offset="100%"></stop>
        </linearGradient>
        <linearGradient x1="-438.151487%" y1="-103.592148%" x2="1786.85767%" y2="100%" id="linearGradient-7">
            <stop stop-color="#42FFB1" offset="0%"></stop>
            <stop stop-color="#00D3DC" offset="100%"></stop>
        </linearGradient>
    </defs>
    <g id="Page-1" stroke="none" stroke-width="1" fill="none" fill-rule="evenodd">
        <g id="Artboard" transform="translate(-5416.000000, -2333.000000)" fill-rule="nonzero">
            <g id="Group-4" transform="translate(5415.853243, 2333.000000)">
                <g id="Group" transform="translate(0.146757, 1350.000000)">
                    <path d="M84.1572535,0.658195217 C93.6832532,0.658195217 98.2820116,5.26556174 98.2820116,14.8093924 L98.2820116,435.396136 C98.2820116,444.939967 93.6832532,449.547333 84.1572535,449.547333 L15.1758767,449.547333 C5.32139434,449.547333 0.394153142,444.939967 0.394153142,435.396136 L0.394153142,14.8093924 C0.394153142,5.26556174 5.32139434,0.658195217 15.1758767,0.658195217 L84.1572535,0.658195217 Z" id="Shape" fill="url(#linearGradient-1)"></path>
                    <path d="M508.885445,97.4128921 C537.463444,97.4128921 561.442684,99.7165754 581.151649,104.653039 C600.860614,109.589504 616.299303,117.158749 628.124682,127.689872 C639.950061,138.220996 648.16213,151.713998 653.417853,168.168878 C658.673577,184.623758 660.972957,204.369615 660.972957,227.406447 L660.972957,319.553778 C660.972957,342.59061 658.345095,362.336467 653.417853,378.791347 C648.16213,395.246228 639.950061,408.73923 628.124682,419.270353 C616.299303,429.801477 600.532131,437.370722 581.151649,441.978088 C561.442684,446.585455 537.463444,448.889138 508.885445,448.889138 L327.891452,448.889138 C298.98497,448.889138 274.677247,446.585455 255.296765,441.978088 C235.916282,437.370722 220.149111,429.801477 208.652215,419.270353 C196.826836,408.73923 188.614767,395.246228 183.359043,378.791347 C178.431802,362.336467 175.80394,342.59061 175.80394,319.553778 L175.80394,227.406447 C175.80394,204.369615 178.431802,184.623758 183.359043,168.168878 C188.614767,151.713998 196.826836,138.220996 208.652215,127.689872 C220.477593,117.158749 235.916282,109.589504 255.296765,104.653039 C274.677247,99.7165754 298.98497,97.4128921 327.891452,97.4128921 L508.885445,97.4128921 Z M267.122143,303.757093 C267.122143,317.579192 268.107592,328.768511 270.406971,337.654146 C272.70635,346.539782 276.31966,353.779929 281.575384,359.045491 C286.831108,364.311053 294.057729,368.260224 302.926763,370.563907 C311.795797,372.86759 323.292693,374.183981 336.760486,374.183981 L500.016411,374.183981 C514.141169,374.183981 525.638065,373.196688 534.507099,370.563907 C543.376133,368.260224 550.602754,364.311053 555.858478,359.045491 C561.114202,353.779929 565.055995,346.539782 567.026891,337.654146 C569.32627,328.768511 570.311719,317.250095 570.311719,303.757093 L570.311719,242.874035 C570.311719,229.710131 569.32627,218.520812 567.026891,209.635177 C564.727512,200.749541 561.114202,193.509394 555.858478,187.914734 C550.602754,182.320075 543.376133,178.370904 534.507099,176.396318 C525.638065,174.421732 514.141169,173.105342 500.016411,173.105342 L336.760486,173.105342 C322.96421,173.105342 311.795797,174.092635 302.926763,176.396318 C294.057729,178.700001 286.831108,182.320075 281.575384,187.914734 C276.31966,193.509394 272.377867,200.749541 270.406971,209.635177 C268.107592,218.520812 267.122143,229.710131 267.122143,242.874035 L267.122143,303.757093 Z" id="Shape" fill="url(#linearGradient-2)"></path>
                    <path d="M1225.6348,0.658195217 C1235.48928,0.658195217 1240.41652,5.26556174 1240.41652,14.8093924 L1240.41652,77.6670356 C1240.41652,87.5399639 1235.48928,92.476428 1225.6348,92.476428 L1024.60336,92.476428 L1024.60336,435.396136 C1024.60336,444.939967 1020.0046,449.547333 1010.4786,449.547333 L940.840257,449.547333 C931.314257,449.547333 926.715499,444.939967 926.715499,435.396136 L926.715499,92.1473304 L725.684058,92.1473304 C715.829575,92.1473304 710.902334,87.2108662 710.902334,77.337938 L710.902334,14.4802948 C710.902334,4.93646413 715.829575,0.329097608 725.684058,0.329097608 L1225.6348,0.329097608 L1225.6348,0.658195217 Z" id="Shape" fill="url(#linearGradient-3)"></path>
                    <path d="M1608.3172,97.4128921 C1629.99706,97.4128921 1648.06361,99.0583802 1662.51685,102.678454 C1676.97009,106.298528 1688.13851,112.222284 1696.35057,120.778822 C1704.56264,129.006263 1710.47533,139.866484 1714.08864,153.359486 C1717.37347,166.852487 1719.34437,183.307368 1719.34437,202.395029 L1719.34437,263.278087 C1719.34437,277.100186 1716.38802,286.314919 1710.47533,291.909579 C1704.56264,297.17514 1695.36513,299.807921 1682.88278,299.807921 L1359.65576,299.807921 L1359.65576,315.275509 C1359.65576,335.350463 1364.583,349.830758 1374.109,358.716393 C1383.635,367.602029 1402.35852,372.209395 1429.95107,372.209395 L1696.67906,372.209395 C1704.23416,372.209395 1708.17595,376.158566 1708.17595,383.727811 L1708.17595,437.699819 C1708.17595,445.269064 1704.23416,449.218236 1696.67906,449.218236 L1420.75355,449.218236 C1391.84707,449.218236 1367.53934,446.914552 1348.15886,442.307186 C1328.77838,437.699819 1313.33969,430.130574 1301.51431,419.599451 C1289.68893,409.068327 1281.47687,395.575325 1276.22114,379.120445 C1270.96542,362.665565 1268.66604,342.919708 1268.66604,319.882875 L1268.66604,227.735545 C1268.66604,204.698712 1271.2939,184.952856 1276.22114,168.497976 C1281.47687,152.043095 1289.68893,138.550093 1301.51431,128.01897 C1313.33969,117.487846 1328.77838,109.918601 1348.15886,104.982137 C1367.53934,100.045673 1391.84707,97.7419897 1420.75355,97.7419897 L1608.3172,97.7419897 L1608.3172,97.4128921 Z M1359.32728,242.874035 L1618.50016,242.874035 C1625.72678,242.874035 1629.34009,239.253961 1629.34009,232.013814 L1629.34009,205.02781 C1629.34009,191.863906 1626.71223,182.320075 1621.12803,176.725416 C1615.54382,171.130756 1605.36085,168.497976 1590.57913,168.497976 L1429.95107,168.497976 C1402.35852,168.497976 1383.635,172.776244 1374.109,181.66188 C1364.583,190.547515 1359.65576,205.02781 1359.65576,225.431862 L1359.65576,242.874035 L1359.32728,242.874035 Z" id="Shape" fill="url(#linearGradient-4)"></path>
                    <path d="M2287.61952,0.658195217 C2293.53221,0.658195217 2296.81703,2.63278087 2297.474,6.91104978 C2298.13097,10.8602211 2296.81703,14.4802948 2293.86069,17.4421732 L2097.42801,216.875324 L2302.72972,432.763355 C2305.68607,435.725234 2307,439.345307 2306.34303,443.294479 C2305.68607,447.24365 2302.40124,449.547333 2296.48855,449.547333 L2208.78366,449.547333 C2203.52793,449.547333 2199.58614,448.889138 2196.6298,447.572748 C2193.67345,446.256357 2190.71711,443.952674 2188.41773,440.661698 L2030.41753,274.796503 L1871.76036,440.661698 C1868.80402,443.952674 1865.84767,446.585455 1863.21981,447.572748 C1860.59195,448.889138 1856.32167,449.547333 1850.73746,449.547333 L1767.63133,449.547333 C1762.04712,449.547333 1759.09078,447.572748 1758.43381,443.294479 C1757.77685,439.345307 1759.09078,435.725234 1762.04712,432.763355 L1972.60456,213.584348 L1782.74154,17.4421732 C1780.11367,14.4802948 1779.12823,10.8602211 1779.45671,6.91104978 C1779.78519,2.96187848 1783.07002,0.658195217 1788.98271,0.658195217 L1876.6876,0.658195217 C1881.94333,0.658195217 1885.88512,1.31639043 1888.84146,2.96187848 C1891.79781,4.27826891 1894.75415,6.58195217 1897.05353,9.54383065 L2036.6587,158.29595 L2184.47594,9.54383065 C2187.1038,6.58195217 2189.73166,4.27826891 2192.688,2.96187848 C2195.64435,1.31639043 2199.58614,0.658195217 2204.84187,0.658195217 L2287.61952,0.658195217 Z" id="Shape" fill="url(#linearGradient-5)"></path>
                </g>
                <g id="Group" transform="translate(540.146757, 0.000000)">
                    <polygon id="Shape" fill="url(#linearGradient-6)" points="623.718319 0.658163444 623.718319 235.293431 827.133303 118.140338"></polygon>
                    <polygon id="Shape" fill="url(#linearGradient-6)" opacity="0.9" points="827.133303 118.140338 827.133303 352.775606 1030.54829 235.293431"></polygon>
                    <polygon id="Shape" fill="url(#linearGradient-6)" opacity="0.8" points="623.718319 235.293431 623.718319 469.928699 827.133303 352.775606"></polygon>
                    <polygon id="Shape" fill="url(#linearGradient-6)" opacity="0.8" points="827.133303 352.775606 827.133303 587.410874 1030.54829 469.928699"></polygon>
                    <polygon id="Shape" fill="url(#linearGradient-6)" opacity="0.8" points="623.718319 469.928699 623.718319 704.563967 827.133303 587.410874"></polygon>
                    <polygon id="Shape" fill="url(#linearGradient-6)" points="827.133303 587.410874 827.133303 822.046142 1030.54829 704.563967"></polygon>
                    <polygon id="Shape" fill="url(#linearGradient-6)" opacity="0.4" points="97.9283767 227.39547 97.9283767 462.030738 301.343361 344.548563"></polygon>
                    <polygon id="Shape" fill="url(#linearGradient-7)" opacity="0.2" points="354.579592 314.602126 354.579592 549.237394 557.665957 432.084301"></polygon>
                    <polygon id="Shape" fill="url(#linearGradient-6)" opacity="0.3" points="203.743603 463.017983 203.743603 697.653251 407.158586 580.171076"></polygon>
                    <polygon id="Shape" fill="url(#linearGradient-7)" opacity="0.9" points="337.820038 640.063949 337.820038 874.699217 540.906403 757.217042"></polygon>
                    <polygon id="Shape" fill="url(#linearGradient-7)" opacity="0.7" points="622.075225 741.092038 622.075225 975.727306 825.16159 858.245131"></polygon>
                    <polygon id="Shape" fill="url(#linearGradient-7)" opacity="0.9" points="388.42732 198.76536 388.42732 433.400628 591.513685 316.247535"></polygon>
                    <polygon id="Shape" fill="url(#linearGradient-6)" opacity="0.8" points="623.718319 0.658163444 623.718319 235.293431 420.303335 118.140338"></polygon>
                    <polygon id="Shape" fill="url(#linearGradient-6)" opacity="0.6" points="388.42732 100.369925 388.42732 335.005193 185.012336 217.523018"></polygon>
                    <polygon id="Shape" fill="url(#linearGradient-6)" opacity="0.6" points="591.842304 216.535773 591.842304 451.171041 388.42732 333.688866"></polygon>
                    <polygon id="Shape" fill="url(#linearGradient-6)" opacity="0.95" points="353.593736 314.602126 353.593736 549.237394 150.178752 432.084301"></polygon>
                    <polygon id="Shape" fill="url(#linearGradient-7)" opacity="0.6" points="623.718319 469.928699 623.718319 704.563967 420.631954 587.410874"></polygon>
                    <polygon id="Shape" fill="url(#linearGradient-6)" opacity="0.55" points="203.743603 524.556265 203.743603 759.191533 0.328618714 641.709358"></polygon>
                    <polygon id="Shape" fill="url(#linearGradient-6)" points="1030.54829 235.293431 1030.54829 469.928699 827.133303 352.775606"></polygon>
                    <polygon id="Shape" fill="url(#linearGradient-6)" opacity="0.95" points="827.133303 352.775606 827.133303 587.410874 623.718319 469.928699"></polygon>
                    <polygon id="Shape" fill="url(#linearGradient-6)" opacity="0.9" points="1030.54829 469.928699 1030.54829 704.563967 827.133303 587.410874"></polygon>
                    <polygon id="Shape" fill="url(#linearGradient-6)" opacity="0.7" points="827.133303 587.410874 827.133303 822.046142 623.718319 704.563967"></polygon>
                    <polygon id="Shape" fill="url(#linearGradient-6)" opacity="0.4" points="578.697555 685.148145 578.697555 919.783413 375.282571 802.63032"></polygon>
                    <polygon id="Shape" fill="url(#linearGradient-6)" points="827.133303 118.140338 827.133303 352.775606 623.718319 235.293431"></polygon>
                </g>
            </g>
        </g>
    </g>
</svg>