<svg width="36" height="36" viewBox="0 0 36 36" fill="none" xmlns="http://www.w3.org/2000/svg">
<rect width="36" height="36" fill="#F2943E"/>
<path d="M18 13.625C19.8565 13.625 21.637 14.3625 22.9497 15.6753C24.2625 16.988 25 18.7685 25 20.625C25 22.4815 24.2625 24.262 22.9497 25.5748C21.637 26.8875 19.8565 27.625 18 27.625C16.1435 27.625 14.363 26.8875 13.0503 25.5748C11.7375 24.262 11 22.4815 11 20.625C11 18.7685 11.7375 16.988 13.0503 15.6753C14.363 14.3625 16.1435 13.625 18 13.625ZM18 16.6875L16.8424 19.0325L14.255 19.4088L16.1275 21.2331L15.6856 23.8109L18 22.5938L20.3144 23.81L19.8725 21.2331L21.745 19.4079L19.1576 19.0316L18 16.6875ZM18.875 9.24915L23.25 9.25002V11.875L22.0574 12.8708C21.0677 12.3515 19.9872 12.028 18.875 11.9179V9.25002V9.24915ZM17.125 9.24915V11.9179C16.0132 12.0278 14.933 12.3511 13.9435 12.8699L12.75 11.875V9.25002L17.125 9.24915Z" fill="white"/>
</svg>
