<svg width="38" height="35" viewBox="0 0 38 35" fill="none" xmlns="http://www.w3.org/2000/svg">
<path d="M35.2072 1L21.1602 11.4329L23.7578 5.27764L35.2072 1Z" fill="#E2761B" stroke="#E2761B" stroke-width="0.155354" stroke-linecap="round" stroke-linejoin="round"/>
<path d="M2.77832 1L16.7124 11.5317L14.2418 5.27764L2.77832 1Z" fill="#E4761B" stroke="#E4761B" stroke-width="0.155354" stroke-linecap="round" stroke-linejoin="round"/>
<path d="M30.1533 25.1834L26.4121 30.9152L34.4168 33.1175L36.718 25.3105L30.1533 25.1834Z" fill="#E4761B" stroke="#E4761B" stroke-width="0.155354" stroke-linecap="round" stroke-linejoin="round"/>
<path d="M1.29688 25.3105L3.58393 33.1175L11.5886 30.9152L7.84745 25.1834L1.29688 25.3105Z" fill="#E4761B" stroke="#E4761B" stroke-width="0.155354" stroke-linecap="round" stroke-linejoin="round"/>
<path d="M11.1368 15.4988L8.90625 18.8729L16.8545 19.2259L16.5721 10.6847L11.1368 15.4988Z" fill="#E4761B" stroke="#E4761B" stroke-width="0.155354" stroke-linecap="round" stroke-linejoin="round"/>
<path d="M26.8496 15.4988L21.3437 10.5859L21.1602 19.2259L29.0943 18.8729L26.8496 15.4988Z" fill="#E4761B" stroke="#E4761B" stroke-width="0.155354" stroke-linecap="round" stroke-linejoin="round"/>
<path d="M11.5889 30.9152L16.3606 28.5858L12.2383 25.3669L11.5889 30.9152Z" fill="#E4761B" stroke="#E4761B" stroke-width="0.155354" stroke-linecap="round" stroke-linejoin="round"/>
<path d="M21.627 28.5858L26.4128 30.9152L25.7493 25.3669L21.627 28.5858Z" fill="#E4761B" stroke="#E4761B" stroke-width="0.155354" stroke-linecap="round" stroke-linejoin="round"/>
<path d="M26.4118 30.9152L21.626 28.5858L22.0072 31.7058L21.9648 33.0187L26.4118 30.9152Z" fill="#D7C1B3" stroke="#D7C1B3" stroke-width="0.155354" stroke-linecap="round" stroke-linejoin="round"/>
<path d="M11.5898 30.9152L16.0369 33.0187L16.0087 31.7058L16.3616 28.5858L11.5898 30.9152Z" fill="#D7C1B3" stroke="#D7C1B3" stroke-width="0.155354" stroke-linecap="round" stroke-linejoin="round"/>
<path d="M16.1052 23.3059L12.124 22.1341L14.9334 20.8494L16.1052 23.3059Z" fill="#233447" stroke="#233447" stroke-width="0.155354" stroke-linecap="round" stroke-linejoin="round"/>
<path d="M21.8799 23.3059L23.0516 20.8494L25.8752 22.1341L21.8799 23.3059Z" fill="#233447" stroke="#233447" stroke-width="0.155354" stroke-linecap="round" stroke-linejoin="round"/>
<path d="M11.5878 30.9152L12.2655 25.1834L7.84668 25.3105L11.5878 30.9152Z" fill="#CD6116" stroke="#CD6116" stroke-width="0.155354" stroke-linecap="round" stroke-linejoin="round"/>
<path d="M25.7334 25.1834L26.411 30.9152L30.1522 25.3105L25.7334 25.1834Z" fill="#CD6116" stroke="#CD6116" stroke-width="0.155354" stroke-linecap="round" stroke-linejoin="round"/>
<path d="M29.0933 18.8729L21.1592 19.2258L21.8933 23.3058L23.0651 20.8494L25.8886 22.1341L29.0933 18.8729Z" fill="#CD6116" stroke="#CD6116" stroke-width="0.155354" stroke-linecap="round" stroke-linejoin="round"/>
<path d="M12.1251 22.1341L14.9486 20.8494L16.1062 23.3058L16.8545 19.2258L8.90625 18.8729L12.1251 22.1341Z" fill="#CD6116" stroke="#CD6116" stroke-width="0.155354" stroke-linecap="round" stroke-linejoin="round"/>
<path d="M8.90723 18.8729L12.239 25.367L12.126 22.1341L8.90723 18.8729Z" fill="#E4751F" stroke="#E4751F" stroke-width="0.155354" stroke-linecap="round" stroke-linejoin="round"/>
<path d="M25.8912 22.1341L25.75 25.367L29.0959 18.8729L25.8912 22.1341Z" fill="#E4751F" stroke="#E4751F" stroke-width="0.155354" stroke-linecap="round" stroke-linejoin="round"/>
<path d="M16.8557 19.2258L16.1074 23.3058L17.0392 28.1199L17.2509 21.7811L16.8557 19.2258Z" fill="#E4751F" stroke="#E4751F" stroke-width="0.155354" stroke-linecap="round" stroke-linejoin="round"/>
<path d="M21.1615 19.2258L20.7803 21.767L20.9497 28.1199L21.8956 23.3058L21.1615 19.2258Z" fill="#E4751F" stroke="#E4751F" stroke-width="0.155354" stroke-linecap="round" stroke-linejoin="round"/>
<path d="M21.8931 23.3058L20.9473 28.1199L21.6249 28.5858L25.7473 25.367L25.8884 22.134L21.8931 23.3058Z" fill="#F6851B" stroke="#F6851B" stroke-width="0.155354" stroke-linecap="round" stroke-linejoin="round"/>
<path d="M12.124 22.134L12.237 25.367L16.3593 28.5858L17.037 28.1199L16.1052 23.3058L12.124 22.134Z" fill="#F6851B" stroke="#F6851B" stroke-width="0.155354" stroke-linecap="round" stroke-linejoin="round"/>
<path d="M21.9643 33.0187L22.0067 31.7058L21.6537 31.3952H16.3314L16.0067 31.7058L16.0349 33.0187L11.5879 30.9152L13.1408 32.1858L16.2891 34.374H21.6961L24.8584 32.1858L26.4114 30.9152L21.9643 33.0187Z" fill="#C0AD9E" stroke="#C0AD9E" stroke-width="0.155354" stroke-linecap="round" stroke-linejoin="round"/>
<path d="M21.6256 28.5858L20.948 28.1199H17.0374L16.3598 28.5858L16.0068 31.7058L16.3315 31.3952H21.6539L22.0068 31.7058L21.6256 28.5858Z" fill="#161616" stroke="#161616" stroke-width="0.155354" stroke-linecap="round" stroke-linejoin="round"/>
<path d="M35.8001 12.1106L37.0001 6.35064L35.2071 1.00006L21.626 11.08L26.8495 15.4988L34.233 17.6588L35.8706 15.753L35.1648 15.2447L36.2942 14.2141L35.4189 13.5365L36.5483 12.6753L35.8001 12.1106Z" fill="#763D16" stroke="#763D16" stroke-width="0.155354" stroke-linecap="round" stroke-linejoin="round"/>
<path d="M1 6.35067L2.2 12.1107L1.43765 12.6754L2.56706 13.5365L1.70588 14.2142L2.83529 15.2448L2.12941 15.753L3.75293 17.6589L11.1364 15.4989L16.36 11.0801L2.77882 1.00009L1 6.35067Z" fill="#763D16" stroke="#763D16" stroke-width="0.155354" stroke-linecap="round" stroke-linejoin="round"/>
<path d="M34.2318 17.6587L26.8482 15.4987L29.0929 18.8728L25.7471 25.3669L30.1518 25.3104H36.7165L34.2318 17.6587Z" fill="#F6851B" stroke="#F6851B" stroke-width="0.155354" stroke-linecap="round" stroke-linejoin="round"/>
<path d="M11.1359 15.4987L3.75236 17.6587L1.2959 25.3104H7.84647L12.237 25.3669L8.90529 18.8728L11.1359 15.4987Z" fill="#F6851B" stroke="#F6851B" stroke-width="0.155354" stroke-linecap="round" stroke-linejoin="round"/>
<path d="M21.1598 19.2258L21.6257 11.08L23.7716 5.27762H14.2422L16.3598 11.08L16.8539 19.2258L17.0234 21.7952L17.0375 28.1199H20.9481L20.9763 21.7952L21.1598 19.2258Z" fill="#F6851B" stroke="#F6851B" stroke-width="0.155354" stroke-linecap="round" stroke-linejoin="round"/>
</svg>
