<svg width="36" height="36" viewBox="0 0 36 36" fill="none" xmlns="http://www.w3.org/2000/svg">
<rect width="36" height="36" fill="#EF6436"/>
<path d="M10.125 10.125H25.875C26.1071 10.125 26.3296 10.2172 26.4937 10.3813C26.6578 10.5454 26.75 10.7679 26.75 11V25C26.75 25.2321 26.6578 25.4546 26.4937 25.6187C26.3296 25.7828 26.1071 25.875 25.875 25.875H10.125C9.89294 25.875 9.67038 25.7828 9.50628 25.6187C9.34219 25.4546 9.25 25.2321 9.25 25V11C9.25 10.7679 9.34219 10.5454 9.50628 10.3813C9.67038 10.2172 9.89294 10.125 10.125 10.125ZM14.9375 19.75V21.5H17.125V23.25H18.875V21.5H19.75C20.3302 21.5 20.8866 21.2695 21.2968 20.8593C21.707 20.4491 21.9375 19.8927 21.9375 19.3125C21.9375 18.7323 21.707 18.1759 21.2968 17.7657C20.8866 17.3555 20.3302 17.125 19.75 17.125H16.25C16.134 17.125 16.0227 17.0789 15.9406 16.9969C15.8586 16.9148 15.8125 16.8035 15.8125 16.6875C15.8125 16.5715 15.8586 16.4602 15.9406 16.3781C16.0227 16.2961 16.134 16.25 16.25 16.25H21.0625V14.5H18.875V12.75H17.125V14.5H16.25C15.6698 14.5 15.1134 14.7305 14.7032 15.1407C14.293 15.5509 14.0625 16.1073 14.0625 16.6875C14.0625 17.2677 14.293 17.8241 14.7032 18.2343C15.1134 18.6445 15.6698 18.875 16.25 18.875H19.75C19.866 18.875 19.9773 18.9211 20.0594 19.0031C20.1414 19.0852 20.1875 19.1965 20.1875 19.3125C20.1875 19.4285 20.1414 19.5398 20.0594 19.6219C19.9773 19.7039 19.866 19.75 19.75 19.75H14.9375Z" fill="white"/>
</svg>
