<svg width="17" height="16" viewBox="0 0 17 16" fill="none" xmlns="http://www.w3.org/2000/svg">
<g clip-path="url(#clip0_219_16251)">
<path d="M6.26 13.245L5.475 12.865C5.39 12.825 5.315 12.8392 5.25 12.9075L4.395 13.825C4.34667 13.8767 4.295 13.8792 4.24 13.8325L3.83 13.49C3.80549 13.4691 3.78981 13.4397 3.7861 13.4077C3.78239 13.3757 3.79093 13.3435 3.81 13.3175L4.4975 12.395C4.55417 12.32 4.54834 12.25 4.48 12.185L3.9225 11.66C3.88858 11.6285 3.84599 11.6081 3.80043 11.6014C3.75486 11.5947 3.70849 11.6021 3.6675 11.6225L2.6175 12.1425C2.54917 12.1775 2.49417 12.1617 2.4525 12.095L2.1925 11.685C2.1717 11.6518 2.16477 11.6117 2.17318 11.5734C2.18159 11.535 2.20468 11.5015 2.2375 11.48L3.0425 10.9475C3.14084 10.8825 3.15417 10.8034 3.0825 10.71L2.64 10.1425C2.56667 10.0492 2.47167 10.0092 2.355 10.0225L1.6775 10.0975C1.55917 10.1109 1.49084 10.0592 1.4725 9.94254L1.4 9.51504C1.385 9.42338 1.4225 9.36671 1.5125 9.34504L1.8625 9.26004C1.9675 9.23504 1.99584 9.17421 1.9475 9.07754L1.525 8.24504C1.48756 8.17165 1.46721 8.0906 1.46548 8.00793C1.46375 7.92526 1.48068 7.84309 1.515 7.76754C2.11834 6.45254 2.97 5.26504 4.07 4.20504C6.615 1.75254 10.81 1.55254 13.485 3.91004C14.7317 5.01004 15.6967 6.30838 16.38 7.80504C16.4089 7.86817 16.4232 7.9369 16.4219 8.00615C16.4206 8.07539 16.4037 8.14337 16.3725 8.20504L15.9375 9.07504C15.8925 9.16338 15.9183 9.21838 16.015 9.24004L16.37 9.32004C16.465 9.34004 16.5033 9.39754 16.485 9.49254L16.4 9.92754C16.3909 9.97238 16.3653 10.0122 16.3283 10.039C16.2912 10.0659 16.2454 10.0778 16.2 10.0725L15.5025 9.99254C15.4092 9.98088 15.335 10.0125 15.28 10.0875L14.805 10.715C14.735 10.805 14.7475 10.8817 14.8425 10.945L15.645 11.47C15.7283 11.5267 15.7433 11.5975 15.69 11.6825L15.4275 12.0975C15.3875 12.1609 15.3333 12.1759 15.265 12.1425L14.1975 11.6125C14.1125 11.5692 14.0358 11.58 13.9675 11.645L13.4125 12.1775C13.385 12.2037 13.3681 12.2389 13.3648 12.2767C13.3616 12.3145 13.3723 12.3521 13.395 12.3825L14.085 13.3125C14.12 13.3592 14.115 13.4017 14.07 13.44L13.66 13.785C13.5967 13.8384 13.5358 13.835 13.4775 13.775L12.65 12.905C12.5817 12.8334 12.5042 12.8192 12.4175 12.8625L11.62 13.245C11.5333 13.2867 11.5033 13.3542 11.53 13.4475L11.89 14.635C11.8984 14.6629 11.8962 14.693 11.8837 14.7193C11.8712 14.7456 11.8494 14.7664 11.8225 14.7775L11.3525 14.96C11.2608 14.9967 11.1958 14.97 11.1575 14.88L10.6625 13.735C10.6175 13.6317 10.5392 13.5875 10.4275 13.6025L9.6125 13.715C9.47417 13.735 9.40084 13.815 9.3925 13.955L9.325 15.1225C9.32309 15.157 9.30802 15.1895 9.28291 15.2132C9.25779 15.2369 9.22455 15.2501 9.19 15.25L8.6875 15.2475C8.6025 15.2475 8.55834 15.2059 8.555 15.1225L8.4825 13.89C8.4775 13.7917 8.42584 13.7359 8.3275 13.7225L7.4425 13.605C7.33584 13.5917 7.26167 13.6342 7.22 13.7325L6.715 14.8975C6.68334 14.9725 6.62834 14.9959 6.55 14.9675L6.105 14.7975C6.00667 14.7592 5.9725 14.69 6.0025 14.59L6.35 13.4475C6.37834 13.3542 6.34834 13.2867 6.26 13.245Z" fill="black"/>
</g>
<defs>
<clipPath id="clip0_219_16251">
<rect width="16" height="16" fill="white" transform="translate(0.940002)"/>
</clipPath>
</defs>
</svg>
