<svg version="1.1" id="Layer_1" xmlns="http://www.w3.org/2000/svg" xmlns:xlink="http://www.w3.org/1999/xlink" x="0px" y="0px"
	 width="100%" viewBox="0 0 287 287" enable-background="new 0 0 287 287" xml:space="preserve">
<path fill="#F1F4F9" opacity="1.000000" stroke="none" 
	d="
M195.000000,288.000000 
	C130.028107,288.000000 65.556198,288.000000 1.042149,288.000000 
	C1.042149,192.403122 1.042149,96.806229 1.042149,1.104665 
	C96.555115,1.104665 192.110382,1.104665 287.832825,1.104665 
	C287.832825,96.666428 287.832825,192.333191 287.832825,288.000000 
	C257.139740,288.000000 226.319870,288.000000 195.000000,288.000000 
M229.807678,105.542351 
	C229.611618,105.256218 229.344223,105.075760 228.496048,104.793282 
	C228.029572,104.504967 227.563080,104.216652 227.017197,103.341362 
	C226.949951,102.952255 226.882721,102.563141 226.867203,101.583916 
	C226.256577,101.337318 225.645966,101.090714 224.515091,100.482391 
	C223.088058,99.265274 221.661026,98.048157 220.060089,96.217056 
	C219.126419,95.454475 218.192764,94.691895 217.130463,93.325951 
	C217.046509,92.924759 216.962555,92.523560 216.863464,91.419296 
	C215.865829,90.656487 214.868195,89.893677 213.272720,88.995201 
	C212.871384,88.913071 212.470047,88.830940 211.969940,88.187286 
	C211.398849,87.755142 210.827774,87.323006 210.163483,86.412018 
	C210.163483,86.412018 210.067337,85.933762 210.019836,85.217102 
	C208.635635,83.858131 207.251419,82.499168 205.272400,80.969170 
	C204.550430,80.568649 203.828445,80.168137 202.990829,79.204971 
	C202.412415,78.779167 201.833984,78.353363 201.128799,77.325142 
	C201.045166,76.924706 200.961533,76.524261 200.863235,75.419373 
	C199.229645,74.290466 197.596039,73.161560 195.459641,71.754471 
	C194.965149,71.179131 194.470657,70.603783 193.903534,69.380165 
	C193.256195,68.928162 192.608841,68.476158 191.389816,67.679581 
	C189.279587,65.765259 187.169373,63.850933 184.999390,61.998436 
	C184.999390,61.998436 185.062088,61.940971 184.803970,61.372402 
	C183.884247,60.530304 182.964539,59.688206 182.055618,58.415005 
	C182.055618,58.415005 182.032013,57.984417 182.473389,57.544613 
	C180.693787,54.616856 179.271454,55.568665 178.015671,58.067596 
	C178.015671,58.067596 178.037338,58.180061 177.099503,58.092339 
	C155.720123,58.130192 134.340729,58.168045 112.977158,58.087013 
	C112.977158,58.087013 113.011818,57.976845 112.896049,57.322872 
	C111.928917,57.539658 110.961792,57.756443 109.404640,58.051769 
	C108.923859,58.361576 108.443077,58.671383 107.293495,59.059704 
	C106.504028,60.026333 105.714561,60.992966 104.380432,62.241455 
	C103.561394,63.147232 102.742348,64.053009 101.505196,65.173630 
	C101.244553,65.366760 101.062416,65.617020 100.356102,66.224380 
	C98.583366,67.494446 96.810631,68.764503 94.348549,70.084236 
	C93.580925,71.071846 92.813309,72.059456 91.756905,73.590202 
	C90.853790,74.408966 89.950676,75.227722 88.356949,76.088860 
	C87.582703,77.071770 86.808464,78.054680 85.799698,79.538116 
	C85.523163,80.015717 85.246635,80.493309 84.184929,80.989433 
	C81.088654,80.681839 80.861557,82.690544 80.472343,85.209198 
	C79.994186,85.484215 79.516022,85.759224 78.348534,86.084190 
	C77.580917,87.071815 76.813301,88.059433 75.756920,89.590202 
	C74.853798,90.408958 73.950676,91.227722 72.356941,92.088852 
	C71.582687,93.071754 70.808434,94.054657 69.799637,95.538132 
	C69.522865,96.015656 69.246101,96.493179 68.196724,96.988113 
	C67.144798,98.006226 66.092873,99.024338 64.934029,100.703506 
	C63.967335,101.479080 63.000637,102.254654 61.385738,103.099716 
	C60.934875,103.745255 60.484013,104.390800 60.001759,105.770866 
	C59.986652,106.505264 59.971546,107.239662 59.956490,107.955597 
	C59.956490,107.955597 59.934845,107.955704 59.207466,108.122765 
	C58.826694,109.761604 58.445927,111.400444 58.051884,113.971504 
	C58.088585,134.646133 58.125286,155.320770 58.097084,176.497269 
	C58.112823,176.665237 58.128563,176.833191 58.076969,177.763199 
	C58.733936,179.847900 59.390907,181.932587 60.269920,184.643326 
	C62.185970,186.679825 64.102020,188.716339 66.511406,191.054993 
	C67.014175,191.331268 67.516937,191.607529 68.047874,192.387970 
	C68.074554,192.553421 68.101242,192.718857 68.135216,193.583786 
	C70.128334,195.351685 72.121445,197.119598 74.522392,199.138702 
	C74.777412,199.341232 74.974518,199.589691 75.111969,200.594574 
	C77.109329,202.362793 79.106697,204.131027 81.625725,206.217407 
	C82.451714,207.109467 83.277702,208.001511 84.110947,209.600784 
	C86.112114,211.363037 88.113289,213.125290 90.522308,215.138748 
	C90.777351,215.341263 90.974449,215.589737 91.111816,216.594681 
	C93.109413,218.362732 95.107010,220.130783 97.678658,222.263184 
	C99.414276,223.212311 101.149887,224.161438 102.962830,225.011337 
	C102.962830,225.011337 102.894485,225.108307 102.924606,225.735107 
	C103.569176,226.512192 104.213745,227.289276 104.958351,228.706116 
	C105.648987,229.781250 106.339630,230.856384 107.157196,232.673538 
	C109.307121,234.489761 111.350677,235.285202 113.722427,231.976273 
	C114.472916,231.931381 115.223396,231.886490 116.654335,231.955399 
	C117.110970,231.916229 117.567612,231.877060 118.935272,231.890717 
	C122.285744,231.877319 125.636208,231.863922 129.918839,231.972580 
	C147.594269,231.975937 165.269684,231.979294 183.613541,231.904816 
	C184.059845,231.229416 184.506165,230.554016 185.271515,229.293716 
	C186.541458,227.544540 187.811401,225.795364 189.016907,223.998734 
	C189.016907,223.998734 189.049683,224.071716 189.618347,223.816620 
	C190.435654,222.893723 191.252960,221.970840 191.999374,221.014893 
	C191.999374,221.014893 192.043640,221.079391 192.711197,221.020798 
	C193.170944,220.364975 193.630692,219.709152 194.013901,219.014587 
	C194.013901,219.014587 194.053970,219.090439 194.705917,218.993774 
	C195.164352,218.344681 195.622803,217.695602 196.008820,217.011642 
	C196.008820,217.011642 196.047623,217.082031 196.729752,217.011322 
	C197.546371,216.037247 198.362976,215.063156 199.573318,213.880173 
	C199.820267,213.693771 199.984818,213.451447 200.721634,213.034180 
	C201.178940,212.375580 201.636230,211.716965 202.013977,211.015411 
	C202.013977,211.015411 202.058960,211.093842 202.711960,211.000290 
	C203.170166,210.351074 203.628357,209.701843 204.030975,209.002914 
	C204.030975,209.002914 204.034027,209.077423 204.525909,208.893311 
	C204.705795,208.602982 204.885666,208.312637 204.999939,208.012497 
	C204.999939,208.012497 205.041855,208.063934 205.610992,207.809280 
	C206.430969,206.889343 207.250946,205.969406 207.998947,205.015625 
	C207.998947,205.015625 208.045135,205.080414 208.712540,205.022034 
	C209.172470,204.366730 209.632416,203.711426 210.014191,203.015030 
	C210.014191,203.015030 210.056824,203.092377 210.708496,202.994705 
	C211.165024,202.344421 211.621552,201.694138 212.022919,201.001282 
	C212.022919,201.001282 212.025650,201.070892 212.522614,200.885513 
	C212.745560,200.615494 212.968491,200.345490 213.702148,199.870895 
	C214.187775,199.330490 214.673401,198.790070 215.730301,197.915207 
	C216.519577,196.965027 217.308853,196.014847 218.015945,195.015671 
	C218.015945,195.015671 218.063843,195.098526 218.716415,195.003815 
	C219.175430,194.355042 219.634445,193.706253 220.026031,192.996841 
	C220.026031,192.996841 220.061340,193.080338 220.672791,192.800247 
	C224.305161,189.196060 227.937531,185.591873 231.828735,181.497925 
	C231.898453,181.326935 231.968155,181.155960 232.469666,180.689941 
	C232.317261,180.128754 232.164856,179.567581 231.929169,178.344788 
	C231.895782,177.901520 231.862396,177.458267 231.975510,176.085709 
	C231.933899,155.038528 231.892303,133.991348 231.900253,112.252678 
	C231.834473,111.795776 231.768692,111.338875 231.857269,110.306137 
	C231.847351,109.908401 231.837433,109.510674 231.924744,108.564598 
	C231.897491,108.380981 231.870224,108.197357 231.686676,107.578163 
	C231.506973,107.313934 231.267792,107.124947 230.756424,106.579704 
	C230.566376,106.306656 230.314362,106.115166 229.999390,106.000397 
	C229.999390,106.000397 229.995361,105.998726 229.807678,105.542351 
z"/>
<path fill="#A1DDFE" opacity="1.000000" stroke="none" 
	d="
M112.961342,58.205902 
	C134.340729,58.168045 155.720123,58.130192 177.560181,58.469696 
	C179.009720,59.890083 179.998611,60.933109 180.938950,62.373993 
	C177.969269,74.265518 175.070999,85.765060 172.119049,97.250801 
	C170.122238,105.020279 167.943192,112.744301 166.040741,120.536278 
	C164.059387,128.651459 162.492523,136.869873 160.424591,144.961411 
	C156.380447,160.785690 152.161667,176.566177 147.869568,192.325134 
	C147.408600,194.017670 145.985077,195.448044 144.726517,196.783539 
	C142.266693,189.163788 139.956940,181.796158 137.938065,174.349670 
	C133.974014,159.728668 130.181976,145.061111 126.298065,130.418289 
	C124.569214,123.900269 122.708572,117.416222 121.053848,110.879768 
	C118.768288,101.851410 116.545586,92.805565 114.438721,83.734055 
	C112.839836,76.849739 111.463745,69.913673 110.292740,62.848770 
	C111.385094,61.199898 112.173218,59.702900 112.961342,58.205902 
z"/>
<path fill="#B7E7FE" opacity="1.000000" stroke="none" 
	d="
M109.988518,63.000641 
	C111.463745,69.913673 112.839836,76.849739 114.438721,83.734055 
	C116.545586,92.805565 118.768288,101.851410 121.053848,110.879768 
	C122.708572,117.416222 124.569214,123.900269 126.298065,130.418289 
	C130.181976,145.061111 133.974014,159.728668 137.938065,174.349670 
	C139.956940,181.796158 142.266693,189.163788 144.724640,197.157562 
	C144.994736,198.495987 144.985153,199.243912 144.611938,199.989105 
	C140.531097,196.845322 136.473801,194.024506 133.159409,190.504211 
	C122.505600,179.188538 112.084419,167.652206 101.670715,156.113266 
	C99.131584,153.299759 97.143738,149.987244 94.592598,147.186356 
	C86.686234,138.505981 78.764946,129.830429 70.564598,121.431091 
	C67.437714,118.228325 63.538105,115.779968 59.993248,112.569443 
	C59.975506,110.752617 59.955177,109.354156 59.934845,107.955704 
	C59.934845,107.955704 59.956490,107.955597 60.281975,107.836914 
	C63.579582,105.395576 66.790817,103.319099 69.480927,100.706108 
	C79.223831,91.242577 88.867340,81.672539 98.344559,71.944168 
	C99.771820,70.479080 100.114433,67.957367 100.958778,65.924416 
	C101.062416,65.617020 101.244553,65.366760 102.073578,65.076859 
	C104.195877,64.572578 106.808937,64.965668 104.925095,61.959602 
	C105.714561,60.992966 106.504028,60.026333 107.672272,59.352409 
	C108.696869,60.763622 109.342690,61.882133 109.988518,63.000641 
z"/>
<path fill="#89D4FD" opacity="1.000000" stroke="none" 
	d="
M144.975586,199.991852 
	C144.985153,199.243912 144.994736,198.495987 145.006180,197.374023 
	C145.985077,195.448044 147.408600,194.017670 147.869568,192.325134 
	C152.161667,176.566177 156.380447,160.785690 160.424591,144.961411 
	C162.492523,136.869873 164.059387,128.651459 166.040741,120.536278 
	C167.943192,112.744301 170.122238,105.020279 172.119049,97.250801 
	C175.070999,85.765060 177.969269,74.265518 181.188660,62.371067 
	C181.486923,61.970287 181.985840,61.958336 182.370087,61.972431 
	C183.523575,61.971340 184.292831,61.956158 185.062088,61.940971 
	C185.062088,61.940971 184.999390,61.998436 185.011993,62.339966 
	C185.914841,66.309792 187.957672,68.690613 192.075531,69.269272 
	C192.832184,69.684891 193.404175,69.856667 193.976166,70.028435 
	C194.470657,70.603783 194.965149,71.179131 195.756714,72.226135 
	C197.366531,73.842583 198.679291,74.987358 200.029633,76.428024 
	C200.463333,77.125130 200.859451,77.526344 201.255569,77.927559 
	C201.833984,78.353363 202.412415,78.779167 203.013916,79.895996 
	C202.972046,85.518875 206.110703,86.781700 210.256683,86.890862 
	C210.827774,87.323006 211.398849,87.755142 212.126099,88.753471 
	C212.810852,89.549080 213.339447,89.778503 214.030792,90.264145 
	C214.791794,91.057259 215.390045,91.594162 216.026825,92.427681 
	C216.463242,93.125977 216.861160,93.527649 217.259094,93.929321 
	C218.192764,94.691895 219.126419,95.454475 219.842651,96.772873 
	C218.615112,102.711327 218.768051,102.842209 225.360382,102.007187 
	C226.040604,102.076813 226.428055,102.125420 226.815491,102.174026 
	C226.882721,102.563141 226.949951,102.952255 226.799896,103.832291 
	C227.061813,105.877586 227.541000,107.431953 228.013336,109.361954 
	C228.002533,110.488228 227.998596,111.238869 227.650635,112.033379 
	C220.634750,119.450920 213.962051,126.823830 207.291229,134.198441 
	C197.796249,144.695160 188.333206,155.221008 178.798813,165.681824 
	C171.011902,174.225357 163.197922,182.745895 155.278778,191.166412 
	C152.041855,194.608261 148.496216,197.759781 145.063049,200.780396 
	C145.015244,200.342209 144.995407,200.167023 144.975586,199.991852 
z"/>
<path fill="#ACE2FD" opacity="1.000000" stroke="none" 
	d="
M144.611938,199.989105 
	C144.995407,200.167023 145.015244,200.342209 145.038177,201.108459 
	C145.032974,202.138763 145.024658,202.578033 144.680069,203.015076 
	C143.895935,203.018036 143.448059,203.023224 142.738922,202.747223 
	C136.078400,200.969955 129.676010,199.487305 123.280685,197.974716 
	C112.862396,195.510620 102.472679,192.919861 92.025833,190.584183 
	C83.049034,188.577209 74.009209,186.852142 64.662560,184.853119 
	C62.901203,184.474976 61.474537,184.246140 60.047874,184.017288 
	C59.390907,181.932587 58.733936,179.847900 58.334625,177.362213 
	C58.827663,176.809647 59.063049,176.658066 59.298439,176.506485 
	C58.919621,176.336121 58.540806,176.165756 58.161987,175.995392 
	C58.125286,155.320770 58.088585,134.646133 58.378662,113.496048 
	C59.133842,113.009666 59.562248,112.998741 59.990654,112.987808 
	C63.538105,115.779968 67.437714,118.228325 70.564598,121.431091 
	C78.764946,129.830429 86.686234,138.505981 94.592598,147.186356 
	C97.143738,149.987244 99.131584,153.299759 101.670715,156.113266 
	C112.084419,167.652206 122.505600,179.188538 133.159409,190.504211 
	C136.473801,194.024506 140.531097,196.845322 144.611938,199.989105 
z"/>
<path fill="#74CBFE" opacity="1.000000" stroke="none" 
	d="
M145.016357,203.017303 
	C145.024658,202.578033 145.032974,202.138763 145.066162,201.371429 
	C148.496216,197.759781 152.041855,194.608261 155.278778,191.166412 
	C163.197922,182.745895 171.011902,174.225357 178.798813,165.681824 
	C188.333206,155.221008 197.796249,144.695160 207.291229,134.198441 
	C213.962051,126.823830 220.634750,119.450920 227.982147,112.038872 
	C229.421844,112.317795 230.186020,112.635094 230.958038,113.423965 
	C230.970474,133.180908 230.953156,152.466354 231.016541,171.751541 
	C231.022308,173.506897 231.545898,175.260559 231.829010,177.014999 
	C231.862396,177.458267 231.895782,177.901520 231.925568,179.004822 
	C231.960587,180.104919 231.999222,180.544952 232.037857,180.985001 
	C231.968155,181.155960 231.898453,181.326935 231.380676,181.753708 
	C229.296631,182.672287 227.660675,183.335083 225.629333,184.048920 
	C217.557037,185.777954 209.870895,187.414963 202.205338,189.143372 
	C190.364548,191.813248 178.465195,194.270172 166.735153,197.365051 
	C160.666580,198.966217 154.908875,201.745667 148.646240,203.995178 
	C147.193314,203.670837 146.104828,203.344070 145.016357,203.017303 
z"/>
<path fill="#95D9FC" opacity="1.000000" stroke="none" 
	d="
M64.997253,185.002411 
	C74.009209,186.852142 83.049034,188.577209 92.025833,190.584183 
	C102.472679,192.919861 112.862396,195.510620 123.280685,197.974716 
	C129.676010,199.487305 136.078400,200.969955 142.699219,203.090607 
	C137.655777,208.121506 132.376511,212.510986 127.129936,216.939178 
	C122.399223,220.931992 117.704285,224.967209 112.660286,228.988037 
	C111.882454,228.995575 111.437897,228.998795 110.699501,228.873810 
	C109.598251,228.504669 108.790833,228.263702 107.653076,228.017761 
	C106.882263,228.006897 106.441795,228.001038 105.961601,227.652695 
	C104.912743,226.576248 103.903618,225.842285 102.894485,225.108307 
	C102.894485,225.108307 102.962830,225.011337 102.956993,224.680115 
	C102.442574,220.884644 100.513107,219.040070 96.950073,219.060440 
	C96.963348,219.048111 96.950363,219.048264 96.910889,218.699249 
	C95.905197,217.902298 94.938980,217.454361 93.687820,216.882477 
	C92.639778,216.467072 91.876686,216.175613 91.113594,215.884171 
	C90.974449,215.589737 90.777351,215.341263 90.263245,214.710785 
	C89.667175,213.531403 89.330162,212.779968 88.990593,211.671280 
	C88.309494,210.559708 87.630951,209.805405 86.951279,209.045044 
	C86.950157,209.039001 86.924484,209.064438 86.940521,208.690186 
	C86.372772,204.934097 84.558243,202.965897 80.949081,203.061707 
	C80.962288,203.049225 80.949478,203.048584 80.910324,202.699524 
	C79.905045,201.902512 78.938911,201.454544 77.687836,200.882599 
	C76.639832,200.467117 75.876770,200.175598 75.113708,199.884094 
	C74.974518,199.589691 74.777412,199.341232 74.263313,198.710785 
	C73.667397,197.531464 73.330566,196.780060 72.991318,195.671356 
	C72.310593,194.558609 71.632278,193.803146 70.976067,193.023849 
	C70.998169,193.000000 70.950897,193.047806 70.934128,192.717224 
	C70.382469,191.721924 69.847588,191.057205 69.312698,190.392487 
	C68.881691,190.889587 68.450699,191.386688 68.019699,191.883789 
	C67.516937,191.607529 67.014175,191.331268 66.251282,190.546326 
	C65.659859,188.359238 65.328560,186.680832 64.997253,185.002411 
z"/>
<path fill="#5CC2FC" opacity="1.000000" stroke="none" 
	d="
M149.010712,203.992767 
	C154.908875,201.745667 160.666580,198.966217 166.735153,197.365051 
	C178.465195,194.270172 190.364548,191.813248 202.205338,189.143372 
	C209.870895,187.414963 217.557037,185.777954 225.569870,184.385498 
	C223.957626,187.474121 222.009476,190.277222 220.061340,193.080338 
	C220.061340,193.080338 220.026031,192.996841 219.723862,193.048737 
	C218.969070,193.766617 218.516464,194.432571 218.063843,195.098526 
	C218.063843,195.098526 218.015945,195.015671 217.695480,195.053986 
	C216.636353,196.144760 215.897690,197.197205 215.159027,198.249649 
	C214.673401,198.790070 214.187775,199.330490 213.185211,200.048981 
	C212.454086,200.508347 212.239868,200.789627 212.025665,201.070892 
	C212.025650,201.070892 212.022919,201.001282 211.716125,201.048386 
	C210.958496,201.761124 210.507660,202.426758 210.056824,203.092377 
	C210.056824,203.092377 210.014191,203.015030 209.717514,203.056061 
	C208.962265,203.758194 208.503708,204.419312 208.045135,205.080414 
	C208.045135,205.080414 207.998947,205.015625 207.655884,205.018890 
	C206.555832,206.036087 205.798843,207.050018 205.041855,208.063934 
	C205.041855,208.063934 204.999939,208.012497 204.793915,208.118896 
	C204.403259,208.509354 204.218643,208.793381 204.034027,209.077423 
	C204.034027,209.077423 204.030975,209.002914 203.723785,209.050415 
	C202.964050,209.763229 202.511505,210.428528 202.058960,211.093842 
	C202.058960,211.093842 202.013977,211.015411 201.713455,211.061340 
	C200.964279,211.789230 200.515625,212.471191 200.066971,213.153168 
	C199.984818,213.451447 199.820267,213.693771 199.019196,213.993134 
	C197.659256,215.098068 196.853439,216.090057 196.047623,217.082031 
	C196.047623,217.082031 196.008820,217.011642 195.710464,217.054276 
	C194.959396,217.761429 194.506683,218.425934 194.053970,219.090439 
	C194.053970,219.090439 194.013901,219.014587 193.716705,219.055420 
	C192.960876,219.757294 192.502258,220.418350 192.043640,221.079391 
	C192.043640,221.079391 191.999374,221.014893 191.655304,221.018463 
	C190.557388,222.038589 189.803528,223.055145 189.049683,224.071716 
	C189.049683,224.071716 189.016907,223.998734 188.687210,224.037201 
	C185.584473,225.724838 182.811432,227.374008 179.835510,228.748917 
	C169.425308,220.314026 159.218018,212.153397 149.010712,203.992767 
z"/>
<path fill="#81CFFD" opacity="1.000000" stroke="none" 
	d="
M148.646240,203.995178 
	C159.218018,212.153397 169.425308,220.314026 179.831818,228.990936 
	C180.031006,229.507217 180.036362,229.991791 179.736816,230.014526 
	C178.953354,230.343231 178.469437,230.649185 177.657272,230.958618 
	C176.891327,230.958618 176.453659,230.955139 175.917740,230.798676 
	C175.541260,230.747910 175.263031,230.850143 174.517151,230.960175 
	C160.776642,230.973236 147.503571,230.946732 134.231079,231.022018 
	C132.481445,231.031921 130.734741,231.561569 128.986679,231.850510 
	C125.636208,231.863922 122.285744,231.877319 118.315567,231.672073 
	C117.121872,231.582825 116.547874,231.712219 115.973885,231.841614 
	C115.223396,231.886490 114.472916,231.931381 113.387161,231.930695 
	C113.051895,231.885101 113.086533,231.691879 113.061172,231.356506 
	C113.021729,230.341995 113.007645,229.662857 112.993561,228.983719 
	C117.704285,224.967209 122.399223,220.931992 127.129936,216.939178 
	C132.376511,212.510986 137.655777,208.121506 142.960495,203.371780 
	C143.448059,203.023224 143.895935,203.018036 144.680084,203.015076 
	C146.104828,203.344070 147.193314,203.670837 148.646240,203.995178 
z"/>
<path fill="#BEE4F6" opacity="1.000000" stroke="none" 
	d="
M100.657440,66.074402 
	C100.114433,67.957367 99.771820,70.479080 98.344559,71.944168 
	C88.867340,81.672539 79.223831,91.242577 69.480927,100.706108 
	C66.790817,103.319099 63.579582,105.395576 60.281948,107.846146 
	C59.971546,107.239662 59.986652,106.505264 60.330261,105.348480 
	C61.117157,104.294136 61.575550,103.662178 62.033943,103.030220 
	C63.000637,102.254654 63.967335,101.479080 65.311249,100.327980 
	C66.782097,98.958542 67.875717,97.964622 68.969330,96.970703 
	C69.246101,96.493179 69.522865,96.015656 70.250351,95.240982 
	C71.483223,93.978043 72.265388,93.012260 73.047554,92.046478 
	C73.950676,91.227722 74.853798,90.408958 76.233719,89.268311 
	C77.486305,87.975693 78.262077,87.004967 79.037857,86.034233 
	C79.516022,85.759224 79.994186,85.484215 81.014801,84.961411 
	C82.694870,83.466049 83.832481,82.218483 84.970100,80.970909 
	C85.246635,80.493309 85.523163,80.015717 86.250397,79.240967 
	C87.483246,77.978035 88.265404,77.012260 89.047562,76.046478 
	C89.950676,75.227722 90.853790,74.408966 92.233734,73.268333 
	C93.486343,71.975830 94.262115,71.005203 95.037895,70.034569 
	C96.810631,68.764503 98.583366,67.494446 100.657440,66.074402 
z"/>
<path fill="#A4D0EB" opacity="1.000000" stroke="none" 
	d="
M231.902267,176.550354 
	C231.545898,175.260559 231.022308,173.506897 231.016541,171.751541 
	C230.953156,152.466354 230.970474,133.180908 231.183533,113.425446 
	C231.401184,112.955368 231.850693,112.944176 231.850693,112.944176 
	C231.892303,133.991348 231.933899,155.038528 231.902267,176.550354 
z"/>
<path fill="#A9D3E8" opacity="1.000000" stroke="none" 
	d="
M129.452759,231.911545 
	C130.734741,231.561569 132.481445,231.031921 134.231079,231.022018 
	C147.503571,230.946732 160.776642,230.973236 174.775009,230.970276 
	C175.672333,230.965576 175.844162,230.958618 176.015976,230.951645 
	C176.453659,230.955139 176.891327,230.958618 178.038635,230.973511 
	C179.511719,230.970871 180.275146,230.956833 181.352112,230.950287 
	C182.083725,230.951691 182.501816,230.945602 182.941528,231.199921 
	C182.957153,231.634445 182.951141,231.808548 182.945114,231.982651 
	C165.269684,231.979294 147.594269,231.975937 129.452759,231.911545 
z"/>
<path fill="#70BCE3" opacity="1.000000" stroke="none" 
	d="
M220.367065,192.940292 
	C222.009476,190.277222 223.957626,187.474121 225.965240,184.334442 
	C227.660675,183.335083 229.296631,182.672287 231.251251,181.998596 
	C227.937531,185.591873 224.305161,189.196060 220.367065,192.940292 
z"/>
<path fill="#93D0EC" opacity="1.000000" stroke="none" 
	d="
M225.067612,101.986183 
	C218.768051,102.842209 218.615112,102.711327 219.929626,97.079865 
	C221.661026,98.048157 223.088058,99.265274 224.774567,100.949615 
	C225.045227,101.606628 225.056427,101.796402 225.067612,101.986183 
z"/>
<path fill="#9ED8EF" opacity="1.000000" stroke="none" 
	d="
M96.936798,219.072769 
	C100.513107,219.040070 102.442574,220.884644 102.918327,224.729736 
	C101.149887,224.161438 99.414276,223.212311 97.361603,221.729141 
	C97.008636,220.487656 96.972717,219.780212 96.936798,219.072769 
z"/>
<path fill="#9ED8EF" opacity="1.000000" stroke="none" 
	d="
M80.935883,203.074173 
	C84.558243,202.965897 86.372772,204.934097 86.587723,208.679810 
	C85.513824,208.993652 84.808762,208.943604 84.103691,208.893570 
	C83.277702,208.001511 82.451714,207.109467 81.334991,205.706573 
	C81.008133,204.488556 80.972008,203.781357 80.935883,203.074173 
z"/>
<path fill="#6DBEE3" opacity="1.000000" stroke="none" 
	d="
M182.919891,230.939514 
	C182.501816,230.945602 182.083725,230.951691 181.233765,230.745300 
	C180.599899,230.277206 180.344727,230.096863 180.036362,229.991791 
	C180.036362,229.991791 180.031006,229.507217 180.034698,229.265198 
	C182.811432,227.374008 185.584473,225.724838 188.719421,224.060913 
	C187.811401,225.795364 186.541458,227.544540 184.815735,229.636780 
	C183.879944,230.299744 183.399918,230.619629 182.919891,230.939514 
z"/>
<path fill="#93D0EC" opacity="1.000000" stroke="none" 
	d="
M210.210083,86.651443 
	C206.110703,86.781700 202.972046,85.518875 203.071747,80.177315 
	C203.828445,80.168137 204.550430,80.568649 205.641388,81.372986 
	C207.362717,83.162460 208.715027,84.548111 210.067337,85.933762 
	C210.067337,85.933762 210.163483,86.412018 210.210083,86.651443 
z"/>
<path fill="#9DD1EC" opacity="1.000000" stroke="none" 
	d="
M191.890869,69.025436 
	C187.957672,68.690613 185.914841,66.309792 185.041870,62.309052 
	C187.169373,63.850933 189.279587,65.765259 191.667816,68.102783 
	C191.927505,68.692467 191.909195,68.858955 191.890869,69.025436 
z"/>
<path fill="#9ED8EF" opacity="1.000000" stroke="none" 
	d="
M64.662560,184.853119 
	C65.328560,186.680832 65.659859,188.359238 66.004623,190.395248 
	C64.102020,188.716339 62.185970,186.679825 60.158897,184.330307 
	C61.474537,184.246140 62.901203,184.474976 64.662560,184.853119 
z"/>
<path fill="#A7DAF2" opacity="1.000000" stroke="none" 
	d="
M110.292740,62.848770 
	C109.342690,61.882133 108.696869,60.763622 108.006668,59.313148 
	C108.443077,58.671383 108.923859,58.361576 110.076416,58.035309 
	C111.502731,58.004845 112.257271,57.990845 113.011818,57.976845 
	C113.011818,57.976845 112.977158,58.087013 112.969254,58.146458 
	C112.173218,59.702900 111.385094,61.199898 110.292740,62.848770 
z"/>
<path fill="#C9ECFB" opacity="1.000000" stroke="none" 
	d="
M80.949081,203.061707 
	C80.972008,203.781357 81.008133,204.488556 81.074158,205.547501 
	C79.106697,204.131027 77.109329,202.362793 75.112839,200.239334 
	C75.876770,200.175598 76.639832,200.467117 77.836617,201.166473 
	C79.163391,202.065720 80.056435,202.557144 80.949478,203.048584 
	C80.949478,203.048584 80.962288,203.049225 80.949081,203.061707 
z"/>
<path fill="#C9ECFB" opacity="1.000000" stroke="none" 
	d="
M72.993729,196.028656 
	C73.330566,196.780060 73.667397,197.531464 74.059395,198.585175 
	C72.121445,197.119598 70.128334,195.351685 68.481895,193.266586 
	C69.536018,192.982193 70.243454,193.014999 70.950897,193.047791 
	C70.950897,193.047806 70.998169,193.000000 71.005577,193.341797 
	C71.673233,194.465271 72.333481,195.246964 72.993729,196.028656 
z"/>
<path fill="#C9ECFB" opacity="1.000000" stroke="none" 
	d="
M84.107315,209.247177 
	C84.808762,208.943604 85.513824,208.993652 86.571686,209.054077 
	C86.924484,209.064438 86.950157,209.039001 86.982101,209.362427 
	C87.673752,210.466751 88.333450,211.247635 88.993149,212.028534 
	C89.330162,212.779968 89.667175,213.531403 90.059326,214.585205 
	C88.113289,213.125290 86.112114,211.363037 84.107315,209.247177 
z"/>
<path fill="#C9ECFB" opacity="1.000000" stroke="none" 
	d="
M96.950073,219.060440 
	C96.972717,219.780212 97.008636,220.487656 97.074585,221.546967 
	C95.107010,220.130783 93.109413,218.362732 91.112701,216.239426 
	C91.876686,216.175613 92.639778,216.467072 93.836624,217.166412 
	C95.163704,218.065628 96.057037,218.556946 96.950363,219.048248 
	C96.950363,219.048264 96.963348,219.048111 96.950073,219.060440 
z"/>
<path fill="#93D0EC" opacity="1.000000" stroke="none" 
	d="
M228.020203,108.986320 
	C227.541000,107.431953 227.061813,105.877586 226.839600,104.125778 
	C227.563080,104.216652 228.029572,104.504967 228.862274,105.111359 
	C229.426895,105.696259 229.682526,105.886017 229.995361,105.998726 
	C229.995361,105.998726 229.999390,106.000397 230.087830,106.232025 
	C230.369888,106.748512 230.634171,106.931030 230.969147,107.011208 
	C231.267792,107.124947 231.506973,107.313934 231.572601,107.930061 
	C231.225830,108.513390 231.082825,108.791077 231.037567,109.351143 
	C231.045563,109.587273 231.048737,110.059792 230.727386,110.015450 
	C229.610764,109.642845 228.815491,109.314583 228.020203,108.986320 
z"/>
<path fill="#A9D3E8" opacity="1.000000" stroke="none" 
	d="
M106.001328,227.995163 
	C106.441795,228.001038 106.882263,228.006897 107.703140,228.332321 
	C108.718193,229.102066 109.352829,229.552231 109.995331,230.313553 
	C110.021866,231.037994 110.040543,231.451279 109.682159,231.909393 
	C108.546822,231.946655 107.788544,231.939087 107.030273,231.931519 
	C106.339630,230.856384 105.648987,229.781250 105.194405,228.362579 
	C105.620750,228.011078 105.811043,228.003113 106.001328,227.995163 
z"/>
<path fill="#A7DAF2" opacity="1.000000" stroke="none" 
	d="
M181.985840,61.958336 
	C181.985840,61.958336 181.486923,61.970287 181.237213,61.973213 
	C179.998611,60.933109 179.009720,59.890083 178.029083,58.513557 
	C178.037338,58.180061 178.015671,58.067596 178.403030,58.039791 
	C179.870926,58.002796 180.951477,57.993607 182.032013,57.984417 
	C182.032013,57.984417 182.055618,58.415005 182.033829,59.022537 
	C182.003311,60.406155 181.994568,61.182247 181.985840,61.958336 
z"/>
<path fill="#E2F8FF" opacity="1.000000" stroke="none" 
	d="
M107.093735,232.302521 
	C107.788544,231.939087 108.546822,231.946655 110.060776,231.939362 
	C111.573151,231.846954 112.329842,231.769424 113.086533,231.691895 
	C113.086533,231.691879 113.051895,231.885101 113.013947,231.976135 
	C111.350677,235.285202 109.307121,234.489761 107.093735,232.302521 
z"/>
<path fill="#C3E9FC" opacity="1.000000" stroke="none" 
	d="
M199.992035,76.132133 
	C198.679291,74.987358 197.366531,73.842583 196.008118,72.365234 
	C197.596039,73.161560 199.229645,74.290466 200.649506,75.761894 
	C200.435791,76.104416 199.992035,76.132133 199.992035,76.132133 
z"/>
<path fill="#C3E9FC" opacity="1.000000" stroke="none" 
	d="
M210.043579,85.575424 
	C208.715027,84.548111 207.362717,83.162460 205.938812,81.458511 
	C207.251419,82.499168 208.635635,83.858131 210.043579,85.575424 
z"/>
<path fill="#E2F7FE" opacity="1.000000" stroke="none" 
	d="
M182.252701,57.764515 
	C180.951477,57.993607 179.870926,58.002796 178.385956,57.985130 
	C179.271454,55.568665 180.693787,54.616856 182.252701,57.764515 
z"/>
<path fill="#D9F1FC" opacity="1.000000" stroke="none" 
	d="
M84.577515,80.980171 
	C83.832481,82.218483 82.694870,83.466049 81.264023,84.842194 
	C80.861557,82.690544 81.088654,80.681839 84.577515,80.980171 
z"/>
<path fill="#C9E5F5" opacity="1.000000" stroke="none" 
	d="
M59.993244,112.569443 
	C59.562248,112.998741 59.133842,113.009666 58.385296,113.029938 
	C58.445927,111.400444 58.826694,109.761604 59.571156,108.039230 
	C59.955177,109.354156 59.975506,110.752617 59.993244,112.569443 
z"/>
<path fill="#7EC9F0" opacity="1.000000" stroke="none" 
	d="
M228.013336,109.361954 
	C228.815491,109.314583 229.610764,109.642845 230.797333,110.181236 
	C231.313873,110.603317 231.485306,110.766853 231.702911,110.881973 
	C231.768692,111.338875 231.834473,111.795776 231.875473,112.598427 
	C231.850693,112.944176 231.401184,112.955368 231.175690,112.953888 
	C230.186020,112.635094 229.421844,112.317795 228.326172,111.995003 
	C227.998596,111.238869 228.002533,110.488228 228.013336,109.361954 
z"/>
<path fill="#D9F1FC" opacity="1.000000" stroke="none" 
	d="
M68.583023,96.979408 
	C67.875717,97.964622 66.782097,98.958542 65.364708,99.997452 
	C66.092873,99.024338 67.144798,98.006226 68.583023,96.979408 
z"/>
<path fill="#BEE4F6" opacity="1.000000" stroke="none" 
	d="
M104.652763,62.100529 
	C106.808937,64.965668 104.195877,64.572578 102.282623,64.969437 
	C102.742348,64.053009 103.561394,63.147232 104.652763,62.100529 
z"/>
<path fill="#9ED8EF" opacity="1.000000" stroke="none" 
	d="
M70.934128,192.717224 
	C70.243454,193.014999 69.536018,192.982193 68.478249,192.916840 
	C68.101242,192.718857 68.074554,192.553421 68.033783,192.135880 
	C68.450699,191.386688 68.881691,190.889587 69.312698,190.392487 
	C69.847588,191.057205 70.382469,191.721924 70.934128,192.717224 
z"/>
<path fill="#D9F1FC" opacity="1.000000" stroke="none" 
	d="
M72.702248,92.067665 
	C72.265388,93.012260 71.483223,93.978043 70.367615,94.990692 
	C70.808434,94.054657 71.582687,93.071754 72.702248,92.067665 
z"/>
<path fill="#D9F1FC" opacity="1.000000" stroke="none" 
	d="
M88.702255,76.067673 
	C88.265404,77.012260 87.483246,77.978035 86.367661,78.990700 
	C86.808464,78.054680 87.582703,77.071770 88.702255,76.067673 
z"/>
<path fill="#D9F1FC" opacity="1.000000" stroke="none" 
	d="
M78.693192,86.059212 
	C78.262077,87.004967 77.486305,87.975693 76.378098,88.996735 
	C76.813301,88.059433 77.580917,87.071815 78.693192,86.059212 
z"/>
<path fill="#C3E9FC" opacity="1.000000" stroke="none" 
	d="
M215.988312,92.131065 
	C215.390045,91.594162 214.791794,91.057259 214.043823,90.044876 
	C213.894119,89.569405 213.870560,89.130875 213.870560,89.130875 
	C214.868195,89.893677 215.865829,90.656487 216.648865,91.761292 
	C216.434265,92.103287 215.988312,92.131065 215.988312,92.131065 
z"/>
<path fill="#6DBEE3" opacity="1.000000" stroke="none" 
	d="
M196.388687,217.046677 
	C196.853439,216.090057 197.659256,215.098068 198.822327,214.097565 
	C198.362976,215.063156 197.546371,216.037247 196.388687,217.046677 
z"/>
<path fill="#D9F1FC" opacity="1.000000" stroke="none" 
	d="
M94.693222,70.059402 
	C94.262115,71.005203 93.486343,71.975830 92.378128,72.996765 
	C92.813309,72.059456 93.580925,71.071846 94.693222,70.059402 
z"/>
<path fill="#9ED8EF" opacity="1.000000" stroke="none" 
	d="
M105.961601,227.652695 
	C105.811043,228.003113 105.620750,228.011078 105.144379,228.042694 
	C104.213745,227.289276 103.569176,226.512192 102.909546,225.421707 
	C103.903618,225.842285 104.912743,226.576248 105.961601,227.652695 
z"/>
<path fill="#9DD1EC" opacity="1.000000" stroke="none" 
	d="
M182.370071,61.972431 
	C181.994568,61.182247 182.003311,60.406155 182.028427,59.238087 
	C182.964539,59.688206 183.884247,60.530304 184.933029,61.656685 
	C184.292831,61.956158 183.523575,61.971340 182.370071,61.972431 
z"/>
<path fill="#6DBEE3" opacity="1.000000" stroke="none" 
	d="
M189.334015,223.944168 
	C189.803528,223.055145 190.557388,222.038589 191.690765,221.035004 
	C191.252960,221.970840 190.435654,222.893723 189.334015,223.944168 
z"/>
<path fill="#70BCE3" opacity="1.000000" stroke="none" 
	d="
M205.326416,207.936615 
	C205.798843,207.050018 206.555832,206.036087 207.691864,205.035828 
	C207.250946,205.969406 206.430969,206.889343 205.326416,207.936615 
z"/>
<path fill="#E2F7FE" opacity="1.000000" stroke="none" 
	d="
M112.953934,57.649857 
	C112.257271,57.990845 111.502731,58.004845 110.371422,57.996040 
	C110.961792,57.756443 111.928917,57.539658 112.953934,57.649857 
z"/>
<path fill="#70BCE3" opacity="1.000000" stroke="none" 
	d="
M215.444672,198.082428 
	C215.897690,197.197205 216.636353,196.144760 217.736572,195.078491 
	C217.308853,196.014847 216.519577,196.965027 215.444672,198.082428 
z"/>
<path fill="#D9F1FC" opacity="1.000000" stroke="none" 
	d="
M61.709839,103.064972 
	C61.575550,103.662178 61.117157,104.294136 60.345955,104.981216 
	C60.484013,104.390800 60.934875,103.745255 61.709839,103.064972 
z"/>
<path fill="#E2F8FF" opacity="1.000000" stroke="none" 
	d="
M182.941528,231.199921 
	C183.399918,230.619629 183.879944,230.299744 184.656219,229.929245 
	C184.506165,230.554016 184.059845,231.229416 183.279327,231.943726 
	C182.951141,231.808548 182.957153,231.634445 182.941528,231.199921 
z"/>
<path fill="#C3E9FC" opacity="1.000000" stroke="none" 
	d="
M225.360382,102.007187 
	C225.056427,101.796402 225.045227,101.606628 225.034683,101.130478 
	C225.645966,101.090714 226.256577,101.337318 226.841339,101.878967 
	C226.428055,102.125420 226.040604,102.076813 225.360382,102.007187 
z"/>
<path fill="#6DBEE3" opacity="1.000000" stroke="none" 
	d="
M192.377411,221.050095 
	C192.502258,220.418350 192.960876,219.757294 193.754974,219.074799 
	C193.630692,219.709152 193.170944,220.364975 192.377411,221.050095 
z"/>
<path fill="#C3E9FC" opacity="1.000000" stroke="none" 
	d="
M192.075531,69.269272 
	C191.909195,68.858955 191.927505,68.692467 191.953674,68.275070 
	C192.608841,68.476158 193.256195,68.928162 193.939850,69.704300 
	C193.404175,69.856667 192.832184,69.684891 192.075531,69.269272 
z"/>
<path fill="#6DBEE3" opacity="1.000000" stroke="none" 
	d="
M194.379944,219.042114 
	C194.506683,218.425934 194.959396,217.761429 195.746674,217.071716 
	C195.622803,217.695602 195.164352,218.344681 194.379944,219.042114 
z"/>
<path fill="#70BCE3" opacity="1.000000" stroke="none" 
	d="
M200.394302,213.093674 
	C200.515625,212.471191 200.964279,211.789230 201.753235,211.082794 
	C201.636230,211.716965 201.178940,212.375580 200.394302,213.093674 
z"/>
<path fill="#70BCE3" opacity="1.000000" stroke="none" 
	d="
M202.385468,211.047058 
	C202.511505,210.428528 202.964050,209.763229 203.751587,209.075272 
	C203.628357,209.701843 203.170166,210.351074 202.385468,211.047058 
z"/>
<path fill="#70BCE3" opacity="1.000000" stroke="none" 
	d="
M210.382660,203.043549 
	C210.507660,202.426758 210.958496,201.761124 211.743713,201.069672 
	C211.621552,201.694138 211.165024,202.344421 210.382660,203.043549 
z"/>
<path fill="#70BCE3" opacity="1.000000" stroke="none" 
	d="
M208.378845,205.051224 
	C208.503708,204.419312 208.962265,203.758194 209.756592,203.076614 
	C209.632416,203.711426 209.172470,204.366730 208.378845,205.051224 
z"/>
<path fill="#70BCE3" opacity="1.000000" stroke="none" 
	d="
M218.390137,195.051178 
	C218.516464,194.432571 218.969070,193.766617 219.757568,193.079056 
	C219.634445,193.706253 219.175430,194.355042 218.390137,195.051178 
z"/>
<path fill="#DEF5FF" opacity="1.000000" stroke="none" 
	d="
M232.253754,180.837463 
	C231.999222,180.544952 231.960587,180.104919 231.967194,179.335632 
	C232.164856,179.567581 232.317261,180.128754 232.253754,180.837463 
z"/>
<path fill="#A9D3E8" opacity="1.000000" stroke="none" 
	d="
M116.314110,231.898499 
	C116.547874,231.712219 117.121872,231.582825 117.860054,231.645660 
	C117.567612,231.877060 117.110970,231.916229 116.314110,231.898499 
z"/>
<path fill="#93D0EC" opacity="1.000000" stroke="none" 
	d="
M200.029633,76.428024 
	C199.992035,76.132133 200.435791,76.104416 200.656845,76.114120 
	C200.961533,76.524261 201.045166,76.924706 201.192184,77.626350 
	C200.859451,77.526344 200.463333,77.125130 200.029633,76.428024 
z"/>
<path fill="#74CBFE" opacity="1.000000" stroke="none" 
	d="
M231.780090,110.594055 
	C231.485306,110.766853 231.313873,110.603317 231.118683,110.225578 
	C231.048737,110.059792 231.045563,109.587273 231.236908,109.343269 
	C231.428268,109.099266 231.827499,109.112938 231.827499,109.112938 
	C231.837433,109.510674 231.847351,109.908401 231.780090,110.594055 
z"/>
<path fill="#93D0EC" opacity="1.000000" stroke="none" 
	d="
M216.026825,92.427681 
	C215.988312,92.131065 216.434265,92.103287 216.656433,92.112823 
	C216.962555,92.523560 217.046509,92.924759 217.194778,93.627640 
	C216.861160,93.527649 216.463242,93.125977 216.026825,92.427681 
z"/>
<path fill="#93D0EC" opacity="1.000000" stroke="none" 
	d="
M213.571640,89.063034 
	C213.870560,89.130875 213.894119,89.569405 213.881073,89.788666 
	C213.339447,89.778503 212.810852,89.549080 212.175491,89.034233 
	C212.470047,88.830940 212.871384,88.913071 213.571640,89.063034 
z"/>
<path fill="#B2DEF0" opacity="1.000000" stroke="none" 
	d="
M58.129539,176.246338 
	C58.540806,176.165756 58.919621,176.336121 59.298439,176.506485 
	C59.063049,176.658066 58.827663,176.809647 58.368286,176.981171 
	C58.128563,176.833191 58.112823,176.665237 58.129539,176.246338 
z"/>
<path fill="#A4D0EB" opacity="1.000000" stroke="none" 
	d="
M231.876129,108.838768 
	C231.827499,109.112938 231.428268,109.099266 231.228912,109.107140 
	C231.082825,108.791077 231.225830,108.513390 231.650742,108.147842 
	C231.870224,108.197357 231.897491,108.380981 231.876129,108.838768 
z"/>
<path fill="#C3E9FC" opacity="1.000000" stroke="none" 
	d="
M230.862793,106.795456 
	C230.634171,106.931030 230.369888,106.748512 230.088318,106.234444 
	C230.314362,106.115166 230.566376,106.306656 230.862793,106.795456 
z"/>
<path fill="#70BCE3" opacity="1.000000" stroke="none" 
	d="
M204.279968,208.985367 
	C204.218643,208.793381 204.403259,208.509354 204.826721,208.123810 
	C204.885666,208.312637 204.705795,208.602982 204.279968,208.985367 
z"/>
<path fill="#C3E9FC" opacity="1.000000" stroke="none" 
	d="
M229.901520,105.770538 
	C229.682526,105.886017 229.426895,105.696259 229.116989,105.215210 
	C229.344223,105.075760 229.611618,105.256218 229.901520,105.770538 
z"/>
<path fill="#70BCE3" opacity="1.000000" stroke="none" 
	d="
M212.274139,200.978210 
	C212.239868,200.789627 212.454086,200.508347 212.929871,200.151276 
	C212.968491,200.345490 212.745560,200.615494 212.274139,200.978210 
z"/>
<path fill="#88CEEB" opacity="1.000000" stroke="none" 
	d="
M113.061172,231.356506 
	C112.329842,231.769424 111.573151,231.846954 110.437836,231.894531 
	C110.040543,231.451279 110.021866,231.037994 110.213211,230.202515 
	C110.694885,229.580673 110.884926,229.321228 110.993340,229.002014 
	C111.437897,228.998795 111.882454,228.995575 112.660286,228.988037 
	C113.007645,229.662857 113.021729,230.341995 113.061172,231.356506 
z"/>
<path fill="#9ED8EF" opacity="1.000000" stroke="none" 
	d="
M80.910324,202.699524 
	C80.056435,202.557144 79.163391,202.065720 78.121552,201.290436 
	C78.938911,201.454544 79.905045,201.902512 80.910324,202.699524 
z"/>
<path fill="#9ED8EF" opacity="1.000000" stroke="none" 
	d="
M110.699501,228.873810 
	C110.884926,229.321228 110.694885,229.580673 110.205353,229.891357 
	C109.352829,229.552231 108.718193,229.102066 108.033485,228.337311 
	C108.790833,228.263702 109.598251,228.504669 110.699501,228.873810 
z"/>
<path fill="#9ED8EF" opacity="1.000000" stroke="none" 
	d="
M72.991318,195.671356 
	C72.333481,195.246964 71.673233,194.465271 70.983475,193.365631 
	C71.632278,193.803146 72.310593,194.558609 72.991318,195.671356 
z"/>
<path fill="#9ED8EF" opacity="1.000000" stroke="none" 
	d="
M88.990593,211.671280 
	C88.333450,211.247635 87.673752,210.466751 86.983231,209.368469 
	C87.630951,209.805405 88.309494,210.559708 88.990593,211.671280 
z"/>
<path fill="#9ED8EF" opacity="1.000000" stroke="none" 
	d="
M96.910889,218.699249 
	C96.057037,218.556946 95.163704,218.065628 94.121567,217.290375 
	C94.938980,217.454361 95.905197,217.902298 96.910889,218.699249 
z"/>
<path fill="#88CEEB" opacity="1.000000" stroke="none" 
	d="
M179.736816,230.014526 
	C180.344727,230.096863 180.599899,230.277206 180.920227,230.737808 
	C180.275146,230.956833 179.511719,230.970871 178.366913,230.970032 
	C178.469437,230.649185 178.953354,230.343231 179.736816,230.014526 
z"/>
<path fill="#88CEEB" opacity="1.000000" stroke="none" 
	d="
M175.917740,230.798676 
	C175.844162,230.958618 175.672333,230.965576 175.242645,230.962463 
	C175.263031,230.850143 175.541260,230.747910 175.917740,230.798676 
z"/>
</svg>