<svg width="16" height="16" viewBox="0 0 16 16" fill="none" xmlns="http://www.w3.org/2000/svg">
<path d="M14.495 7.99793C14.495 9.72051 13.8107 11.3725 12.5927 12.5906C11.3746 13.8086 9.72259 14.4929 8 14.4929C6.27742 14.4929 4.6254 13.8086 3.40735 12.5906C2.1893 11.3725 1.505 9.72051 1.505 7.99793C1.505 6.27535 2.1893 4.62332 3.40735 3.40527C4.6254 2.18722 6.27742 1.50293 8 1.50293C9.72259 1.50293 11.3746 2.18722 12.5927 3.40527C13.8107 4.62332 14.495 6.27535 14.495 7.99793ZM6.5025 6.19043C6.50029 6.21251 6.50655 6.2346 6.52001 6.25223C6.53347 6.26987 6.55313 6.28174 6.575 6.28543L8.23 6.53043C8.24566 6.53272 8.26041 6.53921 8.27267 6.54921C8.28493 6.55921 8.29425 6.57235 8.29963 6.58722C8.30502 6.6021 8.30627 6.61816 8.30326 6.63369C8.30024 6.64923 8.29307 6.66365 8.28251 6.67543L5.2975 9.98793C5.28287 10.0048 5.27524 10.0266 5.27617 10.0489C5.27709 10.0712 5.28652 10.0923 5.3025 10.1079L5.895 10.6954C5.91092 10.7111 5.9322 10.72 5.95451 10.7205C5.97681 10.721 5.99845 10.7129 6.015 10.6979L9.325 7.72293C9.33678 7.71237 9.35121 7.70519 9.36674 7.70218C9.38227 7.69916 9.39833 7.70041 9.41321 7.7058C9.42809 7.71119 9.44123 7.72051 9.45123 7.73277C9.46123 7.74503 9.46772 7.75977 9.47001 7.77543L9.715 9.42043C9.71812 9.44276 9.72974 9.46303 9.74745 9.47701C9.76515 9.49098 9.78756 9.49758 9.81001 9.49543L10.64 9.41293C10.6623 9.41041 10.6828 9.3994 10.6973 9.38218C10.7117 9.36496 10.7189 9.34285 10.7175 9.32043L10.445 5.63543C10.4433 5.61478 10.4343 5.59541 10.4197 5.58076C10.405 5.56611 10.3857 5.55714 10.365 5.55543L6.685 5.28293C6.66217 5.28082 6.63943 5.28777 6.62166 5.30226C6.6039 5.31675 6.59253 5.33764 6.59 5.36043L6.5025 6.19043Z" fill="white"/>
</svg>