<svg width="36" height="36" viewBox="0 0 36 36" fill="none" xmlns="http://www.w3.org/2000/svg">
<rect width="36" height="36" fill="#56C7EC"/>
<path d="M25 26.75H11C10.7679 26.75 10.5454 26.6578 10.3813 26.4937C10.2172 26.3296 10.125 26.1071 10.125 25.875V10.125C10.125 9.89294 10.2172 9.67038 10.3813 9.50628C10.5454 9.34219 10.7679 9.25 11 9.25H25C25.2321 9.25 25.4546 9.34219 25.6187 9.50628C25.7828 9.67038 25.875 9.89294 25.875 10.125V25.875C25.875 26.1071 25.7828 26.3296 25.6187 26.4937C25.4546 26.6578 25.2321 26.75 25 26.75ZM13.625 12.75V16.25H17.125V12.75H13.625ZM13.625 18V19.75H22.375V18H13.625ZM13.625 21.5V23.25H22.375V21.5H13.625ZM18.875 13.625V15.375H22.375V13.625H18.875Z" fill="white"/>
</svg>
