<svg width="131" height="25" viewBox="0 0 131 25" fill="none" xmlns="http://www.w3.org/2000/svg">
<path d="M45.4478 11.9162C45.4478 7.83991 42.744 4.54204 38.2376 4.54204C33.7312 4.54204 31.0273 7.83991 31.0273 11.9162C31.0273 15.9924 33.7312 19.2903 38.2376 19.2903C39.2822 19.2903 40.245 19.1059 41.0848 18.7782L42.4162 20.4373H45.1201L42.9283 17.713C44.5465 16.3611 45.4478 14.2718 45.4478 11.9162ZM38.2376 16.8322C35.4723 16.8322 33.8131 14.6405 33.8131 11.9162C33.8131 9.19183 35.4723 7.00008 38.2376 7.00008C41.0029 7.00008 42.6621 9.19183 42.6621 11.9162C42.6621 13.4115 42.1704 14.7429 41.2692 15.6442L40.1221 14.2103H37.4182L39.4052 16.6888C39.0364 16.7913 38.6473 16.8322 38.2376 16.8322Z" fill="#1D1919"/>
<path d="M50.0352 19.2903C51.9197 19.2903 53.1077 17.754 53.6403 16.6888C53.7223 16.525 53.7837 16.4021 53.9476 16.443C54.2139 16.5045 54.091 16.7913 54.009 16.9756C53.8247 17.4058 53.6813 17.795 53.6813 18.4504V19.1264H56.3032V8.31103H53.6813V12.715C53.6813 15.214 52.2884 16.9142 50.7726 16.9142C49.4002 16.9142 48.7652 16.2382 48.7652 13.8006V8.31103L46.1433 8.31103V14.7019C46.1433 17.7745 47.7001 19.2903 50.0352 19.2903Z" fill="#1D1919"/>
<path d="M67.4908 13.5753C67.4908 9.64247 64.8894 8.14716 62.3904 8.14716C59.0925 8.14716 57.0032 10.3389 57.0032 13.7187C57.0032 16.9346 58.9286 19.2903 62.4313 19.2903C65.3195 19.2903 66.8353 17.5901 67.3064 15.3574H64.6436C64.3363 16.3201 63.7013 16.9961 62.4518 16.9961C60.8131 16.9961 59.748 16.0129 59.5636 14.3742H67.4293C67.4703 14.0669 67.4908 13.8621 67.4908 13.5753ZM59.666 12.5716C59.9323 11.2812 60.6902 10.2775 62.4723 10.2775C63.9881 10.2775 64.7665 11.2607 64.8689 12.5716H59.666Z" fill="#1D1919"/>
<path d="M67.8507 15.4803C67.9531 17.795 69.6123 19.2903 72.7463 19.2903C75.9417 19.2903 77.6828 17.9998 77.6828 15.7466C77.6828 13.5753 75.7778 12.715 73.1355 12.4487C71.0256 12.2439 70.8003 11.8137 70.8003 11.3016C70.8003 10.6871 71.251 10.1955 72.7463 10.1955C74.2621 10.1955 74.7127 10.9534 74.7741 11.6294H77.3551C77.2117 9.66295 75.6549 8.14716 72.8077 8.14716C69.7352 8.14716 68.1784 9.68343 68.1784 11.445C68.1784 12.6536 68.6086 14.3742 71.9269 14.7839C73.9958 15.0297 75.0609 15.1526 75.0609 15.9514C75.0609 16.6684 74.5079 17.2419 72.8282 17.2419C70.9232 17.2419 70.4521 16.2792 70.4316 15.4803L67.8507 15.4803Z" fill="#1D1919"/>
<path d="M85.2683 10.6052V8.31103H82.3187V5.36139H79.6968V8.31103H77.7304V10.6052H79.6968V15.808C79.6968 18.4095 80.721 19.1264 82.8922 19.1264H85.2683V16.8322H83.4453C82.3392 16.8322 82.3187 16.7298 82.3187 15.5418V10.6052L85.2683 10.6052Z" fill="#1D1919"/>
<path d="M88.628 4.37817H86.0061V19.1264H88.628V18.6553C88.628 18.2456 88.5256 17.9179 88.3412 17.5492C88.2388 17.3443 88.1568 17.1395 88.3822 17.0575C88.5665 16.9961 88.6485 17.2009 88.6894 17.2624C89.3449 18.4504 90.4715 19.2903 92.1102 19.2903C94.9164 19.2903 96.8214 16.8322 96.8214 13.7187C96.8214 10.6052 94.9164 8.14716 92.1102 8.14716C90.4305 8.14716 89.3449 9.00748 88.6894 10.1546C88.6485 10.2365 88.5256 10.5028 88.3207 10.4004C88.1159 10.2979 88.2593 10.0521 88.3412 9.8473C88.5256 9.4786 88.628 9.15086 88.628 8.7207V4.37817ZM91.4957 16.9142C89.7751 16.9142 88.628 15.4393 88.628 13.7187C88.628 11.9981 89.7751 10.5233 91.4957 10.5233C93.3392 10.5233 94.1995 11.9981 94.1995 13.7187C94.1995 15.4393 93.3392 16.9142 91.4957 16.9142Z" fill="#1D1919"/>
<path d="M102.766 8.14716C99.3862 8.14716 97.3583 10.6462 97.3583 13.7187C97.3583 16.7913 99.3862 19.2903 102.766 19.2903C106.146 19.2903 108.174 16.7913 108.174 13.7187C108.174 10.6462 106.146 8.14716 102.766 8.14716ZM102.766 16.9142C100.984 16.9142 99.9802 15.4803 99.9802 13.7187C99.9802 11.9571 100.984 10.5233 102.766 10.5233C104.548 10.5233 105.552 11.9571 105.552 13.7187C105.552 15.4803 104.548 16.9142 102.766 16.9142Z" fill="#1D1919"/>
<path d="M114.034 8.14716C110.654 8.14716 108.626 10.6462 108.626 13.7187C108.626 16.7913 110.654 19.2903 114.034 19.2903C117.413 19.2903 119.441 16.7913 119.441 13.7187C119.441 10.6462 117.413 8.14716 114.034 8.14716ZM114.034 16.9142C112.252 16.9142 111.248 15.4803 111.248 13.7187C111.248 11.9571 112.252 10.5233 114.034 10.5233C115.816 10.5233 116.819 11.9571 116.819 13.7187C116.819 15.4803 115.816 16.9142 114.034 16.9142Z" fill="#1D1919"/>
<path d="M130.309 19.1264L125.475 12.8379L129.981 8.31103H126.704L122.586 12.7355C122.525 12.7969 122.402 12.9198 122.238 12.7969C122.115 12.6945 122.156 12.5511 122.238 12.4487C122.566 12.0391 122.771 11.6908 122.771 10.8305V4.37817L120.149 4.37817V19.1264H122.771V15.5418L123.713 14.5995L127.031 19.1264H130.309Z" fill="#1D1919"/>
<g clip-path="url(#clip0_2419_1422)">
<path d="M5.68893 9.96162C4.63275 10.8498 3.64859 11.8099 2.68844 12.7461V9.43354C4.77678 7.05715 8.64141 3.79262 13.3462 3.79262C17.2108 3.79262 21.0754 6.04898 24.0039 9.43354V12.7461C22.2276 10.9218 20.0433 8.97746 17.7869 7.72926C19.0591 10.5617 18.0269 13.0101 16.9228 14.3783L17.3068 14.8584C18.7471 13.7542 20.1153 12.458 21.2915 11.2098V14.5944C18.387 17.9789 14.5704 20.1873 10.7057 20.1873C6.81711 20.1873 2.95248 17.9789 0 14.5944V11.2098C2.95248 14.2583 6.81711 17.4988 10.7057 17.4988C11.5219 17.4988 12.362 17.3548 13.1301 17.0908L12.9861 16.6587C8.42537 17.1628 5.40088 13.5622 5.68893 9.96162ZM0 24.0039H24.0039V15.1705C24.0039 15.1705 22.8997 16.3947 21.2915 17.4988V21.3155H2.68844V19.7312C1.12818 18.723 0 17.4988 0 17.4988V24.0039ZM0 8.80943C0 8.80943 1.12818 7.60924 2.68844 6.52906V2.68844H21.2915V4.24869C22.9237 5.28086 24.0039 6.52906 24.0039 6.52906V2.68844H21.2915V0H0V8.80943ZM11.4739 8.83344C12.482 8.83344 13.3222 9.72158 13.3222 10.7057H13.8263C13.8263 9.72158 14.6664 8.83344 15.6986 8.83344V8.30535C14.6664 8.30535 13.8263 7.46521 13.8263 6.48105H13.3222C13.3222 7.46521 12.482 8.30535 11.4739 8.30535V8.83344Z" fill="#1D1919"/>
</g>
<defs>
<clipPath id="clip0_2419_1422">
<rect width="24.0039" height="24.0039" fill="white"/>
</clipPath>
</defs>
</svg>
