<svg width="144" height="28" viewBox="0 0 144 28" fill="none" xmlns="http://www.w3.org/2000/svg">
<path d="M50.222 13.4568C50.222 8.95223 47.2341 5.3078 42.2541 5.3078C37.2741 5.3078 34.2861 8.95223 34.2861 13.4568C34.2861 17.9614 37.2741 21.6059 42.2541 21.6059C43.4085 21.6059 44.4724 21.4021 45.4005 21.04L46.8719 22.8735H49.8599L47.4378 19.8629C49.226 18.3689 50.222 16.06 50.222 13.4568ZM42.2541 18.8895C39.1982 18.8895 37.3647 16.4675 37.3647 13.4568C37.3647 10.4462 39.1982 8.02414 42.2541 8.02414C45.31 8.02414 47.1435 10.4462 47.1435 13.4568C47.1435 15.1093 46.6002 16.5806 45.6042 17.5766L44.3366 15.9921H41.3486L43.5443 18.7311C43.1369 18.8443 42.7068 18.8895 42.2541 18.8895Z" fill="#1D1919"/>
<path d="M55.2915 21.6059C57.374 21.6059 58.6869 19.9082 59.2755 18.7311C59.366 18.55 59.4339 18.4142 59.615 18.4594C59.9093 18.5274 59.7735 18.8443 59.6829 19.048C59.4792 19.5233 59.3207 19.9534 59.3207 20.6778V21.4248H62.2182V9.47286H59.3207V14.3396C59.3207 17.1013 57.7815 18.9801 56.1064 18.9801C54.5898 18.9801 53.888 18.2331 53.888 15.5394V9.47286H50.9906V16.5354C50.9906 19.9308 52.711 21.6059 55.2915 21.6059Z" fill="#1D1919"/>
<path d="M74.5814 15.2904C74.5814 10.9442 71.7066 9.29177 68.945 9.29177C65.3006 9.29177 62.9917 11.7138 62.9917 15.4488C62.9917 19.0027 65.1195 21.6059 68.9903 21.6059C72.182 21.6059 73.8571 19.7271 74.3777 17.2597H71.435C71.0955 18.3236 70.3937 19.0706 69.0129 19.0706C67.202 19.0706 66.0249 17.9841 65.8212 16.1732H74.5135C74.5588 15.8336 74.5814 15.6073 74.5814 15.2904ZM65.9344 14.1812C66.2287 12.7551 67.0662 11.6459 69.0356 11.6459C70.7106 11.6459 71.5708 12.7325 71.684 14.1812H65.9344Z" fill="#1D1919"/>
<path d="M74.9792 17.3955C75.0923 19.9534 76.9259 21.6059 80.3892 21.6059C83.9205 21.6059 85.8445 20.1798 85.8445 17.6898C85.8445 15.2904 83.7394 14.3396 80.8193 14.0454C78.4878 13.819 78.2388 13.3437 78.2388 12.7778C78.2388 12.0987 78.7368 11.5554 80.3892 11.5554C82.0643 11.5554 82.5623 12.3929 82.6302 13.1399L85.4824 13.1399C85.3239 10.9669 83.6036 9.29177 80.4571 9.29177C77.0617 9.29177 75.3413 10.9895 75.3413 12.9362C75.3413 14.2717 75.8167 16.1732 79.4838 16.6259C81.77 16.8975 82.9471 17.0334 82.9471 17.9162C82.9471 18.7084 82.3359 19.3423 80.4798 19.3423C78.3746 19.3423 77.854 18.2784 77.8313 17.3955H74.9792Z" fill="#1D1919"/>
<path d="M94.2272 12.0081V9.47286L90.9676 9.47286V6.21325H88.0701V9.47286L85.8971 9.47286V12.0081L88.0701 12.0081V17.7577C88.0701 20.6325 89.202 21.4248 91.6014 21.4248H94.2272V18.8895H92.2126C90.9902 18.8895 90.9676 18.7763 90.9676 17.4634V12.0081L94.2272 12.0081Z" fill="#1D1919"/>
<path d="M97.9399 5.12671L95.0424 5.12671V21.4248H97.9399V20.9042C97.9399 20.4514 97.8267 20.0892 97.623 19.6818C97.5098 19.4554 97.4193 19.2291 97.6683 19.1385C97.872 19.0706 97.9625 19.297 98.0078 19.3649C98.7322 20.6778 99.9771 21.6059 101.788 21.6059C104.889 21.6059 106.994 18.8895 106.994 15.4488C106.994 12.0081 104.889 9.29177 101.788 9.29177C99.9319 9.29177 98.7322 10.2425 98.0078 11.5101C97.9625 11.6007 97.8267 11.8949 97.6003 11.7818C97.374 11.6686 97.5324 11.3969 97.623 11.1706C97.8267 10.7631 97.9399 10.4009 97.9399 9.92559V5.12671ZM101.109 18.9801C99.2075 18.9801 97.9399 17.3503 97.9399 15.4488C97.9399 13.5474 99.2075 11.9176 101.109 11.9176C103.146 11.9176 104.097 13.5474 104.097 15.4488C104.097 17.3503 103.146 18.9801 101.109 18.9801Z" fill="#1D1919"/>
<path d="M113.564 9.29177C109.829 9.29177 107.588 12.0534 107.588 15.4488C107.588 18.8443 109.829 21.6059 113.564 21.6059C117.299 21.6059 119.54 18.8443 119.54 15.4488C119.54 12.0534 117.299 9.29177 113.564 9.29177ZM113.564 18.9801C111.594 18.9801 110.485 17.3955 110.485 15.4488C110.485 13.5021 111.594 11.9176 113.564 11.9176C115.533 11.9176 116.642 13.5021 116.642 15.4488C116.642 17.3955 115.533 18.9801 113.564 18.9801Z" fill="#1D1919"/>
<path d="M126.015 9.29177C122.28 9.29177 120.039 12.0534 120.039 15.4488C120.039 18.8443 122.28 21.6059 126.015 21.6059C129.75 21.6059 131.991 18.8443 131.991 15.4488C131.991 12.0534 129.75 9.29177 126.015 9.29177ZM126.015 18.9801C124.046 18.9801 122.937 17.3955 122.937 15.4488C122.937 13.5021 124.046 11.9176 126.015 11.9176C127.985 11.9176 129.094 13.5021 129.094 15.4488C129.094 17.3955 127.985 18.9801 126.015 18.9801Z" fill="#1D1919"/>
<path d="M144.001 21.4248L138.659 14.4755L143.639 9.47286H140.017L135.467 14.3623C135.399 14.4302 135.263 14.566 135.082 14.4302C134.946 14.317 134.992 14.1586 135.082 14.0454C135.444 13.5927 135.671 13.2078 135.671 12.2571V5.12671H132.773V21.4248L135.671 21.4248V17.4634L136.712 16.4222L140.379 21.4248H144.001Z" fill="#1D1919"/>
<g clip-path="url(#clip0_78_8759)">
<path d="M6.5006 11.6686C5.29374 12.6834 4.16916 13.7806 3.07201 14.8503V11.0651C5.45831 8.34968 9.87433 4.61938 15.2504 4.61938C19.6664 4.61938 24.0824 7.19767 27.4287 11.0651V14.8503C25.399 12.7657 22.903 10.544 20.3247 9.11768C21.7784 12.3543 20.5989 15.152 19.3372 16.7154L19.7761 17.264C21.4218 16.0023 22.9852 14.5211 24.3292 13.0948V16.9623C21.0104 20.8297 16.6492 23.3532 12.2332 23.3532C7.78975 23.3532 3.37373 20.8297 0 16.9623V13.0948C3.37373 16.5783 7.78975 20.2812 12.2332 20.2812C13.1658 20.2812 14.1258 20.1166 15.0035 19.8149L14.8389 19.3212C9.62747 19.8972 6.17145 15.7829 6.5006 11.6686ZM0 27.7143H27.4287V17.6206C27.4287 17.6206 26.167 19.0194 24.3292 20.2812V24.6423H3.07201V22.832C1.28915 21.68 0 20.2812 0 20.2812V27.7143ZM0 10.352C0 10.352 1.28915 8.98054 3.07201 7.74625V3.35766H24.3292V5.14052C26.1944 6.31996 27.4287 7.74625 27.4287 7.74625V3.35766H24.3292V0.285645H0V10.352ZM13.1109 10.3794C14.2629 10.3794 15.2229 11.3943 15.2229 12.5188H15.7989C15.7989 11.3943 16.7589 10.3794 17.9384 10.3794V9.77597C16.7589 9.77597 15.7989 8.81597 15.7989 7.69139H15.2229C15.2229 8.81597 14.2629 9.77597 13.1109 9.77597V10.3794Z" fill="#1D1919"/>
</g>
<defs>
<clipPath id="clip0_78_8759">
<rect width="27.4287" height="27.4287" fill="white" transform="translate(0 0.285645)"/>
</clipPath>
</defs>
</svg>
