<svg width="347" height="56" viewBox="0 0 347 56" fill="none" xmlns="http://www.w3.org/2000/svg">
<path d="M50.2857 26.2857C50.2857 12.0714 40.8571 0.57143 25.1429 0.57143C9.42857 0.57143 0 12.0714 0 26.2857C0 40.5 9.42857 52 25.1429 52C28.7857 52 32.1429 51.3571 35.0714 50.2143L39.7143 56H49.1428L41.5 46.5C47.1428 41.7857 50.2857 34.5 50.2857 26.2857ZM25.1429 43.4286C15.5 43.4286 9.71428 35.7857 9.71428 26.2857C9.71428 16.7857 15.5 9.14286 25.1429 9.14286C34.7857 9.14286 40.5714 16.7857 40.5714 26.2857C40.5714 31.5 38.8571 36.1429 35.7143 39.2857L31.7143 34.2857H22.2857L29.2143 42.9286C27.9286 43.2857 26.5714 43.4286 25.1429 43.4286Z" fill="#B6F72B"/>
<path d="M66.2823 52C72.8538 52 76.9966 46.6429 78.8538 42.9286C79.1395 42.3571 79.3538 41.9286 79.9252 42.0714C80.8538 42.2857 80.4252 43.2857 80.1395 43.9286C79.4966 45.4286 78.9966 46.7857 78.9966 49.0714V51.4286H88.1395L88.1395 13.7143L78.9966 13.7143V29.0714C78.9966 37.7857 74.1395 43.7143 68.8538 43.7143C64.0681 43.7143 61.8538 41.3571 61.8538 32.8571L61.8538 13.7143L52.7109 13.7143L52.7109 36C52.7109 46.7143 58.1395 52 66.2823 52Z" fill="#B6F72B"/>
<path d="M127.152 32.0714C127.152 18.3571 118.08 13.1429 109.366 13.1429C97.8661 13.1429 90.5803 20.7857 90.5803 32.5714C90.5803 43.7857 97.2946 52 109.509 52C119.58 52 124.866 46.0714 126.509 38.2857H117.223C116.152 41.6429 113.937 44 109.58 44C103.866 44 100.152 40.5714 99.5089 34.8571L126.937 34.8571C127.08 33.7857 127.152 33.0714 127.152 32.0714ZM99.8661 28.5714C100.795 24.0714 103.437 20.5714 109.652 20.5714C114.937 20.5714 117.652 24 118.009 28.5714H99.8661Z" fill="#B6F72B"/>
<path d="M128.407 38.7143C128.764 46.7857 134.55 52 145.478 52C156.621 52 162.692 47.5 162.692 39.6429C162.692 32.0714 156.05 29.0714 146.835 28.1429C139.478 27.4286 138.693 25.9286 138.693 24.1429C138.693 22 140.264 20.2857 145.478 20.2857C150.764 20.2857 152.335 22.9286 152.55 25.2857H161.55C161.05 18.4286 155.621 13.1429 145.692 13.1429C134.978 13.1429 129.55 18.5 129.55 24.6429C129.55 28.8571 131.05 34.8571 142.621 36.2857C149.835 37.1429 153.55 37.5714 153.55 40.3571C153.55 42.8571 151.621 44.8571 145.764 44.8571C139.121 44.8571 137.478 41.5 137.407 38.7143H128.407Z" fill="#B6F72B"/>
<path d="M189.144 21.7143V13.7143L178.858 13.7143V3.42857L169.715 3.42857V13.7143H162.858V21.7143L169.715 21.7143V39.8571C169.715 48.9286 173.287 51.4286 180.858 51.4286H189.144V43.4286H182.787C178.93 43.4286 178.858 43.0714 178.858 38.9286V21.7143L189.144 21.7143Z" fill="#B6F72B"/>
<path d="M200.859 0L191.716 0V51.4286L200.859 51.4286V49.7857C200.859 48.3571 200.502 47.2143 199.859 45.9286C199.502 45.2143 199.216 44.5 200.002 44.2143C200.645 44 200.931 44.7143 201.074 44.9286C203.359 49.0714 207.288 52 213.002 52C222.788 52 229.431 43.4286 229.431 32.5714C229.431 21.7143 222.788 13.1429 213.002 13.1429C207.145 13.1429 203.359 16.1429 201.074 20.1429C200.931 20.4286 200.502 21.3571 199.788 21C199.074 20.6429 199.574 19.7857 199.859 19.0714C200.502 17.7857 200.859 16.6429 200.859 15.1429V0ZM210.859 43.7143C204.859 43.7143 200.859 38.5714 200.859 32.5714C200.859 26.5714 204.859 21.4286 210.859 21.4286C217.288 21.4286 220.288 26.5714 220.288 32.5714C220.288 38.5714 217.288 43.7143 210.859 43.7143Z" fill="#B6F72B"/>
<path d="M250.16 13.1429C238.374 13.1429 231.303 21.8571 231.303 32.5714C231.303 43.2857 238.374 52 250.16 52C261.946 52 269.017 43.2857 269.017 32.5714C269.017 21.8571 261.946 13.1429 250.16 13.1429ZM250.16 43.7143C243.946 43.7143 240.446 38.7143 240.446 32.5714C240.446 26.4286 243.946 21.4286 250.16 21.4286C256.374 21.4286 259.874 26.4286 259.874 32.5714C259.874 38.7143 256.374 43.7143 250.16 43.7143Z" fill="#B6F72B"/>
<path d="M289.451 13.1429C277.666 13.1429 270.594 21.8571 270.594 32.5714C270.594 43.2857 277.666 52 289.451 52C301.237 52 308.309 43.2857 308.309 32.5714C308.309 21.8571 301.237 13.1429 289.451 13.1429ZM289.451 43.7143C283.237 43.7143 279.737 38.7143 279.737 32.5714C279.737 26.4286 283.237 21.4286 289.451 21.4286C295.666 21.4286 299.166 26.4286 299.166 32.5714C299.166 38.7143 295.666 43.7143 289.451 43.7143Z" fill="#B6F72B"/>
<path d="M346.205 51.4286L329.348 29.5L345.062 13.7143L333.633 13.7143L319.276 29.1429C319.062 29.3571 318.633 29.7857 318.062 29.3571C317.633 29 317.776 28.5 318.062 28.1429C319.205 26.7143 319.919 25.5 319.919 22.5V0L310.776 0V51.4286H319.919V38.9286L323.205 35.6429L334.776 51.4286H346.205Z" fill="#B6F72B"/>
</svg>
