<svg width="40" height="40" viewBox="0 0 40 40" fill="none" xmlns="http://www.w3.org/2000/svg">
<g filter="url(#filter0_d_158_6208)">
<rect x="4" y="2" width="32" height="32" rx="16" fill="white"/>
<path d="M24.9811 28.6704C24.8533 28.7194 24.7505 28.5631 24.841 28.4602C27.2997 25.6716 28.7914 22.01 28.7914 17.9999C28.7914 13.9899 27.2997 10.3282 24.841 7.53943C24.7505 7.43671 24.8533 7.28033 24.9811 7.32952C29.2665 8.97798 32.3078 13.1338 32.3078 17.9999C32.3078 22.866 29.2665 27.0218 24.9811 28.6704Z" fill="#00C2FF"/>
<path d="M25.9244 11.2822C25.9815 11.4121 25.8003 11.5425 25.6857 11.459C25.1515 11.0699 24.2047 10.5275 23.077 10.5275C20.8792 10.5275 17.8023 13.1648 17.8023 18C17.8023 22.8352 20.0001 25.4725 22.6374 25.4725C24.058 25.4725 25.1112 24.9217 25.6786 24.532C25.7955 24.4517 25.9815 24.588 25.9244 24.7178C24.5034 27.9486 21.5963 30.3077 18.2418 30.3077C12.9011 30.3077 7.69238 24.7974 7.69238 18C7.69238 11.2027 12.9011 5.69232 18.2418 5.69232C21.5963 5.69232 24.5034 8.05144 25.9244 11.2822Z" fill="url(#paint0_radial_158_6208)"/>
</g>
<defs>
<filter id="filter0_d_158_6208" x="0" y="0" width="40" height="40" filterUnits="userSpaceOnUse" color-interpolation-filters="sRGB">
<feFlood flood-opacity="0" result="BackgroundImageFix"/>
<feColorMatrix in="SourceAlpha" type="matrix" values="0 0 0 0 0 0 0 0 0 0 0 0 0 0 0 0 0 0 127 0" result="hardAlpha"/>
<feOffset dy="2"/>
<feGaussianBlur stdDeviation="2"/>
<feColorMatrix type="matrix" values="0 0 0 0 0.113725 0 0 0 0 0.0980392 0 0 0 0 0.0980392 0 0 0 0.1 0"/>
<feBlend mode="normal" in2="BackgroundImageFix" result="effect1_dropShadow_158_6208"/>
<feBlend mode="normal" in="SourceGraphic" in2="effect1_dropShadow_158_6208" result="shape"/>
</filter>
<radialGradient id="paint0_radial_158_6208" cx="0" cy="0" r="1" gradientUnits="userSpaceOnUse" gradientTransform="translate(22.6374 18) rotate(180) scale(13.2806 17.7075)">
<stop offset="0.156146" stop-color="#006585"/>
<stop offset="1" stop-color="#00C2FF"/>
</radialGradient>
</defs>
</svg>
