<svg width="20" height="21" viewBox="0 0 20 21" fill="none" xmlns="http://www.w3.org/2000/svg">
<path d="M9.99999 18.3354C5.39749 18.3354 1.66666 14.6045 1.66666 10.002C1.66666 5.39953 5.39749 1.6687 9.99999 1.6687C14.6025 1.6687 18.3333 5.39953 18.3333 10.002C18.3333 14.6045 14.6025 18.3354 9.99999 18.3354ZM9.99999 16.6687C11.7681 16.6687 13.4638 15.9663 14.714 14.7161C15.9643 13.4658 16.6667 11.7701 16.6667 10.002C16.6667 8.23392 15.9643 6.53823 14.714 5.28799C13.4638 4.03775 11.7681 3.33537 9.99999 3.33537C8.23188 3.33537 6.53619 4.03775 5.28594 5.28799C4.0357 6.53823 3.33332 8.23392 3.33332 10.002C3.33332 11.7701 4.0357 13.4658 5.28594 14.7161C6.53619 15.9663 8.23188 16.6687 9.99999 16.6687ZM9.99999 8.8237L12.3567 6.4662L13.5358 7.64537L11.1783 10.002L13.5358 12.3587L12.3567 13.5379L9.99999 11.1804L7.64332 13.5379L6.46416 12.3587L8.82166 10.002L6.46416 7.64537L7.64332 6.4662L9.99999 8.8237Z" fill="#1D1919"/>
</svg>
