<svg width="76" height="28" viewBox="0 0 76 28" fill="none" xmlns="http://www.w3.org/2000/svg">
<path d="M37.6211 13.4118C36.9307 13.1346 36.0874 12.9035 35.0914 12.7181H35.0702C34.1026 12.5475 33.3766 12.3908 32.8928 12.2482C32.409 12.1064 32.0284 11.9142 31.7507 11.6721C31.473 11.4304 31.3346 11.096 31.3346 10.6689C31.3346 10.0428 31.5696 9.56617 32.039 9.23895C32.5089 8.91174 33.1277 8.74793 33.896 8.74793C34.7358 8.74793 35.4148 8.96127 35.9346 9.38838C36.4011 9.77189 36.6868 10.2591 36.7918 10.8492C36.8125 10.9669 36.912 11.0536 37.0314 11.0549L39.3934 11.0727C39.5382 11.074 39.6542 10.9495 39.6398 10.8052C39.5606 10.0157 39.3003 9.29779 38.8592 8.65184C38.3682 7.9335 37.6922 7.37474 36.8312 6.976C35.9702 6.57767 34.9919 6.3783 33.896 6.3783C32.8572 6.3783 31.9217 6.57047 31.0891 6.95483C30.2569 7.33919 29.6093 7.87254 29.1466 8.55575C28.6839 9.23895 28.4528 10.0072 28.4528 10.861C28.4528 11.8003 28.659 12.5547 29.0717 13.1236C29.4844 13.6929 30.0249 14.1234 30.6938 14.4151C31.3626 14.7067 32.1664 14.9378 33.1057 15.1089L33.2124 15.13C34.208 15.315 34.9521 15.4788 35.4432 15.621C35.9342 15.7637 36.3215 15.9626 36.6064 16.2187C36.8909 16.4748 37.0331 16.8236 37.0331 17.2647C37.0331 17.8912 36.777 18.3818 36.2648 18.7374C35.7526 19.0934 35.0906 19.2712 34.2795 19.2712C33.3114 19.2712 32.5292 19.0256 31.9315 18.5346C31.3875 18.088 31.0675 17.5145 30.9714 16.8143C30.9549 16.6933 30.8542 16.6014 30.7323 16.5997L28.3732 16.5642C28.2297 16.562 28.1137 16.6831 28.1247 16.8262C28.1916 17.6872 28.4608 18.4631 28.9324 19.1539C29.4518 19.9154 30.1667 20.5131 31.0777 20.947C31.9882 21.3813 33.0342 21.598 34.2156 21.598C35.3111 21.598 36.2932 21.3991 37.1613 21.0003C38.0291 20.602 38.7089 20.0505 39.2 19.3461C39.691 18.6417 39.9365 17.8484 39.9365 16.9659C39.9365 16.0266 39.7227 15.2689 39.296 14.6923C38.8694 14.1158 38.3106 13.6891 37.6206 13.4114L37.6211 13.4118Z" fill="#121312"/>
<path d="M52.126 19.1649H51.7573C51.544 19.1649 51.3763 19.1082 51.2557 18.9939C51.1346 18.8805 51.0741 18.6951 51.0741 18.439V14.3617C51.0741 13.0669 50.6614 12.0814 49.8364 11.4054C49.0109 10.7298 48.039 10.3853 46.5164 10.3853C45.0789 10.3853 43.9559 10.6976 43.0737 11.3093C42.2695 11.8672 41.7848 12.6313 41.6188 13.6028C41.593 13.7539 41.7073 13.8923 41.8601 13.8923H44.0295C44.1383 13.8923 44.2357 13.8208 44.2645 13.7158C44.3635 13.3564 44.5819 13.063 44.9197 12.8357C45.3109 12.5724 45.7756 12.4408 46.3877 12.4408C47.5421 12.4408 48.3629 13.1524 48.3629 14.2123V14.5437C48.3629 14.6792 48.2532 14.7888 48.1178 14.7888H46.1528C44.5591 14.7888 43.3493 15.1021 42.5243 15.7281C41.6988 16.3546 41.2861 17.244 41.2861 18.3962C41.2861 19.3926 41.6633 20.1753 42.4176 20.7442C42.9836 21.1709 43.66 21.4173 44.3563 21.5252C44.8884 21.6078 45.4349 21.6378 45.9683 21.5523C46.527 21.463 46.9808 21.2327 47.435 20.9043C47.843 20.6096 48.1834 20.2321 48.4941 19.7715C48.6456 19.5112 49.0431 19.6157 49.0431 19.9167V20.2786C49.0427 20.9364 49.5756 21.4698 50.2334 21.4698H52.126C52.2614 21.4698 52.3711 21.3601 52.3711 21.2247V19.4096C52.3711 19.2741 52.2614 19.1645 52.126 19.1645V19.1649ZM48.3633 16.9663C48.3633 17.4929 48.2528 17.9517 48.0323 18.3429C47.57 19.1632 46.7429 19.5916 45.8121 19.5916C45.2711 19.5916 44.8372 19.4638 44.51 19.2077C44.1823 18.9516 44.019 18.61 44.019 18.1829C44.019 17.6994 44.2005 17.3257 44.5633 17.0624C44.9261 16.7995 45.4417 16.6674 46.1109 16.6674H48.1182C48.2536 16.6674 48.3633 16.7771 48.3633 16.9125V16.9663Z" fill="#121312"/>
<path d="M60.0346 6.53455H57.2116C55.7224 6.53455 54.5152 7.7418 54.5152 9.23096V10.4158C54.5152 10.5512 54.4056 10.6609 54.2701 10.6609H52.6582C52.5227 10.6609 52.4131 10.7705 52.4131 10.906V12.7422C52.4131 12.8777 52.5227 12.9873 52.6582 12.9873H54.2701C54.4056 12.9873 54.5152 13.097 54.5152 13.2324V21.2252C54.5152 21.3606 54.6248 21.4702 54.7603 21.4702H56.9597C57.0952 21.4702 57.2048 21.3606 57.2048 21.2252V13.2324C57.2048 13.097 57.3145 12.9873 57.4499 12.9873H60.013C60.1485 12.9873 60.2581 12.8777 60.2581 12.7422V10.906C60.2581 10.7705 60.1485 10.6609 60.013 10.6609H57.4499C57.3145 10.6609 57.2048 10.5512 57.2048 10.4158V9.35118C57.2048 9.08027 57.4245 8.861 57.695 8.861H60.0342C60.1696 8.861 60.2793 8.75137 60.2793 8.61591V6.77964C60.2793 6.64418 60.1696 6.53455 60.0342 6.53455H60.0346Z" fill="#121312"/>
<path d="M70.8103 12.8678C70.3336 12.0712 69.6822 11.4591 68.8572 11.032C68.0317 10.6053 67.078 10.3856 65.9969 10.3856C64.9158 10.3856 63.9829 10.6231 63.1579 11.0853C62.3324 11.548 61.692 12.2024 61.2369 13.049C60.7814 13.896 60.5537 14.8883 60.5537 16.0269C60.5537 17.1656 60.7886 18.1155 61.2581 18.9621C61.7279 19.8087 62.4001 20.4597 63.2751 20.9152C64.1501 21.3707 65.1783 21.5984 66.3597 21.5984C67.2702 21.5984 68.0851 21.4312 68.8038 21.0968C69.5222 20.7628 70.1021 20.3035 70.5432 19.7202C70.9207 19.2207 71.1785 18.6738 71.3165 18.0799C71.3525 17.9259 71.2361 17.7777 71.0778 17.7777H68.8682C68.7623 17.7777 68.6696 17.8463 68.6358 17.9466C68.48 18.4067 68.2053 18.7703 67.8112 19.037C67.3697 19.3359 66.8219 19.4853 66.1675 19.4853C65.6265 19.4853 65.1537 19.3714 64.7482 19.1437C64.3427 18.9164 64.0227 18.5959 63.7877 18.1832C63.695 18.0203 63.6192 17.848 63.5587 17.6706C63.4939 17.4801 63.4474 17.2837 63.4152 17.0848C63.4042 17.0153 63.3941 16.9451 63.3856 16.8748C63.3691 16.73 63.4838 16.6035 63.6294 16.6035H71.2492C71.3728 16.6035 71.4787 16.512 71.4926 16.3889C71.5032 16.2987 71.5104 16.2068 71.5142 16.1124C71.5214 15.9419 71.5248 15.7852 71.5248 15.643C71.5248 14.5903 71.2865 13.6653 70.8098 12.8683L70.8103 12.8678ZM68.5206 14.746H63.7484C63.5917 14.746 63.4736 14.6008 63.5083 14.448C63.5845 14.1132 63.7166 13.811 63.9046 13.54C64.1463 13.1917 64.4595 12.9246 64.8439 12.7396C65.2282 12.5546 65.6477 12.4619 66.1032 12.4619C66.8431 12.4619 67.4552 12.6613 67.939 13.0596C68.3543 13.4016 68.6277 13.8639 68.7602 14.4468C68.7949 14.6 68.6777 14.746 68.5206 14.746Z" fill="#121312"/>
<path d="M22.6367 13.9985H20.5448C19.92 13.9985 19.4137 14.5048 19.4137 15.1296V18.1659C19.4137 18.7907 18.9074 19.297 18.2827 19.297H9.96016C9.33537 19.297 8.8291 19.8032 8.8291 20.428V22.52C8.8291 23.1448 9.33537 23.651 9.96016 23.651H18.7644C19.3892 23.651 19.8882 23.1448 19.8882 22.52V20.8416C19.8882 20.2168 20.3945 19.7736 21.0193 19.7736H22.6363C23.2611 19.7736 23.7673 19.2673 23.7673 18.6426V15.1165C23.7673 14.4917 23.2611 13.9985 22.6363 13.9985H22.6367Z" fill="#121312"/>
<path d="M8.82867 9.84254C8.82867 9.21775 9.33493 8.71148 9.95972 8.71148H18.2771C18.9019 8.71148 19.4082 8.20522 19.4082 7.58043V5.48848C19.4082 4.86369 18.9019 4.35742 18.2771 4.35742H9.47759C8.8528 4.35742 8.34653 4.86369 8.34653 5.48848V7.1004C8.34653 7.72519 7.84026 8.23146 7.21547 8.23146H5.60567C4.98088 8.23146 4.47461 8.73773 4.47461 9.36252V12.8924C4.47461 13.5172 4.98299 13.9981 5.60778 13.9981H7.69973C8.32452 13.9981 8.83078 13.4918 8.83078 12.867L8.82867 9.84296V9.84254Z" fill="#121312"/>
<path d="M13.1363 11.7994H15.1457C15.8005 11.7994 16.3318 12.3311 16.3318 12.9855V14.9949C16.3318 15.6498 15.8001 16.181 15.1457 16.181H13.1363C12.4814 16.181 11.9502 15.6493 11.9502 14.9949V12.9855C11.9502 12.3307 12.4819 11.7994 13.1363 11.7994V11.7994Z" fill="#121312"/>
</svg>
