<svg width="40" height="40" viewBox="0 0 40 40" fill="none" xmlns="http://www.w3.org/2000/svg">
<g filter="url(#filter0_d_158_6226)">
<rect x="4" y="2" width="32" height="32" rx="16" fill="white"/>
<g clip-path="url(#clip0_158_6226)">
<path d="M28.5185 17.9985H26.4266C25.8018 17.9985 25.2955 18.5047 25.2955 19.1295V22.1659C25.2955 22.7906 24.7893 23.2969 24.1645 23.2969H15.842C15.2172 23.2969 14.7109 23.8032 14.7109 24.428V26.5199C14.7109 27.1447 15.2172 27.651 15.842 27.651H24.6462C25.271 27.651 25.7701 27.1447 25.7701 26.5199V24.8415C25.7701 24.2167 26.2763 23.7736 26.9011 23.7736H28.5181C29.1429 23.7736 29.6492 23.2673 29.6492 22.6425V19.1164C29.6492 18.4916 29.1429 17.9985 28.5181 17.9985H28.5185Z" fill="#121312"/>
<path d="M14.7105 13.8425C14.7105 13.2177 15.2168 12.7115 15.8416 12.7115H24.159C24.7838 12.7115 25.29 12.2052 25.29 11.5804V9.48848C25.29 8.86369 24.7838 8.35742 24.159 8.35742H15.3594C14.7346 8.35742 14.2284 8.86369 14.2284 9.48848V11.1004C14.2284 11.7252 13.7221 12.2315 13.0973 12.2315H11.4875C10.8627 12.2315 10.3564 12.7377 10.3564 13.3625V16.8924C10.3564 17.5172 10.8648 17.9981 11.4896 17.9981H13.5816C14.2064 17.9981 14.7126 17.4918 14.7126 16.867L14.7105 13.843V13.8425Z" fill="#121312"/>
<path d="M19.0181 15.7994H21.0275C21.6824 15.7994 22.2136 16.3311 22.2136 16.9855V18.9949C22.2136 19.6498 21.6819 20.181 21.0275 20.181H19.0181C18.3633 20.181 17.832 19.6493 17.832 18.9949V16.9855C17.832 16.3307 18.3637 15.7994 19.0181 15.7994V15.7994Z" fill="#121312"/>
</g>
</g>
<defs>
<filter id="filter0_d_158_6226" x="0" y="0" width="40" height="40" filterUnits="userSpaceOnUse" color-interpolation-filters="sRGB">
<feFlood flood-opacity="0" result="BackgroundImageFix"/>
<feColorMatrix in="SourceAlpha" type="matrix" values="0 0 0 0 0 0 0 0 0 0 0 0 0 0 0 0 0 0 127 0" result="hardAlpha"/>
<feOffset dy="2"/>
<feGaussianBlur stdDeviation="2"/>
<feColorMatrix type="matrix" values="0 0 0 0 0.113725 0 0 0 0 0.0980392 0 0 0 0 0.0980392 0 0 0 0.1 0"/>
<feBlend mode="normal" in2="BackgroundImageFix" result="effect1_dropShadow_158_6226"/>
<feBlend mode="normal" in="SourceGraphic" in2="effect1_dropShadow_158_6226" result="shape"/>
</filter>
<clipPath id="clip0_158_6226">
<rect width="20" height="20" fill="white" transform="translate(10 8)"/>
</clipPath>
</defs>
</svg>
