<svg width="24" height="24" viewBox="0 0 24 24" fill="none" xmlns="http://www.w3.org/2000/svg">
<path d="M3.3403 16.9999C2.91758 16.2689 2.58897 15.4874 2.3623 14.6739C2.85561 14.423 3.2699 14.0406 3.55933 13.5688C3.84877 13.0971 4.00207 12.5545 4.00228 12.0011C4.00248 11.4476 3.84959 10.9049 3.56051 10.4329C3.27143 9.961 2.85742 9.57821 2.3643 9.32694C2.81634 7.69243 3.67703 6.1999 4.8653 4.98994C5.3294 5.29167 5.86792 5.45911 6.42128 5.47373C6.97464 5.48834 7.52126 5.34958 8.00063 5.07278C8.48001 4.79598 8.87346 4.39194 9.13743 3.90539C9.4014 3.41883 9.52561 2.86872 9.4963 2.31594C11.1384 1.89157 12.8615 1.89226 14.5033 2.31795C14.4743 2.87071 14.5987 3.42073 14.8629 3.90715C15.1271 4.39357 15.5207 4.79742 16.0001 5.07401C16.4796 5.35059 17.0262 5.48913 17.5796 5.4743C18.1329 5.45946 18.6713 5.29183 19.1353 4.98994C19.7143 5.57994 20.2283 6.25095 20.6603 6.99995C21.0933 7.74895 21.4173 8.52995 21.6383 9.32595C21.145 9.57685 20.7307 9.95932 20.4413 10.4311C20.1518 10.9028 19.9985 11.4454 19.9983 11.9988C19.9981 12.5523 20.151 13.095 20.4401 13.5669C20.7292 14.0389 21.1432 14.4217 21.6363 14.6729C21.1843 16.3075 20.3236 17.8 19.1353 19.0099C18.6712 18.7082 18.1327 18.5408 17.5793 18.5262C17.026 18.5115 16.4794 18.6503 16 18.9271C15.5206 19.2039 15.1272 19.6079 14.8632 20.0945C14.5992 20.5811 14.475 21.1312 14.5043 21.6839C12.8622 22.1083 11.1391 22.1076 9.4973 21.6819C9.52635 21.1292 9.4019 20.5792 9.13773 20.0927C8.87355 19.6063 8.47995 19.2025 8.00048 18.9259C7.52101 18.6493 6.97436 18.5108 6.42103 18.5256C5.8677 18.5404 5.32927 18.7081 4.8653 19.0099C4.2743 18.4069 3.7619 17.7315 3.3403 16.9999ZM9.0003 17.1959C10.0659 17.8106 10.8672 18.797 11.2503 19.9659C11.7493 20.0129 12.2503 20.0139 12.7493 19.9669C13.1327 18.7978 13.9343 17.8114 15.0003 17.1969C16.0655 16.5806 17.3208 16.3794 18.5253 16.6319C18.8153 16.2239 19.0653 15.7889 19.2733 15.3339C18.4527 14.4174 17.9994 13.2302 18.0003 11.9999C18.0003 10.7399 18.4703 9.56295 19.2733 8.66595C19.0638 8.21109 18.8128 7.77658 18.5233 7.36795C17.3196 7.62025 16.0651 7.41942 15.0003 6.80395C13.9347 6.18932 13.1335 5.20293 12.7503 4.03394C12.2513 3.98694 11.7503 3.98594 11.2513 4.03294C10.8679 5.20209 10.0663 6.1885 9.0003 6.80295C7.93509 7.41926 6.67978 7.62046 5.4753 7.36795C5.18587 7.77623 4.93544 8.21081 4.7273 8.66595C5.54788 9.5825 6.00119 10.7697 6.0003 11.9999C6.0003 13.2599 5.5303 14.4369 4.7273 15.3339C4.93678 15.7888 5.18784 16.2233 5.4773 16.6319C6.68102 16.3796 7.93551 16.5805 9.0003 17.1959ZM12.0003 14.9999C11.2047 14.9999 10.4416 14.6839 9.87898 14.1213C9.31637 13.5587 9.0003 12.7956 9.0003 11.9999C9.0003 11.2043 9.31637 10.4412 9.87898 9.87862C10.4416 9.31602 11.2047 8.99995 12.0003 8.99995C12.796 8.99995 13.559 9.31602 14.1216 9.87862C14.6842 10.4412 15.0003 11.2043 15.0003 11.9999C15.0003 12.7956 14.6842 13.5587 14.1216 14.1213C13.559 14.6839 12.796 14.9999 12.0003 14.9999ZM12.0003 12.9999C12.2655 12.9999 12.5199 12.8946 12.7074 12.7071C12.8949 12.5195 13.0003 12.2652 13.0003 11.9999C13.0003 11.7347 12.8949 11.4804 12.7074 11.2928C12.5199 11.1053 12.2655 10.9999 12.0003 10.9999C11.7351 10.9999 11.4807 11.1053 11.2932 11.2928C11.1057 11.4804 11.0003 11.7347 11.0003 11.9999C11.0003 12.2652 11.1057 12.5195 11.2932 12.7071C11.4807 12.8946 11.7351 12.9999 12.0003 12.9999Z" fill="#1D1919"/>
</svg>
