<svg width="18" height="18" viewBox="0 0 18 18" fill="none" xmlns="http://www.w3.org/2000/svg">
<rect width="18" height="18" rx="9" fill="#E7E4DD"/>
<path d="M7.88889 4V5.11111H5.11111V12.8889H12.8889V10.1111H14V13.4444C14 13.5918 13.9415 13.7331 13.8373 13.8373C13.7331 13.9415 13.5918 14 13.4444 14H4.55556C4.40821 14 4.26691 13.9415 4.16272 13.8373C4.05853 13.7331 4 13.5918 4 13.4444V4.55556C4 4.40821 4.05853 4.26691 4.16272 4.16272C4.26691 4.05853 4.40821 4 4.55556 4H7.88889ZM12.1706 6.615L9 9.78556L8.21445 9L11.385 5.82944L9.55556 4H14V8.44444L12.1706 6.615Z" fill="#8D8B87"/>
</svg>
