<svg width="20" height="20" viewBox="0 0 20 20" fill="none" xmlns="http://www.w3.org/2000/svg">
<path d="M10.0001 18.3333C5.39758 18.3333 1.66675 14.6025 1.66675 9.99996C1.66675 5.39746 5.39758 1.66663 10.0001 1.66663C14.6026 1.66663 18.3334 5.39746 18.3334 9.99996C18.3334 14.6025 14.6026 18.3333 10.0001 18.3333ZM7.40842 10.975L7.41925 10.9691L8.14425 13.3608C8.23758 13.62 8.36591 13.6666 8.52175 13.645C8.67841 13.6241 8.76091 13.54 8.86341 13.4416L9.85342 12.485L11.9784 14.0583C12.3667 14.2725 12.6459 14.1616 12.7426 13.6983L14.1234 7.17996C14.2759 6.57329 14.0092 6.32996 13.5384 6.52329L5.42758 9.65663C4.87425 9.87829 4.87758 10.1883 5.32758 10.3258L7.40842 10.9758V10.975Z" fill="black"/>
</svg>
