<svg width="44" height="32" viewBox="0 0 44 32" fill="none" xmlns="http://www.w3.org/2000/svg">
<rect width="44" height="32" rx="2" fill="#E7E4DD"/>
<path d="M22.0001 24.3334C17.3976 24.3334 13.6667 20.6025 13.6667 16C13.6667 11.3975 17.3976 7.66669 22.0001 7.66669C26.6026 7.66669 30.3334 11.3975 30.3334 16C30.3334 20.6025 26.6026 24.3334 22.0001 24.3334ZM19.4084 16.975L19.4192 16.9692L20.1442 19.3609C20.2376 19.62 20.3659 19.6667 20.5217 19.645C20.6784 19.6242 20.7609 19.54 20.8634 19.4417L21.8534 18.485L23.9784 20.0584C24.3667 20.2725 24.6459 20.1617 24.7426 19.6984L26.1234 13.18C26.2759 12.5734 26.0092 12.33 25.5384 12.5234L17.4276 15.6567C16.8742 15.8784 16.8776 16.1884 17.3276 16.3259L19.4084 16.9759V16.975Z" fill="black"/>
</svg>
