<svg width="14" height="14" viewBox="0 0 14 14" fill="none" xmlns="http://www.w3.org/2000/svg">
<path d="M7.00001 13.6666C3.31801 13.6666 0.333344 10.6819 0.333344 6.99992C0.333344 3.31792 3.31801 0.333252 7.00001 0.333252C10.682 0.333252 13.6667 3.31792 13.6667 6.99992C13.6667 10.6819 10.682 13.6666 7.00001 13.6666ZM7.00001 12.3333C8.4145 12.3333 9.77105 11.7713 10.7712 10.7712C11.7714 9.77096 12.3333 8.41441 12.3333 6.99992C12.3333 5.58543 11.7714 4.22888 10.7712 3.22868C9.77105 2.22849 8.4145 1.66659 7.00001 1.66659C5.58552 1.66659 4.22897 2.22849 3.22877 3.22868C2.22858 4.22888 1.66668 5.58543 1.66668 6.99992C1.66668 8.41441 2.22858 9.77096 3.22877 10.7712C4.22897 11.7713 5.58552 12.3333 7.00001 12.3333ZM7.66668 6.99992H10.3333V8.33325H6.33334V3.66658H7.66668V6.99992Z" fill="black"/>
</svg>
