<svg version="1.1" id="Layer_1" xmlns="http://www.w3.org/2000/svg" xmlns:xlink="http://www.w3.org/1999/xlink" x="0px" y="0px"
	 width="100%" viewBox="0 0 268 88" enable-background="new 0 0 268 88" xml:space="preserve">
<path fill="#FDFEFE" opacity="1.000000" stroke="none" 
	d="
M183.000000,89.000000 
	C122.000023,89.000000 61.500042,89.000000 1.000049,89.000000 
	C1.000032,59.666698 1.000032,30.333397 1.000016,1.000072 
	C90.333275,1.000048 179.666550,1.000048 268.999878,1.000024 
	C268.999908,30.333260 268.999908,59.666519 268.999939,88.999893 
	C240.500000,89.000000 212.000000,89.000000 183.000000,89.000000 
M58.538750,56.935055 
	C58.711258,56.653133 58.883766,56.371216 59.098072,56.139565 
	C59.098072,56.139565 59.161903,56.125443 59.825748,56.022785 
	C62.281437,53.742161 64.737129,51.461536 67.526352,48.871159 
	C64.574150,46.212429 62.266224,44.133926 59.997177,41.999386 
	C59.997177,41.999386 59.942707,42.040665 59.800098,41.578434 
	C59.624577,41.292648 59.380013,41.090305 59.026722,40.247120 
	C61.272518,37.122688 63.518318,33.998260 65.980530,30.572741 
	C63.569008,28.043203 61.108753,25.462555 58.208412,22.420284 
	C56.121468,24.374027 54.216061,26.100275 52.375702,27.893288 
	C49.039345,31.143795 45.679741,30.478313 43.923653,26.180262 
	C42.287277,22.175207 40.195965,21.768888 36.870827,24.628479 
	C34.671944,26.519505 32.298981,28.208117 29.566971,29.912340 
	C29.566971,29.912340 29.125517,29.871094 29.010429,29.955149 
	C29.010429,29.955149 29.123478,29.880516 29.009476,29.209444 
	C26.788479,26.747561 24.567482,24.285677 22.002668,21.442686 
	C20.394501,23.407358 19.302576,24.741344 17.680994,26.324873 
	C17.403648,26.827280 17.126303,27.329685 16.196272,27.980032 
	C15.120558,28.876007 14.044844,29.771982 12.485309,31.070938 
	C14.660409,32.978275 16.351646,34.461315 18.335024,36.487511 
	C19.226070,37.322849 20.117117,38.158188 20.939276,39.695744 
	C18.665365,42.826679 16.391455,45.957611 14.075788,49.146038 
	C15.205773,50.667706 16.245934,52.123962 17.343237,53.535809 
	C20.826403,58.017426 22.032766,57.833866 26.007538,53.834766 
	C27.758320,52.073269 30.564745,51.360996 33.181271,50.702694 
	C34.095253,51.486763 35.009235,52.270832 36.034264,53.769012 
	C38.081001,57.890636 40.534004,57.984783 43.724285,54.827812 
	C45.533455,53.037529 47.784821,51.694111 50.192780,50.708191 
	C52.091686,52.267071 53.990593,53.825951 55.972012,55.881039 
	C56.329277,56.195850 56.686539,56.510662 57.509411,57.065258 
	C57.683849,57.058350 57.858288,57.051437 58.538750,56.935055 
M185.017059,51.819031 
	C185.705185,50.267662 186.393295,48.716293 187.304138,46.662788 
	C192.005554,51.820225 192.245895,61.288204 202.154953,57.274734 
	C199.116348,52.016438 196.093323,46.785110 193.121857,41.642994 
	C196.135223,38.284882 198.829041,35.282887 201.563736,32.235325 
	C192.494629,28.486736 190.307846,37.154762 184.830795,40.898201 
	C184.830795,34.221191 184.830795,28.282049 184.830795,22.406130 
	C182.462448,22.406130 180.419983,22.406130 178.460419,22.406130 
	C178.460419,34.454144 178.460419,46.153473 178.460419,57.800743 
	C180.786774,57.800743 182.728333,57.800743 185.016937,57.800743 
	C185.016937,55.969028 185.016937,54.344349 185.017059,51.819031 
M126.265091,30.832493 
	C118.174622,32.753735 114.219208,39.059185 115.660240,47.738003 
	C116.936699,55.425655 122.820190,59.767727 130.760727,58.882290 
	C138.398193,58.030647 142.898865,52.145157 142.411972,43.646107 
	C141.895462,34.630154 136.990097,30.517786 126.265091,30.832493 
M221.425674,50.687038 
	C219.063782,51.344383 216.567062,52.770401 214.387512,52.388092 
	C212.941147,52.134388 211.948669,49.293041 209.982361,46.525238 
	C217.384384,46.525238 223.106476,46.525238 228.765198,46.525238 
	C229.420883,37.129955 225.559326,31.571487 218.286148,30.887346 
	C210.410431,30.146530 204.924866,34.457176 204.033920,42.086960 
	C202.943726,51.422890 206.914551,57.574154 214.822037,58.799023 
	C221.472168,59.829124 227.068314,56.251957 228.038269,50.260529 
	C226.052536,50.260529 224.081985,50.260529 221.425674,50.687038 
M241.476562,68.292046 
	C242.999313,66.675301 245.073624,65.307182 245.936478,63.392982 
	C248.111359,58.568047 249.806961,53.520504 251.570129,48.518299 
	C253.523453,42.976547 255.338547,37.386074 257.218231,31.803688 
	C251.921432,30.268856 249.251892,31.606194 248.386368,36.820259 
	C247.660736,41.191444 246.047058,45.415215 244.578308,50.576763 
	C243.005859,45.466785 241.695908,41.236626 240.402802,37.001331 
	C238.407288,30.465509 238.412170,30.464018 231.200867,31.986547 
	C233.952515,39.810001 236.699097,47.588043 239.423080,55.374001 
	C241.475342,61.239933 241.015732,62.106789 234.861359,63.689507 
	C234.948044,65.342339 235.037659,67.050934 235.138168,68.967529 
	C237.400482,68.779716 239.048111,68.642944 241.476562,68.292046 
M165.792191,31.215763 
	C162.786484,31.707516 159.783630,32.218094 156.773010,32.677597 
	C156.034332,32.790337 155.226517,32.906380 154.526062,32.726528 
	C152.521515,32.211819 150.555817,31.545906 148.191467,30.822086 
	C148.191467,40.517437 148.191467,49.187809 148.191467,57.795189 
	C150.475098,57.795189 152.415009,57.795189 154.900055,57.795189 
	C154.900055,52.650497 154.872223,47.710594 154.909607,42.771183 
	C154.935593,39.339672 156.335953,36.956932 160.096558,36.824936 
	C164.392380,36.674152 164.745514,39.757263 164.780945,42.911911 
	C164.836227,47.833073 164.795593,52.755314 164.795593,57.785686 
	C167.397858,57.785686 169.467484,57.785686 171.825607,57.785686 
	C171.825607,51.443779 172.359451,45.270638 171.587631,39.265312 
	C171.231949,36.497929 168.321350,34.058910 165.792191,31.215763 
M90.468163,28.339006 
	C93.066818,28.339006 95.665474,28.339006 98.719604,28.339006 
	C98.719604,38.536789 98.719604,48.082066 98.719604,57.727974 
	C101.424080,57.727974 103.651787,57.727974 106.291672,57.727974 
	C106.291672,47.890800 106.291672,38.334789 106.291672,28.382734 
	C109.955933,28.382734 113.212112,28.382734 116.692207,28.382734 
	C116.692207,26.092800 116.692207,24.213482 116.692207,22.252871 
	C107.016502,22.252871 97.618423,22.252871 87.046646,22.252871 
	C88.011147,24.615961 88.767654,26.469473 90.468163,28.339006 
z"/>
<path fill="#BAD3F6" opacity="1.000000" stroke="none" 
	d="
M32.891891,50.172359 
	C30.564745,51.360996 27.758320,52.073269 26.007538,53.834766 
	C22.032766,57.833866 20.826403,58.017426 17.343237,53.535809 
	C16.245934,52.123962 15.205773,50.667706 14.075788,49.146038 
	C16.391455,45.957611 18.665365,42.826679 21.337975,39.339878 
	C24.202789,36.682526 26.668907,34.381039 29.360622,31.885195 
	C29.725468,31.123009 29.864710,30.555178 30.003954,29.987350 
	C32.298981,28.208117 34.671944,26.519505 36.870827,24.628479 
	C40.195965,21.768888 42.287277,22.175207 43.923653,26.180262 
	C45.679741,30.478313 49.039345,31.143795 52.375702,27.893288 
	C54.216061,26.100275 56.121468,24.374027 58.208412,22.420284 
	C61.108753,25.462555 63.569008,28.043203 65.980530,30.572741 
	C63.518318,33.998260 61.272518,37.122688 58.774403,40.621342 
	C58.340931,41.001766 58.159779,41.007969 57.661880,41.048355 
	C56.872272,41.697063 56.399414,42.311584 55.584583,42.981262 
	C53.440750,45.407421 51.638889,47.778427 49.837029,50.149437 
	C47.784821,51.694111 45.533455,53.037529 43.724285,54.827812 
	C40.534004,57.984783 38.081001,57.890636 36.343758,53.352249 
	C40.994492,50.198811 36.856724,47.171410 37.687653,43.674809 
	C34.078869,45.203007 31.327961,46.199665 32.891891,50.172359 
z"/>
<path fill="#1B1B1B" opacity="1.000000" stroke="none" 
	d="
M185.016998,52.269348 
	C185.016937,54.344349 185.016937,55.969028 185.016937,57.800743 
	C182.728333,57.800743 180.786774,57.800743 178.460419,57.800743 
	C178.460419,46.153473 178.460419,34.454144 178.460419,22.406130 
	C180.419983,22.406130 182.462448,22.406130 184.830795,22.406130 
	C184.830795,28.282049 184.830795,34.221191 184.830795,40.898201 
	C190.307846,37.154762 192.494629,28.486736 201.563736,32.235325 
	C198.829041,35.282887 196.135223,38.284882 193.121857,41.642994 
	C196.093323,46.785110 199.116348,52.016438 202.154953,57.274734 
	C192.245895,61.288204 192.005554,51.820225 187.304138,46.662788 
	C186.393295,48.716293 185.705185,50.267662 185.016998,52.269348 
z"/>
<path fill="#1D1D1D" opacity="1.000000" stroke="none" 
	d="
M126.655212,30.798046 
	C136.990097,30.517786 141.895462,34.630154 142.411972,43.646107 
	C142.898865,52.145157 138.398193,58.030647 130.760727,58.882290 
	C122.820190,59.767727 116.936699,55.425655 115.660240,47.738003 
	C114.219208,39.059185 118.174622,32.753735 126.655212,30.798046 
M126.133453,37.165497 
	C121.661278,40.440598 122.166702,44.958351 123.614479,49.282265 
	C124.985069,53.375633 130.791794,54.761848 132.715546,51.268063 
	C134.399368,48.209988 134.573471,43.834934 134.102020,40.212467 
	C133.630997,36.593182 130.151947,36.277489 126.133453,37.165497 
z"/>
<path fill="#1F1F1F" opacity="1.000000" stroke="none" 
	d="
M221.768555,50.473785 
	C224.081985,50.260529 226.052536,50.260529 228.038269,50.260529 
	C227.068314,56.251957 221.472168,59.829124 214.822037,58.799023 
	C206.914551,57.574154 202.943726,51.422890 204.033920,42.086960 
	C204.924866,34.457176 210.410431,30.146530 218.286148,30.887346 
	C225.559326,31.571487 229.420883,37.129955 228.765198,46.525238 
	C223.106476,46.525238 217.384384,46.525238 209.982361,46.525238 
	C211.948669,49.293041 212.941147,52.134388 214.387512,52.388092 
	C216.567062,52.770401 219.063782,51.344383 221.768555,50.473785 
M216.495300,36.533440 
	C214.582291,37.892319 212.669281,39.251198 210.756271,40.610077 
	C211.057678,41.029686 211.359085,41.449295 211.660492,41.868904 
	C214.922180,41.868904 218.183853,41.868904 221.445526,41.868904 
	C221.728912,41.473656 222.012299,41.078403 222.295670,40.683155 
	C220.633667,39.337669 218.971664,37.992184 216.495300,36.533440 
z"/>
<path fill="#202020" opacity="1.000000" stroke="none" 
	d="
M241.086151,68.399109 
	C239.048111,68.642944 237.400482,68.779716 235.138168,68.967529 
	C235.037659,67.050934 234.948044,65.342339 234.861359,63.689507 
	C241.015732,62.106789 241.475342,61.239933 239.423080,55.374001 
	C236.699097,47.588043 233.952515,39.810001 231.200867,31.986547 
	C238.412170,30.464018 238.407288,30.465509 240.402802,37.001331 
	C241.695908,41.236626 243.005859,45.466785 244.578308,50.576763 
	C246.047058,45.415215 247.660736,41.191444 248.386368,36.820259 
	C249.251892,31.606194 251.921432,30.268856 257.218231,31.803688 
	C255.338547,37.386074 253.523453,42.976547 251.570129,48.518299 
	C249.806961,53.520504 248.111359,58.568047 245.936478,63.392982 
	C245.073624,65.307182 242.999313,66.675301 241.086151,68.399109 
z"/>
<path fill="#1C1C1C" opacity="1.000000" stroke="none" 
	d="
M166.180710,31.343384 
	C168.321350,34.058910 171.231949,36.497929 171.587631,39.265312 
	C172.359451,45.270638 171.825607,51.443779 171.825607,57.785686 
	C169.467484,57.785686 167.397858,57.785686 164.795593,57.785686 
	C164.795593,52.755314 164.836227,47.833073 164.780945,42.911911 
	C164.745514,39.757263 164.392380,36.674152 160.096558,36.824936 
	C156.335953,36.956932 154.935593,39.339672 154.909607,42.771183 
	C154.872223,47.710594 154.900055,52.650497 154.900055,57.795189 
	C152.415009,57.795189 150.475098,57.795189 148.191467,57.795189 
	C148.191467,49.187809 148.191467,40.517437 148.191467,30.822086 
	C150.555817,31.545906 152.521515,32.211819 154.526062,32.726528 
	C155.226517,32.906380 156.034332,32.790337 156.773010,32.677597 
	C159.783630,32.218094 162.786484,31.707516 166.180710,31.343384 
z"/>
<path fill="#141414" opacity="1.000000" stroke="none" 
	d="
M89.996170,28.330996 
	C88.767654,26.469473 88.011147,24.615961 87.046646,22.252871 
	C97.618423,22.252871 107.016502,22.252871 116.692207,22.252871 
	C116.692207,24.213482 116.692207,26.092800 116.692207,28.382734 
	C113.212112,28.382734 109.955933,28.382734 106.291672,28.382734 
	C106.291672,38.334789 106.291672,47.890800 106.291672,57.727974 
	C103.651787,57.727974 101.424080,57.727974 98.719604,57.727974 
	C98.719604,48.082066 98.719604,38.536789 98.719604,28.339006 
	C95.665474,28.339006 93.066818,28.339006 89.996170,28.330996 
z"/>
<path fill="#92BAF7" opacity="1.000000" stroke="none" 
	d="
M29.135025,32.079552 
	C26.668907,34.381039 24.202789,36.682526 21.372417,38.988770 
	C20.117117,38.158188 19.226070,37.322849 18.181931,35.806042 
	C17.635544,32.693745 17.242250,30.262918 16.848957,27.832092 
	C17.126303,27.329685 17.403648,26.827280 18.289478,26.173424 
	C21.370710,25.002142 23.357590,25.371998 25.200813,27.552080 
	C26.128546,28.649361 27.792463,29.124207 29.123478,29.880516 
	C29.123478,29.880516 29.010429,29.955149 29.032785,30.281590 
	C29.081768,31.098536 29.108397,31.589045 29.135025,32.079552 
z"/>
<path fill="#93BCF7" opacity="1.000000" stroke="none" 
	d="
M55.926552,42.926102 
	C56.399414,42.311584 56.872272,41.697063 57.831448,41.287132 
	C58.859413,41.674702 59.401058,41.857685 59.942707,42.040665 
	C59.942707,42.040665 59.997177,41.999386 59.991520,42.407532 
	C62.297955,47.412403 61.333191,51.806267 59.161903,56.125443 
	C59.161903,56.125443 59.098072,56.139565 58.812389,56.077053 
	C58.349201,56.010967 58.171696,56.007389 57.794800,56.089325 
	C57.343395,56.333954 57.159527,56.550831 57.043804,56.825474 
	C56.686539,56.510662 56.329277,56.195850 55.966640,55.158367 
	C55.949699,50.599163 55.938126,46.762634 55.926552,42.926102 
z"/>
<path fill="#8DB4EF" opacity="1.000000" stroke="none" 
	d="
M55.584579,42.981258 
	C55.938126,46.762634 55.949699,50.599163 55.925385,54.910263 
	C53.990593,53.825951 52.091686,52.267071 50.014904,50.428810 
	C51.638889,47.778427 53.440750,45.407421 55.584579,42.981258 
z"/>
<path fill="#B0CAEE" opacity="1.000000" stroke="none" 
	d="
M59.493828,56.074112 
	C61.333191,51.806267 62.297955,47.412403 59.972076,42.435547 
	C62.266224,44.133926 64.574150,46.212429 67.526352,48.871159 
	C64.737129,51.461536 62.281437,53.742161 59.493828,56.074112 
z"/>
<path fill="#9BBEF5" opacity="1.000000" stroke="none" 
	d="
M33.036583,50.437527 
	C31.327961,46.199665 34.078869,45.203007 37.687653,43.674809 
	C36.856724,47.171410 40.994492,50.198811 36.288235,52.995193 
	C35.009235,52.270832 34.095253,51.486763 33.036583,50.437527 
z"/>
<path fill="#A2BDE7" opacity="1.000000" stroke="none" 
	d="
M29.066477,29.544979 
	C27.792463,29.124207 26.128546,28.649361 25.200813,27.552080 
	C23.357590,25.371998 21.370710,25.002142 18.554306,26.048655 
	C19.302576,24.741344 20.394501,23.407358 22.002668,21.442686 
	C24.567482,24.285677 26.788479,26.747561 29.066477,29.544979 
z"/>
<path fill="#BAD3F6" opacity="1.000000" stroke="none" 
	d="
M16.522615,27.906063 
	C17.242250,30.262918 17.635544,32.693745 18.035860,35.534462 
	C16.351646,34.461315 14.660409,32.978275 12.485309,31.070938 
	C14.044844,29.771982 15.120558,28.876007 16.522615,27.906063 
z"/>
<path fill="#B0CAEE" opacity="1.000000" stroke="none" 
	d="
M59.871403,41.809547 
	C59.401058,41.857685 58.859413,41.674702 58.148197,41.252945 
	C58.159779,41.007969 58.340931,41.001766 58.794250,40.983482 
	C59.380013,41.090305 59.624577,41.292648 59.871403,41.809547 
z"/>
<path fill="#A2BDE7" opacity="1.000000" stroke="none" 
	d="
M29.360624,31.885195 
	C29.108397,31.589045 29.081768,31.098536 29.090328,30.239561 
	C29.125517,29.871094 29.566971,29.912340 29.785461,29.949844 
	C29.864710,30.555178 29.725468,31.123009 29.360624,31.885195 
z"/>
<path fill="#8DB4EF" opacity="1.000000" stroke="none" 
	d="
M57.276608,56.945366 
	C57.159527,56.550831 57.343395,56.333954 57.799644,56.349625 
	C58.013496,56.697788 58.023113,56.871159 58.032726,57.044529 
	C57.858288,57.051437 57.683849,57.058350 57.276608,56.945366 
z"/>
<path fill="#B0CAEE" opacity="1.000000" stroke="none" 
	d="
M58.285736,56.989792 
	C58.023113,56.871159 58.013496,56.697788 57.999031,56.264114 
	C58.171696,56.007389 58.349201,56.010967 58.791489,56.051918 
	C58.883766,56.371216 58.711258,56.653133 58.285736,56.989792 
z"/>
<path fill="#F7F7F7" opacity="1.000000" stroke="none" 
	d="
M126.530960,37.031113 
	C130.151947,36.277489 133.630997,36.593182 134.102020,40.212467 
	C134.573471,43.834934 134.399368,48.209988 132.715546,51.268063 
	C130.791794,54.761848 124.985069,53.375633 123.614479,49.282265 
	C122.166702,44.958351 121.661278,40.440598 126.530960,37.031113 
z"/>
<path fill="#EBEBEB" opacity="1.000000" stroke="none" 
	d="
M216.902466,36.590073 
	C218.971664,37.992184 220.633667,39.337669 222.295670,40.683155 
	C222.012299,41.078403 221.728912,41.473656 221.445526,41.868904 
	C218.183853,41.868904 214.922180,41.868904 211.660492,41.868904 
	C211.359085,41.449295 211.057678,41.029686 210.756271,40.610077 
	C212.669281,39.251198 214.582291,37.892319 216.902466,36.590073 
z"/>
</svg>