<svg width="44" height="32" viewBox="0 0 44 32" fill="none" xmlns="http://www.w3.org/2000/svg">
<rect width="44" height="32" rx="2" fill="#E7E4DD"/>
<path d="M30.4683 10.7133C29.8321 10.9947 29.1574 11.1796 28.4666 11.2617C29.1947 10.8262 29.7397 10.1408 29.9999 9.33333C29.3166 9.74 28.5674 10.025 27.7866 10.1792C27.2621 9.61798 26.5669 9.2458 25.8091 9.12049C25.0512 8.99517 24.2732 9.12374 23.596 9.48621C22.9187 9.84868 22.3802 10.4247 22.0642 11.1248C21.7481 11.8249 21.6722 12.6098 21.8483 13.3575C20.4625 13.288 19.1069 12.9279 17.8693 12.3006C16.6318 11.6732 15.54 10.7925 14.6649 9.71583C14.3552 10.2479 14.1924 10.8527 14.1933 11.4683C14.1933 12.6767 14.8083 13.7442 15.7433 14.3692C15.1899 14.3517 14.6488 14.2023 14.1649 13.9333V13.9767C14.1651 14.7814 14.4436 15.5613 14.9531 16.1842C15.4627 16.8071 16.172 17.2346 16.9608 17.3942C16.4471 17.5334 15.9085 17.5539 15.3858 17.4542C15.6081 18.1469 16.0416 18.7527 16.6254 19.1868C17.2092 19.6209 17.9142 19.8615 18.6416 19.875C17.9187 20.4428 17.0909 20.8625 16.2057 21.1101C15.3204 21.3578 14.395 21.4285 13.4824 21.3183C15.0755 22.3429 16.93 22.8868 18.8241 22.885C25.2349 22.885 28.7408 17.5742 28.7408 12.9683C28.7408 12.8183 28.7366 12.6667 28.7299 12.5183C29.4123 12.0251 30.0013 11.4142 30.4691 10.7142L30.4683 10.7133Z" fill="black"/>
</svg>
