<svg width="24" height="24" viewBox="0 0 24 24" fill="none" xmlns="http://www.w3.org/2000/svg">
<path d="M22.1621 5.65599C21.3986 5.99368 20.589 6.21546 19.7601 6.31399C20.6338 5.79142 21.2878 4.969 21.6001 3.99999C20.7801 4.48799 19.8811 4.82999 18.9441 5.01499C18.3147 4.34157 17.4804 3.89495 16.571 3.74457C15.6616 3.59419 14.728 3.74848 13.9153 4.18344C13.1026 4.6184 12.4564 5.30967 12.0772 6.14978C11.6979 6.98989 11.6068 7.93177 11.8181 8.82899C10.1552 8.74564 8.52838 8.31351 7.04334 7.56065C5.55829 6.80779 4.24818 5.75104 3.19805 4.45899C2.82634 5.09744 2.63101 5.82321 2.63205 6.56199C2.63205 8.01199 3.37005 9.29299 4.49205 10.043C3.82806 10.0221 3.17869 9.84277 2.59805 9.51999V9.57199C2.59825 10.5377 2.93242 11.4736 3.5439 12.221C4.15538 12.9685 5.00653 13.4815 5.95305 13.673C5.33667 13.84 4.69036 13.8646 4.06305 13.745C4.32992 14.5762 4.85006 15.3032 5.55064 15.8241C6.25123 16.345 7.09718 16.6338 7.97005 16.65C7.10253 17.3313 6.10923 17.835 5.04693 18.1322C3.98464 18.4293 2.87418 18.5142 1.77905 18.382C3.69075 19.6114 5.91615 20.2641 8.18905 20.262C15.8821 20.262 20.0891 13.889 20.0891 8.36199C20.0891 8.18199 20.0841 7.99999 20.0761 7.82199C20.8949 7.23016 21.6017 6.49701 22.1631 5.65699L22.1621 5.65599Z" fill="black"/>
</svg>
