<svg width="20" height="20" viewBox="0 0 20 20" fill="none" xmlns="http://www.w3.org/2000/svg">
<path d="M18.4683 4.71339C17.8321 4.99481 17.1574 5.17962 16.4666 5.26173C17.1947 4.82626 17.7397 4.14091 17.9999 3.33339C17.3166 3.74006 16.5674 4.02506 15.7866 4.17923C15.2621 3.61804 14.5669 3.24586 13.8091 3.12055C13.0512 2.99523 12.2732 3.1238 11.596 3.48627C10.9187 3.84874 10.3802 4.4248 10.0642 5.12489C9.74812 5.82498 9.67221 6.60988 9.84826 7.35756C8.46251 7.28811 7.10687 6.928 5.86933 6.30061C4.63179 5.67323 3.54003 4.7926 2.66492 3.71589C2.35516 4.24794 2.19238 4.85275 2.19326 5.46839C2.19326 6.67673 2.80826 7.74423 3.74326 8.36923C3.18993 8.35181 2.64878 8.20238 2.16492 7.93339V7.97673C2.16509 8.78148 2.44356 9.56141 2.95313 10.1843C3.46269 10.8071 4.17199 11.2346 4.96076 11.3942C4.4471 11.5334 3.90851 11.5539 3.38576 11.4542C3.60814 12.1469 4.04159 12.7527 4.62542 13.1868C5.20924 13.6209 5.9142 13.8616 6.64159 13.8751C5.91866 14.4428 5.0909 14.8625 4.20566 15.1102C3.32041 15.3579 2.39503 15.4286 1.48242 15.3184C3.0755 16.3429 4.93 16.8868 6.82409 16.8851C13.2349 16.8851 16.7408 11.5742 16.7408 6.96839C16.7408 6.81839 16.7366 6.66673 16.7299 6.51839C17.4123 6.0252 18.0013 5.41424 18.4691 4.71423L18.4683 4.71339Z" fill="black"/>
</svg>
