<svg width="16" height="16" viewBox="0 0 16 16" fill="none" xmlns="http://www.w3.org/2000/svg">
<path d="M10.225 1.90488C12.64 2.68738 14.57 5.56738 15.4425 7.79488C15.4955 7.92807 15.4946 8.07686 15.44 8.20988C14.365 10.8849 12.1975 13.9299 9.12252 14.3924C6.87752 14.7307 4.97585 14.1266 3.41752 12.5799C2.23085 11.4016 1.28585 9.96905 0.582521 8.28238C0.512521 8.11572 0.510021 7.94822 0.575021 7.77988C1.18669 6.18489 2.08669 4.78155 3.27502 3.56988C5.21835 1.58655 7.53502 1.03155 10.225 1.90488ZM13.495 7.99738C13.495 6.54002 12.9161 5.14234 11.8856 4.11183C10.8551 3.08132 9.45739 2.50238 8.00002 2.50238C6.54266 2.50238 5.14498 3.08132 4.11447 4.11183C3.08396 5.14234 2.50502 6.54002 2.50502 7.99738C2.50502 9.45475 3.08396 10.8524 4.11447 11.8829C5.14498 12.9134 6.54266 13.4924 8.00002 13.4924C9.45739 13.4924 10.8551 12.9134 11.8856 11.8829C12.9161 10.8524 13.495 9.45475 13.495 7.99738Z" fill="black"/>
<path d="M9.01 7.75017H10.365C10.4533 7.75017 10.4975 7.79433 10.4975 7.88267C10.5125 9.74517 8.75249 11.0027 7.03999 10.2827C4.0025 9.00267 5.865 4.39017 9.14249 5.76267C9.24249 5.80433 9.26583 5.87267 9.21249 5.96767L8.60249 7.06017C8.56333 7.131 8.54333 7.21083 8.54448 7.29177C8.54563 7.3727 8.56789 7.45193 8.60905 7.52163C8.65021 7.59132 8.70885 7.64907 8.77917 7.68915C8.84949 7.72923 8.92905 7.75026 9.01 7.75017Z" fill="black"/>
</svg>