<svg width="30" height="30" viewBox="0 0 30 30" fill="none" xmlns="http://www.w3.org/2000/svg">
<rect x="0.723731" y="0.723731" width="28.5525" height="28.5525" rx="1.99056" fill="#F0F0F7"/>
<path d="M12.4773 18.5054H8.28564V17.0047H21.7926V18.5054H17.601L20.0345 20.939L18.9734 22L15.7895 18.8161V20.7566H14.2888V18.8161L11.1049 22L10.0438 20.939L12.4773 18.5054ZM9.78642 8H20.2919C20.4909 8 20.6817 8.07906 20.8225 8.21978C20.9632 8.36051 21.0423 8.55137 21.0423 8.75039V16.2543H9.03603V8.75039C9.03603 8.55137 9.11509 8.36051 9.25582 8.21978C9.39654 8.07906 9.58741 8 9.78642 8ZM10.5368 9.50078V14.7535H19.5415V9.50078H10.5368Z" fill="#745FE8"/>
<rect x="0.723731" y="0.723731" width="28.5525" height="28.5525" rx="1.99056" stroke="white" stroke-width="0.552538"/>
</svg>
