<svg width="30" height="30" viewBox="0 0 30 30" fill="none" xmlns="http://www.w3.org/2000/svg">
<rect x="0.723731" y="0.723731" width="28.5525" height="28.5525" rx="1.99056" fill="#F0F0F7"/>
<path d="M12.4774 18.5054H8.28577V17.0047H21.7928V18.5054H17.6011L20.0346 20.939L18.9736 22L15.7897 18.8161V20.7566H14.2889V18.8161L11.105 22L10.0439 20.939L12.4774 18.5054ZM9.78654 8H20.292C20.491 8 20.6819 8.07906 20.8226 8.21978C20.9633 8.36051 21.0424 8.55137 21.0424 8.75039V16.2543H9.03616V8.75039C9.03616 8.55137 9.11521 8.36051 9.25594 8.21978C9.39666 8.07906 9.58753 8 9.78654 8ZM10.5369 9.50078V14.7535H19.5416V9.50078H10.5369Z" fill="#745FE8"/>
<rect x="0.723731" y="0.723731" width="28.5525" height="28.5525" rx="1.99056" stroke="white" stroke-width="0.552538"/>
</svg>
