<svg width="30" height="30" viewBox="0 0 30 30" fill="none" xmlns="http://www.w3.org/2000/svg">
<rect x="0.723731" y="0.723731" width="28.5525" height="28.5525" rx="1.99056" fill="#F0F0F7"/>
<path d="M19.5128 17.2149L18.3916 16.0937L19.5128 14.9726C19.8073 14.6781 20.0409 14.3285 20.2003 13.9437C20.3597 13.5589 20.4417 13.1464 20.4417 12.7299C20.4417 12.3134 20.3597 11.901 20.2003 11.5162C20.0409 11.1314 19.8073 10.7818 19.5128 10.4872C19.2182 10.1927 18.8686 9.95911 18.4838 9.79972C18.099 9.64033 17.6866 9.5583 17.2701 9.5583C16.8536 9.5583 16.4411 9.64033 16.0563 9.79972C15.6715 9.95911 15.3219 10.1927 15.0274 10.4872L13.9063 11.6084L12.7851 10.4872L13.9063 9.3661C14.8009 8.48593 16.0071 7.99493 17.2621 8.00004C18.517 8.00515 19.7192 8.50596 20.6066 9.39339C21.494 10.2808 21.9949 11.483 22 12.7379C22.0051 13.9929 21.5141 15.1991 20.6339 16.0937L19.5128 17.2149ZM17.2697 19.458L16.1485 20.5791C15.7081 21.0268 15.1834 21.3828 14.6047 21.6267C14.026 21.8705 13.4047 21.9974 12.7767 22C12.1487 22.0025 11.5264 21.8807 10.9457 21.6416C10.365 21.4024 9.83745 21.0507 9.39339 20.6066C8.94932 20.1625 8.59758 19.635 8.35843 19.0543C8.11929 18.4736 7.99748 17.8513 8.00004 17.2233C8.0026 16.5953 8.12947 15.974 8.37333 15.3953C8.6172 14.8166 8.97323 14.2919 9.42089 13.8515L10.542 12.7303L11.6632 13.8515L10.542 14.9726C10.2475 15.2671 10.0139 15.6168 9.85451 16.0016C9.69512 16.3864 9.61309 16.7988 9.61309 17.2153C9.61309 17.6318 9.69512 18.0442 9.85451 18.429C10.0139 18.8138 10.2475 19.1635 10.542 19.458C10.8365 19.7525 11.1862 19.9861 11.571 20.1455C11.9558 20.3049 12.3682 20.3869 12.7847 20.3869C13.2012 20.3869 13.6136 20.3049 13.9984 20.1455C14.3832 19.9861 14.7329 19.7525 15.0274 19.458L16.1485 18.3368L17.2697 19.458ZM17.2697 11.6084L18.3916 12.7303L12.7851 18.336L11.6632 17.2149L17.2697 11.6092V11.6084Z" fill="#745FE8"/>
<rect x="0.723731" y="0.723731" width="28.5525" height="28.5525" rx="1.99056" stroke="white" stroke-width="0.552538"/>
</svg>
