<svg width="30" height="30" viewBox="0 0 30 30" fill="none" xmlns="http://www.w3.org/2000/svg">
<rect x="0.723731" y="0.723731" width="28.5525" height="28.5525" rx="1.99056" fill="#5045BB"/>
<path d="M15.8848 8.6753L18.0793 12.4769C18.2657 12.799 18.155 13.2123 17.8322 13.3986L16.9544 13.9051L17.6303 15.0746L16.4608 15.7498L15.7855 14.5796L14.9084 15.0867C14.5856 15.2731 14.1724 15.1624 13.986 14.8396L12.7449 12.691C11.3593 13.111 10.3505 14.3993 10.3505 15.922C10.3505 16.344 10.4281 16.7485 10.5693 17.1212C11.0933 16.789 11.7118 16.5973 12.3762 16.5973C13.5133 16.5973 14.5194 17.1597 15.1312 18.0213L20.3225 15.0239L20.9977 16.1935L15.6782 19.2651C15.7268 19.4934 15.7524 19.7311 15.7524 19.9735C15.7524 20.2051 15.7295 20.4306 15.6849 20.6487H21.1544V21.9992L9.67524 21.9999C9.25119 21.4354 9 20.7338 9 19.9735C9 19.2935 9.20122 18.6601 9.54695 18.1301C9.19785 17.4717 9 16.7201 9 15.922C9 13.8997 10.2701 12.1737 12.0568 11.4992L11.7915 11.0386C11.4187 10.3924 11.6395 9.56662 12.2857 9.19388L14.04 8.18102C14.6862 7.80828 15.5121 8.02909 15.8848 8.6753Z" fill="#F9DA6A"/>
<rect x="0.723731" y="0.723731" width="28.5525" height="28.5525" rx="1.99056" stroke="white" stroke-width="0.552538"/>
</svg>
