<svg width="30" height="30" viewBox="0 0 30 30" fill="none" xmlns="http://www.w3.org/2000/svg">
<rect x="0.723731" y="0.723731" width="28.5525" height="28.5525" rx="1.27627" fill="#D1D7F4"/>
<path d="M13.1682 19.6667V22H15.7565V19.6667H17.0506C17.6514 19.6667 18.2404 19.5158 18.7515 19.2311C19.2626 18.9463 19.6756 18.5388 19.9443 18.0544C20.213 17.5699 20.3268 17.0275 20.2728 16.4881C20.2189 15.9486 19.9993 15.4333 19.6388 15C19.9993 14.5667 20.2189 14.0514 20.2728 13.5119C20.3268 12.9725 20.213 12.4301 19.9443 11.9456C19.6756 11.4612 19.2626 11.0537 18.7515 10.7689C18.2404 10.4842 17.6514 10.3333 17.0506 10.3333H15.7565V8H13.1682V10.3333H9.28589V19.6667H13.1682ZM11.8741 16.1667H17.0506C17.2222 16.1667 17.3868 16.2281 17.5081 16.3375C17.6295 16.4469 17.6977 16.5953 17.6977 16.75C17.6977 16.9047 17.6295 17.0531 17.5081 17.1625C17.3868 17.2719 17.2222 17.3333 17.0506 17.3333H11.8741V16.1667ZM11.8741 12.6667H17.0506C17.2222 12.6667 17.3868 12.7281 17.5081 12.8375C17.6295 12.9469 17.6977 13.0953 17.6977 13.25C17.6977 13.4047 17.6295 13.5531 17.5081 13.6625C17.3868 13.7719 17.2222 13.8333 17.0506 13.8333H11.8741V12.6667Z" fill="#036AFF"/>
<rect x="0.723731" y="0.723731" width="28.5525" height="28.5525" rx="1.27627" stroke="white" stroke-width="0.552538"/>
</svg>
