<svg width="30" height="30" viewBox="0 0 30 30" fill="none" xmlns="http://www.w3.org/2000/svg">
<rect x="0.723731" y="0.723731" width="28.5525" height="28.5525" rx="1.99056" fill="#B6273C"/>
<path d="M13.1681 19.6667V22H15.7564V19.6667H17.0505C17.6513 19.6667 18.2403 19.5158 18.7514 19.2311C19.2625 18.9463 19.6755 18.5388 19.9442 18.0544C20.2129 17.5699 20.3267 17.0275 20.2727 16.4881C20.2187 15.9486 19.9992 15.4333 19.6387 15C19.9992 14.5667 20.2187 14.0514 20.2727 13.5119C20.3267 12.9725 20.2129 12.4301 19.9442 11.9456C19.6755 11.4612 19.2625 11.0537 18.7514 10.7689C18.2403 10.4842 17.6513 10.3333 17.0505 10.3333H15.7564V8H13.1681V10.3333H9.28577V19.6667H13.1681ZM11.874 16.1667H17.0505C17.2221 16.1667 17.3867 16.2281 17.508 16.3375C17.6294 16.4469 17.6975 16.5953 17.6975 16.75C17.6975 16.9047 17.6294 17.0531 17.508 17.1625C17.3867 17.2719 17.2221 17.3333 17.0505 17.3333H11.874V16.1667ZM11.874 12.6667H17.0505C17.2221 12.6667 17.3867 12.7281 17.508 12.8375C17.6294 12.9469 17.6975 13.0953 17.6975 13.25C17.6975 13.4047 17.6294 13.5531 17.508 13.6625C17.3867 13.7719 17.2221 13.8333 17.0505 13.8333H11.874V12.6667Z" fill="#F2A887"/>
<rect x="0.723731" y="0.723731" width="28.5525" height="28.5525" rx="1.99056" stroke="white" stroke-width="0.552538"/>
</svg>
