<svg width="30" height="30" viewBox="0 0 30 30" fill="none" xmlns="http://www.w3.org/2000/svg">
<rect x="0.723731" y="0.723731" width="28.5525" height="28.5525" rx="1.27627" fill="#D1D7F4"/>
<path d="M15.8848 8.67542L18.0793 12.477C18.2657 12.7991 18.155 13.2124 17.8322 13.3987L16.9544 13.9052L17.6303 15.0747L16.4608 15.7499L15.7855 14.5797L14.9084 15.0869C14.5856 15.2732 14.1724 15.1625 13.986 14.8397L12.7449 12.6911C11.3593 13.1111 10.3505 14.3995 10.3505 15.9221C10.3505 16.3442 10.4281 16.7486 10.5693 17.1214C11.0933 16.7891 11.7118 16.5974 12.3762 16.5974C13.5133 16.5974 14.5194 17.1599 15.1312 18.0215L20.3225 15.0241L20.9977 16.1936L15.6782 19.2653C15.7268 19.4935 15.7524 19.7312 15.7524 19.9736C15.7524 20.2052 15.7295 20.4307 15.6849 20.6488H21.1544V21.9993L9.67524 22C9.25119 21.4355 9 20.7339 9 19.9736C9 19.2936 9.20122 18.6602 9.54695 18.1302C9.19785 17.4718 9 16.7203 9 15.9221C9 13.8998 10.2701 12.1739 12.0568 11.4993L11.7915 11.0388C11.4187 10.3926 11.6395 9.56674 12.2857 9.19401L14.04 8.18114C14.6862 7.80841 15.5121 8.02921 15.8848 8.67542Z" fill="#036AFF"/>
<rect x="0.723731" y="0.723731" width="28.5525" height="28.5525" rx="1.27627" stroke="white" stroke-width="0.552538"/>
</svg>
