<svg width="148" height="148" viewBox="0 0 148 148" fill="none" xmlns="http://www.w3.org/2000/svg">
<path d="M81.7757 117.756L82.0356 117.613C83.1295 117.059 84.1263 116.332 84.9872 115.459C85.3261 115.156 85.5508 114.746 85.6241 114.298C85.6973 113.849 85.6146 113.389 85.3897 112.994C84.7746 111.996 83.8231 111.249 82.7065 110.89C82.6393 110.86 82.5663 110.844 82.4926 110.844C82.4188 110.844 82.346 110.86 82.2788 110.89C82.0598 110.996 81.8868 111.178 81.7924 111.402C81.7642 111.554 81.7757 111.711 81.8256 111.858C81.8755 112.005 81.9623 112.136 82.0776 112.24C82.1636 112.312 82.2645 112.365 82.3732 112.394C82.4819 112.423 82.5958 112.428 82.7065 112.407C82.7301 112.404 82.7544 112.405 82.7773 112.412C82.8003 112.419 82.8214 112.431 82.8391 112.447C82.8569 112.463 82.8707 112.483 82.8797 112.505C82.8886 112.527 82.8925 112.551 82.8909 112.575C82.8745 112.668 82.8342 112.754 82.7736 112.827L82.3376 113.061C81.6518 113.47 80.9271 113.81 80.1742 114.076C77.9489 114.721 75.6551 115.101 73.3404 115.207C71.0278 115.375 68.703 115.225 66.4309 114.763C65.2843 114.581 64.1947 114.139 63.2447 113.472C63.0868 113.365 62.953 113.226 62.8519 113.065C62.7508 112.903 62.6845 112.722 62.6576 112.533C62.6576 112.483 62.6576 112.382 62.6576 112.374C62.7346 112.354 62.8154 112.354 62.8924 112.374C63.0186 112.433 63.1394 112.503 63.2531 112.583C63.3802 112.671 63.5118 112.752 63.6472 112.827C63.7538 112.862 63.8672 112.871 63.978 112.853C64.0889 112.836 64.194 112.792 64.2845 112.726C64.362 112.682 64.4266 112.619 64.4722 112.543C64.5178 112.466 64.5426 112.379 64.5443 112.29C64.5443 111.821 64.4941 111.343 64.4605 110.873L64.3934 109.935L63.8652 110.144L63.3788 110.312C62.9757 110.433 62.5877 110.598 62.2218 110.806C61.677 111.127 61.2293 111.59 60.9266 112.145C60.6239 112.7 60.4775 113.327 60.5028 113.958C60.533 114.497 60.7119 115.018 61.0197 115.462C61.3276 115.906 61.7522 116.256 62.2468 116.473C62.5488 116.613 62.8428 116.77 63.1272 116.942L63.622 117.219L63.9909 117.403C64.2018 117.499 64.4063 117.608 64.603 117.73C64.9217 117.94 64.8882 118.015 64.8714 118.082C64.8546 118.149 64.7959 118.284 64.3682 118.217C64.158 118.185 63.9506 118.137 63.7477 118.074L63.404 117.99C62.8338 117.856 62.5151 117.781 62.2384 117.99C61.9617 118.2 61.9618 118.527 61.945 119.114L61.6934 128.452C61.6934 128.552 61.6934 128.661 61.6934 128.762L61.5593 130.313C61.4503 131.461 61.3496 132.601 61.2742 133.75C61.1987 134.898 61.1484 135.971 61.0897 137.103L61.0226 138.662C61.018 138.715 61.018 138.768 61.0226 138.821L60.8801 140.598C60.7795 141.948 60.6788 143.306 60.6033 144.664C60.5703 144.844 60.5742 145.029 60.6146 145.207C60.6549 145.386 60.7309 145.555 60.8381 145.703C60.9921 145.83 61.1707 145.924 61.3626 145.979C61.5545 146.033 61.7556 146.048 61.9534 146.022L69.3071 146.206L71.0261 146.248V146.34L72.9965 146.223C74.1872 146.156 75.3695 146.08 76.5602 146.038C77.994 145.98 79.4364 145.929 80.8702 145.888L83.8467 145.787C84.1798 145.817 84.5115 145.715 84.7692 145.502C84.8602 145.372 84.9242 145.224 84.9573 145.069C84.9904 144.913 84.992 144.753 84.962 144.597C84.9117 143.498 84.8278 142.308 84.7104 140.841C84.6601 140.305 84.6015 139.768 84.5428 139.232C84.4422 138.285 84.3331 137.304 84.3164 136.348C84.2577 133.129 84.0396 129.969 83.8635 127.58C83.7294 125.903 83.6958 124.118 83.6539 122.433C83.6539 121.687 83.6541 120.941 83.5954 120.195V119.868C83.6037 119.706 83.6037 119.544 83.5954 119.382C83.6037 119.24 83.581 119.099 83.5288 118.967C83.4767 118.835 83.3963 118.716 83.2934 118.619C83.1666 118.548 83.0262 118.506 82.8815 118.494C82.7369 118.483 82.5913 118.502 82.4549 118.552L82.0944 118.636C81.6568 118.752 81.2111 118.836 80.7611 118.887C80.6691 118.864 80.5793 118.834 80.4927 118.795C80.5173 118.669 80.5822 118.554 80.6774 118.468C81.0252 118.203 81.3922 117.965 81.7757 117.756Z" fill="#CBB5F5"/>
<path d="M90.3773 89.0703V88.6008C90.2737 87.2322 90.0833 85.8715 89.8071 84.5269C89.6897 83.8814 89.5724 83.2276 89.4718 82.5821C89.1207 80.5539 89.1805 78.4759 89.6479 76.4712C89.7317 76.1359 89.8322 75.809 89.9244 75.4737C90.0981 74.9226 90.2436 74.363 90.3605 73.7972C90.4877 73.4201 90.5112 73.0157 90.4286 72.6264C90.346 72.2371 90.1604 71.8772 89.8911 71.5842C89.5789 71.3503 89.21 71.2037 88.8225 71.1595C88.4349 71.1153 88.0425 71.1751 87.6857 71.3327C86.6775 71.6848 85.7608 72.2576 85.0025 73.0092C82.6621 75.2048 81.1093 78.1092 80.5835 81.2745C80.4075 82.163 80.0385 82.4396 79.527 82.5821C77.3053 83.207 75.3202 84.4793 73.8251 86.2369C72.4277 87.6991 71.3636 89.4464 70.7059 91.3587C70.2624 92.7383 70.0278 94.1765 70.0099 95.6255C69.867 94.9794 69.867 94.31 70.0099 93.6639C70.1025 93.3673 70.1589 93.0605 70.1777 92.7502C70.1777 92.6077 70.1776 92.4652 70.2279 92.3311C70.2768 92.1392 70.2803 91.9385 70.2381 91.7449C70.1959 91.5514 70.1093 91.3704 69.9849 91.2162C69.8472 91.0655 69.6761 90.9491 69.4854 90.8763C69.2946 90.8036 69.0895 90.7764 68.8864 90.7971C68.723 90.7972 68.56 90.8141 68.4 90.8474L66.8906 91.1575C65.6077 91.4174 64.3753 91.6773 63.0588 91.9958C61.0781 92.5009 59.1405 93.1624 57.2646 93.9741L56.4261 94.3262C56.0937 94.439 55.8193 94.6783 55.6623 94.9922C55.5053 95.306 55.4784 95.6692 55.5876 96.0027C55.8731 97.2365 56.2746 98.4405 56.7866 99.5988C57.4014 101.088 58.3627 102.41 59.5905 103.454C60.8184 104.497 62.2776 105.233 63.8469 105.601C64.6109 105.777 65.3833 105.914 66.1612 106.012C66.5637 106.07 66.9997 106.129 67.377 106.204L67.7124 106.271C67.3266 106.33 66.9242 106.355 66.4882 106.389C66.2927 106.378 66.0974 106.411 65.9162 106.485C65.735 106.559 65.5723 106.672 65.44 106.816C65.3271 106.973 65.2474 107.152 65.2056 107.34C65.1638 107.529 65.1607 107.724 65.1968 107.914C65.3226 108.904 65.3813 109.935 65.44 110.924L65.5156 112.064V112.265C65.5072 112.388 65.5072 112.511 65.5156 112.634C65.591 113.673 66.0103 114.109 67.0249 114.193C68.0395 114.277 68.9618 114.344 69.8842 114.411L71.0162 114.495H71.0748L72.6177 114.411C73.7665 114.352 74.8481 114.302 75.9717 114.168C77.0953 114.034 77.9674 113.824 78.9233 113.606L80.1559 113.346C80.3395 113.32 80.516 113.257 80.6742 113.16C80.8325 113.064 80.9692 112.935 81.0761 112.784C81.1829 112.632 81.2575 112.461 81.2953 112.279C81.3332 112.097 81.3337 111.91 81.2964 111.728C81.2541 111.095 81.2541 110.459 81.2964 109.826V109.23C81.2964 108.862 81.2962 108.484 81.3465 108.116V107.546C81.3628 107.363 81.3408 107.179 81.2816 107.006C81.2224 106.833 81.1274 106.674 81.0028 106.54C80.707 106.279 80.3232 106.142 79.9295 106.154H79.5102C79.2063 106.184 78.9001 106.184 78.5962 106.154C78.3476 106.114 78.1072 106.035 77.8836 105.919C78.16 105.853 78.44 105.803 78.7221 105.768H78.8058C80.7048 105.602 82.5224 104.921 84.0633 103.799C85.043 103.047 85.9498 102.205 86.7716 101.284C88.2468 99.5903 89.3547 97.6094 90.0251 95.4662C90.5392 93.3746 90.6585 91.2056 90.3773 89.0703Z" fill="white"/>
<path fill-rule="evenodd" clip-rule="evenodd" d="M120.413 67.8707L120.505 69.0023L120.539 69.237L120.472 70.1339C120.413 71.8646 120.131 73.5804 119.633 75.2389C119.388 76.262 118.773 77.158 117.906 77.7537L117.763 77.8292C117.256 78.5751 116.602 79.2109 115.843 79.6985L115.839 79.7012C115.581 79.8931 115.322 80.0851 115.071 80.2937C113.812 81.3231 112.468 82.2456 111.055 83.0515L110.544 83.3617C108.411 84.6381 106.13 85.6488 103.752 86.371C101.414 87.1603 99.0166 87.7602 96.5825 88.1649H96.4483C96.3025 88.186 96.1562 88.2071 96.0094 88.2283C94.8731 88.3921 93.7106 88.5596 92.5745 88.7601H92.2641C91.9459 88.7721 91.6343 88.6669 91.3885 88.4645C91.1428 88.2621 90.9801 87.9765 90.931 87.662C90.7968 87.0333 90.6877 86.2872 90.5787 85.3567C90.5116 84.8286 90.6793 84.1245 91.8113 83.7808C92.5408 83.5629 93.2704 83.3533 94.0083 83.1521C94.5752 82.9735 95.1506 82.8061 95.727 82.6385C96.5571 82.397 97.3892 82.155 98.2008 81.878C100.647 81.0259 102.983 79.8862 105.16 78.483C107.169 77.3297 109.008 75.9053 110.628 74.2498C110.916 73.9277 111.221 73.6109 111.525 73.2952C111.6 73.2165 111.676 73.138 111.751 73.0595C112.755 72.1492 113.605 71.0819 114.267 69.8992L114.392 69.7064C116.002 67.8706 116.137 65.7331 115.818 62.8411C115.742 62.4555 115.742 62.0699 115.742 61.6759V61.4831C115.68 60.0324 115.487 58.5673 115.298 57.1349C115.284 57.0277 115.27 56.9208 115.256 56.814C115.139 55.9506 115.021 55.062 114.929 54.2238C114.847 53.5073 114.716 52.8071 114.576 52.0595L114.569 52.0191C114.318 50.8748 114.166 49.7108 114.116 48.5403C114.101 48.432 114.076 48.3253 114.04 48.2218C113.996 48.0843 113.96 47.9443 113.931 47.8027C113.755 46.9141 113.579 46.0172 113.411 45.1203C113.059 43.2761 112.699 41.4319 112.313 39.5877C111.776 37.1903 111.189 34.7845 110.636 32.5464C110.387 31.4529 110.089 30.3639 109.791 29.2729C109.678 28.8584 109.564 28.4436 109.454 28.0281C109.261 27.3072 109.068 26.5863 108.883 25.857C108.858 25.7695 108.841 25.6797 108.833 25.5888C108.812 25.5005 108.778 25.4158 108.733 25.3373C108.605 25.1422 108.526 24.9197 108.501 24.688C108.476 24.4564 108.507 24.2221 108.59 24.0045C108.89 23.4703 109.298 23.0048 109.789 22.6381C110.021 22.451 110.293 22.3209 110.585 22.2583C110.876 22.1957 111.178 22.2024 111.466 22.2777C111.734 22.3473 111.981 22.4792 112.188 22.6628C112.395 22.8464 112.556 23.0764 112.657 23.3339L112.866 23.8871C113.506 25.4474 114.066 27.0393 114.543 28.6568C114.895 29.7594 115.125 30.8848 115.349 31.9822C115.36 32.0362 115.371 32.0901 115.382 32.144C115.55 32.9487 115.717 33.7451 115.91 34.5414C116.627 37.4987 117.169 40.5223 117.695 43.4475L117.705 43.5024L117.805 44.0389C118.005 45.1824 118.136 46.3411 118.264 47.4715L118.283 47.635C118.367 48.3979 118.451 49.1523 118.56 49.9151C118.694 50.8791 118.862 51.9605 119.004 52.8155C119.147 53.6705 119.273 54.4585 119.407 55.3889C119.532 56.2557 119.606 57.1297 119.676 57.9636C119.681 58.0249 119.687 58.086 119.692 58.1468L119.968 62.0028L120.153 64.5176C120.188 64.9731 120.224 65.4329 120.26 65.8958C120.312 66.549 120.364 67.2084 120.413 67.8707ZM71.4666 85.7809C71.6271 85.813 71.7776 85.8831 71.9053 85.9854C72.1292 86.138 72.2938 86.3628 72.3717 86.6222C72.4495 86.8816 72.4358 87.1599 72.333 87.4105L72.1905 87.6619C71.9481 88.1606 71.6377 88.6233 71.2681 89.0367C70.8253 89.4099 70.2834 89.6458 69.7086 89.7157L69.6154 89.7323C68.6077 89.9126 67.4851 90.1134 66.3545 90.2354C64.2229 90.5414 62.1293 91.0696 60.1077 91.8113L59.9398 91.8616C57.3231 92.631 54.8258 93.7594 52.5191 95.2147L50.6829 96.4469L48.6535 97.8132C48.4434 97.9602 48.247 98.1257 48.0666 98.3078L47.4209 98.9198C47.3004 99.035 47.1799 99.1501 47.0594 99.2651C46.2244 100.062 45.3919 100.857 44.5785 101.678C44.412 101.87 44.2685 102.081 44.1508 102.306L43.9328 102.667C43.2999 103.738 42.3426 104.581 41.1993 105.073C40.9345 105.187 40.6493 105.247 40.3608 105.249C40.0124 105.218 39.6769 105.102 39.3843 104.91C39.0917 104.719 38.8511 104.458 38.6838 104.151C38.5305 103.983 38.4129 103.786 38.338 103.572C38.2631 103.357 38.2324 103.13 38.2481 102.903C38.2638 102.677 38.3254 102.456 38.4291 102.254C38.5328 102.052 38.6765 101.873 38.8514 101.728C39.5132 100.995 40.2433 100.327 41.0316 99.7329C41.7045 99.1828 42.3325 98.5802 42.9099 97.9306L43.4632 97.3438C45.2505 95.491 47.2648 93.8715 49.4585 92.5238C51.9519 90.9628 54.6128 89.6863 57.3909 88.7181C60.4406 87.6954 63.5593 86.8914 66.7234 86.3123C67.7026 86.1335 68.6907 86.0075 69.6834 85.9351L70.9831 85.801C71.1404 85.7557 71.3061 85.7488 71.4666 85.7809ZM71.5448 87.1003L71.352 87.4272V87.4524C71.471 87.4323 71.5832 87.3834 71.6789 87.3099L71.5448 87.1003Z" fill="#6E30E3"/>
<path d="M71.8557 147.891C70.1032 147.891 68.3507 147.891 66.5982 147.891C64.3929 147.849 62.1875 147.807 59.9907 147.656C57.9195 147.514 55.8485 147.246 53.7858 147.011C51.8656 146.793 49.9453 146.592 48.0419 146.298C44.8065 145.862 41.6272 145.081 38.5583 143.968C37.4869 143.572 36.4998 142.978 35.6487 142.216C35.3588 141.971 35.124 141.668 34.9595 141.326C34.795 140.985 34.7047 140.612 34.6944 140.233C34.6841 139.854 34.754 139.477 34.8997 139.126C35.0454 138.776 35.2636 138.461 35.5398 138.201C36.6828 137.196 38.0218 136.44 39.4724 135.979C42.2357 135.031 45.0827 134.346 47.975 133.934C49.9203 133.641 51.8657 133.322 53.8445 133.096C54.9765 132.953 56.1167 132.928 57.2487 132.828C57.7351 132.786 58.2214 132.693 58.7077 132.626C59.6468 132.484 59.605 132.484 59.6721 131.537C59.7811 129.944 59.9404 128.368 60.083 126.784C60.083 126.591 60.083 126.406 60.083 126.214C60.2255 124.328 60.3681 122.441 60.5274 120.547C60.5861 119.759 60.67 118.971 60.7622 118.175C60.8128 117.951 60.7968 117.718 60.7164 117.503C60.6359 117.289 60.4945 117.103 60.3094 116.968C58.188 115.4 58.7162 111.938 60.6615 110.387C61.0462 109.995 61.5116 109.69 62.0255 109.495C62.5395 109.299 63.0897 109.218 63.6382 109.256C64.0156 109.306 64.2084 109.13 64.1916 108.736V108.51C64.2335 107.302 64.1917 107.319 63.0597 106.976C61.5728 106.562 60.1867 105.847 58.988 104.875C57.7892 103.903 56.8034 102.695 56.0917 101.326C55.3322 99.9184 54.8242 98.3894 54.5907 96.8075C54.5069 96.2542 54.4817 96.2458 53.9702 96.556C51.2382 98.1302 48.745 100.086 46.5661 102.365C46.0372 102.911 45.4296 103.374 44.7634 103.74C44.1196 104.205 43.5139 104.721 42.9521 105.282C42.6095 105.635 42.2202 105.94 41.7951 106.188C41.1361 106.55 40.3648 106.651 39.6345 106.471C38.9043 106.291 38.2687 105.843 37.8541 105.215C37.6907 105.005 37.5422 104.784 37.4097 104.553C37.3023 104.328 37.1317 104.139 36.9188 104.01C36.7058 103.88 36.4598 103.816 36.2107 103.824C35.8541 103.802 35.5071 103.7 35.1961 103.524C34.8852 103.348 34.6184 103.104 34.4162 102.809C33.0997 101.393 32.5883 99.5989 31.9594 97.8637C31.4311 96.447 31.0453 94.9717 30.6345 93.5131C30.2236 92.0546 29.8882 90.7469 29.5444 89.3218C29.2677 88.1483 29.0246 86.9663 28.773 85.776L27.096 77.8963C26.5845 75.457 26.0562 73.0177 25.5531 70.5783C25.1925 68.8431 24.7565 67.1079 24.5385 65.3476C24.3205 63.5872 23.7 61.7431 23.7 59.8654C23.6656 59.3737 23.5898 58.8858 23.4736 58.4068C23.2472 56.9901 22.9705 55.5819 22.8279 54.1568C22.6494 52.7244 22.8821 51.2708 23.4988 49.9655C23.6762 49.6325 23.9055 49.3297 24.178 49.0686C24.834 48.4869 25.3672 47.7801 25.7461 46.9897C25.9249 46.6111 26.1501 46.2563 26.4168 45.9335C27.0624 45.0952 27.683 44.257 28.4041 43.4606C29.5361 42.2451 30.7267 41.0716 31.9258 39.9231C32.6374 39.2367 33.3937 38.5983 34.1897 38.0119C37.2309 35.7944 40.5893 34.048 44.1513 32.8315C47.031 31.7688 50.0207 31.0322 53.0646 30.6352C54.1882 30.5011 55.2866 30.2161 56.4186 30.0149C56.645 29.973 56.8798 30.0149 57.1062 29.973L61.2988 29.5455H61.5336C63.1184 29.4701 64.7115 29.4198 66.2963 29.3024C67.6211 29.2018 68.9291 29.0174 70.2456 28.8833C71.2266 28.7911 72.2161 28.7743 73.1804 28.615C75.1331 28.3814 77.0706 28.0343 78.983 27.5756C80.66 27.0978 82.3789 26.8211 84.014 26.335C86.4186 25.6724 88.7458 24.7563 90.9567 23.6022C91.5604 23.2753 92.1895 22.9903 92.7932 22.6802C94.6223 21.8303 96.2903 20.6704 97.7235 19.2517C97.945 19.0451 98.1899 18.8651 98.4531 18.7152C98.5789 18.6313 98.7801 18.6062 98.8472 18.4972C99.6354 17.1728 101.203 16.9464 102.293 16.0495C102.829 15.6556 103.498 15.486 104.157 15.5768C104.816 15.6676 105.414 16.0115 105.824 16.5357C106.382 17.3361 106.881 18.1767 107.316 19.0505C107.777 19.9977 108.155 20.9869 108.532 21.9844C108.691 22.4119 108.884 22.4119 109.194 22.2107C109.362 22.1192 109.52 22.0096 109.664 21.8838C110.704 20.7689 112.54 21.2635 113.379 22.3532C113.823 22.9661 114.197 23.6268 114.494 24.3231C115.458 26.4775 115.944 28.7911 116.716 31.0292C116.876 31.6901 117.002 32.3588 117.093 33.0326C117.655 35.5474 118.275 38.1125 118.77 40.6692C119.164 42.6307 119.441 44.6174 119.751 46.5957C120.128 48.9848 120.506 51.3738 120.858 53.7628C120.984 54.6598 121.034 55.5651 121.126 56.4704C121.202 57.1494 121.277 57.82 121.361 58.499C121.495 59.5803 121.638 60.6701 121.772 61.7514C121.78 61.8659 121.78 61.9807 121.772 62.0951C121.856 65.356 122.024 68.6252 121.973 71.8944C121.942 73.8156 121.191 75.655 119.869 77.0497C118.913 78.0724 117.99 79.137 117.001 80.1345C114.96 82.1154 112.658 83.8077 110.159 85.164C108.252 86.2615 106.244 87.1737 104.163 87.8884C102.377 88.4919 100.524 88.9195 98.6963 89.3973C96.836 89.9187 94.9238 90.2335 92.9944 90.3361C91.9882 90.378 91.812 90.5876 91.854 91.6019C92.0636 96.3381 89.9925 100.102 86.8229 103.413C85.7326 104.644 84.3519 105.583 82.8064 106.146C82.7035 106.167 82.606 106.21 82.5198 106.27C82.4336 106.33 82.3605 106.407 82.3049 106.497C82.2493 106.586 82.2123 106.685 82.1962 106.789C82.1801 106.893 82.1851 106.999 82.2111 107.101C82.2153 107.177 82.2153 107.252 82.2111 107.328C82.2111 107.931 82.0853 108.652 82.3704 109.096C82.6555 109.541 83.3934 109.465 83.8714 109.742C84.7837 110.181 85.6303 110.745 86.3869 111.418C86.8794 111.953 87.1997 112.624 87.3058 113.343C87.412 114.062 87.2992 114.796 86.9822 115.45C86.6676 116.359 86.0563 117.136 85.2466 117.655C85.0346 117.781 84.8693 117.973 84.7756 118.201C84.6818 118.429 84.6646 118.682 84.7266 118.921C84.8692 120.597 85.0285 122.274 85.1627 123.9C85.3304 126.088 85.473 128.284 85.6323 130.472C85.6826 131.076 85.7916 131.671 85.8335 132.274C85.8335 132.677 86.0599 132.786 86.4204 132.811C88.1562 132.953 89.8918 133.079 91.6275 133.28C94.5686 133.568 97.4875 134.05 100.365 134.722C102.159 135.175 103.945 135.686 105.706 136.281C106.868 136.667 107.92 137.325 108.775 138.201C109.731 139.173 110.058 140.255 108.825 141.721C107.802 142.807 106.513 143.608 105.086 144.043C102.551 144.963 99.9341 145.636 97.2707 146.055C94.8899 146.514 92.4853 146.839 90.068 147.028C87.955 147.162 85.8755 147.447 83.7457 147.673H83.5192L71.7801 148L71.8557 147.891ZM114.368 63.889C114.259 62.5646 114.158 61.2401 114.041 59.924C113.974 59.1361 113.89 58.3397 113.781 57.5601C113.608 56.7096 113.479 55.8506 113.395 54.9867C113.229 53.0661 112.949 51.1572 112.557 49.2698C112.355 47.9285 112.062 46.5957 111.811 45.2629C111.358 42.8822 110.972 40.5016 110.452 38.1377C110.008 35.9917 109.505 33.8625 109.01 31.725C108.783 30.7358 108.507 29.7467 108.247 28.7659C107.911 27.5253 107.584 26.2511 107.215 25.0524C106.603 22.6981 105.761 20.4098 104.7 18.2206C104.121 17.1309 103.384 16.8626 102.428 17.8937C101.95 18.3966 101.665 19.0253 101.22 19.5115C100.379 20.4223 99.4644 21.2633 98.4867 22.0263C96.3214 23.7448 93.9283 25.1553 91.376 26.2176C88.9778 27.2571 86.4625 28.0366 83.9972 28.9C83.2055 29.164 82.3991 29.3823 81.5822 29.5539C79.9052 29.9143 78.2282 30.2832 76.5512 30.5682C75.1341 30.7945 73.692 30.8448 72.2749 31.0795C70.6728 31.3684 69.0478 31.5115 67.4199 31.507C66.8151 31.5015 66.2103 31.5295 65.6086 31.5908C63.5375 31.7836 61.4749 31.9932 59.4037 32.1692C58.2298 32.2782 57.0476 32.2531 55.8904 32.4375C53.2745 32.8158 50.6822 33.3419 48.1258 34.0134C47.6898 34.1392 47.2873 34.3152 46.8429 34.4577C45.8702 34.7595 44.864 34.969 43.9249 35.363C41.701 36.2329 39.555 37.2901 37.5102 38.5233C35.8707 39.4812 34.3338 40.6048 32.9236 41.8763C30.697 43.9068 28.6776 46.1532 26.8948 48.5824C25.8886 50.0158 25.0921 51.4744 25.3185 53.3018C25.4023 53.9724 25.4443 54.6598 25.5449 55.3304C25.9138 57.9038 26.2743 60.4857 26.6935 63.0591C27.0345 65.1827 27.4147 67.3007 27.834 69.4132C28.1107 70.813 28.3623 72.2213 28.6725 73.6045C29.1588 75.5492 29.4019 77.5443 29.8211 79.4723C30.1146 80.8386 30.4249 82.205 30.71 83.563C31.4731 87.1926 32.2529 90.8055 33.2255 94.3933C33.6783 96.1117 34.3324 97.7463 34.9445 99.4229C35.1697 100.02 35.4741 100.584 35.85 101.099C36.4453 101.938 36.6885 101.938 37.527 101.426C38.3245 100.849 39 100.12 39.5144 99.2803C40.2271 98.3918 40.8728 97.453 41.661 96.6315C43.1665 95.0265 44.82 93.567 46.5997 92.2725C48.1618 91.1437 49.8073 90.1349 51.5218 89.2548C54.7083 87.6309 58.0899 86.4223 61.5839 85.6586C62.7662 85.3988 63.9401 85.0802 65.1224 84.8204C66.1286 84.6359 67.1431 84.5437 68.1577 84.418C69.1723 84.2923 70.4049 84.1078 71.5117 84.024C73.0127 83.9067 74.5136 83.8983 75.7043 82.7331C76.2008 82.3798 76.7536 82.1134 77.3393 81.9451C77.7594 81.7684 78.1908 81.62 78.6307 81.5009C78.7954 81.4644 78.9438 81.375 79.0528 81.2463C79.1618 81.1176 79.2255 80.9567 79.2344 80.7883C79.8086 77.2304 81.5841 73.9764 84.2654 71.5675C85.2007 70.7243 86.3122 70.1 87.5189 69.7401C89.372 69.2036 90.6969 69.7401 91.4767 71.2825C91.8825 72.111 91.9691 73.0599 91.7199 73.9481C91.4935 74.8702 91.2754 75.7923 91.0238 76.706C90.6732 78.3808 90.5688 80.0977 90.7137 81.8026C90.7137 82.1463 90.8394 82.381 91.2838 82.2553C92.3068 81.9787 93.3549 81.7775 94.3695 81.4673C95.8117 81.0314 97.2457 80.5285 98.6795 80.0339C101.896 78.8639 104.922 77.2257 107.66 75.172C109.644 73.7138 111.463 72.0442 113.085 70.1927C113.297 69.9498 113.455 69.6639 113.546 69.3545C114.109 67.5878 114.386 65.7429 114.368 63.889ZM71.4196 145.812V145.888C73.0966 145.795 74.8238 145.678 76.5344 145.611C78.9577 145.51 81.3895 145.443 83.8212 145.36C84.4836 145.36 84.559 145.284 84.5254 144.63C84.4667 143.381 84.3744 142.115 84.2738 140.883C84.148 139.374 83.9133 137.874 83.8797 136.365C83.8294 133.439 83.6449 130.497 83.4269 127.622C83.2424 125.157 83.2426 122.685 83.1587 120.22C83.1587 119.952 83.1587 119.684 83.1587 119.382C83.1587 118.871 83.0246 118.812 82.5215 118.929C81.9376 119.085 81.3435 119.2 80.7437 119.273C80.6031 119.266 80.4665 119.224 80.3464 119.151C80.2262 119.078 80.1263 118.976 80.0561 118.854C80.0472 118.711 80.0723 118.568 80.1292 118.437C80.186 118.306 80.273 118.19 80.3832 118.099C80.842 117.766 81.324 117.467 81.8254 117.202C82.8802 116.672 83.8427 115.976 84.6763 115.14C84.9527 114.899 85.1378 114.569 85.2004 114.208C85.2629 113.846 85.1994 113.474 85.0202 113.154C84.4563 112.238 83.5811 111.556 82.555 111.234C82.4796 111.234 82.2363 111.385 82.1943 111.511C82.1524 111.636 82.2782 111.812 82.3788 111.921C82.4794 112.03 82.5969 111.921 82.7059 111.921C82.7833 111.918 82.8606 111.93 82.9331 111.957C83.0057 111.984 83.0721 112.025 83.1284 112.079C83.1847 112.132 83.2298 112.196 83.2609 112.267C83.292 112.338 83.3086 112.414 83.3096 112.491C83.3036 112.616 83.2696 112.739 83.2101 112.849C83.1506 112.959 83.0672 113.055 82.9659 113.128C82.1227 113.639 81.2325 114.069 80.3077 114.411C78.0503 115.069 75.7223 115.455 73.3732 115.559C71.0213 115.732 68.6569 115.58 66.3466 115.107C65.1431 114.903 63.9984 114.44 62.9926 113.749C62.7916 113.605 62.6212 113.423 62.4916 113.213C62.362 113.003 62.2757 112.769 62.2378 112.525C62.2305 112.417 62.2479 112.309 62.2886 112.209C62.3292 112.108 62.3921 112.019 62.4726 111.946C62.5687 111.903 62.6731 111.88 62.7787 111.88C62.8843 111.88 62.9886 111.903 63.0847 111.946C63.3614 112.055 63.5963 112.273 63.8647 112.399C63.9234 112.399 64.158 112.307 64.158 112.265C64.158 111.67 64.091 111.083 64.0491 110.488C63.5089 110.651 62.9841 110.861 62.481 111.117C60.4267 112.407 60.4602 115.115 62.481 116.012C62.9589 116.23 63.4119 116.523 63.8814 116.775C64.2169 116.951 64.569 117.102 64.8876 117.303C65.2062 117.504 65.4662 117.747 65.3237 118.141C65.1811 118.535 64.7534 118.611 64.3676 118.552C63.9819 118.493 63.6969 118.393 63.3699 118.317C62.4475 118.091 62.4476 118.099 62.4224 119.03C62.4266 119.108 62.4266 119.186 62.4224 119.264L62.1709 128.376C62.1709 128.494 62.1709 128.603 62.1709 128.72C62.0283 130.397 61.8606 132.031 61.7516 133.691C61.6426 135.351 61.5755 136.952 61.4916 138.578C61.4916 138.695 61.4916 138.804 61.4916 138.922C61.3575 140.808 61.1982 142.694 61.0975 144.588C61.0975 145.427 61.1981 145.477 62.0366 145.502L71.4196 145.812ZM70.9416 113.648C72.6186 113.539 74.2202 113.522 75.763 113.33C77.1466 113.154 78.5049 112.793 79.88 112.491C80.2741 112.408 80.4 112.24 80.3497 111.779C80.3035 110.913 80.3035 110.046 80.3497 109.18C80.3497 108.619 80.4 108.049 80.4252 107.504C80.4252 107.101 80.2154 106.976 79.8549 106.984C79.361 107.026 78.8647 107.026 78.3709 106.984C77.9299 106.917 77.5089 106.754 77.1381 106.506C77.0181 106.425 76.925 106.309 76.8701 106.175C76.8153 106.041 76.8012 105.893 76.8298 105.751C76.8584 105.608 76.9285 105.478 77.031 105.375C77.1336 105.272 77.2642 105.202 77.4065 105.173C77.8071 105.059 78.2166 104.977 78.6307 104.93C80.383 104.789 82.0628 104.168 83.4857 103.136C84.4224 102.423 85.2925 101.626 86.0851 100.756C87.4851 99.1509 88.5359 97.2725 89.1708 95.24C89.85 93.0689 89.6571 90.8559 89.5313 88.668C89.4223 86.6813 88.9361 84.7114 88.6342 82.7331C88.2658 80.5959 88.3314 78.4065 88.8271 76.2953C89.0535 75.4067 89.3552 74.5433 89.5313 73.6547C89.7409 72.565 89.5314 71.6681 87.9298 72.1543C87.0345 72.4787 86.2234 73 85.5568 73.6799C83.3441 75.7571 81.8717 78.5008 81.3642 81.4925C81.3217 81.9507 81.1372 82.3843 80.8367 82.7329C80.5361 83.0814 80.1343 83.3276 79.6872 83.4372C77.6205 84.0173 75.7749 85.2026 74.388 86.8406C73.0697 88.2138 72.063 89.8549 71.4364 91.6522C70.9629 93.1357 70.7473 94.6895 70.7991 96.2458C70.8453 96.7785 70.8453 97.3142 70.7991 97.8469C70.766 97.9645 70.7075 98.0735 70.6278 98.1662C70.5481 98.2589 70.4493 98.333 70.3379 98.3834C70.2121 98.4253 69.8934 98.2325 69.8096 98.0733C69.5318 97.5809 69.3391 97.0453 69.2394 96.489C69.0089 95.4951 68.9917 94.4638 69.1891 93.4628C69.2791 93.0565 69.3435 92.645 69.3819 92.2306C69.4574 91.8115 69.2646 91.6773 68.8873 91.6857C68.7731 91.6729 68.6576 91.6729 68.5434 91.6857C66.7741 92.0545 64.9883 92.3982 63.2274 92.8006C60.9893 93.3988 58.8 94.1666 56.6786 95.0974C56.6049 95.1124 56.5355 95.1436 56.4755 95.1889C56.4155 95.2341 56.3664 95.2923 56.3318 95.359C56.2972 95.4258 56.2779 95.4994 56.2755 95.5746C56.2731 95.6497 56.2878 95.7244 56.3181 95.7932C56.5867 96.9766 56.9714 98.1306 57.4667 99.2384C58.0287 100.613 58.9122 101.832 60.0429 102.795C61.1735 103.758 62.5185 104.435 63.9652 104.771C65.0972 105.056 66.2712 105.157 67.4283 105.358C67.7635 105.41 68.0904 105.506 68.4009 105.643C68.5542 105.713 68.6755 105.838 68.7407 105.993C68.806 106.148 68.8104 106.323 68.753 106.481C68.7082 106.594 68.6393 106.697 68.551 106.781C68.4626 106.864 68.3571 106.928 68.2416 106.967C67.649 107.076 67.0493 107.144 66.4471 107.168C66.053 107.168 65.8687 107.219 65.9357 107.764C66.1202 109.147 66.1621 110.555 66.2627 111.955C66.2627 112.139 66.2627 112.332 66.2627 112.525C66.2627 113.145 66.3969 113.254 67.0007 113.304C68.3674 113.464 69.7342 113.556 70.9416 113.648ZM119.701 69.2874C119.701 69.212 119.701 69.1449 119.701 69.0695L119.349 64.5429C119.198 62.4304 119.044 60.318 118.887 58.2056C118.812 57.3003 118.737 56.395 118.611 55.498C118.343 53.6706 118.016 51.8516 117.772 50.0158C117.529 48.18 117.37 46.1095 117.018 44.148C116.456 40.9877 115.894 37.8275 115.139 34.7008C114.661 32.756 114.359 30.761 113.814 28.833C113.311 27.0475 112.607 25.3207 111.936 23.5855C111.873 23.4445 111.778 23.3203 111.658 23.2227C111.539 23.1252 111.398 23.057 111.247 23.0236C111.096 22.9902 110.94 22.9925 110.79 23.0304C110.641 23.0683 110.502 23.1407 110.385 23.2418C109.985 23.5292 109.652 23.9012 109.412 24.3315C109.303 24.5411 109.597 24.9434 109.697 25.262C109.725 25.3722 109.745 25.4842 109.756 25.5973C110.343 27.8271 110.955 30.0568 111.517 32.3034C112.079 34.5499 112.666 37.006 113.194 39.3783C113.781 42.111 114.284 44.8605 114.821 47.6016C114.916 47.888 114.983 48.1827 115.022 48.4818C115.022 50.3846 115.626 52.2121 115.861 54.0898C116.12 56.5291 116.573 58.9433 116.699 61.4078C116.699 61.852 116.699 62.3047 116.783 62.749C117.068 65.4314 117.101 68.0552 115.148 70.2514C114.267 72.0704 112.699 73.3362 111.4 74.8032C109.728 76.5154 107.829 77.9905 105.757 79.1873C103.522 80.625 101.124 81.79 98.6124 82.6577C96.4994 83.3786 94.3361 83.9402 92.1979 84.5773C91.8709 84.6779 91.5019 84.8036 91.5522 85.2563C91.6445 86.0023 91.745 86.7484 91.8959 87.4944C91.9546 87.8129 92.1811 87.9722 92.5752 87.8968C93.9168 87.6704 95.2584 87.4776 96.6001 87.2848C98.9916 86.8894 101.347 86.3007 103.643 85.5245C105.958 84.8213 108.177 83.8359 110.251 82.5906C111.802 81.7208 113.28 80.7255 114.67 79.6148C115.559 78.852 116.64 78.3155 117.252 77.2509C117.319 77.1335 117.487 77.0665 117.613 76.9826C118.306 76.5046 118.794 75.7835 118.98 74.9624C119.455 73.108 119.697 71.2016 119.701 69.2874ZM71.2602 86.6394C69.6586 86.8238 68.2499 86.8909 66.8832 87.1591C63.7573 87.7349 60.6753 88.5276 57.6596 89.5314C54.9413 90.4838 52.3372 91.7349 49.895 93.2616C47.7477 94.5685 45.7753 96.1431 44.0254 97.9475C43.2542 98.8504 42.4131 99.6913 41.5099 100.462C40.7629 101.029 40.0697 101.663 39.4388 102.357C38.9525 102.91 38.9274 103.145 39.3467 103.748C39.7659 104.352 40.227 104.587 40.8642 104.36C41.8484 103.935 42.6711 103.207 43.2121 102.281C43.4243 101.879 43.6773 101.5 43.9669 101.15C45.1156 100.001 46.2979 98.8864 47.4718 97.7966C47.6862 97.5836 47.9191 97.39 48.1678 97.2182C49.4507 96.38 50.7503 95.4914 52.0332 94.6196C54.4019 93.1078 56.9703 91.9341 59.6637 91.1325C61.7937 90.3467 63.9995 89.7849 66.2459 89.456C67.3359 89.3386 68.4177 89.1542 69.491 88.953C69.9024 88.9076 70.2936 88.7511 70.6229 88.5003C70.9991 88.0745 71.3178 87.601 71.5705 87.0921C71.5705 87.025 71.4531 86.8154 71.3357 86.7232C71.2183 86.631 71.1511 86.631 71.2602 86.6394Z" fill="black"/>
<path d="M22.8361 24.7925C22.7858 24.9099 22.6769 25.2284 22.5427 25.5302C22.398 25.8398 22.2326 26.1395 22.0479 26.4271C21.8901 26.619 21.8117 26.864 21.8289 27.1119C21.8461 27.3597 21.9575 27.5916 22.1403 27.76C22.6434 28.33 23.0961 28.9335 23.5657 29.5203C23.6409 29.6057 23.698 29.7055 23.7334 29.8137C23.8004 30.2328 24.3203 30.61 23.9262 31.0795C23.5321 31.5489 23.0877 31.1382 22.6936 31.0292C21.8551 30.8028 20.9244 30.6101 20.0272 30.4592C19.8847 30.4592 19.6414 30.652 19.5324 30.8196C18.9287 31.7333 18.3754 32.6889 17.7717 33.6026C17.5034 34.005 17.2434 34.5583 16.6648 34.4409C16.0862 34.3235 16.061 33.6026 15.9688 33.1416C15.8178 32.3033 15.7844 31.4651 15.6922 30.6268C15.6 29.7885 15.4824 29.7885 14.7194 29.6628C14.2306 29.6087 13.7495 29.499 13.2856 29.3359C13.1128 29.2944 12.9544 29.2071 12.827 29.0832C12.6996 28.9594 12.6078 28.8035 12.5615 28.632C12.5152 28.4604 12.516 28.2796 12.5638 28.1085C12.6115 27.9373 12.7043 27.7822 12.8327 27.6594C13.0254 27.4269 13.2583 27.231 13.5204 27.081C13.8073 26.8893 14.1171 26.7344 14.4426 26.6199C14.7235 26.5482 14.9667 26.3723 15.1225 26.1278C15.2782 25.8833 15.3349 25.5887 15.2811 25.3038C15.235 24.3907 15.235 23.4759 15.2811 22.5627C15.2811 21.7664 15.7088 21.5065 16.3796 21.9508C17.2259 22.5263 18.0251 23.1682 18.7694 23.8704C18.8979 24.0281 19.0793 24.1337 19.2798 24.1677C19.4803 24.2016 19.6864 24.1615 19.8595 24.0548C20.4701 23.7548 21.1234 23.5512 21.7963 23.4513C22.6181 23.4262 22.8445 23.7195 22.8361 24.7925Z" fill="#CBB5F5"/>
<path d="M124.699 103.438C124.85 101.51 124.766 101.963 123.256 102.281C122.778 102.382 122.309 102.558 121.831 102.675C121.265 102.849 120.653 102.801 120.122 102.539C119.59 102.277 119.179 101.822 118.972 101.267C118.59 100.35 118.499 99.3371 118.712 98.3665C118.712 98.1737 118.821 97.9977 118.837 97.8133C118.851 97.7369 118.847 97.6585 118.828 97.5836C118.808 97.5087 118.772 97.4389 118.722 97.3792C118.673 97.3194 118.611 97.2711 118.541 97.2375C118.471 97.2039 118.395 97.1858 118.318 97.1846C117.941 97.1844 117.565 97.2181 117.194 97.2852C115.903 97.5115 114.679 97.478 113.781 96.3295C113.478 95.9394 113.267 95.4853 113.165 95.0016C113.064 94.5179 113.073 94.0174 113.194 93.5381C113.194 93.2951 113.63 93.0017 113.915 92.9514C114.2 92.9011 114.46 93.2028 114.578 93.4292C114.756 93.8475 114.891 94.2828 114.98 94.7285C115.003 94.9015 115.094 95.0585 115.232 95.1653C115.37 95.272 115.545 95.3199 115.718 95.2985C116.28 95.2842 116.841 95.2282 117.395 95.1308C118.015 94.9928 118.662 95.0373 119.257 95.2589C119.852 95.4806 120.371 95.8699 120.749 96.3798C120.912 96.6106 121.021 96.8752 121.067 97.1539C121.114 97.4326 121.097 97.7181 121.018 97.9893C120.871 98.4607 120.778 98.9472 120.741 99.4395C120.64 100.387 120.984 100.722 121.932 100.538C122.486 100.402 123.032 100.234 123.567 100.035C124.246 99.7708 125 99.7708 125.68 100.035C126.127 100.206 126.507 100.515 126.765 100.918C127.023 101.321 127.145 101.796 127.114 102.273C127.102 102.536 127.065 102.797 127.005 103.052C126.787 104.125 126.87 104.276 127.944 104.578C128.732 104.804 129.176 105.131 129.042 105.467C128.925 105.708 128.741 105.91 128.512 106.05C128.283 106.19 128.019 106.261 127.751 106.255C126.409 106.422 125.47 106.045 125.051 105.056C124.875 104.531 124.757 103.988 124.699 103.438Z" fill="#CBB5F5"/>
<path d="M139.757 35.1953C140.654 35.5642 141.434 35.1953 141.962 34.1643C142.081 33.9858 142.259 33.8556 142.465 33.7972C142.672 33.7388 142.892 33.756 143.086 33.8457C143.273 33.8983 143.439 34.0069 143.562 34.1568C143.685 34.3067 143.759 34.4907 143.774 34.684C143.774 34.8349 143.774 34.9941 143.824 35.1366C143.941 35.8156 144.193 36.3437 144.973 36.4946C145.341 36.5866 145.684 36.7583 145.979 36.9976C146.116 37.0842 146.227 37.2049 146.303 37.3478C146.378 37.4907 146.416 37.6509 146.411 37.8125C146.406 37.9741 146.358 38.1316 146.274 38.2695C146.189 38.4073 146.07 38.5208 145.929 38.5987C145.836 38.6657 145.719 38.6993 145.627 38.7579C144.663 39.3196 144.621 39.4118 144.788 40.4848C144.847 40.6254 144.875 40.7767 144.872 40.929C144.801 41.3663 144.639 41.7835 144.394 42.1529C144 42.572 143.648 42.0271 143.296 41.8679C142.953 41.7158 142.643 41.4995 142.382 41.2308C142.18 40.9765 141.891 40.8053 141.571 40.7497C141.251 40.6941 140.922 40.7579 140.646 40.929C140.093 41.1637 139.497 41.2979 138.969 41.5158C138.873 41.5594 138.769 41.5828 138.664 41.5847C138.559 41.5866 138.454 41.5669 138.357 41.5268C138.259 41.4868 138.171 41.4272 138.098 41.3518C138.024 41.2764 137.967 41.1867 137.929 41.0883C137.703 40.7027 138.038 40.5099 138.231 40.25C138.589 39.6792 138.893 39.0758 139.137 38.4478C139.195 38.2969 139.053 38.0286 138.952 37.8358C138.726 37.4419 138.424 37.0898 138.231 36.6874C137.803 35.7989 138.105 35.3127 139.07 35.2372C139.271 35.1786 139.397 35.1953 139.757 35.1953Z" fill="#CBB5F5"/>
<path d="M17.3025 108.962C17.705 109.029 18.1409 109.08 18.5267 109.163C19.2478 109.298 19.3652 109.247 19.3652 108.543C19.3652 108.359 19.3652 108.166 19.3652 107.973C19.4831 107.022 19.9621 106.152 20.7034 105.543C21.4447 104.935 22.3915 104.634 23.3481 104.704C23.6408 104.745 23.9244 104.836 24.1866 104.972C24.2769 105.01 24.3542 105.073 24.4085 105.154C24.4628 105.236 24.4918 105.331 24.4918 105.429C24.4918 105.527 24.4628 105.622 24.4085 105.704C24.3542 105.785 24.2769 105.848 24.1866 105.886C24.0159 105.967 23.8356 106.026 23.65 106.062C23.3566 106.137 23.0547 106.171 22.7696 106.263C21.5621 106.657 21.4194 106.883 21.3775 108.124C21.3699 108.767 21.294 109.408 21.1511 110.035C21.1 110.275 20.9998 110.502 20.8567 110.701C20.7136 110.901 20.5307 111.068 20.3195 111.194C20.1084 111.319 19.8737 111.399 19.6301 111.429C19.3864 111.459 19.1392 111.438 18.9039 111.368H18.6775C18.1912 111.309 17.5875 111.049 17.2605 111.251C16.7658 111.552 17.3779 112.089 17.3109 112.609C17.2438 113.128 17.3108 113.715 16.8664 114.193C16.6824 114.438 16.4278 114.62 16.137 114.716C15.8463 114.812 15.5333 114.817 15.2398 114.729C14.9358 114.625 14.6112 114.595 14.2932 114.641C13.9751 114.688 13.6728 114.81 13.4117 114.998C13.1128 115.168 12.8051 115.322 12.4894 115.459C12.2819 115.546 12.0528 115.57 11.8317 115.527C11.6106 115.483 11.4076 115.375 11.2485 115.216C10.9969 114.847 11.1226 114.528 11.3406 114.168C11.615 113.647 12.0301 113.214 12.5386 112.918C13.047 112.621 13.6285 112.474 14.2168 112.491C14.8709 112.491 14.8959 112.491 14.7786 111.821C14.5102 110.018 15.4326 108.862 17.3025 108.962Z" fill="#CBB5F5"/>
<path d="M71.352 2.99776C71.33 3.43467 71.22 3.86265 71.0283 4.25592C70.8367 4.64919 70.5673 4.99965 70.2367 5.28622C69.8174 5.78079 69.3144 6.19991 68.8616 6.66095C68.4088 7.122 68.325 7.2226 68.694 7.92674C68.923 8.36156 69.1836 8.779 69.4737 9.17574C69.8714 9.61625 70.161 10.1433 70.3196 10.7151C70.4782 11.2869 70.5017 11.8877 70.3878 12.4701C70.151 13.3878 69.7223 14.2449 69.13 14.9849C68.8605 15.3283 68.6804 15.7332 68.6057 16.1633C68.5311 16.5934 68.5643 17.0352 68.7024 17.4494C68.8964 18.0618 69.1549 18.6519 69.4737 19.2097C69.5408 19.3522 69.6834 19.4612 69.7085 19.5953C69.7337 19.7294 69.7085 20.0564 69.6414 20.1234C69.5503 20.1744 69.4497 20.206 69.3458 20.2161C69.2419 20.2262 69.1369 20.2146 69.0377 20.1821C68.6933 20.0177 68.3868 19.784 68.1372 19.4955C67.8875 19.2069 67.7002 18.8699 67.5871 18.5056C66.8324 16.8961 66.7485 15.3034 67.9392 13.8113C68.1261 13.5732 68.2944 13.321 68.4424 13.0569C68.7027 12.6819 68.8301 12.2307 68.8043 11.775C68.7785 11.3193 68.6009 10.8853 68.2999 10.5421C67.8974 10.0391 67.5284 9.51105 67.1762 8.97456C66.2119 7.51599 66.3376 6.55198 67.4948 5.30298C67.8302 4.94253 68.1991 4.59884 68.5429 4.25515C69.5743 3.22409 69.5827 3.14865 68.8281 1.94994C68.6198 1.6796 68.4711 1.36819 68.392 1.03624C68.3734 0.87565 68.3867 0.712966 68.4313 0.557577C68.4759 0.402189 68.551 0.257161 68.652 0.130901C68.9539 -0.179256 69.2725 0.130909 69.5325 0.348856C69.9601 0.726074 70.371 1.08652 70.8238 1.47212C71.0224 1.66936 71.173 1.90936 71.2646 2.17378C71.3561 2.43819 71.3861 2.72003 71.352 2.99776Z" fill="#CBB5F5"/>
<path d="M1.18613 77.0412H0.842213C0.448114 77.0412 0.00370495 76.9909 0.00370495 76.5131C-0.0156682 76.3162 0.0414397 76.1193 0.163177 75.9633C0.284914 75.8073 0.46199 75.704 0.657766 75.6748C1.38688 75.4751 2.12584 75.3129 2.87154 75.1886C4.76657 74.8701 6.66144 74.5264 8.57323 74.3085C9.42306 74.1338 10.2965 74.1054 11.1559 74.2246C11.5165 74.3085 11.8184 74.4258 11.8687 74.8282C11.901 75.0146 11.8594 75.2061 11.7531 75.3625C11.6467 75.5189 11.4836 75.6279 11.2984 75.6665C10.5046 75.9144 9.69863 76.1214 8.88358 76.2868C8.21379 76.3878 7.53941 76.4549 6.86285 76.488L1.21971 76.9658L1.18613 77.0412Z" fill="#CBB5F5"/>
<path d="M115.383 9.31831C115.171 9.00464 114.98 8.67695 114.812 8.33754C114.813 8.22856 114.879 8.05253 114.938 7.91841C115.852 6.04909 116.758 4.18816 117.672 2.32723C117.831 2.00869 118.066 1.65662 118.451 1.88295C118.837 2.10928 118.636 2.47811 118.502 2.79665C117.739 4.60729 116.993 6.41793 116.213 8.22019C115.976 8.6147 115.698 8.98282 115.383 9.31831Z" fill="#CBB5F5"/>
<path d="M142.425 79.9332C142.688 80.028 142.943 80.1429 143.188 80.2769C144.558 81.1655 145.916 82.068 147.263 82.9845C147.49 83.1263 147.691 83.3047 147.859 83.5126C147.92 83.5944 147.963 83.6883 147.984 83.7881C148.006 83.8879 148.006 83.9912 147.984 84.091C147.955 84.152 147.912 84.2056 147.859 84.2479C147.806 84.2901 147.745 84.32 147.679 84.3353C147.613 84.3506 147.544 84.3509 147.478 84.3362C147.412 84.3214 147.35 84.2921 147.297 84.2503C146.71 83.8982 146.14 83.521 145.553 83.1773C144.605 82.6157 143.641 82.0876 142.693 81.5008C142.405 81.3296 142.149 81.1082 141.939 80.8469C141.882 80.7565 141.847 80.6541 141.837 80.5479C141.827 80.4417 141.842 80.3346 141.88 80.235C141.964 80.1177 142.241 80.0338 142.425 79.9332Z" fill="#CBB5F5"/>
<path d="M51.1617 81.3583C51.1954 81.6227 51.1954 81.8903 51.1617 82.1547C51.0862 82.4229 50.9437 82.8337 50.7676 82.8756C50.4066 82.9417 50.0338 82.8826 49.7111 82.7079C49.4678 82.5284 49.2933 82.271 49.2165 81.9786C48.9321 81.2723 48.6884 80.5502 48.4869 79.8159C47.9586 77.6951 47.489 75.5492 46.9608 73.42C46.357 71.0058 45.6862 68.6 45.0825 66.1774C44.4788 63.7549 43.9507 61.3239 43.3385 58.9097C42.8354 56.8895 42.2316 54.8944 41.7285 52.8742C41.3344 51.2648 41.0073 49.6386 40.6719 48.0039C40.6302 47.6643 40.6302 47.3209 40.6719 46.9813C40.6719 46.6963 40.5798 46.3526 40.9655 46.2017C41.1664 46.136 41.3831 46.1364 41.5837 46.2028C41.7844 46.2691 41.9587 46.398 42.0808 46.5705C42.1605 46.6985 42.2225 46.8367 42.2652 46.9813C42.9277 49.1021 43.6235 51.2229 44.2524 53.3688C44.6297 54.6681 44.8982 56.0093 45.2504 57.317C45.6025 58.6247 46.0301 60.0833 46.4158 61.4664C46.7093 62.5226 46.986 63.5788 47.2543 64.635C47.7742 66.5714 48.3612 68.491 48.7805 70.4358C49.3339 72.9506 50.1974 75.4653 50.5328 78.0472C50.6083 78.6424 50.8599 79.204 50.994 79.7908C51.1282 80.3775 51.1702 80.8302 51.2624 81.3499L51.1617 81.3583Z" fill="black"/>
<path d="M75.0344 74.954C74.9338 75.6246 74.8249 76.2952 74.741 76.9658C74.6907 77.343 74.5734 77.628 74.1541 77.6951C73.9425 77.7242 73.7274 77.6769 73.5475 77.5616C73.3677 77.4464 73.2348 77.2708 73.1729 77.0664C72.9673 76.4161 72.8078 75.7523 72.6951 75.0797C72.4268 73.2942 72.2254 71.492 71.9571 69.6981C71.8565 68.9856 71.6469 68.2898 71.5127 67.5857C71.127 65.5487 70.7833 63.5033 70.3808 61.4664C69.9783 59.4294 69.4668 57.2751 69.0643 55.1375C68.6283 52.8407 68.2258 50.5271 67.8485 48.2219C67.7144 47.4842 67.5215 46.7465 67.3873 46.0005C67.0798 44.3239 66.8003 42.6474 66.5488 40.9709C66.4744 40.5563 66.4888 40.1306 66.5908 39.7219C66.6425 39.586 66.7257 39.4643 66.8335 39.3667C66.9414 39.2691 67.0708 39.1983 67.2112 39.1603C67.3532 39.1769 67.4886 39.2294 67.6045 39.3131C67.7204 39.3967 67.8132 39.5086 67.8737 39.6381C68.3198 40.8839 68.7031 42.1512 69.0223 43.4354C69.6261 46.0508 70.1627 48.6745 70.6994 51.3067C70.9174 52.3377 71.085 53.3772 71.2947 54.4166C71.9739 57.7026 72.7119 60.9886 73.3408 64.2913C73.9361 67.4012 74.4308 70.5363 74.9423 73.6714C74.9759 74.0871 74.9759 74.5048 74.9423 74.9204L75.0344 74.954Z" fill="black"/>
<path d="M58.0278 42.6307C58.0069 42.251 58.0069 41.8704 58.0278 41.4907C58.0523 41.231 58.1447 40.9823 58.296 40.7697C58.3638 40.6528 58.4659 40.5593 58.5883 40.502C58.7108 40.4446 58.8477 40.4261 58.981 40.449C59.1143 40.4718 59.2375 40.5348 59.3339 40.6296C59.4303 40.7244 59.4952 40.8465 59.5202 40.9793C59.6579 41.3721 59.7618 41.7759 59.8305 42.1864C60.3253 44.8605 60.8032 47.5345 61.3147 50.2002C61.8849 53.1676 62.4466 56.1267 63.0838 59.0773C63.5199 61.0724 64.0901 63.0256 64.5596 65.0039C64.8363 66.1439 65.0125 67.3007 65.2724 68.4407C65.742 70.5448 66.287 72.632 66.7314 74.736C66.8594 75.5683 66.9266 76.4088 66.9327 77.2508C66.9327 77.7789 66.5806 78.0053 66.1613 78.0891C65.7421 78.1729 65.5073 77.8125 65.3228 77.4604C64.5238 75.7796 63.9595 73.997 63.6458 72.1626C63.5787 71.6513 63.3691 71.1735 63.2601 70.6621C62.4971 67.0408 61.5829 63.4531 60.7947 59.8402C60.3839 57.996 60.1156 56.1267 59.7634 54.2741C59.4951 52.8239 59.1764 51.3905 58.9249 49.9403C58.6398 48.2638 58.4051 46.5034 58.1535 44.7934C58.0445 44.0809 57.9522 43.3684 57.8516 42.6642L58.0278 42.6307Z" fill="black"/>
<path d="M102.846 68.9018C102.846 69.3963 102.846 69.8909 102.846 70.3855C102.852 70.577 102.792 70.7646 102.676 70.9171C102.56 71.0696 102.395 71.1779 102.209 71.2238C101.887 71.1986 101.588 71.0517 101.371 70.813C101.178 70.5713 101.056 70.2813 101.018 69.9747C100.624 68.1306 100.255 66.278 99.8948 64.4255C99.5594 62.7489 99.2324 61.0137 98.9138 59.3121C98.5952 57.6104 98.3436 55.959 98.0753 54.2825C97.807 52.606 97.3876 50.9295 97.1444 49.2529C96.809 46.9729 96.1465 44.7599 95.9872 42.4463C95.8866 40.9877 95.4674 39.5543 95.241 38.0957C95.0817 37.0563 94.9979 36.0001 94.8805 34.9522C94.868 34.7988 94.868 34.6446 94.8805 34.4912C94.9224 34.1224 94.9391 33.6529 95.4087 33.6026C95.6372 33.5994 95.8605 33.6716 96.0439 33.8079C96.2273 33.9443 96.3606 34.1373 96.4232 34.3571C96.6832 35.3043 96.9684 36.2515 97.1612 37.2155C97.5721 39.2106 97.9326 41.214 98.3099 43.2175C98.704 45.3718 98.9725 47.5597 99.5175 49.6721C100.138 52.1282 100.44 54.6346 101.002 57.0991C101.563 59.5636 101.949 61.9107 102.368 64.3249C102.62 65.817 102.779 67.3174 102.989 68.8179L102.846 68.9018Z" fill="black"/>
<path d="M100.701 32.9487C100.707 32.3116 100.639 31.6759 100.499 31.0543C100.391 30.5388 100.435 30.003 100.625 29.5119C100.672 29.3961 100.747 29.2941 100.844 29.215C100.941 29.1359 101.056 29.0823 101.179 29.0592C101.3 29.0673 101.418 29.1052 101.522 29.1695C101.626 29.2338 101.712 29.3226 101.774 29.428C102.065 30.0032 102.265 30.6195 102.369 31.2554C102.554 33.2924 103.208 35.2456 103.518 37.2574C103.887 39.4872 104.281 41.7253 104.692 43.9635C105.178 46.5621 105.715 49.1523 106.201 51.7509C106.562 53.7208 106.872 55.6991 107.207 57.6774C107.308 58.2307 107.417 58.7839 107.509 59.3539C107.769 60.955 108.054 62.5561 108.264 64.1655C108.301 64.6944 108.241 65.2255 108.088 65.7331C107.976 66.0606 107.776 66.3508 107.509 66.5713C107.451 66.6499 107.372 66.7109 107.281 66.7477C107.19 66.7845 107.091 66.7958 106.994 66.7802C106.897 66.7647 106.807 66.7229 106.732 66.6595C106.657 66.5961 106.601 66.5134 106.57 66.4205C106.35 66.022 106.192 65.5924 106.101 65.1463C105.748 63.168 105.472 61.1897 105.128 59.2198C104.818 57.4678 104.44 55.7326 104.122 53.9891C103.753 51.9856 103.434 49.9654 103.082 47.962C102.822 46.4699 102.545 44.9861 102.294 43.494C102.084 42.2283 101.908 40.9793 101.707 39.6967C101.659 39.4357 101.595 39.1781 101.514 38.9255C101.411 38.6808 101.338 38.4247 101.296 38.1627C101.224 36.5745 101 34.9968 100.625 33.4517C100.608 33.3041 100.608 33.155 100.625 33.0074L100.701 32.9487Z" fill="black"/>
<path d="M84.7678 50.7786C83.7251 50.7693 82.7012 50.5 81.789 49.9949C80.8768 49.4899 80.105 48.7652 79.5439 47.8865C78.8398 46.8508 78.4206 45.6483 78.3281 44.3994C78.1374 42.5772 78.6503 40.751 79.7619 39.2944C80.4281 38.4075 81.3365 37.7321 82.378 37.3496C82.4447 37.3134 82.5201 37.2961 82.596 37.2993C83.9292 37.5927 85.2792 37.1401 86.6292 37.4586C87.3435 37.6991 88.0063 38.0717 88.583 38.5567C89.2634 39.017 89.8426 39.6113 90.2852 40.3031C90.7279 40.995 91.0246 41.7699 91.1573 42.5804C91.4502 43.8845 91.3554 45.2458 90.8846 46.4968C90.4139 47.7478 89.5876 48.834 88.5075 49.6218C87.448 50.4585 86.1148 50.8709 84.7678 50.7786ZM88.8932 43.9551C88.8503 43.3469 88.7291 42.7468 88.5327 42.1696C88.1894 41.3827 87.6673 40.6866 87.008 40.1366C86.3486 39.5866 85.5701 39.1978 84.7342 39.001C84.5955 38.9544 84.4453 38.9544 84.3066 39.001C83.7448 39.3112 83.1997 39.6548 82.6295 39.9566C80.2566 41.2224 80.0218 44.567 81.397 46.5034C81.9401 47.3652 82.7912 47.9879 83.7772 48.2448C84.7631 48.5017 85.8099 48.3736 86.7048 47.8865C87.4004 47.491 87.9739 46.912 88.3628 46.2128C88.7517 45.5136 88.9409 44.721 88.91 43.9216L88.8932 43.9551Z" fill="black"/>
<path d="M42.9358 75.7336C42.9527 75.8447 42.9527 75.9578 42.9358 76.0689C42.8017 76.4545 42.7261 76.9072 42.2062 76.9826C41.6863 77.0581 41.527 76.6724 41.3677 76.3204C41.1078 75.742 40.8813 75.1384 40.6549 74.5433C40.4179 73.9951 40.208 73.4356 40.026 72.8668C39.4139 70.7292 38.8103 68.5833 38.2485 66.4289C37.6867 64.2746 37.1417 61.961 36.5715 59.7228C36.1438 58.0463 35.6574 56.4536 35.2214 54.8106C34.8944 53.6119 34.6178 52.3964 34.3159 51.1893C34.3119 51.1503 34.3119 51.111 34.3159 51.072C34.2572 50.5523 34.4835 49.9403 34.8021 49.9068C35.2633 49.8481 35.5318 50.1415 35.7917 50.5103C36.3432 51.459 36.7501 52.4846 36.9991 53.5532C37.9382 56.353 38.76 59.1864 39.565 62.0281C40.4706 65.2637 41.3397 68.5106 42.1726 71.7686C42.4494 73.0596 42.6675 74.4008 42.9358 75.7336Z" fill="black"/>
<path d="M89.364 53.3855C89.3344 53.1967 89.3344 53.0044 89.364 52.8155C89.4478 52.5808 89.5736 52.2455 89.7496 52.1952C90.0382 52.1387 90.3374 52.1926 90.5881 52.3461C90.7743 52.5292 90.9101 52.7573 90.9822 53.0083C91.5863 54.3176 91.9743 55.716 92.1311 57.1493C92.2436 57.7824 92.3891 58.4091 92.5671 59.027C92.9193 60.6113 93.2798 62.1956 93.5901 63.7883C94.0261 66.0516 94.4285 68.3149 94.8143 70.595C94.8564 71.2367 94.7854 71.8807 94.6046 72.4979C94.5901 72.6221 94.5406 72.7397 94.462 72.837C94.3833 72.9343 94.2789 73.0074 94.1604 73.0477C94.042 73.0881 93.9144 73.0941 93.7927 73.065C93.671 73.0359 93.56 72.973 93.4726 72.8834C93.1542 72.6217 92.9257 72.2671 92.8187 71.8692C92.4582 70.2513 92.1729 68.6083 91.8627 66.9821L91.3345 64.3081C90.9153 62.1956 90.4038 60.1167 90.102 57.9708C89.9469 56.6949 89.7144 55.4296 89.4059 54.1819C89.3607 53.9189 89.341 53.6522 89.3472 53.3855H89.364Z" fill="black"/>
<path d="M54.9672 54.2909C54.9672 55.607 55.0511 56.5458 55.0511 57.4847C55.0511 58.2475 54.9169 58.4319 54.4222 58.5073C54.292 58.5338 54.1576 58.5326 54.0279 58.5038C53.8983 58.475 53.7762 58.4193 53.6695 58.3402C53.5627 58.2612 53.4738 58.1606 53.4085 58.045C53.3431 57.9294 53.3028 57.8013 53.2901 57.6691C53.1644 57.1158 53.114 56.5542 53.0302 55.9926C52.6361 53.4778 52.0408 50.963 51.806 48.4482C51.5867 47.108 51.4467 45.7561 51.3867 44.3994C51.3952 44.2459 51.3952 44.0919 51.3867 43.9384C51.3867 43.4941 51.4622 43.1001 52.0072 43.0163C52.2526 42.9587 52.5107 42.9969 52.7288 43.1231C52.947 43.2493 53.1089 43.4539 53.1812 43.6953C53.3825 44.4162 53.5417 45.1622 53.6758 45.8999C53.8938 47.1657 54.0783 48.4147 54.2711 49.6972C54.5311 51.3151 54.7743 52.9832 54.9672 54.2909Z" fill="black"/>
<path d="M88.7591 65.9762C88.6171 66.3564 88.4224 66.7148 88.1805 67.0408C88.0701 67.1295 87.9389 67.1888 87.7994 67.2132C87.6598 67.2376 87.5163 67.2263 87.3824 67.1802C87.2484 67.1342 87.1284 67.055 87.0333 66.95C86.9383 66.845 86.8713 66.7176 86.8388 66.5797C86.5034 65.3447 86.2015 64.1041 85.9332 62.8578C85.4636 60.7203 85.011 58.5743 84.6001 56.4284C84.5396 55.8712 84.5396 55.3091 84.6001 54.7519C84.5833 54.5076 84.6609 54.2662 84.8169 54.0774C84.9729 53.8887 85.1955 53.7671 85.4386 53.7376C85.5615 53.711 85.6885 53.7105 85.8116 53.7362C85.9347 53.7619 86.0511 53.8132 86.1531 53.8867C86.255 53.9602 86.3404 54.0543 86.4036 54.1629C86.4669 54.2715 86.5067 54.3922 86.5203 54.5171C86.8054 55.5734 87.0653 56.6379 87.2917 57.7109C87.6774 59.5551 88.0547 61.3993 88.3734 63.2602C88.5243 64.1488 88.5327 65.0625 88.6082 65.9678L88.7591 65.9762Z" fill="black"/>
<path d="M65.4824 44.5587L65.6501 44.3994L65.9352 44.6593C65.9352 44.6593 65.8765 44.7431 65.8597 44.7347L65.4824 44.5587Z" fill="black"/>
<path d="M35.2383 91.1161H35.1543V90.9983C35.1543 90.9983 35.2215 90.9983 35.2383 90.9983C35.2551 90.9983 35.2299 91.0908 35.2383 91.1161Z" fill="black"/>
</svg>
