<svg width="135" height="135" viewBox="0 0 135 135" fill="none" xmlns="http://www.w3.org/2000/svg">
<path fill-rule="evenodd" clip-rule="evenodd" d="M97.1178 108.874L26.1262 37.8822C11.8604 57.7596 13.6604 85.6077 31.5264 103.474C49.3923 121.34 77.2404 123.14 97.1178 108.874ZM108.874 97.1177C123.14 77.2403 121.34 49.3923 103.474 31.5264C85.6077 13.6605 57.7597 11.8604 37.8823 26.1262L108.874 97.1177ZM115.23 19.7703C141.59 46.1307 141.59 88.8693 115.23 115.23C88.8693 141.59 46.1307 141.59 19.7703 115.23C-6.5901 88.8693 -6.5901 46.1307 19.7703 19.7703C46.1307 -6.5901 88.8693 -6.5901 115.23 19.7703Z" fill="#E8E9E9"/>
<path fill-rule="evenodd" clip-rule="evenodd" d="M108.496 55.2787C108.32 55.6151 108.108 55.9296 107.863 56.2163C106.995 57.0447 106.1 57.8567 105.204 58.6702L105.204 58.6707C104.637 59.1851 104.07 59.7001 103.508 60.2203C103.287 60.4261 103.066 60.6312 102.845 60.8365L102.843 60.838C101.952 61.6647 101.06 62.492 100.201 63.36C98.684 64.9082 97.18 66.4701 95.6764 68.0315L95.6764 68.0316L95.6759 68.032C94.6426 69.1051 93.6095 70.178 92.5725 71.246C91.6799 72.1687 91.6751 72.1594 91.0712 71.0005L91.0515 70.9628L90.5563 70.0076C88.8606 66.7365 87.1643 63.4642 85.4209 60.2203C85.242 59.9439 85.1575 59.6138 85.1806 59.2821C85.2037 58.9504 85.3331 58.6362 85.5485 58.3892C87.0128 56.3676 88.4692 54.3412 89.9178 52.3099C90.5274 51.4591 91.1376 50.6086 91.7479 49.7582L91.755 49.7483L91.7555 49.7476C93.3702 47.4973 94.9851 45.2467 96.5876 42.9884C97.4183 41.9523 98.0154 40.7379 98.3354 39.4336C98.4866 38.667 98.8503 38.6279 99.3274 39.1943C99.3469 39.2174 99.3631 39.2438 99.379 39.2697L99.379 39.2697C99.39 39.2877 99.4008 39.3053 99.4124 39.3213L101.264 42.1241C100.998 42.4806 100.734 42.8372 100.471 43.1934L100.471 43.1935C100.106 43.6861 99.7419 44.1779 99.3746 44.6681C98.8707 45.3278 98.3644 45.9859 97.858 46.644C97.1538 47.5592 96.4495 48.4745 95.7515 49.3948C95.5509 49.6217 95.4166 49.9028 95.3642 50.2054C95.3642 50.3519 95.8366 50.6937 95.8744 50.6595C96.2862 50.3845 96.6624 50.0563 96.9939 49.6829C97.9802 48.4975 98.9486 47.3016 99.916 46.1067L99.9165 46.1062L99.9215 46.1C100.263 45.6777 100.605 45.2556 100.948 44.8341C101.059 44.6985 101.173 44.5674 101.287 44.4365C101.44 44.2611 101.593 44.0861 101.736 43.9015C102.105 43.4132 102.36 43.545 102.634 44.0089C103.742 45.9035 104.865 47.7932 106.002 49.678C106.285 50.1663 106.106 50.4397 105.77 50.7327C105.153 51.2706 104.534 51.8061 103.914 52.3416C102.392 53.6581 100.869 54.9748 99.3746 56.3286C98.2476 57.3505 97.1735 58.441 96.0997 59.531L96.0996 59.5312C95.8908 59.7432 95.682 59.9551 95.4729 60.1666C95.4429 60.1964 95.4103 60.2272 95.3767 60.2589C95.1185 60.5026 94.8013 60.8018 95.1942 61.1432C95.3217 61.2603 95.846 61.0699 96.0775 60.8746C96.5435 60.4779 96.9925 60.0594 97.4417 59.6407L97.4417 59.6406C97.8439 59.2657 98.2463 58.8906 98.6613 58.5308C101.066 56.4409 103.475 54.3559 105.907 52.305C106.852 51.5091 107.046 51.5775 107.532 52.7103C107.772 53.2679 107.979 53.8448 108.203 54.4686L108.203 54.4688L108.203 54.4691C108.296 54.7301 108.393 54.9993 108.496 55.2787ZM76.5375 71.9067C76.6663 72.0749 76.7853 72.2497 76.894 72.4304L77.5195 73.6267C78.4558 75.4172 79.3924 77.2082 80.3158 79.0024C80.4834 79.3362 80.6386 79.6776 80.794 80.0194C81.0975 80.6873 81.4018 81.3568 81.8014 81.9746C82.4055 82.9088 82.2174 83.6731 81.5786 84.5412C79.4757 87.3971 77.4157 90.2797 75.3986 93.189C74.6461 94.2123 73.9962 95.3006 73.4574 96.4397C72.675 98.2136 71.2885 99.4827 69.8921 100.757C69.1543 101.426 68.9908 101.431 68.461 100.61C67.3467 98.8941 66.2608 97.1697 65.1714 95.4397L65.1714 95.4397L65.1706 95.4385C64.6191 94.5626 64.0666 93.6853 63.5091 92.8069C63.2268 92.3728 63.4002 92.0898 63.6329 91.7312C65.1284 89.4478 66.6139 87.1565 68.0896 84.8573C69.6455 82.4202 71.1878 79.9775 72.7299 77.5351L72.7307 77.5337C73.6423 76.09 74.5537 74.6464 75.4679 73.2041C75.6858 72.8597 75.9185 72.5295 76.1612 72.2039C76.2737 72.0909 76.4 71.9911 76.5375 71.9067ZM63.7756 102.46C64.3814 102.554 64.9955 102.649 65.6227 102.748C65.7721 102.722 65.9313 102.697 66.0954 102.671C66.4892 102.609 66.9113 102.543 67.2932 102.45C67.8342 102.318 68.062 102.024 67.7014 101.442C66.0925 98.823 64.4885 96.1997 62.9129 93.5617C62.818 93.3576 62.6548 93.1957 62.4534 93.1058C62.252 93.0159 62.0259 93.004 61.8166 93.0722C60.8389 93.2904 59.8414 93.4003 58.841 93.4001C58.3687 93.375 57.8958 93.3517 57.4226 93.3283C54.9433 93.206 52.4569 93.0833 50.0139 92.7052C44.5705 91.8389 39.1177 90.9628 33.8309 89.2791C33.3563 89.1274 33.1428 89.191 33.3563 89.7441C33.7078 90.7667 34.1248 91.764 34.6045 92.7296C34.9047 93.1814 35.3502 93.5091 35.8621 93.6547C37.1119 94.0241 38.3791 94.3279 39.6587 94.565C40.3623 94.7056 41.0721 94.8179 41.7824 94.9302C42.4567 95.0369 43.1315 95.1436 43.8017 95.2747C43.9476 95.3047 44.0691 95.4718 44.1904 95.6386C44.2467 95.716 44.303 95.7935 44.3617 95.8571C44.1873 96.0094 43.9902 96.1317 43.778 96.2193C43.4824 96.2789 43.1793 96.2871 42.881 96.2437C41.8235 96.1071 40.7659 95.9631 39.7076 95.819C38.833 95.6999 37.9578 95.5807 37.0817 95.4655C36.7496 95.4264 36.408 95.4264 36.0711 95.4264H36.0709C36.1333 95.7612 36.2271 96.0891 36.3509 96.4053C36.591 96.8592 36.8656 97.2929 37.1719 97.7022C37.3349 97.9616 37.552 98.1801 37.8073 98.3418C38.0627 98.5035 38.3499 98.6044 38.6479 98.6371C41.1346 98.9111 43.6214 99.195 46.0892 99.5817C49.3256 100.087 52.5536 100.624 55.7816 101.16C57.3959 101.428 59.0101 101.696 60.6254 101.96C61.6669 102.132 62.7083 102.294 63.7756 102.46Z" fill="#E8E9E9"/>
<path d="M107.863 56.2163L108.553 56.9397L108.59 56.9044L108.624 56.8656L107.863 56.2163ZM108.496 55.2787L109.382 55.7421L109.588 55.3489L109.434 54.9326L108.496 55.2787ZM105.204 58.6702L104.532 57.9297L104.527 57.9344L105.204 58.6702ZM105.204 58.6707L105.876 59.4111L105.881 59.4064L105.204 58.6707ZM103.508 60.2203L102.828 59.4865L102.826 59.4889L103.508 60.2203ZM102.845 60.8365L102.165 60.1033L102.162 60.1057L102.845 60.8365ZM102.843 60.838L103.523 61.5712L103.526 61.5688L102.843 60.838ZM100.201 63.36L99.4903 62.6568L99.487 62.6601L100.201 63.36ZM95.6764 68.0315L96.3835 68.7386L96.3902 68.7319L96.3968 68.7251L95.6764 68.0315ZM95.6764 68.0316L94.9693 67.3244L94.9607 67.3331L94.9523 67.3419L95.6764 68.0316ZM95.6759 68.032L96.3963 68.7257L96.4001 68.7217L95.6759 68.032ZM92.5725 71.246L91.8551 70.5494L91.8538 70.5507L92.5725 71.246ZM91.0712 71.0005L90.1844 71.4626V71.4626L91.0712 71.0005ZM91.0515 70.9628L90.1637 71.423L90.1647 71.4249L91.0515 70.9628ZM90.5563 70.0076L89.6685 70.4679L89.6686 70.4679L90.5563 70.0076ZM85.4209 60.2203L86.3018 59.7469L86.2825 59.7111L86.2604 59.6769L85.4209 60.2203ZM85.5485 58.3892L86.3023 59.0463L86.3319 59.0123L86.3583 58.9758L85.5485 58.3892ZM89.9178 52.3099L89.1049 51.7275L89.1037 51.7293L89.9178 52.3099ZM91.7479 49.7582L92.5604 50.3412L92.5604 50.3411L91.7479 49.7582ZM91.755 49.7483L90.9445 49.1625L90.9425 49.1653L91.755 49.7483ZM91.7555 49.7476L92.566 50.3333L92.5679 50.3306L91.7555 49.7476ZM96.5876 42.9884L95.8074 42.3629L95.7891 42.3857L95.7721 42.4097L96.5876 42.9884ZM98.3354 39.4336L99.3066 39.6719L99.3121 39.6496L99.3165 39.627L98.3354 39.4336ZM99.3274 39.1943L98.5625 39.8385L98.5641 39.8403L99.3274 39.1943ZM99.379 39.2697L100.29 38.8576L100.264 38.8006L100.232 38.7472L99.379 39.2697ZM99.379 39.2697L98.4678 39.6818L98.4937 39.739L98.5264 39.7924L99.379 39.2697ZM99.4124 39.3213L100.247 38.7701L100.235 38.7517L100.222 38.7339L99.4124 39.3213ZM101.264 42.1241L102.066 42.7215L102.485 42.1586L102.098 41.5729L101.264 42.1241ZM100.471 43.1934L99.667 42.5984L99.6598 42.6082L99.6528 42.6181L100.471 43.1934ZM100.471 43.1935L101.274 43.7885L101.282 43.7788L101.289 43.7688L100.471 43.1935ZM99.3746 44.6681L100.169 45.2751L100.175 45.2677L99.3746 44.6681ZM97.858 46.644L97.0655 46.0342V46.0342L97.858 46.644ZM95.7515 49.3948L96.5007 50.0572L96.5256 50.029L96.5483 49.9991L95.7515 49.3948ZM95.3642 50.2054L94.3789 50.0348L94.3642 50.1194V50.2054H95.3642ZM95.8744 50.6595L95.319 49.8279L95.258 49.8686L95.2035 49.9179L95.8744 50.6595ZM96.9939 49.6829L97.7417 50.3468L97.7523 50.3348L97.7625 50.3225L96.9939 49.6829ZM99.916 46.1067L99.1445 45.4704L99.1388 45.4774L99.916 46.1067ZM99.9165 46.1062L100.688 46.7424L100.694 46.7353L99.9165 46.1062ZM99.9215 46.1L99.1443 45.4707L99.1442 45.4708L99.9215 46.1ZM100.948 44.8341L100.174 44.2007L100.171 44.2035L100.948 44.8341ZM101.287 44.4365L102.041 45.094L102.041 45.094L101.287 44.4365ZM101.736 43.9015L102.526 44.515L102.535 44.5038L101.736 43.9015ZM102.634 44.0089L103.497 43.5039L103.495 43.5004L102.634 44.0089ZM106.002 49.678L106.867 49.176L106.863 49.1687L106.858 49.1615L106.002 49.678ZM105.77 50.7327L106.427 51.4867L106.428 51.4858L105.77 50.7327ZM103.914 52.3416L103.26 51.5851L103.914 52.3416ZM99.3746 56.3286L98.7032 55.5875L98.7029 55.5878L99.3746 56.3286ZM96.0997 59.531L96.8069 60.2382L96.8122 60.2328L96.0997 59.531ZM96.0996 59.5312L95.3925 58.824L95.3872 58.8294L96.0996 59.5312ZM95.4729 60.1666L96.1786 60.8751L96.1838 60.8698L95.4729 60.1666ZM95.3767 60.2589L96.063 60.9862L96.063 60.9862L95.3767 60.2589ZM95.1942 61.1432L95.8708 60.4068L95.8605 60.3974L95.85 60.3883L95.1942 61.1432ZM96.0775 60.8746L96.7224 61.6389L96.7257 61.636L96.0775 60.8746ZM97.4417 59.6407L98.1235 60.3721L98.1364 60.3602L98.1488 60.3478L97.4417 59.6407ZM97.4417 59.6406L96.7599 58.9091L96.747 58.9211L96.7346 58.9335L97.4417 59.6406ZM98.6613 58.5308L99.3164 59.2863L99.3174 59.2855L98.6613 58.5308ZM105.907 52.305L105.263 51.5403L105.263 51.5405L105.907 52.305ZM107.532 52.7103L106.614 53.1049L106.614 53.1053L107.532 52.7103ZM108.203 54.4686L109.155 54.1638L109.15 54.1473L109.144 54.131L108.203 54.4686ZM108.203 54.4688L107.25 54.7735L107.258 54.7982L107.267 54.8223L108.203 54.4688ZM108.203 54.4691L109.144 54.1316L109.141 54.1236L109.138 54.1156L108.203 54.4691ZM76.894 72.4304L77.7802 71.9671L77.7663 71.9405L77.7509 71.9148L76.894 72.4304ZM76.5375 71.9067L77.3314 71.2987L76.7831 70.5826L76.0144 71.0545L76.5375 71.9067ZM77.5195 73.6267L76.6333 74.09L76.6333 74.0901L77.5195 73.6267ZM80.3158 79.0024L81.2095 78.5536L81.205 78.5448L80.3158 79.0024ZM80.794 80.0194L79.8836 80.4332V80.4332L80.794 80.0194ZM81.8014 81.9746L80.9617 82.5177L81.8014 81.9746ZM81.5786 84.5412L82.3838 85.1341L82.384 85.1339L81.5786 84.5412ZM75.3986 93.189L76.2042 93.7815L76.2125 93.7702L76.2204 93.7588L75.3986 93.189ZM73.4574 96.4397L72.5535 96.0121L72.5478 96.024L72.5425 96.0361L73.4574 96.4397ZM69.8921 100.757L70.5643 101.497L70.566 101.495L69.8921 100.757ZM68.461 100.61L69.3012 100.068L69.2997 100.066L68.461 100.61ZM65.1714 95.4397L64.3032 95.9359L64.3138 95.9545L64.3252 95.9726L65.1714 95.4397ZM65.1714 95.4397L66.0396 94.9435L66.0287 94.9245L66.017 94.906L65.1714 95.4397ZM65.1706 95.4385L64.3244 95.9713L64.3249 95.9722L65.1706 95.4385ZM63.5091 92.8069L64.3535 92.271L64.3474 92.2617L63.5091 92.8069ZM63.6329 91.7312L62.7963 91.1833L62.7941 91.1868L63.6329 91.7312ZM68.0896 84.8573L68.9312 85.3974L68.9325 85.3954L68.0896 84.8573ZM72.7299 77.5351L71.8848 77.0005L71.8843 77.0012L72.7299 77.5351ZM72.7307 77.5337L73.5759 78.0683L73.5763 78.0676L72.7307 77.5337ZM75.4679 73.2041L76.3126 73.7395L76.313 73.7387L75.4679 73.2041ZM76.1612 72.2039L75.4524 71.4985L75.402 71.5491L75.3594 71.6063L76.1612 72.2039ZM65.6227 102.748L65.4664 103.736L65.6302 103.762L65.7937 103.734L65.6227 102.748ZM63.7756 102.46L63.6221 103.448H63.6221L63.7756 102.46ZM66.0954 102.671L66.2509 103.659H66.2509L66.0954 102.671ZM67.2932 102.45L67.5305 103.421H67.5305L67.2932 102.45ZM67.7014 101.442L66.8493 101.965L66.8512 101.968L67.7014 101.442ZM62.9129 93.5617L62.0062 93.9835L62.028 94.0302L62.0544 94.0744L62.9129 93.5617ZM61.8166 93.0722L62.0344 94.0482L62.0811 94.0378L62.1267 94.0229L61.8166 93.0722ZM58.841 93.4001L58.7879 94.3987L58.8144 94.4001L58.8409 94.4001L58.841 93.4001ZM57.4226 93.3283L57.4719 92.3296H57.4719L57.4226 93.3283ZM50.0139 92.7052L49.8568 93.6927L49.861 93.6934L50.0139 92.7052ZM33.8309 89.2791L33.5264 90.2316L33.5275 90.232L33.8309 89.2791ZM33.3563 89.7441L34.302 89.419L34.2959 89.4013L34.2892 89.3839L33.3563 89.7441ZM34.6045 92.7296L33.7089 93.1745L33.7368 93.2308L33.7716 93.2831L34.6045 92.7296ZM35.8621 93.6547L36.1456 92.6956L36.1356 92.6928L35.8621 93.6547ZM39.6587 94.565L39.8547 93.5843L39.8409 93.5817L39.6587 94.565ZM41.7824 94.9302L41.9386 93.9425L41.7824 94.9302ZM43.8017 95.2747L44.0037 94.2952L43.9937 94.2933L43.8017 95.2747ZM44.1904 95.6386L44.9991 95.0504L44.9991 95.0504L44.1904 95.6386ZM44.3617 95.8571L45.0194 96.6104L45.7935 95.9345L45.0968 95.1791L44.3617 95.8571ZM43.778 96.2193L43.9756 97.1995L44.0703 97.1805L44.1595 97.1436L43.778 96.2193ZM42.881 96.2437L43.025 95.2542L43.0171 95.253L43.0092 95.252L42.881 96.2437ZM39.7076 95.819L39.5727 96.8098H39.5727L39.7076 95.819ZM37.0817 95.4655L37.2121 94.474L37.1988 94.4724L37.0817 95.4655ZM36.0709 95.4264V94.4264H34.8673L35.0878 95.6096L36.0709 95.4264ZM36.3509 96.4053L35.4197 96.7699L35.4404 96.8228L35.467 96.8729L36.3509 96.4053ZM37.1719 97.7022L38.0186 97.1701L37.997 97.1357L37.9726 97.1032L37.1719 97.7022ZM37.8073 98.3418L37.2723 99.1866L37.2723 99.1866L37.8073 98.3418ZM38.6479 98.6371L38.7574 97.6431L38.7568 97.643L38.6479 98.6371ZM46.0892 99.5817L45.9344 100.57L45.9348 100.57L46.0892 99.5817ZM55.7816 101.16L55.6178 102.146H55.6178L55.7816 101.16ZM60.6254 101.96L60.7881 100.974L60.7869 100.973L60.6254 101.96ZM108.624 56.8656C108.917 56.5215 109.172 56.1445 109.382 55.7421L107.61 54.8154C107.469 55.0856 107.298 55.3377 107.102 55.5669L108.624 56.8656ZM105.876 59.4107C106.771 58.5986 107.675 57.7782 108.553 56.9397L107.173 55.4929C106.315 56.3113 105.43 57.1148 104.532 57.9297L105.876 59.4107ZM105.881 59.4064L105.881 59.406L104.527 57.9344L104.526 57.9349L105.881 59.4064ZM104.187 60.954C104.745 60.4378 105.308 59.9261 105.876 59.4111L104.532 57.9302C103.965 58.4441 103.394 58.9624 102.828 59.4865L104.187 60.954ZM103.525 61.5696C103.746 61.3646 103.968 61.1585 104.19 60.9516L102.826 59.4889C102.606 59.6936 102.386 59.8979 102.165 60.1033L103.525 61.5696ZM103.526 61.5688L103.527 61.5673L102.162 60.1057L102.16 60.1072L103.526 61.5688ZM100.912 64.0633C101.753 63.2131 102.629 62.4003 103.523 61.5712L102.163 60.1049C101.274 60.9292 100.367 61.7709 99.4903 62.6568L100.912 64.0633ZM96.3968 68.7251C97.9008 67.1632 99.4018 65.6045 100.915 64.06L99.487 62.6601C97.9662 64.2119 96.4591 65.777 94.9561 67.3379L96.3968 68.7251ZM96.3835 68.7387L96.3835 68.7386L94.9693 67.3244L94.9693 67.3244L96.3835 68.7387ZM96.4001 68.7217L96.4005 68.7212L94.9523 67.3419L94.9518 67.3424L96.4001 68.7217ZM93.29 71.9426C94.3287 70.8729 95.3632 69.7985 96.3963 68.7257L94.9556 67.3384C93.922 68.4117 92.8904 69.4831 91.8551 70.5494L93.29 71.9426ZM90.1844 71.4626C90.324 71.7306 90.4662 72.0064 90.6022 72.2111C90.7058 72.367 90.9973 72.7969 91.5468 72.8898C92.1133 72.9857 92.53 72.6562 92.6795 72.5339C92.8706 72.3775 93.085 72.1545 93.2913 71.9413L91.8538 70.5507C91.7407 70.6676 91.6508 70.7603 91.5733 70.8369C91.5353 70.8745 91.5031 70.9054 91.4756 70.9309C91.4478 70.9565 91.4275 70.9741 91.4131 70.9859C91.3985 70.9978 91.3944 71.0001 91.3993 70.9969C91.404 70.9938 91.4246 70.9805 91.4594 70.9651C91.4948 70.9494 91.5509 70.9289 91.6247 70.9168C91.7008 70.9043 91.7879 70.9022 91.8804 70.9179C91.9725 70.9334 92.0517 70.9636 92.1155 70.9977C92.1773 71.0307 92.2202 71.0649 92.2452 71.0874C92.2699 71.1097 92.2825 71.1253 92.2836 71.1266C92.285 71.1283 92.2799 71.1221 92.2678 71.104C92.256 71.0861 92.2403 71.0611 92.22 71.0265C92.1998 70.9921 92.1769 70.9514 92.1503 70.9027C92.0962 70.8034 92.0348 70.6858 91.958 70.5384L90.1844 71.4626ZM90.1647 71.4249L90.1844 71.4626L91.958 70.5384L91.9384 70.5007L90.1647 71.4249ZM89.6686 70.4679L90.1637 71.423L91.9393 70.5025L91.4441 69.5474L89.6686 70.4679ZM84.5401 60.6937C86.2793 63.9299 87.9723 67.1956 89.6685 70.4679L91.4441 69.5474C89.749 66.2774 88.0493 62.9985 86.3018 59.7469L84.5401 60.6937ZM84.183 59.2126C84.145 59.7579 84.2836 60.3035 84.5814 60.7636L86.2604 59.6769C86.2005 59.5843 86.1699 59.4696 86.1782 59.3516L84.183 59.2126ZM84.7946 57.7321C84.434 58.1458 84.221 58.6672 84.183 59.2126L86.1782 59.3516C86.1864 59.2337 86.2322 59.1266 86.3023 59.0463L84.7946 57.7321ZM89.1037 51.7293C87.6565 53.7586 86.2015 55.783 84.7386 57.8025L86.3583 58.9758C87.8241 56.9523 89.282 54.9238 90.732 52.8905L89.1037 51.7293ZM90.9354 49.1752C90.3252 50.0256 89.7147 50.8764 89.1049 51.7275L90.7308 52.8923C91.34 52.0418 91.95 51.1917 92.5604 50.3412L90.9354 49.1752ZM90.9425 49.1653L90.9354 49.1752L92.5604 50.3411L92.5675 50.3312L90.9425 49.1653ZM90.945 49.1619L90.9445 49.1625L92.5655 50.334L92.566 50.3333L90.945 49.1619ZM95.7721 42.4097C94.1714 44.6654 92.558 46.9139 90.943 49.1646L92.5679 50.3306C94.1824 48.0806 95.7989 45.8279 97.4032 43.5671L95.7721 42.4097ZM97.3642 39.1953C97.0785 40.3598 96.5459 41.4417 95.8074 42.3629L97.3679 43.6139C98.2907 42.4628 98.9523 41.116 99.3066 39.6719L97.3642 39.1953ZM100.092 38.5501C99.937 38.3658 99.7464 38.1754 99.5182 38.0343C99.2918 37.8944 98.9334 37.7472 98.5081 37.8345C98.0673 37.925 97.7891 38.218 97.6342 38.4711C97.4848 38.7151 97.4036 38.99 97.3543 39.2401L99.3165 39.627C99.3428 39.4938 99.3638 39.4764 99.34 39.5152C99.3107 39.563 99.1816 39.7379 98.9103 39.7936C98.6544 39.8462 98.4858 39.7474 98.4665 39.7355C98.4455 39.7225 98.4792 39.7396 98.5625 39.8385L100.092 38.5501ZM100.232 38.7472C100.223 38.7332 100.168 38.6397 100.091 38.5483L98.5641 39.8403C98.5411 39.8132 98.5268 39.7921 98.5221 39.7851C98.5196 39.7813 98.5184 39.7794 98.5193 39.7808C98.5204 39.7826 98.522 39.7851 98.5263 39.7922L100.232 38.7472ZM100.29 38.8576L100.29 38.8576L98.4678 39.6818L98.4678 39.6818L100.29 38.8576ZM100.222 38.7339C100.227 38.7408 100.231 38.7464 100.233 38.7503C100.236 38.7542 100.237 38.7568 100.238 38.7577C100.239 38.7586 100.239 38.7585 100.237 38.7565C100.236 38.7544 100.234 38.7519 100.232 38.7471L98.5264 39.7924C98.5332 39.8034 98.5645 39.8555 98.6031 39.9087L100.222 38.7339ZM102.098 41.5729L100.247 38.7701L98.578 39.8725L100.43 42.6753L102.098 41.5729ZM101.274 43.7884C101.538 43.432 101.801 43.0767 102.066 42.7215L100.462 41.5267C100.195 41.8846 99.9306 42.2424 99.667 42.5984L101.274 43.7884ZM101.289 43.7688L101.289 43.7687L99.6528 42.6181L99.6527 42.6183L101.289 43.7688ZM100.175 45.2677C100.544 44.7748 100.91 44.2807 101.274 43.7885L99.6669 42.5985C99.302 43.0914 98.9396 43.581 98.5743 44.0685L100.175 45.2677ZM98.6505 47.2538C99.1567 46.596 99.6642 45.9365 100.169 45.2751L98.5799 44.0611C98.0773 44.7192 97.5721 45.3758 97.0655 46.0342L98.6505 47.2538ZM96.5483 49.9991C97.2438 49.082 97.946 48.1695 98.6505 47.2538L97.0655 46.0342C96.3616 46.9489 95.6551 47.867 94.9548 48.7905L96.5483 49.9991ZM96.3496 50.376C96.3708 50.2533 96.4247 50.1432 96.5007 50.0572L95.0024 48.7324C94.6771 49.1002 94.4624 49.5522 94.3789 50.0348L96.3496 50.376ZM95.2035 49.9179C95.3795 49.7587 95.5699 49.6989 95.6968 49.6766C95.8213 49.6548 95.923 49.6617 95.9811 49.6687C96.094 49.6822 96.1753 49.7127 96.2007 49.7225C96.2357 49.7359 96.2599 49.7481 96.2701 49.7533C96.2818 49.7593 96.2887 49.7634 96.2902 49.7643C96.2904 49.7644 96.2673 49.7497 96.2346 49.7231C96.2002 49.6953 96.1888 49.6816 96.1964 49.6904C96.1996 49.6941 96.2268 49.7254 96.258 49.7814C96.2802 49.8211 96.3642 49.9764 96.3642 50.2054H94.3642C94.3642 50.471 94.463 50.6689 94.5112 50.7553C94.5684 50.8579 94.6328 50.9396 94.6809 50.9955C94.7782 51.1085 94.8873 51.2056 94.9757 51.2772C95.0657 51.3502 95.1678 51.4236 95.2672 51.4828C95.3116 51.5092 95.3889 51.5531 95.4825 51.5891C95.5245 51.6052 95.6197 51.6397 95.7437 51.6545C95.8125 51.6628 96.2042 51.7095 96.5452 51.4011L95.2035 49.9179ZM96.246 49.019C95.9708 49.329 95.6591 49.6007 95.319 49.8279L96.4297 51.4911C96.9132 51.1682 97.3539 50.7835 97.7417 50.3468L96.246 49.019ZM99.1388 45.4774C98.1707 46.6731 97.2065 47.8639 96.2252 49.0433L97.7625 50.3225C98.7539 49.1312 99.7264 47.93 100.693 46.736L99.1388 45.4774ZM99.145 45.4699L99.1445 45.4704L100.687 46.743L100.688 46.7424L99.145 45.4699ZM99.1442 45.4708L99.1392 45.477L100.694 46.7353L100.699 46.7291L99.1442 45.4708ZM100.171 44.2035C99.8284 44.6258 99.4861 45.0485 99.1443 45.4707L100.699 46.7292C101.041 46.3068 101.382 45.8854 101.724 45.4647L100.171 44.2035ZM100.534 43.779C100.421 43.908 100.296 44.0509 100.174 44.2007L101.721 45.4675C101.821 45.3462 101.925 45.2268 102.041 45.094L100.534 43.779ZM100.947 43.288C100.824 43.4463 100.69 43.6 100.534 43.779L102.041 45.094C102.191 44.9221 102.362 44.7258 102.526 44.5149L100.947 43.288ZM103.495 43.5004C103.408 43.3525 103.293 43.181 103.146 43.0297C103.001 42.8805 102.763 42.6893 102.424 42.619C101.653 42.459 101.149 43.0204 100.938 43.2992L102.535 44.5038C102.589 44.4315 102.586 44.4569 102.516 44.4995C102.424 44.556 102.242 44.6239 102.017 44.5773C101.823 44.5368 101.723 44.4351 101.714 44.4258C101.703 44.4145 101.723 44.4334 101.773 44.5174L103.495 43.5004ZM106.858 49.1615C105.724 47.2805 104.603 45.3946 103.497 43.5039L101.771 44.5139C102.882 46.4123 104.006 48.3059 105.146 50.1945L106.858 49.1615ZM106.428 51.4858C106.616 51.3223 106.934 51.0247 107.074 50.5742C107.233 50.0576 107.098 49.5738 106.867 49.176L105.137 50.18C105.166 50.2302 105.156 50.2289 105.148 50.1847C105.144 50.1614 105.141 50.1297 105.143 50.092C105.145 50.054 105.152 50.017 105.163 49.983C105.184 49.9156 105.211 49.8829 105.207 49.8884C105.2 49.8967 105.176 49.9243 105.113 49.9796L106.428 51.4858ZM104.569 53.098C105.188 52.5627 105.808 52.026 106.427 51.4867L105.114 49.9788C104.498 50.5152 103.88 51.0494 103.26 51.5851L104.569 53.098ZM100.046 57.0697C101.53 55.725 103.044 54.4158 104.569 53.098L103.26 51.5851C101.739 52.9004 100.207 54.2247 98.7032 55.5875L100.046 57.0697ZM96.8122 60.2328C97.8893 59.1393 98.9437 58.0692 100.046 57.0694L98.7029 55.5878C97.5514 56.6319 96.4577 57.7426 95.3873 58.8293L96.8122 60.2328ZM96.8067 60.2383L96.8068 60.2382L95.3926 58.8239L95.3925 58.8241L96.8067 60.2383ZM96.1838 60.8698C96.3938 60.6575 96.6034 60.4448 96.812 60.2329L95.3872 58.8294C95.1783 59.0415 94.9702 59.2527 94.7619 59.4633L96.1838 60.8698ZM96.063 60.9862C96.0944 60.9565 96.1373 60.9162 96.1786 60.8751L94.7671 59.4581C94.7485 59.4766 94.7262 59.4978 94.6904 59.5316L96.063 60.9862ZM95.85 60.3883C95.8532 60.391 95.9415 60.469 95.9863 60.6355C96.0344 60.8143 95.9986 60.9679 95.9625 61.0533C95.9335 61.122 95.906 61.1449 95.9327 61.1148C95.9577 61.0865 95.9925 61.0527 96.063 60.9862L94.6904 59.5316C94.6094 59.608 94.2813 59.8935 94.12 60.2755C94.0215 60.5089 93.9639 60.8165 94.055 61.155C94.1427 61.4813 94.3387 61.7246 94.5383 61.8981L95.85 60.3883ZM95.4326 60.1103C95.448 60.0974 95.4395 60.1069 95.3987 60.1281C95.362 60.1471 95.3212 60.1641 95.2869 60.1753C95.2454 60.1889 95.2483 60.1827 95.291 60.1801C95.3129 60.1787 95.3761 60.1761 95.4633 60.1943C95.5474 60.2118 95.7121 60.261 95.8708 60.4068L94.5176 61.8795C94.8707 62.2039 95.2987 62.1835 95.4159 62.1761C95.6001 62.1646 95.7724 62.1206 95.9069 62.0768C96.1654 61.9925 96.4804 61.8431 96.7224 61.6388L95.4326 60.1103ZM96.7598 58.9092C96.3078 59.3305 95.8753 59.7335 95.4293 60.1131L96.7257 61.636C97.2118 61.2223 97.6771 60.7883 98.1235 60.3721L96.7598 58.9092ZM96.7346 58.9335L96.7346 58.9336L98.1488 60.3478L98.1488 60.3477L96.7346 58.9335ZM98.0063 57.7752C97.5753 58.1488 97.1598 58.5363 96.7599 58.9091L98.1236 60.3721C98.528 59.9951 98.9173 59.6324 99.3164 59.2863L98.0063 57.7752ZM105.263 51.5405C102.824 53.5965 100.41 55.6856 98.0053 57.776L99.3174 59.2855C101.721 57.1961 104.125 55.1153 106.552 53.0696L105.263 51.5405ZM108.451 52.3157C108.329 52.0312 108.196 51.7408 108.04 51.5056C107.891 51.2795 107.615 50.9394 107.144 50.8167C106.663 50.6916 106.253 50.862 106.007 50.9984C105.756 51.1375 105.502 51.3386 105.263 51.5403L106.552 53.0698C106.662 52.9768 106.752 52.9047 106.826 52.8491C106.863 52.8216 106.894 52.7999 106.92 52.7828C106.946 52.7656 106.964 52.7547 106.976 52.7481C106.988 52.7415 106.99 52.7411 106.984 52.7437C106.977 52.7463 106.958 52.7535 106.929 52.7601C106.899 52.7669 106.858 52.7733 106.806 52.7734C106.754 52.7736 106.698 52.7672 106.64 52.7521C106.582 52.737 106.531 52.7154 106.488 52.6914C106.445 52.6678 106.414 52.644 106.394 52.6264C106.375 52.609 106.364 52.5965 106.362 52.5938C106.359 52.591 106.363 52.595 106.372 52.6086C106.381 52.6222 106.393 52.6425 106.41 52.6714C106.426 52.7002 106.444 52.7353 106.465 52.7778C106.508 52.8641 106.556 52.971 106.614 53.1049L108.451 52.3157ZM109.144 54.131C108.922 53.513 108.705 52.9062 108.451 52.3153L106.614 53.1053C106.839 53.6295 107.036 54.1767 107.261 54.8061L109.144 54.131ZM109.155 54.164L109.155 54.1638L107.25 54.7733L107.25 54.7735L109.155 54.164ZM109.138 54.1156L109.138 54.1152L107.267 54.8223L107.267 54.8227L109.138 54.1156ZM109.434 54.9326C109.333 54.6582 109.238 54.3932 109.144 54.1316L107.261 54.8066C107.355 55.0671 107.453 55.3405 107.558 55.6249L109.434 54.9326ZM77.7509 71.9148C77.6229 71.7021 77.4828 71.4964 77.3314 71.2987L75.7436 72.5147C75.8498 72.6534 75.9478 72.7974 76.0372 72.946L77.7509 71.9148ZM78.4057 73.1634L77.7802 71.9671L76.0078 72.8937L76.6333 74.09L78.4057 73.1634ZM81.205 78.5448C80.2798 76.7472 79.3417 74.9533 78.4056 73.1633L76.6333 74.0901C77.5699 75.8811 78.505 77.6692 79.4266 79.46L81.205 78.5448ZM81.7044 79.6057C81.5504 79.2669 81.3873 78.9077 81.2094 78.5536L79.4222 79.4512C79.5796 79.7647 79.7269 80.0884 79.8836 80.4332L81.7044 79.6057ZM82.6411 81.4316C82.2883 80.8861 82.013 80.2848 81.7044 79.6057L79.8836 80.4332C80.182 81.0897 80.5153 81.8275 80.9617 82.5177L82.6411 81.4316ZM82.384 85.1339C82.7492 84.6376 83.0671 84.0656 83.1485 83.4051C83.2341 82.7114 83.0439 82.0544 82.6411 81.4316L80.9617 82.5177C81.163 82.829 81.1807 83.0213 81.1636 83.1602C81.1423 83.3325 81.0467 83.5767 80.7731 83.9485L82.384 85.1339ZM76.2204 93.7588C78.2321 90.8573 80.2865 87.9824 82.3838 85.1341L80.7733 83.9482C78.6648 86.8118 76.5993 89.7021 74.5768 92.6193L76.2204 93.7588ZM74.3614 96.8672C74.8725 95.7866 75.4894 94.7535 76.2042 93.7815L74.593 92.5966C73.8028 93.6711 73.1199 94.8146 72.5535 96.0121L74.3614 96.8672ZM70.566 101.495C71.938 100.244 73.4914 98.8406 74.3724 96.8432L72.5425 96.0361C71.8587 97.5865 70.6391 98.7216 69.2182 100.018L70.566 101.495ZM67.6208 101.153C67.7556 101.361 67.9106 101.588 68.0865 101.77C68.2671 101.956 68.5703 102.199 69.0101 102.239C69.4348 102.276 69.7708 102.102 69.9723 101.973C70.177 101.842 70.38 101.664 70.5643 101.497L69.2199 100.016C69.1329 100.095 69.0632 100.156 69.0051 100.204C68.946 100.253 68.9101 100.278 68.8912 100.29C68.8826 100.296 68.8818 100.296 68.888 100.293C68.8941 100.29 68.91 100.282 68.9346 100.274C68.9596 100.265 68.9946 100.256 69.0384 100.25C69.0828 100.244 69.1329 100.242 69.187 100.246C69.2411 100.251 69.2926 100.262 69.3398 100.278C69.3864 100.293 69.4243 100.312 69.4531 100.329C69.5079 100.36 69.5308 100.386 69.5223 100.378C69.5142 100.369 69.4913 100.344 69.4505 100.288C69.4104 100.233 69.362 100.162 69.3012 100.068L67.6208 101.153ZM64.3252 95.9726C65.414 97.7016 66.5036 99.4319 67.6223 101.155L69.2997 100.066C68.1898 98.3564 67.1076 96.6378 66.0176 94.9069L64.3252 95.9726ZM64.3031 95.9358L64.3032 95.9359L66.0397 94.9436L66.0396 94.9435L64.3031 95.9358ZM64.3249 95.9722L64.3257 95.9733L66.017 94.906L66.0163 94.9048L64.3249 95.9722ZM62.6648 93.3428C63.2212 94.2194 63.7727 95.0952 64.3244 95.9713L66.0168 94.9056C65.4654 94.03 64.912 93.1511 64.3534 92.271L62.6648 93.3428ZM62.7941 91.1868C62.6988 91.3336 62.4839 91.6477 62.401 92.0271C62.2981 92.4975 62.4073 92.9469 62.6708 93.3521L64.3474 92.2617C64.3293 92.2339 64.3441 92.2479 64.3548 92.2982C64.3601 92.323 64.3631 92.3512 64.3628 92.3809C64.3625 92.4103 64.3589 92.4354 64.3548 92.4544C64.3472 92.4893 64.3391 92.4956 64.3584 92.4593C64.3676 92.4421 64.3808 92.4192 64.4003 92.3875C64.4201 92.3554 64.4428 92.3202 64.4717 92.2757L62.7941 91.1868ZM67.248 84.3171C65.774 86.6137 64.2901 88.9025 62.7963 91.1833L64.4695 92.2791C65.9666 89.9931 67.4539 87.6992 68.9312 85.3974L67.248 84.3171ZM71.8843 77.0012C70.342 79.444 68.8011 81.8845 67.2467 84.3192L68.9325 85.3954C70.49 82.9558 72.0336 80.511 73.5755 78.069L71.8843 77.0012ZM71.8856 76.9992L71.8848 77.0005L73.575 78.0696L73.5759 78.0683L71.8856 76.9992ZM74.6233 72.6688C73.7086 74.1119 72.7966 75.5563 71.8852 76.9999L73.5763 78.0676C74.4879 76.6238 75.3989 75.1809 76.3126 73.7395L74.6233 72.6688ZM75.3594 71.6063C75.1064 71.9457 74.8581 72.2976 74.6229 72.6695L76.313 73.7387C76.5135 73.4218 76.7306 73.1132 76.9629 72.8016L75.3594 71.6063ZM76.0144 71.0545C75.8102 71.1798 75.6214 71.3287 75.4524 71.4985L76.8699 72.9094C76.926 72.8531 76.9899 72.8024 77.0606 72.7589L76.0144 71.0545ZM65.779 101.761C65.1502 101.661 64.5347 101.565 63.9291 101.471L63.6221 103.448C64.2281 103.542 64.8409 103.637 65.4664 103.736L65.779 101.761ZM65.9399 101.684C65.7775 101.709 65.6102 101.736 65.4518 101.763L65.7937 103.734C65.9339 103.709 66.0851 103.685 66.2509 103.659L65.9399 101.684ZM67.056 101.478C66.7219 101.56 66.3425 101.62 65.9398 101.684L66.2509 103.659C66.636 103.599 67.1007 103.526 67.5305 103.421L67.056 101.478ZM66.8512 101.968C66.9014 102.049 66.8922 102.059 66.883 102.011C66.8711 101.947 66.8671 101.818 66.9369 101.676C67.0028 101.541 67.0932 101.478 67.1205 101.461C67.1434 101.448 67.1314 101.46 67.0559 101.478L67.5305 103.421C67.8665 103.339 68.449 103.137 68.734 102.553C69.0434 101.92 68.7913 101.302 68.5515 100.915L66.8512 101.968ZM62.0544 94.0744C63.6333 96.718 65.24 99.3457 66.8493 101.965L68.5534 100.918C66.9451 98.3004 65.3437 95.6814 63.7714 93.0489L62.0544 94.0744ZM62.0457 94.019C62.0221 94.0084 62.0107 93.9931 62.0062 93.9835L63.8196 93.1398C63.6252 92.7221 63.2875 92.3831 62.8611 92.1927L62.0457 94.019ZM62.1267 94.0229C62.0998 94.0317 62.0701 94.0299 62.0457 94.019L62.8611 92.1927C62.4338 92.002 61.9519 91.9762 61.5065 92.1215L62.1267 94.0229ZM58.8409 94.4001C59.9146 94.4003 60.9852 94.2823 62.0344 94.0482L61.5988 92.0962C60.6926 92.2984 59.7681 92.4003 58.8412 92.4001L58.8409 94.4001ZM57.3733 94.3271C57.8468 94.3505 58.3178 94.3737 58.7879 94.3987L58.8941 92.4015C58.4196 92.3763 57.9448 92.3529 57.4719 92.3296L57.3733 94.3271ZM49.861 93.6934C52.3641 94.0808 54.903 94.2052 57.3733 94.3271L57.4719 92.3296C54.9836 92.2068 52.5496 92.0857 50.1669 91.7169L49.861 93.6934ZM33.5275 90.232C38.8975 91.9421 44.4242 92.8282 49.8568 93.6927L50.1711 91.7176C44.7169 90.8496 39.3379 89.9834 34.1344 88.3263L33.5275 90.232ZM34.2892 89.3839C34.2508 89.2844 34.2704 89.3 34.2731 89.3849C34.2763 89.4855 34.2507 89.8053 33.9447 90.0404C33.6924 90.2342 33.4487 90.207 33.4461 90.2068C33.4173 90.2044 33.4352 90.2025 33.5264 90.2316L34.1354 88.3266C33.9894 88.2799 33.8026 88.229 33.6069 88.2132C33.4375 88.1996 33.0647 88.1944 32.7264 88.4543C32.3344 88.7554 32.2658 89.1853 32.2742 89.4487C32.2821 89.6963 32.3551 89.9272 32.4235 90.1043L34.2892 89.3839ZM35.5 92.2847C35.0397 91.3581 34.6395 90.4007 34.302 89.419L32.4106 90.0691C32.7762 91.1326 33.2099 92.17 33.7089 93.1745L35.5 92.2847ZM36.1356 92.6928C35.8576 92.6137 35.6085 92.4337 35.4374 92.1762L33.7716 93.2831C34.2009 93.9291 34.8427 94.4044 35.5886 94.6165L36.1356 92.6928ZM39.8409 93.5817C38.5955 93.351 37.3621 93.0552 36.1455 92.6957L35.5787 94.6136C36.8617 94.9929 38.1627 95.3048 39.4765 95.5483L39.8409 93.5817ZM41.9386 93.9425C41.225 93.8296 40.5351 93.7204 39.8547 93.5844L39.4627 95.5456C40.1894 95.6908 40.9192 95.8061 41.6262 95.9179L41.9386 93.9425ZM43.9937 94.2933C43.3027 94.1581 42.61 94.0487 41.9386 93.9425L41.6262 95.9179C42.3035 96.025 42.9603 96.129 43.6098 96.2561L43.9937 94.2933ZM44.9991 95.0504C44.9486 94.981 44.8467 94.8378 44.7264 94.7125C44.6133 94.5949 44.3728 94.3714 44.0037 94.2953L43.5997 96.2541C43.4826 96.2299 43.3993 96.1841 43.3528 96.1532C43.3079 96.1233 43.2849 96.099 43.2841 96.0982C43.2826 96.0966 43.2899 96.1042 43.309 96.1288C43.3285 96.1538 43.3496 96.1827 43.3817 96.2268L44.9991 95.0504ZM45.0968 95.1791C45.085 95.1664 45.0637 95.1393 44.9991 95.0504L43.3816 96.2268C43.4297 96.2928 43.521 96.4205 43.6266 96.5351L45.0968 95.1791ZM44.1595 97.1436C44.4734 97.0141 44.7636 96.8337 45.0194 96.6104L43.704 95.1038C43.611 95.1851 43.507 95.2493 43.3964 95.2949L44.1595 97.1436ZM42.737 97.2333C43.1489 97.2932 43.5676 97.2818 43.9756 97.1995L43.5803 95.239C43.3972 95.2759 43.2096 95.281 43.025 95.2542L42.737 97.2333ZM39.5727 96.8098C40.6304 96.9538 41.6914 97.0983 42.7529 97.2355L43.0092 95.252C41.9556 95.1158 40.9014 94.9723 39.8425 94.8281L39.5727 96.8098ZM36.9514 96.457C37.8248 96.5718 38.6977 96.6907 39.5727 96.8098L39.8425 94.8281C38.9683 94.7091 38.0908 94.5896 37.2121 94.4741L36.9514 96.457ZM36.0711 96.4264C36.4186 96.4264 36.7008 96.4276 36.9647 96.4587L37.1988 94.4724C36.7984 94.4252 36.3974 94.4264 36.0711 94.4264V96.4264ZM36.0709 96.4264H36.0711V94.4264H36.0709V96.4264ZM37.282 96.0406C37.1813 95.7834 37.1049 95.5163 37.054 95.2432L35.0878 95.6096C35.1617 96.0062 35.2728 96.3948 35.4197 96.7699L37.282 96.0406ZM37.9726 97.1032C37.6975 96.7355 37.4507 96.3458 37.2348 95.9376L35.467 96.8729C35.7314 97.3726 36.0337 97.8502 36.3713 98.3013L37.9726 97.1032ZM38.3424 97.497C38.2147 97.4161 38.1035 97.3051 38.0186 97.1701L36.3253 98.2344C36.5664 98.618 36.8892 98.944 37.2723 99.1866L38.3424 97.497ZM38.7568 97.643C38.6116 97.6271 38.47 97.5778 38.3424 97.497L37.2723 99.1866C37.6553 99.4293 38.0881 99.5817 38.539 99.6311L38.7568 97.643ZM46.244 98.5937C43.7512 98.2032 41.2441 97.9172 38.7574 97.6431L38.5383 99.631C41.0251 99.9051 43.4915 100.187 45.9344 100.57L46.244 98.5937ZM55.9455 100.173C52.7183 99.6372 49.4855 99.1002 46.2436 98.5936L45.9348 100.57C49.1657 101.075 52.389 101.61 55.6178 102.146L55.9455 100.173ZM60.7869 100.973C59.173 100.709 57.5599 100.441 55.9455 100.173L55.6178 102.146C57.2318 102.414 58.8472 102.683 60.4639 102.947L60.7869 100.973ZM63.9291 101.471C62.861 101.306 61.8242 101.144 60.7881 100.974L60.4627 102.947C61.5095 103.12 62.5556 103.282 63.6221 103.448L63.9291 101.471Z" fill="#E8E9E9"/>
<path d="M29.5117 86.2828C29.5648 84.1228 30.3412 82.1653 31.055 80.2078C33.2739 74.3411 35.9224 68.646 38.9788 63.1687C43.4022 54.8949 48.5335 47.0194 54.3153 39.6302C56.6447 36.6747 59.0368 33.748 62.0655 31.4337C62.362 31.2301 62.6132 30.9674 62.8034 30.6623C63.4304 29.481 64.4335 29.1676 65.6971 29.0712C68.6977 28.919 71.705 29.1819 74.6337 29.8523C81.0239 31.1444 87.3804 32.5909 93.7464 34.0036C95.7502 34.4197 97.65 35.2337 99.3334 36.3973C101.017 37.5609 102.449 39.0505 103.546 40.7777C105.726 44.0997 107.805 47.4844 109.85 50.9028C110.406 51.9341 110.863 53.0158 111.215 54.1332C111.516 54.8457 111.585 55.635 111.412 56.3889C111.238 57.1428 110.832 57.823 110.25 58.3327C108.962 59.567 107.626 60.7435 106.305 61.944C105.403 62.7685 104.472 63.564 103.585 64.3981C101.694 66.1773 99.7749 67.9226 97.9664 69.7741C96.0083 71.775 94.1081 73.8579 92.2755 75.9552C90.3174 78.1635 88.3352 80.3572 86.5267 82.7053C83.6523 86.4017 80.8535 90.1577 78.1303 93.9731C76.7533 95.9331 75.4831 97.9658 74.3251 100.063C72.6419 103.052 70.2016 104.807 66.7581 105.005C65.6403 105.007 64.5236 104.933 63.4159 104.783C61.3373 104.604 59.2538 104.46 57.1849 104.209C53.9005 103.814 50.6259 103.36 47.3512 102.888C45.0845 102.555 42.8371 102.102 40.5704 101.794C39.2212 101.654 37.9234 101.201 36.781 100.47C35.6386 99.7393 34.6835 98.7509 33.9921 97.5844C32.2197 94.7781 30.8389 91.7431 29.8879 88.5634C29.7171 87.8114 29.5915 87.0498 29.5117 86.2828ZM42.133 64.6585C41.7328 64.5713 41.3147 64.6279 40.9522 64.8184C40.5896 65.0089 40.3059 65.321 40.1508 65.6999C37.3295 71.0711 34.5129 76.4374 32.1498 82.0303C31.5951 83.3369 32.2221 84.5085 32.3379 85.7332C32.362 85.9598 32.7189 86.2153 32.9745 86.3455C33.466 86.6117 33.9851 86.8235 34.5226 86.9771C36.2974 87.4593 38.0625 87.9414 39.8614 88.2982C43.9125 89.0407 47.9733 89.7446 52.0486 90.3473C54.513 90.7041 57.0113 90.7909 59.4902 91.003C60.0898 91.1004 60.6961 91.1503 61.3035 91.1525C63.006 91.032 63.8596 89.7302 64.5251 88.4477C67.4574 82.7969 70.1244 77.0015 73.5727 71.6255C73.973 70.9987 73.756 70.7046 73.0904 70.5552C72.2946 70.3671 71.5037 70.1646 70.7128 69.9669C70.4 69.8617 70.0598 69.8725 69.7543 69.9973C69.4488 70.1221 69.1984 70.3526 69.0489 70.6468C67.0571 73.6023 64.993 76.5097 62.9674 79.446C62.7668 79.7697 62.4802 80.0313 62.1396 80.2015C61.7989 80.3718 61.4176 80.4441 61.0383 80.4103C60.4337 80.3527 59.8238 80.3983 59.2346 80.5453C57.508 81.1094 56.9341 82.0592 56.91 84.1469C56.91 85.8489 56.2878 86.3551 54.6288 86.0369C51.2528 85.3908 47.8335 84.7496 44.4382 84.0842C41.9304 83.6021 41.8436 83.3899 42.8612 81.0081C43.575 79.3351 43.0493 78.0333 41.4144 77.4547C39.4853 76.7508 39.2972 76.312 40.3293 74.4847C40.3823 74.3979 40.4402 74.3159 40.4884 74.2243C41.9352 71.4809 43.4158 68.7423 44.8579 65.9892C45.2581 65.2226 45.2051 65.1455 44.3756 65.0249C43.5461 64.9044 42.8901 64.7694 42.133 64.6585ZM109.054 55.3916C108.697 54.4563 108.417 53.6366 108.089 52.8507C107.607 51.7321 107.4 51.6646 106.43 52.4505C103.947 54.4755 101.487 56.5343 99.0322 58.5979C98.1351 59.3501 97.296 60.1697 96.3941 60.9122C96.1578 61.1051 95.6225 61.2931 95.4923 61.1774C95.0389 60.7772 95.4923 60.4494 95.7768 60.2131C97.0886 58.9306 98.3859 57.6288 99.7604 56.4234C101.907 54.5431 104.101 52.735 106.29 50.898C106.633 50.6087 106.816 50.3194 106.527 49.8566C105.363 48.0019 104.217 46.136 103.088 44.2588C102.808 43.7767 102.548 43.6803 102.172 44.1528C101.916 44.471 101.632 44.7603 101.366 45.0737C100.026 46.6696 98.6946 48.2751 97.3297 49.8614C96.9913 50.2301 96.6072 50.5541 96.1867 50.8257C96.1337 50.8643 95.6514 50.5219 95.6659 50.3773C95.7194 50.0785 95.8565 49.801 96.0613 49.5769C97.2863 48.0148 98.5306 46.4671 99.7604 44.9097C100.416 44.0756 101.053 43.2367 101.69 42.3978L99.799 39.6302C99.7701 39.5917 99.746 39.5434 99.7122 39.5049C99.2299 38.9456 98.8537 38.9842 98.6994 39.7411C98.3726 41.0291 97.7631 42.2281 96.915 43.2512C94.6579 46.3273 92.3767 49.3889 90.1052 52.4553C88.6262 54.4579 87.1392 56.4588 85.6441 58.4581C85.4243 58.702 85.2921 59.0123 85.2685 59.3398C85.2449 59.6672 85.3313 59.9933 85.5139 60.2661C87.4671 63.7858 89.3722 67.3344 91.2627 70.8734C91.8993 72.0546 91.8945 72.0739 92.8156 71.153C95.4151 68.5639 97.9905 65.9458 100.604 63.3663C101.69 62.296 102.837 61.2883 103.98 60.2661C105.461 58.9402 106.961 57.6481 108.427 56.3125C108.67 56.03 108.88 55.7211 109.054 55.3916ZM48.4267 53.0436C47.983 52.9471 47.5489 53.3859 47.1776 54.0079C45.7307 56.3945 44.2164 58.757 42.7696 61.1533C42.051 62.349 42.2342 62.6431 43.5798 62.7685C45.6536 62.9613 47.7274 63.1397 49.7964 63.3808C55.3507 64.0569 60.8635 65.0387 66.3096 66.3219C69.0345 66.9487 71.7352 67.6912 74.436 68.4289C74.6869 68.5399 74.9714 68.5475 75.2279 68.45C75.4843 68.3525 75.6919 68.1578 75.8056 67.9082C77.3779 65.4974 79.0176 63.0867 80.6284 60.676C81.0625 60.0251 81.0191 59.8226 80.2764 59.6008C79.008 59.2247 77.7251 58.9017 76.4471 58.5642C68.7784 56.5102 60.9976 54.9003 53.1434 53.7427L48.4267 53.0436ZM70.0135 35.1559C70.9491 35.3632 72.0873 35.638 73.2351 35.855C76.2783 36.4722 79.3263 37.0652 82.3646 37.6872C83.5992 37.9379 83.9321 38.6177 83.4401 39.7893C83.363 39.9774 83.2568 40.1558 83.17 40.339C82.3695 42.0072 82.654 42.9137 84.2696 43.8731C84.4867 44.0033 84.7519 44.0997 84.94 44.2396C86.0493 44.9676 86.1795 45.5221 85.4898 46.6503C83.7777 49.4275 82.056 52.1902 80.3487 54.9673C79.2298 56.7802 79.2491 56.7224 81.2409 57.3009C82.3164 57.6143 82.953 57.4359 83.6523 56.4861C87.7999 50.816 92.0198 45.2039 96.2398 39.6109C96.332 39.5239 96.4062 39.4196 96.4581 39.3039C96.51 39.1882 96.5386 39.0634 96.5421 38.9367C96.5457 38.81 96.5243 38.6838 96.479 38.5653C96.4338 38.4469 96.3656 38.3385 96.2784 38.2465C95.9506 37.872 95.5369 37.5825 95.0727 37.4027C93.9242 36.9807 92.7518 36.6265 91.5617 36.342C86.1505 35.1125 80.7393 33.8734 75.3089 32.7452C72.5213 32.1666 69.6903 31.8146 66.8787 31.3662C65.2823 31.1107 64.2454 31.6748 63.2037 33.0489C60.6524 36.4239 57.7491 39.4856 55.1255 42.7883C53.1337 45.2955 51.3348 47.9617 49.4829 50.5798C48.9572 51.3223 49.0536 51.4669 50.0471 51.4621C50.8091 51.4621 51.6194 51.1632 52.3139 51.3464C53.6064 51.6936 54.1224 51.0041 54.7686 50.1169C57.0643 46.9396 59.4371 43.8201 61.7858 40.6861C62.408 39.852 63.0783 39.3747 64.2551 39.7604C64.727 39.9056 65.2324 39.9 65.7009 39.7445C66.1695 39.5889 66.5778 39.2911 66.869 38.8925C67.4067 38.1634 67.8476 37.3676 68.1808 36.5252C68.5811 35.5561 68.9621 35.1607 70.0135 35.1559ZM63.3532 41.7661C63.0686 41.9652 62.8067 42.1948 62.5719 42.4508C60.5303 45.1219 58.5015 47.8042 56.4856 50.4978C55.8104 51.3898 55.8345 51.4091 56.881 51.6357C57.0788 51.6791 57.2813 51.7128 57.4839 51.7514C61.9305 52.6145 66.3868 53.4389 70.8189 54.3647C72.7094 54.7648 74.5614 55.3723 76.4181 55.9123C77.0789 56.1004 77.3827 55.9124 77.7251 55.2856C79.2137 52.4441 80.7555 49.63 82.3502 46.8432C82.6974 46.2308 82.8951 45.8789 82.1813 45.3678C80.4596 44.1094 79.6542 42.4749 80.4548 40.3052C80.667 39.7363 80.3535 39.6447 79.8713 39.5579C77.0692 39.042 74.272 38.4972 71.47 37.9572C70.3125 37.7306 70.3125 37.7257 69.7193 38.7961C68.3014 41.3467 66.6858 42.1711 63.8403 41.8529C63.7391 41.8433 63.6378 41.8192 63.3532 41.7661ZM45.6198 79.6678C45.5527 80.0792 45.456 80.4852 45.3305 80.8828C45.0797 81.5433 45.3304 81.7699 45.9622 81.8856C48.2145 82.3003 50.4619 82.7535 52.7141 83.1874C53.8668 83.4092 54.0741 83.3465 54.3249 82.1942C54.9567 79.3013 57.3247 77.8549 59.8519 77.8549C60.2291 77.8679 60.6023 77.7733 60.9277 77.582C61.2531 77.3908 61.5173 77.1108 61.6893 76.7749C62.4513 75.5695 63.2375 74.3641 64.0573 73.2166C64.8772 72.0691 65.7453 70.9168 66.6134 69.7886C66.9896 69.3064 66.8497 69.075 66.2999 68.9641C66.0492 68.911 65.8176 68.8243 65.562 68.7616C59.7235 67.3357 53.8139 66.2188 47.8576 65.4155C47.3753 65.348 47.0136 65.4155 46.758 65.9362C45.4044 68.7327 44.0203 71.5179 42.6056 74.2918C42.2825 74.9331 42.3162 75.232 43.0493 75.5358C44.7952 76.2638 45.451 77.7488 45.6198 79.6678ZM76.6448 71.9052C76.5089 71.9926 76.3842 72.0962 76.2734 72.2138C76.0371 72.5464 75.7912 72.8839 75.5983 73.2359C73.1869 77.204 70.8189 81.1817 68.4123 85.145C66.9848 87.4978 65.5379 89.8394 64.0718 92.1698C63.8451 92.5363 63.6763 92.8255 63.9512 93.2691C65.5717 95.9209 67.1439 98.6017 68.774 101.244C69.2901 102.083 69.4492 102.078 70.1678 101.393C71.5279 100.092 72.8782 98.7945 73.6402 96.9817C74.1585 95.8167 74.785 94.7028 75.5115 93.6548C77.4791 90.6848 79.4854 87.7389 81.5303 84.8171C82.1524 83.9299 82.3454 83.1874 81.7473 82.1942C81.1493 81.201 80.7828 80.1644 80.3005 79.1567C79.2009 76.9147 78.082 74.6775 76.9679 72.4404C76.8693 72.2629 76.7614 72.0907 76.6448 71.9245V71.9052ZM65.8128 102.96C66.3289 102.874 66.9366 102.801 67.5249 102.666C68.1133 102.531 68.3062 102.247 67.9397 101.673C66.3048 99.0935 64.6746 96.5092 63.0735 93.9104C62.977 93.7094 62.8112 93.5499 62.6065 93.4613C62.4018 93.3727 62.1721 93.361 61.9594 93.4282C60.9658 93.6431 59.9521 93.7514 58.9355 93.7513C55.9406 93.597 52.9215 93.5102 49.9652 93.0666C44.4334 92.2325 38.8728 91.3695 33.5195 89.6916C33.0372 89.5421 32.7961 89.6048 33.0372 90.1496C33.3944 91.157 33.8181 92.1395 34.3056 93.0907C34.6107 93.5358 35.0633 93.8586 35.5836 94.002C36.8537 94.3659 38.1414 94.6652 39.4418 94.8988C40.8356 95.1688 42.2536 95.3327 43.6522 95.5979C43.8692 95.6413 44.0331 95.974 44.2212 96.1717C44.0439 96.3217 43.8437 96.4422 43.628 96.5284C43.3276 96.5872 43.0196 96.5953 42.7165 96.5525C40.7536 96.3066 38.7908 96.0367 36.8231 95.7859C36.4855 95.7474 36.1382 95.7618 35.7958 95.7474C35.8592 96.0772 35.9545 96.4002 36.0804 96.7117C36.3244 97.1588 36.6034 97.586 36.9147 97.9893C37.0803 98.2448 37.301 98.4601 37.5604 98.6194C37.8199 98.7787 38.1117 98.8781 38.4146 98.9103C40.9417 99.1803 43.4689 99.4599 45.9767 99.8408C50.9104 100.588 55.8248 101.403 60.7489 102.184C62.3935 102.449 64.0525 102.69 65.8128 102.96ZM84.1394 81.1045C84.3125 81.0243 84.4746 80.9222 84.6217 80.8008C86.3 78.7613 87.9976 76.7267 89.6181 74.6486C89.7083 74.4837 89.7607 74.3009 89.7716 74.1132C89.7824 73.9256 89.7514 73.7379 89.6808 73.5638C87.853 69.6439 85.9817 65.7433 84.1394 61.8331C83.8404 61.1919 83.6282 61.2353 83.2616 61.7753C81.728 64.0558 80.1896 66.3316 78.6125 68.5832C78.3606 68.8998 78.2233 69.2924 78.2233 69.6969C78.2233 70.1015 78.3606 70.4941 78.6125 70.8107C79.7073 72.5802 80.749 74.3931 81.7329 76.23C82.4515 77.5704 83.0446 78.9831 83.7054 80.362C83.8297 80.6108 83.9681 80.8523 84.1201 81.0853L84.1394 81.1045Z" fill="#D0D3D3"/>
<path d="M42.0246 64.4215C42.787 64.5317 43.5494 64.6275 44.3069 64.7521C45.0645 64.8766 45.1859 64.9677 44.7925 65.7102C43.3357 68.4456 41.8789 71.1666 40.393 73.8924C40.3444 73.9834 40.2861 74.0649 40.2327 74.1511C39.1935 75.9667 39.3586 76.4026 41.3253 77.102C42.9618 77.6769 43.4911 78.9703 42.7821 80.6326C41.7575 82.9992 41.8449 83.1956 44.3701 83.689C47.7693 84.3501 51.2122 84.9872 54.6308 85.6292C56.3013 85.9453 56.9083 85.4423 56.9277 83.7513C56.9277 81.677 57.5299 80.7332 59.2683 80.1728C59.8616 80.0267 60.4758 79.9814 61.0845 80.0386C61.4665 80.0722 61.8504 80.0004 62.1934 79.8312C62.5364 79.6621 62.825 79.4021 63.0269 79.0805C65.0664 76.1631 67.1448 73.2744 69.1503 70.3378C69.3009 70.0456 69.5529 69.8165 69.8605 69.6925C70.1681 69.5685 70.5107 69.5578 70.8256 69.6624C71.622 69.8588 72.4184 70.06 73.2197 70.2468C73.8704 70.3953 74.0889 70.6875 73.7053 71.3103C70.2332 76.6517 67.5478 82.4099 64.5954 88.0244C63.9253 89.2987 63.0657 90.5921 61.3515 90.7119C60.7399 90.7097 60.1294 90.6601 59.5257 90.5634C57.0297 90.3526 54.5143 90.2664 52.0329 89.9119C47.9295 89.3274 43.8408 88.6137 39.7617 87.8759C37.9504 87.5454 36.1731 87.0328 34.3861 86.5633C33.8449 86.4107 33.3222 86.2003 32.8273 85.9357C32.5699 85.8064 32.2106 85.5525 32.1863 85.3274C32.0698 84.1106 31.4385 82.9321 31.9969 81.6482C34.3764 76.0912 37.2123 70.7594 40.053 65.4228C40.2144 65.0573 40.4987 64.758 40.858 64.5756C41.2172 64.3931 41.6294 64.3387 42.0246 64.4215Z" fill="white"/>
<path d="M48.3427 53.1135L53.0365 53.7792C60.8525 54.9048 68.5956 56.47 76.2271 58.4671C77.4989 58.7953 78.7755 59.1094 80.0377 59.475C80.7768 59.6907 80.82 59.8876 80.3881 60.5204C78.7851 62.8644 77.1533 65.2083 75.5887 67.5523C75.4756 67.795 75.2689 67.9843 75.0137 68.0791C74.7585 68.1739 74.4754 68.1665 74.2257 68.0586C71.5381 67.3413 68.8504 66.6194 66.1388 66.01C60.7191 64.7623 55.2331 63.8077 49.7057 63.1503C47.6468 62.9159 45.583 62.7425 43.5193 62.555C42.1803 62.4331 41.9979 62.1471 42.713 60.9845C44.1528 58.6406 45.6454 56.3576 47.0996 54.037C47.4692 53.4464 47.9011 53.0198 48.3427 53.1135Z" fill="white"/>
<path d="M69.9228 35.1898C68.8711 35.1898 68.4755 35.593 68.0896 36.5401C67.7563 37.3887 67.3151 38.1903 66.7773 38.9248C66.486 39.3263 66.0775 39.6263 65.6088 39.783C65.1401 39.9397 64.6345 39.9454 64.1625 39.7991C62.9853 39.4105 62.3147 39.8914 61.6924 40.7316C59.3429 43.8887 56.9693 47.0457 54.6728 50.2318C54.0264 51.1255 53.5102 51.8201 52.2172 51.4704C51.5225 51.2858 50.712 51.5821 49.9497 51.5869C48.9559 51.5869 48.8594 51.4461 49.3853 50.6981C51.2379 48.0608 53.0374 45.3555 55.0298 42.8493C57.6543 39.5222 60.5586 36.4187 63.1107 33.0382C64.1528 31.654 65.1901 31.0954 66.787 31.3431C69.5996 31.7948 72.4315 32.1494 75.22 32.7322C80.6523 33.8688 86.0654 35.117 91.4784 36.3555C92.6689 36.6421 93.8416 36.9989 94.9906 37.424C95.4549 37.6051 95.8687 37.8968 96.1967 38.274C96.2839 38.3668 96.3521 38.4759 96.3974 38.5952C96.4426 38.7145 96.4641 38.8417 96.4605 38.9693C96.4569 39.097 96.4284 39.2227 96.3765 39.3393C96.3246 39.4558 96.2503 39.5609 96.158 39.6485C91.9367 45.302 87.7153 50.9555 83.5663 56.6479C82.8668 57.6193 82.2299 57.7844 81.1541 57.4687C79.1616 56.8859 79.1423 56.9442 80.2616 55.1179C81.9694 52.3203 83.6918 49.5373 85.4044 46.7397C86.0943 45.6129 85.9641 45.0543 84.8544 44.3112C84.6422 44.1704 84.4009 44.0732 84.1838 43.9421C82.5677 42.9707 82.283 42.0624 83.0839 40.3819C83.1707 40.1974 83.2769 40.0177 83.3541 39.8282C83.8365 38.648 83.5132 37.9632 82.2782 37.7106C79.2388 37.0841 76.1898 36.4867 73.1456 35.865C71.9974 35.661 70.8588 35.3987 69.9228 35.1898Z" fill="white"/>
<path d="M63.0852 41.966C63.3665 42.0188 63.4666 42.0428 63.562 42.0524C66.3745 42.3834 67.9715 41.5727 69.373 39.0112C69.9594 37.9462 69.9594 37.9511 71.1035 38.1765C73.8731 38.7138 76.6381 39.2558 79.4077 39.7691C79.8845 39.8554 80.1943 39.9465 79.9845 40.5126C79.1932 42.6568 79.9845 44.2973 81.6911 45.5493C82.3967 46.0721 82.2013 46.4079 81.858 47.0171C80.2913 49.7961 78.7673 52.5959 77.2864 55.4164C76.9574 56.04 76.6476 56.2271 75.9945 56.04C74.1592 55.5028 72.3286 54.8984 70.4599 54.5002C66.079 53.5792 61.6742 52.759 57.2789 51.9003C57.0787 51.8619 56.8785 51.8284 56.683 51.7852C55.6486 51.5597 55.6248 51.5406 56.2921 50.6531C58.2848 47.9765 60.2901 45.3078 62.3082 42.6472C62.5417 42.3922 62.8023 42.1638 63.0852 41.966Z" fill="#E8E9E9"/>
<path d="M45.4697 79.5566C45.3033 77.6112 44.6566 76.1083 42.9305 75.369C42.2077 75.0626 42.1744 74.761 42.493 74.1142C43.8815 71.3192 45.2462 68.5096 46.5872 65.6854C46.8392 65.1456 47.1721 65.0921 47.6714 65.1602C53.544 65.9705 59.3708 67.0972 65.1274 68.5355C65.3699 68.5988 65.6029 68.6863 65.8549 68.7398C66.397 68.8517 66.5349 69.0754 66.164 69.5715C65.3081 70.7096 64.4522 71.8526 63.6438 73.0296C62.8354 74.2066 62.0603 75.4031 61.309 76.619C61.1394 76.9578 60.8789 77.2403 60.5581 77.4332C60.2372 77.6262 59.8693 77.7216 59.4973 77.7084C57.0057 77.7425 54.6709 79.1675 54.048 82.0857C53.8007 83.2482 53.5724 83.3114 52.4597 83.0877C50.2439 82.6499 48.028 82.1927 45.8026 81.7745C45.1749 81.6577 44.9324 81.4291 45.1797 80.7628C45.3042 80.3683 45.4011 79.9652 45.4697 79.5566Z" fill="#E8E9E9"/>
<path d="M83.8711 80.933C83.6881 80.6978 83.5203 80.4521 83.3686 80.1975C82.6801 78.8315 82.062 77.4321 81.3132 76.1043C80.3081 74.2845 79.2025 72.4887 78.0617 70.7358C77.7992 70.4222 77.6562 70.0333 77.6562 69.6325C77.6562 69.2317 77.7992 68.8428 78.0617 68.5292C79.7051 66.2987 81.3082 64.0443 82.9063 61.7852C83.2882 61.2502 83.5093 61.2073 83.8209 61.8425C85.7406 65.716 87.6905 69.58 89.5952 73.463C89.6687 73.6356 89.7011 73.8215 89.6898 74.0073C89.6785 74.1932 89.6238 74.3743 89.5298 74.5377C87.8312 76.5962 86.0723 78.6118 84.3235 80.6321C84.1858 80.7491 84.0339 80.8501 83.8711 80.933Z" fill="white"/>
</svg>
