<svg width="148" height="135" viewBox="0 0 148 135" fill="none" xmlns="http://www.w3.org/2000/svg">
<path d="M120.683 115.964C119.976 114.798 118.863 114.234 117.807 113.689L117.765 113.665C117.589 113.577 117.413 113.507 117.243 113.441C117.043 113.372 116.852 113.28 116.673 113.168C116.409 112.977 116.139 112.79 115.872 112.599C114.887 111.932 113.942 111.207 113.045 110.427C110.548 108.152 108.746 106.122 107.369 104.035C105.927 101.806 104.68 99.4581 103.64 97.0165C102.584 94.5371 101.708 91.985 101.019 89.3799C100.259 86.3936 99.6517 83.3706 99.1992 80.3226C99.0323 79.2927 98.8624 78.2628 98.6835 77.2328C98.1658 74.3578 97.4646 71.5187 96.5842 68.7329C95.6737 65.97 94.5247 63.2912 93.1501 60.7267C91.6017 57.8336 89.678 55.157 87.4287 52.766C86.3316 51.6226 85.1469 50.5662 83.8854 49.6066C83.3697 49.1976 82.8358 48.7705 82.3262 48.3403C81.9545 48.0477 81.5097 47.8622 81.0399 47.8042C80.3301 47.7072 79.605 47.6436 78.968 47.5861L78.2733 47.5225H78.2004C75.9616 47.5709 73.9291 48.0314 71.9663 48.4736H71.8966C67.8831 49.3824 63.6846 50.5517 58.2848 52.2753C56.2583 52.9235 53.8617 53.699 51.4227 54.5472C49.0777 55.362 46.3776 57.4703 44.2905 58.2881C42.0123 59.1696 40.1983 58.7669 37.9291 59.7968C36.458 60.4951 35.0233 61.2675 33.6305 62.1111L33.2361 62.3413C32.4444 62.8018 33.2847 64.1202 33.2361 64.505C33.1876 64.8897 32.2077 64.7737 32.9267 65.4856C33.3256 65.8595 33.1333 66.703 33.6305 66.931C33.8611 67.0492 36.1025 71.0526 36.1025 69.3571C37.8128 70.5161 38.1563 69.3235 39.4399 70.9412C41.0909 72.9113 42.4919 75.0774 43.6111 77.3904C43.8083 77.8054 44.0055 78.2173 44.2178 78.6323C44.6941 79.6229 45.1855 80.6467 45.6466 81.6615C46.6889 84.0262 47.543 86.4693 48.201 88.968C48.8927 91.5034 49.4902 94.157 49.9787 96.862C50.282 98.5372 50.64 100.224 50.9889 101.857C51.2012 102.854 51.4136 103.85 51.6138 104.847C52.5028 109.262 53.9727 113.54 55.9852 117.57C56.9939 119.549 58.1733 121.438 59.5103 123.213C61.1181 125.398 63.0164 127.353 65.1528 129.026C66.5847 130.15 68.0985 131.147 69.7882 132.237C70.6923 132.808 71.6689 132.604 72.6452 133.041C73.3215 133.363 74.1708 133.372 74.9196 133.382C75.2864 133.383 75.5074 134.207 75.8615 134.112L78.5918 133.382C81.586 132.582 84.6863 131.755 87.6927 130.804C91.8821 129.48 96.1049 128.042 100.188 126.648C101.507 126.196 102.821 125.746 104.132 125.3C108.157 123.937 112.823 122.31 117.249 120.25C118.235 119.76 119.176 119.184 120.061 118.53L120.262 118.394C121.087 117.809 121.245 116.885 120.683 115.964Z" fill="#E8E9E9"/>
<path d="M129.083 105.684C128.376 104.517 127.263 103.953 126.208 103.407L126.165 103.383C125.99 103.295 125.814 103.225 125.644 103.158C125.444 103.089 125.253 102.998 125.074 102.885C124.81 102.694 124.54 102.506 124.273 102.315C123.288 101.648 122.344 100.922 121.447 100.141C118.951 97.8633 117.15 95.8314 115.773 93.742C114.332 91.5106 113.085 89.1598 112.046 86.7155C110.99 84.2333 110.114 81.6783 109.426 79.0703C108.666 76.0806 108.058 73.0542 107.606 70.0029C107.439 68.9718 107.269 67.9407 107.09 66.9096C106.573 64.0313 105.872 61.1891 104.992 58.4002C104.082 55.6342 102.933 52.9524 101.559 50.3851C100.011 47.4887 98.0881 44.8091 95.8396 42.4154C94.7428 41.2707 93.5586 40.2132 92.2975 39.2524C91.782 38.843 91.2482 38.4154 90.7388 37.9848C90.3672 37.6918 89.9226 37.5061 89.453 37.448C88.7434 37.351 88.0186 37.2873 87.3817 37.2297L86.6872 37.166H86.6145C84.3764 37.2145 82.3446 37.6755 80.3825 38.1183H80.3127C76.3006 39.028 72.1036 40.1986 66.7055 41.9241C64.6798 42.5731 62.284 43.3495 59.8458 44.1986C57.5016 45.0144 55.3454 45.8059 53.259 46.6247C50.9816 47.5071 48.6252 48.423 46.3569 49.4541C44.8862 50.1532 43.452 50.9265 42.0597 51.771L41.6655 52.0014C40.8739 52.4624 40.6495 53.0174 40.601 53.4025C40.5525 53.7876 40.6374 54.4366 41.3561 55.1493C41.7549 55.5236 42.2116 55.8308 42.7086 56.059C42.9391 56.1773 43.1545 56.2895 43.3516 56.4169C45.0613 57.5772 46.5839 58.9915 47.8671 60.6109C49.5175 62.5832 50.918 64.7518 52.0369 67.0673C52.234 67.4828 52.4311 67.8952 52.6434 68.3107C53.1195 69.3023 53.6108 70.3274 54.0717 71.3433C55.1137 73.7106 55.9675 76.1564 56.6252 78.6579C57.3167 81.1962 57.914 83.8527 58.4023 86.5608C58.7055 88.2378 59.0634 89.927 59.4122 91.5615C59.6244 92.5592 59.8367 93.557 60.0369 94.5547C60.9256 98.9744 62.3949 103.257 64.4068 107.292C65.4151 109.274 66.5942 111.164 67.9306 112.941C69.5379 115.128 71.4356 117.086 73.5713 118.761C75.0027 119.886 76.5159 120.884 78.2051 121.975C79.1089 122.547 80.0524 123.054 81.0285 123.492C81.7045 123.813 82.4421 123.985 83.1907 123.995C83.5572 123.996 83.9223 123.948 84.2763 123.853L87.0057 123.122C89.9988 122.321 93.0981 121.493 96.1034 120.541C100.291 119.216 104.513 117.775 108.595 116.38C109.913 115.927 111.227 115.478 112.537 115.031C116.561 113.666 121.225 112.038 125.65 109.975C126.636 109.484 127.576 108.908 128.461 108.253L128.661 108.116C129.486 107.531 129.644 106.606 129.083 105.684Z" fill="white"/>
<path d="M85.2832 36.0501C86.7995 35.8317 88.1429 36.3533 89.5288 37.1175C92.3693 38.6665 94.9398 40.6656 97.1406 43.0371C98.8147 44.8133 100.279 46.7761 101.504 48.887C103.116 51.6867 104.463 54.631 105.526 57.6815C106.409 60.2166 107.099 62.8148 107.591 65.454C107.967 67.5768 108.279 69.6996 108.698 71.7891C109.18 74.2152 109.671 76.6412 110.293 79.0127C111.109 82.0237 112.19 84.9565 113.523 87.7769C114.838 90.5296 116.466 93.1214 118.375 95.5009C119.534 97.006 120.906 98.3341 122.448 99.4432C123.436 100.153 124.385 100.92 125.347 101.666C125.525 101.789 125.682 101.941 125.811 102.115C126.46 103.104 127.457 103.677 128.391 104.332C129.486 105.099 129.835 106.188 129.604 107.452C129.441 108.362 128.695 108.917 128.009 109.42C126.347 110.633 124.47 111.477 122.596 112.311C121.517 112.793 120.413 113.22 119.321 113.681C119.195 113.747 119.075 113.824 118.963 113.912C119.069 113.991 119.169 114.085 119.285 114.154C120.052 114.612 120.855 115.025 121.586 115.534C122.872 116.444 122.799 118.003 121.423 118.77C120.382 119.341 119.304 119.841 118.196 120.268C114.89 121.56 111.573 122.826 108.243 124.065C106.159 124.835 104.043 125.511 101.95 126.257C97.8593 127.71 93.7865 129.211 89.6834 130.63C86.8661 131.604 84.0338 132.532 81.174 133.36C79.6289 133.804 78.0495 134.119 76.4523 134.303C75.5425 134.409 74.6054 134.175 73.6896 134.039C70.199 133.514 67.3545 131.692 64.6191 129.593C63.0785 128.409 61.6465 127.09 60.3402 125.651C58.729 123.863 57.3063 121.914 56.0945 119.834C54.3918 116.916 53.0612 113.795 52.134 110.546C51.5699 108.626 51.1029 106.67 50.7329 104.705C50.2173 101.975 49.8989 99.1946 49.3773 96.4592C48.9892 94.4243 48.4494 92.4137 47.9066 90.4122C47.0569 87.3692 45.8952 84.4221 44.4403 81.6177C43.0708 78.9355 41.4384 76.3958 39.5669 74.0362C38.4621 72.6191 37.1914 71.3393 35.7822 70.2243C35.3679 69.8783 34.9798 69.5022 34.6208 69.0992C34.1323 68.5796 33.6041 68.099 33.0408 67.6617C32.0158 66.8793 31.6882 65.7269 31.9248 64.4775C32.0855 63.6284 32.3797 62.7884 33.0772 62.2122C33.7521 61.6264 34.4754 61.0989 35.2394 60.6352C37.2924 59.44 39.5443 58.6253 41.8868 58.2304C41.9925 58.2026 42.0944 58.1619 42.1901 58.1091C42.3539 58.0424 42.4296 57.9635 42.2356 57.8331C41.5935 57.3623 41.0957 56.7217 40.7981 55.9832C40.6697 55.7276 40.4789 55.5086 40.2432 55.3464C39.9646 55.1512 39.7326 54.8967 39.5639 54.6013C39.3953 54.3058 39.2941 53.9767 39.2678 53.6375C39.2414 53.2983 39.2904 52.9575 39.4113 52.6395C39.5323 52.3215 39.7221 52.0342 39.9672 51.7983C41.1202 50.7701 42.4065 49.9021 43.7913 49.2175C46.9718 47.5459 50.2663 46.1009 53.6503 44.8931C57.9292 43.3252 62.2233 41.7847 66.5599 40.3836C70.1717 39.2161 73.8382 38.2214 77.5106 37.2419C79.406 36.7354 81.3529 36.3988 83.2877 36.0501C83.9185 35.953 84.5827 36.0501 85.2832 36.0501ZM86.0049 37.7695C83.8063 37.818 81.8079 38.2729 79.8245 38.7218C75.2423 39.7528 70.7267 41.0841 66.2688 42.5155C63.9792 43.2464 61.6927 43.9924 59.4243 44.7839C57.2227 45.5481 55.0331 46.3518 52.8557 47.1948C50.5479 48.1046 48.2371 48.9871 45.9869 50.0121C44.3996 50.773 42.852 51.6141 41.3501 52.5322C40.3796 53.0962 40.319 53.8877 41.162 54.7247C41.7261 55.2888 42.4387 55.5011 43.0604 55.9074C44.8215 57.1032 46.3919 58.5581 47.7185 60.2228C49.4001 62.2337 50.8262 64.4451 51.9641 66.8065C52.6404 68.2349 53.3409 69.6541 53.9899 71.0946C55.0459 73.4911 55.9109 75.9674 56.5767 78.5002C57.2883 81.1284 57.8848 83.7799 58.366 86.4547C58.8481 89.1264 59.4607 91.7769 59.9974 94.4395C60.8745 98.804 62.3266 103.033 64.3159 107.016C65.3114 108.964 66.4721 110.824 67.7851 112.574C69.3581 114.718 71.2172 116.636 73.3105 118.276C74.7722 119.425 76.3431 120.447 77.9019 121.46C78.7755 122.012 79.6876 122.5 80.6312 122.922C81.509 123.363 82.5149 123.478 83.4696 123.246C87.412 122.176 91.3756 121.172 95.2665 119.944C100.774 118.203 106.229 116.304 111.703 114.436C116.122 112.938 120.522 111.38 124.743 109.408C125.766 108.885 126.743 108.276 127.664 107.589C128.246 107.182 128.27 106.6 127.903 105.988C127.275 104.953 126.247 104.438 125.225 103.913C124.823 103.76 124.433 103.578 124.058 103.367C122.779 102.508 121.549 101.577 120.376 100.577C118.226 98.6184 116.219 96.5198 114.614 94.0634C113.153 91.7999 111.89 89.4145 110.839 86.9338C109.769 84.4258 108.883 81.8433 108.188 79.2068C107.097 75.1947 106.569 71.0734 105.85 66.9946C105.339 64.1408 104.645 61.3229 103.773 58.5579C102.875 55.8255 101.739 53.1771 100.379 50.6429C98.8563 47.7935 96.9638 45.1577 94.7509 42.8036C93.2346 41.1478 91.415 39.8772 89.7077 38.4397C89.4236 38.2198 89.085 38.0814 88.7282 38.0394C87.7911 37.9151 86.8389 37.8484 86.0049 37.7695ZM75.3909 132.902C76.5402 132.671 77.7259 132.541 78.845 132.192C81.8897 131.24 84.9223 130.235 87.9427 129.178C91.3301 127.998 94.6903 126.752 98.0686 125.539C102.153 124.077 106.257 122.661 110.332 121.163C113.498 119.998 116.628 118.737 119.767 117.524C120.431 117.263 120.461 117.044 119.906 116.562C119.685 116.38 119.444 116.223 119.188 116.095C118.551 115.762 117.868 115.489 117.265 115.113C116.661 114.737 116.143 114.828 115.548 115.061C114.484 115.486 113.404 115.883 112.322 116.274C111 116.735 109.665 117.157 108.34 117.615C104.919 118.797 101.523 120.071 98.0716 121.163C94.1778 122.376 90.2324 123.464 86.3112 124.599C85.0385 124.983 83.7134 125.167 82.384 125.141C81.5904 125.143 80.8173 124.889 80.1793 124.417C79.8517 124.138 79.5018 123.886 79.1331 123.665C78.0262 123.076 76.8829 122.549 75.7821 121.951C73.3087 120.56 71.0288 118.851 69.0012 116.865C68.5712 116.434 68.1729 115.972 67.8094 115.483C66.8693 114.309 65.8625 113.178 65.0346 111.928C63.6665 109.861 62.4832 107.677 61.4986 105.402C60.3508 102.81 59.4305 100.123 58.7481 97.372C57.7958 93.4114 56.9619 89.4206 56.1673 85.4236C55.4623 81.7308 54.4728 78.098 53.2075 74.5578C51.958 71.1004 50.32 67.7959 48.325 64.708C47.2547 63.0957 46.087 61.5503 44.8284 60.0803C44.3402 59.495 43.8459 59.2584 43.0574 59.586C41.7989 60.1076 40.4827 60.4957 39.206 60.9597C37.7516 61.4832 36.3729 62.197 35.1059 63.0825C34.5038 63.4865 34.046 64.0718 33.799 64.7535C33.6955 65.017 33.6847 65.3079 33.7686 65.5784C34.1325 66.4366 34.5298 67.2827 35.5154 67.6496C35.9118 67.8173 36.2881 68.0289 36.6374 68.2804C38.2287 69.3898 39.6472 70.7285 40.8467 72.2531C42.7839 74.6541 44.4764 77.2426 45.899 79.9801C47.6238 83.2537 48.9942 86.7021 49.9869 90.2667C50.8117 93.1294 51.2818 96.0559 51.8064 98.9762C52.143 100.872 52.3523 102.791 52.6859 104.69C53.5956 109.845 55.2363 114.752 57.8837 119.307C59.2322 121.634 60.8618 123.786 62.7359 125.715C63.6851 126.691 64.7283 127.577 65.726 128.508C67.7846 130.482 70.3554 131.841 73.1468 132.429C73.8837 132.58 74.6145 132.738 75.3818 132.902H75.3909Z" fill="#D0D3D3"/>
<path d="M76.256 109.12C75.9679 109.099 75.8223 109.12 75.6828 109.078C75.3795 109.02 75.2491 108.729 75.4432 108.517C75.6792 108.25 75.9631 108.03 76.2802 107.868C77.8389 107.137 79.4037 106.412 80.9868 105.745C83.5281 104.661 86.0795 103.602 88.641 102.567C92.5975 100.976 96.5642 99.4028 100.541 97.8481C102.142 97.2203 103.752 96.6108 105.393 96.0467C106.145 95.8155 106.911 95.6301 107.686 95.4917C107.819 95.4455 107.966 95.4533 108.094 95.5133C108.222 95.5733 108.321 95.6809 108.371 95.8132C108.423 96.0829 108.375 96.3624 108.235 96.5986C108.05 96.8188 107.812 96.987 107.543 97.0869C106.297 97.6358 105.053 98.1968 103.783 98.6911C99.8404 100.232 95.898 101.742 91.9556 103.27C88.8139 104.483 85.6782 105.727 82.5304 106.934C80.823 107.589 79.1005 108.198 77.375 108.814C76.9656 108.969 76.5289 109.047 76.256 109.12Z" fill="#D0D3D3"/>
<path d="M68.9794 93.5388C68.8076 93.5225 68.6391 93.4817 68.479 93.4175C68.3061 93.3235 68.0362 93.1385 68.0514 93.0202C68.0698 92.9054 68.1123 92.7958 68.1761 92.6986C68.2398 92.6014 68.3234 92.5188 68.4214 92.4561C68.7522 92.3227 69.0928 92.2153 69.4403 92.1347L77.692 89.3356C80.1363 88.5047 82.5926 87.7132 85.0217 86.8519C88.9641 85.4478 92.9065 83.9831 96.8488 82.576C98.1953 82.0968 99.5782 81.6905 100.94 81.2871C101.495 81.1203 101.828 81.2629 101.925 81.6238C102.053 82.0908 101.789 82.3182 101.419 82.5669C100.185 83.4039 98.7927 83.8952 97.422 84.4046C91.842 86.482 86.2469 88.5108 80.5699 90.3C77.598 91.2371 74.6109 92.1195 71.6208 92.999C70.7656 93.2476 69.877 93.3568 68.9794 93.5388Z" fill="#D0D3D3"/>
<path d="M100.994 74.5363C100.741 74.7885 100.457 75.0067 100.148 75.1852C99.1367 75.5613 98.1168 75.905 97.0877 76.2163C96.3023 76.4559 95.4835 76.5954 94.7011 76.841C90.8355 78.0541 86.972 79.2893 83.1105 80.5468C79.7989 81.6143 76.5025 82.7303 73.1818 83.7735C71.059 84.4377 68.915 85.0078 66.777 85.6234C66.7103 85.6416 66.6466 85.6841 66.5768 85.6992C66.2432 85.7781 65.8793 85.7963 65.7398 85.4293C65.6003 85.0624 65.9339 84.8228 66.2159 84.6954C66.8592 84.3755 67.5181 84.088 68.1902 83.8342C70.1462 83.1185 72.1113 82.4301 74.0734 81.7356C76.8027 80.7682 79.5321 79.7614 82.3069 78.8577C85.852 77.6962 89.4274 76.6409 92.9785 75.5006C94.5828 74.9821 96.181 74.4331 97.8519 74.1875C98.6709 74.0894 99.4961 74.055 100.32 74.0844C100.505 74.0874 100.69 74.327 100.994 74.5363Z" fill="#D0D3D3"/>
<path d="M57.8432 59.8737C57.6855 59.7524 57.3853 59.6281 57.3034 59.4188C57.2549 59.2854 57.4854 58.9336 57.6704 58.8426C58.4043 58.4662 59.1621 58.1379 59.9387 57.8601C63.4424 56.6753 66.9511 55.5098 70.4648 54.3635C75.1744 52.8472 79.8931 51.3491 84.6088 49.8541C85.9401 49.4325 87.2805 49.0292 88.627 48.6622C89.2172 48.5124 89.8186 48.4109 90.4253 48.359C90.6728 48.3337 90.9222 48.3833 91.141 48.5015C91.2389 48.5487 91.321 48.6231 91.3778 48.7157C91.4346 48.8083 91.4637 48.9153 91.4614 49.0239C91.4592 49.1325 91.4258 49.2382 91.3652 49.3283C91.3047 49.4185 91.2195 49.4894 91.1198 49.5326C90.5838 49.8251 90.0225 50.0687 89.4428 50.2604C86.853 51.1126 84.2631 51.9587 81.6611 52.7714C77.0061 54.221 72.3511 55.6645 67.6809 57.0686C64.6484 57.9783 61.6158 58.8093 58.5832 59.6736C58.3861 59.7403 58.1768 59.7888 57.8432 59.8737Z" fill="#D0D3D3"/>
<path d="M53.4488 54.873C53.188 54.873 53.1456 54.873 53.1183 54.873C52.8484 54.8123 52.3875 54.8062 52.3511 54.6789C52.2237 54.2391 52.6543 54.0724 52.9576 53.948C53.831 53.6235 54.7195 53.3415 55.6081 53.0382C58.0978 52.2255 60.5906 51.4097 63.0834 50.6122C66.6709 49.4598 70.2554 48.3074 73.846 47.1793C76.6178 46.3059 79.3926 45.4446 82.1826 44.6349C83.1821 44.3797 84.1944 44.1772 85.2152 44.0284C85.4257 43.9761 85.6468 43.9856 85.8521 44.0557C86.0977 44.171 86.4161 44.359 86.4586 44.5743C86.501 44.7896 86.2766 45.105 86.0734 45.2324C85.6761 45.4775 85.2478 45.6682 84.7998 45.7995C82.4707 46.5182 80.1326 47.2157 77.8005 47.9223L73.7823 49.1353C68.5997 50.6941 63.4169 52.2619 58.2252 53.7994C56.8878 54.1937 55.5201 54.4878 54.1615 54.8062C53.9269 54.8527 53.688 54.875 53.4488 54.873Z" fill="#D0D3D3"/>
<path d="M67.6734 74.3064C65.4747 74.2276 63.5884 73.3299 62.3208 71.292C62.1585 71.0789 62.0498 70.8299 62.0039 70.566C61.958 70.3022 61.9762 70.0311 62.057 69.7757C62.1409 69.5414 62.1577 69.2882 62.1055 69.0449C61.499 66.8007 62.4967 65.1268 64.0615 63.6923C64.6304 63.1899 65.293 62.8047 66.0112 62.5591C66.7294 62.3135 67.489 62.2121 68.2465 62.261C71.1244 62.3792 73.505 63.8682 74.2176 67.0434C74.4042 68.0008 74.3191 68.9914 73.9721 69.9031C72.9895 72.7385 70.5543 74.1912 67.6734 74.3064ZM72.3344 68.217C72.6741 66.4368 70.5483 64.2989 68.8045 64.1442C67.5785 64.0423 66.3559 64.3772 65.3531 65.0898C64.3502 65.8024 63.6317 66.8467 63.3246 68.038C63.1699 68.6445 62.8363 69.3602 63.7582 69.7636C63.9402 69.8424 63.9948 70.1912 64.1343 70.4004C64.4921 70.9281 64.8076 71.4618 65.4111 71.8136C67.0274 72.7567 68.5953 72.778 70.1874 71.7984C71.5248 70.9766 72.4072 69.8849 72.3344 68.217Z" fill="#D0D3D3"/>
<path d="M80.1907 114.706C80.0634 114.615 79.8207 114.53 79.757 114.373C79.7289 114.276 79.723 114.174 79.7398 114.075C79.7566 113.976 79.7957 113.882 79.8541 113.8C80.0462 113.586 80.2806 113.415 80.5425 113.296C82.8109 112.217 85.058 111.089 87.3658 110.1C91.1201 108.487 94.9048 106.943 98.6955 105.418C100.054 104.872 101.47 104.462 102.853 103.974C102.986 103.918 103.132 103.906 103.272 103.939C103.412 103.971 103.538 104.047 103.633 104.156C103.881 104.399 103.936 104.659 103.633 104.89C103.377 105.084 103.105 105.257 102.82 105.405C99.9814 106.97 96.9336 108.056 93.9465 109.272C90.6915 110.594 87.4335 111.908 84.1725 113.214C83.0747 113.654 81.9678 114.076 80.8639 114.497C80.679 114.57 80.4697 114.615 80.1907 114.706Z" fill="#D0D3D3"/>
<path d="M76.0108 62.6674C75.8472 62.6544 75.6849 62.628 75.5256 62.5885C75.4449 62.5718 75.3711 62.5311 75.3139 62.4718C75.2567 62.4124 75.2187 62.3372 75.205 62.256C75.1912 62.1747 75.2023 62.0912 75.2367 62.0163C75.2712 61.9415 75.3275 61.8788 75.3982 61.8364C75.6722 61.6089 75.9789 61.4238 76.308 61.2875C77.521 60.7781 78.7522 60.2473 80.0047 59.8167C83.0898 58.7573 86.1851 57.7303 89.2905 56.7356C90.549 56.3353 91.7985 55.8592 93.151 55.8622C93.3562 55.8479 93.5622 55.8737 93.7575 55.938C94.2427 56.1594 94.2882 56.6719 93.8242 56.9418C93.2409 57.299 92.6232 57.5967 91.9804 57.8304C89.9394 58.5036 87.8833 59.1283 85.8272 59.753C82.7765 60.681 79.7237 61.6009 76.6688 62.5127C76.4475 62.5824 76.1988 62.6249 76.0108 62.6674Z" fill="#D0D3D3"/>
<path d="M72.4512 99.3707C72.0357 99.3707 71.8447 99.3707 71.6748 99.3707C71.5317 99.3731 71.3922 99.3249 71.2812 99.2344C71.1702 99.1439 71.0948 99.0171 71.0683 98.8764C71.0284 98.736 71.0446 98.5857 71.1137 98.4571C71.1828 98.3286 71.2992 98.2321 71.4383 98.188C71.7297 98.0489 72.0283 97.9254 72.3329 97.818C74.5891 97.1266 76.8484 96.4412 79.1108 95.7619C80.7598 95.2931 82.446 94.9664 84.1509 94.7854C84.3268 94.7642 84.527 94.6823 84.6725 94.7399C84.8879 94.8309 85.1759 94.9886 85.2244 95.1736C85.2729 95.3586 85.0395 95.589 84.8878 95.7801C84.7732 95.864 84.6401 95.9191 84.4997 95.9408C80.7544 97.1538 77.0304 98.4184 73.182 99.2767C72.8575 99.3312 72.5361 99.3585 72.4512 99.3707Z" fill="#D0D3D3"/>
<path d="M78.3889 66.9762C77.843 66.9398 77.3548 67.0794 77.1425 66.5456C77.0091 66.209 77.279 65.8754 77.9401 65.5449C78.23 65.4041 78.5289 65.2826 78.8347 65.181C81.1092 64.4107 83.3836 63.6131 85.6641 62.8944C86.5626 62.6598 87.4739 62.4775 88.3935 62.3485C88.5282 62.3096 88.6711 62.3096 88.8059 62.3485C89.0273 62.4443 89.2145 62.605 89.3426 62.8095C89.4003 62.9459 89.2608 63.2401 89.1182 63.3705C88.9013 63.5569 88.6514 63.7009 88.3813 63.7951C85.37 64.9505 82.3162 65.9816 79.2138 66.864C78.9421 66.9225 78.6663 66.96 78.3889 66.9762Z" fill="#D0D3D3"/>
<path d="M138.065 41.8957C137.357 41.8232 136.641 41.9213 135.979 42.1818C135.316 42.4422 134.726 42.8574 134.258 43.3925C134.154 43.5011 134.035 43.5943 133.905 43.6695C133.39 43.9813 132.95 43.9963 132.655 43.7243C132.297 43.395 132.112 42.714 132.437 42.2949C132.98 41.5963 133.555 40.8679 134.27 40.3689C135.711 39.371 137.402 38.9694 139.148 39.0018C141.097 39.0342 142.878 39.7178 144.496 40.7706C145.655 41.5316 146.583 42.5945 147.18 43.8441C148.047 45.5944 148.235 47.6022 147.708 49.4822C146.912 52.6131 144.841 54.4442 141.845 55.3348C140.061 55.8662 138.238 56.2604 136.449 56.7768C134.751 57.2705 133.262 58.3053 132.209 59.7231C131.931 60.0748 131.622 60.4013 131.286 60.6985C130.926 61.0253 130.128 61.1001 129.828 60.8257C129.635 60.6746 129.492 60.4695 129.416 60.2367C129.34 60.0039 129.336 59.7539 129.403 59.5185C129.68 58.5071 130.266 57.6067 131.079 56.9414C133.065 55.2874 135.464 54.5939 137.9 54.0126C139.518 53.6259 141.062 53.107 142.34 52.0168C144.141 50.4651 145.214 48.5417 144.814 46.1268C144.589 44.7721 143.683 43.7019 142.475 42.9859C141.127 42.1676 139.941 41.9007 138.065 41.8957Z" fill="#D0D3D3"/>
<path d="M129.374 66.8979C129.374 68.0031 128.729 68.7864 127.798 68.8064C126.705 68.8313 125.872 68.1079 125.852 67.1125C125.825 65.9125 126.52 65.184 127.681 65.1865C128.841 65.189 129.377 65.7354 129.374 66.8979Z" fill="#D0D3D3"/>
<path d="M3.75468 86.6744C2.96851 84.9218 3.41259 83.0062 3.91125 81.1302C4.5453 78.743 5.71457 76.6442 7.68812 75.0563C9.5142 73.5852 11.5771 72.8461 13.9267 73.1331C15.4608 73.3115 16.8853 74.0131 17.9596 75.1191C19.2034 76.3009 20.1496 77.7593 20.7214 79.3757C21.3925 81.3758 22.1969 83.3326 22.982 85.2946C23.5666 86.8365 24.5982 88.1692 25.9454 89.123C26.4004 89.3911 26.732 89.8261 26.8696 90.3352C27.053 91.1486 26.4791 91.7821 25.6776 91.5725C25.2441 91.4683 24.842 91.2623 24.5048 90.9715C22.9005 89.5096 21.4043 87.9388 20.5899 85.8865C20.1931 84.8847 19.979 83.8109 19.6908 82.7698C19.0017 80.317 17.5913 78.1275 15.6417 76.4839C14.4343 75.4325 12.9569 75.2226 11.433 75.4589C10.9826 75.5274 10.5558 75.8582 10.1582 76.1244C7.21227 78.1139 5.71453 80.8736 5.75286 84.4318C5.75996 85.0986 5.70926 85.7912 5.86813 86.4253C6.06383 87.2071 6.46496 87.9341 6.73445 88.7013C6.86512 89.0777 6.95995 89.4657 7.01775 89.8599C7.05809 90.0643 7.02211 90.2764 6.91656 90.4563C6.81101 90.6362 6.6432 90.7714 6.44476 90.8365C6.2126 90.9084 5.96304 90.9001 5.7364 90.813C5.50975 90.7259 5.31923 90.5651 5.19564 90.3565C4.81544 89.6784 4.47562 88.9785 4.17797 88.2604C4.00411 87.741 3.86274 87.2113 3.75468 86.6744Z" fill="#D0D3D3"/>
<path d="M30.7779 95.4657C30.7146 95.2428 30.6965 95.0096 30.7245 94.7795C30.7525 94.5495 30.826 94.3272 30.9409 94.1257C31.0558 93.9242 31.2097 93.7474 31.3936 93.6057C31.5776 93.4641 31.7878 93.3603 32.0123 93.3004C32.4362 93.2233 32.8735 93.3048 33.2406 93.5293C33.6077 93.7539 33.8787 94.1057 34.0018 94.5175C34.2513 95.4527 33.6504 96.5865 32.7743 96.8152C31.9526 97.0345 31.0135 96.3969 30.7779 95.4657Z" fill="#D0D3D3"/>
<path d="M68.801 19.5581C68.7535 17.1681 69.7515 15.2372 71.3499 13.5482C72.1178 12.7375 72.8908 11.9242 73.6012 11.0535C74.3516 10.123 74.5792 8.95295 74.6592 7.81036C74.6679 7.10224 74.5085 6.40212 74.194 5.76717C73.6405 4.4895 72.6782 3.43066 71.4575 2.75603C70.8485 2.42561 70.1735 2.2345 69.4812 2.19653C68.789 2.15856 68.097 2.27469 67.4553 2.53651C66.714 2.79668 66.024 3.18421 65.4167 3.68158C64.8897 4.15053 64.4854 4.74052 64.2385 5.40046C63.9787 6.21014 63.815 7.04744 63.7508 7.89519C63.6607 8.64361 63.3856 9.14255 62.9228 9.15752C62.3625 9.15752 61.9723 8.67105 61.8923 7.91015C61.6597 5.615 62.4351 3.6317 63.9309 1.96023C64.6081 1.20815 65.4889 0.667499 66.4672 0.403503C68.1976 -0.0801269 70.021 -0.129821 71.7752 0.25882C73.9814 0.742797 75.4347 2.18475 76.2777 4.25039C77.0832 6.15331 77.2396 8.26744 76.7229 10.2677C76.3181 11.993 75.3063 13.5164 73.8713 14.5611C72.4449 15.5497 71.4446 17.0382 71.0698 18.7298C70.9823 19.1265 70.9997 19.5456 70.9047 19.9373C70.7918 20.5166 70.6139 21.0815 70.3744 21.6212C70.2798 21.748 70.1568 21.851 70.0153 21.922C69.8737 21.993 69.7174 22.0301 69.559 22.0303C69.3514 22.0303 69.0337 21.6811 68.9861 21.4441C68.8877 20.8195 68.8259 20.1898 68.801 19.5581Z" fill="#D0D3D3"/>
<path d="M69.0781 25.114C69.0781 23.9914 69.4933 23.5697 70.4514 23.5049C71.2643 23.45 72.0547 24.5626 72.0322 25.2163C72.0326 25.4114 71.9938 25.6047 71.9181 25.7847C71.8424 25.9647 71.7313 26.1277 71.5915 26.2642C71.4516 26.4006 71.2858 26.5078 71.1037 26.5794C70.9216 26.6509 70.727 26.6853 70.5314 26.6807C69.6284 26.6757 69.0806 26.0894 69.0781 25.114Z" fill="#D0D3D3"/>
</svg>
