<svg width="146" height="175" viewBox="0 0 146 175" fill="none" xmlns="http://www.w3.org/2000/svg">
<path d="M84.9117 174.986C67.5255 174.986 50.1369 174.986 32.7457 174.986C31.8248 174.978 30.9055 174.908 29.9942 174.776C29.3564 174.686 29.0637 174.307 29.0912 173.831C29.1187 173.354 29.5289 172.97 30.1943 172.96C31.7676 172.94 33.341 172.985 34.9144 172.945C44.6547 172.695 54.3951 172.758 64.1379 172.75C65.1159 172.75 65.1384 172.75 65.2835 171.822C65.5987 169.884 65.8939 167.941 66.1915 166C66.5067 163.944 66.7318 161.883 66.8994 159.808C67.042 158.034 67.1896 156.255 67.3596 154.484C67.5272 152.768 67.4622 151.061 67.5422 149.35C67.5848 148.462 67.7323 147.574 67.7248 146.685C67.7073 145.273 67.6048 143.864 67.5272 142.444C67.5272 142.355 67.4447 142.27 67.3996 142.195C67.3103 142.255 67.2266 142.322 67.1495 142.397C65.3335 144.572 63.5 146.733 61.1137 148.334C60.4042 148.824 59.5862 149.135 58.7299 149.24C57.3317 149.402 56.2686 148.741 55.298 147.89C52.6166 145.513 50.598 142.609 48.747 139.575C48.3793 138.972 47.9965 138.378 47.6438 137.764C47.4812 137.48 47.3086 137.452 47.016 137.545C46.6725 137.684 46.3035 137.749 45.9329 137.737C45.6432 137.704 45.3641 137.608 45.115 137.457C44.8659 137.305 44.6527 137.102 44.49 136.861C44.3273 136.619 44.2191 136.345 44.1729 136.058C44.1266 135.771 44.1433 135.477 44.222 135.197C44.3821 134.556 44.6872 133.95 44.8698 133.314C44.9631 133.007 44.97 132.681 44.8898 132.371C44.5871 131.453 44.2095 130.559 43.8743 129.651C43.8283 129.472 43.7225 129.314 43.5742 129.203C43.426 129.092 43.2442 129.034 43.0589 129.04C40.575 128.915 38.2212 128.229 35.9249 127.314C33.8262 126.502 31.9235 125.256 30.3419 123.659C29.4953 122.809 28.9133 121.733 28.666 120.561C28.4483 119.523 28.9936 118.171 29.8991 117.629C30.7856 117.065 31.8012 116.734 32.8507 116.669C33.5161 116.639 34.194 116.419 34.8518 116.484C36.4027 116.649 37.941 116.926 39.4819 117.178C40.0822 117.278 40.0547 117.31 39.9021 116.679C39.7644 116.178 39.6806 115.665 39.652 115.147C39.6219 114.149 40.0947 113.623 41.0852 113.53C41.9404 113.424 42.8083 113.563 43.5866 113.932C45.704 114.992 47.4658 116.644 48.6569 118.687C49.5541 120.149 50.196 121.751 50.5555 123.427C50.708 124.163 51.3484 124.365 51.7761 124.797C51.8228 124.817 51.8739 124.826 51.9249 124.823C51.9759 124.819 52.0253 124.803 52.0688 124.777C52.2105 124.655 52.3458 124.526 52.474 124.39C53.0118 123.911 53.6221 123.627 54.3125 124.001C55.0029 124.375 55.188 124.999 55.158 125.707C55.1518 126.118 55.0669 126.523 54.9078 126.902C54.6577 127.429 54.9078 127.718 55.233 128.065C56.2661 129.14 57.2716 130.245 58.2947 131.333C58.6324 131.692 58.7149 131.682 58.9501 131.273C59.5829 130.175 60.1782 129.055 60.8436 127.977C62.3444 125.54 63.8327 123.075 65.6912 120.88C67.7099 118.495 70.2612 117.11 73.423 116.863C74.6279 116.808 75.7867 116.385 76.7423 115.651C77.4865 115.062 77.966 114.202 78.0755 113.261C78.2341 111.701 78.0171 110.125 77.4427 108.666C76.5433 106.334 75.4514 104.081 74.1784 101.93C73.8732 101.394 73.8057 101.384 73.4855 101.93C72.1198 104.295 68.7454 105.121 66.5342 103.716C65.7838 103.242 65.186 102.544 64.5556 101.912C64.0203 101.381 64.0303 101.334 63.3349 101.648C61.9332 102.263 60.4317 102.622 58.9025 102.706C57.0665 102.838 55.248 101.458 54.7152 99.51C54.6177 99.1583 54.5851 98.7092 54.3475 98.4972C54.1774 98.345 53.7222 98.5171 53.392 98.5296C52.1192 98.609 50.8451 98.3965 49.6675 97.9084C47.3712 96.9105 46.2731 94.9946 45.7153 92.6695C45.3678 91.4058 45.3895 90.0694 45.7778 88.8176C45.9629 88.2688 45.6928 88.1291 45.3176 88.0268C44.229 87.7424 43.2033 87.2576 42.2934 86.5973C41.1353 85.7316 40.1672 84.7063 39.9521 83.187C39.8772 82.8989 39.8585 82.599 39.8971 82.3039C40.0998 81.4749 40.3657 80.6626 40.6925 79.874C41.1453 78.8761 41.1803 78.9011 40.3848 78.0603C39.8721 77.5215 39.3843 76.9527 38.9266 76.3714C37.4533 74.5153 37.3207 72.4173 37.896 70.2269C38.1749 69.1365 38.7405 68.1401 39.5344 67.3405C40.1297 66.7417 40.1147 66.7318 39.717 65.9285C39.275 65.0692 38.9294 64.164 38.6865 63.2292C38.4163 62.1115 38.6014 61.0837 38.834 60.0384C39.2442 58.2023 40.3198 56.8102 41.8807 55.7974C42.4735 55.4082 43.0813 55.0489 43.6992 54.6972C44.0068 54.5275 44.0994 54.3853 43.9919 54.0037C43.2715 51.4291 44.1494 49.1888 45.7853 47.3003C47.0185 45.8783 48.747 45.0675 50.633 44.7158C51.2187 44.6078 51.8099 44.532 52.4039 44.4887C52.8042 44.4588 52.9042 44.2542 52.9042 43.9075C53.0243 41.3753 54.2074 39.4469 56.3011 38.0598C58.4398 36.6428 60.6835 36.533 62.9898 37.6232C64.1929 38.192 64.2254 38.2195 64.8183 37.1019C65.9939 34.8815 67.8599 33.5668 70.2362 32.9431C72.2373 32.4167 74.1509 32.5989 75.8743 33.8362C76.3021 34.1431 76.5847 34.0583 76.9174 33.6791C77.6912 32.8161 78.6202 32.1054 79.6564 31.5835C81.9876 30.3611 84.1939 30.6879 86.3326 32.0151C87.053 32.4641 87.4231 33.23 87.7883 33.966C88.2386 34.8716 88.2236 34.8666 89.1065 34.5223C90.4197 33.9821 91.8284 33.7107 93.2488 33.724C95.2374 33.7764 96.8183 34.5822 97.6563 36.4333C97.9664 37.1193 98.0064 37.9301 98.114 38.706C98.169 39.1026 98.1815 39.2523 98.7018 39.1874C99.722 39.0438 100.761 39.1186 101.75 39.4068C102.739 39.695 103.655 40.19 104.437 40.8589C105.818 42.014 106.584 44.5736 105.581 46.0255C105.238 46.5244 105.303 46.5968 105.871 46.7739C106.788 47.0507 107.627 47.5418 108.316 48.2066C109.005 48.8713 109.525 49.6904 109.833 50.5958C110.398 52.1076 110.583 53.6245 109.495 55.0514C109.032 55.6627 109.105 55.6876 109.685 56.1965C110.673 57.0597 111.159 58.2397 111.609 59.4247C111.734 59.8135 111.813 60.2153 111.847 60.6222C112.057 62.2412 111.484 63.5585 110.231 64.5688C109.833 64.8906 109.69 65.1152 109.958 65.6316C111.869 69.3363 108.77 73.7469 105.058 73.8792C104.227 73.9091 104.2 74.0139 104.415 74.8347C105.01 77.0974 105.618 79.3576 106.166 81.6353C106.333 82.5114 106.435 83.3986 106.471 84.2897C106.602 85.4718 106.667 86.6603 106.666 87.8497C106.584 90.2271 106.321 92.6146 105.446 94.8349C104.715 96.6749 103.721 98.3993 102.494 99.9541C100.903 101.98 98.9019 103.417 96.6357 104.522C95.5326 105.061 94.3569 105.457 93.2038 105.884C91.6177 106.462 90.1866 107.397 89.0215 108.616C87.8809 109.806 87.6908 111.15 88.4637 112.607C89.3742 114.334 90.4798 114.603 92.1832 114.339C93.8867 114.074 95.5951 113.827 97.306 114.002C99.0275 114.18 100.674 114.798 102.086 115.796C104.087 117.205 106.088 118.657 108.032 120.159C110.096 121.756 112.094 123.432 114.118 125.074C114.568 125.438 114.591 125.46 114.938 124.911C115.891 123.4 116.812 121.865 117.757 120.349C118.258 119.56 118.758 118.772 119.278 118.008C119.578 117.582 119.808 117.203 119.318 116.761C119.238 116.691 119.218 116.562 119.158 116.467C118.177 114.92 119.453 113.812 120.851 113.747C121 113.72 121.153 113.734 121.294 113.787C121.962 114.194 122.242 113.708 122.522 113.266C123.922 111.118 125.557 109.131 127.395 107.341C128.298 106.445 129.365 105.73 130.537 105.233C130.775 105.126 131.028 105.055 131.287 105.023C132.896 104.854 133.601 105.739 133.093 107.269C133.048 107.411 132.936 107.538 132.926 107.678C132.926 107.748 133.078 107.895 133.158 107.892C133.306 107.87 133.447 107.817 133.573 107.738C135.3 106.931 137.123 106.351 138.999 106.011C139.909 105.842 140.855 105.5 141.858 105.894C143.359 106.48 144.327 107.97 143.947 109.526C143.748 110.358 143.429 111.157 142.999 111.896C142.233 113.222 141.278 114.429 140.165 115.481C138.935 116.658 137.463 117.555 135.852 118.11C134.241 118.664 132.528 118.864 130.832 118.695C130.582 118.677 130.249 118.298 130.097 118.799C129.956 119.258 130.144 119.525 130.539 119.797C131.08 120.182 131.593 120.606 132.073 121.065C132.24 121.264 132.346 121.507 132.378 121.766C132.55 122.691 132.103 123.292 131.175 123.41C130.988 123.427 130.8 123.432 130.612 123.427C129.471 123.442 129.456 123.439 129.196 124.59C128.627 127.171 127.848 129.701 126.867 132.156C125.787 134.818 124.556 137.417 122.865 139.763C122.389 140.457 121.753 141.027 121.011 141.426C120.268 141.825 119.441 142.041 118.598 142.055C116.747 142.137 115.028 141.676 113.38 140.965C111.669 140.217 110.028 139.328 108.355 138.498C108.223 138.427 108.088 138.363 107.949 138.306C107.699 138.211 107.597 138.358 107.609 138.575C107.638 138.721 107.68 138.863 107.734 139.002C108.497 142.494 109.303 145.952 110 149.445C110.413 151.515 110.641 153.623 110.969 155.711C111.159 156.919 111.401 158.119 111.586 159.326C111.704 160.097 111.771 160.875 111.837 161.651C111.929 162.687 111.987 163.727 112.087 164.76C112.207 165.977 112.364 167.192 112.499 168.407C112.516 168.631 112.521 168.856 112.514 169.081C112.514 169.939 112.529 170.797 112.529 171.658C112.529 172.758 112.464 172.738 113.658 172.73C114.033 172.73 114.408 172.73 114.783 172.73C121.537 172.73 128.276 172.713 135.019 172.745C137.861 172.758 140.7 172.873 143.539 172.967C144.169 172.987 144.79 173.107 145.422 173.189C145.758 173.232 146.013 173.409 145.995 173.761C145.978 174.112 145.848 174.447 145.452 174.509C144.869 174.631 144.277 174.709 143.681 174.741C140.207 174.838 136.73 174.968 133.253 174.973C117.138 174.996 101.022 174.996 84.9067 174.973L84.9117 174.986ZM97.4461 115.793C97.4393 115.765 97.4266 115.739 97.4086 115.716C97.4086 115.701 97.3686 115.703 97.3461 115.696L97.4486 115.791C97.7588 116.255 98.0665 116.719 98.3791 117.18C100.098 119.715 101.678 122.329 102.842 125.163C103.745 127.369 104.663 129.569 105.531 131.787C105.953 132.86 106.281 133.97 106.636 135.07C106.668 135.212 106.732 135.345 106.824 135.459C106.915 135.573 107.032 135.664 107.164 135.726C108.857 136.519 110.523 137.375 112.222 138.156C113.337 138.67 114.493 139.101 115.636 139.56C116.656 139.936 117.747 140.083 118.83 139.992C119.507 139.971 120.15 139.692 120.626 139.211C121.769 138.096 122.512 136.716 123.263 135.347C125.124 131.964 126.304 128.304 127.493 124.654C127.608 124.3 127.685 123.936 127.765 123.574C127.87 123.115 127.743 122.861 127.247 122.651C125.624 121.975 124.088 121.108 122.672 120.067C122.255 119.755 121.824 119.455 121.439 119.109C121.054 118.762 120.861 118.897 120.611 119.261C119.075 121.506 117.526 123.741 115.964 125.967C115.493 126.635 114.981 127.274 114.43 127.88C114.26 128.067 113.863 128.239 113.663 128.165C113.262 128.017 113.56 127.666 113.612 127.394C113.63 127.283 113.664 127.175 113.713 127.074C113.963 126.61 113.8 126.326 113.365 126.076C112.619 125.651 111.896 125.188 111.199 124.689C109.153 123.193 107.129 121.673 105.093 120.169C103.387 118.909 101.796 117.485 99.8825 116.519C99.112 116.15 98.3316 115.796 97.4461 115.793ZM67.0895 92.4699L66.992 92.3701L67.0845 92.4774C67.197 93.5102 67.3346 94.5405 67.4097 95.5758C67.4317 95.9361 67.3997 96.2977 67.3146 96.6486C67.2321 97.0303 66.992 97.397 66.5642 97.3122C66.3866 97.2747 66.234 96.8706 66.1615 96.6087C65.6112 94.6428 65.296 92.6171 64.328 90.771C64.0779 90.272 64.3455 89.8405 64.6481 89.4513C64.8282 89.2218 65.1059 89.0421 65.2134 88.7852C65.8313 87.3258 66.214 85.8239 65.7687 84.2323C65.6212 83.6984 65.4286 83.1745 65.2885 82.6382C65.0084 81.5604 65.211 81.2137 66.244 80.7621C66.9945 80.4353 67.7449 80.106 68.2451 79.395C68.727 78.7558 69.0426 78.0075 69.1639 77.217C69.2853 76.4265 69.2085 75.6183 68.9405 74.8646C68.7879 74.4056 68.6078 73.954 68.4903 73.485C68.2726 72.6193 68.6604 72.1129 69.5508 72.0655C69.9235 72.0455 70.3013 72.0655 70.674 72.0655C71.742 72.0156 73.2328 70.7433 73.3429 69.688C73.4405 68.7675 73.5256 67.817 72.9552 66.9762C72.8637 66.8168 72.7858 66.6499 72.7226 66.4773C72.5984 66.2474 72.5506 65.9842 72.5861 65.7254C72.6216 65.4667 72.7386 65.2259 72.9202 65.0378C73.3204 64.5863 73.7607 64.6711 74.2459 64.8657C74.9321 65.1526 75.6541 65.3456 76.3921 65.4395C77.2402 65.5638 78.1051 65.3872 78.836 64.9405C80.3793 63.9776 81.1872 62.4832 81.6625 60.7968C81.8851 60.0135 81.9902 59.1977 82.1453 58.3969C82.1763 58.1348 82.2898 57.8892 82.4696 57.6956C82.6494 57.5019 82.8862 57.3701 83.1458 57.3191C83.6461 57.2194 84.0638 57.4938 84.3965 57.9079C84.7592 58.3804 85.1598 58.8226 85.5946 59.2301C86.385 59.9386 87.9209 60.006 88.7188 59.3324C89.2949 58.858 89.8063 58.3103 90.2397 57.7033C90.6503 57.0407 91.0058 56.3457 91.3028 55.6252C91.4954 55.2161 91.7855 54.9217 92.2333 54.9492C92.4783 54.9424 92.7195 55.0105 92.9247 55.1442C93.1299 55.278 93.2893 55.471 93.3814 55.6976C93.4527 55.9101 93.5363 56.1183 93.6315 56.3213C93.8699 56.788 94.2792 57.1454 94.7747 57.3191C95.7752 57.7233 96.5256 57.2767 97.2335 56.7005C97.6387 56.3736 97.9664 55.952 98.3541 55.6003C98.4722 55.5009 98.6117 55.4302 98.7618 55.3936C98.9118 55.357 99.0683 55.3556 99.219 55.3894C99.3697 55.4233 99.5106 55.4914 99.6304 55.5886C99.7503 55.6858 99.846 55.8093 99.91 55.9495C100.045 56.2926 100.119 56.6564 100.13 57.0248C100.158 58.3644 100.913 59.2351 101.961 59.9087C102.194 60.0584 102.461 60.1232 102.366 60.455C102.271 60.7868 101.926 60.9116 101.541 60.7744C100.835 60.5111 100.221 60.0481 99.7749 59.4422C99.5358 59.1565 99.312 58.8584 99.1045 58.549C98.9044 58.2172 98.7219 58.1399 98.4092 58.4218C98.1415 58.6713 97.7263 58.7985 98.0464 59.295C98.3359 59.7272 98.587 60.1838 98.7968 60.6596C100.243 64.1722 101.666 67.6922 103.099 71.2098C103.254 71.5915 103.302 71.8784 103.947 71.9233C105.948 72.0655 107.739 71.115 108.352 69.2664C108.532 68.7276 108.687 68.1762 108.51 67.5201C108.383 66.9072 108.123 66.3297 107.747 65.8287C107.041 64.963 107.171 64.3643 108.089 63.7007C108.43 63.4742 108.759 63.2302 109.075 62.9697C109.715 62.3909 110.186 61.6475 109.971 60.7943C109.608 59.3499 109.163 57.9329 107.504 57.3266C106.419 56.93 106.253 56.0319 106.911 55.0814C107.274 54.565 107.624 54.0386 107.964 53.5072C108.118 53.269 108.216 52.9988 108.249 52.7172C108.282 52.4356 108.249 52.1503 108.155 51.8831C107.919 51.2197 107.582 50.5969 107.154 50.037C106.361 49.0142 105.18 48.61 103.97 48.2907C102.932 48.0188 102.526 47.2379 102.969 46.26C103.171 45.8613 103.404 45.4792 103.667 45.1174C103.896 44.7946 104.012 44.4063 103.999 44.0113C103.986 43.6164 103.844 43.2366 103.595 42.9295C103.298 42.5459 102.933 42.221 102.516 41.9716C101.121 41.0909 99.5723 40.9512 97.9814 41.1982C96.7582 41.3878 96.1329 40.9213 96.0879 39.6864C96.0679 39.165 96.1054 38.6411 96.0879 38.1197C96.0329 37.0594 95.3374 36.3884 94.4795 36.0117C93.6215 35.635 92.5935 35.6474 91.6129 35.837C90.4948 36.0541 89.5043 36.563 88.4962 37.0545C87.4882 37.5459 86.8178 37.279 86.4051 36.1813C86.2875 35.867 86.1875 35.5476 86.0774 35.2308C85.4871 33.5593 83.3259 32.4866 81.6124 32.9855C80.2667 33.3747 79.2287 34.2055 78.3106 35.2083C76.9949 36.6503 76.6322 36.9347 74.7337 35.59C74.1667 35.1641 73.5068 34.8779 72.8078 34.7547C72.1087 34.6316 71.3904 34.6751 70.7115 34.8815C69.1981 35.3156 67.8924 36.0665 67.057 37.4661C66.7054 37.9935 66.3846 38.5407 66.0964 39.1051C65.5737 40.2776 64.383 40.602 63.3024 40.0182C62.8872 39.7652 62.4493 39.5513 61.9942 39.3795C61.371 39.1401 60.7194 38.9816 60.0557 38.908C57.6969 38.7559 55.1179 41.1533 54.9653 43.6331C54.9353 44.117 54.9653 44.6035 54.9653 45.09C54.9378 45.9931 54.4851 46.4646 53.5971 46.5045C53.1869 46.5244 52.7742 46.5045 52.3614 46.5045C49.8951 46.4845 47.1261 47.9315 46.153 50.6383C45.7603 51.7285 45.3876 52.8536 46.2881 53.9138C46.3645 54.0414 46.417 54.1817 46.4432 54.328C46.6934 55.0764 46.4882 55.6252 45.7953 55.9944C45.235 56.2963 44.6647 56.5807 44.0844 56.8427C43.3672 57.1652 42.7231 57.6294 42.1909 58.2073C40.2248 60.3178 40.0997 62.9872 41.7281 65.2399C41.9096 65.4723 42.0767 65.7156 42.2284 65.9684C42.7086 66.839 42.6686 67.1085 41.9782 67.8494C41.6956 68.1488 41.4054 68.4431 41.0978 68.7126C39.8471 69.8152 39.0717 72.7715 40.1873 74.4929C40.5417 75.1031 40.961 75.6736 41.438 76.1943C41.9095 76.6707 42.3521 77.1747 42.7636 77.7036C43.454 78.5817 43.454 79.2004 42.8987 80.1434C42.5887 80.6925 42.3106 81.2589 42.0658 81.8399C41.7907 82.4635 41.9182 83.0598 42.2109 83.666C42.6161 84.4967 43.3365 84.9608 44.1019 85.3425C44.9324 85.7591 45.8129 86.0909 46.6783 86.4302C47.7064 86.8443 48.0591 87.4281 47.7689 88.5232C47.5411 89.4666 47.4652 90.44 47.5438 91.4071C47.7264 94.6204 50.2953 97.18 53.9523 96.5438C55.353 96.2943 55.9534 96.671 56.3211 98.0406C56.4985 98.6462 56.7175 99.2388 56.9765 99.8144C57.0757 100.061 57.2428 100.274 57.4583 100.43C57.6738 100.586 57.9291 100.678 58.1947 100.695C58.9747 100.773 59.7617 100.743 60.5334 100.605C61.5053 100.35 62.4549 100.016 63.3725 99.6073C63.7098 99.4404 64.0939 99.3921 64.4622 99.4705C64.8305 99.5489 65.1614 99.7492 65.4011 100.039C65.9714 100.633 66.5617 101.206 67.1345 101.798C67.4959 102.177 67.9643 102.438 68.4777 102.546C69.871 102.853 71.657 102.167 72.3499 100.935C72.7001 100.313 72.8652 99.6872 72.2948 98.9811C71.2618 97.7138 70.3588 96.3417 69.3507 95.0544C68.6353 94.1738 67.8449 93.3381 67.0895 92.4699ZM88.8064 172.743H109.385C110.803 172.743 110.843 172.673 110.693 171.303C110.528 169.792 110.406 168.275 110.271 166.76C110.181 165.725 110.108 164.687 110.021 163.652C109.955 162.949 109.885 162.248 109.77 161.551C109.5 159.755 109.21 157.964 108.927 156.17C108.532 153.676 108.21 151.181 107.722 148.706C107.161 145.867 106.421 143.068 105.816 140.239C105.232 137.549 104.481 134.899 103.564 132.303C102.689 129.809 101.671 127.369 100.67 124.921C99.4197 121.84 97.7763 118.951 96.0028 116.14C95.8131 115.873 95.5334 115.684 95.2149 115.606C94.8062 115.556 94.3929 115.556 93.9842 115.606C93.7866 115.606 93.7116 115.706 93.8566 115.883C94.1941 116.229 94.5005 116.604 94.7722 117.003C95.5026 118.298 96.273 119.58 96.8583 120.945C98.084 123.846 98.9369 126.825 98.3766 130.048C98.1265 131.505 97.6988 132.86 96.8433 134.075C95.5126 135.963 93.569 136.664 91.4028 136.612C89.6694 136.567 88.0885 135.828 86.6727 134.786C84.5841 133.244 83.0633 131.253 81.8901 128.965C81.2098 127.643 80.5127 126.328 79.799 125.021C78.8434 123.275 77.7503 121.643 76.237 120.316C75.8357 119.981 75.4823 119.592 75.1864 119.161C74.7412 118.472 74.2134 118.235 73.418 118.505C72.9427 118.665 72.8502 118.754 73.0803 119.191C73.3505 119.72 73.7281 120.206 73.9383 120.755C74.5086 122.252 75.0713 123.749 75.5291 125.281C76.0683 127.02 76.3967 128.817 76.5072 130.634C76.5972 132.453 76.6748 134.287 76.3121 136.098C75.9694 137.819 75.5466 139.506 74.4961 140.972C73.2829 142.671 71.4594 143.198 69.7109 142.29C69.3607 142.108 69.3282 142.262 69.3432 142.527C69.4108 143.525 69.5583 144.522 69.5483 145.52C69.5183 148.651 69.736 151.782 69.3733 154.911C69.1932 156.46 69.1931 158.029 69.1106 159.588C69.1106 159.738 69.0806 159.885 69.0606 160.032C68.933 161.03 68.7904 162.028 68.6779 163.008C68.5703 163.931 68.5453 164.864 68.3952 165.778C68.0725 167.716 67.6873 169.644 67.3346 171.575C67.122 172.743 67.127 172.745 68.3352 172.745L88.8064 172.743ZM104.848 86.9615C104.955 85.2195 104.811 83.4712 104.42 81.77C103.802 79.2478 103.322 76.6758 102.509 74.216C101.241 70.3641 99.7574 66.5821 98.3316 62.7826C97.9389 61.7398 97.4286 60.7394 96.9709 59.7191C96.9491 59.6466 96.9128 59.5793 96.8642 59.5213C96.8156 59.4632 96.7557 59.4156 96.6881 59.3813C96.6206 59.3471 96.5467 59.3268 96.471 59.3218C96.3954 59.3168 96.3195 59.3272 96.248 59.3524C94.8997 59.739 93.7616 59.275 92.7085 58.4817C92.5059 58.3295 92.4209 58.2322 92.2083 58.5141C91.6821 59.2329 91.0964 59.9063 90.4573 60.5274C88.9565 61.8945 86.25 62.3186 84.5691 60.9515C84.4265 60.8342 84.2489 60.7594 84.0988 60.6496C83.8787 60.4875 83.8237 60.5673 83.7436 60.8018C83.4084 61.7448 83.1458 62.7352 82.673 63.6084C81.2547 66.2228 78.7084 67.8145 75.6442 67.2482C75.1715 67.1609 75.2865 67.3679 75.3365 67.6698C75.6967 69.8776 75.0638 71.6938 73.2153 73.0559C72.5875 73.5174 71.8671 73.6721 71.1542 73.8542C70.849 73.9316 70.8041 74.0214 70.8866 74.2958C70.9516 74.5078 70.9066 74.7498 70.9716 74.9594C71.722 77.4242 70.5013 80.8519 68.0225 82.0319C67.5422 82.259 67.5223 82.5683 67.6398 83.0298C67.8142 83.7869 67.9329 84.5557 67.995 85.33C68.1026 86.727 67.7448 88.0617 67.3321 89.3764C67.2622 89.5441 67.2489 89.7299 67.294 89.9058C67.3391 90.0817 67.4402 90.2382 67.5822 90.3519C68.2151 90.9756 68.948 91.477 69.4883 92.2179C70.9541 94.2312 72.6 96.1197 73.9908 98.1828C75.9288 101.017 77.5636 104.045 78.8685 107.219C79.5663 108.965 80.0016 110.769 79.914 112.655C79.829 114.458 79.1336 115.973 77.5527 116.986C77.3026 117.145 77.0525 117.302 76.8023 117.485C76.3921 117.771 76.4021 117.834 76.7698 118.178C78.2106 119.538 79.6914 120.872 80.7095 122.591C81.68 124.225 82.558 125.914 83.461 127.581C84.409 129.327 85.4045 131.026 86.9404 132.338C88.4137 133.586 89.9595 134.606 92.0607 134.429C93.8116 134.279 94.9998 133.369 95.7377 131.897C96.2767 130.746 96.5437 129.487 96.5181 128.217C96.5181 126.111 95.9503 124.106 95.3175 122.122C94.7471 120.339 93.8366 118.709 92.9236 117.083C92.1182 115.648 92.1507 115.604 90.5498 115.611C89.9472 115.628 89.3493 115.501 88.8058 115.24C88.2624 114.98 87.7892 114.594 87.4256 114.114C85.7747 111.929 85.7197 109.826 87.3531 107.628C88.4837 106.111 90.0771 105.083 91.8555 104.385C93.2063 103.848 94.6071 103.437 95.9378 102.845C98.042 101.942 99.8702 100.502 101.238 98.6693C102.569 96.8581 103.702 94.9547 104.24 92.7318C104.678 90.7959 104.988 88.86 104.848 86.9615ZM74.7537 132.326C74.6469 130.171 74.359 128.029 73.8933 125.922C73.3732 123.711 72.6713 121.546 71.7946 119.45C71.6395 119.071 71.4744 118.887 71.0442 119.091C69.931 119.63 68.848 120.186 67.9475 121.074C66.5017 122.501 65.3735 124.165 64.2104 125.814C62.8772 127.7 61.584 129.614 60.2508 131.5C59.4203 132.672 59.4103 132.648 60.4208 133.71C60.9086 134.222 61.3614 134.771 61.7991 135.327C61.8437 135.402 61.8684 135.487 61.871 135.574C61.8737 135.662 61.8541 135.748 61.8141 135.826C61.7485 135.881 61.6698 135.917 61.5857 135.933C61.5016 135.949 61.4149 135.943 61.3338 135.916C60.9501 135.688 60.5914 135.422 60.2633 135.12C58.3622 133.324 56.4787 131.51 54.5851 129.706C54.0849 129.232 54.0849 129.232 53.7397 129.863C52.9944 131.322 52.0892 132.695 51.0407 133.955C50.4529 134.628 49.8651 135.302 49.2397 135.951C49.1801 135.994 49.1298 136.049 49.0919 136.112C49.0539 136.175 49.0291 136.245 49.0188 136.318C49.0086 136.391 49.0131 136.465 49.0322 136.536C49.0512 136.607 49.0844 136.673 49.1297 136.731C49.2498 136.921 49.3297 137.133 49.4523 137.32C50.5154 138.939 51.5535 140.563 52.6616 142.162C53.3741 143.162 54.1372 144.124 54.9479 145.046C55.5982 145.818 56.3714 146.478 57.2366 147C57.907 147.391 58.5523 147.499 59.2527 147.152C59.5251 147.03 59.7848 146.883 60.0281 146.71C60.8997 146.069 61.7347 145.381 62.5295 144.647C64.1704 143.016 65.7437 141.314 67.3421 139.638C67.4947 139.478 67.6073 139.279 67.7624 139.119C68.7629 138.069 69.7768 137.022 70.804 135.978C70.9941 135.786 71.2893 135.644 71.4894 135.903C71.5575 136.004 71.6034 136.118 71.6241 136.238C71.6448 136.358 71.6398 136.481 71.6095 136.599C71.4662 136.942 71.2741 137.262 71.0392 137.55C70.5539 138.208 70.0386 138.842 69.5559 139.506C69.5077 139.575 69.4765 139.656 69.4648 139.74C69.4531 139.824 69.4611 139.909 69.4883 139.99C69.7396 140.359 70.1094 140.633 70.5372 140.765C70.9649 140.898 71.4251 140.881 71.8421 140.718C72.53 140.469 72.9327 139.97 73.2579 139.363C74.426 137.185 74.6487 134.823 74.7537 132.331V132.326ZM34.7943 118.27C33.4561 118.285 32.293 118.333 31.2449 118.879C30.472 119.281 30.2843 119.865 30.627 120.648C30.997 121.42 31.5324 122.101 32.1954 122.644C34.0989 124.365 36.3677 125.363 38.7715 126.099C40.156 126.53 41.563 126.886 42.9863 127.164C43.4468 127.238 43.8806 127.428 44.2463 127.717C44.612 128.006 44.8973 128.383 45.0749 128.813C45.8653 130.455 46.6908 132.084 47.5163 133.71C47.939 134.546 47.9715 134.556 48.6444 133.848C50.1452 132.271 51.2684 130.427 52.2589 128.504C52.5991 127.845 52.559 127.828 51.9837 127.296C51.7031 127.05 51.4367 126.787 51.1858 126.511C50.2678 125.443 49.2672 124.442 48.857 123.018C48.6201 122.272 48.304 121.554 47.914 120.875C46.9985 119.201 45.9554 117.607 44.307 116.552C43.5732 116.112 42.8082 115.726 42.0182 115.396C41.7081 115.257 41.5455 115.446 41.6606 115.786C41.8482 116.349 42.1283 116.888 42.2634 117.462C42.446 118.23 42.9613 118.642 43.5991 119.004C44.1304 119.274 44.6227 119.615 45.0625 120.017C45.485 120.485 45.8448 121.006 46.133 121.566C46.3056 121.875 46.028 122.165 45.6678 122.087C45.4912 122.04 45.3226 121.967 45.1675 121.87C44.0194 121.244 42.9038 120.558 41.7256 119.999C39.5616 118.946 37.2005 118.357 34.7943 118.27ZM132.268 116.709C134.326 116.826 136.147 116.045 137.708 114.9C139.343 113.699 140.662 112.121 141.55 110.3C141.76 109.866 141.896 109.399 141.95 108.92C142.036 108.104 141.683 107.673 140.852 107.758C139.703 107.844 138.564 108.034 137.448 108.324C134.955 108.981 132.544 109.914 130.259 111.106C130.061 111.21 129.851 111.298 129.654 111.402C129.361 111.557 129.073 111.592 128.846 111.31C128.566 110.963 128.766 110.686 129.016 110.432C129.151 110.253 129.315 110.097 129.501 109.97C130.562 109.471 130.874 108.474 131.2 107.476C131.239 107.308 131.265 107.137 131.277 106.964C131.113 106.991 130.952 107.038 130.799 107.104C128.996 108.164 127.62 109.706 126.297 111.268C125.169 112.6 124.233 114.089 123.223 115.509C122.92 115.933 122.645 116.374 122.357 116.808C122.312 116.857 122.278 116.914 122.259 116.978C122.24 117.041 122.236 117.108 122.247 117.173C122.258 117.238 122.285 117.299 122.324 117.352C122.363 117.406 122.414 117.449 122.472 117.48C123.723 118.298 124.936 119.149 126.224 119.912C126.882 120.306 127.635 120.538 128.346 120.842L128.833 118.682C128.833 118.647 128.876 118.605 128.866 118.577C128.812 118.384 128.733 118.198 128.633 118.023C128.528 117.876 128.341 117.794 128.208 117.662C127.795 117.245 127.85 116.866 128.406 116.634C128.716 116.511 129.05 116.457 129.384 116.477C130.342 116.527 131.305 116.626 132.268 116.709ZM45.9204 135.377C45.9904 135.519 46.078 135.694 46.1705 135.876C46.2381 135.808 46.3782 135.716 46.3632 135.676C46.2724 135.45 46.1697 135.228 46.0555 135.013L45.9204 135.377ZM120.864 115.419C120.804 115.446 120.721 115.456 120.696 115.501C120.671 115.546 120.719 115.616 120.734 115.676C120.795 115.655 120.85 115.621 120.896 115.576C120.919 115.536 120.876 115.464 120.864 115.401V115.419Z" fill="#717A7C"/>
<path d="M132.703 36.6467C131.995 36.5742 131.279 36.6723 130.617 36.9327C129.954 37.1932 129.364 37.6084 128.896 38.1435C128.792 38.252 128.673 38.3453 128.543 38.4204C128.028 38.7323 127.588 38.7473 127.293 38.4753C126.935 38.146 126.75 37.4649 127.075 37.0458C127.618 36.3473 128.193 35.6189 128.908 35.1199C130.349 34.122 132.04 33.7204 133.786 33.7528C135.735 33.7852 137.516 34.4688 139.134 35.5216C140.293 36.2826 141.221 37.3455 141.818 38.5951C142.684 40.3454 142.872 42.3531 142.346 44.2332C141.55 47.364 139.479 49.1952 136.483 50.0858C134.699 50.6172 132.876 51.0113 131.087 51.5277C129.389 52.0215 127.9 53.0563 126.847 54.474C126.569 54.8258 126.26 55.1523 125.924 55.4495C125.564 55.7763 124.766 55.8511 124.466 55.5767C124.273 55.4256 124.129 55.2205 124.054 54.9877C123.978 54.7549 123.973 54.5048 124.041 54.2695C124.318 53.2581 124.904 52.3577 125.717 51.6924C127.703 50.0384 130.102 49.3449 132.538 48.7636C134.156 48.3769 135.7 47.858 136.978 46.7678C138.779 45.2161 139.852 43.2927 139.452 40.8778C139.227 39.5231 138.321 38.4529 137.113 37.7369C135.765 36.9186 134.579 36.6517 132.703 36.6467Z" fill="#AA82F0"/>
<path d="M0.0602473 70.9273C-0.247421 69.0313 0.675602 67.2949 1.64113 65.611C2.8693 63.468 4.54024 61.7417 6.85651 60.7163C9.00019 59.7658 11.1838 59.5837 13.38 60.4669C14.8162 61.0349 16.0117 62.08 16.7644 63.4256C17.6614 64.8882 18.1996 66.5413 18.3353 68.2504C18.4679 70.356 18.7405 72.4541 18.9931 74.5521C19.1603 76.1926 19.8134 77.7462 20.8691 79.0152C21.2396 79.3915 21.4479 79.8974 21.4495 80.4247C21.417 81.258 20.6991 81.722 19.9787 81.3128C19.5868 81.1004 19.2514 80.7976 19.0006 80.4297C17.8275 78.6036 16.7869 76.7001 16.5293 74.5072C16.4042 73.437 16.4743 72.3443 16.4643 71.2641C16.4309 68.7165 15.6329 66.2374 14.173 64.1466C13.2775 62.8194 11.9042 62.2356 10.3709 62.071C9.91814 62.0211 9.4204 62.2306 8.96766 62.3853C5.60831 63.5479 3.44961 65.828 2.56913 69.2758C2.40404 69.9219 2.17645 70.578 2.16644 71.2316C2.15394 72.0374 2.35405 72.8432 2.41658 73.654C2.44577 74.0514 2.43737 74.4507 2.39154 74.8465C2.37783 75.0543 2.28837 75.25 2.14 75.3966C1.99163 75.5432 1.79462 75.6306 1.58611 75.6423C1.34327 75.6519 1.10428 75.5795 0.907758 75.4369C0.711232 75.2944 0.568625 75.0898 0.502995 74.8565C0.310508 74.1032 0.162666 73.3394 0.0602473 72.5688C0.0261963 72.0222 0.0261963 71.4739 0.0602473 70.9273Z" fill="#AA82F0"/>
<path d="M67.9175 20.5561C67.87 18.1661 68.868 16.2352 70.4664 14.5463C71.2343 13.7355 72.0072 12.9222 72.7176 12.0516C73.468 11.121 73.6957 9.95099 73.7757 8.80841C73.7843 8.10028 73.6249 7.40017 73.3105 6.76522C72.7569 5.48755 71.7947 4.42871 70.574 3.75408C69.965 3.42366 69.2899 3.23255 68.5977 3.19458C67.9055 3.15661 67.2134 3.27274 66.5718 3.53456C65.8305 3.79473 65.1405 4.18226 64.5331 4.67963C64.0062 5.14858 63.6018 5.73857 63.355 6.3985C63.0951 7.20819 62.9314 8.04549 62.8672 8.89323C62.7772 9.64165 62.502 10.1406 62.0393 10.1556C61.479 10.1556 61.0888 9.66909 61.0087 8.9082C60.7761 6.61305 61.5515 4.62974 63.0473 2.95827C63.7245 2.2062 64.6054 1.66555 65.5837 1.40155C67.314 0.91792 69.1374 0.868226 70.8917 1.25687C73.0979 1.74084 74.5512 3.1828 75.3941 5.24844C76.1997 7.15135 76.356 9.26549 75.8393 11.2657C75.4345 12.9911 74.4228 14.5144 72.9878 15.5591C71.5614 16.5477 70.561 18.0363 70.1863 19.7278C70.0987 20.1245 70.1162 20.5436 70.0211 20.9353C69.9082 21.5147 69.7304 22.0795 69.4909 22.6192C69.3963 22.746 69.2733 22.849 69.1317 22.9201C68.9902 22.9911 68.8339 23.0282 68.6754 23.0284C68.4678 23.0284 68.1501 22.6791 68.1026 22.4421C68.0042 21.8176 67.9424 21.1878 67.9175 20.5561Z" fill="#AA82F0"/>
<path d="M124.011 61.6489C124.011 62.7541 123.365 63.5374 122.435 63.5574C121.342 63.5823 120.509 62.8588 120.489 61.8634C120.461 60.6635 121.157 59.935 122.317 59.9375C123.478 59.94 124.013 60.4863 124.011 61.6489Z" fill="#AA82F0"/>
<path d="M23.9033 86.39C23.8996 86.1583 23.9422 85.9283 24.0286 85.7132C24.115 85.4982 24.2434 85.3024 24.4063 85.1374C24.5693 84.9723 24.7635 84.8412 24.9778 84.7517C25.192 84.6622 25.422 84.6162 25.6543 84.6162C26.0837 84.651 26.4853 84.8425 26.782 85.1542C27.0788 85.4658 27.2499 85.8756 27.2626 86.3051C27.2626 87.2731 26.3897 88.2136 25.4842 88.2086C24.6337 88.2086 23.8908 87.3504 23.9033 86.39Z" fill="#AA82F0"/>
<path d="M68.1926 26.112C68.1926 24.9894 68.6079 24.5678 69.5659 24.5029C70.3788 24.448 71.1692 25.5607 71.1467 26.2143C71.1471 26.4095 71.1083 26.6028 71.0326 26.7827C70.9569 26.9627 70.8458 27.1257 70.706 27.2622C70.5661 27.3987 70.4003 27.5059 70.2182 27.5774C70.0361 27.6489 69.8415 27.6834 69.6459 27.6787C68.7429 27.6737 68.1951 27.0875 68.1926 26.112Z" fill="#AA82F0"/>
<path d="M67.0892 92.4688C67.8396 93.337 68.6351 94.1727 69.3405 95.0758C70.341 96.3631 71.2515 97.7352 72.2846 99.0025C72.8549 99.701 72.6898 100.335 72.3396 100.956C71.6467 102.188 69.8608 102.874 68.4675 102.567C67.9541 102.46 67.4856 102.199 67.1243 101.819C66.5515 101.228 65.9612 100.654 65.3909 100.06C65.1512 99.7706 64.8202 99.5702 64.4519 99.4919C64.0836 99.4135 63.6996 99.4617 63.3622 99.6287C62.4446 100.038 61.4951 100.371 60.5231 100.627C59.7514 100.764 58.9644 100.794 58.1844 100.716C57.9188 100.699 57.6635 100.607 57.448 100.451C57.2325 100.295 57.0655 100.082 56.9662 99.8358C56.7072 99.2602 56.4883 98.6675 56.3109 98.062C55.9332 96.6824 55.3428 96.3157 53.9421 96.5652C50.2851 97.2013 47.7161 94.6417 47.5335 91.4285C47.4549 90.4614 47.5309 89.4879 47.7586 88.5446C48.0488 87.4569 47.6961 86.8656 46.6681 86.4515C45.8026 86.1023 44.9171 85.7804 44.0916 85.3638C43.3262 84.9821 42.6058 84.5181 42.2006 83.6874C41.9079 83.0811 41.7804 82.4849 42.0556 81.8612C42.3003 81.2803 42.5784 80.7139 42.8885 80.1648C43.4438 79.2218 43.4438 78.6031 42.7535 77.725C42.3419 77.1961 41.8992 76.6921 41.4277 76.2156C40.9508 75.6949 40.5315 75.1245 40.177 74.5142C39.0614 72.7929 39.8343 69.8366 41.0875 68.7339C41.3952 68.4645 41.6853 68.1701 41.968 67.8708C42.6634 67.1223 42.7034 66.8604 42.2181 65.9897C42.0665 65.7369 41.8994 65.4937 41.7178 65.2613C40.0895 63.016 40.2171 60.3392 42.1806 58.2286C42.7129 57.6508 43.357 57.1866 44.0741 56.864C44.6544 56.6021 45.2248 56.3177 45.7851 56.0158C46.478 55.6466 46.6806 55.0953 46.433 54.3493C46.4068 54.2031 46.3542 54.0628 46.2778 53.9352C45.3774 52.8749 45.75 51.7498 46.1428 50.6596C47.1158 47.9528 49.8948 46.5059 52.3512 46.5259C52.7639 46.5259 53.1766 46.5408 53.5868 46.5259C54.4748 46.4859 54.9276 46.0269 54.9551 45.1113C54.9701 44.6124 54.9326 44.1384 54.9551 43.6544C55.1077 41.1821 57.6866 38.7772 60.0454 38.9294C60.7092 39.003 61.3607 39.1614 61.984 39.4009C62.439 39.5727 62.877 39.7865 63.2922 40.0396C64.3728 40.6333 65.5634 40.289 66.0862 39.1265C66.3744 38.5621 66.6951 38.0149 67.0467 37.4874C67.8822 36.0879 69.1879 35.337 70.7013 34.9029C71.3802 34.6964 72.0985 34.653 72.7975 34.7761C73.4965 34.8992 74.1564 35.1855 74.7234 35.6114C76.622 36.9561 76.9747 36.6717 78.3004 35.2297C79.2184 34.2318 80.2565 33.3961 81.6022 33.0069C83.3081 32.508 85.4768 33.5932 86.0672 35.2522C86.1772 35.569 86.2773 35.8883 86.3949 36.2027C86.8076 37.3003 87.4429 37.5822 88.486 37.0758C89.529 36.5694 90.4871 36.0779 91.6027 35.8584C92.5832 35.6688 93.5788 35.6438 94.4693 36.033C95.3598 36.4222 96.0226 37.0808 96.0777 38.1411C96.1052 38.6625 96.0777 39.1864 96.0777 39.7078C96.1227 40.9427 96.748 41.4092 97.9712 41.2196C99.5621 40.9701 101.11 41.1123 102.506 41.9929C102.922 42.2424 103.288 42.5673 103.584 42.9509C103.834 43.2579 103.976 43.6378 103.989 44.0327C104.002 44.4276 103.885 44.816 103.657 45.1388C103.394 45.5006 103.161 45.8827 102.959 46.2814C102.521 47.2593 102.926 48.0277 103.959 48.3121C105.17 48.6264 106.351 49.0306 107.144 50.0584C107.571 50.6183 107.909 51.2411 108.144 51.9045C108.239 52.1717 108.271 52.457 108.238 52.7386C108.205 53.0201 108.108 53.2904 107.954 53.5286C107.614 54.0599 107.264 54.5863 106.901 55.1027C106.233 56.0457 106.401 56.9438 107.494 57.348C109.152 57.9542 109.598 59.3712 109.96 60.8157C110.175 61.6689 109.71 62.4123 109.065 62.9911C108.749 63.2516 108.42 63.4956 108.079 63.722C107.161 64.3856 107.031 64.9844 107.737 65.85C108.112 66.3511 108.373 66.9286 108.499 67.5415C108.677 68.1876 108.522 68.7389 108.342 69.2878C107.729 71.1364 105.936 72.0869 103.937 71.9447C103.292 71.8998 103.244 71.6129 103.089 71.2312C101.656 67.7136 100.232 64.1935 98.7866 60.681C98.5768 60.2052 98.3257 59.7486 98.0362 59.3163C97.716 58.8174 98.1313 58.6852 98.3989 58.4432C98.7116 58.1613 98.8992 58.2386 99.0943 58.5704C99.3018 58.8797 99.5256 59.1779 99.7647 59.4635C100.211 60.0695 100.825 60.5324 101.531 60.7957C101.916 60.9329 102.281 60.7957 102.356 60.4764C102.431 60.1571 102.183 60.0797 101.951 59.93C100.903 59.2565 100.147 58.3858 100.12 57.0461C100.104 56.6742 100.024 56.3078 99.8822 55.9634C99.8182 55.8232 99.7225 55.6997 99.6027 55.6025C99.4828 55.5053 99.342 55.4371 99.1913 55.4033C99.0406 55.3695 98.8841 55.3709 98.734 55.4075C98.584 55.4441 98.4445 55.5148 98.3264 55.6142C97.9387 55.9684 97.611 56.3875 97.2058 56.7143C96.4929 57.2906 95.7525 57.7372 94.7469 57.333C94.2515 57.1593 93.8421 56.8019 93.6038 56.3351C93.5085 56.1322 93.425 55.9239 93.3536 55.7115C93.2615 55.4849 93.1022 55.2918 92.897 55.1581C92.6918 55.0243 92.4506 54.9563 92.2055 54.963C91.7578 54.9356 91.4551 55.23 91.275 55.6391C90.9781 56.3596 90.6226 57.0546 90.212 57.7172C89.7785 58.3242 89.2672 58.8718 88.6911 59.3463C87.8932 60.0199 86.3573 59.9525 85.5669 59.244C85.1321 58.8365 84.7314 58.3943 84.3687 57.9218C84.0385 57.5077 83.6183 57.2332 83.118 57.333C82.8584 57.384 82.6217 57.5158 82.4419 57.7094C82.2621 57.9031 82.1485 58.1486 82.1175 58.4108C81.9624 59.2116 81.8674 60.0273 81.6347 60.8107C81.1595 62.4971 80.3515 63.9915 78.8082 64.9544C78.0773 65.4011 77.2124 65.5776 76.3643 65.4534C75.6263 65.3595 74.9043 65.1664 74.2181 64.8796C73.7329 64.685 73.2927 64.6002 72.8925 65.0517C72.7109 65.2398 72.5939 65.4806 72.5584 65.7393C72.5228 65.998 72.5706 66.2613 72.6948 66.4912C72.7581 66.6638 72.8359 66.8307 72.9275 66.9901C73.4978 67.8309 73.4127 68.7813 73.3152 69.7019C73.2051 70.7572 71.7143 72.0295 70.6462 72.0794C70.2735 72.0968 69.8958 72.0794 69.5231 72.0794C68.6326 72.1268 68.2449 72.6332 68.4625 73.4989C68.5801 73.9679 68.7602 74.4194 68.9127 74.8785C69.1808 75.6322 69.2575 76.4404 69.1362 77.2309C69.0149 78.0214 68.6992 78.7697 68.2174 79.4089C67.7171 80.1199 66.9667 80.4492 66.2163 80.776C65.1832 81.2276 64.9806 81.5743 65.2608 82.6521C65.4009 83.1884 65.5934 83.7123 65.741 84.2462C66.1813 85.8378 65.8036 87.3396 65.1857 88.7991C65.0782 89.0485 64.8005 89.2356 64.6204 89.4652C64.3178 89.8543 64.0401 90.2909 64.3002 90.7849C65.2683 92.621 65.5835 94.6567 66.1338 96.6225C66.2063 96.8845 66.3588 97.2886 66.5364 97.3261C66.9642 97.4134 67.2043 97.0442 67.2869 96.6625C67.372 96.3116 67.404 95.95 67.3819 95.5897C67.2969 94.5544 67.1693 93.5241 67.0567 92.4913L67.0892 92.4688Z" fill="#F3F4F4"/>
<path d="M88.8059 172.742H68.3472C67.1291 172.742 67.1241 172.742 67.3467 171.572C67.6994 169.641 68.0846 167.713 68.4073 165.774C68.5573 164.861 68.5824 163.928 68.6899 163.005C68.8025 162.007 68.9401 161.022 69.0727 160.029C69.0927 159.882 69.1127 159.735 69.1227 159.585C69.2052 158.026 69.2052 156.457 69.3853 154.907C69.748 151.779 69.5304 148.648 69.5604 145.517C69.5604 144.519 69.4228 143.521 69.3553 142.524C69.3403 142.259 69.3728 142.104 69.723 142.287C71.4739 143.195 73.295 142.668 74.5081 140.969C75.5587 139.502 75.9814 137.816 76.3241 136.095C76.6868 134.283 76.6093 132.45 76.5192 130.631C76.4088 128.814 76.0804 127.017 75.5412 125.277C75.0834 123.748 74.5206 122.246 73.9503 120.752C73.7402 120.203 73.3625 119.717 73.0923 119.188C72.8622 118.739 72.9548 118.661 73.43 118.502C74.2255 118.232 74.7533 118.469 75.1985 119.158C75.4944 119.589 75.8478 119.977 76.2491 120.313C77.7624 121.64 78.8555 123.279 79.811 125.018C80.5264 126.324 81.2234 127.638 81.9021 128.962C83.0753 131.25 84.5961 133.241 86.6848 134.782C88.1006 135.825 89.6864 136.564 91.4149 136.609C93.581 136.661 95.5246 135.96 96.8553 134.071C97.7108 132.856 98.1361 131.502 98.3887 130.045C98.949 126.822 98.096 123.843 96.8704 120.942C96.295 119.577 95.5146 118.295 94.7842 117C94.5125 116.601 94.2062 116.226 93.8687 115.88C93.7236 115.703 93.7987 115.61 93.9963 115.603C94.405 115.553 94.8182 115.553 95.2269 115.603C95.5454 115.681 95.8252 115.87 96.0149 116.137C97.7884 118.948 99.4243 121.837 100.682 124.918C101.683 127.366 102.701 129.808 103.577 132.3C104.493 134.896 105.244 137.546 105.828 140.236C106.433 143.065 107.173 145.864 107.734 148.703C108.234 151.173 108.544 153.677 108.939 156.167C109.222 157.961 109.512 159.752 109.782 161.548C109.888 162.244 109.958 162.945 110.033 163.649C110.128 164.684 110.2 165.722 110.283 166.757C110.418 168.272 110.533 169.788 110.705 171.3C110.856 172.67 110.816 172.74 109.397 172.74H88.826L88.8059 172.742Z" fill="#E8E9E9"/>
<path d="M104.848 86.9611C104.988 88.8546 104.677 90.7905 104.222 92.719C103.694 94.9418 102.561 96.8453 101.221 98.6564C99.8526 100.489 98.0243 101.929 95.9201 102.833C94.5944 103.424 93.1887 103.831 91.8379 104.372C90.0695 105.075 88.4761 106.103 87.3355 107.615C85.7021 109.808 85.7571 111.911 87.408 114.101C87.7715 114.581 88.2447 114.967 88.7882 115.227C89.3316 115.488 89.9295 115.615 90.5322 115.598C92.133 115.598 92.1006 115.636 92.906 117.07C93.819 118.697 94.7295 120.326 95.2998 122.109C95.9326 124.093 96.5105 126.101 96.5005 128.204C96.5261 129.474 96.2591 130.733 95.7201 131.884C94.9822 133.356 93.8015 134.266 92.043 134.416C89.9419 134.593 88.396 133.583 86.9227 132.325C85.3869 131.013 84.3913 129.307 83.4433 127.568C82.5328 125.899 81.6548 124.21 80.6918 122.578C79.6738 120.86 78.1904 119.525 76.7522 118.165C76.3845 117.821 76.3744 117.759 76.7846 117.472C77.0348 117.3 77.2849 117.142 77.5351 116.973C79.1159 115.96 79.8113 114.446 79.8964 112.642C79.9839 110.756 79.5487 108.945 78.8508 107.206C77.5432 104.038 75.9068 101.015 73.9681 98.1874C72.5823 96.1243 70.9364 94.2358 69.4656 92.2225C68.9253 91.4741 68.1925 90.9752 67.5596 90.3565C67.4176 90.2428 67.3164 90.0863 67.2713 89.9104C67.2262 89.7345 67.2396 89.5487 67.3095 89.381C67.7297 88.0663 68.0799 86.7316 67.9723 85.3346C67.9102 84.5603 67.7915 83.7915 67.6171 83.0344C67.5096 82.5679 67.5196 82.2586 67.9999 82.0365C70.4787 80.8565 71.6969 77.4288 70.949 74.964C70.884 74.7544 70.929 74.5124 70.8639 74.3004C70.7814 74.026 70.8264 73.9361 71.1316 73.8588C71.8445 73.6767 72.5649 73.522 73.1927 73.0605C75.0412 71.6984 75.6741 69.8822 75.3139 67.6744C75.2638 67.3725 75.1488 67.1754 75.6215 67.2528C78.6857 67.8191 81.2321 66.2274 82.6504 63.6129C83.1232 62.7398 83.3858 61.7494 83.7209 60.8064C83.801 60.5719 83.8561 60.492 84.0762 60.6542C84.2263 60.764 84.4038 60.8388 84.5464 60.9561C86.2273 62.3232 88.9338 61.8991 90.4346 60.532C91.0737 59.9109 91.6594 59.2374 92.1856 58.5187C92.4007 58.2443 92.4858 58.3341 92.6859 58.4863C93.7389 59.2796 94.877 59.7336 96.2253 59.3569C96.2968 59.3318 96.3727 59.3214 96.4484 59.3264C96.524 59.3314 96.5979 59.3516 96.6655 59.3859C96.7331 59.4202 96.793 59.4678 96.8416 59.5259C96.8902 59.5839 96.9265 59.6512 96.9482 59.7237C97.406 60.744 97.9162 61.7444 98.3089 62.7872C99.7347 66.5867 101.218 70.3687 102.486 74.2205C103.299 76.6803 103.779 79.2524 104.397 81.7746C104.795 83.4731 104.947 85.2197 104.848 86.9611ZM98.0488 90.9876L97.9063 90.9552C97.9263 90.6229 97.9263 90.2896 97.9063 89.9573C97.8562 89.5282 97.3584 89.0742 96.9857 89.179C96.6331 89.2785 96.3147 89.4726 96.0652 89.7403C95.7233 90.1316 95.4695 90.5915 95.321 91.089C95.1726 91.5866 95.1329 92.1101 95.2048 92.6242C95.2773 93.3077 95.5525 93.7169 96.0152 93.8142C96.7356 93.9638 97.2184 93.7493 97.516 92.9909C97.7308 92.3352 97.9087 91.6681 98.0488 90.9926V90.9876ZM96.0928 85.0252C96.6105 84.9579 97.0232 84.9404 97.4159 84.8456C98.406 84.6503 99.3203 84.1789 100.052 83.486C100.169 83.3899 100.261 83.2689 100.324 83.132C100.387 82.9951 100.418 82.8459 100.414 82.6954C100.411 82.545 100.373 82.3972 100.305 82.2633C100.236 82.1293 100.138 82.0125 100.017 81.9218C99.5772 81.5251 99.1294 81.1359 98.6517 80.7842C98.5683 80.7238 98.4722 80.6834 98.3707 80.6661C98.2692 80.6488 98.165 80.6551 98.0663 80.6844C97.994 80.7625 97.9414 80.8566 97.9127 80.9589C97.884 81.0613 97.8801 81.169 97.9013 81.2732C98.0149 81.5823 98.1599 81.879 98.334 82.1588C98.6066 82.6827 98.6091 82.7924 98.0988 83.0344C97.5247 83.2945 96.9349 83.5186 96.3329 83.7055C95.9127 83.8452 95.4624 83.8926 95.0471 84.0423C94.9767 84.0689 94.9159 84.1159 94.8725 84.1772C94.829 84.2385 94.8049 84.3114 94.8033 84.3865C94.8017 84.4616 94.8226 84.5354 94.8634 84.5986C94.9042 84.6617 94.963 84.7112 95.0322 84.7408C95.3791 84.8601 95.7333 84.9567 96.0928 85.0302V85.0252ZM84.6815 70.1292C84.7749 70.5066 84.8979 70.8761 85.0492 71.2344C85.1049 71.3252 85.1822 71.4009 85.2743 71.4548C85.3663 71.5088 85.4703 71.5393 85.577 71.5437C85.7271 71.5188 85.8547 71.2493 85.9572 71.0697C85.9938 70.963 86.0023 70.8488 85.9822 70.7379C85.9222 69.5629 86.605 68.8644 87.5581 68.3829C88.0655 68.1572 88.5859 67.9614 89.1164 67.7966C89.5767 67.627 89.6592 67.2627 89.279 66.9584C89.1114 66.8144 88.9071 66.7194 88.6887 66.684C86.8152 66.4844 84.7765 67.6893 84.6815 70.1342V70.1292ZM95.0322 65.696C95.67 65.8333 96.3179 65.9705 96.9632 66.1127C97.4435 66.2174 97.7736 65.9231 97.6661 65.4541C97.6211 65.2781 97.5202 65.1215 97.3784 65.0075C96.7483 64.4785 95.984 64.1332 95.1697 64.0096C94.6697 63.9292 94.1573 63.9827 93.6848 64.1646C93.2124 64.3465 92.7968 64.6503 92.4807 65.0449C92.4037 65.1632 92.3534 65.2967 92.3331 65.4362C92.3128 65.5757 92.323 65.718 92.3632 65.8532C92.4707 66.1601 92.7984 66.1651 93.1261 66.0827C93.744 65.9231 94.3768 65.8283 95.0322 65.701V65.696ZM92.1581 76.2338C91.9878 75.8177 91.7801 75.4177 91.5377 75.0388C91.1375 74.5 90.7873 74.4226 90.287 74.6197C90.0568 74.7001 89.8613 74.857 89.7333 75.0642C89.6053 75.2713 89.5527 75.516 89.5842 75.7573C89.6522 76.3034 89.7909 76.8384 89.9969 77.3489C90.1795 77.803 90.6322 77.9152 91.11 77.9127C91.5402 77.9127 91.6628 77.5809 91.7979 77.2866C91.9329 76.9922 92.013 76.6754 92.1581 76.2338ZM99.4896 74.465C99.4045 73.8912 99.337 73.1827 98.6467 72.7611C97.9563 72.3395 97.2484 72.7087 97.2209 73.4821C97.2134 73.9932 97.2816 74.5027 97.4235 74.9939C97.4837 75.2641 97.6452 75.5011 97.8749 75.6565C98.1046 75.8118 98.3852 75.8738 98.6592 75.8296C99.272 75.6899 99.5021 75.3482 99.4896 74.4725V74.465Z" fill="white"/>
<path d="M74.7531 132.33C74.648 134.825 74.4254 137.185 73.2522 139.345C72.927 139.946 72.5243 140.463 71.8364 140.7C71.4194 140.863 70.9592 140.879 70.5315 140.747C70.1038 140.615 69.7339 140.341 69.4826 139.971C69.4555 139.891 69.4474 139.805 69.4591 139.721C69.4709 139.637 69.502 139.557 69.5502 139.487C70.0304 138.824 70.5507 138.19 71.0335 137.531C71.2684 137.244 71.4605 136.923 71.6038 136.581C71.6341 136.463 71.6391 136.34 71.6184 136.22C71.5977 136.1 71.5518 135.986 71.4837 135.885C71.2836 135.635 70.9835 135.768 70.7984 135.96C69.7745 136.999 68.7606 138.046 67.7567 139.101C67.6016 139.26 67.489 139.46 67.3364 139.619C65.7381 141.296 64.1647 142.997 62.5238 144.629C61.7291 145.362 60.894 146.051 60.0224 146.692C59.7791 146.864 59.5194 147.012 59.247 147.134C58.5467 147.488 57.9013 147.383 57.2309 146.981C56.3657 146.46 55.5925 145.8 54.9422 145.028C54.1316 144.106 53.3685 143.143 52.6559 142.144C51.5478 140.557 50.5097 138.921 49.4466 137.302C49.3241 137.115 49.2441 136.903 49.124 136.713C49.0787 136.655 49.0455 136.589 49.0265 136.517C49.0074 136.446 49.0029 136.372 49.0132 136.299C49.0234 136.227 49.0483 136.157 49.0862 136.093C49.1241 136.03 49.1744 135.976 49.234 135.932C49.8594 135.294 50.4472 134.62 51.035 133.936C52.0835 132.676 52.9887 131.304 53.734 129.845C54.0742 129.214 54.0817 129.214 54.5794 129.688C56.473 131.492 58.3566 133.305 60.2576 135.102C60.5857 135.403 60.9445 135.67 61.3281 135.897C61.4092 135.925 61.496 135.931 61.5801 135.915C61.6641 135.899 61.7428 135.862 61.8085 135.808C61.8484 135.73 61.868 135.643 61.8654 135.556C61.8627 135.469 61.838 135.384 61.7934 135.309C61.3557 134.752 60.9029 134.203 60.4152 133.692C59.4146 132.629 59.4146 132.654 60.2451 131.482C61.5783 129.596 62.8715 127.682 64.2047 125.796C65.3679 124.157 66.496 122.493 67.9418 121.056C68.8423 120.168 69.9254 119.612 71.0385 119.073C71.4637 118.868 71.6288 119.053 71.7889 119.432C72.6656 121.528 73.3676 123.692 73.8876 125.903C74.3563 128.018 74.6458 130.167 74.7531 132.33Z" fill="white"/>
<path d="M97.4453 115.793C98.3308 115.793 99.1112 116.137 99.8816 116.526C101.795 117.492 103.384 118.916 105.092 120.176C107.128 121.673 109.152 123.205 111.198 124.697C111.896 125.196 112.619 125.659 113.364 126.084C113.799 126.333 113.964 126.618 113.712 127.082C113.663 127.183 113.629 127.29 113.612 127.401C113.559 127.67 113.261 128.025 113.662 128.172C113.862 128.247 114.26 128.075 114.43 127.887C114.98 127.282 115.492 126.643 115.963 125.974C117.529 123.749 119.078 121.513 120.61 119.268C120.861 118.904 121.063 118.769 121.438 119.116C121.814 119.463 122.254 119.762 122.672 120.074C124.087 121.115 125.623 121.983 127.247 122.658C127.747 122.868 127.869 123.122 127.764 123.582C127.684 123.943 127.607 124.307 127.492 124.662C126.304 128.312 125.123 131.971 123.262 135.354C122.512 136.721 121.761 138.098 120.625 139.218C120.149 139.699 119.506 139.979 118.83 139.999C117.746 140.091 116.655 139.943 115.635 139.568C114.492 139.109 113.337 138.677 112.221 138.163C110.522 137.382 108.857 136.527 107.163 135.733C107.031 135.672 106.914 135.58 106.823 135.467C106.731 135.353 106.667 135.22 106.635 135.077C106.285 133.977 105.952 132.867 105.53 131.794C104.662 129.576 103.744 127.376 102.841 125.171C101.678 122.329 100.089 119.715 98.3783 117.188C98.0656 116.726 97.758 116.262 97.4478 115.798L97.4453 115.793Z" fill="white"/>
<path d="M34.7941 118.27C37.1985 118.353 39.5587 118.938 41.7228 119.986C42.901 120.545 44.0166 121.233 45.1647 121.857C45.3199 121.954 45.4884 122.027 45.665 122.074C46.0252 122.151 46.3029 121.862 46.1303 121.553C45.8421 120.992 45.4822 120.472 45.0597 120.003C44.6199 119.602 44.1277 119.261 43.5964 118.991C42.9585 118.629 42.4432 118.217 42.2606 117.449C42.1255 116.875 41.8454 116.336 41.6578 115.772C41.5427 115.433 41.7053 115.244 42.0155 115.383C42.8054 115.712 43.5704 116.099 44.3043 116.538C45.9527 117.594 46.9957 119.188 47.9112 120.862C48.3012 121.54 48.6174 122.259 48.8542 123.005C49.2645 124.429 50.265 125.43 51.183 126.497C51.4339 126.774 51.7003 127.036 51.981 127.283C52.5563 127.814 52.5963 127.832 52.2561 128.491C51.2556 130.414 50.1474 132.258 48.6416 133.834C47.9687 134.543 47.9362 134.533 47.5135 133.697C46.688 132.071 45.8626 130.454 45.0721 128.8C44.8945 128.37 44.6092 127.992 44.2435 127.704C43.8778 127.415 43.444 127.225 42.9835 127.151C41.5603 126.872 40.1532 126.517 38.7687 126.086C36.3649 125.35 34.0961 124.352 32.1926 122.63C31.5296 122.088 30.9942 121.406 30.6242 120.635C30.2815 119.851 30.4692 119.268 31.2421 118.866C32.2977 118.332 33.4558 118.285 34.7941 118.27Z" fill="white"/>
<path d="M132.267 116.708C131.304 116.626 130.341 116.526 129.376 116.473C129.042 116.454 128.708 116.507 128.398 116.631C127.843 116.863 127.787 117.242 128.2 117.658C128.333 117.791 128.52 117.873 128.625 118.02C128.726 118.194 128.804 118.38 128.858 118.574C128.858 118.601 128.833 118.644 128.826 118.679L128.338 120.839C127.627 120.535 126.874 120.303 126.217 119.909C124.938 119.145 123.715 118.294 122.465 117.476C122.406 117.446 122.355 117.402 122.316 117.349C122.277 117.296 122.251 117.234 122.24 117.169C122.228 117.104 122.232 117.037 122.252 116.974C122.271 116.911 122.304 116.853 122.35 116.805C122.637 116.371 122.912 115.929 123.215 115.505C124.216 114.081 125.161 112.592 126.289 111.264C127.61 109.703 128.986 108.161 130.792 107.101C130.944 107.034 131.105 106.987 131.269 106.961C131.258 107.133 131.232 107.304 131.192 107.472C130.867 108.47 130.554 109.468 129.493 109.967C129.307 110.094 129.144 110.249 129.008 110.429C128.758 110.678 128.558 110.96 128.838 111.307C129.066 111.589 129.353 111.556 129.646 111.399C129.844 111.294 130.054 111.207 130.251 111.102C132.536 109.911 134.947 108.978 137.44 108.321C138.556 108.031 139.695 107.841 140.845 107.754C141.675 107.679 142.028 108.101 141.943 108.917C141.888 109.396 141.753 109.862 141.543 110.296C140.657 112.118 139.341 113.698 137.708 114.902C136.15 116.044 134.326 116.825 132.267 116.708Z" fill="white"/>
<path d="M45.9199 135.376L46.0475 135.007C46.1617 135.222 46.2644 135.444 46.3552 135.67C46.3702 135.71 46.2301 135.803 46.1626 135.87C46.0775 135.693 45.99 135.518 45.9199 135.376Z" fill="white"/>
<path d="M120.863 115.4C120.876 115.455 120.918 115.528 120.896 115.558C120.85 115.602 120.794 115.636 120.733 115.657C120.718 115.597 120.673 115.523 120.696 115.483C120.718 115.443 120.803 115.435 120.863 115.4Z" fill="white"/>
<path d="M97.4483 115.79L97.3457 115.695C97.3682 115.695 97.3957 115.695 97.4082 115.715C97.4262 115.738 97.4389 115.764 97.4458 115.793L97.4483 115.79Z" fill="white"/>
<path d="M67.0847 92.4764L66.9922 92.3691L67.0897 92.4689L67.0847 92.4764Z" fill="white"/>
<path d="M98.0486 90.9925C97.9043 91.6674 97.7222 92.3337 97.5033 92.9883C97.2081 93.7367 96.7254 93.9613 96.0025 93.8116C95.5397 93.7143 95.2521 93.3126 95.192 92.6216C95.1202 92.1075 95.1599 91.584 95.3083 91.0865C95.4567 90.589 95.7105 90.129 96.0525 89.7377C96.302 89.4701 96.6204 89.2759 96.973 89.1764C97.3457 89.0716 97.8435 89.5256 97.8935 89.9547C97.9136 90.2871 97.9136 90.6203 97.8935 90.9526L98.0486 90.9925Z" fill="#717A7C"/>
<path d="M96.0923 85.0298C95.733 84.9579 95.3787 84.8629 95.0317 84.7454C94.9625 84.7158 94.9037 84.6663 94.8629 84.6031C94.8221 84.54 94.8012 84.4662 94.8028 84.3911C94.8044 84.316 94.8286 84.2431 94.872 84.1818C94.9155 84.1205 94.9763 84.0735 95.0467 84.0469C95.4619 83.8972 95.9122 83.8498 96.3324 83.7101C96.9345 83.5232 97.5242 83.299 98.0983 83.039C98.5986 82.7895 98.5987 82.6872 98.3335 82.1633C98.1594 81.8836 98.0144 81.5868 97.9008 81.2777C97.8796 81.1736 97.8835 81.0659 97.9122 80.9635C97.9409 80.8611 97.9935 80.767 98.0658 80.689C98.1645 80.6596 98.2687 80.6534 98.3702 80.6707C98.4717 80.688 98.5679 80.7284 98.6512 80.7888C99.129 81.1405 99.5767 81.5372 100.017 81.9263C100.137 82.0171 100.235 82.1339 100.304 82.2678C100.373 82.4018 100.41 82.5495 100.414 82.7C100.417 82.8504 100.386 82.9997 100.324 83.1366C100.261 83.2735 100.168 83.3945 100.052 83.4905C99.3198 84.1834 98.4056 84.6549 97.4155 84.8502C97.0227 84.945 96.6101 84.9649 96.0923 85.0298Z" fill="#717A7C"/>
<path d="M84.6816 70.1336C84.7767 67.6887 86.8153 66.4838 88.6838 66.6883C88.9022 66.7238 89.1065 66.8188 89.2742 66.9628C89.6544 67.2671 89.5718 67.6314 89.1116 67.801C88.581 67.9658 88.0607 68.1615 87.5532 68.3873C86.6002 68.8687 85.9173 69.5673 85.9773 70.7423C85.9975 70.8532 85.9889 70.9674 85.9524 71.0741C85.8498 71.2537 85.7222 71.5231 85.5721 71.5481C85.4655 71.5437 85.3615 71.5132 85.2695 71.4592C85.1774 71.4053 85.1001 71.3295 85.0443 71.2387C84.8947 70.8803 84.7735 70.5108 84.6816 70.1336Z" fill="#717A7C"/>
<path d="M95.0322 65.7007C94.3644 65.8279 93.744 65.9227 93.1362 66.0724C92.8085 66.1547 92.4808 66.1497 92.3733 65.8429C92.3331 65.7077 92.3228 65.5654 92.3431 65.4259C92.3634 65.2863 92.4138 65.1528 92.4908 65.0346C92.8069 64.6399 93.2224 64.3361 93.6949 64.1542C94.1674 63.9723 94.6798 63.9188 95.1798 63.9993C95.9941 64.1228 96.7584 64.4681 97.3885 64.9972C97.5288 65.1159 97.6263 65.2771 97.6661 65.4562C97.7737 65.9252 97.4435 66.2196 96.9633 66.1148C96.3179 65.9751 95.6701 65.8379 95.0322 65.7007Z" fill="#717A7C"/>
<path d="M92.1578 76.2334C92.0128 76.6674 91.9352 76.9818 91.8027 77.2861C91.6701 77.5905 91.5525 77.9098 91.1148 77.9123C90.637 77.9123 90.1843 77.8025 90.0017 77.3485C89.7957 76.838 89.657 76.303 89.589 75.7569C89.5575 75.5156 89.6101 75.2709 89.7381 75.0638C89.8661 74.8566 90.0616 74.6997 90.2918 74.6193C90.7921 74.4222 91.1373 74.4995 91.5425 75.0384C91.7832 75.4175 91.9891 75.8174 92.1578 76.2334Z" fill="#717A7C"/>
<path d="M99.49 74.4724C99.49 75.348 99.2724 75.6898 98.6596 75.837C98.3856 75.8811 98.105 75.8192 97.8753 75.6638C97.6456 75.5085 97.4841 75.2715 97.4238 75.0013C97.282 74.51 97.2137 74.0006 97.2213 73.4894C97.2488 72.7161 97.9942 72.3693 98.647 72.7685C99.2999 73.1676 99.4049 73.8986 99.49 74.4724Z" fill="#717A7C"/>
</svg>
