<svg width="160" height="137" viewBox="0 0 160 137" fill="none" xmlns="http://www.w3.org/2000/svg">
<path fill-rule="evenodd" clip-rule="evenodd" d="M123.336 70.4247C123.197 70.815 123.014 71.1873 122.793 71.5342C121.979 72.5612 121.133 73.5744 120.286 74.5894C119.751 75.2314 119.215 75.8742 118.685 76.5216C118.477 76.7781 118.268 77.0341 118.059 77.2901L118.059 77.2901C117.22 78.3187 116.38 79.3479 115.582 80.4162C114.174 82.3195 112.782 84.2358 111.391 86.1514L111.391 86.1514C110.435 87.468 109.479 88.7843 108.518 90.096C107.692 91.2286 107.685 91.2192 106.857 90.0567L106.83 90.0188L106.151 89.0611L106.151 89.061C103.824 85.778 101.496 82.4938 99.1208 79.2474C98.8856 78.9754 98.7444 78.631 98.7194 78.2688C98.6944 77.9065 98.7871 77.5471 98.9828 77.2475C100.262 74.8401 101.532 72.4287 102.793 70.0131C103.325 68.9993 103.858 67.9857 104.391 66.9721L104.395 66.9643L104.396 66.9611C105.803 64.2847 107.21 61.6081 108.603 58.925C109.345 57.6791 109.808 56.2756 109.958 54.8164C110.006 53.9644 110.393 53.8673 110.995 54.4081C111.019 54.4301 111.041 54.4562 111.062 54.4818L111.062 54.4819C111.076 54.4996 111.091 54.5171 111.106 54.5326L113.531 57.2854C113.297 57.7113 113.065 58.1369 112.834 58.5621L112.832 58.5646C112.513 59.1514 112.193 59.7373 111.871 60.3219C111.426 61.1105 110.978 61.8976 110.53 62.6848L110.528 62.6874L110.528 62.688C109.904 63.784 109.28 64.8802 108.664 65.9807C108.481 66.2564 108.378 66.5807 108.367 66.9159C108.389 67.0743 108.952 67.3729 108.987 67.3302C109.391 66.9707 109.749 66.559 110.051 66.1051C110.939 64.6743 111.807 63.2347 112.673 61.7964L112.674 61.7955L112.675 61.7923C112.982 61.2827 113.289 60.7733 113.597 60.2645C113.697 60.1011 113.801 59.942 113.905 59.7832L113.905 59.7832C114.044 59.5703 114.183 59.358 114.31 59.1367C114.635 58.553 114.931 58.6572 115.297 59.1177C116.781 61 118.281 62.8749 119.794 64.7423C120.174 65.2278 120.021 65.5506 119.703 65.9181C119.116 66.593 118.527 67.2656 117.938 67.9383L117.937 67.9384C116.489 69.5919 115.04 71.2455 113.628 72.9349C112.563 74.2102 111.565 75.5516 110.568 76.8926C110.374 77.1534 110.18 77.4141 109.986 77.6744C109.958 77.7112 109.927 77.7494 109.896 77.7888C109.653 78.0913 109.355 78.4628 109.831 78.7728C109.987 78.8803 110.526 78.5953 110.746 78.3492C111.191 77.8498 111.613 77.3295 112.036 76.8089L112.036 76.8088C112.415 76.3427 112.793 75.8763 113.188 75.4245C115.474 72.8015 117.766 70.1832 120.088 67.5982C120.99 66.5949 121.21 66.6396 121.907 67.7917C122.25 68.3587 122.561 68.9516 122.897 69.5926C123.037 69.861 123.182 70.1378 123.336 70.4247ZM91.2735 93.2271C91.4381 93.3897 91.5932 93.5608 91.738 93.7399C92.0227 94.1387 92.3076 94.5375 92.5925 94.9363L92.5958 94.941C93.8781 96.7362 95.1609 98.5319 96.4297 100.333C96.6614 100.669 96.8807 101.015 97.1002 101.361L97.1003 101.361C97.5292 102.038 97.9592 102.716 98.4846 103.324C99.2788 104.244 99.1905 105.099 98.6303 106.134C96.786 109.54 94.9922 112.969 93.2488 116.42C92.5891 117.64 92.0501 118.915 91.6389 120.228C91.06 122.265 89.7515 123.847 88.4329 125.435C87.7358 126.271 87.5597 126.301 86.8629 125.493C85.399 123.804 83.9645 122.103 82.5254 120.395C81.7964 119.531 81.0663 118.665 80.3305 117.798C79.9598 117.371 80.1046 117.039 80.3023 116.616C81.5758 113.92 82.8374 111.218 84.0871 108.509C85.4033 105.637 86.7037 102.762 88.0041 99.8868C88.7724 98.188 89.5406 96.4894 90.312 94.7917C90.4958 94.3863 90.6978 93.9941 90.9112 93.6054C91.0158 93.4661 91.1375 93.3391 91.2735 93.2271ZM82.0734 128.199C82.7427 128.21 83.4212 128.22 84.1145 128.233C84.2721 128.182 84.4405 128.131 84.6142 128.079C85.0309 127.952 85.4774 127.817 85.8764 127.658C86.4417 127.434 86.6439 127.082 86.166 126.506C84.0311 123.916 81.9007 121.32 79.7988 118.704C79.6654 118.498 79.4645 118.347 79.2331 118.28C79.0017 118.214 78.7553 118.235 78.5392 118.34C77.5145 118.723 76.4521 118.993 75.37 119.143C74.8553 119.187 74.3402 119.233 73.8249 119.279C71.1246 119.521 68.4166 119.763 65.7171 119.722C59.6985 119.605 53.6682 119.479 47.6958 118.455C47.1596 118.362 46.9382 118.463 47.2525 119.029C47.7868 120.082 48.3882 121.098 49.0526 122.07C49.4454 122.514 49.9766 122.801 50.5523 122.882C51.9599 123.093 53.3764 123.23 54.7963 123.294C55.5785 123.34 56.3633 123.355 57.1485 123.369C57.894 123.383 58.6399 123.397 59.3847 123.437C59.547 123.448 59.7035 123.61 59.8599 123.772C59.9325 123.848 60.0051 123.923 60.0782 123.983C59.9124 124.174 59.7177 124.336 59.5013 124.463C59.1906 124.572 58.8639 124.626 58.5348 124.624C57.3702 124.636 56.2045 124.639 55.0379 124.643C54.074 124.646 53.1095 124.649 52.1445 124.657C51.7793 124.664 51.4098 124.716 51.0454 124.766L51.0452 124.767C51.1632 125.119 51.314 125.46 51.4956 125.783C51.8238 126.238 52.1861 126.666 52.5791 127.062C52.7945 127.318 53.0622 127.522 53.3628 127.658C53.6634 127.795 53.9893 127.861 54.3165 127.851C57.0477 127.773 59.7804 127.705 62.508 127.751C66.0852 127.811 69.6577 127.904 73.2303 127.998C75.0167 128.045 76.8032 128.091 78.5902 128.134C79.7427 128.163 80.8937 128.181 82.0734 128.199Z" fill="#E8E9E9"/>
<path d="M122.793 71.5342L123.576 72.1554L123.608 72.1154L123.636 72.0724L122.793 71.5342ZM123.336 70.4247L124.278 70.7614L124.427 70.3435L124.218 69.9524L123.336 70.4247ZM120.286 74.5894L119.519 73.9488L120.286 74.5894ZM118.685 76.5216L117.911 75.8887L117.909 75.8914L118.685 76.5216ZM118.059 77.2901L118.815 77.9446L118.825 77.9336L118.834 77.9224L118.059 77.2901ZM118.059 77.2901L117.303 76.6356L117.294 76.6466L117.284 76.6578L118.059 77.2901ZM115.582 80.4162L114.78 79.8177L114.778 79.8215L115.582 80.4162ZM111.391 86.1514L110.582 85.5638L110.576 85.5723L110.57 85.581L111.391 86.1514ZM111.391 86.1514L112.2 86.739L112.206 86.7305L112.212 86.7218L111.391 86.1514ZM108.518 90.096L107.711 89.505L107.71 89.5065L108.518 90.096ZM106.857 90.0567L107.672 89.4767L107.672 89.4766L106.857 90.0567ZM106.83 90.0188L106.014 90.5972L106.016 90.599L106.83 90.0188ZM106.151 89.0611L106.967 88.4827L106.961 88.4742L106.955 88.4657L106.151 89.0611ZM106.151 89.061L105.335 89.6393L105.341 89.6479L105.348 89.6564L106.151 89.061ZM99.1208 79.2474L99.9279 78.657L99.9039 78.6241L99.8773 78.5934L99.1208 79.2474ZM98.9828 77.2475L99.8201 77.7943L99.8447 77.7565L99.8659 77.7167L98.9828 77.2475ZM102.793 70.0131L101.907 69.5485L101.906 69.5504L102.793 70.0131ZM104.391 66.9721L103.506 66.5065L103.505 66.5068L104.391 66.9721ZM104.395 66.9643L105.28 67.4299L105.28 67.429L104.395 66.9643ZM104.396 66.9611L103.511 66.4958L103.511 66.4964L104.396 66.9611ZM108.603 58.925L107.744 58.4131L107.729 58.4383L107.715 58.4643L108.603 58.925ZM109.958 54.8164L110.952 54.9184L110.955 54.8956L110.956 54.8726L109.958 54.8164ZM110.995 54.4081L110.326 55.1517L110.328 55.1534L110.995 54.4081ZM111.062 54.4818L110.289 55.117L110.315 55.1485L110.344 55.1779L111.062 54.4818ZM111.062 54.4819L111.834 53.8467L111.808 53.8151L111.78 53.7858L111.062 54.4819ZM111.106 54.5326L111.856 53.8716L111.842 53.8552L111.826 53.8394L111.106 54.5326ZM113.531 57.2854L114.408 57.7664L114.745 57.151L114.281 56.6243L113.531 57.2854ZM112.834 58.5621L113.712 59.0412L113.712 59.0406L112.834 58.5621ZM112.832 58.5646L111.955 58.0856L111.954 58.0862L112.832 58.5646ZM111.871 60.3219L112.742 60.8134L112.746 60.8054L111.871 60.3219ZM110.53 62.6848L111.399 63.1795L111.399 63.1794L110.53 62.6848ZM110.528 62.6874L109.659 62.1927L109.657 62.1969L110.528 62.6874ZM110.528 62.688L111.397 63.1827L111.399 63.1785L110.528 62.688ZM108.664 65.9807L109.497 66.5334L109.518 66.5021L109.536 66.4693L108.664 65.9807ZM108.367 66.9159L107.368 66.8829L107.365 66.9688L107.377 67.0539L108.367 66.9159ZM108.987 67.3302L108.323 66.5832L108.268 66.632L108.221 66.6883L108.987 67.3302ZM110.051 66.1051L110.883 66.6595L110.892 66.6462L110.901 66.6326L110.051 66.1051ZM112.673 61.7964L111.817 61.2798L111.816 61.2804L112.673 61.7964ZM112.674 61.7955L113.53 62.3121L113.53 62.3117L112.674 61.7955ZM112.675 61.7923L113.532 62.3085L113.532 62.3083L112.675 61.7923ZM113.597 60.2645L112.743 59.7439L112.741 59.747L113.597 60.2645ZM113.905 59.7832L113.089 59.2049L113.078 59.2202L113.068 59.236L113.905 59.7832ZM113.905 59.7832L114.72 60.3615L114.731 60.3461L114.742 60.3304L113.905 59.7832ZM114.31 59.1367L115.177 59.6354L115.184 59.6232L114.31 59.1367ZM115.297 59.1177L116.082 58.4984L116.079 58.4952L115.297 59.1177ZM119.794 64.7423L120.582 64.1258L120.576 64.1192L120.571 64.1126L119.794 64.7423ZM119.703 65.9181L120.458 66.5742L120.458 66.5732L119.703 65.9181ZM117.938 67.9383L118.676 68.6131L118.683 68.6052L118.69 68.5972L117.938 67.9383ZM117.937 67.9384L117.199 67.2636L117.192 67.2715L117.185 67.2795L117.937 67.9384ZM113.628 72.9349L112.861 72.2936L112.86 72.2939L113.628 72.9349ZM110.568 76.8926L109.766 76.2958L109.766 76.2958L110.568 76.8926ZM109.986 77.6744L110.783 78.2788L110.787 78.2729L109.986 77.6744ZM109.896 77.7888L109.116 77.1631L109.116 77.1631L109.896 77.7888ZM109.831 78.7728L110.4 77.9501L110.389 77.9422L110.377 77.9346L109.831 78.7728ZM110.746 78.3492L111.491 79.0171L111.494 79.0139L110.746 78.3492ZM112.036 76.8089L111.28 76.1544L111.27 76.1663L111.26 76.1785L112.036 76.8089ZM112.036 76.8088L112.792 77.4633L112.803 77.4514L112.812 77.4392L112.036 76.8088ZM113.188 75.4245L113.941 76.0825L113.942 76.0815L113.188 75.4245ZM120.088 67.5982L119.344 66.9296L119.344 66.9299L120.088 67.5982ZM121.907 67.7917L121.051 68.3093L121.051 68.3097L121.907 67.7917ZM122.897 69.5926L122.011 70.0568L122.011 70.0568L122.897 69.5926ZM91.738 93.7399L92.5519 93.1589L92.5344 93.1344L92.5155 93.111L91.738 93.7399ZM91.2735 93.2271L91.9759 92.5154L91.334 91.8818L90.6377 92.4552L91.2735 93.2271ZM92.5925 94.9363L91.7787 95.5176L91.779 95.518L92.5925 94.9363ZM92.5958 94.941L93.4095 94.3597L93.4092 94.3593L92.5958 94.941ZM96.4297 100.333L97.2529 99.7652L97.2472 99.7571L96.4297 100.333ZM97.1002 101.361L96.2557 101.897L96.299 101.965L96.3527 102.025L97.1002 101.361ZM97.1003 101.361L97.9449 100.826L97.9015 100.757L97.8478 100.697L97.1003 101.361ZM98.4846 103.324L99.2413 102.671L99.2413 102.671L98.4846 103.324ZM98.6303 106.134L99.5097 106.61L99.5099 106.61L98.6303 106.134ZM93.2488 116.42L94.1285 116.895L94.1351 116.883L94.1414 116.871L93.2488 116.42ZM91.6389 120.228L90.6846 119.93L90.6807 119.942L90.6771 119.955L91.6389 120.228ZM88.4329 125.435L89.2009 126.076L89.2023 126.074L88.4329 125.435ZM86.8629 125.493L87.6202 124.84L87.6184 124.837L86.8629 125.493ZM82.5254 120.395L83.29 119.751L82.5254 120.395ZM80.3305 117.798L81.0928 117.151L81.0856 117.142L80.3305 117.798ZM80.3023 116.616L79.3981 116.189L79.3964 116.192L80.3023 116.616ZM84.0871 108.509L84.9952 108.928L84.9962 108.925L84.0871 108.509ZM88.0041 99.8868L87.0929 99.4747L88.0041 99.8868ZM90.312 94.7917L91.2225 95.2054L91.2228 95.2046L90.312 94.7917ZM90.9112 93.6054L90.1118 93.0045L90.0689 93.0615L90.0346 93.1241L90.9112 93.6054ZM84.1145 128.233L84.096 129.233L84.2618 129.236L84.4197 129.185L84.1145 128.233ZM82.0734 128.199L82.089 127.199L82.089 127.199L82.0734 128.199ZM84.6142 128.079L84.3238 127.122L84.3238 127.122L84.6142 128.079ZM85.8764 127.658L86.2455 128.588L86.2455 128.588L85.8764 127.658ZM86.166 126.506L85.3943 127.142L85.3966 127.145L86.166 126.506ZM79.7988 118.704L78.9591 119.247L78.987 119.291L79.0193 119.331L79.7988 118.704ZM79.2331 118.28L79.5109 117.32L79.5109 117.32L79.2331 118.28ZM78.5392 118.34L78.8896 119.277L78.9345 119.26L78.9775 119.239L78.5392 118.34ZM75.37 119.143L75.4552 120.14L75.4816 120.137L75.5078 120.134L75.37 119.143ZM73.8249 119.279L73.7359 118.283L73.8249 119.279ZM65.7171 119.722L65.6977 120.722L65.702 120.722L65.7171 119.722ZM47.6958 118.455L47.5256 119.44L47.5268 119.44L47.6958 118.455ZM47.2525 119.029L48.1443 118.577L48.1359 118.56L48.1268 118.544L47.2525 119.029ZM49.0526 122.07L48.227 122.635L48.2624 122.687L48.304 122.734L49.0526 122.07ZM50.5523 122.882L50.7007 121.893L50.6905 121.891L50.5523 122.882ZM54.7963 123.294L54.8551 122.296L54.841 122.295L54.7963 123.294ZM57.1485 123.369L57.1301 124.369L57.1301 124.369L57.1485 123.369ZM59.3847 123.437L59.4496 122.439L59.4394 122.439L59.3847 123.437ZM59.8599 123.772L59.1401 124.467L59.1401 124.467L59.8599 123.772ZM60.0782 123.983L60.8335 124.638L61.507 123.862L60.7127 123.21L60.0782 123.983ZM59.5013 124.463L59.8324 125.406L59.9235 125.374L60.0068 125.326L59.5013 124.463ZM58.5348 124.624L58.5409 123.624L58.5329 123.624L58.5249 123.624L58.5348 124.624ZM55.0379 124.643L55.041 125.643L55.041 125.643L55.0379 124.643ZM52.1445 124.657L52.1368 123.656L52.1234 123.657L52.1445 124.657ZM51.0454 124.766L51.1834 125.757L51.0454 124.766ZM51.0452 124.767L50.9072 123.776L49.7151 123.942L50.0968 125.084L51.0452 124.767ZM51.4956 125.783L50.6236 126.273L50.6514 126.322L50.6846 126.368L51.4956 125.783ZM52.5791 127.062L53.3443 126.418L53.3181 126.387L53.2895 126.359L52.5791 127.062ZM54.3165 127.851L54.2879 126.852L54.2872 126.852L54.3165 127.851ZM62.508 127.751L62.4911 128.751L62.4915 128.751L62.508 127.751ZM73.2303 127.998L73.2041 128.997L73.2041 128.997L73.2303 127.998ZM78.5902 128.134L78.6152 127.134L78.614 127.134L78.5902 128.134ZM123.636 72.0724C123.898 71.6618 124.113 71.2219 124.278 70.7614L122.395 70.0881C122.28 70.4081 122.131 70.7127 121.95 70.996L123.636 72.0724ZM121.054 75.23C121.9 74.2167 122.753 73.1939 123.576 72.1554L122.009 70.913C121.204 71.9286 120.367 72.9321 119.519 73.9488L121.054 75.23ZM119.459 77.1546C119.985 76.5116 120.518 75.8727 121.054 75.23L119.519 73.9488C118.983 74.5902 118.444 75.2367 117.911 75.8887L119.459 77.1546ZM118.834 77.9224C119.043 77.6666 119.252 77.4096 119.462 77.1519L117.909 75.8914C117.702 76.1467 117.493 76.4016 117.284 76.6578L118.834 77.9224ZM118.815 77.9447L118.815 77.9446L117.303 76.6356L117.303 76.6356L118.815 77.9447ZM116.383 81.0146C117.166 79.9664 117.992 78.9537 118.834 77.9225L117.284 76.6578C116.447 77.6836 115.593 78.7294 114.78 79.8177L116.383 81.0146ZM112.2 86.739C113.592 84.8228 114.981 82.9101 116.386 81.0109L114.778 79.8215C113.367 81.729 111.973 83.6488 110.582 85.5638L112.2 86.739ZM112.212 86.7218L112.212 86.7218L110.57 85.581L110.57 85.581L112.212 86.7218ZM109.325 90.6869C110.287 89.3733 111.244 88.0554 112.2 86.739L110.582 85.5638C109.626 86.8807 108.671 88.1953 107.711 89.505L109.325 90.6869ZM106.043 90.6368C106.235 90.9074 106.427 91.1794 106.601 91.3757C106.736 91.5282 107.093 91.9201 107.659 91.9366C108.242 91.9536 108.618 91.564 108.76 91.4104C108.939 91.2173 109.134 90.9489 109.326 90.6854L107.71 89.5065C107.659 89.5774 107.612 89.6417 107.568 89.7012C107.524 89.7606 107.485 89.8131 107.449 89.86C107.413 89.9069 107.382 89.9461 107.355 89.9788C107.328 90.0118 107.308 90.0353 107.292 90.0519C107.277 90.0687 107.271 90.0742 107.273 90.0725C107.274 90.071 107.29 90.0568 107.32 90.0382C107.351 90.0192 107.401 89.9922 107.471 89.9707C107.505 89.9599 107.544 89.9508 107.586 89.9448C107.629 89.9387 107.673 89.9361 107.717 89.9374C107.762 89.9387 107.805 89.9439 107.846 89.952C107.886 89.9601 107.923 89.9709 107.955 89.9827C108.018 90.006 108.063 90.0329 108.089 90.0501C108.114 90.0672 108.126 90.0789 108.125 90.0778C108.124 90.0769 108.115 90.0688 108.098 90.0494C108.081 90.0303 108.059 90.0042 108.032 89.9689C108.004 89.9337 107.972 89.8923 107.936 89.8431C107.899 89.794 107.86 89.7393 107.815 89.6778C107.771 89.6161 107.724 89.5497 107.672 89.4767L106.043 90.6368ZM106.016 90.599L106.043 90.6369L107.672 89.4766L107.645 89.4387L106.016 90.599ZM105.335 89.6395L106.014 90.5972L107.646 89.4405L106.967 88.4827L105.335 89.6395ZM105.348 89.6564L105.348 89.6565L106.955 88.4657L106.955 88.4656L105.348 89.6564ZM98.3137 79.8378C100.683 83.0772 103.007 86.3553 105.335 89.6393L106.967 88.4827C104.64 85.2007 102.308 81.9104 99.9279 78.657L98.3137 79.8378ZM97.7218 78.3376C97.7615 78.9135 97.986 79.4638 98.3643 79.9014L99.8773 78.5934C99.7853 78.487 99.7273 78.3485 99.7171 78.1999L97.7218 78.3376ZM98.1455 76.7007C97.8289 77.1855 97.6821 77.7616 97.7218 78.3376L99.7171 78.1999C99.7068 78.0514 99.7453 77.9088 99.8201 77.7943L98.1455 76.7007ZM101.906 69.5504C100.647 71.9638 99.3779 74.373 98.0997 76.7782L99.8659 77.7167C101.146 75.3072 102.418 72.8936 103.679 70.4758L101.906 69.5504ZM103.505 66.5068C102.973 67.5203 102.44 68.5342 101.907 69.5485L103.678 70.4778C104.21 69.4643 104.743 68.451 105.276 67.4374L103.505 66.5068ZM103.51 66.4988L103.506 66.5065L105.276 67.4377L105.28 67.4299L103.51 66.4988ZM103.511 66.4964L103.509 66.4997L105.28 67.429L105.282 67.4258L103.511 66.4964ZM107.715 58.4643C106.324 61.1447 104.918 63.819 103.511 66.4958L105.282 67.4264C106.688 64.7504 108.097 62.0714 109.49 59.3856L107.715 58.4643ZM108.963 54.7144C108.828 56.0304 108.411 57.2937 107.744 58.4131L109.462 59.4368C110.28 58.0644 110.788 56.5208 110.952 54.9184L108.963 54.7144ZM111.663 53.6645C111.471 53.492 111.245 53.3217 110.989 53.2089C110.735 53.0971 110.351 52.9997 109.934 53.1475C109.503 53.3006 109.261 53.6356 109.139 53.9178C109.02 54.1902 108.975 54.4877 108.959 54.7602L110.956 54.8726C110.965 54.7191 110.986 54.6849 110.972 54.7165C110.954 54.7578 110.856 54.9425 110.603 55.0324C110.364 55.1171 110.193 55.0436 110.182 55.039C110.17 55.0335 110.217 55.0538 110.326 55.1517L111.663 53.6645ZM111.834 53.8466C111.822 53.8319 111.753 53.7446 111.661 53.6629L110.328 55.1534C110.302 55.1306 110.286 55.1126 110.281 55.1074C110.279 55.1044 110.278 55.1032 110.279 55.105C110.281 55.1072 110.284 55.11 110.289 55.117L111.834 53.8466ZM111.78 53.7858L111.78 53.7857L110.344 55.1779L110.344 55.178L111.78 53.7858ZM111.826 53.8394C111.832 53.8452 111.836 53.8499 111.839 53.853C111.842 53.8561 111.844 53.8581 111.844 53.8586C111.844 53.859 111.844 53.8585 111.842 53.8564C111.84 53.8541 111.838 53.8514 111.834 53.8467L110.289 55.117C110.299 55.1286 110.338 55.1772 110.385 55.2258L111.826 53.8394ZM114.281 56.6243L111.856 53.8716L110.355 55.1937L112.781 57.9464L114.281 56.6243ZM113.712 59.0406C113.944 58.6151 114.175 58.1908 114.408 57.7664L112.654 56.8043C112.42 57.2317 112.187 57.6587 111.956 58.0837L113.712 59.0406ZM113.71 59.0437L113.712 59.0412L111.956 58.0831L111.955 58.0856L113.71 59.0437ZM112.746 60.8054C113.07 60.2178 113.391 59.6294 113.71 59.0431L111.954 58.0862C111.634 58.6734 111.317 59.2568 110.995 59.8384L112.746 60.8054ZM111.399 63.1794C111.847 62.3925 112.295 61.6038 112.741 60.8134L111 59.8304C110.556 60.6172 110.109 61.4027 109.66 62.1902L111.399 63.1794ZM111.397 63.1821L111.399 63.1795L109.661 62.1901L109.659 62.1927L111.397 63.1821ZM111.399 63.1785L111.4 63.1779L109.657 62.1969L109.656 62.1975L111.399 63.1785ZM109.536 66.4693C110.151 65.3723 110.773 64.2792 111.397 63.1827L109.659 62.1934C109.035 63.2889 108.41 64.3881 107.791 65.4922L109.536 66.4693ZM109.367 66.9489C109.372 66.7962 109.418 66.6523 109.497 66.5334L107.831 65.428C107.544 65.8605 107.385 66.3652 107.368 66.8829L109.367 66.9489ZM108.221 66.6883C108.373 66.5065 108.553 66.421 108.675 66.3815C108.796 66.3428 108.897 66.3357 108.955 66.3345C109.068 66.3323 109.152 66.3512 109.178 66.3572C109.214 66.3656 109.239 66.3739 109.248 66.3773C109.26 66.3813 109.266 66.384 109.267 66.3841C109.267 66.3843 109.258 66.3806 109.242 66.3719C109.226 66.3637 109.207 66.3534 109.188 66.342C109.144 66.3154 109.125 66.2992 109.129 66.3026C109.13 66.3038 109.159 66.3289 109.196 66.3781C109.222 66.4125 109.326 66.5528 109.358 66.7779L107.377 67.0539C107.414 67.3186 107.54 67.5029 107.601 67.5838C107.673 67.6794 107.75 67.7535 107.808 67.8043C107.925 67.907 108.052 67.9924 108.156 68.0549C108.261 68.1185 108.379 68.1804 108.49 68.2274C108.54 68.2485 108.625 68.282 108.724 68.3051C108.769 68.3155 108.869 68.3366 108.994 68.3341C109.064 68.3328 109.459 68.3249 109.754 67.9722L108.221 66.6883ZM109.219 65.5508C108.963 65.9341 108.662 66.2809 108.323 66.5832L109.652 68.0772C110.12 67.6604 110.534 67.1839 110.883 66.6595L109.219 65.5508ZM111.816 61.2804C110.949 62.7196 110.086 64.1535 109.202 65.5777L110.901 66.6326C111.793 65.1951 112.664 63.7497 113.53 62.3124L111.816 61.2804ZM111.817 61.2789L111.817 61.2798L113.529 62.313L113.53 62.3121L111.817 61.2789ZM111.819 61.2761L111.817 61.2793L113.53 62.3117L113.532 62.3085L111.819 61.2761ZM112.741 59.747C112.433 60.2567 112.126 60.7668 111.819 61.2763L113.532 62.3083C113.839 61.7986 114.146 61.2899 114.453 60.7819L112.741 59.747ZM113.068 59.236C112.965 59.3926 112.852 59.5648 112.743 59.7439L114.451 60.785C114.541 60.6373 114.636 60.4913 114.741 60.3305L113.068 59.236ZM113.089 59.2048L113.089 59.2049L114.72 60.3615L114.72 60.3615L113.089 59.2048ZM113.443 58.6381C113.332 58.8306 113.209 59.0191 113.068 59.2359L114.742 60.3304C114.878 60.1214 115.033 59.8855 115.177 59.6354L113.443 58.6381ZM116.079 58.4952C115.965 58.3511 115.821 58.1891 115.647 58.0542C115.475 57.9209 115.206 57.7612 114.854 57.7378C114.055 57.6848 113.62 58.3206 113.436 58.6503L115.184 59.6232C115.234 59.5317 115.241 59.5486 115.185 59.595C115.108 59.6581 114.944 59.7482 114.722 59.7335C114.53 59.7207 114.424 59.637 114.421 59.6345C114.416 59.6303 114.446 59.6541 114.514 59.7402L116.079 58.4952ZM120.571 64.1126C119.06 62.2486 117.564 60.3772 116.082 58.4984L114.512 59.737C115.999 61.6228 117.501 63.5011 119.017 65.372L120.571 64.1126ZM120.458 66.5732C120.635 66.3699 120.919 66.0166 120.998 65.5354C121.087 64.9859 120.881 64.5084 120.582 64.1258L119.007 65.3589C119.051 65.4148 119.046 65.4242 119.035 65.3903C119.029 65.3723 119.022 65.3456 119.02 65.312C119.017 65.2782 119.019 65.2446 119.024 65.2135C119.034 65.1517 119.053 65.1231 119.045 65.1367C119.041 65.1433 119.033 65.1572 119.016 65.1794C118.999 65.2016 118.977 65.2289 118.947 65.263L120.458 66.5732ZM118.69 68.5972C119.279 67.9248 119.869 67.2508 120.458 66.5742L118.948 65.262C118.363 65.9353 117.775 66.6064 117.185 67.2793L118.69 68.5972ZM118.675 68.6132L118.676 68.6131L117.2 67.2634L117.199 67.2636L118.675 68.6132ZM114.395 73.5763C115.799 71.8973 117.24 70.2523 118.69 68.5974L117.185 67.2795C115.738 68.9315 114.281 70.5938 112.861 72.2936L114.395 73.5763ZM111.37 77.4893C112.371 76.1444 113.351 74.8259 114.395 73.5759L112.86 72.2939C111.774 73.5945 110.76 74.9587 109.766 76.2958L111.37 77.4893ZM110.787 78.2729C110.982 78.0116 111.177 77.7499 111.37 77.4893L109.766 76.2958C109.572 76.5568 109.378 76.8167 109.185 77.076L110.787 78.2729ZM110.676 78.4145C110.705 78.3774 110.745 78.3283 110.782 78.2788L109.189 77.0701C109.171 77.0941 109.149 77.1214 109.116 77.1631L110.676 78.4145ZM110.377 77.9346C110.37 77.9304 110.463 77.9885 110.527 78.1403C110.596 78.3037 110.582 78.4536 110.56 78.5361C110.543 78.6009 110.522 78.6203 110.549 78.5798C110.575 78.5414 110.61 78.4964 110.676 78.4144L109.116 77.1631C109.036 77.2628 108.739 77.605 108.628 78.0199C108.561 78.2718 108.546 78.5916 108.686 78.9213C108.821 79.2394 109.054 79.4602 109.286 79.611L110.377 77.9346ZM110.002 77.6812C110.011 77.6714 109.998 77.6874 109.953 77.7191C109.912 77.748 109.866 77.7752 109.826 77.7948C109.779 77.8176 109.774 77.8139 109.809 77.8067C109.828 77.803 109.887 77.792 109.973 77.7978C110.057 77.8034 110.224 77.8288 110.4 77.9501L109.263 79.5955C109.661 79.8703 110.087 79.7912 110.209 79.7665C110.396 79.7283 110.568 79.6582 110.703 79.5925C110.963 79.4658 111.27 79.2632 111.491 79.0171L110.002 77.6812ZM111.26 76.1785C110.835 76.7021 110.426 77.2047 109.999 77.6844L111.494 79.0139C111.955 78.4949 112.392 77.9569 112.812 77.4393L111.26 76.1785ZM111.28 76.1543L111.28 76.1544L112.792 77.4634L112.792 77.4633L111.28 76.1543ZM112.435 74.7666C112.027 75.2342 111.637 75.7146 111.26 76.1784L112.812 77.4392C113.193 76.9707 113.56 76.5184 113.941 76.0825L112.435 74.7666ZM119.344 66.9299C117.016 69.5208 114.721 72.144 112.434 74.7675L113.942 76.0815C116.227 73.4591 118.515 70.8455 120.832 68.2665L119.344 66.9299ZM122.762 67.2741C122.587 66.9848 122.403 66.6972 122.205 66.473C122.015 66.257 121.685 65.9512 121.19 65.8934C120.687 65.8346 120.293 66.0643 120.054 66.2435C119.811 66.4259 119.573 66.6757 119.344 66.9296L120.832 68.2667C120.938 68.1488 121.025 68.0558 121.099 67.9826C121.174 67.9083 121.225 67.8657 121.255 67.8428C121.287 67.8188 121.276 67.8325 121.229 67.8503C121.174 67.8711 121.078 67.8939 120.958 67.8799C120.84 67.8661 120.756 67.8229 120.714 67.7954C120.678 67.7719 120.675 67.7615 120.705 67.7957C120.734 67.8284 120.777 67.8838 120.839 67.9738C120.899 68.0626 120.968 68.1725 121.051 68.3093L122.762 67.2741ZM123.782 69.1285C123.449 68.4928 123.124 67.8718 122.762 67.2737L121.051 68.3097C121.376 68.8456 121.672 69.4105 122.011 70.0568L123.782 69.1285ZM124.218 69.9524C124.066 69.6702 123.923 69.3974 123.782 69.1285L122.011 70.0568C122.151 70.3247 122.298 70.6055 122.455 70.897L124.218 69.9524ZM92.5155 93.111C92.3472 92.9029 92.167 92.704 91.9759 92.5154L90.571 93.9389C90.7092 94.0753 90.8393 94.2188 90.9605 94.3688L92.5155 93.111ZM93.4062 94.3551C93.1213 93.9562 92.8365 93.5575 92.5519 93.1589L90.9241 94.3209C91.2089 94.7198 91.4939 95.1188 91.7787 95.5176L93.4062 94.3551ZM93.4092 94.3593L93.4059 94.3546L91.779 95.518L91.7824 95.5227L93.4092 94.3593ZM97.2472 99.7571C95.9762 97.9529 94.6915 96.1545 93.4095 94.3597L91.7821 95.5222C93.0647 97.3179 94.3455 99.1109 95.6122 100.909L97.2472 99.7571ZM97.9448 100.826C97.727 100.482 97.4974 100.12 97.2529 99.7652L95.6066 100.901C95.8253 101.218 96.0343 101.547 96.2557 101.897L97.9448 100.826ZM97.8478 100.697L97.8478 100.697L96.3527 102.025L96.3527 102.025L97.8478 100.697ZM99.2413 102.671C98.7723 102.128 98.3805 101.513 97.9449 100.826L96.2557 101.897C96.678 102.563 97.1462 103.305 97.7278 103.978L99.2413 102.671ZM99.5099 106.61C99.8267 106.024 100.076 105.374 100.065 104.67C100.054 103.932 99.7597 103.271 99.2413 102.671L97.7278 103.978C98.0037 104.297 98.0627 104.523 98.0655 104.701C98.0688 104.914 97.9941 105.208 97.7508 105.658L99.5099 106.61ZM94.1414 116.871C95.8805 113.428 97.6699 110.008 99.5097 106.61L97.751 105.658C95.9022 109.072 94.1039 112.509 92.3562 115.969L94.1414 116.871ZM92.5933 120.527C92.9851 119.275 93.499 118.059 94.1285 116.895L92.3691 115.944C91.6792 117.22 91.1151 118.555 90.6846 119.93L92.5933 120.527ZM89.2023 126.074C90.4997 124.511 91.9551 122.773 92.6008 120.502L90.6771 119.955C90.1649 121.757 89.0032 123.183 87.6635 124.796L89.2023 126.074ZM86.1056 126.146C86.2826 126.351 86.4794 126.567 86.6892 126.731C86.9043 126.898 87.2474 127.102 87.6977 127.079C88.1326 127.057 88.4507 126.834 88.6429 126.669C88.8381 126.501 89.0267 126.284 89.2009 126.076L87.665 124.795C87.5824 124.894 87.5151 124.972 87.458 125.034C87.4298 125.064 87.4059 125.089 87.3857 125.109C87.3653 125.129 87.3503 125.143 87.34 125.152C87.3297 125.161 87.3263 125.163 87.3295 125.16C87.3326 125.158 87.3449 125.15 87.3657 125.14C87.3869 125.129 87.4179 125.116 87.4581 125.104C87.4989 125.093 87.546 125.084 87.5979 125.082C87.6499 125.079 87.7001 125.083 87.7467 125.091C87.7927 125.1 87.8304 125.112 87.8589 125.124C87.8869 125.135 87.9057 125.146 87.9148 125.151C87.9238 125.157 87.9254 125.158 87.9191 125.154C87.9129 125.149 87.9013 125.139 87.8838 125.123C87.8663 125.107 87.8448 125.086 87.8186 125.059C87.7652 125.004 87.7007 124.933 87.6202 124.84L86.1056 126.146ZM81.7608 121.04C83.1992 122.746 84.6381 124.453 86.1073 126.148L87.6184 124.837C86.1598 123.155 84.7298 121.459 83.29 119.751L81.7608 121.04ZM79.5682 118.445C80.3026 119.31 81.0317 120.175 81.7608 121.04L83.29 119.751C82.5612 118.886 81.8299 118.019 81.0928 117.151L79.5682 118.445ZM79.3964 116.192C79.3139 116.369 79.1372 116.725 79.1062 117.129C79.068 117.625 79.2429 118.071 79.5754 118.454L81.0856 117.142C81.056 117.108 81.0674 117.112 81.082 117.152C81.0891 117.171 81.0951 117.195 81.0983 117.22C81.1016 117.245 81.1015 117.267 81.1003 117.282C81.0981 117.31 81.0932 117.309 81.1103 117.262C81.1185 117.24 81.1301 117.211 81.147 117.173C81.164 117.134 81.1836 117.092 81.2082 117.039L79.3964 116.192ZM83.1791 108.09C81.9306 110.796 80.6703 113.496 79.3981 116.189L81.2064 117.043C82.4813 114.345 83.7442 111.64 84.9952 108.928L83.1791 108.09ZM87.0929 99.4747C85.7924 102.35 84.493 105.223 83.1781 108.092L84.9962 108.925C86.3135 106.051 87.6151 103.174 88.9152 100.299L87.0929 99.4747ZM89.4016 94.378C88.6298 96.0766 87.8612 97.7761 87.0929 99.4747L88.9152 100.299C89.6836 98.6 90.4515 96.9021 91.2225 95.2054L89.4016 94.378ZM90.0346 93.1241C89.8128 93.528 89.5985 93.9438 89.4013 94.3788L91.2228 95.2046C91.3932 94.8289 91.5827 94.4601 91.7877 94.0866L90.0346 93.1241ZM90.6377 92.4552C90.4413 92.617 90.2646 92.8012 90.1118 93.0045L91.7105 94.2062C91.7671 94.131 91.8336 94.0613 91.9092 93.999L90.6377 92.4552ZM84.133 127.233C83.4381 127.22 82.7581 127.21 82.089 127.199L82.0577 129.199C82.7272 129.209 83.4044 129.22 84.096 129.233L84.133 127.233ZM84.3238 127.122C84.1518 127.174 83.9757 127.227 83.8092 127.281L84.4197 129.185C84.5686 129.138 84.7292 129.089 84.9045 129.036L84.3238 127.122ZM85.5074 126.729C85.1542 126.869 84.749 126.993 84.3238 127.122L84.9045 129.036C85.3127 128.912 85.8006 128.764 86.2455 128.588L85.5074 126.729ZM85.3966 127.145C85.4676 127.231 85.4664 127.253 85.4538 127.216C85.4367 127.165 85.4151 127.047 85.4619 126.903C85.5059 126.769 85.5815 126.701 85.5986 126.687C85.6117 126.676 85.5915 126.696 85.5074 126.729L86.2455 128.588C86.5908 128.451 87.156 128.158 87.3629 127.525C87.5871 126.839 87.2464 126.242 86.9354 125.867L85.3966 127.145ZM79.0193 119.331C81.1252 121.952 83.2589 124.552 85.3943 127.142L86.9376 125.87C84.8034 123.281 82.6762 120.689 80.5784 118.078L79.0193 119.331ZM78.9553 119.241C78.95 119.24 78.9535 119.239 78.9591 119.247L80.6386 118.161C80.3772 117.757 79.979 117.455 79.5109 117.32L78.9553 119.241ZM78.9775 119.239C78.9744 119.24 78.9704 119.242 78.966 119.242C78.9617 119.242 78.9579 119.242 78.9553 119.241L79.5109 117.32C79.0419 117.184 78.5403 117.227 78.1009 117.441L78.9775 119.239ZM75.5078 120.134C76.6626 119.973 77.7963 119.686 78.8896 119.277L78.1889 117.404C77.2327 117.761 76.2415 118.012 75.2322 118.153L75.5078 120.134ZM73.9139 120.275C74.4296 120.229 74.9427 120.183 75.4552 120.14L75.2848 118.147C74.7679 118.191 74.2509 118.237 73.7359 118.283L73.9139 120.275ZM65.702 120.722C68.4624 120.763 71.2225 120.516 73.9139 120.275L73.7359 118.283C71.0266 118.525 68.3707 118.762 65.7322 118.722L65.702 120.722ZM47.5268 119.44C53.5852 120.48 59.6901 120.605 65.6977 120.722L65.7365 118.722C59.7069 118.605 53.7511 118.479 47.8649 117.469L47.5268 119.44ZM48.1268 118.544C48.0684 118.438 48.0862 118.442 48.0993 118.518C48.1151 118.61 48.1351 118.925 47.868 119.196C47.7545 119.312 47.6348 119.368 47.5567 119.394C47.4815 119.419 47.4277 119.423 47.414 119.424C47.3929 119.425 47.42 119.422 47.5256 119.44L47.866 117.469C47.7036 117.441 47.5019 117.416 47.2982 117.427C47.1208 117.438 46.7452 117.486 46.4425 117.794C46.0922 118.149 46.0823 118.59 46.1283 118.857C46.1715 119.109 46.2795 119.337 46.3783 119.515L48.1268 118.544ZM49.8782 121.506C49.2383 120.57 48.6591 119.591 48.1443 118.577L46.3607 119.482C46.9146 120.573 47.538 121.627 48.227 122.635L49.8782 121.506ZM50.6905 121.891C50.3557 121.844 50.0393 121.676 49.8011 121.407L48.304 122.734C48.8515 123.352 49.5976 123.758 50.4141 123.872L50.6905 121.891ZM54.841 122.295C53.4559 122.233 52.074 122.099 50.7007 121.893L50.4039 123.87C51.8458 124.087 53.2969 124.228 54.7515 124.293L54.841 122.295ZM57.167 122.369C56.3783 122.355 55.6138 122.34 54.855 122.296L54.7375 124.292C55.5433 124.34 56.3482 124.354 57.1301 124.369L57.167 122.369ZM59.4394 122.439C58.6735 122.397 57.9094 122.383 57.167 122.369L57.1301 124.369C57.8786 124.383 58.6064 124.396 59.33 124.436L59.4394 122.439ZM60.5797 123.078C60.5136 123.01 60.3862 122.875 60.2431 122.762C60.1083 122.656 59.8325 122.464 59.4496 122.439L59.3198 124.435C59.2038 124.428 59.1184 124.395 59.0714 124.372C59.0476 124.361 59.0306 124.35 59.0208 124.344C59.0157 124.341 59.012 124.338 59.0096 124.336C59.0072 124.335 59.006 124.334 59.0059 124.334C59.0058 124.334 59.0067 124.334 59.0085 124.336C59.0103 124.337 59.0129 124.34 59.0163 124.343C59.0233 124.349 59.0326 124.358 59.0447 124.369C59.0708 124.395 59.099 124.424 59.1401 124.467L60.5797 123.078ZM60.7127 123.21C60.6931 123.194 60.6622 123.164 60.5797 123.078L59.1401 124.467C59.2029 124.532 59.3171 124.652 59.4437 124.756L60.7127 123.21ZM60.0068 125.326C60.318 125.143 60.597 124.911 60.8335 124.638L59.3228 123.328C59.2279 123.437 59.1173 123.529 58.9959 123.6L60.0068 125.326ZM58.5287 125.624C58.9727 125.627 59.4134 125.553 59.8324 125.406L59.1703 123.519C58.9678 123.59 58.7552 123.626 58.5409 123.624L58.5287 125.624ZM55.041 125.643C56.207 125.639 57.3761 125.636 58.5447 125.624L58.5249 123.624C57.3643 123.636 56.202 123.639 55.0348 123.643L55.041 125.643ZM52.1522 125.657C53.1145 125.649 54.0767 125.646 55.041 125.643L55.0348 123.643C54.0713 123.646 53.1044 123.649 52.1368 123.657L52.1522 125.657ZM51.1834 125.757C51.5583 125.705 51.8692 125.663 52.1656 125.656L52.1234 123.657C51.6895 123.666 51.2613 123.727 50.9074 123.776L51.1834 125.757ZM51.1832 125.757L51.1834 125.757L50.9074 123.776L50.9072 123.776L51.1832 125.757ZM52.3675 125.294C52.2169 125.025 52.0916 124.743 51.9936 124.449L50.0968 125.084C50.2347 125.496 50.4111 125.894 50.6236 126.273L52.3675 125.294ZM53.2895 126.359C52.9331 125.999 52.6044 125.611 52.3065 125.198L50.6846 126.368C51.0431 126.865 51.4391 127.333 51.8688 127.766L53.2895 126.359ZM53.7762 126.748C53.6132 126.674 53.4651 126.562 53.3443 126.418L51.814 127.706C52.1239 128.075 52.5113 128.37 52.9494 128.569L53.7762 126.748ZM54.2872 126.852C54.1136 126.857 53.9391 126.822 53.7762 126.748L52.9494 128.569C53.3877 128.768 53.8649 128.865 54.3458 128.851L54.2872 126.852ZM62.525 126.752C59.7721 126.705 57.019 126.773 54.2879 126.852L54.3452 128.851C57.0764 128.772 59.7886 128.705 62.4911 128.751L62.525 126.752ZM73.2565 126.998C69.6847 126.905 66.1073 126.811 62.5246 126.752L62.4915 128.751C66.063 128.811 69.6308 128.904 73.2041 128.997L73.2565 126.998ZM78.614 127.134C76.8283 127.092 75.0431 127.045 73.2565 126.998L73.2041 128.997C74.9904 129.044 76.778 129.091 78.5664 129.133L78.614 127.134ZM82.089 127.199C80.9086 127.181 79.7622 127.163 78.6152 127.134L78.5652 129.133C79.7232 129.162 80.8789 129.18 82.0577 129.199L82.089 127.199Z" fill="#E8E9E9"/>
<path d="M42.5735 115.864C42.3054 113.52 42.8502 111.285 43.3273 109.06C44.8434 102.38 46.85 95.8204 49.3307 89.435C52.8684 79.8188 57.2321 70.5266 62.3727 61.6625C64.4469 58.1145 66.5934 54.5883 69.5207 51.6285C69.8107 51.3636 70.0428 51.0416 70.2026 50.6829C70.7028 49.3106 71.7406 48.8204 73.0929 48.5257C76.3157 47.9089 79.6083 47.74 82.8773 48.0238C89.9842 48.4585 97.0778 49.0652 104.177 49.6339C106.407 49.7821 108.585 50.3763 110.581 51.3813C112.577 52.3862 114.351 53.7816 115.798 55.4846C118.657 58.7494 121.415 62.0974 124.142 65.4869C124.899 66.5186 125.556 67.6197 126.105 68.7754C126.539 69.5007 126.732 70.3441 126.659 71.1857C126.585 72.0273 126.248 72.8243 125.695 73.4634C124.488 74.9925 123.22 76.4664 121.972 77.9642C121.121 78.9919 120.234 79.9927 119.399 81.0287C117.623 83.238 115.809 85.4153 114.132 87.6905C112.316 90.1499 110.574 92.6893 108.908 95.2342C107.123 97.9179 105.309 100.59 103.707 103.402C101.155 107.834 98.6933 112.318 96.3225 116.856C95.1285 119.183 94.0608 121.573 93.1242 124.016C91.754 127.503 89.3788 129.769 85.6839 130.502C84.4751 130.674 83.2561 130.762 82.0353 130.766C79.76 130.886 77.4845 131.044 75.2087 131.084C71.5965 131.152 67.9861 131.155 64.3727 131.137C61.8707 131.119 59.3714 130.967 56.873 130.975C55.3927 131.028 53.9205 130.733 52.5747 130.115C51.2288 129.496 50.0467 128.571 49.1231 127.414C46.7829 124.645 44.8319 121.57 43.3241 118.274C43.0261 117.486 42.7754 116.682 42.5735 115.864ZM52.9669 90.5712C52.521 90.5372 52.0772 90.6614 51.7138 90.9221C51.3504 91.1828 51.0905 91.5632 50.9798 91.9964C48.7375 98.2315 46.4995 104.461 44.7862 110.867C44.3832 112.363 45.2379 113.536 45.5477 114.844C45.6079 115.085 46.0325 115.308 46.3286 115.41C46.9004 115.624 47.4938 115.775 48.0984 115.86C50.0908 116.114 52.0727 116.369 54.0724 116.484C58.5663 116.677 63.0649 116.826 67.5639 116.864C70.2834 116.879 72.9988 116.596 75.7122 116.452C76.3754 116.467 77.0388 116.43 77.6962 116.34C79.5196 115.953 80.2467 114.417 80.7733 112.929C83.0935 106.375 85.105 99.7041 88.0248 93.3694C88.3634 92.631 88.0843 92.3456 87.3419 92.2842C86.4528 92.2008 85.5667 92.1009 84.6814 92.0063C84.3272 91.9396 83.9608 92.0025 83.6492 92.1835C83.3375 92.3646 83.1014 92.6517 82.984 92.9924C81.2749 96.4896 79.4803 99.9455 77.7318 103.427C77.5636 103.807 77.293 104.133 76.9502 104.369C76.6074 104.604 76.2058 104.74 75.7904 104.761C75.1278 104.789 74.4749 104.931 73.8597 105.178C72.0771 106.049 71.5995 107.163 71.888 109.425C72.1445 111.266 71.5478 111.907 69.7053 111.813C65.9562 111.623 62.1609 111.444 58.388 111.236C55.6026 111.093 55.4768 110.876 56.2186 108.147C56.7385 106.229 55.9737 104.9 54.1181 104.521C51.9253 104.05 51.6557 103.604 52.4967 101.472C52.541 101.37 52.5912 101.273 52.6296 101.166C53.7812 97.9807 54.97 94.7953 56.115 91.6C56.4324 90.7104 56.3634 90.635 55.448 90.6296C54.5325 90.6242 53.8027 90.5771 52.9669 90.5712ZM123.958 70.4623C123.431 69.5043 123.005 68.6598 122.532 67.8591C121.841 66.7219 121.607 66.6801 120.677 67.6763C118.295 70.241 115.945 72.8386 113.601 75.4407C112.744 76.3895 111.96 77.4026 111.096 78.3417C110.869 78.5859 110.319 78.87 110.16 78.7644C109.61 78.3999 110.051 77.9769 110.323 77.6785C111.549 76.0935 112.756 74.4899 114.061 72.9789C116.099 70.6215 118.2 68.335 120.292 66.018C120.618 65.6535 120.773 65.313 120.39 64.8559C118.852 63.0251 117.331 61.1795 115.827 59.3191C115.452 58.8397 115.156 58.7747 114.82 59.3425C114.591 59.7252 114.327 60.081 114.088 60.46C112.878 62.3883 111.68 64.3256 110.443 66.2471C110.132 66.697 109.765 67.1053 109.352 67.4625C109.3 67.5122 108.727 67.2146 108.721 67.0559C108.733 66.7246 108.84 66.4038 109.028 66.1306C110.117 64.2562 111.23 62.3946 112.326 60.5247C112.909 59.5236 113.472 58.5202 114.034 57.5168L111.572 54.8081C111.535 54.7707 111.501 54.7222 111.459 54.6856C110.853 54.1533 110.452 54.2517 110.399 55.0937C110.24 56.5361 109.761 57.925 108.998 59.1594C107.02 62.8269 105.014 66.4824 103.019 70.1417C101.721 72.5307 100.414 74.9192 99.098 77.3071C98.897 77.6041 98.8008 77.9596 98.8246 78.3174C98.8484 78.6752 98.991 79.0148 99.2296 79.2825C101.873 82.7953 104.468 86.3467 107.047 89.8899C107.913 91.0717 107.911 91.0933 108.768 89.9583C111.19 86.7659 113.581 83.5459 116.02 80.3618C117.033 79.0404 118.122 77.7775 119.205 76.4996C120.606 74.8422 122.034 73.2185 123.419 71.5529C123.639 71.2107 123.82 70.8448 123.958 70.4623ZM58.0244 77.059C57.5299 77.0216 57.1265 77.5616 56.8186 78.2903C55.6132 81.09 54.3312 83.8737 53.1273 86.6837C52.5302 88.0854 52.7728 88.3759 54.2471 88.3088C56.5194 88.2049 58.7895 88.0853 61.0638 88.0343C67.1737 87.9285 73.2848 88.1598 79.3692 88.7271C82.4111 88.9944 85.4444 89.3906 88.4769 89.7815C88.765 89.8638 89.074 89.8291 89.3367 89.685C89.5994 89.5409 89.7946 89.299 89.88 89.0118C91.2173 86.1672 92.6277 83.3124 94.0068 80.462C94.3782 79.6925 94.3008 79.48 93.464 79.3521C92.0353 79.1364 90.599 78.9803 89.1657 78.8078C80.5611 77.7418 71.902 77.173 63.2317 77.1044L58.0244 77.059ZM78.6788 54.457C79.7221 54.5402 80.9947 54.666 82.269 54.7277C85.6538 54.9367 89.0401 55.1188 92.4204 55.3337C93.7937 55.4188 94.2561 56.104 93.9006 57.4455C93.8455 57.6605 93.7575 57.8695 93.6912 58.0807C93.0767 60.0059 93.5211 60.9435 95.4133 61.7379C95.6677 61.846 95.9691 61.9103 96.1936 62.0332C97.5032 62.6536 97.7276 63.2337 97.1517 64.558C95.7182 67.8201 94.2722 71.0679 92.844 74.3292C91.9069 76.4588 91.919 76.3933 94.1607 76.719C95.3713 76.8959 96.033 76.607 96.6463 75.4742C100.278 68.7159 103.997 62.0093 107.719 55.3236C107.806 55.2156 107.87 55.0916 107.909 54.9586C107.948 54.8256 107.96 54.6863 107.944 54.5487C107.929 54.4111 107.887 54.2778 107.82 54.1565C107.753 54.0352 107.663 53.9283 107.555 53.8418C107.144 53.4862 106.653 53.2354 106.124 53.1109C104.818 52.8275 103.496 52.621 102.166 52.4926C96.1276 51.9782 90.0876 51.4533 84.0435 51.0513C80.941 50.8455 77.8258 50.8915 74.7168 50.8302C72.9516 50.7943 71.915 51.5608 70.9953 53.2041C68.7442 57.2393 66.0651 60.9886 63.725 64.9565C61.9483 67.9686 60.4043 71.1238 58.7956 74.2348C58.3389 75.1172 58.4649 75.2591 59.5389 75.1042C60.3631 74.9894 61.1945 74.5439 61.9733 74.6374C63.4237 74.8181 63.878 73.9946 64.4434 72.9376C66.4477 69.1547 68.5443 65.4228 70.6125 61.6789C71.1598 60.6829 71.813 60.0655 73.144 60.3054C73.6763 60.3914 74.2221 60.3092 74.7055 60.0703C75.1889 59.8314 75.5857 59.4477 75.8406 58.9727C76.3123 58.103 76.6694 57.1758 76.9029 56.2143C77.1898 55.1057 77.5423 54.6206 78.6788 54.457ZM72.4707 62.6109C72.1929 62.8692 71.9441 63.157 71.7288 63.4692C69.9229 66.6662 68.1326 69.8734 66.358 73.0908C65.762 74.1574 65.791 74.1747 66.9572 74.2621C67.1776 74.2792 67.4018 74.2852 67.6267 74.2964C72.5666 74.5598 77.5112 74.7801 82.4449 75.1135C84.5501 75.2614 86.6449 75.6395 88.7347 75.9438C89.4778 76.0476 89.7781 75.7984 90.054 75.0688C91.236 71.7709 92.4796 68.4946 93.7846 65.2398C94.0679 64.5251 94.2287 64.1146 93.3796 63.6693C91.3276 62.5676 90.2101 60.921 90.7491 58.4534C90.8929 57.806 90.5401 57.7542 90.0053 57.733C86.8966 57.5972 83.7888 57.4294 80.6765 57.2676C79.3903 57.1969 79.3896 57.1917 78.9092 58.4389C77.7599 61.4115 76.1365 62.5468 73.0107 62.6314C72.8997 62.6362 72.7865 62.6254 72.4707 62.6109ZM59.0006 106.281C58.9899 106.736 58.9465 107.19 58.8707 107.639C58.6989 108.391 59.0043 108.599 59.7052 108.629C62.2039 108.738 64.7032 108.889 67.2048 109.019C68.485 109.085 68.6999 108.986 68.7975 107.702C69.0449 104.478 71.3884 102.556 74.122 102.175C74.532 102.133 74.9214 101.974 75.2446 101.718C75.5678 101.462 75.8113 101.119 75.9468 100.73C76.5894 99.3115 77.2581 97.8892 77.972 96.5244C78.6859 95.1596 79.4513 93.7823 80.2203 92.4311C80.5545 91.8529 80.3683 91.6236 79.7569 91.5865C79.4777 91.5669 79.2142 91.5079 78.9282 91.4787C72.3979 90.8162 65.8371 90.4987 59.2733 90.5273C58.7415 90.527 58.3604 90.6545 58.1623 91.2563C57.1196 94.4852 56.0421 97.7065 54.9299 100.92C54.677 101.663 54.7586 101.981 55.5974 102.199C57.5955 102.723 58.5288 104.231 59.0006 106.281ZM91.39 93.2089C91.2563 93.3239 91.137 93.4548 91.0349 93.5986C90.8294 93.9941 90.6142 94.3962 90.4586 94.806C88.4482 99.4616 86.4862 104.121 84.4803 108.771C83.2908 111.531 82.0786 114.282 80.8439 117.024C80.654 117.454 80.515 117.793 80.8792 118.231C83.0316 120.855 85.1363 123.518 87.2977 126.13C87.9824 126.96 88.1538 126.931 88.8279 126.082C90.1028 124.469 91.3681 122.862 91.9191 120.787C92.3042 119.448 92.814 118.149 93.4418 116.906C95.1227 113.397 96.8489 109.908 98.6205 106.439C99.1597 105.386 99.2565 104.554 98.46 103.569C97.6634 102.585 97.1107 101.519 96.4372 100.502C94.9099 98.2424 93.3625 95.9911 91.8202 93.7391C91.6868 93.562 91.5442 93.3919 91.393 93.2297L91.39 93.2089ZM84.3533 128.433C84.8984 128.262 85.5449 128.092 86.161 127.857C86.7771 127.622 86.9429 127.286 86.4599 126.72C84.3027 124.176 82.1499 121.627 80.0263 119.057C79.8917 118.854 79.6883 118.706 79.4535 118.641C79.2188 118.577 78.9685 118.598 78.7486 118.703C77.7063 119.085 76.6261 119.355 75.5264 119.508C72.2636 119.793 68.9848 120.154 65.7201 120.12C59.6108 120.051 53.4658 119.955 47.4224 118.947C46.8782 118.858 46.6268 118.962 46.9697 119.515C47.5079 120.551 48.1143 121.55 48.785 122.506C49.182 122.941 49.7203 123.222 50.3047 123.299C51.7334 123.501 53.1714 123.631 54.6132 123.687C56.1616 123.769 57.72 123.733 59.2729 123.809C59.5141 123.823 59.7416 124.158 59.9749 124.344C59.8057 124.533 59.6072 124.693 59.387 124.819C59.0709 124.928 58.7389 124.983 58.4046 124.983C56.2444 125.012 54.0805 125.016 51.9143 125.042C51.5433 125.051 51.1698 125.119 50.7973 125.155C50.9156 125.502 51.0673 125.837 51.2504 126.155C51.5818 126.602 51.9479 127.022 52.3454 127.411C52.5631 127.663 52.8342 127.862 53.1389 127.995C53.4436 128.129 53.7742 128.192 54.1066 128.181C56.8809 128.092 59.6566 128.014 62.4267 128.048C67.8761 128.113 73.3147 128.254 78.7587 128.357C80.5776 128.396 82.4085 128.406 84.3533 128.433ZM100.883 102.03C101.058 101.917 101.218 101.783 101.359 101.629C102.867 99.17 104.397 96.7133 105.837 94.2213C105.909 94.0293 105.938 93.8236 105.922 93.6191C105.905 93.4145 105.844 93.2161 105.741 93.0384C103.173 89.0738 100.561 85.1366 97.979 81.1846C97.5589 80.536 97.3359 80.6149 97.0208 81.2543C95.7056 83.9523 94.3844 86.6457 93.0179 89.319C92.7931 89.6994 92.7038 90.1447 92.7647 90.5824C92.8257 91.02 93.0333 91.424 93.3536 91.7285C94.8045 93.4775 96.2045 95.2815 97.5455 97.1202C98.5248 98.4618 99.3793 99.9005 100.302 101.293C100.474 101.543 100.66 101.783 100.859 102.012L100.883 102.03Z" fill="#D0D3D3"/>
<path d="M52.8128 90.3313C53.6541 90.3356 54.4932 90.3244 55.3314 90.3449C56.1696 90.3655 56.3146 90.4456 56.0011 91.3081C54.8375 94.4865 53.6718 97.6493 52.4752 100.822C52.4364 100.927 52.3856 101.024 52.3408 101.126C51.4904 103.246 51.7346 103.693 53.9674 104.153C55.8242 104.528 56.5917 105.848 56.0753 107.753C55.3236 110.467 55.4477 110.666 58.2535 110.819C62.03 111.022 65.8502 111.192 69.6448 111.372C71.4994 111.462 72.0802 110.826 71.8464 108.994C71.5338 106.75 72.0429 105.639 73.8389 104.771C74.4587 104.523 75.1161 104.382 75.7832 104.352C76.2014 104.331 76.6059 104.195 76.9514 103.96C77.297 103.726 77.5699 103.401 77.7399 103.023C79.5064 99.5596 81.3192 96.1217 83.046 92.643C83.1648 92.3042 83.4029 92.0184 83.717 91.8379C84.031 91.6574 84.3999 91.5942 84.7564 91.6599C85.6474 91.7523 86.5392 91.8499 87.434 91.9313C88.1603 91.9939 88.4407 92.277 88.1196 93.0085C85.1689 99.3095 83.1319 105.943 80.7844 112.461C80.2515 113.94 79.5167 115.469 77.6805 115.857C77.0186 115.946 76.3508 115.985 75.6831 115.971C72.9515 116.119 70.2176 116.405 67.4801 116.396C62.9535 116.382 58.4231 116.226 53.8997 116.043C51.8906 115.958 49.8909 115.671 47.8872 115.433C47.2788 115.349 46.6816 115.201 46.1064 114.989C45.8085 114.888 45.3816 114.667 45.3214 114.428C45.012 113.129 44.1515 111.949 44.5621 110.476C46.2985 104.107 48.5625 97.9121 50.8311 91.7114C50.9505 91.2918 51.213 90.9252 51.5741 90.6737C51.9352 90.4222 52.3728 90.3013 52.8128 90.3313Z" fill="white"/>
<path d="M57.9431 77.1464L63.1207 77.1591C71.7449 77.1988 80.3564 77.725 88.9121 78.7351C90.3373 78.8984 91.7655 79.0458 93.186 79.2511C94.018 79.373 94.0944 79.5794 93.7225 80.3291C92.3418 83.1061 90.93 85.8874 89.5908 88.6586C89.505 88.9382 89.31 89.1741 89.0483 89.3151C88.7865 89.4561 88.4791 89.4908 88.1927 89.4117C85.1775 89.0409 82.1615 88.665 79.1365 88.4145C73.0861 87.8817 67.008 87.6758 60.9301 87.7977C58.6677 87.8545 56.4092 87.9778 54.1486 88.086C52.6819 88.156 52.4415 87.8741 53.0398 86.5088C54.244 83.7564 55.5145 81.062 56.7377 78.3327C57.0485 77.6381 57.4514 77.1116 57.9431 77.1464Z" fill="white"/>
<path d="M78.5861 54.5059C77.4485 54.6644 77.0813 55.16 76.8066 56.2427C76.5739 57.2109 76.2176 58.1444 75.7465 59.02C75.4919 59.4982 75.0953 59.8842 74.6119 60.1244C74.1285 60.3645 73.5825 60.4468 73.0498 60.3597C71.718 60.1168 71.0651 60.738 70.5185 61.7407C68.4529 65.5097 66.3611 69.2823 64.3572 73.0748C63.7926 74.1389 63.3389 74.968 61.8877 74.7846C61.1084 74.6896 60.2763 75.1323 59.4525 75.2524C58.3775 75.4022 58.2519 75.2643 58.708 74.376C60.3145 71.2441 61.8533 68.0466 63.6308 65.0354C65.9683 61.0411 68.6421 57.2463 70.8933 53.2051C71.8119 51.5507 72.8497 50.7902 74.6144 50.8175C77.7248 50.8822 80.8415 50.839 83.9457 51.0492C89.993 51.4599 96.0363 51.9944 102.078 52.5183C103.409 52.6489 104.731 52.8581 106.038 53.1448C106.568 53.2707 107.059 53.5238 107.471 53.8825C107.579 53.9696 107.67 54.0774 107.736 54.1997C107.803 54.3219 107.846 54.4562 107.861 54.5948C107.877 54.7335 107.865 54.8737 107.826 55.0076C107.787 55.1415 107.723 55.2664 107.636 55.3751C103.922 62.1266 100.208 68.8781 96.5778 75.6607C95.9675 76.8168 95.3036 77.0914 94.0923 76.9121C91.8492 76.5819 91.8371 76.6478 92.7726 74.5038C94.1984 71.2203 95.642 67.9503 97.0729 64.6661C97.6494 63.3433 97.4243 62.7587 96.1121 62.1221C95.8612 62.0018 95.5856 61.933 95.331 61.8239C93.4364 61.0167 92.9917 60.0772 93.6047 58.1387C93.6708 57.926 93.7586 57.7156 93.8135 57.4991C94.1575 56.1497 93.7046 55.4576 92.3306 55.3706C88.9485 55.1509 85.5604 54.9642 82.1738 54.7505C80.9011 54.7028 79.63 54.5907 78.5861 54.5059Z" fill="white"/>
<path d="M72.2112 62.8684C72.5234 62.883 72.6353 62.8939 72.7399 62.8899C75.8321 62.8241 77.4373 61.7065 78.5673 58.7245C79.0411 57.4843 79.0418 57.4895 80.3133 57.5609C83.3902 57.7247 86.4627 57.8943 89.536 58.0321C90.0646 58.0537 90.4135 58.1056 90.2719 58.7494C89.7391 61.188 90.8423 62.8433 92.877 63.9404C93.719 64.3996 93.5582 64.7923 93.2787 65.503C92.0028 68.7451 90.7763 72.0032 89.5994 75.2774C89.3376 76.0015 89.0306 76.2505 88.296 76.1466C86.2298 75.842 84.1586 75.4641 82.0772 75.3151C77.1996 74.9791 72.3114 74.7556 67.4277 74.4892C67.2053 74.4779 66.9837 74.4717 66.7658 74.4545C65.6129 74.3665 65.5842 74.3493 66.1724 73.2888C67.9244 70.0932 69.6914 66.9044 71.4734 63.7223C71.6875 63.4113 71.935 63.125 72.2112 62.8684Z" fill="#E8E9E9"/>
<path d="M58.8202 106.183C58.3469 104.103 57.421 102.575 55.4424 102.036C54.6144 101.813 54.533 101.492 54.7801 100.744C55.8608 97.5118 56.9136 94.267 57.9385 91.0101C58.1297 90.3881 58.4817 90.2801 59.0321 90.2785C65.5066 90.27 71.9791 90.6107 78.4227 91.299C78.6946 91.3308 78.9598 91.3904 79.2405 91.4103C79.8437 91.4496 80.0266 91.6708 79.7002 92.2633C78.9458 93.6234 78.1922 94.9887 77.4952 96.3837C76.7982 97.7787 76.14 99.1897 75.5106 100.618C75.3782 101.01 75.139 101.355 74.821 101.612C74.503 101.869 74.1195 102.028 73.7151 102.07C71.025 102.482 68.7143 104.375 68.4803 107.626C68.388 108.92 68.1506 109.023 66.9133 108.949C64.4504 108.809 61.9846 108.649 59.5144 108.532C58.8179 108.5 58.5211 108.289 58.6882 107.531C58.7634 107.086 58.8075 106.635 58.8202 106.183Z" fill="#E8E9E9"/>
<path d="M100.566 101.887C100.333 101.66 100.114 101.42 99.9116 101.167C98.961 99.7933 98.0815 98.3727 97.0714 97.0493C95.71 95.2324 94.2434 93.4565 92.7453 91.7323C92.414 91.4327 92.2008 91.0335 92.1404 90.6C92.08 90.1665 92.176 89.7242 92.4128 89.3455C93.8542 86.6851 95.2485 84.005 96.6367 81.3205C96.9692 80.6843 97.2019 80.6044 97.6347 81.2446C100.295 85.1452 102.986 89.031 105.632 92.9442C105.737 93.1198 105.8 93.316 105.816 93.5187C105.832 93.7215 105.8 93.9257 105.723 94.1165C104.196 96.5992 102.597 99.0445 101.01 101.493C100.879 101.641 100.73 101.773 100.566 101.887Z" fill="white"/>
<path d="M148.518 52.4C147.699 52.3163 146.873 52.4296 146.107 52.7305C145.342 53.0314 144.66 53.5111 144.119 54.1293C143.999 54.2547 143.862 54.3624 143.712 54.4492C143.117 54.8095 142.608 54.8268 142.267 54.5126C141.854 54.1322 141.64 53.3454 142.016 52.8612C142.643 52.0542 143.307 51.2126 144.134 50.6362C145.798 49.4833 147.752 49.0193 149.769 49.0568C152.02 49.0942 154.078 49.884 155.947 51.1002C157.286 51.9794 158.359 53.2074 159.048 54.651C160.049 56.6731 160.266 58.9926 159.658 61.1646C158.739 64.7816 156.346 66.8971 152.884 67.926C150.824 68.5399 148.717 68.9953 146.651 69.5919C144.689 70.1622 142.969 71.3578 141.753 72.9957C141.431 73.4021 141.075 73.7792 140.686 74.1226C140.27 74.5001 139.348 74.5866 139.002 74.2696C138.779 74.0949 138.613 73.858 138.525 73.5891C138.438 73.3201 138.433 73.0313 138.51 72.7593C138.831 71.5909 139.508 70.5507 140.446 69.7821C142.741 67.8713 145.512 67.07 148.327 66.3985C150.197 65.9518 151.98 65.3523 153.456 64.0928C155.537 62.3001 156.777 60.078 156.314 57.2881C156.054 55.7231 155.008 54.4867 153.612 53.6595C152.055 52.7142 150.685 52.4058 148.518 52.4Z" fill="#D0D3D3"/>
<path d="M138.476 81.2857C138.476 82.5625 137.73 83.4675 136.655 83.4906C135.393 83.5194 134.43 82.6836 134.407 81.5336C134.375 80.1473 135.179 79.3057 136.52 79.3086C137.86 79.3115 138.479 79.9427 138.476 81.2857Z" fill="#D0D3D3"/>
<path d="M2.49432 61.66C2.4076 59.4426 3.70974 57.5811 5.05328 55.7855C6.76241 53.5005 8.92081 51.7554 11.7208 50.9047C14.3124 50.1156 16.8421 50.2132 19.2366 51.5341C20.8037 52.387 22.0279 53.7533 22.7022 55.402C23.5256 57.2051 23.9107 59.1762 23.8265 61.1552C23.683 63.5883 23.7011 66.0325 23.6964 68.4738C23.6579 70.3785 24.1888 72.2517 25.2213 73.8551C25.5933 74.3386 25.7611 74.9479 25.689 75.5528C25.5347 76.5038 24.6464 76.9351 23.8777 76.3649C23.4581 76.0662 23.1161 75.672 22.8801 75.2149C21.7911 72.9561 20.8651 70.6273 20.8774 68.0766C20.8842 66.8317 21.1178 65.5886 21.258 64.3484C21.5773 61.4224 21.0101 58.4675 19.6294 55.8651C18.7888 54.2175 17.296 53.3553 15.5607 52.9513C15.0486 52.8305 14.4484 53.001 13.9075 53.1148C9.8921 53.9765 7.09665 56.2883 5.6031 60.1183C5.32311 60.836 4.97004 61.5565 4.86683 62.3046C4.7394 63.2269 4.85578 64.179 4.8137 65.1175C4.79139 65.5773 4.72573 66.034 4.61763 66.4814C4.57273 66.7179 4.44268 66.9297 4.25197 67.077C4.06127 67.2242 3.82308 67.2968 3.58232 67.281C3.30251 67.2579 3.03862 67.1414 2.83327 66.9503C2.62792 66.7592 2.49309 66.5047 2.45058 66.2278C2.33556 65.3371 2.27324 64.4404 2.26394 63.5424C2.30161 62.9107 2.37855 62.2821 2.49432 61.66Z" fill="#D0D3D3"/>
<path d="M27.6659 82.7372C27.6942 82.471 27.7753 82.2132 27.9045 81.9787C28.0337 81.7443 28.2085 81.5378 28.4185 81.3714C28.6285 81.2049 28.8697 81.0819 29.1279 81.0093C29.3862 80.9368 29.6563 80.9163 29.9227 80.9489C30.4103 81.0491 30.8438 81.3251 31.1404 81.7241C31.437 82.123 31.5757 82.617 31.53 83.1114C31.3941 84.2213 30.2611 85.1773 29.2235 85.0445C28.2482 84.9252 27.5167 83.8368 27.6659 82.7372Z" fill="#D0D3D3"/>
<path d="M82.0286 22.5951C81.9737 19.834 83.1267 17.6032 84.9733 15.652C85.8605 14.7154 86.7534 13.7758 87.5741 12.7699C88.441 11.6949 88.704 10.3432 88.7965 9.02317C88.8064 8.20509 88.6223 7.39625 88.259 6.66271C87.6195 5.18664 86.5078 3.96338 85.0976 3.184C84.394 2.80227 83.6141 2.58148 82.8144 2.53761C82.0147 2.49374 81.2152 2.62791 80.4739 2.93038C79.6175 3.23096 78.8204 3.67866 78.1187 4.25327C77.5099 4.79503 77.0428 5.47664 76.7576 6.23905C76.4574 7.17447 76.2683 8.14179 76.1941 9.12117C76.0901 9.9858 75.7722 10.5622 75.2376 10.5795C74.5903 10.5795 74.1395 10.0175 74.047 9.13846C73.7783 6.48691 74.6741 4.19564 76.4022 2.26462C77.1845 1.39575 78.2022 0.77115 79.3324 0.46616C81.3314 -0.0925692 83.438 -0.149979 85.4646 0.29901C88.0134 0.858141 89.6924 2.52401 90.6662 4.9104C91.5968 7.1088 91.7775 9.55123 91.1806 11.8621C90.7129 13.8553 89.5441 15.6152 87.8862 16.8222C86.2383 17.9643 85.0826 19.6839 84.6497 21.6382C84.5485 22.0965 84.5687 22.5807 84.4589 23.0332C84.3284 23.7025 84.123 24.3551 83.8463 24.9786C83.737 25.1251 83.5949 25.2441 83.4314 25.3261C83.2678 25.4082 83.0873 25.451 82.9042 25.4512C82.6644 25.4512 82.2974 25.0478 82.2424 24.774C82.1288 24.0524 82.0574 23.3249 82.0286 22.5951Z" fill="#D0D3D3"/>
<path d="M82.3467 29.0136C82.3467 27.7166 82.8264 27.2295 83.9332 27.1546C84.8723 27.0912 85.7855 28.3766 85.7595 29.1317C85.7599 29.3572 85.7151 29.5805 85.6277 29.7884C85.5402 29.9963 85.4119 30.1847 85.2503 30.3424C85.0887 30.5 84.8971 30.6238 84.6868 30.7065C84.4765 30.7891 84.2516 30.8289 84.0256 30.8235C82.9824 30.8178 82.3496 30.1405 82.3467 29.0136Z" fill="#D0D3D3"/>
</svg>
