<svg width="202" height="154" viewBox="0 0 202 154" fill="none" xmlns="http://www.w3.org/2000/svg">
<path d="M121.331 146.405C101.096 146.405 85.6858 146.61 70.2841 146.35C52.0923 146.047 33.9027 146.35 15.7131 146.108C11.0548 146.045 6.39654 145.92 1.72951 145.798C1.22867 145.772 0.735571 145.663 0.269974 145.477C0.188962 145.443 0.119898 145.386 0.0717635 145.313C0.0236285 145.24 -0.00135696 145.154 5.68494e-05 145.066C0.00147065 144.979 0.0292254 144.893 0.0796983 144.822C0.130171 144.75 0.201033 144.695 0.283083 144.664C0.90174 144.458 1.54562 144.336 2.19709 144.302C4.88238 144.245 7.57204 144.302 10.2551 144.212C12.5777 144.136 14.8938 143.913 17.2142 143.763C17.8194 143.721 18.4268 143.684 19.0342 143.682C23.0392 143.664 27.042 143.682 31.0514 143.638C36.0134 143.577 40.9754 143.463 45.9374 143.369C46.1395 143.37 46.3415 143.36 46.5426 143.339C46.8681 143.302 47.0167 143.09 46.8288 142.826C45.0809 140.4 45.708 137.77 46.2498 135.209C47.0998 131.186 48.5811 127.36 50.2046 123.589C52.4922 118.271 55.3763 113.279 58.5729 108.468C60.3361 105.817 62.1474 103.192 64.4045 100.906C66.1328 99.1588 68.0402 97.6892 70.2754 96.654C70.6884 96.4619 71.0991 96.2588 71.5012 96.0448C72.4166 95.5534 72.4145 95.549 72.1763 94.5161C71.4596 91.4086 73.4261 88.6745 76.5986 88.3731C76.7996 88.3557 77.005 88.3731 77.206 88.3491C77.3082 88.3508 77.4096 88.3314 77.5039 88.2922C77.5983 88.253 77.6836 88.1948 77.7545 88.1213C77.8254 88.0478 77.8804 87.9605 77.9161 87.8648C77.9518 87.7691 77.9674 87.6671 77.962 87.5651C77.9853 87.2097 77.9744 86.8528 77.9292 86.4995C77.2738 82.2476 75.4428 78.5134 72.775 75.1678C72.5446 74.8983 72.298 74.643 72.0365 74.4035C71.1843 73.578 71.1494 73.53 70.105 74.1742C67.4241 75.8426 64.5705 75.9758 61.6121 75.2093C58.7892 74.4799 56.3683 73.0736 54.4739 70.8287C53.6003 69.8068 52.938 68.6219 52.5255 67.3426C52.113 66.0632 51.9583 64.7149 52.0705 63.3754C52.1295 62.4888 52.0115 61.8468 51.2796 61.2571C49.9074 60.1521 49.2585 58.6366 49.0946 56.9005C49.0749 56.6974 49.1121 56.4637 49.0181 56.3043C48.8984 56.1057 48.7163 55.9522 48.5003 55.8676C48.3299 55.8086 48.1048 55.9178 47.9038 55.9287C46.3001 56.027 45.2819 55.1862 45.1945 53.5746C45.1424 52.9192 45.2311 52.2603 45.4545 51.642C46.1384 49.9605 46.9381 48.3226 47.6941 46.6717C47.7666 46.5378 47.8476 46.4087 47.9366 46.2851C48.9395 44.6844 48.6642 44.7565 47.6897 43.7301C47.1562 43.1936 46.7102 42.5769 46.3678 41.9023C45.4938 40.0112 46.6562 38.3952 48.7319 38.5022C49.206 38.5262 49.796 39.0132 50.1259 38.4781C50.3204 38.168 50.1259 37.6046 50.0909 37.1679C49.9398 35.0974 50.0344 33.0164 50.3728 30.9681C51.1814 25.5344 53.3856 20.403 56.7703 16.0747C57.5934 15.0419 58.6234 14.1925 59.7943 13.5809C61.5837 12.6113 62.993 13.0524 64.0024 14.8125C64.0287 14.8562 64.0461 14.9042 64.0702 14.9479C64.5072 15.6838 64.5509 15.6882 65.1736 15.1838C66.7445 13.9106 68.2718 12.5741 69.9105 11.3883C75.8688 7.07319 82.4149 4.10325 89.7716 3.15767C93.9732 2.6161 98.1639 2.72092 102.252 3.97441C104.107 4.54219 105.8 5.40478 107.21 6.81332C108.511 8.10253 109.414 9.7383 109.812 11.5259C110.377 13.7932 110.394 16.1623 109.862 18.4376C108.901 22.471 107.31 26.2184 104.789 29.5356C104.224 30.2509 103.612 30.9279 102.958 31.5621C102.455 32.0666 102.383 32.5623 102.696 33.1978C103.456 34.7417 104.249 36.2725 104.896 37.8645C106.888 42.7583 108.328 47.8225 108.977 53.0658C109.652 58.5078 109.711 63.9847 108.687 69.3852C107.972 73.1609 106.532 76.6615 103.978 79.6118C101.617 82.3761 98.3454 84.2055 94.7533 84.7699C93.7067 84.949 92.6404 85.0058 91.5873 85.1346C91.0345 85.2023 90.4948 85.3049 89.9398 85.401C88.3099 85.6849 87.5211 86.7419 87.2786 88.3011C87.1235 89.286 87.2786 89.69 88.2247 89.8494C90.4752 90.2228 91.7337 91.7536 92.7475 93.5618C93.1036 94.1951 93.5756 94.479 94.1961 94.7673C96.9994 96.0622 99.818 97.3332 102.54 98.7832C106.159 100.709 108.477 103.904 110.491 107.357C113.129 111.879 114.909 116.784 116.963 121.571C118.038 124.078 119.332 126.491 120.54 128.941C120.905 129.679 121.497 130.212 122.135 130.738C123.227 131.638 124.228 132.643 125.27 133.599C125.906 134.182 126.144 134.145 126.417 133.298C127.315 130.459 128.198 127.6 129.039 124.735C131.006 118.035 133.003 111.347 135.437 104.797C135.675 104.184 135.944 103.584 136.243 102.998C137.554 100.31 139.551 99.2855 142.512 99.5192C144.721 99.6939 146.927 99.8402 149.169 99.7135C152.554 99.5235 155.956 99.6458 159.353 99.6436C161.632 99.6436 163.913 99.6262 166.194 99.6808C167.964 99.7222 169.734 99.8489 171.501 99.9668C171.955 100.013 172.403 100.101 172.841 100.229C174.807 100.733 175.734 101.843 175.948 103.852C176.105 105.335 175.832 106.778 175.561 108.219C174.065 116.07 172.155 123.836 169.839 131.485C169.065 134.051 168.294 136.622 167.407 139.148C166.994 140.33 166.314 141.417 165.733 142.535C165.467 143.048 165.558 143.262 166.17 143.311C166.622 143.345 167.081 143.332 167.536 143.332C175.646 143.348 183.755 143.332 191.863 143.385C193.583 143.402 195.3 143.512 197.008 143.715C197.845 143.811 198.656 144.173 199.458 144.472C199.563 144.53 199.653 144.612 199.72 144.712C199.787 144.811 199.83 144.925 199.844 145.044C199.832 145.164 199.791 145.279 199.725 145.379C199.659 145.48 199.569 145.563 199.464 145.621C199.083 145.751 198.683 145.818 198.28 145.817C193.318 145.935 188.356 146.056 183.394 146.139C180.554 146.184 177.713 146.121 174.873 146.173C155.418 146.532 135.961 146.379 121.331 146.405ZM101.131 128.801C101.332 129.371 101.614 129.928 101.714 130.516C102.014 132.25 100.596 133.597 98.8741 133.252C97.9171 133.062 96.971 132.734 96.3199 132.003C94.7008 130.179 94.4649 130.73 92.9769 131.822C91.3754 132.999 89.6755 133.957 87.602 134.077C87.1519 134.104 86.6756 134.429 86.291 134.733C85.7338 135.169 85.3209 135.811 84.7222 136.143C84.0498 136.483 83.501 137.026 83.1534 137.694C82.7842 138.404 82.1549 138.877 81.3246 138.853C80.4157 138.827 79.7952 139.255 79.238 139.889C78.2486 140.974 77.0992 141.902 75.8295 142.64C75.6569 142.747 75.4756 142.841 75.3161 142.963C75.2813 142.992 75.2541 143.029 75.2366 143.071C75.2191 143.113 75.2119 143.158 75.2156 143.204C75.2424 143.241 75.2773 143.272 75.3178 143.295C75.3582 143.317 75.4032 143.33 75.4493 143.332C75.8033 143.352 76.1573 143.356 76.5112 143.356H86.527C88.3645 143.356 88.6988 143.511 88.666 141.273C88.6442 139.744 89.0156 139.308 90.5713 139.076C92.2668 138.816 93.9776 138.624 95.6884 138.5C97.8035 138.349 99.9272 138.31 102.047 138.2C103.104 138.148 103.229 137.965 103.06 136.866C102.862 135.569 102.658 134.274 102.468 132.975C102.318 131.926 102.167 130.878 102.047 129.826C101.981 129.236 101.745 128.865 101.131 128.801V128.801ZM61.5837 143.45C64.4591 143.509 67.2427 143.014 70.0088 142.328C73.0197 141.588 75.7618 140.386 77.8309 137.96C78.5432 137.124 79.415 136.547 80.5971 136.613C80.7413 136.613 80.8964 136.427 81.0472 136.325C80.9608 136.204 80.8627 136.092 80.7544 135.99C78.4405 134.213 77.8615 132.566 78.5935 129.793C78.683 129.45 78.812 129.12 78.9234 128.784C79.0023 128.599 79.0581 128.404 79.0894 128.205C79.0702 128.067 78.9982 127.941 78.8884 127.854C78.844 127.834 78.7954 127.826 78.747 127.83C78.6985 127.834 78.6518 127.849 78.6109 127.876C78.3335 128.094 78.0975 128.371 77.8025 128.559C76.8695 129.157 75.9825 129.898 74.9621 130.273C71.1559 131.673 67.1859 132.075 63.1481 131.876C62.8447 131.865 62.547 131.791 62.2742 131.658C62.0733 131.532 61.9292 131.333 61.8721 131.103C61.8481 131.001 62.0906 130.776 62.2501 130.701C62.4862 130.613 62.7346 130.561 62.9864 130.548C63.9937 130.444 64.9988 130.33 66.0082 130.265C66.5829 130.227 66.9281 130.011 67.1269 129.446C67.6338 128.015 68.1801 126.607 68.7307 125.185C69.6309 122.878 70.5405 120.572 71.4596 118.269C71.532 118.028 71.6549 117.804 71.8202 117.614C72.0212 117.431 72.3336 117.217 72.563 117.249C72.9738 117.31 73.0437 117.71 73 118.09C72.9853 118.238 72.9545 118.385 72.9083 118.527C72.2156 120.586 71.5274 122.648 70.8238 124.705C70.3147 126.187 69.7685 127.657 69.2725 129.144C69.0802 129.719 69.2201 129.854 69.8625 129.734C72.6635 129.21 75.4362 128.701 77.383 126.24C78.257 125.131 79.0698 125.192 80.3261 126C81.3356 126.655 81.3115 126.616 82.2926 125.908C84.342 124.421 86.3697 122.901 88.4934 121.525C91.8866 119.326 95.4568 118.926 99.1516 120.835C99.4195 120.973 99.7092 121.065 100.008 121.106C101.118 121.252 101.358 120.981 101.258 119.879C101.083 118.018 100.939 116.155 100.792 114.292C100.745 113.941 100.754 113.584 100.819 113.235C100.882 112.991 101.131 112.799 101.297 112.58C101.523 112.751 101.732 112.943 101.92 113.155C102.016 113.333 102.071 113.529 102.084 113.731C102.195 114.386 102.302 115.028 102.396 115.679C102.615 117.179 102.789 118.684 103.008 120.184C103.13 121.027 103.196 121.058 104.1 120.977C104.251 120.962 104.4 120.92 104.553 120.911C106.39 120.813 107.247 122.003 106.519 123.737C106.422 123.908 106.379 124.104 106.397 124.299C106.416 124.495 106.494 124.68 106.622 124.829C107.352 125.877 107.334 126.596 106.576 127.587C106.288 128.003 105.893 128.333 105.433 128.544C104.282 128.961 104.07 129.778 104.208 130.832C104.264 131.284 104.306 131.736 104.35 132.191C104.496 133.698 104.743 135.206 104.756 136.715C104.769 138.155 104.671 138.207 106.272 138.181C107.229 138.163 107.255 138.109 106.862 137.27C106.231 135.927 106.373 135.167 107.446 134.174C107.552 134.064 107.669 133.966 107.795 133.881C109.432 132.909 110.695 131.553 111.901 130.099C113.183 128.555 114.872 127.858 116.926 128.258C117.021 128.292 117.12 128.314 117.221 128.323C117.404 128.303 117.585 128.273 117.765 128.234C117.729 128.093 117.682 127.956 117.623 127.823C117.072 126.799 116.439 125.812 115.973 124.751C114.352 121.038 112.792 117.31 111.201 113.591C110.057 110.884 108.645 108.296 106.989 105.867C105.628 103.885 104.044 102.116 101.931 100.919C99.2433 99.4012 96.5231 97.9359 93.8006 96.4793C92.9551 96.0273 92.9267 96.0753 92.3433 96.8833C90.7221 99.1326 88.5 100.377 85.8038 100.941C83.3676 101.452 81.0734 101.033 78.812 100.19C76.9975 99.5168 75.3293 98.5019 73.898 97.2C73.5331 96.8724 73.1923 96.6671 72.6854 96.9554C70.1203 98.4054 67.5967 99.9319 65.6805 102.216C64.2843 103.882 62.9559 105.614 61.7323 107.409C58.7263 111.853 56.0575 116.516 53.7485 121.359C51.9066 125.134 50.3559 129.044 49.1099 133.055C48.5178 134.986 48.0174 136.945 47.9322 138.991C47.8514 140.987 48.7057 142.048 50.6918 142.575C50.9853 142.653 51.285 142.704 51.5876 142.73C54.9175 142.979 58.2473 143.219 61.5772 143.45H61.5837ZM107.334 59.9403C107.194 57.7238 107.116 55.5007 106.897 53.2929C106.489 49.1437 105.346 45.154 104.026 41.2188C102.462 36.5499 100.056 32.2653 97.8537 27.8803C97.3796 26.9369 97.3271 26.9281 96.3242 27.2622C94.2092 27.9567 92.127 28.7559 89.8962 29.0464C89.3193 29.1228 89.2407 29.3456 89.516 29.8784C90.5036 31.87 90.2894 33.2305 88.7534 34.805C87.3791 36.2157 85.677 37.1111 83.8548 37.7619C81.2045 38.7096 78.482 39.1158 75.6504 38.7227C74.2367 38.5262 74.0881 38.7839 74.6715 40.0636C75.8951 42.7496 75.764 45.3876 74.2848 47.9033C73.6511 48.9799 72.7706 49.9146 71.9797 50.8951C71.4116 51.6005 70.7495 52.2381 70.2317 52.9763C69.5391 53.9524 69.3818 55.0028 70.0657 56.0969C70.5616 56.8852 70.8784 57.7194 70.5026 58.6803C70.1662 59.532 69.8472 60.3858 69.1502 61.0213C68.4007 61.7026 67.7168 61.814 66.9936 61.1108C65.7854 59.936 64.2865 59.3944 62.7723 58.8179C61.6775 58.4053 60.4968 58.2724 59.3376 58.4313C56.9779 58.724 54.1134 61.1851 54.3319 64.2358C54.4674 66.0658 55.0551 67.743 56.2022 69.1188C58.9509 72.4206 62.5604 73.6719 66.7861 73.0496C68.6061 72.7831 70.3126 72.1411 71.7349 70.8985C72.0539 70.6212 72.4756 70.3897 72.8056 70.7675C72.9046 70.9011 72.9708 71.0561 72.9988 71.22C73.0269 71.3838 73.0161 71.552 72.9672 71.7109C72.5871 72.4971 73.011 72.9295 73.5091 73.4077C76.3998 76.1789 78.257 79.5791 79.3123 83.3876C80.0399 86.019 80.49 88.7226 79.9459 91.4807C79.9033 91.7294 79.8879 91.982 79.9001 92.2341C79.8834 92.4651 79.9569 92.6935 80.1052 92.8715C80.2535 93.0494 80.4651 93.163 80.6954 93.1884C82.0063 93.4068 83.302 93.5225 84.6064 93.1884C85.3493 92.9984 85.4804 92.8019 85.3296 91.9895C85.1789 91.1771 84.8926 90.3123 84.8315 89.4629C84.672 86.9384 85.5416 84.0777 88.7643 83.2871C89.4527 83.1246 90.1503 83.0036 90.8532 82.9246C91.856 82.8023 92.8677 82.7521 93.8727 82.6364C97.6483 82.1996 100.661 80.4373 102.96 77.4368C104.846 74.9735 105.901 72.1498 106.526 69.1384C107.151 66.127 107.277 63.0369 107.328 59.9403H107.334ZM145.38 143.337C150.498 143.337 155.619 143.278 160.734 143.372C162.336 143.402 163.373 142.767 164.062 141.478C164.727 140.286 165.29 139.04 165.744 137.753C166.572 135.259 167.254 132.715 168.008 130.195C170.308 122.484 172.29 114.69 174.171 106.868C174.316 106.279 174.389 105.675 174.39 105.068C174.39 103.079 173.616 102.159 171.661 101.904C170.155 101.702 168.638 101.59 167.118 101.568C161.899 101.506 156.679 101.52 151.459 101.478C150.246 101.478 149.036 101.321 147.823 101.301C146.563 101.281 145.223 101.083 144.059 101.426C141.902 102.068 140.215 103.439 139.431 105.682C139.079 106.684 138.653 107.662 138.338 108.676C136.872 113.465 135.467 118.273 133.969 123.054C132.286 128.465 130.561 133.862 128.792 139.244C128.42 140.289 128.22 141.387 128.2 142.496C128.2 143.208 128.255 143.286 128.939 143.332C129.343 143.359 129.749 143.332 130.154 143.332L145.38 143.337ZM94.2289 121.551C93.2225 121.503 92.2213 121.722 91.3273 122.187C90.5924 122.527 89.8769 122.908 89.1839 123.327C87.0601 124.7 84.9975 126.166 82.8475 127.498C81.5715 128.284 80.927 129.378 80.6626 130.773C80.3349 132.494 81.1848 133.929 82.8847 134.348C83.3981 134.475 83.9772 134.399 84.5125 134.348C84.5802 134.348 84.731 133.868 84.6414 133.754C84.4709 133.523 84.141 133.418 83.9269 133.208C83.6655 132.975 83.444 132.701 83.2714 132.396C83.2251 132.305 83.2054 132.203 83.2146 132.102C83.2238 132 83.2616 131.904 83.3235 131.823C83.3855 131.742 83.4691 131.68 83.5646 131.645C83.6602 131.609 83.7638 131.602 83.8635 131.623C84.1116 131.673 84.35 131.763 84.5693 131.889C85.4433 132.392 86.3915 132.444 87.366 132.413C89.0047 132.361 90.3834 131.651 91.6944 130.752C92.3498 130.295 93.0228 129.826 93.7242 129.426C94.7271 128.854 95.6775 129.042 96.5253 129.782C96.8683 130.081 97.1502 130.457 97.5172 130.719C97.9172 131.013 98.3591 131.246 98.8282 131.409C98.969 131.442 99.1157 131.441 99.256 131.405C99.3963 131.37 99.5261 131.302 99.6344 131.206C99.7036 131.08 99.742 130.94 99.7465 130.796C99.7511 130.653 99.7217 130.51 99.6606 130.38C99.4058 129.886 99.0838 129.43 98.7036 129.024C98.1137 128.404 97.467 127.832 96.818 127.277C95.9768 126.55 95.0919 125.875 94.2704 125.126C94.1808 125.018 94.1194 124.89 94.0919 124.752C94.0645 124.614 94.0717 124.472 94.1131 124.338C94.2058 124.233 94.3241 124.153 94.4565 124.107C94.5889 124.061 94.731 124.049 94.8691 124.074C95.6082 124.397 96.3302 124.757 97.0322 125.155C97.5216 125.414 97.9673 125.781 98.4829 125.96C99.4351 126.3 100.411 126.57 101.402 126.768C102.197 126.895 103.001 126.947 103.805 126.923C104.183 126.923 104.723 126.875 104.714 126.356C104.714 126.17 104.234 125.919 103.934 125.825C102.677 125.428 101.498 124.817 100.449 124.017C99.9163 123.63 99.3963 123.222 98.8435 122.868C97.479 121.962 95.8665 121.502 94.2289 121.551V121.551ZM107.577 143.343H122.76C123.214 143.343 123.699 143.428 124.119 143.302C124.834 143.089 125.523 142.796 126.173 142.428C126.597 142.186 126.66 141.677 126.533 141.203C126.486 140.977 126.363 140.775 126.184 140.629C126.006 140.482 125.783 140.402 125.552 140.4C125.248 140.378 124.945 140.373 124.641 140.373C116.24 140.386 107.839 140.373 99.4378 140.43C97.2659 140.443 95.0941 140.624 92.9245 140.758C92.3711 140.819 91.8213 140.909 91.277 141.026C91.0734 141.045 90.8844 141.14 90.7475 141.291C90.6106 141.443 90.536 141.641 90.5385 141.845C90.414 143.201 90.3419 143.396 91.7839 143.374C92.0374 143.374 92.2908 143.374 92.5443 143.374L107.577 143.343ZM83.4986 99.1763C84.5911 99.0016 85.7207 98.9426 86.7761 98.6216C88.3514 98.139 89.7039 97.2611 90.591 95.7958C90.7985 95.4775 90.9216 95.1117 90.9487 94.7327C90.9758 94.3538 90.9061 93.9741 90.7461 93.6295C90.1081 92.1009 88.7206 91.6051 87.3398 91.1051C87.2633 91.0767 86.9924 91.3234 86.9661 91.4632C86.8744 91.9677 87.0841 92.1991 87.6435 92.162C87.9013 92.1445 88.3776 92.3083 88.3973 92.4415C88.403 92.7697 88.32 93.0934 88.157 93.3784C88.0419 93.5469 87.8931 93.6897 87.72 93.7977C86.6853 94.712 85.3821 95.2667 84.0056 95.3787C82.1806 95.5115 80.3496 95.2192 78.6568 94.5249C77.7639 94.1498 76.9979 93.5259 76.45 92.7276C76.048 92.162 75.9715 91.5702 76.2796 91.3387C76.7822 90.9631 77.0968 91.4217 77.4639 91.6619C77.6734 91.7765 77.8928 91.8722 78.1193 91.948C78.2123 91.7267 78.2748 91.4938 78.305 91.2557C78.2919 89.6397 78.3575 89.334 76.6816 89.9455C76.5396 89.9957 76.3845 90.0088 76.2447 90.0547C73.8784 90.7971 73.1027 93.5858 74.8135 95.3722C77.1601 97.8195 80.0552 99.0875 83.4986 99.1763V99.1763ZM122.976 138.166C123.077 138.175 123.179 138.175 123.28 138.166C123.56 138.109 123.839 138.037 124.117 137.969C123.988 137.719 123.829 137.485 123.643 137.275C122.961 136.676 122.242 136.119 121.549 135.528C121.358 135.367 121.194 135.177 121.062 134.964C121.029 134.9 121.011 134.828 121.011 134.756C121.011 134.683 121.029 134.611 121.062 134.547C121.18 134.418 121.416 134.267 121.549 134.305C121.881 134.411 122.197 134.561 122.489 134.752C123.177 135.176 123.839 135.641 124.536 136.045C124.755 136.174 125.054 136.165 125.316 136.22C125.181 135.966 125.098 135.65 124.899 135.464C123.715 134.372 122.561 133.228 121.276 132.258C120.271 131.496 119.17 130.869 118.001 130.393C115.925 129.555 114.586 129.957 113.135 131.616C113.002 131.769 112.877 131.926 112.755 132.088C111.937 133.183 110.921 134.115 109.759 134.835C109.451 135.013 109.159 135.218 108.885 135.447C108.424 135.855 108.448 136.392 108.984 136.691C109.294 136.854 109.633 136.952 109.982 136.98C110.794 137.055 111.61 136.881 112.32 136.48C112.679 136.29 113.022 136.071 113.345 135.825C114.402 135.01 115.442 134.951 116.535 135.77C117.025 136.126 117.543 136.443 118.084 136.718C119.622 137.528 121.191 138.187 122.976 138.166V138.166ZM138.839 102.542C138.861 102.627 138.839 102.542 138.819 102.463C138.73 102.507 138.601 102.526 138.557 102.598C138.054 103.347 137.443 104.053 137.097 104.872C136.49 106.311 136.005 107.809 135.546 109.302C133.846 114.699 132.161 120.099 130.49 125.502C129.446 128.88 128.436 132.271 127.418 135.654C127.219 136.28 127.054 136.915 126.922 137.558C126.912 137.673 126.93 137.789 126.974 137.896C127.019 138.002 127.089 138.096 127.178 138.17C127.547 138.373 127.72 138.065 127.811 137.757C128.237 136.355 128.657 134.952 129.072 133.547C130.907 127.297 132.727 121.04 134.576 114.793C135.463 111.792 136.359 108.791 137.336 105.817C137.694 104.725 138.293 103.712 138.839 102.542V102.542ZM115.038 138.17V138.146C115.434 138.146 115.831 138.159 116.227 138.133C116.288 138.133 116.408 137.897 116.378 137.851C116.028 137.316 115.067 136.964 114.555 137.246C114.245 137.421 114.018 137.744 113.753 138.002C114.081 138.056 114.409 138.117 114.739 138.166C114.838 138.175 114.938 138.176 115.038 138.17V138.17ZM104.26 122.447C103.836 122.512 103.482 122.541 103.141 122.628C102.92 122.708 102.708 122.81 102.508 122.934C102.657 123.123 102.829 123.294 103.021 123.44C103.65 123.805 103.958 123.759 104.496 123.222C104.563 123.156 104.615 123.076 104.647 122.987C104.679 122.899 104.691 122.805 104.682 122.711C104.64 122.586 104.384 122.532 104.26 122.451V122.447Z" fill="#122224"/>
<path d="M159.587 69.1996C158.449 68.9812 157.286 68.8523 156.181 68.527C152.33 67.3915 148.756 65.4734 145.682 62.8928C144.321 61.7638 143.451 60.2854 142.828 58.6606C142.214 56.998 141.87 55.2477 141.81 53.4763C141.509 47.4054 143.121 41.7691 145.597 36.3162C147.327 32.4823 149.595 28.9145 152.333 25.7205C154.789 22.8619 157.577 20.3746 161.022 18.7324C162.496 18.0497 164.063 17.5919 165.672 17.3741C167.239 17.1302 168.843 17.3583 170.28 18.0292C172.465 19.0665 174.628 20.189 176.789 21.3049C177.508 21.6718 178.192 22.1129 178.897 22.5103C180.974 23.6272 182.548 25.4915 183.3 27.7252C184.258 30.5554 184.6 33.5573 184.303 36.5302C183.794 42.1753 181.982 47.3858 179.409 52.367C177.036 57.0227 173.784 61.1754 169.832 64.5962C167.831 66.3192 165.628 67.7517 163.046 68.527C161.924 68.8875 160.762 69.1133 159.587 69.1996ZM173.463 30.1579C173.463 29.5508 173.505 28.9416 173.463 28.3388C173.284 26.0961 172.795 23.956 171.466 22.0627C170.332 20.4445 168.785 19.702 166.852 19.5448C165.217 19.4116 163.764 19.892 162.32 20.5493C158.809 22.1456 156.163 24.8208 153.753 27.6815C149.864 32.3002 147.144 37.5981 145.45 43.4047C144.576 46.4227 143.991 49.5193 144.083 52.6662C144.15 54.9526 144.52 57.2019 145.68 59.2328C146.84 61.2637 148.579 62.4735 150.98 62.4386C152.351 62.4187 153.703 62.1215 154.955 61.5651C158.63 59.9447 161.418 57.2346 163.939 54.2472C166.602 51.0597 168.771 47.4901 170.372 43.6581C172.205 39.3298 173.396 34.8771 173.463 30.1579ZM182.111 34.5801C181.963 33.2261 181.906 31.8569 181.646 30.5248C180.875 26.5569 178.498 23.849 174.851 22.1959C174.766 22.1566 174.582 22.1347 174.569 22.1631C174.507 22.2845 174.479 22.4203 174.488 22.5562C174.529 22.7015 174.586 22.8421 174.656 22.9755C175.665 25.5234 176.091 28.2649 175.902 30.9987C175.708 34.182 175.104 37.3271 174.106 40.3562C172.246 46.0955 169.3 51.4243 165.429 56.0532C163.27 58.6737 160.685 60.9121 157.782 62.6744C157.306 62.9583 156.803 63.2073 156.34 63.5108C156.054 63.6986 156.122 63.9279 156.403 64.0917C156.492 64.1406 156.583 64.1844 156.677 64.2227C158.298 64.9259 159.912 65.64 161.542 66.3126C161.826 66.4049 162.132 66.4049 162.416 66.3126C162.901 66.1673 163.372 65.9817 163.826 65.7579C166.85 64.3254 169.397 62.2464 171.558 59.7394C175.71 54.9351 178.768 49.4953 180.551 43.3807C181.39 40.5178 182.041 37.609 182.111 34.5801ZM159.246 66.8454C159.439 66.862 159.632 66.862 159.825 66.8454C160.032 66.7937 160.235 66.7303 160.435 66.6555C160.266 66.5563 160.092 66.4673 159.912 66.389C158.311 65.8038 156.677 65.2971 155.106 64.6114C154.511 64.3509 153.842 64.316 153.224 64.5132C153.093 64.5686 152.97 64.6421 152.859 64.7315C152.96 64.8822 153.028 65.1006 153.17 65.1683C155.054 66.1487 157.125 66.7202 159.246 66.8454Z" fill="#122224"/>
<path d="M176.723 0.583066C176.612 1.05695 176.529 1.3998 176.448 1.74265C175.985 3.74955 175.535 5.76081 175.048 7.76334C174.934 8.24697 174.746 8.70976 174.488 9.13474C174.432 9.21924 174.351 9.28504 174.257 9.32378C174.163 9.36253 174.06 9.37246 173.96 9.35233C173.86 9.33221 173.769 9.28295 173.697 9.21077C173.625 9.13859 173.577 9.04676 173.557 8.94694C173.455 8.50838 173.444 8.05326 173.527 7.61047C174.023 5.5599 174.563 3.51806 175.115 1.4806C175.217 1.088 175.391 0.717756 175.629 0.388706C175.711 0.275324 175.817 0.181619 175.94 0.114387C176.063 0.0471552 176.199 0.00808761 176.339 0C176.509 0.0327567 176.627 0.428017 176.723 0.583066Z" fill="#122224"/>
<path d="M132.852 20.6476C133.174 20.7707 133.486 20.9167 133.787 21.0843C135.522 22.2898 137.257 23.504 138.972 24.74C139.251 24.9513 139.476 25.226 139.627 25.5414C139.669 25.6541 139.683 25.7751 139.669 25.8943C139.654 26.0136 139.612 26.1277 139.544 26.2271C139.458 26.3081 139.353 26.3679 139.24 26.4016C139.126 26.4353 139.006 26.4422 138.889 26.4215C138.506 26.305 138.146 26.1217 137.827 25.8799C136.427 24.812 135.033 23.7333 133.676 22.6217C133.258 22.2658 132.894 21.8509 132.596 21.3901C132.502 21.2721 132.738 20.9402 132.852 20.6476Z" fill="#122224"/>
<path d="M141.585 77.6771C141.483 77.5155 141.31 77.3627 141.306 77.2076C141.302 76.9564 141.362 76.7084 141.48 76.487C142.394 74.8644 143.311 73.244 144.266 71.6455C144.489 71.31 144.781 71.0262 145.123 70.8135C145.228 70.7606 145.344 70.7342 145.462 70.7365C145.58 70.7387 145.695 70.7697 145.798 70.8266C145.925 70.9314 145.922 71.2634 145.883 71.4817C145.811 71.669 145.705 71.842 145.573 71.9927C144.603 73.5228 143.633 75.0515 142.665 76.5787C142.48 76.8773 142.278 77.1646 142.059 77.4391C141.974 77.5461 141.802 77.5788 141.585 77.6771Z" fill="#122224"/>
<path d="M187.613 51.8146C189.628 52.4479 191.641 53.0834 193.652 53.721C193.787 53.7878 193.903 53.8859 193.991 54.0071C194.159 54.1905 194.017 54.5923 193.772 54.5836C193.374 54.5706 192.977 54.5201 192.588 54.4329C190.821 54.0355 189.055 53.6184 187.29 53.2078C187.143 53.1729 186.953 53.1729 186.853 53.079C186.649 52.8958 186.498 52.6613 186.416 52.3998C186.398 52.2928 186.744 52.0788 186.955 51.9893C187.152 51.9434 187.354 51.9287 187.554 51.9456L187.613 51.8146Z" fill="#122224"/>
<path d="M196.477 26.2773C196.179 26.3036 195.878 26.3036 195.579 26.2773C195.481 26.2537 195.391 26.2037 195.32 26.1327C195.248 26.0617 195.197 25.9724 195.172 25.8745C195.148 25.7766 195.151 25.6738 195.18 25.5774C195.21 25.4809 195.266 25.3945 195.341 25.3274C195.523 25.1558 195.751 25.0398 195.997 24.9933C197.349 24.871 198.706 24.7552 200.063 24.7116C200.5 24.6963 200.937 24.8841 201.374 25.0217C201.437 25.0551 201.49 25.1043 201.528 25.1643C201.567 25.2244 201.589 25.2934 201.592 25.3645C201.534 25.5387 201.425 25.6911 201.278 25.8013C201.144 25.8741 200.993 25.9096 200.841 25.9039C199.386 26.0197 197.928 26.1223 196.471 26.2402L196.477 26.2773Z" fill="#122224"/>
<path d="M156.854 13.5372C156.801 13.6376 156.762 13.8429 156.661 13.8779C156.574 13.9147 156.48 13.9336 156.385 13.9336C156.29 13.9336 156.196 13.9147 156.109 13.8779C155.902 13.7361 155.738 13.5405 155.634 13.3123C154.94 11.7574 154.256 10.196 153.598 8.62368C153.488 8.34609 153.461 8.04285 153.519 7.75017C153.543 7.64098 153.956 7.48592 154.081 7.54925C154.288 7.68708 154.446 7.8865 154.533 8.11923C155.294 9.80729 156.039 11.5063 156.784 13.2031C156.817 13.312 156.841 13.4239 156.854 13.5372Z" fill="#122224"/>
<path d="M171.936 72.0581C172.251 72.3027 172.565 72.4315 172.688 72.663C173.536 74.2645 174.353 75.8754 175.142 77.4957C175.214 77.6442 175.026 77.9172 174.958 78.1312C174.739 78.0329 174.442 77.9914 174.344 77.8277C173.47 76.3645 172.618 74.8817 171.775 73.399C171.64 73.1909 171.564 72.9501 171.556 72.7023C171.558 72.508 171.764 72.3267 171.936 72.0581Z" fill="#122224"/>
<path d="M131.705 43.6603C132.599 43.8044 133.453 43.9136 134.277 44.097C134.46 44.1363 134.587 44.4246 134.74 44.5993C134.552 44.7412 134.377 44.9815 134.174 45.0055C133.673 45.0488 133.17 45.0539 132.669 45.0208C131.72 44.9858 130.77 44.9509 129.828 44.8745C129.625 44.857 129.437 44.6561 129.24 44.5469C129.385 44.3613 129.496 44.0534 129.677 44.0097C130.344 43.8437 131.041 43.7651 131.705 43.6603Z" fill="#122224"/>
<path d="M97.4779 152.14C97.633 152.373 97.834 152.609 97.8012 152.646C97.6503 152.789 97.4805 152.91 97.2965 153.007C97.2091 152.858 97.0409 152.701 97.0584 152.57C97.0759 152.439 97.2812 152.327 97.4779 152.14Z" fill="#122224"/>
<path d="M107.328 59.9404C107.277 63.037 107.17 66.1139 106.537 69.1494C105.903 72.1848 104.856 74.9757 102.971 77.4477C100.672 80.4482 97.6593 82.2193 93.8837 82.6473C92.8786 82.7631 91.867 82.8133 90.8641 82.9356C90.1612 83.0146 89.4637 83.1356 88.7753 83.2981C85.5438 84.0886 84.6742 86.9494 84.8424 89.4738C84.897 90.3233 85.1833 91.1553 85.3406 92.0005C85.4979 92.8456 85.3602 93.0094 84.6174 93.1993C83.3064 93.5356 82.0085 93.4286 80.7063 93.1993C80.476 93.174 80.2645 93.0604 80.1162 92.8824C79.9679 92.7045 79.8943 92.476 79.911 92.245C79.8988 91.993 79.9142 91.7403 79.9569 91.4916C80.5009 88.7335 80.0508 86.0322 79.3233 83.3985C78.2679 79.59 76.4107 76.1921 73.5201 73.4187C73.0219 72.9404 72.598 72.508 72.9782 71.7219C73.0271 71.5629 73.0379 71.3948 73.0098 71.2309C72.9817 71.0671 72.9155 70.9121 72.8165 70.7785C72.4866 70.4007 72.0649 70.6322 71.7459 70.9095C70.3235 72.1521 68.617 72.7941 66.797 73.0605C62.5713 73.6785 58.9618 72.4272 56.2131 69.1297C55.0661 67.7539 54.4783 66.0724 54.3428 64.2468C54.1243 61.1895 56.9866 58.7349 59.3223 58.4423C60.4816 58.2834 61.6622 58.4163 62.757 58.8288C64.2712 59.4053 65.7701 59.9469 66.9783 61.1218C67.7016 61.825 68.3854 61.7136 69.1349 61.0323C69.8319 60.3968 70.1509 59.5429 70.4874 58.6912C70.8697 57.7304 70.5529 56.8962 70.0504 56.1078C69.3665 55.016 69.5238 53.9634 70.2164 52.9872C70.7408 52.2491 71.4029 51.6114 71.9644 50.9061C72.7553 49.9256 73.6359 48.9909 74.2695 47.9143C75.7487 45.3986 75.8798 42.7606 74.6562 40.0745C74.0728 38.7948 74.2192 38.5459 75.6351 38.7337C78.4755 39.1268 81.1892 38.7206 83.8395 37.7728C85.6618 37.1177 87.3638 36.2267 88.7381 34.816C90.2676 33.2415 90.4861 31.881 89.5007 29.8894C89.2363 29.3565 89.304 29.1338 89.8809 29.0574C92.1117 28.7669 94.1939 27.9655 96.309 27.2732C97.3206 26.9391 97.373 26.9478 97.8384 27.8912C100.041 32.2588 102.446 36.5608 104.011 41.2297C105.322 45.1606 106.473 49.1547 106.882 53.3039C107.111 55.5007 107.188 57.7238 107.328 59.9404ZM96.2085 68.9463V68.9244C95.4503 68.9244 94.679 68.9681 93.9318 68.9244C92.5399 68.8262 91.4475 68.1274 90.5538 67.0944C89.8831 66.3192 89.2691 65.544 89.5182 64.3887C89.5399 64.2886 89.5317 64.1843 89.4947 64.0888C89.4578 63.9932 89.3936 63.9106 89.3101 63.8511C89.2267 63.7916 89.1276 63.7579 89.0252 63.7541C88.9227 63.7503 88.8214 63.7766 88.7338 63.8297C87.9625 64.2446 87.6719 65.0329 87.3595 65.7645C87.1191 66.3279 87.7462 66.4917 88.0149 66.8193C88.2266 67.0981 88.4207 67.3898 88.5961 67.6928C90.0163 69.8504 92.0003 70.9837 94.6047 70.8396C95.6076 70.7828 96.5996 70.5295 97.5915 70.3308C97.8893 70.2722 98.1697 70.1459 98.4109 69.9617C98.5046 69.8892 98.5808 69.7967 98.6341 69.6909C98.6874 69.5851 98.7164 69.4687 98.719 69.3503C98.666 69.2465 98.5886 69.1572 98.4934 69.0898C98.3983 69.0225 98.2883 68.9793 98.1727 68.9638C97.5282 68.9157 96.8661 68.9463 96.2085 68.9463ZM83.0988 45.7676C83.1207 46.1336 83.1623 46.4981 83.2234 46.8595C83.3654 47.4404 83.7914 47.7898 84.2831 47.733C84.8577 47.6741 84.991 47.2439 85.0281 46.7634C85.1723 45.0011 86.1796 43.8197 87.6064 42.9156C87.9136 42.7453 88.2059 42.5495 88.4803 42.3304C88.5423 42.2669 88.5869 42.1885 88.6098 42.1028C88.6328 42.0172 88.6333 41.927 88.6114 41.8411C88.5894 41.7551 88.5458 41.6763 88.4846 41.6121C88.4233 41.5478 88.3467 41.5004 88.2618 41.4743C87.9788 41.3854 87.6771 41.3733 87.3879 41.4394C85.7535 41.946 84.3552 42.8043 83.5358 44.3678C83.2714 44.8483 83.195 45.4139 83.0901 45.7676H83.0988ZM62.4817 63.1789C61.7913 63.192 61.3631 63.3973 61.4461 63.7183C61.5481 64.0354 61.7555 64.3082 62.0338 64.4914C62.3616 64.7097 62.7811 64.7774 63.1569 64.9281C63.8124 65.1858 63.8298 65.2928 63.3535 65.8803C63.023 66.2553 62.7241 66.657 62.4599 67.0813C62.4169 67.1908 62.402 67.3093 62.4165 67.426C62.431 67.5427 62.4744 67.6539 62.5429 67.7496C62.6675 67.8719 63.0083 67.8609 63.2115 67.7889C63.4147 67.7168 63.6026 67.4831 63.8036 67.3325C64.8349 66.5638 65.7701 65.5156 67.2799 66.1096C67.3303 66.1177 67.3819 66.114 67.4306 66.0986C67.5048 66.0869 67.5749 66.0569 67.6346 66.0113C67.6943 65.9657 67.7417 65.9059 67.7724 65.8374C67.8032 65.769 67.8165 65.6939 67.811 65.619C67.8054 65.5441 67.7814 65.4718 67.7409 65.4086C67.6287 65.244 67.4789 65.1085 67.3039 65.0133C65.9172 64.4193 64.5239 63.837 63.1241 63.2663C62.9125 63.2055 62.6931 63.1761 62.473 63.1789H62.4817ZM97.7532 62.9605C98.6949 62.6286 99.6716 62.3709 100.567 61.9407C101.245 61.6153 101.522 60.9165 101.441 60.1544C101.361 59.3922 100.83 59.0341 100.13 58.9162C99.8054 58.8666 99.497 58.7401 99.2309 58.5471C98.9649 58.3541 98.7489 58.1003 98.601 57.8068C98.5409 57.6686 98.447 57.5476 98.3279 57.4552C98.1676 57.3492 97.974 57.3057 97.7838 57.3329C97.6971 57.3748 97.6211 57.4359 97.5617 57.5116C97.5022 57.5873 97.4609 57.6756 97.4408 57.7697C97.4174 58.0642 97.4492 58.3604 97.5347 58.6432C97.7438 59.3268 98.2151 59.8999 98.8457 60.2374C99.1363 60.4077 99.086 60.6545 98.8195 60.8248C98.3147 61.1502 97.7773 61.4275 97.3031 61.7922C97.2271 61.8812 97.1737 61.9873 97.1474 62.1013C97.1212 62.2154 97.1229 62.3341 97.1524 62.4473C97.1829 62.6439 97.4692 62.7509 97.7445 62.9562L97.7532 62.9605ZM92.0418 51.9958C92.0418 50.9738 91.7206 50.0893 90.8466 49.5085C89.9333 48.8992 88.9698 49.3752 88.8802 50.4693C88.7993 51.3625 89.1358 52.1552 89.5903 52.9021C89.8918 53.3956 90.2742 53.7996 90.9144 53.7581C91.4278 53.7232 91.8386 53.2056 91.9937 52.4478C92.0134 52.2993 92.0243 52.1486 92.0418 51.9958ZM97.7357 47.4754C97.7663 48.3161 97.9542 49.0848 98.6709 49.6067C99.5296 50.2357 100.622 49.7705 100.664 48.7332C100.694 48.3055 100.638 47.8761 100.499 47.4703C100.361 47.0645 100.143 46.6905 99.8573 46.3704C99.6969 46.1731 99.4789 46.0308 99.2338 45.963C98.9887 45.8953 98.7285 45.9057 98.4895 45.9926C97.9957 46.1585 97.8188 46.5604 97.7598 47.0342C97.7401 47.1915 97.7423 47.3378 97.7357 47.4797V47.4754ZM99.4487 38.2729C99.1472 37.8536 98.9746 37.4693 98.6818 37.2291C97.5194 36.2813 96.1582 36.0062 94.6899 36.2245C94.4915 36.2645 94.3029 36.3432 94.135 36.456C93.6827 36.7355 93.462 37.2291 93.6259 37.6003C93.8312 38.0611 94.2398 38.0633 94.6572 38.0371C94.7582 38.0299 94.8583 38.0139 94.9565 37.989C96.049 37.7008 97.054 38.0087 98.0154 38.5088C98.2339 38.6223 98.4895 38.8036 98.7015 38.773C98.9134 38.7424 99.1406 38.4935 99.4487 38.2773V38.2729Z" fill="white"/>
<path d="M145.374 143.337H130.169C129.765 143.337 129.358 143.352 128.954 143.337C128.27 143.291 128.218 143.212 128.216 142.5C128.236 141.392 128.436 140.293 128.808 139.249C130.585 133.871 132.31 128.474 133.984 123.058C135.472 118.278 136.877 113.469 138.354 108.68C138.664 107.667 139.09 106.689 139.446 105.686C140.231 103.443 141.917 102.072 144.074 101.43C145.238 101.085 146.578 101.286 147.839 101.306C149.051 101.325 150.262 101.474 151.474 101.482C156.694 101.524 161.914 101.511 167.134 101.572C168.653 101.597 170.169 101.713 171.674 101.917C173.64 102.173 174.392 103.092 174.403 105.081C174.402 105.688 174.329 106.292 174.185 106.881C172.303 114.701 170.322 122.497 168.021 130.208C167.267 132.728 166.585 135.272 165.757 137.766C165.303 139.053 164.74 140.299 164.075 141.491C163.387 142.78 162.349 143.415 160.747 143.385C155.613 143.278 150.491 143.337 145.374 143.337ZM148.201 125.648C148.127 126.605 148.868 127.985 150.445 128.793C151.955 129.566 153.401 129.085 154.71 128.164C155.992 127.246 156.975 125.972 157.537 124.499C158.285 122.641 158.691 120.732 157.974 118.754C157.225 116.699 155.315 115.747 153.242 116.485C152.585 116.737 151.976 117.1 151.441 117.557C149.18 119.446 148.391 121.992 148.201 125.659V125.648Z" fill="white"/>
<path fill-rule="evenodd" clip-rule="evenodd" d="M51.5876 142.738C54.9175 142.977 58.2473 143.214 61.5772 143.45C64.4525 143.509 67.2362 143.007 69.9979 142.315C73.0131 141.577 75.7509 140.376 77.82 137.947C78.5323 137.111 79.4041 136.534 80.5861 136.6C80.6853 136.606 80.7896 136.516 80.8942 136.426C80.9416 136.385 80.9891 136.344 81.0362 136.312C80.9498 136.191 80.8518 136.079 80.7434 135.977C78.4296 134.2 77.8506 132.553 78.5825 129.78C78.6415 129.547 78.7183 129.33 78.7952 129.112C78.8351 128.999 78.8751 128.886 78.9125 128.771C78.9914 128.586 79.0472 128.391 79.0785 128.192C79.0593 128.054 78.9873 127.928 78.8775 127.841C78.833 127.821 78.7844 127.813 78.736 127.817C78.6876 127.821 78.6409 127.836 78.6 127.862C78.4881 127.951 78.383 128.048 78.278 128.146C78.1226 128.29 77.9676 128.434 77.7916 128.546C77.5318 128.712 77.2757 128.889 77.0194 129.067C76.3534 129.528 75.6865 129.989 74.9512 130.26C71.145 131.66 67.175 132.062 63.1372 131.863C62.8338 131.852 62.5361 131.778 62.2632 131.645C62.0624 131.519 61.9183 131.32 61.8612 131.09C61.8372 130.987 62.0753 130.763 62.2392 130.688C62.4753 130.6 62.7237 130.548 62.9755 130.535C63.1326 130.519 63.2896 130.503 63.4465 130.486C64.2963 130.396 65.1452 130.307 65.9973 130.252C66.5719 130.214 66.9172 129.998 67.116 129.433C67.6273 128.011 68.1691 126.585 68.7197 125.172C69.6228 122.866 70.5325 120.561 71.4487 118.256C71.5211 118.015 71.644 117.791 71.8092 117.601C72.0102 117.417 72.3336 117.203 72.5521 117.236C72.9607 117.297 73.0306 117.697 72.9891 118.077C72.9743 118.225 72.9436 118.372 72.8973 118.514C72.7356 118.995 72.5741 119.476 72.4126 119.957C71.8824 121.536 71.3522 123.115 70.8129 124.692C70.5963 125.322 70.3731 125.951 70.1498 126.579C69.8482 127.428 69.5466 128.277 69.2616 129.131C69.0693 129.706 69.2092 129.841 69.8515 129.721L69.8911 129.713C72.6787 129.192 75.4345 128.676 77.3721 126.227C78.2504 125.113 79.0588 125.179 80.3152 125.987C81.2971 126.611 81.3076 126.604 82.1869 125.964C82.2174 125.942 82.249 125.919 82.2816 125.895C82.6611 125.62 83.0399 125.343 83.4186 125.067C85.0853 123.85 86.752 122.633 88.4825 121.512C91.8757 119.313 95.4459 118.913 99.1406 120.822C99.4086 120.96 99.6983 121.052 99.9971 121.093C101.107 121.239 101.347 120.957 101.247 119.865C101.084 118.128 100.947 116.389 100.811 114.65L100.782 114.279C100.734 113.928 100.743 113.571 100.808 113.222C100.851 113.06 100.983 112.915 101.114 112.769C101.174 112.702 101.234 112.636 101.286 112.567C101.512 112.738 101.721 112.93 101.909 113.142C102.005 113.32 102.061 113.516 102.073 113.718L102.083 113.778C102.191 114.407 102.298 115.031 102.385 115.666C102.475 116.311 102.561 116.957 102.646 117.603C102.759 118.459 102.872 119.316 102.997 120.171C103.117 121.014 103.183 121.047 104.09 120.964C104.151 120.958 104.212 120.946 104.274 120.933C104.363 120.916 104.451 120.898 104.542 120.898C106.371 120.8 107.227 121.999 106.508 123.724C106.411 123.895 106.368 124.091 106.386 124.286C106.405 124.482 106.483 124.667 106.611 124.816C107.341 125.864 107.323 126.583 106.565 127.574C106.277 127.99 105.882 128.32 105.422 128.531C104.271 128.948 104.059 129.765 104.197 130.819C104.247 131.22 104.285 131.62 104.324 132.022C104.329 132.074 104.334 132.126 104.339 132.178C104.383 132.63 104.436 133.082 104.489 133.535C104.612 134.59 104.736 135.646 104.745 136.702C104.746 136.786 104.746 136.865 104.746 136.939C104.752 138.147 104.753 138.192 106.261 138.168C107.218 138.15 107.245 138.096 106.851 137.257C106.22 135.908 106.362 135.154 107.435 134.161C107.541 134.051 107.658 133.953 107.784 133.868C109.421 132.896 110.684 131.54 111.89 130.086C113.183 128.542 114.872 127.845 116.915 128.245C117.01 128.279 117.109 128.301 117.21 128.31C117.393 128.29 117.575 128.26 117.754 128.221C117.718 128.08 117.671 127.943 117.612 127.81C117.44 127.494 117.261 127.181 117.083 126.869C116.683 126.169 116.284 125.471 115.962 124.738C114.924 122.363 113.91 119.975 112.898 117.589C112.33 116.25 111.762 114.913 111.191 113.578C110.046 110.875 108.635 108.292 106.98 105.867C105.619 103.885 104.035 102.116 101.922 100.919C99.2346 99.4013 96.5143 97.936 93.7919 96.4794C92.9525 96.0306 92.9205 96.0747 92.3473 96.8659L92.3345 96.8834C90.7133 99.1327 88.4912 100.377 85.795 100.941C83.3654 101.452 81.0712 101.033 78.8032 100.19C76.9926 99.5185 75.3275 98.5066 73.898 97.2088C73.5331 96.8812 73.1923 96.6759 72.6854 96.9642C70.1203 98.4142 67.5967 99.9407 65.6805 102.225C64.2843 103.891 62.9559 105.623 61.7323 107.418C58.7263 111.862 56.0575 116.525 53.7485 121.368C51.9066 125.143 50.3559 129.053 49.1099 133.064C48.5178 134.995 48.0153 136.954 47.9322 139C47.8514 140.996 48.7057 142.057 50.6918 142.583C50.9853 142.661 51.285 142.713 51.5876 142.738ZM101.133 128.802C101.132 128.802 101.132 128.802 101.131 128.802L101.129 128.791C101.13 128.794 101.131 128.798 101.133 128.802ZM101.133 128.802C101.194 128.973 101.262 129.144 101.33 129.314C101.486 129.706 101.643 130.098 101.712 130.505C102.016 132.239 100.598 133.586 98.8718 133.241C97.9148 133.051 96.9731 132.724 96.3176 131.992C94.8733 130.365 94.5296 130.628 93.4158 131.479C93.2811 131.581 93.1352 131.693 92.9747 131.811C91.3731 132.988 89.6732 133.946 87.5997 134.067C87.1453 134.102 86.6689 134.427 86.2888 134.722C86.055 134.902 85.8467 135.121 85.6393 135.339C85.3524 135.64 85.0675 135.94 84.72 136.132C84.0475 136.472 83.4988 137.015 83.1512 137.683C82.7819 138.393 82.1527 138.867 81.3224 138.843C80.4135 138.816 79.7908 139.244 79.2358 139.878C78.2464 140.963 77.0969 141.891 75.8273 142.629C75.782 142.657 75.7362 142.684 75.6903 142.71C75.5611 142.786 75.4315 142.862 75.3138 142.952C75.2791 142.982 75.2519 143.019 75.2344 143.06C75.2169 143.102 75.2097 143.147 75.2133 143.193C75.2401 143.23 75.2751 143.261 75.3155 143.284C75.356 143.306 75.401 143.319 75.4471 143.321C75.8011 143.345 76.155 143.345 76.509 143.345H86.5247C86.6424 143.345 86.7539 143.346 86.8596 143.347C88.4036 143.356 88.6945 143.357 88.6638 141.262C88.6419 139.72 89.0134 139.303 90.5691 139.065C92.2646 138.805 93.9754 138.613 95.6862 138.489C96.9861 138.396 98.2893 138.346 99.5928 138.295C100.41 138.263 101.228 138.232 102.044 138.19C103.102 138.137 103.226 137.947 103.058 136.855C103.008 136.525 102.957 136.195 102.906 135.865C102.757 134.898 102.608 133.932 102.466 132.964L102.466 132.963C102.315 131.915 102.164 130.867 102.044 129.815C101.981 129.239 101.741 128.866 101.133 128.802Z" fill="#AA82F0"/>
<path d="M94.2288 121.551C95.8728 121.499 97.4921 121.961 98.8609 122.873C99.4137 123.226 99.9337 123.635 100.467 124.021C101.515 124.821 102.694 125.433 103.952 125.829C104.251 125.917 104.73 126.174 104.732 126.36C104.732 126.88 104.201 126.926 103.823 126.928C103.019 126.952 102.214 126.9 101.419 126.773C100.428 126.574 99.4526 126.304 98.5004 125.965C97.9848 125.786 97.539 125.419 97.0496 125.159C96.3476 124.762 95.6256 124.401 94.8865 124.078C94.7484 124.053 94.6063 124.065 94.4739 124.111C94.3415 124.157 94.2232 124.237 94.1305 124.342C94.0892 124.476 94.0819 124.619 94.1094 124.756C94.1369 124.894 94.1982 125.023 94.2878 125.131C95.1094 125.88 95.9943 126.554 96.8355 127.282C97.491 127.845 98.1311 128.417 98.7211 129.029C99.1012 129.434 99.4233 129.891 99.6781 130.385C99.7391 130.515 99.7685 130.657 99.764 130.801C99.7594 130.944 99.721 131.084 99.6519 131.21C99.5435 131.306 99.4138 131.374 99.2735 131.41C99.1332 131.445 98.9865 131.446 98.8456 131.413C98.3765 131.25 97.9346 131.018 97.5346 130.723C97.1676 130.461 96.8792 130.086 96.5427 129.786C95.6949 129.046 94.7445 128.858 93.7416 129.43C93.0402 129.83 92.3782 130.304 91.7118 130.756C90.4008 131.656 89.0221 132.365 87.3834 132.418C86.4089 132.448 85.4607 132.396 84.5867 131.894C84.3674 131.767 84.1291 131.677 83.881 131.627C83.7813 131.606 83.6776 131.614 83.5821 131.649C83.4865 131.685 83.4029 131.746 83.341 131.827C83.279 131.908 83.2413 132.005 83.232 132.106C83.2228 132.208 83.2425 132.31 83.2889 132.4C83.4615 132.705 83.6829 132.98 83.9443 133.213C84.1628 133.431 84.4884 133.527 84.6588 133.759C84.744 133.872 84.5976 134.346 84.5299 134.353C83.988 134.399 83.4156 134.475 82.9021 134.353C81.2022 133.933 80.3523 132.499 80.68 130.778C80.9488 129.374 81.5933 128.28 82.865 127.502C85.0171 126.174 87.0797 124.705 89.2013 123.331C89.8943 122.912 90.6099 122.532 91.3447 122.191C92.2331 121.728 93.2279 121.508 94.2288 121.551Z" fill="white"/>
<path d="M107.577 143.343H92.5443C92.2908 143.343 92.0374 143.343 91.7839 143.343C90.3419 143.376 90.4139 143.182 90.5385 141.815C90.536 141.61 90.6106 141.413 90.7475 141.261C90.8843 141.109 91.0734 141.014 91.277 140.996C91.8212 140.878 92.3711 140.789 92.9244 140.727C95.0941 140.594 97.2659 140.413 99.4377 140.4C107.839 140.347 116.24 140.356 124.641 140.343C124.945 140.343 125.248 140.343 125.552 140.369C125.783 140.371 126.006 140.452 126.184 140.598C126.363 140.744 126.486 140.947 126.533 141.173C126.66 141.646 126.597 142.155 126.173 142.398C125.523 142.766 124.834 143.059 124.119 143.271C123.699 143.398 123.214 143.313 122.76 143.313H107.577V143.343ZM121.021 141.247V141.181C120.418 141.181 119.812 141.166 119.209 141.181C118.86 141.168 118.511 141.222 118.182 141.341C118.062 141.412 117.957 141.506 117.875 141.619C117.792 141.732 117.733 141.86 117.702 141.996C117.675 142.123 117.979 142.387 118.185 142.476C118.77 142.727 123.011 142.557 123.546 142.258C123.732 142.151 123.953 141.876 123.933 141.703C123.894 141.594 123.827 141.496 123.739 141.42C123.651 141.343 123.545 141.29 123.431 141.267C122.629 141.218 121.825 141.247 121.021 141.247Z" fill="white"/>
<path d="M83.4987 99.1763C80.0494 99.0846 77.1522 97.8129 74.807 95.3612C73.0962 93.5749 73.8718 90.7862 76.2381 90.0438C76.3823 89.9979 76.5375 89.9848 76.6751 89.9346C78.351 89.334 78.2854 89.6398 78.2985 91.2448C78.2682 91.4829 78.2057 91.7158 78.1128 91.9371C77.8863 91.8613 77.6669 91.7656 77.4573 91.651C77.0902 91.4108 76.7756 90.9522 76.2731 91.3278C75.965 91.5593 76.0415 92.1511 76.4435 92.7167C76.9913 93.515 77.7574 94.1389 78.6503 94.5139C80.3431 95.2083 82.174 95.5006 83.999 95.3678C85.3756 95.2558 86.6787 94.701 87.7134 93.7867C87.8866 93.6788 88.0354 93.536 88.1504 93.3675C88.3134 93.0825 88.3965 92.7588 88.3907 92.4306C88.3711 92.2974 87.8948 92.1336 87.637 92.1511C87.0776 92.1882 86.8678 91.9567 86.9596 91.4523C86.9858 91.3082 87.2568 91.0658 87.3332 91.0941C88.7141 91.5942 90.1016 92.0965 90.7396 93.6186C90.8996 93.9632 90.9693 94.3428 90.9422 94.7218C90.915 95.1007 90.7919 95.4666 90.5844 95.7849C89.6973 97.2502 88.3449 98.1281 86.7695 98.6107C85.7207 98.947 84.5911 99.0016 83.4987 99.1763Z" fill="white"/>
<path d="M122.976 138.166C121.2 138.187 119.622 137.528 118.095 136.72C117.554 136.446 117.036 136.129 116.546 135.772C115.453 134.953 114.413 135.012 113.356 135.827C113.033 136.073 112.69 136.292 112.331 136.482C111.621 136.883 110.805 137.058 109.993 136.982C109.644 136.954 109.305 136.856 108.995 136.694C108.468 136.395 108.435 135.857 108.896 135.449C109.169 135.22 109.462 135.016 109.77 134.838C110.932 134.117 111.948 133.185 112.766 132.09C112.888 131.929 113.013 131.771 113.146 131.619C114.597 129.965 115.936 129.557 118.012 130.396C119.178 130.875 120.276 131.505 121.278 132.269C122.563 133.239 123.717 134.381 124.901 135.475C125.102 135.661 125.183 135.977 125.318 136.231C125.056 136.176 124.759 136.185 124.538 136.056C123.841 135.652 123.179 135.183 122.491 134.763C122.199 134.572 121.883 134.422 121.551 134.316C121.418 134.278 121.182 134.429 121.064 134.558C121.031 134.622 121.013 134.694 121.013 134.767C121.013 134.839 121.031 134.911 121.064 134.975C121.196 135.188 121.36 135.378 121.551 135.539C122.244 136.126 122.963 136.683 123.645 137.286C123.831 137.496 123.99 137.73 124.119 137.98C123.841 138.048 123.562 138.12 123.282 138.177C123.18 138.183 123.077 138.179 122.976 138.166Z" fill="white"/>
<path d="M138.839 102.542C138.293 103.712 137.694 104.725 137.336 105.817C136.359 108.791 135.463 111.792 134.576 114.793C132.727 121.04 130.907 127.297 129.072 133.547C128.66 134.953 128.24 136.357 127.811 137.757C127.72 138.065 127.547 138.373 127.178 138.17C127.089 138.096 127.019 138.002 126.974 137.896C126.93 137.789 126.912 137.673 126.922 137.558C127.054 136.915 127.219 136.28 127.418 135.654C128.436 132.269 129.446 128.884 130.49 125.502C132.159 120.098 133.845 114.698 135.546 109.302C136.016 107.809 136.49 106.311 137.097 104.872C137.443 104.053 138.054 103.343 138.557 102.598C138.605 102.526 138.73 102.507 138.819 102.463C138.839 102.546 138.861 102.627 138.839 102.542Z" fill="white"/>
<path d="M115.038 138.17C114.939 138.178 114.838 138.178 114.739 138.17C114.411 138.122 114.083 138.061 113.753 138.006C114.018 137.748 114.245 137.425 114.555 137.251C115.056 136.969 116.028 137.32 116.378 137.855C116.408 137.901 116.288 138.133 116.227 138.137C115.831 138.163 115.434 138.15 115.038 138.15V138.17Z" fill="white"/>
<path d="M104.26 122.451C104.384 122.523 104.64 122.586 104.682 122.717C104.691 122.811 104.679 122.906 104.647 122.994C104.614 123.082 104.563 123.163 104.496 123.228C103.958 123.764 103.65 123.809 103.021 123.447C102.829 123.3 102.657 123.13 102.508 122.94C102.708 122.817 102.92 122.714 103.141 122.634C103.493 122.545 103.836 122.517 104.26 122.451Z" fill="white"/>
<path d="M173.463 30.158C173.396 34.8771 172.205 39.3298 170.367 43.6581C168.766 47.4901 166.598 51.0598 163.935 54.2472C161.414 57.2347 158.626 59.9447 154.95 61.5651C153.698 62.1216 152.346 62.4187 150.976 62.4386C148.573 62.4735 146.825 61.2812 145.675 59.2328C144.526 57.1844 144.146 54.9526 144.078 52.6662C143.986 49.5084 144.568 46.4228 145.446 43.4048C147.137 37.6046 149.857 32.3068 153.749 27.6815C156.152 24.8208 158.805 22.1457 162.316 20.5493C163.76 19.8942 165.213 19.4116 166.847 19.5448C168.781 19.702 170.328 20.4445 171.462 22.0627C172.79 23.956 173.28 26.0961 173.459 28.3389C173.505 28.9416 173.463 29.5509 173.463 30.158Z" fill="white"/>
<path d="M182.111 34.5802C182.042 37.6091 181.39 40.5179 180.556 43.3874C178.775 49.5019 175.707 54.9352 171.563 59.746C169.402 62.253 166.854 64.332 163.83 65.7645C163.377 65.9884 162.905 66.1739 162.421 66.3192C162.137 66.4115 161.831 66.4115 161.547 66.3192C159.917 65.6466 158.302 64.9325 156.681 64.2294C156.588 64.191 156.496 64.1472 156.408 64.0983C156.122 63.9345 156.058 63.7052 156.345 63.5174C156.808 63.2139 157.31 62.9649 157.787 62.681C160.69 60.9187 163.275 58.6803 165.434 56.0598C169.305 51.431 172.25 46.1021 174.11 40.3628C175.109 37.3337 175.712 34.1887 175.906 31.0053C176.096 28.2715 175.67 25.5301 174.661 22.9821C174.59 22.8487 174.534 22.7081 174.493 22.5628C174.484 22.4269 174.512 22.2911 174.573 22.1697C174.587 22.1413 174.77 22.1697 174.855 22.2025C178.502 23.8556 180.879 26.5701 181.65 30.5314C181.906 31.857 181.963 33.2262 182.111 34.5802ZM164.632 64.3364L165.108 64.0918C165.019 63.9324 164.964 63.6725 164.833 63.6288C163.512 63.1731 162.18 62.7422 160.837 62.336C160.706 62.2967 160.505 62.478 160.336 62.5544C160.454 62.7466 160.535 63.0567 160.699 63.1134C161.984 63.5436 163.284 63.9236 164.634 64.3364H164.632ZM168.386 61.1677L168.958 60.9122C168.884 60.7462 168.851 60.4754 168.727 60.4296C167.577 59.936 166.413 59.4818 165.25 59.0167C165.206 58.9933 165.156 58.9849 165.106 58.9926C164.929 59.0516 164.669 59.08 164.608 59.211C164.591 59.3014 164.599 59.3945 164.63 59.4811C164.66 59.5676 164.713 59.6447 164.783 59.7046C165.982 60.2134 167.18 60.6873 168.386 61.1677ZM168.585 54.4941C168.48 54.5596 168.322 54.6273 168.329 54.6622C168.364 54.8369 168.397 55.099 168.512 55.1601C169.705 55.6784 170.909 56.1719 172.122 56.6407C172.271 56.6975 172.485 56.5839 172.67 56.5468C172.555 56.3525 172.485 56.0555 172.314 55.979C171.222 55.4789 170.112 55.0225 169.002 54.5618C168.865 54.5241 168.724 54.5028 168.582 54.4984L168.585 54.4941ZM172.806 48.2834C172.718 48.4559 172.587 48.5979 172.614 48.6852C172.795 49.2137 174.362 49.9693 174.927 49.8055C175.004 49.7836 175.102 49.5019 175.065 49.4648C174.449 48.8468 173.63 48.6175 172.806 48.2834Z" fill="#CBB5F5"/>
<path d="M159.246 66.8455C157.128 66.7184 155.06 66.1461 153.179 65.1662C153.037 65.0919 152.96 64.8735 152.868 64.7294C152.979 64.64 153.102 64.5665 153.233 64.511C153.851 64.3138 154.52 64.3488 155.114 64.6093C156.677 65.2884 158.311 65.8016 159.921 66.3869C160.101 66.4652 160.275 66.5542 160.443 66.6533C160.244 66.7282 160.041 66.7916 159.834 66.8433C159.638 66.8611 159.442 66.8618 159.246 66.8455Z" fill="#CBB5F5"/>
<path d="M96.2084 68.9463C96.8639 68.9463 97.5194 68.9157 98.1749 68.9637C98.2904 68.9792 98.4004 69.0225 98.4956 69.0898C98.5907 69.1571 98.6681 69.2465 98.7211 69.3503C98.7186 69.4687 98.6896 69.585 98.6363 69.6908C98.583 69.7966 98.5067 69.8892 98.413 69.9617C98.1727 70.149 97.8923 70.2783 97.5937 70.3395C96.6017 70.5382 95.6097 70.7915 94.6069 70.8483C92.0024 70.9925 90.0185 69.8591 88.5983 67.7015C88.4229 67.3985 88.2288 67.1068 88.0171 66.828C87.7396 66.5004 87.1125 66.3366 87.3616 65.7732C87.6741 65.0417 87.9646 64.2446 88.7359 63.8384C88.8236 63.7853 88.9249 63.759 89.0273 63.7628C89.1297 63.7666 89.2288 63.8004 89.3123 63.8598C89.3957 63.9193 89.4599 64.0019 89.4969 64.0975C89.5339 64.193 89.542 64.2973 89.5203 64.3974C89.2713 65.5527 89.8852 66.3279 90.556 67.1031C91.4496 68.1361 92.5421 68.8349 93.9339 68.9332C94.6899 68.9856 95.4634 68.9332 96.2106 68.9332L96.2084 68.9463Z" fill="#122224"/>
<path d="M83.0901 45.7677C83.195 45.4139 83.2714 44.8483 83.5271 44.3744C84.3464 42.8108 85.7448 41.9526 87.3791 41.4459C87.6684 41.3799 87.9701 41.3919 88.2531 41.4809C88.3379 41.507 88.4146 41.5544 88.4758 41.6186C88.5371 41.6828 88.5807 41.7617 88.6026 41.8477C88.6246 41.9336 88.624 42.0237 88.6011 42.1094C88.5782 42.1951 88.5336 42.2734 88.4716 42.3369C88.1972 42.5561 87.9048 42.7519 87.5976 42.9222C86.1709 43.8263 85.1636 45.0077 85.0194 46.77C84.9822 47.2505 84.849 47.6807 84.2743 47.7396C83.7827 47.7898 83.3567 47.4404 83.2146 46.8661C83.1533 46.5025 83.1117 46.1358 83.0901 45.7677Z" fill="#122224"/>
<path d="M62.4729 63.179C62.6882 63.1797 62.9024 63.2113 63.1087 63.2729C64.51 63.8348 65.9032 64.4172 67.2885 65.0199C67.4635 65.1151 67.6133 65.2506 67.7255 65.4151C67.766 65.4784 67.79 65.5507 67.7956 65.6256C67.8011 65.7005 67.7878 65.7755 67.757 65.844C67.7262 65.9125 67.6789 65.9722 67.6192 66.0178C67.5595 66.0634 67.4894 66.0935 67.4152 66.1052C67.3665 66.1205 67.3149 66.1243 67.2645 66.1161C65.7525 65.5221 64.8195 66.5704 63.7882 67.3391C63.5872 67.4897 63.419 67.7147 63.1961 67.7955C62.9732 67.8763 62.6521 67.8784 62.5275 67.7561C62.459 67.6605 62.4156 67.5493 62.4011 67.4326C62.3866 67.3159 62.4015 67.1974 62.4445 67.0879C62.7087 66.6636 63.0076 66.2619 63.3381 65.8868C63.8144 65.2994 63.8013 65.1924 63.1415 64.9347C62.7657 64.7884 62.3462 64.7163 62.0184 64.498C61.7401 64.3148 61.5327 64.042 61.4307 63.7249C61.3542 63.4083 61.7825 63.1921 62.4729 63.179Z" fill="#122224"/>
<path d="M97.7444 62.9562C97.4691 62.7509 97.1828 62.6439 97.1173 62.4605C97.0878 62.3472 97.0861 62.2285 97.1124 62.1144C97.1386 62.0004 97.192 61.8943 97.2681 61.8053C97.7422 61.4406 98.2797 61.1633 98.7844 60.8379C99.051 60.6676 99.1012 60.4208 98.8106 60.2505C98.1801 59.913 97.7088 59.3399 97.4997 58.6563C97.4142 58.3735 97.3823 58.0773 97.4057 57.7828C97.4258 57.6887 97.4671 57.6004 97.5266 57.5247C97.5861 57.449 97.662 57.3879 97.7487 57.346C97.939 57.3188 98.1325 57.3623 98.2928 57.4683C98.4119 57.5608 98.5058 57.6817 98.5659 57.8199C98.7138 58.1134 98.9298 58.3672 99.1959 58.5602C99.462 58.7532 99.7704 58.8797 100.095 58.9293C100.805 59.0472 101.325 59.4119 101.406 60.1675C101.487 60.9231 101.218 61.6284 100.532 61.9538C99.6627 62.3666 98.6861 62.6242 97.7444 62.9562Z" fill="#122224"/>
<path d="M92.0418 51.9958C92.0243 52.1443 92.0133 52.2949 91.9849 52.4434C91.8298 53.2056 91.4191 53.7231 90.9056 53.7537C90.2654 53.7952 89.883 53.3912 89.5815 52.8977C89.127 52.1508 88.7906 51.369 88.8714 50.4649C88.9697 49.3731 89.9333 48.8948 90.8379 49.5041C91.7206 50.0937 92.0396 50.9781 92.0418 51.9958Z" fill="#122224"/>
<path d="M97.7357 47.4797C97.7357 47.3378 97.7357 47.1849 97.7597 47.043C97.8187 46.5691 97.9957 46.1695 98.4895 46.0013C98.7285 45.9144 98.9886 45.9041 99.2338 45.9718C99.4789 46.0395 99.6969 46.1819 99.8573 46.3791C100.143 46.6993 100.361 47.0733 100.499 47.4791C100.638 47.8849 100.694 48.3143 100.664 48.742C100.622 49.7814 99.5296 50.2466 98.6709 49.6155C97.9608 49.0892 97.7663 48.3205 97.7357 47.4797Z" fill="#122224"/>
<path d="M99.4486 38.2773C99.1405 38.4957 98.9373 38.7359 98.7057 38.7686C98.4741 38.8014 98.2403 38.618 98.0197 38.5044C97.0539 38.0043 96.0532 37.6964 94.9607 37.9847C94.8626 38.0095 94.7624 38.0256 94.6614 38.0327C94.2441 38.0677 93.8355 38.0655 93.6301 37.596C93.4663 37.2247 93.6869 36.7224 94.1392 36.4517C94.3072 36.3388 94.4958 36.2601 94.6942 36.2202C96.1625 36.0018 97.5346 36.2769 98.6861 37.2247C98.9745 37.4737 99.1471 37.858 99.4486 38.2773Z" fill="#122224"/>
<path d="M148.201 125.659C148.391 121.992 149.18 119.446 151.439 117.568C151.974 117.111 152.583 116.748 153.24 116.496C155.313 115.758 157.223 116.714 157.972 118.765C158.691 120.743 158.285 122.652 157.535 124.51C156.973 125.982 155.989 127.257 154.708 128.175C153.397 129.096 151.953 129.577 150.443 128.804C148.868 127.991 148.127 126.615 148.201 125.659ZM156.784 120.833C156.69 120.455 156.607 119.686 156.305 119.016C155.785 117.852 154.728 117.457 153.546 117.942C152.982 118.162 152.464 118.484 152.016 118.891C150.57 120.265 149.812 122.012 149.56 123.962C149.418 125.069 149.945 126.022 150.535 126.91C150.828 127.347 151.31 127.533 151.846 127.565C152.61 127.616 153.365 127.366 153.948 126.869C155.741 125.401 156.609 123.488 156.784 120.833Z" fill="#122224"/>
<path d="M121.021 141.247C121.825 141.247 122.629 141.218 123.424 141.269C123.538 141.293 123.644 141.345 123.732 141.422C123.82 141.498 123.887 141.596 123.927 141.705C123.946 141.878 123.725 142.142 123.54 142.26C123.004 142.561 118.763 142.732 118.178 142.479C117.973 142.389 117.669 142.125 117.695 141.998C117.727 141.862 117.785 141.734 117.868 141.621C117.951 141.509 118.055 141.414 118.176 141.343C118.505 141.224 118.853 141.17 119.203 141.184C119.806 141.162 120.411 141.184 121.014 141.184L121.021 141.247Z" fill="#122224"/>
<path d="M164.634 64.3363C163.284 63.9235 161.984 63.5436 160.701 63.1155C160.537 63.0588 160.457 62.7487 160.339 62.5565C160.507 62.4779 160.708 62.2966 160.839 62.3381C162.181 62.7414 163.513 63.1723 164.835 63.6309C164.966 63.6746 165.021 63.9345 165.111 64.0939L164.634 64.3363Z" fill="#122224"/>
<path d="M168.386 61.1677C167.182 60.6829 165.982 60.209 164.783 59.6958C164.713 59.6359 164.66 59.5589 164.63 59.4723C164.599 59.3857 164.591 59.2926 164.608 59.2023C164.665 59.08 164.929 59.0516 165.106 58.9839C165.155 58.9761 165.206 58.9845 165.25 59.0079C166.413 59.4731 167.577 59.9273 168.727 60.4208C168.851 60.4732 168.884 60.7375 168.958 60.9034L168.386 61.1677Z" fill="#122224"/>
<path d="M168.582 54.4984C168.724 54.5044 168.864 54.5271 169 54.5661C170.11 55.0269 171.222 55.4833 172.312 55.9834C172.482 56.0598 172.552 56.3568 172.668 56.5512C172.482 56.5883 172.268 56.7018 172.12 56.6451C170.906 56.1763 169.703 55.6827 168.51 55.1645C168.394 55.1142 168.362 54.8413 168.327 54.6666C168.32 54.6316 168.477 54.5639 168.582 54.4984Z" fill="#122224"/>
<path d="M172.806 48.2833C173.632 48.6131 174.449 48.8424 175.065 49.4647C175.102 49.5019 175.004 49.7836 174.927 49.8054C174.353 49.9692 172.795 49.2136 172.614 48.6851C172.583 48.6022 172.718 48.4602 172.806 48.2833Z" fill="#122224"/>
<path d="M156.784 120.833C156.609 123.488 155.741 125.401 153.943 126.867C153.36 127.364 152.606 127.614 151.841 127.563C151.308 127.533 150.825 127.345 150.53 126.908C149.94 126.019 149.414 125.067 149.556 123.96C149.807 122.01 150.565 120.263 152.012 118.889C152.459 118.482 152.978 118.16 153.541 117.939C154.723 117.455 155.781 117.85 156.301 119.014C156.607 119.693 156.69 120.455 156.784 120.833Z" fill="white"/>
</svg>
