<svg width="144" height="148" viewBox="0 0 144 148" fill="none" xmlns="http://www.w3.org/2000/svg">
<path fill-rule="evenodd" clip-rule="evenodd" d="M43.3164 64.0459C43.4406 64.138 43.5635 64.2346 43.6848 64.3357C46.2002 66.4318 53.7463 76.0741 55.4232 84.4587C57.1002 92.8432 61.7117 114.643 65.4847 119.674C68.5032 123.699 72.6116 128.338 74.2886 130.155C77.5026 132.251 84.1824 136.443 85.1885 136.443C86.1947 136.443 92.0359 135.046 94.8308 134.347L123.65 124.488C123.721 124.519 123.792 124.552 123.864 124.588L123.91 124.614L123.959 124.639C125.1 125.228 126.295 125.845 127.057 127.104C127.671 128.111 127.499 129.122 126.596 129.762L126.377 129.911C125.408 130.627 124.378 131.257 123.3 131.794C118.456 134.048 113.351 135.828 108.946 137.32C107.512 137.808 106.073 138.3 104.63 138.795C100.162 140.319 95.5411 141.894 90.9568 143.343C87.6909 144.376 84.3237 145.275 81.0694 146.144L80.998 146.163L78.0103 146.962C77.8094 147.016 77.6476 146.799 77.4824 146.578C77.3291 146.373 77.1729 146.164 76.9797 146.163L76.9628 146.163C76.1475 146.152 75.2258 146.14 74.4908 145.791C74.011 145.576 73.5312 145.503 73.0585 145.43C72.4786 145.342 71.9095 145.255 71.3645 144.91C69.5155 143.717 67.859 142.627 66.2922 141.397C63.9543 139.566 61.877 137.426 60.1177 135.036C58.6547 133.093 57.3641 131.027 56.2604 128.86C54.0581 124.451 52.4496 119.769 51.4768 114.938C51.2581 113.849 51.026 112.76 50.794 111.671L50.793 111.667C50.4112 109.88 50.0195 108.034 49.6875 106.201C49.1531 103.241 48.4992 100.337 47.7423 97.5624C47.0223 94.8282 46.0877 92.1549 44.9471 89.5673C44.4426 88.4568 43.9048 87.3364 43.3836 86.2525C43.1513 85.7984 42.9355 85.3476 42.7197 84.8935C41.495 82.3624 39.9619 79.9921 38.1553 77.8363C37.3822 76.8621 36.9208 76.8193 36.3502 76.7664C35.8839 76.7232 35.3448 76.6732 34.5033 76.1029C34.5033 77.4592 33.1925 75.4828 32.3888 74.271C32.0932 73.8252 31.8661 73.4829 31.7983 73.4481C31.5029 73.3127 31.4299 72.9787 31.355 72.6363C31.292 72.3479 31.2276 72.0535 31.0281 71.8665C30.5288 71.3721 30.7783 71.2425 31.0408 71.1063C31.1919 71.0278 31.3473 70.9471 31.3667 70.7934C31.3827 70.6666 31.3105 70.4472 31.2254 70.1886C31.028 69.5886 30.7612 68.7779 31.3667 68.4258L31.7983 68.1738C33.3223 67.2508 34.8923 66.4055 36.5021 65.6414C37.8153 65.0453 38.9891 64.8878 40.1725 64.729C41.1827 64.5934 42.1998 64.4569 43.3164 64.0459Z" fill="#E8E9E9"/>
<path d="M136.299 115.983C135.526 114.706 134.308 114.088 133.153 113.491L133.107 113.465C132.914 113.368 132.722 113.292 132.536 113.219C132.317 113.143 132.108 113.043 131.912 112.92C131.624 112.711 131.328 112.506 131.036 112.296C129.958 111.566 128.926 110.772 127.943 109.917C125.212 107.425 123.241 105.202 121.735 102.915C120.158 100.473 118.793 97.901 117.656 95.2263C116.501 92.5101 115.543 89.7142 114.789 86.8604C113.958 83.5889 113.293 80.2772 112.798 76.9382C112.615 75.8099 112.43 74.6816 112.234 73.5534C111.668 70.4037 110.901 67.2935 109.937 64.2418C108.941 61.215 107.685 58.2804 106.181 55.4711C104.487 52.3016 102.383 49.3694 99.9223 46.7501C98.7221 45.4975 97.4262 44.3403 96.0463 43.289C95.4822 42.841 94.8981 42.3731 94.3406 41.9018C93.9341 41.5812 93.4475 41.3781 92.9336 41.3145C92.1571 41.2083 91.364 41.1386 90.6671 41.0756L89.9071 41.0059H89.8275C87.3785 41.059 85.1551 41.5634 83.008 42.0479H82.9317C78.5414 43.0434 73.9487 44.3243 68.0418 46.2125C65.8251 46.9227 63.2035 47.7722 60.5354 48.7014C57.9702 49.594 55.6108 50.4602 53.3277 51.3562C50.8356 52.3218 48.2571 53.324 45.7749 54.4523C44.1656 55.2173 42.5962 56.0635 41.0727 56.9876L40.6412 57.2398C39.7751 57.7442 39.5295 58.3515 39.4765 58.7729C39.4234 59.1944 39.5163 59.9045 40.3027 60.6843C40.7391 61.0939 41.2389 61.4301 41.7828 61.6799C42.035 61.8093 42.2706 61.9321 42.4863 62.0715C44.3572 63.3412 46.0234 64.8888 47.4275 66.6609C49.2335 68.8191 50.766 71.1921 51.9904 73.7259C52.2061 74.1806 52.4218 74.6319 52.6541 75.0865C53.1751 76.1716 53.7126 77.2933 54.217 78.405C55.3572 80.9955 56.2915 83.6718 57.0112 86.4091C57.7679 89.1866 58.4216 92.0936 58.9558 95.057C59.2877 96.8921 59.6793 98.7405 60.0609 100.529C60.2932 101.621 60.5255 102.713 60.7445 103.804C61.717 108.641 63.3248 113.327 65.5264 117.742C66.6298 119.911 67.9199 121.979 69.3824 123.924C71.1412 126.317 73.2177 128.46 75.5548 130.292C77.1211 131.524 78.777 132.615 80.6254 133.81C81.6144 134.436 82.6469 134.99 83.7149 135.469C84.4547 135.821 85.2618 136.009 86.0809 136.02C86.4821 136.021 86.8816 135.968 87.269 135.864L90.2556 135.064C93.5309 134.188 96.9224 133.282 100.211 132.24C104.794 130.79 109.413 129.214 113.88 127.687C115.322 127.192 116.76 126.7 118.194 126.211C122.597 124.717 127.701 122.935 132.543 120.679C133.621 120.142 134.651 119.511 135.619 118.794L135.838 118.645C136.741 118.004 136.913 116.992 136.299 115.983Z" fill="white"/>
<path d="M88.3708 39.7852C90.03 39.5463 91.5001 40.1171 93.0166 40.9533C96.1249 42.6483 98.9377 44.8359 101.346 47.431C103.178 49.3746 104.78 51.5225 106.121 53.8323C107.885 56.8959 109.358 60.1178 110.521 63.4558C111.488 66.2299 112.244 69.0731 112.781 71.9611C113.193 74.284 113.535 76.6069 113.993 78.8934C114.52 81.5481 115.058 84.2029 115.738 86.7979C116.631 90.0927 117.813 93.3021 119.272 96.3883C120.711 99.4005 122.493 102.237 124.582 104.84C125.85 106.487 127.351 107.941 129.039 109.154C130.12 109.931 131.159 110.771 132.211 111.587C132.406 111.722 132.577 111.888 132.719 112.078C133.429 113.16 134.521 113.787 135.543 114.504C136.741 115.343 137.122 116.535 136.87 117.918C136.691 118.914 135.875 119.521 135.125 120.072C133.306 121.4 131.252 122.322 129.201 123.235C128.02 123.762 126.812 124.23 125.617 124.735C125.479 124.806 125.348 124.891 125.226 124.987C125.342 125.073 125.451 125.176 125.577 125.252C126.417 125.753 127.296 126.205 128.096 126.762C129.503 127.758 129.423 129.463 127.917 130.303C126.778 130.928 125.598 131.475 124.386 131.942C120.769 133.356 117.138 134.741 113.495 136.097C111.215 136.94 108.899 137.68 106.609 138.496C102.132 140.086 97.6757 141.728 93.1858 143.282C90.1029 144.347 87.0036 145.362 83.8742 146.268C82.1834 146.754 80.4552 147.099 78.7074 147.3C77.7118 147.416 76.6864 147.161 75.6842 147.011C71.8647 146.437 68.752 144.443 65.7587 142.147C64.0728 140.851 62.5059 139.407 61.0764 137.833C59.3133 135.876 57.7565 133.743 56.4306 131.468C54.5673 128.274 53.1113 124.859 52.0966 121.303C51.4794 119.203 50.9683 117.062 50.5635 114.912C49.9993 111.925 49.6509 108.882 49.0801 105.889C48.6553 103.662 48.0647 101.462 47.4707 99.272C46.5409 95.9422 45.2698 92.7173 43.6776 89.6485C42.1791 86.7134 40.3928 83.9344 38.3449 81.3523C37.1359 79.8016 35.7454 78.4011 34.2034 77.181C33.7501 76.8024 33.3253 76.3909 32.9325 75.9499C32.398 75.3813 31.8199 74.8554 31.2036 74.3769C30.0819 73.5207 29.7235 72.2597 29.9823 70.8925C30.1582 69.9633 30.4801 69.0441 31.2434 68.4136C31.9819 67.7726 32.7735 67.1954 33.6095 66.688C35.856 65.3801 38.3202 64.4886 40.8835 64.0565C40.9992 64.0261 41.1106 63.9815 41.2154 63.9237C41.3946 63.8507 41.4775 63.7645 41.2651 63.6218C40.5626 63.1066 40.0178 62.4055 39.6922 61.5975C39.5517 61.3178 39.3428 61.0781 39.0849 60.9006C38.78 60.687 38.5261 60.4086 38.3416 60.0853C38.1571 59.7619 38.0464 59.4018 38.0175 59.0306C37.9887 58.6594 38.0423 58.2865 38.1746 57.9385C38.307 57.5906 38.5147 57.2762 38.7829 57.018C40.0445 55.893 41.4521 54.9431 42.9675 54.194C46.4478 52.3648 50.0529 50.7835 53.7559 49.4619C58.4382 47.7462 63.1371 46.0604 67.8825 44.5273C71.8348 43.2497 75.8469 42.1613 79.8655 41.0894C81.9396 40.5352 84.07 40.1669 86.1872 39.7852C86.8774 39.679 87.6042 39.7852 88.3708 39.7852ZM89.1605 41.6668C86.7547 41.7199 84.5678 42.2177 82.3975 42.7088C77.3833 43.8371 72.4421 45.2939 67.5639 46.8602C65.0585 47.66 62.5564 48.4763 60.0742 49.3424C57.665 50.1787 55.269 51.0581 52.8864 51.9806C50.361 52.9761 47.8324 53.9418 45.3701 55.0634C43.6331 55.8961 41.9396 56.8165 40.2961 57.8211C39.2342 58.4383 39.1678 59.3045 40.0904 60.2203C40.7076 60.8376 41.4874 61.0699 42.1677 61.5145C44.0948 62.8231 45.8132 64.4151 47.2649 66.2367C49.105 68.4372 50.6655 70.857 51.9108 73.4411C52.6508 75.0041 53.4173 76.5571 54.1275 78.1334C55.283 80.7558 56.2296 83.4655 56.9581 86.2371C57.7369 89.1131 58.3896 92.0146 58.9161 94.9414C59.4437 97.865 60.114 100.765 60.7014 103.679C61.6611 108.455 63.2501 113.083 65.4269 117.441C66.5163 119.573 67.7864 121.608 69.2232 123.523C70.9445 125.869 72.9788 127.968 75.2694 129.762C76.8689 131.02 78.5879 132.138 80.2936 133.246C81.2496 133.85 82.2477 134.385 83.2802 134.846C84.2408 135.329 85.3415 135.454 86.3863 135.201C90.7003 134.03 95.0376 132.931 99.2951 131.587C105.321 129.682 111.291 127.605 117.281 125.561C122.116 123.922 126.931 122.216 131.551 120.059C132.67 119.486 133.739 118.82 134.746 118.068C135.383 117.623 135.41 116.986 135.008 116.316C134.322 115.184 133.197 114.62 132.078 114.046C131.638 113.878 131.211 113.679 130.801 113.448C129.401 112.508 128.056 111.489 126.772 110.396C124.419 108.252 122.222 105.955 120.467 103.267C118.868 100.79 117.486 98.1802 116.335 95.4657C115.165 92.7213 114.196 89.8954 113.435 87.0103C112.24 82.62 111.663 78.1102 110.877 73.6468C110.317 70.5241 109.558 67.4405 108.603 64.4149C107.621 61.4249 106.378 58.5268 104.89 55.7537C103.223 52.6357 101.152 49.7514 98.731 47.1755C97.0717 45.3636 95.0807 43.9731 93.2124 42.4002C92.9015 42.1595 92.531 42.0081 92.1405 41.9622C91.1151 41.8261 90.0731 41.7531 89.1605 41.6668ZM77.5459 145.767C78.8036 145.515 80.1011 145.372 81.3256 144.99C84.6573 143.948 87.9758 142.849 91.281 141.692C94.9877 140.401 98.6646 139.037 102.361 137.71C106.831 136.11 111.321 134.561 115.781 132.921C119.246 131.647 122.67 130.266 126.105 128.939C126.832 128.654 126.865 128.415 126.258 127.887C126.016 127.687 125.752 127.516 125.471 127.376C124.774 127.011 124.028 126.712 123.367 126.301C122.707 125.889 122.139 125.989 121.489 126.244C120.324 126.709 119.143 127.144 117.958 127.572C116.511 128.076 115.051 128.538 113.601 129.039C109.858 130.333 106.141 131.727 102.365 132.921C98.1038 134.249 93.7865 135.44 89.4957 136.681C88.103 137.102 86.653 137.303 85.1983 137.275C84.3298 137.277 83.4839 136.999 82.7858 136.482C82.4273 136.177 82.0444 135.902 81.6409 135.659C80.4297 135.015 79.1786 134.438 77.974 133.784C75.2674 132.262 72.7727 130.391 70.5539 128.219C70.0833 127.747 69.6475 127.241 69.2497 126.706C68.221 125.422 67.1193 124.184 66.2134 122.817C64.7163 120.554 63.4215 118.165 62.344 115.675C61.088 112.839 60.081 109.899 59.3342 106.888C58.2922 102.554 57.3796 98.1869 56.5102 93.8132C55.7387 89.7722 54.6559 85.797 53.2714 81.9231C51.9041 78.1397 50.1117 74.5238 47.9286 71.1447C46.7574 69.3805 45.4796 67.6893 44.1024 66.0807C43.5681 65.4403 43.0272 65.1814 42.1644 65.5398C40.7872 66.1106 39.347 66.5354 37.95 67.0431C36.3584 67.6159 34.8498 68.397 33.4634 69.366C32.8044 69.808 32.3035 70.4485 32.0332 71.1945C31.9199 71.4829 31.9082 71.8012 32 72.0971C32.3982 73.0362 32.8329 73.9621 33.9114 74.3636C34.3452 74.5471 34.757 74.7787 35.1392 75.0539C36.8806 76.2679 38.4328 77.7328 39.7453 79.4011C41.8652 82.0284 43.7172 84.8609 45.2738 87.8565C47.1613 91.4387 48.6609 95.2122 49.7471 99.1127C50.6497 102.245 51.1641 105.448 51.7382 108.643C52.1066 110.717 52.3355 112.818 52.7005 114.895C53.6961 120.537 55.4914 125.906 58.3884 130.89C59.8639 133.437 61.6472 135.792 63.698 137.902C64.7366 138.971 65.8781 139.94 66.9699 140.959C69.2226 143.119 72.0358 144.606 75.0903 145.249C75.8967 145.415 76.6964 145.588 77.5359 145.767H77.5459Z" fill="#717A7C"/>
<path d="M78.4917 119.744C78.1765 119.72 78.0171 119.744 77.8645 119.697C77.5327 119.634 77.3899 119.316 77.6023 119.083C77.8606 118.792 78.1713 118.551 78.5182 118.373C80.2239 117.573 81.9363 116.78 83.6685 116.05C86.4494 114.864 89.2413 113.705 92.0443 112.572C96.3738 110.831 100.714 109.11 105.066 107.409C106.818 106.722 108.58 106.055 110.376 105.438C111.199 105.185 112.036 104.982 112.884 104.83C113.03 104.78 113.191 104.788 113.331 104.854C113.471 104.92 113.58 105.037 113.634 105.182C113.691 105.477 113.638 105.783 113.485 106.042C113.283 106.283 113.023 106.467 112.728 106.576C111.364 107.177 110.004 107.791 108.613 108.331C104.299 110.017 99.9854 111.67 95.6714 113.342C92.2335 114.67 88.8022 116.03 85.3576 117.351C83.4893 118.068 81.6044 118.735 79.7162 119.409C79.2682 119.578 78.7904 119.664 78.4917 119.744Z" fill="#717A7C"/>
<path d="M70.5308 102.693C70.3429 102.676 70.1584 102.631 69.9832 102.561C69.794 102.458 69.4987 102.255 69.5153 102.126C69.5355 102 69.582 101.88 69.6518 101.774C69.7215 101.668 69.813 101.577 69.9202 101.509C70.2821 101.363 70.6549 101.245 71.0351 101.157L80.0647 98.094C82.7394 97.1848 85.4273 96.3187 88.0854 95.3762C92.3994 93.8398 96.7134 92.2369 101.027 90.6972C102.501 90.1729 104.014 89.7282 105.504 89.2868C106.111 89.1043 106.476 89.2603 106.583 89.6552C106.722 90.1662 106.433 90.4151 106.028 90.6872C104.678 91.6031 103.155 92.1407 101.655 92.6982C95.5487 94.9714 89.4261 97.1914 83.2139 99.1493C79.9619 100.175 76.6932 101.14 73.4212 102.103C72.4854 102.375 71.5131 102.494 70.5308 102.693Z" fill="#717A7C"/>
<path d="M105.561 81.9001C105.284 82.1762 104.973 82.4149 104.635 82.6103C103.529 83.0218 102.412 83.3979 101.286 83.7386C100.427 84.0007 99.5309 84.1534 98.6748 84.4222C94.4448 85.7495 90.2171 87.1013 85.9916 88.4773C82.3678 89.6454 78.7606 90.8666 75.1269 92.0082C72.804 92.7349 70.4579 93.3588 68.1183 94.0324C68.0453 94.0523 67.9756 94.0988 67.8993 94.1154C67.5342 94.2017 67.136 94.2216 66.9834 93.8201C66.8307 93.4185 67.1958 93.1564 67.5044 93.017C68.2083 92.6669 68.9293 92.3523 69.6647 92.0745C71.8051 91.2914 73.9555 90.5381 76.1025 89.7782C79.0891 88.7196 82.0758 87.6178 85.1122 86.6289C88.9915 85.358 92.9039 84.2031 96.7899 82.9554C98.5453 82.3879 100.294 81.7873 102.123 81.5185C103.019 81.4112 103.922 81.3734 104.824 81.4057C105.026 81.409 105.229 81.6712 105.561 81.9001Z" fill="#717A7C"/>
<path d="M58.3419 65.8553C58.1694 65.7226 57.8409 65.5865 57.7513 65.3575C57.6982 65.2115 57.9504 64.8266 58.1528 64.727C58.956 64.3151 59.7851 63.9559 60.635 63.6518C64.469 62.3554 68.3084 61.08 72.1534 59.8257C77.307 58.1664 82.4705 56.5271 87.6307 54.8911C89.0875 54.4298 90.5543 53.9885 92.0277 53.587C92.6735 53.4229 93.3317 53.312 93.9956 53.2551C94.2664 53.2274 94.5392 53.2817 94.7787 53.4111C94.8858 53.4627 94.9757 53.5441 95.0379 53.6454C95.1 53.7468 95.1318 53.8638 95.1293 53.9827C95.1269 54.1015 95.0903 54.2172 95.0241 54.3158C94.9578 54.4145 94.8646 54.4921 94.7555 54.5393C94.169 54.8595 93.5548 55.126 92.9204 55.3358C90.0864 56.2683 87.2524 57.1941 84.4052 58.0835C79.3113 59.6697 74.2175 61.2493 69.1071 62.7857C65.7886 63.7813 62.4702 64.6905 59.1517 65.6363C58.936 65.7093 58.707 65.7624 58.3419 65.8553Z" fill="#717A7C"/>
<path d="M53.5369 60.3828C53.2515 60.3828 53.2051 60.3828 53.1752 60.3828C52.8799 60.3164 52.3755 60.3098 52.3357 60.1704C52.1963 59.6892 52.6675 59.5067 52.9994 59.3706C53.9551 59.0156 54.9274 58.7069 55.8997 58.3751C58.6241 57.4857 61.3519 56.5931 64.0797 55.7203C68.0054 54.4593 71.9278 53.1983 75.8569 51.9638C78.89 51.0081 81.9264 50.0657 84.9794 49.1796C86.0731 48.9003 87.1808 48.6788 88.2978 48.5159C88.5282 48.4587 88.7701 48.4691 88.9947 48.5458C89.2635 48.6719 89.612 48.8776 89.6584 49.1133C89.7049 49.3489 89.4593 49.694 89.237 49.8334C88.8022 50.1016 88.3335 50.3103 87.8432 50.4539C85.2947 51.2404 82.7361 52.0036 80.1842 52.7768L75.7872 54.1042C70.116 55.8099 64.4447 57.5256 58.7635 59.208C57.3 59.6394 55.8034 59.9613 54.3168 60.3098C54.06 60.3606 53.7987 60.385 53.5369 60.3828Z" fill="#717A7C"/>
<path d="M69.1007 81.6471C66.6948 81.5609 64.6307 80.5786 63.2435 78.3486C63.066 78.1154 62.947 77.8429 62.8968 77.5542C62.8465 77.2654 62.8665 76.9688 62.9549 76.6893C63.0467 76.4329 63.065 76.1559 63.0079 75.8896C62.3443 73.4339 63.436 71.6021 65.1483 70.0325C65.7709 69.4827 66.496 69.0612 67.2818 68.7924C68.0677 68.5236 68.899 68.4128 69.7278 68.4662C72.8771 68.5956 75.482 70.225 76.2619 73.6994C76.466 74.7472 76.3729 75.8311 75.9931 76.8287C74.918 79.9315 72.2532 81.521 69.1007 81.6471ZM74.2011 74.9836C74.5728 73.0357 72.2466 70.6962 70.3385 70.527C68.9969 70.4154 67.6591 70.782 66.5617 71.5617C65.4643 72.3415 64.678 73.4842 64.342 74.7879C64.1727 75.4515 63.8077 76.2347 64.8165 76.6761C65.0156 76.7623 65.0753 77.144 65.228 77.3729C65.6196 77.9504 65.9647 78.5344 66.6251 78.9193C68.3939 79.9514 70.1095 79.9746 71.8517 78.9028C73.3151 78.0035 74.2808 76.8088 74.2011 74.9836Z" fill="#717A7C"/>
<path d="M82.7993 125.856C82.6599 125.756 82.3944 125.663 82.3247 125.491C82.2939 125.385 82.2875 125.274 82.3059 125.165C82.3243 125.057 82.367 124.953 82.4309 124.864C82.6411 124.63 82.8977 124.442 83.1842 124.313C85.6664 123.131 88.1254 121.897 90.6508 120.815C94.759 119.05 98.9005 117.361 103.049 115.691C104.535 115.094 106.085 114.646 107.598 114.112C107.743 114.051 107.904 114.038 108.057 114.073C108.21 114.109 108.348 114.192 108.451 114.311C108.723 114.576 108.783 114.862 108.451 115.114C108.171 115.327 107.873 115.515 107.562 115.678C104.456 117.391 101.12 118.579 97.8518 119.909C94.29 121.356 90.7249 122.794 87.1564 124.223C85.9551 124.704 84.7439 125.166 83.536 125.627C83.3336 125.707 83.1046 125.756 82.7993 125.856Z" fill="#717A7C"/>
<path d="M78.2229 68.9118C78.0439 68.8976 77.8663 68.8687 77.6919 68.8255C77.6036 68.8072 77.5229 68.7627 77.4603 68.6977C77.3977 68.6328 77.3562 68.5505 77.3411 68.4616C77.3261 68.3727 77.3382 68.2813 77.3759 68.1994C77.4136 68.1175 77.4752 68.0489 77.5526 68.0025C77.8524 67.7535 78.188 67.551 78.5481 67.4019C79.8755 66.8444 81.2228 66.2636 82.5933 65.7924C85.9693 64.6332 89.3564 63.5093 92.7545 62.4209C94.1317 61.9828 95.4989 61.4618 96.9789 61.4651C97.2034 61.4495 97.4288 61.4777 97.6426 61.5481C98.1735 61.7903 98.2233 62.3512 97.7156 62.6465C97.0773 63.0374 96.4014 63.3631 95.6979 63.6188C93.4646 64.3555 91.2147 65.0391 88.9648 65.7227C85.6264 66.7382 82.2858 67.7448 78.943 68.7425C78.7008 68.8188 78.4287 68.8653 78.2229 68.9118Z" fill="#717A7C"/>
<path d="M74.327 109.075C73.8724 109.075 73.6633 109.075 73.4774 109.075C73.3208 109.077 73.1681 109.025 73.0467 108.926C72.9252 108.827 72.8427 108.688 72.8138 108.534C72.77 108.38 72.7878 108.216 72.8634 108.075C72.939 107.934 73.0664 107.829 73.2186 107.781C73.5375 107.628 73.8643 107.493 74.1975 107.376C76.6665 106.619 79.1388 105.869 81.6143 105.126C83.4189 104.613 85.264 104.255 87.1296 104.057C87.322 104.034 87.5411 103.944 87.7004 104.007C87.936 104.107 88.2512 104.28 88.3043 104.482C88.3574 104.684 88.1019 104.937 87.936 105.146C87.8106 105.238 87.6649 105.298 87.5112 105.322C83.4129 106.649 79.3378 108.033 75.1267 108.972C74.7716 109.032 74.4199 109.061 74.327 109.075Z" fill="#717A7C"/>
<path d="M80.8246 73.6272C80.2273 73.5873 79.693 73.74 79.4607 73.1559C79.3147 72.7876 79.61 72.4226 80.3334 72.0608C80.6507 71.9068 80.9778 71.7738 81.3125 71.6626C83.8013 70.8197 86.2902 69.947 88.7856 69.1605C89.7688 68.9038 90.766 68.7044 91.7723 68.5632C91.9197 68.5206 92.0761 68.5206 92.2235 68.5632C92.4659 68.668 92.6707 68.8439 92.8109 69.0676C92.874 69.2169 92.7213 69.5388 92.5653 69.6815C92.328 69.8855 92.0545 70.0431 91.759 70.1461C88.4637 71.4104 85.1221 72.5387 81.7273 73.5044C81.43 73.5684 81.1281 73.6094 80.8246 73.6272Z" fill="#717A7C"/>
<path d="M125.199 35.0615C124.605 35.122 124.034 35.3237 123.534 35.6499C123.034 35.976 122.62 36.4169 122.326 36.9356C122.259 37.0423 122.178 37.139 122.084 37.2228C121.713 37.5661 121.354 37.653 121.066 37.4797C120.716 37.2699 120.449 36.742 120.645 36.3428C120.972 35.6772 121.321 34.9815 121.824 34.4506C122.838 33.3871 124.159 32.7708 125.598 32.5016C127.204 32.1982 128.782 32.4578 130.289 33.0481C131.37 33.4767 132.312 34.1922 133.014 35.1173C134.022 36.4077 134.516 38.0246 134.402 39.6576C134.28 42.3634 132.889 44.2179 130.579 45.4569C129.205 46.1954 127.774 46.828 126.393 47.5551C125.082 48.2482 124.035 49.3502 123.411 50.6927C123.242 51.0287 123.043 51.3491 122.818 51.6501C122.577 51.9795 121.935 52.1761 121.642 52.0016C121.458 51.9102 121.305 51.7661 121.204 51.5878C121.102 51.4095 121.056 51.2049 121.071 51.0002C121.128 50.1227 121.456 49.2841 122.011 48.6001C123.362 46.9054 125.214 45.9295 127.116 45.0395C128.38 44.4477 129.559 43.7602 130.424 42.6484C131.64 41.0691 132.195 39.3078 131.457 37.3926C131.043 36.3183 130.118 35.5929 129.005 35.2096C127.759 34.7661 126.74 34.7478 125.199 35.0615Z" fill="#AA82F0"/>
<path d="M14.4108 95.5716C13.8476 94.0628 14.3226 92.4839 14.8411 90.9412C15.5005 88.978 16.5921 87.285 18.3291 86.0628C19.9365 84.9305 21.7024 84.4235 23.6529 84.7904C24.9268 85.0225 26.0809 85.6864 26.92 86.6698C27.897 87.7258 28.61 88.9972 29.0012 90.3805C29.4547 92.0903 30.0221 93.771 30.5731 95.455C30.9791 96.7766 31.7703 97.9474 32.8461 98.8182C33.2123 99.0671 33.4663 99.449 33.5539 99.8824C33.6635 100.573 33.1491 101.072 32.4897 100.853C32.1327 100.743 31.8074 100.549 31.5409 100.287C30.2774 98.9774 29.1103 97.5823 28.5397 95.8211C28.2618 94.9615 28.1406 94.0515 27.9556 93.1648C27.5114 91.0753 26.4496 89.1672 24.907 87.6867C23.9535 86.7418 22.7286 86.4864 21.4408 86.6018C21.0603 86.6349 20.6853 86.8887 20.3383 87.0899C17.7659 88.5955 16.3638 90.8238 16.2038 93.803C16.1737 94.3614 16.0939 94.9382 16.1926 95.4773C16.3142 96.142 16.6106 96.7719 16.7946 97.4284C16.8837 97.7504 16.9421 98.0801 16.9691 98.4131C16.9919 98.5863 16.9503 98.7618 16.8523 98.9067C16.7543 99.0515 16.6066 99.1556 16.437 99.1994C16.2389 99.247 16.0305 99.2266 15.8456 99.1414C15.6606 99.0563 15.5099 98.9115 15.4178 98.7303C15.1362 98.1424 14.8897 97.5384 14.6794 96.9215C14.562 96.4776 14.4723 96.0267 14.4108 95.5716Z" fill="#AA82F0"/>
<path d="M59.641 30.72C59.1971 28.7655 59.6895 27.0108 60.7159 25.3531C61.2092 24.5572 61.7061 23.7584 62.1419 22.9231C62.6005 22.0319 62.5892 21.0325 62.4614 20.0807C62.3485 19.4978 62.099 18.9499 61.7332 18.4817C61.0622 17.5263 60.0926 16.8199 58.976 16.4727C58.4199 16.3045 57.8332 16.262 57.2583 16.3481C56.6834 16.4342 56.1349 16.6468 55.6523 16.9705C55.0876 17.3097 54.5867 17.7448 54.1722 18.2561C53.819 18.7305 53.5869 19.2835 53.496 19.8672C53.4198 20.5761 53.4272 21.2914 53.5181 21.9984C53.5709 22.6282 53.4295 23.0846 53.0521 23.1753C52.5919 23.2702 52.1891 22.9368 51.9945 22.3256C51.4146 20.4803 51.7154 18.7203 52.6605 17.0943C53.0892 16.362 53.7209 15.7688 54.4796 15.3863C55.8185 14.696 57.3074 14.3463 58.8138 14.3682C60.7074 14.3919 62.1451 15.3298 63.1873 16.8832C64.1711 18.3093 64.6577 20.0189 64.5722 21.749C64.5321 23.2343 63.9594 24.6566 62.958 25.7577C61.9542 26.8111 61.3849 28.2029 61.3637 29.6555C61.3591 29.996 61.4444 30.3372 61.4327 30.675C61.4381 31.1698 61.3878 31.6638 61.2826 32.1476C61.2263 32.2677 61.1428 32.3731 61.0386 32.4555C60.9344 32.5378 60.8124 32.5947 60.6823 32.6217C60.5118 32.6569 60.1917 32.4239 60.1125 32.2373C59.9259 31.7411 59.7685 31.2345 59.641 30.72Z" fill="#AA82F0"/>
<path d="M122.297 57.0644C122.484 57.9719 122.087 58.7245 121.326 58.8985C120.433 59.1042 119.626 58.6512 119.441 57.8372C119.215 56.8565 119.663 56.1405 120.616 55.946C121.57 55.7514 122.102 56.1093 122.297 57.0644Z" fill="#AA82F0"/>
<path d="M36.5478 104.385C36.5069 104.195 36.5043 103.999 36.5402 103.808C36.576 103.617 36.6495 103.435 36.7565 103.273C36.8635 103.111 37.0019 102.971 37.1634 102.862C37.325 102.754 37.5065 102.678 37.6975 102.64C38.0564 102.599 38.4179 102.69 38.7129 102.898C39.0079 103.106 39.2157 103.415 39.2965 103.766C39.4548 104.562 38.8908 105.478 38.1454 105.622C37.446 105.761 36.6947 105.177 36.5478 104.385Z" fill="#AA82F0"/>
<path d="M60.8082 35.2351C60.618 34.3132 60.8876 33.8966 61.6633 33.6811C62.3215 33.4983 63.1591 34.278 63.2513 34.8186C63.2847 34.9788 63.2856 35.1441 63.2539 35.3047C63.2223 35.4653 63.1587 35.618 63.0669 35.7537C62.9752 35.8895 62.8572 36.0056 62.7198 36.0952C62.5824 36.1848 62.4284 36.246 62.267 36.2754C61.5246 36.4242 60.9755 36.0356 60.8082 35.2351Z" fill="#AA82F0"/>
</svg>
