<svg width="135" height="135" viewBox="0 0 135 135" fill="none" xmlns="http://www.w3.org/2000/svg">
<path fill-rule="evenodd" clip-rule="evenodd" d="M26.1262 97.1178L97.1178 26.1262C77.2404 11.8604 49.3923 13.6604 31.5264 31.5264C13.6604 49.3923 11.8604 77.2404 26.1262 97.1178ZM37.8823 108.874C57.7597 123.14 85.6077 121.34 103.474 103.474C121.34 85.6077 123.14 57.7597 108.874 37.8823L37.8823 108.874ZM115.23 115.23C88.8693 141.59 46.1307 141.59 19.7703 115.23C-6.59011 88.8693 -6.59011 46.1307 19.7703 19.7703C46.1307 -6.5901 88.8693 -6.5901 115.23 19.7703C141.59 46.1307 141.59 88.8693 115.23 115.23Z" fill="#E8E9E9"/>
<path d="M96.4045 77.1609C87.9226 86.012 72.3968 85.8577 63.8937 77.2506C58.9622 72.3287 58.8123 64.1925 63.6175 59.1161C68.9945 53.4179 77.5317 51.7665 85.019 53.2943C96.2395 55.2921 104.862 67.2936 96.4045 77.1609Z" fill="white"/>
<path d="M95.2565 57.4764C101.439 62.7777 101.075 71.4387 99.885 78.7637C97.8593 85.146 92.3197 89.6875 85.8214 91.1518C75.4248 93.9535 61.0432 88.5282 59.6075 76.7503C59.3672 72.4187 58.6396 67.7454 60.2937 63.6111C65.6876 50.1837 85.1714 48.336 95.2565 57.4764ZM95.5003 76.4992C103.438 67.2301 95.3453 55.9755 84.8132 54.097C77.7848 52.6623 69.7698 54.2151 64.7206 59.557C62.5569 61.8788 61.3756 64.9477 61.4241 68.121C61.4725 71.2943 62.747 74.3258 64.9806 76.5805C72.9622 84.6669 87.5273 84.8044 95.5003 76.4992Z" fill="#D0D3D3"/>
<path d="M99.8332 66.0202C91.3513 74.8714 75.8255 74.7171 67.3224 66.11C62.391 61.1881 62.241 53.0519 67.0462 47.9754C72.4232 42.2772 80.9604 40.6258 88.4478 42.1537C99.6682 44.1515 108.29 56.153 99.8332 66.0202Z" fill="white"/>
<path d="M98.6852 46.3358C104.867 51.6371 104.504 60.298 103.314 67.6231C101.288 74.0053 95.7484 78.5469 89.2501 80.0112C78.8535 82.8129 64.4719 77.3876 63.0363 65.6096C62.7959 61.2781 62.0683 56.6048 63.7224 52.4705C69.1164 39.0431 88.6001 37.1954 98.6852 46.3358ZM98.929 65.3586C106.867 56.0894 98.774 44.8349 88.2419 42.9563C81.2135 41.5217 73.1986 43.0745 68.1493 48.4163C65.9856 50.7381 64.8043 53.8071 64.8528 56.9804C64.9013 60.1537 66.1757 63.1852 68.4093 65.4398C76.3909 73.5263 90.956 73.6638 98.929 65.3586Z" fill="#D0D3D3"/>
<path d="M96.4045 54.8757C87.9226 63.7268 72.3968 63.5725 63.8937 54.9655C58.9622 50.0435 58.8123 41.9074 63.6175 36.8309C68.9945 31.1327 77.5317 29.4813 85.019 31.0092C96.2395 33.007 104.862 45.0085 96.4045 54.8757Z" fill="white"/>
<path d="M95.2565 35.1912C101.439 40.4926 101.075 49.1535 99.885 56.4786C97.8593 62.8608 92.3197 67.4024 85.8214 68.8666C75.4248 71.6684 61.0432 66.243 59.6075 54.4651C59.3672 50.1336 58.6396 45.4603 60.2937 41.326C65.6876 27.8986 85.1714 26.0509 95.2565 35.1912ZM95.5003 54.214C103.438 44.9449 95.3453 33.6904 84.8132 31.8118C77.7848 30.3771 69.7698 31.9299 64.7206 37.2718C62.5569 39.5936 61.3756 42.6626 61.4241 45.8359C61.4725 49.0092 62.747 52.0407 64.9806 54.2953C72.9622 62.3818 87.5273 62.5192 95.5003 54.214Z" fill="#D0D3D3"/>
<path d="M94.7055 53.1414C91.1361 56.792 86.7998 58.4084 81.93 58.6642C81.8298 58.6501 81.7352 58.6097 81.6559 58.547C81.5765 58.4843 81.5153 58.4015 81.4785 58.3073C81.4417 58.2132 81.4306 58.1109 81.4463 58.011C81.4621 57.9111 81.5042 57.8172 81.5683 57.7389C82.2814 56.658 83.8294 57.1909 84.9249 56.8452C88.722 56.1169 92.6154 54.2782 94.7191 50.9102C94.9877 50.5064 95.4005 49.7967 95.9622 50.1693C96.8196 50.7865 94.778 52.6565 94.7055 53.1414Z" fill="#D0D3D3"/>
<path d="M40.9431 87.2603C53.1696 86.3674 62.9478 74.3066 61.7366 62.2685C61.0879 55.3314 54.9147 50.0294 47.9402 50.4957C40.1223 51.0062 33.4078 56.5313 29.8121 63.2741C24.1988 73.1928 27.9495 87.4864 40.9431 87.2603Z" fill="white"/>
<path d="M26.507 73.8274C26.6507 81.9701 33.5555 87.211 39.9581 90.9634C46.1667 93.4711 53.1972 92.098 58.4678 88.0245C67.2539 81.8001 72.2415 67.2609 64.0819 58.6468C60.8978 55.7004 57.7608 52.1608 53.521 50.7998C39.737 46.3963 25.8933 60.2304 26.507 73.8274ZM41.0083 86.1415C28.8065 86.3489 25.294 72.9391 30.5603 63.6268C33.9353 57.297 40.2409 52.1114 47.5754 51.6263C50.7436 51.4393 53.8612 52.4854 56.2753 54.5456C58.6894 56.6058 60.2126 59.5202 60.526 62.6784C61.6686 73.9828 52.4898 85.2927 41.0083 86.1415Z" fill="#D0D3D3"/>
<path d="M40.6875 84.8443C45.7757 84.4212 49.7853 82.1105 53.0866 78.5215C53.1397 78.4354 53.1688 78.3367 53.1711 78.2356C53.1733 78.1345 53.1486 78.0346 53.0995 77.9461C53.0504 77.8577 52.9787 77.784 52.8917 77.7324C52.8046 77.6809 52.7055 77.6535 52.6043 77.6529C51.3169 77.5133 50.7407 79.0458 49.7761 79.6695C46.7944 82.1308 42.8958 83.9585 38.9598 83.4325C38.4774 83.382 37.6675 83.2477 37.5966 83.9179C37.5255 84.972 40.2678 84.591 40.6875 84.8443Z" fill="#D0D3D3"/>
</svg>
