<svg width="28" height="28" viewBox="0 0 28 28" fill="none" xmlns="http://www.w3.org/2000/svg">
<path d="M14 28C21.732 28 28 21.732 28 14C28 6.26801 21.732 0 14 0C6.26801 0 0 6.26801 0 14C0 21.732 6.26801 28 14 28Z" fill="url(#paint0_linear_6025_16376)"/>
<path d="M20.1269 19.5783L15.3929 8.13298C15.1259 7.54122 14.729 7.25256 14.2058 7.25256H13.7872C13.264 7.25256 12.8671 7.54122 12.6001 8.13298L10.5398 13.1196H8.98106C8.51559 13.1232 8.13673 13.4984 8.13312 13.9675V13.9783C8.13673 14.4438 8.51559 14.8227 8.98106 14.8263H9.81817L7.85168 19.5783C7.8156 19.683 7.79395 19.7912 7.79395 19.9031C7.79395 20.1701 7.87693 20.3794 8.02487 20.5417C8.17281 20.7041 8.3857 20.7835 8.65271 20.7835C8.82951 20.7799 8.9991 20.7258 9.13982 20.6211C9.29137 20.5165 9.39601 20.3649 9.479 20.1917L11.6439 14.8227H13.145C13.6104 14.8191 13.9893 14.4438 13.9929 13.9747V13.9531C13.9893 13.4876 13.6104 13.1088 13.145 13.1051H12.3439L13.9965 8.98813L18.4996 20.1881C18.5826 20.3613 18.6872 20.5129 18.8388 20.6175C18.9795 20.7222 19.1527 20.7763 19.3259 20.7799C19.5929 20.7799 19.8022 20.7005 19.9537 20.5381C20.1053 20.3758 20.1847 20.1665 20.1847 19.8995C20.1883 19.7912 20.1702 19.6794 20.1269 19.5783Z" fill="white"/>
<defs>
<linearGradient id="paint0_linear_6025_16376" x1="24.4382" y1="5.21704" x2="3.6062" y2="22.745" gradientUnits="userSpaceOnUse">
<stop stop-color="#B6509E"/>
<stop offset="1" stop-color="#2EBAC6"/>
</linearGradient>
</defs>
</svg>
