<svg width="36" height="36" viewBox="0 0 36 36" fill="none" xmlns="http://www.w3.org/2000/svg">
<circle cx="18" cy="18" r="17.25" stroke="#6200EE" stroke-width="1.5"/>
<path d="M26.9153 25.2187L20.0385 8.30133C19.6506 7.42667 19.0741 7 18.3141 7H17.7061C16.946 7 16.3695 7.42667 15.9816 8.30133L12.9887 15.672H10.7244C10.3985 15.6744 10.0865 15.8072 9.85604 16.0417C9.62555 16.2762 9.49503 16.5937 9.4927 16.9253V16.9413C9.49584 17.2727 9.62662 17.5897 9.85694 17.824C10.0873 18.0584 10.3987 18.1915 10.7244 18.1947H11.9405L9.08386 25.2187C9.0298 25.3728 9.00145 25.535 9 25.6987C9 26.0933 9.12055 26.4027 9.33545 26.6427C9.55035 26.8827 9.8596 27 10.2475 27C10.5022 26.9972 10.7496 26.9133 10.9551 26.76C11.1752 26.6053 11.3272 26.3813 11.4478 26.1253L14.5926 18.1893H16.7731C17.099 18.187 17.411 18.0542 17.6415 17.8196C17.872 17.5851 18.0025 17.2677 18.0048 16.936V16.904C18.0017 16.5726 17.8709 16.2557 17.6406 16.0213C17.4103 15.7869 17.0988 15.6539 16.7731 15.6507H15.6095L18.0101 9.56533L24.5514 26.12C24.672 26.376 24.824 26.6 25.0441 26.7547C25.2499 26.9072 25.4971 26.991 25.7517 26.9947C26.1396 26.9947 26.4436 26.8773 26.6637 26.6373C26.8838 26.3973 26.9992 26.088 26.9992 25.6933C27.0054 25.5308 26.9768 25.3688 26.9153 25.2187Z" fill="white"/>
<path d="M26.9153 25.2187L20.0385 8.30133C19.6506 7.42667 19.0741 7 18.3141 7H17.7061C16.946 7 16.3695 7.42667 15.9816 8.30133L12.9887 15.672H10.7244C10.3985 15.6744 10.0865 15.8072 9.85604 16.0417C9.62555 16.2762 9.49503 16.5937 9.4927 16.9253V16.9413C9.49584 17.2727 9.62662 17.5897 9.85694 17.824C10.0873 18.0584 10.3987 18.1915 10.7244 18.1947H11.9405L9.08386 25.2187C9.0298 25.3728 9.00145 25.535 9 25.6987C9 26.0933 9.12055 26.4027 9.33545 26.6427C9.55035 26.8827 9.8596 27 10.2475 27C10.5022 26.9972 10.7496 26.9133 10.9551 26.76C11.1752 26.6053 11.3272 26.3813 11.4478 26.1253L14.5926 18.1893H16.7731C17.099 18.187 17.411 18.0542 17.6415 17.8196C17.872 17.5851 18.0025 17.2677 18.0048 16.936V16.904C18.0017 16.5726 17.8709 16.2557 17.6406 16.0213C17.4103 15.7869 17.0988 15.6539 16.7731 15.6507H15.6095L18.0101 9.56533L24.5514 26.12C24.672 26.376 24.824 26.6 25.0441 26.7547C25.2499 26.9072 25.4971 26.991 25.7517 26.9947C26.1396 26.9947 26.4436 26.8773 26.6637 26.6373C26.8838 26.3973 26.9992 26.088 26.9992 25.6933C27.0054 25.5308 26.9768 25.3688 26.9153 25.2187Z" fill="#6200EE"/>
</svg>
