<svg width="26" height="26" viewBox="0 0 26 26" fill="none" xmlns="http://www.w3.org/2000/svg">
<circle cx="13" cy="13" r="13" fill="#6200EE"/>
<path d="M19.9388 17.7531L14.9723 5.91093C14.6921 5.29867 14.2757 5 13.7268 5H13.2877C12.7388 5 12.3224 5.29867 12.0423 5.91093L9.88076 11.0704H8.24543C8.01001 11.0721 7.78472 11.165 7.61825 11.3292C7.45179 11.4934 7.35752 11.7156 7.35584 11.9477V11.9589C7.35811 12.1909 7.45256 12.4128 7.6189 12.5768C7.78524 12.7409 8.0102 12.834 8.24543 12.8363H9.12366L7.06057 17.7531C7.02152 17.861 7.00105 17.9745 7 18.0891C7 18.3653 7.08707 18.5819 7.24227 18.7499C7.39748 18.9179 7.62082 19 7.90095 19C8.08491 18.998 8.26362 18.9393 8.41199 18.832C8.57098 18.7237 8.68076 18.5669 8.76783 18.3877L11.0391 12.8325H12.6139C12.8493 12.8309 13.0746 12.7379 13.2411 12.5737C13.4075 12.4096 13.5018 12.1874 13.5035 11.9552V11.9328C13.5012 11.7008 13.4068 11.479 13.2404 11.3149C13.0741 11.1509 12.8491 11.0577 12.6139 11.0555H11.7735L13.5073 6.79573L18.2316 18.384C18.3186 18.5632 18.4284 18.72 18.5874 18.8283C18.736 18.935 18.9146 18.9937 19.0984 18.9963C19.3786 18.9963 19.5981 18.9141 19.7571 18.7461C19.9161 18.5781 19.9994 18.3616 19.9994 18.0853C20.0039 17.9716 19.9832 17.8582 19.9388 17.7531Z" fill="white"/>
<path d="M19.9388 17.7531L14.9723 5.91093C14.6921 5.29867 14.2757 5 13.7268 5H13.2877C12.7388 5 12.3224 5.29867 12.0423 5.91093L9.88076 11.0704H8.24543C8.01001 11.0721 7.78472 11.165 7.61825 11.3292C7.45179 11.4934 7.35752 11.7156 7.35584 11.9477V11.9589C7.35811 12.1909 7.45256 12.4128 7.6189 12.5768C7.78524 12.7409 8.0102 12.834 8.24543 12.8363H9.12366L7.06057 17.7531C7.02152 17.861 7.00105 17.9745 7 18.0891C7 18.3653 7.08707 18.5819 7.24227 18.7499C7.39748 18.9179 7.62082 19 7.90095 19C8.08491 18.998 8.26362 18.9393 8.41199 18.832C8.57098 18.7237 8.68076 18.5669 8.76783 18.3877L11.0391 12.8325H12.6139C12.8493 12.8309 13.0746 12.7379 13.2411 12.5737C13.4075 12.4096 13.5018 12.1874 13.5035 11.9552V11.9328C13.5012 11.7008 13.4068 11.479 13.2404 11.3149C13.0741 11.1509 12.8491 11.0577 12.6139 11.0555H11.7735L13.5073 6.79573L18.2316 18.384C18.3186 18.5632 18.4284 18.72 18.5874 18.8283C18.736 18.935 18.9146 18.9937 19.0984 18.9963C19.3786 18.9963 19.5981 18.9141 19.7571 18.7461C19.9161 18.5781 19.9994 18.3616 19.9994 18.0853C20.0039 17.9716 19.9832 17.8582 19.9388 17.7531Z" fill="white"/>
</svg>
