<svg width="26" height="28" viewBox="0 0 26 28" fill="none" xmlns="http://www.w3.org/2000/svg">
<path fill-rule="evenodd" clip-rule="evenodd" d="M14.7103 0.42L23.7152 5.11C25.0213 5.81 25.8462 7.14 25.8462 8.68V10.85H22.5466V8.68C22.5466 8.47 22.4092 8.26 22.2029 8.12L13.198 3.43C13.0606 3.36 12.8543 3.36 12.6481 3.43L3.64321 8.12C3.43699 8.19 3.29951 8.4 3.29951 8.68V10.85H0V8.68C0 7.21 0.824877 5.81 2.13093 5.11L11.1358 0.42C12.2357 -0.14 13.5417 -0.14 14.7103 0.42ZM15.7414 13.86C15.7414 12.25 14.4354 10.99 12.9231 10.99C11.3421 10.99 10.1047 12.25 10.1047 13.86C10.1047 15.47 11.4108 16.73 12.9231 16.73C14.4354 16.73 15.7414 15.47 15.7414 13.86ZM22.1342 19.88C22.3404 19.81 22.4779 19.6 22.4779 19.32V17.15H25.7774V19.32C25.7774 20.79 24.9525 22.19 23.6465 22.89L14.6416 27.58C14.0917 27.86 13.473 28 12.8543 28C12.2357 28 11.617 27.86 11.0671 27.58L2.13093 22.89C0.824877 22.19 0 20.86 0 19.32V17.15H3.29951V19.32C3.29951 19.53 3.43699 19.74 3.64321 19.88L11.2733 23.8V19.88C8.66121 19.11 6.80524 16.73 6.80524 13.86C6.80524 10.43 9.55483 7.56 12.9918 7.56C16.3601 7.56 19.1784 10.36 19.1784 13.86C19.1784 16.73 17.2537 19.18 14.7103 19.88V23.8L22.1342 19.88Z" fill="#245AE5" fill-opacity="0.9"/>
</svg>
