<svg width="29" height="28" viewBox="0 0 29 28" fill="none" xmlns="http://www.w3.org/2000/svg">
<path d="M13.9858 28C6.262 28 -0.00309287 21.7177 1.14549e-06 13.9851C0.00309516 6.33382 6.23472 -0.155792 14.323 0.00284848C21.7911 0.150237 28.0773 6.25985 28.0005 14.1755C27.9271 21.6924 21.8344 27.9887 13.9858 28ZM9.51043 15.5569C9.50881 15.553 9.50674 15.5493 9.50424 15.5459C9.50424 15.5459 9.49918 15.5459 9.49665 15.5459L9.5124 15.5544C9.5218 15.6083 9.53505 15.6615 9.55206 15.7136C9.95401 16.7006 10.6764 17.5237 11.603 18.0503C12.5295 18.5768 13.6063 18.7763 14.66 18.6166C16.9906 18.2678 18.7281 16.2168 18.6853 13.8614C18.662 12.5655 17.6902 11.5338 16.443 11.4809C15.0591 11.4221 13.9579 12.4783 13.9357 13.8701C13.9211 14.7851 13.4989 15.4733 12.7071 15.9234C12.0321 16.3079 11.3162 16.2708 10.5942 16.0753C10.2012 15.9692 9.85162 15.7721 9.51043 15.5569ZM11.2943 4.40708C11.247 4.45968 11.2057 4.50384 11.1663 4.54997C10.5526 5.27004 9.93881 5.99048 9.32507 6.7113C8.70346 7.44262 8.0509 8.152 7.46866 8.91482C5.98101 10.8669 5.45446 13.0684 5.91153 15.4832C6.26425 17.3475 7.16208 18.9212 8.61514 20.1417C10.6997 21.8921 13.1065 22.5103 15.7595 21.9002C18.5613 21.2558 20.5192 19.5465 21.5819 16.873C22.1348 15.4829 22.5944 14.056 23.0976 12.6457C23.2383 12.2541 23.3755 11.8626 23.517 11.4643C23.4627 11.4463 23.4194 11.4303 23.3764 11.4173C22.2547 11.0916 21.0536 11.6986 20.6548 12.7987C20.2919 13.8015 19.9348 14.8065 19.5834 15.8137C19.2563 16.7512 18.7539 17.5795 18.0201 18.2476C16.5774 19.5617 14.8802 20.0826 12.949 19.7772C11.6928 19.5783 10.6082 19.0121 9.72645 18.1024C8.42218 16.7571 7.86104 15.1333 8.04696 13.2645C8.16341 12.0958 8.6112 11.0556 9.35939 10.1536C10.08 9.28442 10.8262 8.43637 11.5514 7.5706C12.074 6.94616 12.2107 6.23003 11.9842 5.45005C11.8636 5.03742 11.631 4.69201 11.2943 4.40708ZM16.8747 10.5232C18.118 11.0137 19.3578 11.0295 20.5898 10.5142C21.6305 10.079 22.4125 9.35052 22.9556 8.35648C20.7403 7.39283 18.015 8.30585 16.8747 10.5232ZM9.81477 13.8456C9.80886 14.8019 10.5877 15.594 11.5221 15.616C12.4939 15.639 13.3186 14.8725 13.3332 13.9103C13.349 12.8873 12.5772 12.0941 11.5798 12.0918C11.3487 12.0908 11.1197 12.1354 10.9059 12.223C10.6921 12.3107 10.4977 12.4397 10.3339 12.6026C10.17 12.7655 10.04 12.9592 9.95114 13.1725C9.8623 13.3858 9.81643 13.6145 9.81618 13.8456H9.81477Z" fill="#7640FE"/>
</svg>
