<svg width="28" height="28" viewBox="0 0 28 28" fill="none" xmlns="http://www.w3.org/2000/svg">
<circle cx="14" cy="14" r="13.5" fill="black" stroke="#CBFF00"/>
<circle cx="14.5769" cy="17.2912" r="4.56716" stroke="#CBFF00"/>
<path d="M10.3046 6.21832C10.1902 5.54797 9.55396 5.09732 8.88361 5.21177C8.21325 5.32622 7.76261 5.96243 7.87706 6.63278L9.70541 17.3417C9.81986 18.0121 10.4561 18.4627 11.1264 18.3483C11.7968 18.2338 12.2474 17.5976 12.133 16.9273L10.3046 6.21832Z" fill="#CBFF00" stroke="black" stroke-linecap="round" stroke-linejoin="round"/>
<path fill-rule="evenodd" clip-rule="evenodd" d="M15.2537 15.0709C15.2537 15.4604 14.938 15.7762 14.5485 15.7762C14.159 15.7762 13.8433 15.4604 13.8433 15.0709C13.8433 14.6815 14.159 14.3657 14.5485 14.3657C14.938 14.3657 15.2537 14.6815 15.2537 15.0709ZM15.2537 17.3173C15.2537 17.7068 14.938 18.0226 14.5485 18.0226C14.159 18.0226 13.8433 17.7068 13.8433 17.3173C13.8433 16.9279 14.159 16.6121 14.5485 16.6121C14.938 16.6121 15.2537 16.9279 15.2537 17.3173ZM14.5485 20.2687C14.938 20.2687 15.2537 19.953 15.2537 19.5635C15.2537 19.174 14.938 18.8582 14.5485 18.8582C14.159 18.8582 13.8433 19.174 13.8433 19.5635C13.8433 19.953 14.159 20.2687 14.5485 20.2687Z" fill="#11DDD4"/>
<path fill-rule="evenodd" clip-rule="evenodd" d="M16.8489 16.8046C16.5116 16.9994 16.0803 16.8838 15.8856 16.5465C15.6908 16.2092 15.8064 15.7779 16.1437 15.5832C16.481 15.3884 16.9123 15.504 17.1071 15.8413C17.3018 16.1786 17.1862 16.6099 16.8489 16.8046ZM14.9033 17.9278C14.566 18.1226 14.1347 18.007 13.94 17.6697C13.7452 17.3324 13.8608 16.9011 14.1981 16.7064C14.5354 16.5116 14.9667 16.6272 15.1614 16.9645C15.3562 17.3018 15.2406 17.7331 14.9033 17.9278ZM11.9954 18.7929C12.1901 19.1302 12.6214 19.2458 12.9587 19.051C13.2961 18.8563 13.4116 18.425 13.2169 18.0877C13.0221 17.7504 12.5908 17.6348 12.2535 17.8296C11.9162 18.0243 11.8007 18.4556 11.9954 18.7929Z" fill="#11DDD4"/>
<path fill-rule="evenodd" clip-rule="evenodd" d="M16.1433 19.0513C15.806 18.8566 15.6904 18.4253 15.8852 18.088C16.0799 17.7507 16.5112 17.6351 16.8485 17.8299C17.1858 18.0246 17.3014 18.4559 17.1067 18.7932C16.9119 19.1305 16.4806 19.2461 16.1433 19.0513ZM14.1978 17.9281C13.8605 17.7334 13.7449 17.3021 13.9397 16.9648C14.1344 16.6275 14.5657 16.5119 14.903 16.7067C15.2403 16.9014 15.3559 17.3327 15.1611 17.67C14.9664 18.0073 14.5351 18.1229 14.1978 17.9281ZM11.9951 15.8416C11.8004 16.1789 11.9159 16.6102 12.2532 16.8049C12.5905 16.9997 13.0218 16.8841 13.2166 16.5468C13.4113 16.2095 13.2958 15.7782 12.9585 15.5835C12.6212 15.3887 12.1898 15.5043 11.9951 15.8416Z" fill="#11DDD4"/>
</svg>
