<svg width="28" height="28" viewBox="0 0 28 28" fill="none" xmlns="http://www.w3.org/2000/svg">
<g clip-path="url(#clip0_6454_11557)">
<path d="M11.0526 25.0527C15.5297 25.0527 19.1579 21.4245 19.1579 16.9474C19.1579 12.4704 15.5297 8.84214 11.0526 8.84214C6.57558 8.84214 2.94737 12.4704 2.94737 16.9474C2.94737 21.4245 6.57558 25.0527 11.0526 25.0527ZM11.0526 28C4.94863 28 0 23.0514 0 16.9474C0 10.8434 4.94863 5.89478 11.0526 5.89478C17.1566 5.89478 22.1053 10.8434 22.1053 16.9474C22.1053 23.0514 17.1566 28 11.0526 28Z" fill="#FBCC5C"/>
<path d="M16.9474 19.1579C21.4245 19.1579 25.0527 15.5297 25.0527 11.0526C25.0527 6.57558 21.4245 2.94737 16.9474 2.94737C12.4704 2.94737 8.84214 6.57558 8.84214 11.0526C8.84214 15.5297 12.4704 19.1579 16.9474 19.1579ZM16.9474 22.1053C10.8434 22.1053 5.89478 17.1566 5.89478 11.0526C5.89478 4.94863 10.8434 0 16.9474 0C23.0514 0 28 4.94863 28 11.0526C28 17.1566 23.0514 22.1053 16.9474 22.1053Z" fill="#35D07F"/>
<path d="M17.3129 22.1053C18.0792 21.1769 18.6274 20.0893 18.9192 18.9192C20.0864 18.6274 21.1739 18.0792 22.1053 17.3129C22.064 18.6657 21.7722 19.9979 21.2447 21.2476C19.9979 21.7722 18.6657 22.064 17.3129 22.1053ZM9.08088 9.08088C7.91372 9.37267 6.82614 9.92088 5.89478 10.6872C5.93604 9.33435 6.22783 8.00214 6.75541 6.75541C8.00214 6.23078 9.3373 5.93899 10.6872 5.89478C9.92088 6.8232 9.37267 7.91078 9.08088 9.08088Z" fill="#5EA33B"/>
</g>
<defs>
<clipPath id="clip0_6454_11557">
<rect width="28" height="28" fill="white"/>
</clipPath>
</defs>
</svg>
