<svg width="28" height="28" viewBox="0 0 28 28" fill="none" xmlns="http://www.w3.org/2000/svg">
<path d="M14 0C21.7327 0 28 6.26856 28 14C28 21.7327 21.7327 28 14 28C6.26856 28 0 21.7321 0 14C0 6.26856 6.26856 0 14 0Z" fill="#F5AC37"/>
<path d="M14.5162 14.9885H19.836C19.9494 14.9885 20.0029 14.9885 20.0111 14.8398C20.0546 14.2986 20.0546 13.7543 20.0111 13.2125C20.0111 13.1073 19.9588 13.0638 19.8448 13.0638H9.25756C9.12652 13.0638 9.09124 13.1073 9.09124 13.2301V14.7875C9.09124 14.9885 9.09124 14.9885 9.30103 14.9885H14.5162ZM19.417 11.2437C19.4322 11.204 19.4322 11.1606 19.417 11.1215C19.3282 10.9281 19.223 10.7435 19.1008 10.5702C18.9168 10.2741 18.7001 10.0013 18.4531 9.75627C18.3366 9.60822 18.2018 9.47529 18.0506 9.36252C17.2933 8.71802 16.393 8.2619 15.4253 8.03257C14.9371 7.92295 14.4381 7.87066 13.9379 7.87507H9.23929C9.10825 7.87507 9.09061 7.92736 9.09061 8.04139V11.1473C9.09061 11.2784 9.09061 11.3136 9.25693 11.3136H19.354C19.354 11.3136 19.4416 11.296 19.4593 11.2437H19.4164H19.417ZM19.417 16.8086C19.2684 16.7922 19.1184 16.7922 18.9697 16.8086H9.26638C9.13534 16.8086 9.09124 16.8086 9.09124 16.9837V20.0203C9.09124 20.1602 9.09124 20.1955 9.26638 20.1955H13.7464C13.9606 20.2119 14.1748 20.1967 14.3846 20.152C15.0347 20.1054 15.6742 19.9643 16.284 19.7318C16.5058 19.6549 16.72 19.5548 16.9222 19.4344H16.9833C18.0335 18.8882 18.8866 18.0301 19.4246 16.9768C19.4246 16.9768 19.4857 16.8445 19.417 16.8098V16.8086ZM7.33289 21.7699V21.7176V19.6789V18.9878V16.9314C7.33289 16.8174 7.33289 16.8004 7.19303 16.8004H5.29419C5.18898 16.8004 5.14551 16.8004 5.14551 16.6605V14.9979H7.17539C7.28879 14.9979 7.33289 14.9979 7.33289 14.8492V13.2043C7.33289 13.0991 7.33289 13.0733 7.19303 13.0733H5.29419C5.18898 13.0733 5.14551 13.0733 5.14551 12.9334V11.3937C5.14551 11.2973 5.14551 11.2714 5.28537 11.2714H7.16657C7.29761 11.2714 7.33289 11.2714 7.33289 11.1051V6.38889C7.33289 6.24903 7.33289 6.21375 7.50803 6.21375H14.0702C14.5465 6.23265 15.0196 6.28494 15.4877 6.37125C16.4522 6.54954 17.379 6.89415 18.2263 7.38619C18.7883 7.71694 19.3055 8.11636 19.7661 8.57627C20.1126 8.936 20.4251 9.32535 20.7023 9.73989C20.9776 10.1601 21.2063 10.6093 21.3858 11.0787C21.4079 11.2009 21.525 11.2834 21.6473 11.2626H23.2135C23.4144 11.2626 23.4144 11.2626 23.4233 11.4554V12.8906C23.4233 13.0304 23.371 13.0657 23.2305 13.0657H22.0227C21.9005 13.0657 21.8652 13.0657 21.8741 13.2232C21.9219 13.7562 21.9219 14.2911 21.8741 14.824C21.8741 14.9727 21.8741 14.9904 22.041 14.9904H23.4226C23.4837 15.0691 23.4226 15.1479 23.4226 15.2272C23.4314 15.3287 23.4314 15.4314 23.4226 15.5328V16.5918C23.4226 16.7405 23.3792 16.7846 23.2475 16.7846H21.5937C21.4784 16.7626 21.3663 16.8363 21.3398 16.9509C20.9461 17.9747 20.3161 18.8926 19.5021 19.6285C19.2047 19.8962 18.8922 20.1482 18.5659 20.3807C18.2156 20.5823 17.8748 20.7921 17.5157 20.9584C16.8548 21.2558 16.1618 21.475 15.4505 21.6143C14.7752 21.7352 14.0903 21.79 13.403 21.7806H7.33037V21.7718L7.33289 21.7699Z" fill="#FEFEFD"/>
</svg>
