<svg width="28" height="28" viewBox="0 0 28 28" fill="none" xmlns="http://www.w3.org/2000/svg">
<path fill-rule="evenodd" clip-rule="evenodd" d="M14.0911 0.000296727C16.8561 0.0182983 19.5539 0.854659 21.8441 2.4039C24.1344 3.95314 25.9146 6.14588 26.9603 8.70558C28.0059 11.2653 28.2702 14.0773 27.7198 16.787C27.1693 19.4967 25.8288 21.9827 23.8673 23.9316C21.9058 25.8804 19.4111 27.2047 16.6979 27.7376C13.9847 28.2704 11.1744 27.9879 8.62159 26.9257C6.06873 25.8634 3.88759 24.069 2.35324 21.7687C0.818896 19.4684 5.86058e-05 16.7653 3.14379e-09 14.0003C-3.91202e-05 12.1541 0.36508 10.3261 1.07434 8.62159C1.7836 6.91706 2.82299 5.36965 4.13268 4.06844C5.44237 2.76722 6.99649 1.73789 8.70558 1.03971C10.4147 0.341526 12.245 -0.0117228 14.0911 0.000296727ZM15.7584 22.1216L14.1542 23.0331L10.7089 21.0461L12.2766 20.1347H12.3404L15.7584 22.1216ZM21.9195 11.4667V9.59819L14.1448 5.12293L6.37913 9.59819V13.5722L7.96507 12.6698L8.87653 12.1412L9.78798 12.6698L11.4742 13.6724V12.5331L12.3856 12.0044L16.706 9.50705L17.6174 8.9784L18.5289 9.50705L21.9195 11.4667ZM21.9195 13.5906V18.5762L17.6083 21.0645L13.2971 18.5762V13.5906L17.6174 11.1023L21.9195 13.5906ZM11.3557 18.5668V15.6957L8.8583 14.2647L6.37913 15.6957V18.5668L8.86741 19.9978L11.3557 18.5668Z" fill="#2B61D1"/>
</svg>
