<svg width="28" height="27" viewBox="0 0 28 27" fill="none" xmlns="http://www.w3.org/2000/svg">
<path d="M6.66742 14.5188L7.40819 8.95309L0.98291 4.49263L6.8536 6.48122L8.24007 4.35398L13.3026 1.21265L24.4617 7.36063L25.0401 16.7411L20.0686 23.6496L16.139 24.2518L18.1711 20.5321V16.951L16.6935 14.1543L15.1922 13.16L12.8827 15.5408V18.0602L11.0803 19.7477L8.79069 20.025L7.77659 20.5994L6.11283 20.0686L5.4196 17.5729L6.66742 15.8181V14.5188Z" fill="white"/>
<path d="M16.9268 4.4449C15.7028 4.19137 14.3638 4.25872 14.3638 4.25872C14.3638 4.25872 13.9241 6.29088 11.1987 6.82566C11.2185 6.82566 14.7996 8.04971 16.9268 4.4449Z" fill="#94A6C3"/>
<path d="M18.037 22.8852C19.5146 21.7285 20.6238 20.136 21.1348 18.3336C21.1586 18.2663 21.3645 18.1474 21.5032 18.0563C21.7329 17.9177 21.9667 17.8028 22.0102 17.6166C22.1013 17.0858 22.1489 16.5312 22.1489 15.9766C22.1489 15.7706 21.9389 15.5607 21.7329 15.3547C21.5705 15.216 21.4081 15.0536 21.4081 14.9387C21.1784 12.8353 20.2078 10.8705 18.6589 9.44041L18.4965 9.60283C19.9979 11.0131 20.9684 12.9303 21.1784 14.9625C21.2021 15.1487 21.3843 15.3309 21.5705 15.5171C21.7329 15.6557 21.9191 15.8657 21.9191 15.9568C21.9191 16.4876 21.8716 17.0184 21.7805 17.5493C21.7567 17.6404 21.5507 17.7354 21.3883 17.8265C21.1585 17.9414 20.9486 18.0563 20.905 18.2425C20.3504 20.2073 19.0789 21.9186 17.3913 23.0278C17.6924 22.3821 18.6391 20.2786 19.1462 19.213L19.0551 15.7944L16.1197 12.9541L14.456 13.1839L12.6298 16.143C12.6298 16.143 13.4855 17.2284 12.2812 18.5C11.1047 19.7478 10.1777 20.0251 10.1777 20.0251L9.3221 19.5616C9.57562 19.2368 10.0866 18.7535 10.4788 18.4287C11.1483 17.8741 11.8177 17.8265 11.8177 17.2284C11.8455 15.9766 10.5026 16.3212 10.5026 16.3212L10.0153 16.7847L9.80934 18.496L8.79524 19.7676L8.68036 19.7438L7.0166 19.3754C7.0166 19.3754 8.03466 18.8446 8.19708 18.2425C8.35949 17.6641 7.87225 15.7469 7.84848 15.632C7.87225 15.6557 8.33572 16.0479 8.54171 16.6936C8.91012 15.6755 9.39736 14.705 9.53601 14.6139C9.67465 14.5228 11.5444 13.5285 11.5444 13.5285L10.9225 15.1685L11.3859 14.915L12.4951 12.1896C12.4951 12.1896 13.5805 11.6588 14.3886 11.6588C15.8424 11.635 17.9934 9.85635 17.0229 6.66748C17.3002 6.78236 22.1053 9.18689 22.9372 13.9009C23.5591 17.5255 21.5032 20.9203 18.037 22.8852Z" fill="#94A6C3"/>
<path d="M12.5368 4.95183C13.0676 4.32594 12.8616 3.40295 12.8616 3.40295L11.3127 5.6926C11.289 5.6926 11.8633 5.71637 12.5368 4.95183Z" fill="#1B314F"/>
<path d="M7.33624 17.454L7.52242 16.531C7.52242 16.531 6.75789 17.8699 6.69054 18.0561C6.61924 18.2661 6.73808 18.6345 7.03518 18.6107C7.33624 18.5869 7.70464 18.1472 7.70464 17.8264C7.70464 17.4104 7.33624 17.454 7.33624 17.454Z" fill="#1B314F"/>
<path d="M21.0623 2.75749C21.0623 2.75749 22.219 2.80502 23.4193 2.94367C20.7137 0.816435 18.1508 0.194506 16.0711 0.194506C13.207 0.194506 11.266 1.37498 11.1471 1.44233L12.0503 0.00832343C12.0503 0.00832343 8.4455 -0.340274 7.17391 3.47449C6.84908 2.66638 6.55198 1.4859 6.55198 1.4859C6.55198 1.4859 4.67827 3.12985 5.55769 5.85525C3.40669 5.0709 0.336656 3.98154 0.217816 3.96173C0.0554017 3.93796 0.00786576 4.00927 0.00786576 4.00927C0.00786576 4.00927 -0.0396702 4.07661 0.0989764 4.19545C0.356463 4.39748 5.20909 7.98248 6.27469 8.67572C6.04493 9.5076 6.04493 9.89977 6.27469 10.2919C6.59952 10.8228 6.61933 11.1001 6.57575 11.4922C6.52822 11.8844 6.11228 15.2832 6.02117 15.6992C5.93005 16.1151 4.95953 17.5927 5.0031 18.0324C5.05064 18.4721 5.6488 20.3418 6.18358 20.5518C6.57575 20.6904 7.54628 20.9915 8.19197 20.9915C8.42173 20.9915 8.63168 20.944 8.72279 20.8528C9.11496 20.5082 9.22984 20.4369 9.50714 20.4369C9.5309 20.4369 9.55467 20.4369 9.57448 20.4369C9.68936 20.4369 9.828 20.4607 9.99042 20.4607C10.3588 20.4607 10.8461 20.3894 11.1907 20.0685C11.6978 19.5615 12.5772 18.8682 12.8545 18.5434C13.2031 18.1037 13.3853 17.5055 13.2942 16.9034C13.2229 16.3488 13.5239 15.8616 13.8725 15.3783C14.3122 14.7999 15.1203 13.7621 15.1203 13.7621C16.7168 14.9584 17.7111 16.7846 17.7111 18.8167C17.7111 22.4215 14.5697 25.3331 10.6876 25.3331C10.0855 25.3331 9.5111 25.2658 8.93274 25.1271C10.7114 25.7491 12.2127 25.959 13.4407 25.959C16.0513 25.959 17.4377 25.0122 17.4377 25.0122C17.4377 25.0122 16.9544 25.6381 16.1661 26.3512C16.1899 26.3512 16.1899 26.3512 16.1899 26.3512C20.5117 25.7491 22.6152 22.1918 22.6152 22.1918C22.6152 22.1918 22.4528 23.3485 22.2468 24.1328C27.9947 19.811 27.0241 14.4038 27.0004 14.2216C27.0479 14.2889 27.6263 14.9822 27.9234 15.3545C28.8503 5.83148 21.0623 2.75749 21.0623 2.75749ZM12.2127 17.965C12.1216 18.0799 11.7294 18.4285 11.4522 18.682C11.1749 18.9356 10.8738 19.1891 10.644 19.4228C10.5529 19.5139 10.3667 19.5615 10.0895 19.5615C9.99834 19.5615 9.90327 19.5615 9.83593 19.5615C9.78839 19.5615 9.74482 19.5615 9.69728 19.5615C9.64974 19.5615 9.62598 19.5615 9.60617 19.5615C9.53487 19.5615 9.46752 19.5615 9.39622 19.5615C9.74482 19.098 10.7589 18.0363 11.1075 17.8066C11.5235 17.5293 11.7334 17.252 11.4759 16.7687C11.2224 16.2815 10.5529 16.4003 10.5529 16.4003C10.5529 16.4003 10.9451 16.2379 11.2937 16.2379C10.854 16.123 10.2994 16.2379 10.0459 16.4914C9.76858 16.7449 9.81612 17.6481 9.70124 18.2225C9.58636 18.8246 9.19419 19.1257 8.59207 19.6803C8.26724 19.9814 8.03748 20.0725 7.8513 20.0725C7.45913 20.0051 6.99565 19.8863 6.67082 19.7714C6.44107 19.4703 6.09247 18.476 6.00136 18.0601C6.0687 17.8304 6.34599 17.3431 6.48464 17.0658C6.76193 16.535 6.92435 16.2339 6.97188 15.9566C7.063 15.5645 7.36406 13.1362 7.47893 12.1221C7.78 12.5142 8.19594 13.1639 8.10086 13.5798C8.77033 12.6331 8.28705 11.7061 8.05333 11.3377C7.84734 10.9693 7.57005 10.2286 7.7998 9.44421C8.02956 8.65987 8.86144 6.4851 8.86144 6.4851C8.86144 6.4851 9.13873 6.97234 9.5309 6.87727C9.92308 6.78616 13.0882 2.02464 13.0882 2.02464C13.0882 2.02464 13.9438 3.89439 13.0406 5.26105C12.1177 6.62375 11.2145 6.87727 11.2145 6.87727C11.2145 6.87727 12.4861 7.10703 13.6626 6.25138C14.1459 7.38432 14.6093 8.56084 14.6331 8.72325C14.5618 8.88567 13.6388 11.104 13.5477 11.2427C13.5002 11.2902 13.1793 11.3813 12.9456 11.4288C12.5534 11.5437 12.3236 11.615 12.2286 11.6824C12.0662 11.821 11.3254 13.8532 10.9808 14.8475C10.5648 14.9623 10.1489 15.1961 9.84781 15.6556C10.0102 15.5407 10.5173 15.4694 10.8896 15.4258C11.2145 15.4021 12.2048 15.9329 12.4623 16.9272C12.4623 16.9509 12.4623 16.9509 12.4623 16.9747C12.5138 17.3391 12.3989 17.6877 12.2127 17.965ZM10.0419 18.2423C10.2519 17.9413 10.2281 17.4342 10.2519 17.2718C10.2756 17.1094 10.3192 16.8083 10.5054 16.7648C10.6916 16.7172 11.1313 16.7885 11.1313 17.1094C11.1313 17.4105 10.8065 17.4778 10.5767 17.6877C10.4103 17.8462 10.0855 18.1948 10.0419 18.2423ZM19.2599 13.8254C19.4897 12.6489 19.5135 11.6309 19.4461 10.799C20.3453 11.9993 20.8999 13.457 21.0623 14.9584C21.0861 15.1446 21.2683 15.3268 21.4545 15.513C21.6169 15.6516 21.8031 15.8378 21.8031 15.9527C21.8031 16.4835 21.7556 17.0143 21.6645 17.5491C21.6407 17.6164 21.4347 17.7353 21.2723 17.8264C21.0425 17.9413 20.8326 18.0561 20.789 18.2423C20.282 20.021 19.1926 21.5936 17.7388 22.7028C19.8858 20.4607 20.9237 16.7608 19.2599 13.8254ZM17.8061 22.9088C19.3075 21.7521 20.4642 20.1358 20.9712 18.3097C20.995 18.2423 21.201 18.1235 21.3396 18.0324C21.5694 17.9175 21.8031 17.7789 21.8467 17.5927C21.9378 17.0619 21.9853 16.5073 21.9853 15.9527C21.9853 15.7467 21.7754 15.5367 21.5694 15.3308C21.4545 15.1921 21.2683 15.0297 21.2683 14.9148C21.0821 13.2273 20.4127 11.6348 19.3748 10.3157C18.9113 7.54278 17.0654 6.68713 17.0178 6.66336C17.0654 6.73466 18.2656 8.46577 17.4338 10.4979C16.5781 12.5539 14.3835 12.233 14.1974 12.2528C14.0112 12.2528 13.2981 13.1758 12.3949 14.8871C12.2801 14.8395 11.7928 14.7247 11.2382 14.8197C11.6542 13.663 12.2801 12.023 12.3949 11.8844C12.4425 11.8369 12.7871 11.7457 13.0208 11.6784C13.4605 11.5635 13.6665 11.4922 13.7378 11.4011C13.7854 11.3298 14.0151 10.799 14.2449 10.2444C14.4548 10.2444 14.9857 10.1969 15.0292 10.1731C15.0768 10.1256 15.5165 8.99658 15.5165 8.85794C15.5165 8.74306 14.6133 6.50094 14.2687 5.6453C14.4311 5.45911 14.5935 5.22936 14.7519 4.97583C19.4897 5.48684 23.1896 9.5076 23.1896 14.38C23.1896 18.1235 20.995 21.3837 17.8061 22.9088Z" fill="#1B314F"/>
<path d="M11.6579 10.4306C12.0976 9.92358 11.8679 8.97682 11.0558 8.8144C11.2658 8.33112 11.5629 7.3606 11.5629 7.3606C11.5629 7.3606 9.20586 11.0565 8.99987 11.1278C8.78992 11.1991 8.58393 10.3871 8.58393 10.3871C8.14422 12.0746 9.3247 12.3043 9.46335 11.7735C10.109 11.6071 11.2182 10.9139 11.6579 10.4306Z" fill="#1B314F"/>
<path d="M9.64551 11.3299L10.8458 9.27393C10.8458 9.27393 11.539 9.62252 11.1904 10.1771C10.7547 10.8228 9.64551 11.3299 9.64551 11.3299Z" fill="#FFD923"/>
<path d="M24.504 20.8529C24.1554 21.3164 23.7632 21.7997 23.3037 22.2632C26.2826 16.5311 23.4424 11.2863 23.3275 11.0803C23.5374 11.2903 23.7434 11.52 23.9296 11.726C26.2153 14.2652 26.4926 18.08 24.504 20.8529Z" fill="#D82122"/>
<path d="M27.2806 13.481C26.2388 10.6843 24.7612 8.3035 21.505 6.15646C18.3637 4.07676 14.9886 4.23918 14.8024 4.26295C14.7787 4.26295 14.7549 4.26295 14.7549 4.26295C14.8698 4.21541 14.9846 4.19164 15.0995 4.17184C15.8165 3.94208 16.7395 3.7559 17.6665 3.64102C20.1185 3.28846 22.5904 4.12034 24.2779 5.90294C24.3017 5.92671 24.3017 5.92671 24.3255 5.95047C26.2427 7.98264 27.237 10.5218 27.2806 13.481Z" fill="#D82122"/>
<path d="M20.7634 2.04053C17.321 1.39483 15.1027 1.7157 13.5062 2.31782C13.4587 2.13164 13.2963 1.76324 13.1577 1.46217C12.6783 2.04053 12.1673 2.73376 11.8465 3.17347C10.967 3.77559 10.5986 4.35395 10.5986 4.35395C11.1057 2.61888 12.5872 1.32749 14.3896 1.00266C14.8967 0.91155 15.4513 0.864014 16.0534 0.864014C17.6458 0.887782 19.2383 1.27995 20.7634 2.04053Z" fill="#D82122"/>
<path d="M8.0307 6.47698C5.32908 6.38587 6.2283 3.24057 6.27583 3.05835C6.27583 3.08212 6.45805 5.53022 8.0307 6.47698Z" fill="#D82122"/>
<path d="M10.6881 0.816162C8.60839 2.06398 9.02433 5.0429 9.02433 5.0429C7.03574 2.02041 10.5257 0.887466 10.6881 0.816162Z" fill="#D82122"/>
<path d="M7.26869 7.30931C7.40734 7.42419 7.54598 7.63414 7.38357 7.9352C7.29246 8.09762 7.15381 8.07385 6.94386 7.98274C6.66657 7.84409 5.00281 6.87357 3.50146 5.87927C5.21276 6.48139 6.94386 7.12709 7.22115 7.26574C7.22115 7.26574 7.24492 7.28951 7.26869 7.30931Z" fill="white"/>
</svg>
