<svg width="28" height="23" viewBox="0 0 28 23" fill="none" xmlns="http://www.w3.org/2000/svg">
<g clip-path="url(#clip0_6025_16340)">
<path d="M16.1074 9.48938L14 10.6971V16.0334L18.6584 13.3714V8.02283L16.1074 9.48938Z" fill="#2BBDF7"/>
<path d="M18.6587 13.3715V19.3363L23.3295 22.0106L23.364 21.9416L23.3295 21.9613V5.34861L18.6587 2.67432V8.02291V13.3715Z" fill="#2891F9"/>
<path d="M24.6847 4.5722L23.3291 5.34861V21.9613L23.3636 21.9416L27.9999 19.287V2.67432L24.6847 4.5722Z" fill="#2BBDF7"/>
<path d="M23.3295 0L18.6587 2.6743L23.3295 5.34859L24.6851 4.57218L28.0002 2.6743L23.3295 0Z" fill="#2B6DEF"/>
<path d="M11.2037 9.09509L0 2.67432V19.287L4.67077 21.9613V10.6972L9.32922 13.3715L14 16.0335V10.6972L11.2037 9.09509Z" fill="#2891F9"/>
<path d="M4.67077 0L0 2.6743L11.2037 9.09507L14 10.6972L16.1074 9.48944L18.6584 8.02289L4.67077 0Z" fill="#2B6DEF"/>
<path d="M4.6709 10.6971V21.9612L9.32935 19.2869V13.3714L4.6709 10.6971Z" fill="#2BBDF7"/>
</g>
<defs>
<clipPath id="clip0_6025_16340">
<rect width="28" height="22.0106" fill="white"/>
</clipPath>
</defs>
</svg>
