<svg width="28" height="29" viewBox="0 0 28 29" fill="none" xmlns="http://www.w3.org/2000/svg">
<path d="M3.5814 13.6392C3.58155 13.9372 3.49335 14.2286 3.32795 14.4765C3.16254 14.7244 2.92737 14.9176 2.65218 15.0318C2.37698 15.146 2.07413 15.1759 1.78192 15.1178C1.48971 15.0598 1.22128 14.9163 1.01056 14.7057C0.799854 14.495 0.656334 14.2265 0.598159 13.9342C0.539983 13.6419 0.569765 13.3389 0.683737 13.0635C0.797709 12.7881 0.990752 12.5528 1.23845 12.3872C1.48615 12.2216 1.77737 12.1332 2.07528 12.1332C2.4746 12.1332 2.85757 12.2918 3.14 12.5742C3.42243 12.8566 3.5812 13.2397 3.5814 13.6392ZM27.5114 13.6392C27.5115 13.9373 27.4233 14.2287 27.2579 14.4766C27.0924 14.7245 26.8572 14.9177 26.582 15.0319C26.3067 15.146 26.0039 15.1759 25.7116 15.1178C25.4194 15.0597 25.151 14.9162 24.9403 14.7054C24.7296 14.4946 24.5861 14.2261 24.528 13.9337C24.47 13.6414 24.4998 13.3383 24.6139 13.063C24.728 12.7876 24.9212 12.5523 25.169 12.3868C25.4168 12.2213 25.7081 12.133 26.006 12.1332C26.4047 12.1342 26.7867 12.2933 27.0683 12.5756C27.3499 12.8579 27.5081 13.2404 27.5083 13.6392H27.5114ZM15.5468 19.5834C15.5469 19.8814 15.4587 20.1729 15.2933 20.4208C15.1278 20.6687 14.8926 20.8619 14.6174 20.9761C14.3421 21.0902 14.0392 21.1201 13.747 21.062C13.4548 21.0039 13.1863 20.8603 12.9757 20.6496C12.765 20.4388 12.6215 20.1703 12.5634 19.8779C12.5053 19.5855 12.5352 19.2825 12.6493 19.0072C12.7634 18.7318 12.9566 18.4965 13.2044 18.331C13.4522 18.1655 13.7435 18.0772 14.0414 18.0774C14.4406 18.0776 14.8234 18.2363 15.1056 18.5187C15.3879 18.8011 15.5466 19.184 15.5468 19.5834ZM9.52305 16.6489C9.52305 16.9469 9.43472 17.2382 9.26923 17.486C9.10373 17.7338 8.86851 17.9269 8.5933 18.041C8.31809 18.155 8.01526 18.1849 7.7231 18.1267C7.43095 18.0686 7.16258 17.9251 6.95195 17.7144C6.74131 17.5036 6.59787 17.2351 6.53975 16.9429C6.48164 16.6506 6.51147 16.3476 6.62546 16.0723C6.73946 15.797 6.9325 15.5616 7.18018 15.3961C7.42786 15.2305 7.71905 15.1421 8.01693 15.1421C8.41638 15.1421 8.79947 15.3009 9.08192 15.5835C9.36437 15.866 9.52305 16.2493 9.52305 16.6489ZM21.4884 16.6489C21.4892 16.9472 21.4014 17.239 21.2362 17.4874C21.0711 17.7357 20.8359 17.9294 20.5606 18.044C20.2853 18.1585 19.9822 18.1887 19.6897 18.1308C19.3972 18.0728 19.1285 17.9293 18.9176 17.7184C18.7067 17.5075 18.5631 17.2388 18.505 16.9462C18.447 16.6536 18.477 16.3504 18.5913 16.0749C18.7057 15.7994 18.8992 15.564 19.1474 15.3987C19.3955 15.2333 19.6872 15.1453 19.9853 15.1459C20.3836 15.1467 20.7653 15.3053 21.047 15.587C21.3287 15.8687 21.4874 16.2505 21.4884 16.6489ZM3.09279 18.1998C3.09264 18.4011 3.03281 18.5979 2.92089 18.7652C2.80896 18.9325 2.64995 19.0628 2.46396 19.1398C2.27798 19.2167 2.07338 19.2367 1.87603 19.1972C1.67869 19.1578 1.49746 19.0607 1.35526 18.9183C1.21307 18.7758 1.11629 18.5943 1.07718 18.3969C1.03807 18.1994 1.05837 17.9947 1.13552 17.8088C1.21267 17.6228 1.34321 17.4639 1.51062 17.3522C1.67803 17.2405 1.8748 17.1809 2.07604 17.1811C2.20966 17.1812 2.34196 17.2076 2.46537 17.2588C2.58878 17.3101 2.70089 17.3852 2.79531 17.4798C2.88972 17.5743 2.96458 17.6866 3.01563 17.8102C3.06667 17.9337 3.09289 18.0661 3.09279 18.1998ZM27.0228 18.1998C27.0226 18.4011 26.9628 18.5979 26.8509 18.7652C26.7389 18.9325 26.5799 19.0628 26.3939 19.1398C26.208 19.2167 26.0034 19.2367 25.806 19.1972C25.6087 19.1578 25.4274 19.0607 25.2852 18.9183C25.143 18.7758 25.0463 18.5943 25.0072 18.3969C24.968 18.1994 24.9884 17.9947 25.0655 17.8088C25.1427 17.6228 25.2732 17.4639 25.4406 17.3522C25.608 17.2405 25.8048 17.1809 26.006 17.1811C26.2758 17.1813 26.5345 17.2886 26.7253 17.4794C26.9161 17.6703 27.0233 17.9291 27.0235 18.199L27.0228 18.1998ZM15.0582 24.2245C15.0583 24.4259 14.9987 24.6228 14.887 24.7904C14.7752 24.9579 14.6163 25.0885 14.4304 25.1656C14.2444 25.2428 14.0398 25.263 13.8423 25.2237C13.6449 25.1845 13.4635 25.0875 13.3212 24.9451C13.1788 24.8027 13.0819 24.6212 13.0427 24.4237C13.0034 24.2262 13.0236 24.0214 13.1007 23.8354C13.1779 23.6494 13.3084 23.4904 13.4758 23.3786C13.6433 23.2668 13.8401 23.2072 14.0414 23.2074C14.3109 23.2078 14.5693 23.3151 14.7599 23.5057C14.9505 23.6964 15.0578 23.9549 15.0582 24.2245ZM9.0352 21.2103C9.0352 21.4116 8.9755 21.6085 8.86367 21.7759C8.75183 21.9433 8.59287 22.0738 8.4069 22.1508C8.22093 22.2278 8.01631 22.2479 7.81891 22.2086C7.62151 22.1692 7.44021 22.0722 7.29794 21.9298C7.15567 21.7873 7.05882 21.6059 7.01965 21.4084C6.98047 21.2109 7.00073 21.0062 7.07786 20.8202C7.15499 20.6342 7.28552 20.4753 7.45295 20.3635C7.62038 20.2517 7.81718 20.1922 8.01845 20.1923C8.15204 20.1923 8.28431 20.2187 8.40772 20.2698C8.53113 20.321 8.64325 20.396 8.73767 20.4905C8.83209 20.585 8.90697 20.6973 8.95802 20.8208C9.00907 20.9443 9.0353 21.0766 9.0352 21.2103ZM21.0006 21.2103C21.001 21.4118 20.9417 21.6089 20.83 21.7766C20.7184 21.9444 20.5595 22.0752 20.3735 22.1525C20.1875 22.2299 19.9827 22.2502 19.7851 22.211C19.5875 22.1718 19.406 22.0748 19.2636 21.9323C19.1211 21.7898 19.0242 21.6082 18.985 21.4106C18.9458 21.2129 18.9662 21.008 19.0435 20.8219C19.1207 20.6358 19.2515 20.4769 19.4192 20.3652C19.5869 20.2535 19.7839 20.1941 19.9853 20.1946C20.2543 20.1954 20.512 20.3027 20.7021 20.493C20.8922 20.6833 20.9992 20.9412 20.9998 21.2103H21.0006ZM2.60493 21.7819C2.60493 21.8872 2.57374 21.9901 2.51529 22.0776C2.45684 22.1651 2.37376 22.2333 2.27656 22.2736C2.17937 22.3139 2.07241 22.3244 1.96923 22.3039C1.86604 22.2833 1.77126 22.2327 1.69687 22.1582C1.62248 22.0838 1.57182 21.989 1.55129 21.8858C1.53077 21.7825 1.5413 21.6755 1.58156 21.5783C1.62183 21.4811 1.69 21.3979 1.77748 21.3395C1.86495 21.281 1.9678 21.2498 2.073 21.2498C2.21408 21.2498 2.34938 21.3059 2.44913 21.4057C2.54889 21.5054 2.60493 21.6408 2.60493 21.7819ZM26.5349 21.7819C26.5349 21.8872 26.5037 21.9901 26.4453 22.0776C26.3868 22.1651 26.3037 22.2333 26.2065 22.2736C26.1093 22.3139 26.0024 22.3244 25.8992 22.3039C25.796 22.2833 25.7012 22.2327 25.6269 22.1582C25.5525 22.0838 25.5018 21.989 25.4813 21.8858C25.4608 21.7825 25.4713 21.6755 25.5115 21.5783C25.5518 21.4811 25.62 21.3979 25.7075 21.3395C25.7949 21.281 25.8978 21.2498 26.003 21.2498C26.1441 21.2498 26.2794 21.3059 26.3791 21.4057C26.4789 21.5054 26.5349 21.6408 26.5349 21.7819ZM14.5695 27.8082C14.5695 27.9135 14.5383 28.0164 14.4799 28.1039C14.4214 28.1914 14.3384 28.2596 14.2412 28.2999C14.144 28.3402 14.037 28.3507 13.9338 28.3302C13.8307 28.3096 13.7359 28.259 13.6615 28.1845C13.5871 28.1101 13.5364 28.0153 13.5159 27.9121C13.4954 27.8088 13.5059 27.7018 13.5462 27.6046C13.5864 27.5074 13.6546 27.4242 13.7421 27.3658C13.8296 27.3073 13.9324 27.2761 14.0376 27.2761C14.1787 27.2761 14.314 27.3321 14.4137 27.4319C14.5135 27.5317 14.5695 27.6671 14.5695 27.8082ZM8.54658 24.7955C8.54658 24.9007 8.51539 25.0036 8.45694 25.0911C8.39849 25.1786 8.31541 25.2468 8.21821 25.2871C8.12102 25.3274 8.01406 25.3379 7.91088 25.3174C7.8077 25.2969 7.71292 25.2462 7.63852 25.1718C7.56413 25.0973 7.51347 25.0025 7.49295 24.8993C7.47242 24.7961 7.48296 24.6891 7.52322 24.5918C7.56348 24.4946 7.63166 24.4115 7.71913 24.353C7.80661 24.2945 7.90945 24.2633 8.01466 24.2633C8.15573 24.2633 8.29103 24.3194 8.39079 24.4192C8.49054 24.519 8.54658 24.6543 8.54658 24.7955ZM20.512 24.7955C20.512 24.9007 20.4808 25.0036 20.4223 25.0911C20.3639 25.1786 20.2808 25.2468 20.1836 25.2871C20.0864 25.3274 19.9794 25.3379 19.8762 25.3174C19.7731 25.2969 19.6783 25.2462 19.6039 25.1718C19.5295 25.0973 19.4788 25.0025 19.4583 24.8993C19.4378 24.7961 19.4483 24.6891 19.4886 24.5918C19.5288 24.4946 19.597 24.4115 19.6845 24.353C19.772 24.2945 19.8748 24.2633 19.98 24.2633C20.1211 24.2633 20.2564 24.3194 20.3562 24.4192C20.4559 24.519 20.512 24.6543 20.512 24.7955ZM16.0339 2.03588C16.0339 2.4386 15.9145 2.83228 15.6908 3.16711C15.4671 3.50195 15.1492 3.76289 14.7773 3.91693C14.4053 4.07098 13.9961 4.11121 13.6013 4.03253C13.2065 3.95385 12.8439 3.7598 12.5594 3.47493C12.2748 3.19005 12.0811 2.82715 12.0028 2.43213C11.9244 2.03711 11.9649 1.62771 12.1192 1.25573C12.2735 0.883747 12.5345 0.565891 12.8694 0.342369C13.2042 0.118846 13.5978 -0.000300197 14.0004 5.68017e-07C14.5398 0.000403619 15.0571 0.215075 15.4384 0.596833C15.8197 0.978591 16.0339 1.4962 16.0339 2.03588ZM16.0339 8.05838C16.0339 8.46107 15.9145 8.85472 15.6909 9.18953C15.4672 9.52435 15.1493 9.78529 14.7774 9.93936C14.4056 10.0934 13.9963 10.1337 13.6016 10.0551C13.2068 9.97647 12.8442 9.78249 12.5596 9.49769C12.2751 9.21289 12.0813 8.85006 12.0029 8.45509C11.9244 8.06012 11.9648 7.65075 12.119 7.27875C12.2731 6.90676 12.5341 6.58885 12.8688 6.36523C13.2036 6.14162 13.5971 6.02235 13.9996 6.0225C14.5392 6.0227 15.0566 6.23728 15.4381 6.61906C15.8196 7.00084 16.0339 7.51856 16.0339 8.05838ZM16.0339 14.0033C16.0339 14.406 15.9145 14.7997 15.6909 15.1345C15.4672 15.4693 15.1493 15.7302 14.7774 15.8843C14.4056 16.0384 13.9963 16.0787 13.6016 16C13.2068 15.9214 12.8442 15.7274 12.5596 15.4426C12.2751 15.1578 12.0813 14.795 12.0029 14.4C11.9244 14.0051 11.9648 13.5957 12.119 13.2237C12.2731 12.8517 12.5341 12.5338 12.8688 12.3102C13.2036 12.0866 13.5971 11.9673 13.9996 11.9674C14.2671 11.9675 14.5318 12.0204 14.7789 12.1229C15.0259 12.2255 15.2502 12.3757 15.4392 12.5651C15.6281 12.7544 15.7779 12.9792 15.8799 13.2265C15.982 13.4738 16.0343 13.7388 16.0339 14.0064V14.0033ZM28 8.05838C28 8.46104 27.8806 8.85465 27.657 9.18945C27.4334 9.52425 27.1156 9.78519 26.7438 9.93929C26.3719 10.0934 25.9627 10.1337 25.568 10.0551C25.1732 9.97658 24.8106 9.78268 24.526 9.49796C24.2414 9.21324 24.0476 8.85048 23.9691 8.45556C23.8906 8.06063 23.9309 7.65129 24.0849 7.27928C24.2389 6.90727 24.4997 6.58931 24.8344 6.3656C25.1691 6.1419 25.5625 6.0225 25.965 6.0225C26.5047 6.0225 27.0223 6.23699 27.404 6.61879C27.7856 7.00059 28 7.51843 28 8.05838ZM4.07002 8.05838C4.07062 8.46116 3.95178 8.85508 3.72854 9.19028C3.50529 9.52548 3.18768 9.78689 2.81588 9.94145C2.44409 10.096 2.03482 10.1368 1.63986 10.0585C1.24491 9.98034 0.882023 9.78668 0.597117 9.50208C0.312212 9.21748 0.118094 8.85472 0.039326 8.45972C-0.039442 8.06471 0.000680127 7.65521 0.154615 7.28302C0.308551 6.91084 0.569381 6.5927 0.904102 6.36886C1.23882 6.14502 1.63239 6.02554 2.03501 6.02554C2.5742 6.02554 3.09135 6.23961 3.4729 6.62076C3.85445 7.0019 4.06921 7.51895 4.07002 8.05838ZM10.093 5.04561C10.0936 5.44827 9.97482 5.84206 9.75171 6.17719C9.52859 6.51233 9.21116 6.77374 8.83954 6.92839C8.46792 7.08304 8.05881 7.12396 7.66394 7.046C7.26907 6.96803 6.90618 6.77468 6.62115 6.49038C6.33613 6.20608 6.14177 5.84361 6.06266 5.44881C5.98355 5.05401 6.02324 4.6446 6.17671 4.27236C6.33017 3.90012 6.59053 3.58177 6.92485 3.35757C7.25917 3.13336 7.65244 3.01337 8.05493 3.01277C8.59465 3.01277 9.11226 3.22726 9.4939 3.60906C9.87554 3.99087 10.0899 4.5087 10.0899 5.04865L10.093 5.04561ZM10.0899 10.9928C10.0899 11.3955 9.97059 11.7891 9.74698 12.1239C9.52337 12.4587 9.20554 12.7197 8.83369 12.8737C8.46184 13.0278 8.05267 13.0682 7.65792 12.9896C7.26317 12.911 6.90056 12.7171 6.61596 12.4324C6.33136 12.1477 6.13754 11.7849 6.05902 11.39C5.9805 10.9951 6.0208 10.5858 6.17483 10.2137C6.32885 9.84173 6.58968 9.52378 6.92434 9.30007C7.25899 9.07636 7.65244 8.95696 8.05493 8.95696C8.59465 8.95696 9.11226 9.17146 9.4939 9.55326C9.87554 9.93506 10.0899 10.4529 10.0899 10.9928ZM22.0583 5.04865C22.0583 5.45131 21.939 5.84492 21.7154 6.17972C21.4918 6.51452 21.174 6.77547 20.8021 6.92956C20.4303 7.08365 20.0211 7.12397 19.6263 7.04541C19.2316 6.96686 18.869 6.77296 18.5844 6.48823C18.2998 6.20351 18.106 5.84075 18.0274 5.44583C17.9489 5.05091 17.9892 4.64156 18.1432 4.26955C18.2973 3.89754 18.5581 3.57958 18.8927 3.35588C19.2274 3.13217 19.6209 3.01277 20.0233 3.01277C20.5631 3.01277 21.0807 3.22726 21.4623 3.60906C21.8439 3.99087 22.0583 4.5087 22.0583 5.04865ZM22.0583 10.9928C22.0583 11.3955 21.939 11.7891 21.7154 12.1239C21.4918 12.4587 21.174 12.7197 20.8021 12.8737C20.4303 13.0278 20.0211 13.0682 19.6263 12.9896C19.2316 12.911 18.869 12.7171 18.5844 12.4324C18.2998 12.1477 18.106 11.7849 18.0274 11.39C17.9489 10.9951 17.9892 10.5858 18.1432 10.2137C18.2973 9.84173 18.5581 9.52378 18.8927 9.30007C19.2274 9.07636 19.6209 8.95696 20.0233 8.95696C20.5631 8.95696 21.0807 9.17146 21.4623 9.55326C21.8439 9.93506 22.0583 10.4529 22.0583 10.9928Z" fill="#141414"/>
</svg>
