<svg width="46" height="46" viewBox="0 0 46 46" fill="none" xmlns="http://www.w3.org/2000/svg">
<circle cx="23" cy="23" r="22.25" stroke="#6200EE" stroke-width="1.5"/>
<path fill-rule="evenodd" clip-rule="evenodd" d="M24.6924 12.1289C24.916 11.7981 25.0354 11.4092 25.0354 11.0114C25.0354 10.478 24.821 9.96635 24.4393 9.58913C24.0577 9.21192 23.5401 9 23.0004 9C22.5979 9 22.2044 9.11797 21.8698 9.33899C21.5351 9.56001 21.2743 9.87415 21.1203 10.2417C20.9662 10.6092 20.9259 11.0137 21.0045 11.4038C21.083 11.794 21.2768 12.1524 21.5614 12.4337C21.846 12.715 22.2086 12.9066 22.6034 12.9842C22.9981 13.0618 23.4073 13.022 23.7791 12.8697C24.151 12.7175 24.4688 12.4597 24.6924 12.1289ZM12.3287 23.3004C12.4941 23.0555 12.5823 22.7676 12.5822 22.4731C12.582 22.0784 12.4232 21.7 12.1408 21.421C11.8584 21.1419 11.4754 20.9852 11.0761 20.9852C10.7782 20.9852 10.4869 21.0725 10.2392 21.2361C9.99154 21.3998 9.79849 21.6323 9.68452 21.9044C9.57055 22.1764 9.54077 22.4758 9.59894 22.7646C9.65712 23.0534 9.80064 23.3186 10.0113 23.5268C10.2221 23.7349 10.4905 23.8767 10.7827 23.934C11.0749 23.9914 11.3778 23.9618 11.653 23.849C11.9282 23.7362 12.1633 23.5453 12.3287 23.3004ZM36.2597 23.3011C36.4249 23.0559 36.5127 22.7677 36.5121 22.4731C36.5113 22.079 36.3524 21.7012 36.0702 21.4227C35.788 21.1442 35.4055 20.9877 35.0067 20.9875C34.7087 20.9873 34.4173 21.0746 34.1695 21.2382C33.9216 21.4018 33.7285 21.6344 33.6144 21.9066C33.5004 22.1788 33.4707 22.4783 33.5289 22.7672C33.5872 23.0561 33.7309 23.3214 33.9418 23.5296C34.1527 23.7377 34.4214 23.8793 34.7137 23.9365C35.0061 23.9937 35.3091 23.9638 35.5843 23.8507C35.8595 23.7376 36.0945 23.5463 36.2597 23.3011ZM24.5467 28.3489C24.5467 28.6434 24.4584 28.9312 24.2929 29.176C24.1273 29.4209 23.8921 29.6117 23.6168 29.7243C23.3416 29.837 23.0387 29.8664 22.7465 29.8089C22.4543 29.7514 22.186 29.6096 21.9754 29.4013C21.7648 29.193 21.6214 28.9277 21.5633 28.6389C21.5053 28.35 21.5353 28.0507 21.6494 27.7787C21.7635 27.5067 21.9566 27.2742 22.2044 27.1108C22.4522 26.9473 22.7435 26.8601 23.0414 26.8602C23.4407 26.8604 23.8236 27.0174 24.1059 27.2965C24.3882 27.5757 24.5467 27.9542 24.5467 28.3489ZM18.27 26.2797C18.4355 26.0349 18.5238 25.7471 18.5238 25.4527C18.5238 25.0579 18.3651 24.6792 18.0827 24.4C17.8002 24.1209 17.4171 23.964 17.0177 23.964C16.7198 23.964 16.4286 24.0513 16.1809 24.2149C15.9332 24.3785 15.7402 24.611 15.6262 24.883C15.5122 25.155 15.4824 25.4543 15.5405 25.7431C15.5986 26.0319 15.7421 26.2971 15.9527 26.5053C16.1633 26.7135 16.4317 26.8553 16.7239 26.9127C17.016 26.9702 17.3188 26.9407 17.594 26.828C17.8693 26.7153 18.1045 26.5245 18.27 26.2797ZM30.4884 25.4527C30.4884 25.7471 30.4 26.035 30.2345 26.2798C30.069 26.5246 29.8337 26.7154 29.5585 26.8281C29.2832 26.9407 28.9804 26.9702 28.6882 26.9127C28.396 26.8552 28.1276 26.7133 27.917 26.5051C27.7064 26.2968 27.563 26.0315 27.505 25.7426C27.447 25.4538 27.4769 25.1545 27.591 24.8825C27.7051 24.6105 27.8983 24.378 28.1461 24.2145C28.3939 24.051 28.6851 23.9639 28.983 23.964C29.3824 23.9642 29.7652 24.1211 30.0475 24.4003C30.3298 24.6795 30.4884 25.058 30.4884 25.4527ZM11.9217 27.5383C12.0336 27.373 12.0934 27.1786 12.0936 26.9797C12.0937 26.8476 12.0675 26.7168 12.0164 26.5947C11.9654 26.4727 11.8905 26.3618 11.7961 26.2683C11.7017 26.1748 11.5896 26.1007 11.4662 26.05C11.3427 25.9994 11.2105 25.9733 11.0768 25.9732C10.8756 25.9731 10.6788 26.0319 10.5114 26.1423C10.344 26.2527 10.2135 26.4096 10.1363 26.5934C10.0592 26.7771 10.0389 26.9793 10.078 27.1744C10.1171 27.3695 10.2139 27.5488 10.3561 27.6895C10.4983 27.8303 10.6795 27.9262 10.8768 27.9652C11.0742 28.0041 11.2788 27.9843 11.4648 27.9084C11.6507 27.8324 11.8097 27.7036 11.9217 27.5383ZM36.0235 26.9797C36.0238 27.1787 35.9644 27.3733 35.8527 27.5389C35.741 27.7045 35.5822 27.8336 35.3962 27.91C35.2103 27.9863 35.0056 28.0064 34.8081 27.9677C34.6106 27.929 34.4292 27.8333 34.2868 27.6926C34.1444 27.5519 34.0474 27.3727 34.0081 27.1775C33.9688 26.9823 33.9889 26.78 34.066 26.5961C34.1431 26.4123 34.2736 26.2552 34.4411 26.1447C34.6085 26.0342 34.8054 25.9753 35.0067 25.9755C35.2762 25.9757 35.5346 26.0815 35.7252 26.2698C35.9158 26.458 36.0231 26.7133 36.0235 26.9797ZM23.8873 33.4928C23.999 33.3272 24.0584 33.1326 24.0581 32.9336C24.0575 32.6673 23.9502 32.4121 23.7596 32.2239C23.5691 32.0357 23.3108 31.9298 23.0414 31.9294C22.84 31.9292 22.6432 31.9881 22.4757 32.0986C22.3083 32.2091 22.1777 32.3662 22.1007 32.55C22.0236 32.7339 22.0034 32.9362 22.0427 33.1314C22.082 33.3266 22.179 33.5058 22.3214 33.6465C22.4638 33.7872 22.6453 33.8829 22.8428 33.9216C23.0403 33.9603 23.2449 33.9402 23.4309 33.8639C23.6168 33.7876 23.7757 33.6584 23.8873 33.4928ZM18.0352 29.9585C18.035 30.1574 17.9752 30.3518 17.8633 30.5171C17.7514 30.6824 17.5924 30.8112 17.4064 30.8872C17.2204 30.9632 17.0158 30.9829 16.8184 30.944C16.6211 30.905 16.4399 30.8091 16.2977 30.6684C16.1555 30.5276 16.0587 30.3483 16.0196 30.1532C15.9805 29.9581 16.0008 29.7559 16.0779 29.5722C16.1551 29.3885 16.2856 29.2315 16.453 29.1211C16.6204 29.0107 16.8172 28.9519 17.0185 28.952C17.1521 28.952 17.2844 28.9781 17.4079 29.0287C17.5314 29.0793 17.6435 29.1534 17.7379 29.2469C17.8324 29.3404 17.9072 29.4513 17.9582 29.5734C18.0092 29.6955 18.0354 29.8264 18.0352 29.9585ZM29.8287 30.5171C29.9406 30.3518 30.0004 30.1574 30.0006 29.9585C30.0007 29.8264 29.9744 29.6956 29.9234 29.5736C29.8724 29.4515 29.7975 29.3406 29.7031 29.2471C29.6087 29.1537 29.4965 29.0795 29.3731 29.0289C29.2497 28.9782 29.1174 28.9521 28.9838 28.952C28.7826 28.9519 28.5858 29.0107 28.4184 29.1211C28.251 29.2315 28.1204 29.3885 28.0433 29.5722C27.9661 29.7559 27.9458 29.9581 27.985 30.1532C28.0241 30.3483 28.1208 30.5276 28.263 30.6684C28.4052 30.8091 28.5865 30.905 28.7838 30.944C28.9811 30.9829 29.1857 30.9632 29.3717 30.8872C29.5577 30.8112 29.7167 30.6824 29.8287 30.5171ZM11.6019 30.5204C11.6027 30.6245 11.5721 30.7266 11.5141 30.8135C11.4561 30.9005 11.3733 30.9685 11.2762 31.0088C11.1791 31.0492 11.072 31.0602 10.9686 31.0403C10.8651 31.0204 10.77 30.9707 10.6952 30.8973C10.6205 30.8239 10.5694 30.7302 10.5486 30.6281C10.5278 30.526 10.5381 30.4201 10.5782 30.3238C10.6184 30.2275 10.6865 30.1451 10.7741 30.0872C10.8616 30.0293 10.9646 29.9983 11.07 29.9983C11.2104 29.9983 11.3451 30.0532 11.4448 30.151C11.5444 30.2488 11.6009 30.3816 11.6019 30.5204ZM35.4509 30.8135C35.5089 30.7266 35.5395 30.6245 35.5387 30.5204C35.5377 30.3816 35.4812 30.2488 35.3816 30.151C35.2819 30.0532 35.1472 29.9983 35.0068 29.9983C34.9014 29.9983 34.7984 30.0293 34.7109 30.0872C34.6233 30.1451 34.5552 30.2275 34.515 30.3238C34.4749 30.4201 34.4645 30.526 34.4854 30.6281C34.5062 30.7302 34.5573 30.8239 34.632 30.8973C34.7068 30.9707 34.8019 31.0204 34.9054 31.0403C35.0088 31.0602 35.1159 31.0492 35.213 31.0088C35.3101 30.9685 35.3929 30.9005 35.4509 30.8135ZM23.5703 36.4743C23.5703 36.5783 23.5391 36.68 23.4806 36.7664C23.4222 36.8529 23.3391 36.9203 23.2419 36.9601C23.1447 36.9999 23.0378 37.0103 22.9346 36.99C22.8314 36.9697 22.7366 36.9196 22.6622 36.8461C22.5878 36.7726 22.5372 36.6789 22.5167 36.5769C22.4961 36.4749 22.5067 36.3692 22.5469 36.2731C22.5872 36.177 22.6554 36.0949 22.7428 36.0371C22.8303 35.9793 22.9332 35.9485 23.0384 35.9485C23.1794 35.9485 23.3147 36.0039 23.4145 36.1025C23.5142 36.2011 23.5703 36.3348 23.5703 36.4743ZM17.457 33.7898C17.5154 33.7034 17.5466 33.6017 17.5466 33.4977C17.5466 33.3583 17.4906 33.2245 17.3908 33.1259C17.291 33.0273 17.1557 32.9719 17.0147 32.9719C16.9095 32.9719 16.8066 33.0027 16.7191 33.0605C16.6317 33.1183 16.5635 33.2004 16.5232 33.2965C16.483 33.3926 16.4724 33.4983 16.493 33.6003C16.5135 33.7023 16.5641 33.796 16.6385 33.8695C16.7129 33.9431 16.8077 33.9931 16.9109 34.0134C17.0141 34.0337 17.121 34.0233 17.2182 33.9835C17.3154 33.9437 17.3985 33.8763 17.457 33.7898ZM29.5119 33.4977C29.5119 33.6017 29.4807 33.7034 29.4223 33.7898C29.3638 33.8763 29.2807 33.9437 29.1835 33.9835C29.0863 34.0233 28.9794 34.0337 28.8762 34.0134C28.773 33.9931 28.6782 33.9431 28.6039 33.8695C28.5295 33.796 28.4788 33.7023 28.4583 33.6003C28.4377 33.4983 28.4483 33.3926 28.4885 33.2965C28.5288 33.2004 28.597 33.1183 28.6845 33.0605C28.7719 33.0027 28.8748 32.9719 28.98 32.9719C29.1211 32.9719 29.2564 33.0273 29.3561 33.1259C29.4559 33.2245 29.5119 33.3583 29.5119 33.4977ZM25.0354 16.9653C25.0354 17.3632 24.916 17.7521 24.6924 18.0828C24.4688 18.4136 24.151 18.6714 23.7791 18.8237C23.4073 18.9759 22.9981 19.0157 22.6034 18.9381C22.2086 18.8605 21.846 18.6689 21.5614 18.3876C21.2768 18.1063 21.083 17.7479 21.0045 17.3577C20.9259 16.9676 20.9662 16.5631 21.1203 16.1956C21.2743 15.8281 21.5351 15.5139 21.8698 15.2929C22.2044 15.0719 22.5979 14.9539 23.0004 14.9539C23.2676 14.9539 23.5322 15.0059 23.779 15.107C24.0259 15.2081 24.2502 15.3563 24.4391 15.5431C24.628 15.7299 24.7778 15.9516 24.88 16.1957C24.9822 16.4397 25.0347 16.7012 25.0346 16.9653H25.0354ZM24.6924 23.9556C24.916 23.6248 25.0354 23.236 25.0354 22.8381H25.0346C25.0346 22.3048 24.8203 21.7933 24.4388 21.4161C24.0574 21.0389 23.54 20.8269 23.0004 20.8267C22.5979 20.8267 22.2044 20.9447 21.8698 21.1657C21.5351 21.3867 21.2743 21.7009 21.1203 22.0684C20.9662 22.4359 20.9259 22.8404 21.0045 23.2305C21.083 23.6207 21.2768 23.9791 21.5614 24.2604C21.846 24.5417 22.2086 24.7333 22.6034 24.8109C22.9981 24.8885 23.4073 24.8487 23.7791 24.6965C24.151 24.5442 24.4688 24.2864 24.6924 23.9556ZM37 16.9653C37 17.3632 36.8806 17.7521 36.657 18.0829C36.4334 18.4137 36.1155 18.6715 35.7436 18.8237C35.3717 18.9759 34.9625 19.0157 34.5677 18.9381C34.173 18.8604 33.8103 18.6687 33.5258 18.3874C33.2412 18.106 33.0475 17.7475 32.969 17.3573C32.8906 16.9671 32.931 16.5626 33.0851 16.1951C33.2393 15.8276 33.5002 15.5135 33.835 15.2925C34.1697 15.0716 34.5633 14.9538 34.9658 14.9539C35.233 14.9538 35.4976 15.0058 35.7445 15.1068C35.9914 15.2079 36.2158 15.3561 36.4047 15.5429C36.5936 15.7297 36.7434 15.9515 36.8456 16.1955C36.9477 16.4396 37.0002 16.7012 37 16.9653ZM12.727 18.0829C12.9506 17.7521 13.07 17.3632 13.07 16.9653C13.0702 16.7012 13.0177 16.4396 12.9156 16.1955C12.8134 15.9515 12.6636 15.7297 12.4747 15.5429C12.2858 15.3561 12.0614 15.2079 11.8145 15.1068C11.5676 15.0058 11.303 14.9538 11.0358 14.9539C10.6332 14.9538 10.2397 15.0716 9.90497 15.2925C9.57022 15.5135 9.30927 15.8276 9.15512 16.1951C9.00098 16.5626 8.96058 16.9671 9.03901 17.3573C9.11745 17.7475 9.3112 18.106 9.59577 18.3874C9.88034 18.6687 10.2429 18.8604 10.6377 18.9381C11.0325 19.0157 11.4417 18.9759 11.8136 18.8237C12.1855 18.6715 12.5034 18.4137 12.727 18.0829ZM19.0937 13.9857C19.0939 14.3836 18.9746 14.7726 18.7511 15.1034C18.5276 15.4343 18.2098 15.6922 17.838 15.8446C17.4662 15.997 17.057 16.0369 16.6622 15.9594C16.2674 15.8818 15.9047 15.6903 15.62 15.4091C15.3353 15.1278 15.1414 14.7694 15.0629 14.3792C14.9843 13.989 15.0245 13.5845 15.1785 13.2169C15.3325 12.8493 15.5934 12.5352 15.928 12.3141C16.2627 12.0931 16.6562 11.9751 17.0587 11.9751C17.5983 11.9751 18.1158 12.1869 18.4974 12.5639C18.879 12.941 19.0935 13.4524 19.0937 13.9857ZM18.7511 20.9785C18.9746 20.6476 19.0939 20.2586 19.0937 19.8608C19.0935 19.3275 18.879 18.816 18.4974 18.439C18.1158 18.0619 17.5983 17.8501 17.0587 17.8501C16.6562 17.8501 16.2627 17.9681 15.928 18.1892C15.5934 18.4102 15.3325 18.7244 15.1785 19.092C15.0245 19.4596 14.9843 19.864 15.0629 20.2542C15.1414 20.6444 15.3353 21.0028 15.62 21.2841C15.9047 21.5654 16.2674 21.7569 16.6622 21.8344C17.057 21.9119 17.4662 21.872 17.838 21.7196C18.2098 21.5673 18.5276 21.3094 18.7511 20.9785ZM31.0553 13.9857C31.0554 14.3836 30.9362 14.7726 30.7127 15.1034C30.4892 15.4343 30.1714 15.6922 29.7996 15.8446C29.4277 15.997 29.0185 16.0369 28.6237 15.9594C28.2289 15.8818 27.8662 15.6903 27.5816 15.4091C27.2969 15.1278 27.103 14.7694 27.0244 14.3792C26.9458 13.989 26.9861 13.5845 27.1401 13.2169C27.2941 12.8493 27.5549 12.5352 27.8896 12.3141C28.2243 12.0931 28.6177 11.9751 29.0203 11.9751C29.5599 11.9751 30.0774 12.1869 30.459 12.5639C30.8406 12.941 31.0551 13.4524 31.0553 13.9857ZM30.7127 20.9785C30.9362 20.6476 31.0554 20.2586 31.0553 19.8608C31.0551 19.3275 30.8406 18.816 30.459 18.439C30.0774 18.0619 29.5599 17.8501 29.0203 17.8501C28.6177 17.8501 28.2243 17.9681 27.8896 18.1892C27.5549 18.4102 27.2941 18.7244 27.1401 19.092C26.9861 19.4596 26.9458 19.864 27.0244 20.2542C27.103 20.6444 27.2969 21.0028 27.5816 21.2841C27.8662 21.5654 28.2289 21.7569 28.6237 21.8344C29.0185 21.9119 29.4277 21.872 29.7996 21.7196C30.1714 21.5673 30.4892 21.3094 30.7127 20.9785Z" fill="#6200EE"/>
</svg>
