<svg width="36" height="36" viewBox="0 0 36 36" fill="none" xmlns="http://www.w3.org/2000/svg">
<path d="M18.5427 36H17.4627C17.4038 35.9919 17.3448 35.9824 17.2859 35.9762C16.4864 35.8916 15.6792 35.8507 14.8887 35.7148C12.1793 35.248 9.70422 34.1937 7.46917 32.5875C2.10735 28.7302 -0.734699 22.1277 0.164167 15.6208C0.524271 12.9463 1.4783 10.3864 2.95631 8.12851C6.14726 3.22919 11.6598 0.150422 17.5102 0.00591879C20.058 -0.0568259 22.5189 0.378109 24.868 1.36729C29.0919 3.14569 32.2101 6.09723 34.2227 10.2219C35.2209 12.2659 35.7823 14.431 35.9443 16.6998C35.9624 16.9536 35.9819 17.207 36.0009 17.4604V18.5403C35.9901 18.5984 35.9823 18.6569 35.9776 18.7157C35.9456 19.7305 35.8197 20.7402 35.6016 21.7318C34.6329 26.0992 32.3874 29.6642 28.8204 32.3684C26.0045 34.5032 22.8131 35.6791 19.288 35.9444L18.5427 36Z" fill="url(#paint0_linear_6141_11382)"/>
<path d="M18.016 20.9284L16.4654 22.8207C16.0029 23.3849 15.5542 23.9615 15.0755 24.512C14.1833 25.5373 13.0696 26.1015 11.6868 26.0949C10.0521 26.0872 8.41744 26.0949 6.78275 26.0949C6.56171 26.0949 6.55078 26.0844 6.55078 25.8681V22.8259C6.55078 22.6016 6.56124 22.5916 6.78845 22.5916C8.30953 22.5916 9.82777 22.5878 11.3474 22.5945C11.6897 22.5945 11.9449 22.4742 12.1626 22.2075C15.0742 18.6425 17.9896 15.0811 20.9089 11.5233C21.7645 10.4838 22.8796 9.91242 24.2505 9.90956C25.9251 9.90671 27.5997 9.90956 29.2744 9.90576C29.417 9.90576 29.4688 9.95092 29.4683 10.0959C29.464 11.1207 29.4683 12.1456 29.4659 13.1709C29.4659 13.3833 29.4459 13.4028 29.2349 13.4028C27.71 13.4028 26.1851 13.409 24.6607 13.3986C24.3142 13.3962 24.0651 13.5202 23.8488 13.786C22.7318 15.1583 21.6052 16.5225 20.4825 17.8896C20.4573 17.92 20.435 17.9523 20.4031 17.9937C20.6355 18.2789 20.8656 18.5598 21.0961 18.8412C22.0278 19.9779 22.9587 21.1147 23.8888 22.2517C23.9739 22.3628 24.0845 22.4519 24.2112 22.5115C24.3379 22.571 24.4771 22.5993 24.617 22.594C26.1514 22.5897 27.6862 22.594 29.2206 22.594C29.4464 22.594 29.4621 22.6087 29.4621 22.8316C29.4621 23.8457 29.4621 24.8598 29.4621 25.8738C29.4621 26.0849 29.4464 26.0996 29.2287 26.0996C27.6344 26.0996 26.0392 26.0834 24.4449 26.1044C22.9538 26.1243 21.7797 25.5197 20.8494 24.3865C19.9305 23.266 19.0115 22.1446 18.0925 21.0225C18.0763 20.9892 18.0511 20.9655 18.016 20.9284Z" fill="#00D5FF"/>
<path d="M13.9014 15.9072C13.4688 15.3776 13.0519 14.8666 12.6355 14.3561C12.4677 14.1508 12.2942 13.9507 12.134 13.7382C11.9496 13.4948 11.7119 13.394 11.4092 13.395C9.88474 13.3997 8.36033 13.3974 6.83544 13.395C6.54596 13.395 6.53027 13.3798 6.53027 13.0908V10.1551C6.53027 9.92549 6.55166 9.9041 6.77555 9.9041C8.41975 9.9041 10.0644 9.9098 11.7086 9.9041C12.9141 9.89887 13.9427 10.3286 14.775 11.1818C15.2314 11.6486 15.6273 12.1738 16.0499 12.6734C16.1335 12.7723 16.2134 12.874 16.3018 12.9824L13.9014 15.9072Z" fill="#00D5FF"/>
<defs>
<linearGradient id="paint0_linear_6141_11382" x1="18.2033" y1="36.0038" x2="17.8064" y2="0.423742" gradientUnits="userSpaceOnUse">
<stop stop-color="#19045B"/>
<stop offset="0.18" stop-color="#160452"/>
<stop offset="0.49" stop-color="#0F0238"/>
<stop offset="0.87" stop-color="#04010F"/>
<stop offset="1"/>
</linearGradient>
</defs>
</svg>
