<svg width="28" height="25" viewBox="0 0 28 25" fill="none" xmlns="http://www.w3.org/2000/svg">
<path d="M3.54586 24.457H21.7233C25.323 24.457 27.5654 20.5675 25.7507 17.4712L16.5358 1.74863C15.1602 -0.598474 11.7481 -0.578871 10.3998 1.78388L0.467646 19.1882C-0.873879 21.539 0.830909 24.457 3.54586 24.457Z" fill="#4C49DC"/>
<path d="M8.63318 24.5H23.236C26.1672 24.5 27.9945 21.3345 26.5197 18.8116L19.1194 6.15223C17.7446 3.80055 14.3268 3.82015 12.9794 6.18746L5.55301 19.2347C4.21498 21.5854 5.91997 24.5 8.63318 24.5Z" fill="#4674DF"/>
<path d="M13.3286 24.5H25.4919C27.4232 24.5 28.6276 22.4148 27.6569 20.752L21.4941 10.1963C20.5221 8.53128 18.1026 8.54515 17.1498 10.2212L11.1493 20.7769C10.2041 22.4397 11.4101 24.5 13.3286 24.5Z" fill="#74F0AE"/>
</svg>
