<svg width="25" height="28" viewBox="0 0 25 28" fill="none" xmlns="http://www.w3.org/2000/svg">
<path d="M14.4213 25.5755C14.4498 27.1443 13.7614 28.0031 12.4786 28.0001C11.4608 28.0001 10.6156 27.3245 10.5833 26.3066C10.5638 25.6949 10.2951 25.4464 9.82667 25.1807C7.91006 24.1083 6.00569 23.0151 4.11361 21.9012C3.64747 21.6257 3.28793 21.5259 2.74448 21.7946C1.6936 22.3073 0.54514 21.7691 0.140551 20.6904C-0.256532 19.632 0.324445 18.5136 1.44363 18.1773C2.52904 17.8516 3.73605 18.4738 3.84565 19.6275C3.92821 20.4817 4.38686 20.7813 5.00087 21.1288C6.86093 22.1737 8.70072 23.2516 10.5555 24.3092C11.3692 24.7738 11.8541 24.4488 11.9307 23.5083C12.1086 21.3225 11.2468 19.8062 9.25391 18.8086C7.57325 17.9671 6.00144 16.914 4.3433 16.0253C2.3061 14.9331 1.31754 13.2757 1.40236 10.9901C1.42638 10.3415 1.3588 9.84684 0.720016 9.42048C-0.0876607 8.88228 -0.196512 7.79087 0.296651 6.98169C0.541184 6.57383 0.926243 6.26929 1.37946 6.12527C1.83267 5.98125 2.32285 6.00766 2.75797 6.19954C2.9822 6.30995 3.20068 6.43171 3.41253 6.56434L3.94321 7.51839C3.95672 8.00255 3.87491 8.45367 4.46865 8.77644C6.52688 9.90239 8.54458 11.0951 10.5825 12.2556C10.8122 12.387 11.0329 12.6309 11.3467 12.4185C12.2692 11.7985 13.1279 12.0559 13.9656 12.6069C14.1197 12.9162 14.2734 13.2257 14.4265 13.5354C14.4265 13.5977 14.4168 13.66 14.4153 13.7231C14.395 15.0645 13.7607 15.8639 12.6415 15.9577C11.5223 16.0515 10.7281 15.3024 10.563 13.931C10.5345 13.6953 10.503 13.5084 10.2883 13.3861C8.0807 12.1227 5.88361 10.8429 3.66099 9.60739C3.10102 9.29663 2.66942 9.63667 2.54256 10.1861C2.10945 12.0627 2.95989 13.9122 4.67357 14.9016C6.44055 15.9224 8.19104 16.9741 9.98955 17.9364C12.1168 19.0743 13.224 20.7647 13.0416 23.1863C12.983 23.9542 13.2218 24.4338 13.9521 24.6695L14.4213 25.5755Z" fill="#08C3FE"/>
<path d="M3.94332 7.51837L3.4126 6.56432C5.55339 5.31753 7.68669 4.05647 9.8425 2.8352C10.3229 2.56347 10.5931 2.30375 10.6067 1.69724C10.6262 0.702659 11.4886 -0.00818573 12.5012 7.11887e-05C13.5138 0.00832811 14.3433 0.71467 14.3695 1.72652C14.3846 2.28874 14.6203 2.55221 15.0759 2.80292C16.9945 3.87407 18.8988 4.97299 20.7942 6.08467C21.2626 6.3594 21.6672 6.44122 22.2024 6.22354C23.1924 5.8227 24.0279 6.09743 24.6134 6.8991C25.0998 7.56566 25.0638 8.49569 24.5293 9.1675C23.9446 9.90162 23.1451 10.1035 22.1746 9.71096C21.7955 9.56083 21.4592 9.50378 21.0989 9.71921C20.9098 9.83256 20.7049 9.91738 20.5165 10.0307C20.009 10.3362 19.5061 10.65 18.9206 11.011C19.5294 11.3713 20.0465 11.7294 20.602 11.9981C22.7991 13.0573 23.6098 14.9016 23.6045 17.1977C23.6045 17.7982 23.7029 18.2276 24.2621 18.6089C25.0292 19.1344 25.1628 20.2175 24.708 20.9681C24.1683 21.8531 23.1894 22.2525 22.2789 21.8344C21.7145 21.5754 21.3189 21.6497 20.8062 21.95C18.6947 23.187 16.5531 24.3715 14.4258 25.5755L13.956 24.6747C14.5655 24.2994 15.166 23.9039 15.7867 23.5443C17.1964 22.7276 18.6076 21.9117 20.0353 21.125C21.3864 20.3796 21.1613 18.5196 22.4756 17.7622C22.5349 16.1243 22.396 14.5518 20.8828 13.5069C20.2913 13.0993 19.63 12.7915 19.0467 12.3727C18.206 11.7722 17.4494 11.5958 16.5464 12.3239C15.9218 12.8276 15.1412 13.1406 14.4296 13.5384C14.276 13.2292 14.1223 12.9196 13.9687 12.6099C15.8753 11.2895 17.9816 10.304 19.9445 9.07743C20.3753 8.80795 20.9773 8.72388 21.0104 8.02655C21.0442 7.3157 20.4639 7.18885 20.0203 6.93063C18.2345 5.89026 16.4428 4.85964 14.6585 3.81702C14.2277 3.56481 13.8201 3.45822 13.3292 3.69617C12.7054 3.99642 12.0531 4.06172 11.4691 3.58432C11.1801 3.34863 10.9482 3.47924 10.7005 3.62261L3.94332 7.51837Z" fill="#B8BCC9"/>
</svg>
