<svg width="36" height="36" viewBox="0 0 36 36" fill="none" xmlns="http://www.w3.org/2000/svg">
<path d="M16.9645 32.3901C12.8406 32.3115 7.85211 29.338 5.5251 25.1688C3.0432 21.053 2.92762 15.5452 5.1953 11.3312C10.0689 1.96527 23.1387 0.882704 29.4725 9.27765C30.8383 10.9816 31.7567 13.0115 32.1417 15.1767C33.974 24.578 26.6693 32.8324 16.9645 32.3901ZM22.8906 15.1453C22.8908 14.4277 22.6541 13.731 22.2187 13.1672C21.3858 12.0893 20.2539 11.497 18.9008 11.2912V9.54004H17.4838C17.4838 9.98391 17.4661 10.4042 17.49 10.8166C17.5092 11.1458 17.4129 11.2621 17.0739 11.3493C16.4482 11.5064 15.8102 11.7122 15.2539 12.0335C14.3046 12.5835 13.6034 13.4146 13.3599 14.5176C12.9469 16.3834 14.2468 18.0992 16.0444 18.5289C16.5129 18.6412 16.9906 18.7096 17.4522 18.7952V22.4876C16.1423 22.3014 15.4396 21.5558 15.2947 20.2879H12.9631C12.9754 21.0161 13.1411 21.6847 13.5394 22.2377C14.5064 23.5819 15.8063 24.3871 17.4915 24.5018V26.3873H18.9085V24.5018C19.0719 24.4704 19.2082 24.4406 19.3462 24.4186C20.4041 24.2481 21.311 23.7508 22.0746 23.0108C23.0763 22.0437 23.3406 20.2832 22.7396 18.9736C22.1617 17.7166 21.0575 17.2162 19.8378 16.8933C19.5427 16.8147 19.236 16.7825 18.9347 16.7291V13.3266C19.8855 13.6055 20.4126 14.2199 20.5798 15.1453H22.8906Z" fill="#100531"/>
<path d="M18.9258 22.4294V19.0513C19.8042 18.9775 20.671 19.6381 20.7265 20.4175C20.8028 21.5055 20.0407 22.3689 18.9258 22.4294Z" fill="#100531"/>
<path d="M17.4675 13.2937V16.4691C16.5252 16.5917 15.7223 16.0685 15.6491 15.2907C15.5474 14.2019 16.2755 13.3801 17.4675 13.2937Z" fill="#100531"/>
<path d="M17.6525 36C17.3527 36 17.0522 35.9937 16.7502 35.9796C14.1874 35.9269 11.3379 35.0046 8.72427 33.3832C6.05899 31.7334 3.82753 29.4551 2.43671 26.9695C0.91722 24.4422 0.0757925 21.4703 0.00490333 18.3624C-0.0659858 15.2546 0.63289 12.252 2.0291 9.65482C3.47216 6.87969 5.60168 4.53737 8.20648 2.86014C10.697 1.27241 13.5239 0.3151 16.4512 0.0681148C22.6532 -0.465309 28.5779 2.1586 32.3026 7.08511C34.01 9.22356 35.1602 11.7668 35.6467 14.4792C36.1861 17.2602 36.1091 20.0138 35.4071 22.6636C34.7385 25.2001 33.5166 27.5499 31.8326 29.5376C28.3475 33.6738 23.2196 36 17.6525 36ZM18.03 2.19945C17.5677 2.19945 17.1018 2.21962 16.6323 2.25995C14.049 2.47779 11.5541 3.32164 9.35534 4.72124C7.0614 6.18746 5.18987 8.24767 3.93155 10.6918L3.92461 10.7052C2.70871 12.9654 2.09921 15.5948 2.16163 18.3098C2.22404 21.0248 2.95836 23.633 4.28445 25.8327L4.30295 25.8642C5.51423 28.0348 7.48294 30.0373 9.8454 31.5032C12.1431 32.9291 14.615 33.7375 16.8056 33.7815H16.8326C17.1059 33.794 17.3784 33.8003 17.6501 33.8003C22.5877 33.8003 27.1277 31.7515 30.1952 28.1047C31.6691 26.3663 32.7385 24.3108 33.3236 22.0917C33.9378 19.744 34.0082 17.2829 33.5293 14.9026V14.8916C33.1082 12.533 32.1083 10.3215 30.6229 8.46306L30.6036 8.43871C27.607 4.47063 22.9838 2.19945 18.03 2.19945Z" fill="#100531"/>
<path d="M0.383521 20.1977C0.287462 20.0793 0.192175 19.9594 0.0976562 19.8379C0.11769 20.0335 0.14157 20.2307 0.167768 20.4232C1.04978 21.4991 2.03391 22.4835 3.10582 23.3621C3.0357 23.172 2.96943 22.9819 2.90702 22.7886C1.99305 22.002 1.14864 21.135 0.383521 20.1977Z" fill="#00DDC2"/>
<path d="M31.5013 6.67815C31.7579 6.79521 32.0099 6.91383 32.2595 7.0301C32.1183 6.84365 31.9739 6.66035 31.8265 6.48018C31.7594 6.45033 31.6947 6.41969 31.6277 6.38905C28.7675 5.08102 26.3287 3.31735 24.3631 1.14201C24.1633 1.06659 23.9622 0.994843 23.7598 0.926758C25.8163 3.33463 28.4176 5.26721 31.5013 6.67815Z" fill="#00DDC2"/>
<path d="M1.31577 19.4042C0.847801 18.8278 0.410535 18.2263 0.00585938 17.6021C0.00585938 17.7875 0.00585938 17.9729 0.00585938 18.159C0.343353 18.655 0.700627 19.135 1.07768 19.5991C1.52038 20.1417 1.98945 20.6613 2.48313 21.1561C2.44614 20.9739 2.41224 20.7905 2.38142 20.6062C2.01003 20.2189 1.65403 19.819 1.31577 19.4042Z" fill="#00DDC2"/>
<path d="M2.38477 26.8801L2.43717 26.9697C2.53194 27.1378 2.63057 27.3059 2.73305 27.4725C3.59587 28.0058 4.49039 28.4838 5.41143 28.9038C6.27442 29.2982 7.09864 29.6926 7.88407 30.087C7.58305 29.8361 7.29256 29.5771 7.0126 29.31C6.53333 29.079 6.04172 28.8481 5.5378 28.6171C4.44568 28.1193 3.39171 27.5387 2.38477 26.8801Z" fill="#00DDC2"/>
<path d="M1.49661 25.1563C2.76273 26.1591 4.12777 27.0248 5.56967 27.7394C5.41556 27.5493 5.27069 27.356 5.13046 27.1612C3.74752 26.4286 2.44338 25.5508 1.23926 24.542C1.32093 24.7486 1.40415 24.9536 1.49661 25.1563Z" fill="#00DDC2"/>
<path d="M14.1062 33.3808C13.7733 33.2923 13.4394 33.1893 13.1045 33.072C14.5541 34.0336 15.7929 35.0025 16.8208 35.9788C16.9749 35.985 17.129 35.9897 17.2831 35.9929C16.295 35.0361 15.2326 34.1626 14.1062 33.3808Z" fill="#00DDC2"/>
<path d="M0.492188 22.1694C0.540731 22.3721 0.592357 22.574 0.646294 22.7736C1.71464 23.8372 2.88827 24.785 4.14837 25.6017C4.03587 25.4069 3.92646 25.2089 3.82243 25.0078C2.61965 24.1809 1.50368 23.2297 0.492188 22.1694Z" fill="#00DDC2"/>
<path d="M11.1829 3.71711C11.2761 3.67312 11.3693 3.62913 11.4634 3.58749C11.1654 2.92758 10.896 2.24673 10.6551 1.54492C10.5603 1.58656 10.4671 1.62977 10.373 1.67298C10.6145 2.3753 10.8844 3.05668 11.1829 3.71711Z" fill="#00DDC2"/>
<path d="M2.19582 19.0316C2.184 18.8588 2.17527 18.6854 2.16962 18.5116C1.4157 17.5744 0.742815 16.5724 0.158522 15.5168C0.135406 15.6897 0.115379 15.8625 0.0976562 16.0369C0.660594 17.0096 1.29856 17.9351 2.0055 18.8046C2.06791 18.8816 2.13264 18.9554 2.19582 19.0316Z" fill="#00DDC2"/>
<path d="M4.70146 9.36732C4.76773 9.26441 4.83554 9.16385 4.90411 9.06329C4.57559 8.32974 4.2847 7.57926 4.03263 6.8149C4.01568 6.76462 4.00027 6.71434 3.98409 6.66406C3.90704 6.76069 3.82998 6.85889 3.75293 6.95709C4.02514 7.77777 4.34181 8.58242 4.70146 9.36732Z" fill="#00DDC2"/>
<path d="M3.48399 11.5914C3.06314 10.7568 2.69335 9.89651 2.37673 9.01538C2.3097 9.13322 2.24344 9.25106 2.17871 9.37205C2.50928 10.258 2.89375 11.122 3.32988 11.959C3.37997 11.8341 3.43237 11.7131 3.48399 11.5914Z" fill="#00DDC2"/>
<path d="M2.21931 16.5383C1.57695 15.612 1.00755 14.6354 0.516431 13.6174C0.477904 13.7746 0.441181 13.9317 0.40625 14.0888C0.922071 15.1132 1.51673 16.0944 2.18464 17.023C2.19389 16.8633 2.20544 16.7017 2.21931 16.5383Z" fill="#00DDC2"/>
<path d="M2.91757 13.0698C2.4408 12.2028 2.02171 11.3042 1.66313 10.3799C1.60149 10.5087 1.54191 10.6397 1.48438 10.7727C1.8607 11.7044 2.29834 12.6091 2.79428 13.4807C2.8305 13.3416 2.87365 13.2057 2.91757 13.0698Z" fill="#00DDC2"/>
<path d="M2.48244 14.7179C1.93234 13.8178 1.44716 12.8781 1.03076 11.9062C0.979133 12.0492 0.930586 12.193 0.882812 12.3375C1.31946 13.3178 1.8255 14.2643 2.39691 15.1696C2.42234 15.018 2.45008 14.868 2.48244 14.7179Z" fill="#00DDC2"/>
<path d="M3.97896 10.6053C4.03906 10.4914 4.09917 10.379 4.16158 10.2675C3.78011 9.45807 3.44563 8.62651 3.15988 7.7771C3.08694 7.88185 3.01476 7.98895 2.94336 8.09841C3.24003 8.95402 3.58583 9.79108 3.97896 10.6053Z" fill="#00DDC2"/>
<path d="M30.8391 27.283C30.7759 27.3686 30.712 27.4542 30.6465 27.5391C30.7235 27.6396 30.8006 27.741 30.8776 27.8415C31.256 28.3555 31.5955 28.8981 31.8932 29.4646C31.9649 29.3782 32.0365 29.291 32.1066 29.2038C31.8154 28.6639 31.4871 28.1457 31.1242 27.653C31.0333 27.5296 30.9385 27.4063 30.8391 27.283Z" fill="#00DDC2"/>
<path d="M30.0545 28.2666C29.9859 28.3452 29.9158 28.4237 29.8457 28.5023L29.9443 28.6327C30.3578 29.1936 30.7246 29.7888 31.0408 30.4121C31.1179 30.3335 31.1949 30.255 31.2666 30.1764C30.9526 29.572 30.5919 28.994 30.1878 28.4481C30.1447 28.3868 30.1007 28.3263 30.0545 28.2666Z" fill="#00DDC2"/>
<path d="M29.2066 29.1714C29.1296 29.2444 29.0587 29.3183 28.9824 29.3898L29.0125 29.4291C29.4422 30.0124 29.821 30.6331 30.1444 31.2839C30.2214 31.2108 30.3031 31.1378 30.3817 31.0639C30.0578 30.425 29.6817 29.8151 29.2575 29.2405L29.2066 29.1714Z" fill="#00DDC2"/>
<path d="M28.3012 29.9995C28.2241 30.0663 28.1417 30.1315 28.0615 30.1967L28.0808 30.2226C28.5101 30.8045 28.8886 31.4235 29.2119 32.0727C29.2952 32.0067 29.3776 31.9407 29.46 31.8732C29.1341 31.2291 28.7554 30.6141 28.3281 30.0349L28.3012 29.9995Z" fill="#00DDC2"/>
<path d="M15.3506 35.8688C12.8217 33.6769 9.26804 31.544 4.60169 29.4103C4.33893 29.2901 4.08081 29.1644 3.82422 29.0364C3.97833 29.2312 4.13705 29.4239 4.3004 29.6146C4.35896 29.6413 4.41676 29.6704 4.47609 29.6931C8.87815 31.7098 12.2839 33.7209 14.7604 35.7753C14.9577 35.8114 15.1549 35.8421 15.3506 35.8688Z" fill="#00DDC2"/>
<path d="M32.1932 25.0776C32.1418 25.1771 32.0904 25.2761 32.0391 25.3746C32.2897 25.6663 32.523 25.9593 32.7387 26.2537C32.992 26.5993 33.2231 26.9495 33.4322 27.304C33.4931 27.2035 33.5524 27.1029 33.6117 27.0016C33.4181 26.6873 33.2085 26.3754 32.983 26.0659C32.7449 25.7344 32.479 25.4052 32.1932 25.0776Z" fill="#00DDC2"/>
<path d="M31.556 26.22C31.4989 26.3127 31.4412 26.4054 31.3818 26.4973C31.5303 26.6806 31.6723 26.8639 31.8079 27.0472C32.1321 27.4875 32.4278 27.9489 32.6933 28.4283C32.7603 28.334 32.8258 28.2398 32.8913 28.1455C32.637 27.7004 32.3576 27.2707 32.0545 26.8587C31.8981 26.6458 31.7309 26.4321 31.556 26.22Z" fill="#00DDC2"/>
<path d="M32.7417 23.8584C32.6994 23.9645 32.6562 24.0705 32.6123 24.1726C32.9889 24.5805 33.3431 25.0093 33.6733 25.4571C33.8274 25.6666 33.9726 25.8761 34.1087 26.0856C34.1626 25.9787 34.2166 25.8711 34.2682 25.7627C34.1565 25.5962 34.037 25.4304 33.9199 25.2654C33.5548 24.7731 33.1614 24.3033 32.7417 23.8584Z" fill="#00DDC2"/>
<path d="M22.8576 32.9973C22.7497 33.0319 22.6418 33.0664 22.5332 33.0987C22.8553 33.4611 23.1512 33.8253 23.4209 34.1914C23.6053 34.4428 23.7781 34.6963 23.9394 34.9519C24.0396 34.9165 24.139 34.882 24.2384 34.845C24.0612 34.5622 23.8708 34.2818 23.6674 34.0037C23.4209 33.6659 23.1496 33.3312 22.8576 32.9973Z" fill="#00DDC2"/>
<path d="M21.5373 33.3596C21.4194 33.3871 21.3015 33.4138 21.1836 33.4382C21.6529 33.9241 22.0904 34.4408 22.4935 34.985C22.5767 35.0982 22.6561 35.2121 22.7347 35.3268C22.8402 35.2977 22.945 35.2671 23.0491 35.2364C22.9497 35.0895 22.8472 34.9426 22.7408 34.7965C22.3682 34.2934 21.9663 33.8136 21.5373 33.3596Z" fill="#00DDC2"/>
<path d="M20.0583 35.8514C20.18 35.8365 20.301 35.82 20.422 35.8027C19.8258 35.0786 19.1759 34.4022 18.4779 33.7798C18.3284 33.7869 18.1774 33.7924 18.0264 33.7955C18.7549 34.4261 19.4343 35.1134 20.0583 35.8514Z" fill="#00DDC2"/>
<path d="M26.3158 31.4255C26.2264 31.479 26.137 31.5324 26.0469 31.5827C26.1047 31.6612 26.1625 31.7327 26.2172 31.8081C26.5952 32.3206 26.9342 32.8619 27.2312 33.4273C27.3206 33.3746 27.4084 33.3204 27.497 33.2701C27.1941 32.6945 26.849 32.143 26.4645 31.6204C26.416 31.5567 26.3697 31.4907 26.3158 31.4255Z" fill="#00DDC2"/>
<path d="M24.0848 32.5505C23.9839 32.5922 23.883 32.6291 23.7812 32.6723C23.9831 32.9135 24.1742 33.1554 24.3522 33.3982C24.6153 33.7562 24.8602 34.1277 25.0858 34.5114C25.1813 34.4713 25.2769 34.4328 25.3716 34.3865C25.1353 33.9801 24.8781 33.5868 24.6011 33.2081C24.4377 32.9889 24.2651 32.7697 24.0848 32.5505Z" fill="#00DDC2"/>
<path d="M27.3373 30.7507C27.2533 30.8112 27.1678 30.8701 27.083 30.9283C27.1046 30.9581 27.1277 30.9872 27.1493 31.0171C27.5608 31.5746 27.9258 32.1664 28.2404 32.7862C28.3267 32.7273 28.4129 32.6692 28.4977 32.6087C28.1787 31.9856 27.8102 31.3902 27.3958 30.8285L27.3373 30.7507Z" fill="#00DDC2"/>
<path d="M25.2336 32.0242C25.1395 32.0713 25.0448 32.1192 24.9492 32.1648C25.0648 32.3109 25.1804 32.4563 25.2852 32.6024C25.613 33.0485 25.912 33.5159 26.1805 34.0015C26.273 33.9552 26.3655 33.9088 26.4564 33.8601C26.1797 33.3581 25.8708 32.8752 25.5317 32.4146C25.4362 32.2858 25.336 32.1554 25.2336 32.0242Z" fill="#00DDC2"/>
<path d="M22.0694 2.72103C22.2567 2.76974 22.4424 2.82316 22.6273 2.87816C22.3473 2.57387 22.0771 2.26224 21.8167 1.94329C21.3565 1.37694 20.9257 0.786402 20.526 0.174111C20.392 0.155256 20.2579 0.137973 20.123 0.123047C20.5677 0.823398 21.0527 1.49627 21.5755 2.13812C21.7358 2.33295 21.8999 2.52621 22.0694 2.72103Z" fill="#00DDC2"/>
<path d="M6.33567 7.25734C6.41169 7.17407 6.48875 7.09158 6.56683 7.00988C6.32231 6.4301 6.09937 5.83593 5.898 5.22735C5.84663 5.07442 5.79784 4.92149 5.75161 4.76855C5.66839 4.84711 5.5844 4.92568 5.50195 5.00424C5.53509 5.10793 5.56744 5.21242 5.60212 5.31848C5.81941 5.981 6.06393 6.62729 6.33567 7.25734Z" fill="#00DDC2"/>
<path d="M5.48793 8.25403C5.55882 8.16186 5.631 8.07073 5.70446 7.98065C5.43015 7.34536 5.18229 6.69226 4.96089 6.02135C4.92236 5.90194 4.88383 5.78567 4.84761 5.66626C4.77056 5.75268 4.68581 5.83988 4.60645 5.92787C4.62571 5.98836 4.64496 6.04885 4.665 6.10934C4.909 6.84571 5.18331 7.56061 5.48793 8.25403Z" fill="#00DDC2"/>
<path d="M7.22478 6.36635C7.30183 6.2925 7.38581 6.21944 7.46826 6.14716C7.23504 5.58939 7.02161 5.01825 6.82795 4.43376C6.77632 4.27664 6.72623 4.11952 6.67846 3.9624C6.59293 4.03232 6.50663 4.10224 6.42188 4.17295C6.45809 4.28843 6.49354 4.40391 6.53207 4.52018C6.7396 5.1539 6.9705 5.76929 7.22478 6.36635Z" fill="#00DDC2"/>
<path d="M30.6965 7.18471C29.7799 6.76612 28.8897 6.28965 28.0312 5.75806C28.4134 6.0723 28.7812 6.40513 29.1347 6.75656C29.597 7.00716 30.0786 7.24677 30.5702 7.47146C31.6299 7.95591 32.6316 8.44037 33.5752 8.92482C33.4725 8.75199 33.3669 8.58125 33.2586 8.41261C32.4444 8.00357 31.5903 7.59427 30.6965 7.18471Z" fill="#00DDC2"/>
<path d="M8.15683 5.57348C8.24005 5.50749 8.32557 5.44307 8.4111 5.37944C8.17275 4.81328 7.95572 4.23351 7.76 3.64012C7.71608 3.50735 7.67447 3.37615 7.63363 3.24731C7.54528 3.30912 7.45744 3.37196 7.37012 3.43586C7.40094 3.53406 7.43099 3.63147 7.46335 3.73046C7.67139 4.35999 7.90255 4.97433 8.15683 5.57348Z" fill="#00DDC2"/>
<path d="M16.61 33.7752C16.4297 33.7684 16.2478 33.7561 16.0645 33.7383C16.9436 34.4193 17.77 35.1684 18.5363 35.9788C18.6704 35.9733 18.8052 35.9655 18.9385 35.9568C18.218 35.1702 17.4395 34.4409 16.61 33.7752Z" fill="#00DDC2"/>
<path d="M12.2683 3.2569C12.3646 3.21998 12.4617 3.18463 12.5596 3.15006C12.2483 2.49434 11.9658 1.81794 11.712 1.12085C11.6157 1.1562 11.5194 1.19312 11.4238 1.23083C11.6786 1.92531 11.9601 2.60066 12.2683 3.2569Z" fill="#00DDC2"/>
<path d="M33.7496 19.7883C33.7357 19.9117 33.7203 20.035 33.7041 20.1576C34.3655 20.7213 34.9895 21.3291 35.5719 21.977C35.5996 21.8521 35.6274 21.7272 35.6489 21.6023C35.0544 20.957 34.4199 20.3511 33.7496 19.7883Z" fill="#00DDC2"/>
<path d="M12.583 35.2127C10.76 33.8898 8.54853 32.5833 5.92871 31.2808C6.2698 31.5898 6.62374 31.8873 6.99051 32.1732C8.50524 32.9561 9.97754 33.8215 11.401 34.7657C11.794 34.9312 12.188 35.0802 12.583 35.2127Z" fill="#00DDC2"/>
<path d="M20.0922 33.6292C19.9612 33.6472 19.831 33.6637 19.6992 33.6794C20.3305 34.2812 20.914 34.9329 21.4445 35.6285C21.557 35.6065 21.6695 35.5837 21.7812 35.5594C21.2685 34.872 20.7038 34.2266 20.0922 33.6292Z" fill="#00DDC2"/>
<path d="M35.1876 23.4192C35.2256 23.2998 35.2621 23.1796 35.297 23.0586C34.7515 22.4001 34.1611 21.7816 33.5302 21.2078C33.5055 21.3256 33.4793 21.4434 33.4531 21.5605C34.0753 22.1358 34.655 22.757 35.1876 23.4192Z" fill="#00DDC2"/>
<path d="M33.1892 22.5662C33.1553 22.6785 33.1214 22.7901 33.0859 22.9016C33.6336 23.4511 34.141 24.0408 34.6039 24.6661C34.6355 24.7093 34.6655 24.7517 34.6956 24.7949C34.7418 24.6807 34.787 24.5666 34.8312 24.4524C34.3322 23.7816 33.7832 23.151 33.1892 22.5662Z" fill="#00DDC2"/>
<path d="M30.5146 8.32715C30.5432 8.36486 30.5724 8.401 30.6009 8.43871L30.6202 8.46306C30.7281 8.5974 30.8321 8.73488 30.9346 8.87236C32.2121 9.48408 33.3985 10.0966 34.4937 10.7099C34.4228 10.5491 34.3496 10.3894 34.2741 10.2307C33.1167 9.59537 31.8636 8.96087 30.5146 8.32715Z" fill="#00DDC2"/>
<path d="M30.0951 4.6599C29.0963 3.74646 27.999 2.95157 26.8242 2.29053C27.842 3.17949 28.9368 3.97253 30.0951 4.6599Z" fill="#00DDC2"/>
<path d="M9.12764 4.87289C9.2047 4.82261 9.28175 4.77076 9.3588 4.72127L9.39424 4.70005C9.1374 4.09724 8.90444 3.47923 8.69537 2.84603C8.66918 2.76747 8.64298 2.68891 8.61832 2.61035C8.5274 2.66534 8.43801 2.72191 8.34863 2.77769C8.36558 2.83111 8.38177 2.88453 8.39949 2.93873C8.61575 3.59916 8.85847 4.24388 9.12764 4.87289Z" fill="#00DDC2"/>
<path d="M17.5082 2.20887C17.0778 1.52231 16.6863 0.811225 16.3355 0.0791016C16.2261 0.0893144 16.1174 0.100314 16.0088 0.112098C16.3521 0.83701 16.7341 1.54223 17.153 2.22458C17.2771 2.2183 17.3919 2.2128 17.5082 2.20887Z" fill="#00DDC2"/>
<path d="M18.9779 2.22765C18.485 1.51533 18.0354 0.772849 17.6317 0.00439453C17.5177 0.00439453 17.4006 0.0106781 17.2881 0.0153917C17.6781 0.772623 18.1119 1.50557 18.5872 2.21037C18.7197 2.21508 18.8492 2.22058 18.9779 2.22765Z" fill="#00DDC2"/>
<path d="M20.63 2.41311C20.0372 1.65666 19.4965 0.859191 19.0119 0.0264552C18.8894 0.0201704 18.7668 0.0146702 18.6436 0.0107422C19.1066 0.822815 19.6214 1.60303 20.1846 2.34634C20.3346 2.36676 20.4831 2.38902 20.63 2.41311Z" fill="#00DDC2"/>
<path d="M16.1607 2.30777C15.7757 1.63625 15.4256 0.944479 15.112 0.235352C15.0072 0.251849 14.9017 0.267563 14.7969 0.286418C15.1058 0.992195 15.4502 1.68129 15.8286 2.35098C15.9396 2.33605 16.0498 2.32034 16.1607 2.30777Z" fill="#00DDC2"/>
<path d="M13.7032 2.78716C13.3759 2.13197 13.078 1.45609 12.8093 0.759521C12.71 0.788589 12.6113 0.819227 12.5127 0.849865C12.7793 1.54486 13.0754 2.2197 13.4011 2.87436C13.5021 2.84451 13.6022 2.81466 13.7032 2.78716Z" fill="#00DDC2"/>
<path d="M24.7393 3.68263C25.1846 3.89212 25.6195 4.12126 26.0438 4.37003C24.8315 3.42465 23.7261 2.3446 22.7482 1.14985C22.5741 0.936948 22.4053 0.718551 22.2397 0.497797C22.0856 0.460874 21.9315 0.426306 21.7773 0.393311C22.0085 0.717764 22.2543 1.03593 22.5063 1.34468C23.1903 2.18155 23.9369 2.9632 24.7393 3.68263Z" fill="#00DDC2"/>
<path d="M14.899 2.50595C14.5449 1.84212 14.2242 1.16039 13.9381 0.463379C13.8364 0.486947 13.7347 0.50973 13.6299 0.534869C13.916 1.23458 14.2327 1.91308 14.5799 2.57036C14.6878 2.54758 14.7934 2.52637 14.899 2.50595Z" fill="#00DDC2"/>
<path d="M33.5879 15.2231C33.6118 15.363 33.6349 15.5028 33.6557 15.6427C34.5048 16.2072 35.2805 16.775 35.9827 17.3458C35.9776 17.207 35.9706 17.068 35.9619 16.9287C35.2422 16.3568 34.4509 15.7883 33.5879 15.2231Z" fill="#00DDC2"/>
<path d="M33.2383 13.6243C33.2768 13.7672 33.3153 13.9118 33.3492 14.0563C34.2538 14.612 35.0863 15.169 35.8465 15.7273C35.828 15.5843 35.808 15.4414 35.7864 15.2984C35.0051 14.7375 34.1557 14.1794 33.2383 13.6243Z" fill="#00DDC2"/>
<path d="M31.8184 10.2158C31.9131 10.3784 32.0048 10.5434 32.0919 10.71C33.1855 11.2803 34.2009 11.8517 35.1378 12.4242C35.0901 12.271 35.0407 12.1193 34.9883 11.9685C34.0123 11.3824 32.9557 10.7982 31.8184 10.2158Z" fill="#00DDC2"/>
<path d="M32.6758 11.9653C32.7374 12.1162 32.7962 12.2683 32.8522 12.4218C33.8282 12.9754 34.7336 13.5305 35.5684 14.0872C35.5383 13.9403 35.5052 13.7942 35.4713 13.6489C34.6124 13.0859 33.6806 12.5247 32.6758 11.9653Z" fill="#00DDC2"/>
<path d="M33.7891 16.7913C33.7998 16.9256 33.8099 17.0607 33.8168 17.1951C34.5672 17.7346 35.2889 18.3144 35.9789 18.932C35.9851 18.7977 35.9905 18.6634 35.9936 18.529C35.2887 17.9113 34.5529 17.3313 33.7891 16.7913Z" fill="#00DDC2"/>
<path d="M35.888 20.0892C35.2391 19.4577 34.555 18.8649 33.8391 18.3137C33.8391 18.4433 33.8337 18.5722 33.8291 18.701C34.5332 19.2513 35.2045 19.8439 35.8394 20.4757C35.8564 20.3484 35.8733 20.2188 35.888 20.0892Z" fill="#00DDC2"/>
<path d="M10.1361 4.25292C10.2263 4.20264 10.318 4.15394 10.4089 4.10444C10.1187 3.43982 9.85719 2.75583 9.62449 2.05245C9.62449 2.04852 9.62449 2.04538 9.62449 2.04224C9.53203 2.09016 9.44033 2.14044 9.34863 2.18993C9.58031 2.89697 9.8428 3.58464 10.1361 4.25292Z" fill="#00DDC2"/>
</svg>
