<svg width="28" height="28" viewBox="0 0 28 28" fill="none" xmlns="http://www.w3.org/2000/svg">
<path d="M14 28C21.732 28 28 21.732 28 14C28 6.26801 21.732 0 14 0C6.26801 0 0 6.26801 0 14C0 21.732 6.26801 28 14 28Z" fill="#FF007A"/>
<path d="M13.1928 9.08365C13.0002 9.05614 12.991 9.04698 13.0827 9.03781C13.257 9.0103 13.6604 9.04698 13.9447 9.11116C14.6049 9.26705 15.2009 9.67051 15.8336 10.3766L15.9987 10.5691L16.2371 10.5325C17.2549 10.3674 18.3003 10.4958 19.1714 10.8993C19.4098 11.0093 19.7858 11.2294 19.8316 11.2844C19.85 11.3027 19.8775 11.4219 19.8958 11.5411C19.96 11.9721 19.9325 12.293 19.7949 12.5406C19.7216 12.6782 19.7216 12.7148 19.7674 12.8341C19.8041 12.9257 19.9141 12.9899 20.015 12.9899C20.2351 12.9899 20.4643 12.6415 20.5744 12.1555L20.6202 11.9629L20.7027 12.0546C21.1704 12.5773 21.5372 13.3017 21.5922 13.8152L21.6105 13.9528L21.528 13.8335C21.3905 13.6226 21.2621 13.4851 21.0879 13.3659C20.7761 13.155 20.446 13.0908 19.5749 13.045C18.7863 12.9991 18.337 12.9349 17.8968 12.7882C17.1449 12.5406 16.7598 12.2197 15.8703 11.0368C15.476 10.5141 15.2284 10.2299 14.9809 9.99145C14.4398 9.46878 13.8988 9.19369 13.1928 9.08365Z" fill="#050505"/>
<path d="M20.0241 10.2483C20.0424 9.89986 20.0883 9.67062 20.1891 9.45972C20.2258 9.37719 20.2625 9.30383 20.2717 9.30383C20.2808 9.30383 20.2625 9.36802 20.235 9.44138C20.1616 9.64311 20.1525 9.92737 20.1983 10.2483C20.2625 10.6609 20.29 10.716 20.7301 11.1653C20.9319 11.3762 21.1703 11.6421 21.262 11.7521L21.4179 11.9539L21.262 11.8072C21.0694 11.6238 20.6293 11.2753 20.5284 11.2295C20.4642 11.1928 20.4551 11.1928 20.4092 11.2386C20.3725 11.2753 20.3634 11.3303 20.3634 11.5963C20.3542 12.0089 20.2992 12.2656 20.1616 12.5316C20.0883 12.6691 20.0791 12.6416 20.1433 12.4857C20.1891 12.3665 20.1983 12.3115 20.1983 11.9172C20.1983 11.1194 20.1066 10.9269 19.5473 10.6059C19.4097 10.5234 19.1713 10.4042 19.0338 10.34C18.887 10.2758 18.777 10.2208 18.7862 10.2208C18.8045 10.2025 19.3455 10.3583 19.5564 10.45C19.8774 10.5784 19.9324 10.5876 19.9691 10.5784C19.9966 10.5509 20.0149 10.4776 20.0241 10.2483Z" fill="#050505"/>
<path d="M13.5687 11.6146C13.1836 11.0828 12.936 10.2575 12.991 9.64313L13.0094 9.45056L13.1011 9.4689C13.2661 9.49641 13.5504 9.60645 13.6879 9.68897C14.0547 9.90905 14.2198 10.2116 14.3757 10.9636C14.4215 11.1836 14.4857 11.4404 14.5132 11.5229C14.559 11.6605 14.7333 11.9814 14.88 12.1831C14.9809 12.3298 14.9167 12.4032 14.6874 12.3849C14.339 12.3482 13.8713 12.0272 13.5687 11.6146Z" fill="#050505"/>
<path d="M19.5561 15.6032C17.7405 14.8696 17.0986 14.2369 17.0986 13.1641C17.0986 13.0082 17.1078 12.8798 17.1078 12.8798C17.117 12.8798 17.1812 12.9348 17.2637 12.999C17.6305 13.2925 18.0431 13.4208 19.1893 13.5859C19.8587 13.6868 20.2438 13.7601 20.5923 13.8793C21.7018 14.2461 22.3895 14.998 22.5546 16.0159C22.6004 16.3093 22.5729 16.8686 22.4996 17.1621C22.4354 17.3913 22.252 17.8131 22.2061 17.8223C22.197 17.8223 22.1786 17.7764 22.1786 17.7031C22.1603 17.3179 21.9677 16.9512 21.6468 16.6669C21.2617 16.3368 20.7665 16.0892 19.5561 15.6032Z" fill="#050505"/>
<path d="M18.2715 15.9058C18.2532 15.7682 18.2073 15.594 18.1798 15.5207L18.1339 15.3831L18.2165 15.484C18.3357 15.6215 18.4274 15.7866 18.5099 16.0158C18.5741 16.19 18.5741 16.2451 18.5741 16.5293C18.5741 16.8044 18.5649 16.8686 18.5099 17.0245C18.4182 17.2721 18.3082 17.4463 18.1248 17.6389C17.7947 17.9781 17.3637 18.1615 16.7493 18.2441C16.6393 18.2532 16.3275 18.2807 16.0524 18.2991C15.3647 18.3358 14.9062 18.4091 14.4936 18.5558C14.4386 18.5742 14.3835 18.5925 14.3744 18.5833C14.356 18.565 14.6403 18.3999 14.8695 18.2899C15.1905 18.134 15.5206 18.0515 16.245 17.9231C16.6026 17.8681 16.9694 17.7947 17.0611 17.7581C17.9689 17.4738 18.4182 16.7677 18.2715 15.9058Z" fill="#050505"/>
<path d="M19.1075 17.3822C18.869 16.8596 18.814 16.3644 18.9424 15.8968C18.9607 15.8509 18.9791 15.8051 18.9974 15.8051C19.0158 15.8051 19.0708 15.8326 19.1258 15.8692C19.2358 15.9426 19.4651 16.071 20.0519 16.3919C20.7947 16.7954 21.2165 17.1071 21.5099 17.4648C21.7667 17.7765 21.9225 18.1342 21.9959 18.5743C22.0417 18.8219 22.0142 19.4179 21.9501 19.6655C21.7483 20.4449 21.2898 21.0684 20.6204 21.4261C20.5196 21.4811 20.4371 21.5178 20.4279 21.5178C20.4187 21.5178 20.4554 21.4261 20.5104 21.316C20.7305 20.8484 20.758 20.3991 20.5929 19.8947C20.4921 19.583 20.2812 19.207 19.8594 18.5743C19.355 17.8407 19.2358 17.6482 19.1075 17.3822Z" fill="#050505"/>
<path d="M12.2746 20.1881C12.9532 19.6196 13.7876 19.2162 14.5578 19.0878C14.888 19.0328 15.4381 19.0511 15.7407 19.1336C16.2267 19.262 16.6669 19.5371 16.8961 19.8764C17.1162 20.2065 17.2171 20.4907 17.3179 21.1235C17.3546 21.371 17.4004 21.6278 17.4096 21.6828C17.483 22.0129 17.6297 22.2697 17.8131 22.4072C18.0973 22.6181 18.5925 22.6273 19.0785 22.4439C19.161 22.4164 19.2344 22.3889 19.2344 22.398C19.2527 22.4164 19.0051 22.5814 18.8401 22.664C18.6108 22.7832 18.4274 22.8198 18.1799 22.8198C17.7397 22.8198 17.3638 22.5906 17.0612 22.1321C16.997 22.0404 16.8686 21.7745 16.7586 21.5269C16.4376 20.7842 16.2726 20.5641 15.8966 20.3165C15.5665 20.1056 15.1447 20.0598 14.8238 20.2157C14.402 20.4174 14.2919 20.9584 14.5854 21.2885C14.7046 21.4261 14.9246 21.5361 15.108 21.5636C15.4473 21.6094 15.7407 21.3435 15.7407 21.0042C15.7407 20.7842 15.6582 20.6558 15.4381 20.5549C15.1447 20.4266 14.8238 20.5733 14.8329 20.8575C14.8329 20.9767 14.888 21.0501 15.0072 21.1051C15.0805 21.1418 15.0805 21.1418 15.0255 21.1326C14.7596 21.0776 14.6954 20.7475 14.9063 20.5366C15.163 20.2798 15.7041 20.3899 15.8874 20.7475C15.9608 20.8942 15.97 21.1876 15.9058 21.371C15.7499 21.7745 15.3098 21.9854 14.8604 21.8662C14.5578 21.7837 14.4295 21.7011 14.0627 21.3252C13.4208 20.665 13.1732 20.5366 12.2563 20.399L12.082 20.3715L12.2746 20.1881Z" fill="#050505"/>
<path fill-rule="evenodd" clip-rule="evenodd" d="M7.45231 5.43409C9.58885 8.02911 12.8808 12.0638 13.0458 12.2838C13.1834 12.4672 13.1283 12.6415 12.8991 12.7698C12.7707 12.8432 12.5048 12.9165 12.3764 12.9165C12.2297 12.9165 12.0555 12.8432 11.9363 12.724C11.8538 12.6415 11.4961 12.1188 10.6892 10.8625C10.0748 9.89972 9.55217 9.10196 9.543 9.09279C9.50632 9.07445 9.50632 9.07445 10.625 11.0734C11.3311 12.3297 11.5603 12.779 11.5603 12.834C11.5603 12.9532 11.5237 13.0174 11.3769 13.1825C11.1294 13.4576 11.0193 13.7693 10.9368 14.4204C10.8451 15.1448 10.5975 15.6583 9.89145 16.5294C9.47881 17.0429 9.41463 17.1346 9.31376 17.3455C9.18538 17.6023 9.1487 17.749 9.13037 18.0791C9.11203 18.4275 9.1487 18.6476 9.24957 18.9777C9.34127 19.2711 9.44213 19.4637 9.68972 19.8397C9.90062 20.1698 10.029 20.4173 10.029 20.509C10.029 20.5824 10.0473 20.5824 10.3774 20.509C11.166 20.3257 11.8171 20.0139 12.1747 19.6288C12.3948 19.3903 12.4498 19.262 12.4498 18.9319C12.4498 18.721 12.4406 18.6751 12.3856 18.5467C12.2939 18.345 12.1197 18.1799 11.7437 17.9232C11.2486 17.5839 11.0377 17.3088 10.9826 16.942C10.9368 16.6303 10.9918 16.4194 11.2669 15.8417C11.5512 15.2456 11.6245 14.9981 11.6704 14.3929C11.6979 14.0077 11.7437 13.8519 11.8538 13.7327C11.973 13.6043 12.0738 13.5584 12.3581 13.5217C12.8257 13.4576 13.1283 13.3384 13.3668 13.1091C13.5777 12.9165 13.6694 12.724 13.6785 12.4397L13.6877 12.2288L13.5685 12.1004C13.1375 11.6053 7.16805 5.03979 7.14054 5.03979C7.13137 5.03979 7.27809 5.21402 7.45231 5.43409ZM10.2674 18.4734C10.3683 18.2992 10.3133 18.0791 10.1482 17.969C9.99232 17.8682 9.7539 17.914 9.7539 18.0516C9.7539 18.0882 9.77224 18.1249 9.82726 18.1433C9.90979 18.1891 9.91896 18.235 9.85477 18.3358C9.79058 18.4367 9.79058 18.5284 9.87311 18.5926C10.0015 18.6934 10.1757 18.6384 10.2674 18.4734Z" fill="#050505"/>
<path fill-rule="evenodd" clip-rule="evenodd" d="M13.9811 13.65C13.7611 13.7142 13.5502 13.9526 13.486 14.191C13.4493 14.3377 13.4676 14.6036 13.5318 14.6862C13.6327 14.8145 13.7244 14.8512 13.9811 14.8512C14.4855 14.8512 14.9164 14.6311 14.9623 14.3652C15.0081 14.1451 14.8156 13.8425 14.5497 13.705C14.4121 13.6316 14.1279 13.6041 13.9811 13.65ZM14.568 14.1085C14.6414 13.9984 14.6138 13.8792 14.4763 13.7967C14.2287 13.6408 13.8528 13.7692 13.8528 14.0076C13.8528 14.1268 14.0453 14.2552 14.2287 14.2552C14.3479 14.2552 14.513 14.1818 14.568 14.1085Z" fill="#050505"/>
</svg>
