<svg width="26" height="26" viewBox="0 0 26 26" fill="none" xmlns="http://www.w3.org/2000/svg">
<path fill-rule="evenodd" clip-rule="evenodd" d="M2.9163 8.80827C0.827405 14.4137 3.70854 20.747 9.32663 22.7852C9.54271 22.9309 9.75879 23.222 9.75879 23.4404V24.4597C9.75879 24.6052 9.75879 24.678 9.68671 24.7507C9.61479 25.042 9.32663 25.1875 9.03846 25.042C5.00502 23.7316 1.90781 20.6013 0.611324 16.5248C-1.54948 9.60915 2.19597 2.25658 9.03846 0.0726796C9.11055 0 9.25455 0 9.32663 0C9.61479 0.0726801 9.75879 0.29107 9.75879 0.582314V1.60141C9.75879 1.96551 9.61479 2.1839 9.32663 2.32943C6.37359 3.42138 3.9967 5.75081 2.9163 8.80827ZM16.3133 0.363924C16.3852 0.0726799 16.6734 -0.0728553 16.9615 0.0726796C20.9229 1.38302 24.0922 4.51333 25.3887 8.66273C27.5495 15.5784 23.804 22.9309 16.9615 25.1148C16.8894 25.1875 16.7455 25.1875 16.6734 25.1875C16.3852 25.1148 16.2412 24.8964 16.2412 24.6052V23.5861C16.2412 23.222 16.3852 23.0036 16.6734 22.8581C19.6264 21.7661 22.0033 19.4367 23.0837 16.3792C25.1726 10.7738 22.2915 4.44047 16.6734 2.40229C16.4573 2.25658 16.2412 1.96551 16.2412 1.67426V0.655169C16.2412 0.50946 16.2412 0.436779 16.3133 0.363924ZM13.2163 11.3563C16.2415 11.7202 17.754 12.5937 17.754 15.1416C17.754 17.1071 16.3136 18.6358 14.1528 18.9999V20.747C14.0807 21.1109 13.8646 21.3293 13.5764 21.3293H12.496C12.1359 21.2565 11.9199 21.0381 11.9199 20.747V18.9999C9.54298 18.6358 8.39049 17.3255 8.1025 15.5057V15.4328C8.1025 15.1416 8.31858 14.9232 8.60657 14.9232H9.83114C10.0472 14.9232 10.2633 15.0689 10.3352 15.36C10.5513 16.4519 11.1995 17.2528 13.0724 17.2528C14.4407 17.2528 15.4492 16.4521 15.4492 15.2873C15.4492 14.1225 14.801 13.6857 12.7842 13.3218C9.75906 12.9577 8.31858 12.0114 8.31858 9.60914C8.31858 7.78916 9.68698 6.33329 11.8478 6.04205V4.36778C11.9199 4.00368 12.1359 3.78529 12.4241 3.78529H13.5045C13.8646 3.85815 14.0807 4.07654 14.0807 4.36778V6.1149C15.7372 6.26044 17.0337 7.49792 17.3219 9.0995V9.17236C17.3219 9.46343 17.1058 9.68182 16.8176 9.68182H15.6653C15.4492 9.68182 15.2332 9.53628 15.1611 9.31789C14.801 8.22594 14.0807 7.78916 12.7842 7.78916C11.3437 7.78916 10.6234 8.44416 10.6234 9.46343C10.6234 10.4827 11.0555 11.065 13.2163 11.3563Z" fill="#6200EE"/>
</svg>
