<svg width="36" height="36" viewBox="0 0 36 36" fill="none" xmlns="http://www.w3.org/2000/svg">
<circle cx="18" cy="18" r="17.25" stroke="#6200EE" stroke-width="1.5"/>
<path fill-rule="evenodd" clip-rule="evenodd" d="M9.42671 14.3439C7.65073 19.0174 10.1003 24.2978 14.8768 25.9971C15.0605 26.1186 15.2442 26.3613 15.2442 26.5433V27.3932C15.2442 27.5145 15.2442 27.5752 15.1829 27.6358C15.1218 27.8787 14.8768 28 14.6318 27.8787C11.2025 26.7862 8.56929 24.1763 7.46701 20.7775C5.62989 15.0116 8.81429 8.88141 14.6318 7.0606C14.6931 7 14.8155 7 14.8768 7C15.1218 7.0606 15.2442 7.24268 15.2442 7.4855V8.33517C15.2442 8.63874 15.1218 8.82082 14.8768 8.94216C12.3661 9.85257 10.3453 11.7947 9.42671 14.3439ZM20.8169 7.30342C20.878 7.0606 21.123 6.93926 21.368 7.0606C24.736 8.15309 27.4305 10.763 28.5328 14.2225C30.3699 19.9884 27.1855 26.1186 21.368 27.9394C21.3067 28 21.1843 28 21.123 28C20.878 27.9394 20.7556 27.7573 20.7556 27.5145V26.6648C20.7556 26.3613 20.878 26.1792 21.123 26.0578C23.6337 25.1474 25.6545 23.2053 26.5731 20.6561C28.3491 15.9826 25.8995 10.7022 21.123 9.0029C20.9393 8.88141 20.7556 8.63874 20.7556 8.39591V7.54625C20.7556 7.42476 20.7556 7.36416 20.8169 7.30342ZM18.1803 16.4682C20.7025 16.7717 21.9636 17.5 21.9636 19.6242C21.9636 21.263 20.7626 22.5375 18.9611 22.8411V24.2978C18.901 24.6012 18.7208 24.7833 18.4805 24.7833H17.5798C17.2796 24.7225 17.0994 24.5404 17.0994 24.2978V22.8411C15.1177 22.5375 14.1568 21.445 13.9167 19.9278V19.8671C13.9167 19.6242 14.0968 19.4421 14.337 19.4421H15.3579C15.5381 19.4421 15.7182 19.5636 15.7782 19.8063C15.9584 20.7167 16.4988 21.3845 18.0603 21.3845C19.2012 21.3845 20.042 20.7169 20.042 19.7457C20.042 18.7746 19.5015 18.4104 17.82 18.107C15.2978 17.8034 14.0968 17.0145 14.0968 15.0116C14.0968 13.4942 15.2377 12.2804 17.0393 12.0375V10.6416C17.0994 10.3381 17.2796 10.156 17.5198 10.156H18.4206C18.7208 10.2167 18.901 10.3988 18.901 10.6416V12.0983C20.2821 12.2196 21.3631 13.2514 21.6033 14.5867V14.6474C21.6033 14.8901 21.4232 15.0722 21.1829 15.0722H20.2222C20.042 15.0722 19.8618 14.9508 19.8017 14.7688C19.5015 13.8584 18.901 13.4942 17.82 13.4942C16.619 13.4942 16.0185 14.0403 16.0185 14.8901C16.0185 15.7399 16.3788 16.2254 18.1803 16.4682Z" fill="#6200EE"/>
</svg>
