<svg width="36" height="36" viewBox="0 0 36 36" fill="none" xmlns="http://www.w3.org/2000/svg">
<circle cx="18" cy="18" r="17.25" stroke="#6200EE" stroke-width="1.5"/>
<path d="M10.7771 26.4572L14.3539 24.5411V12.6609L10.7771 13.7468V26.4572Z" fill="#6200EE" stroke="#6200EE" stroke-linejoin="round"/>
<path d="M21.6339 15.9811L21.6339 19.9411L18.0902 22.2085L18.186 18.1527L21.6339 15.9811Z" fill="#6200EE" stroke="#6200EE" stroke-linejoin="round"/>
<path d="M21.635 12.0218L25.0645 10.0418L28.8 11.977L25.2396 13.9219L21.635 12.0218Z" fill="white" stroke="#6200EE" stroke-linejoin="round"/>
<path fill-rule="evenodd" clip-rule="evenodd" d="M7.2002 11.8297L7.2002 11.7984L18.2078 18.1537L18.0788 22.2094L10.777 17.9439V26.4563L7.20017 24.5402V11.8297L7.2002 11.8297Z" fill="white"/>
<path d="M7.20023 11.7985L7.45023 11.3654C7.29553 11.2761 7.10493 11.2761 6.95023 11.3654C6.79553 11.4548 6.70023 11.6198 6.70023 11.7985L7.20023 11.7985ZM7.20023 11.8298L6.95215 12.2639C7.1069 12.3523 7.29703 12.3517 7.45119 12.2622C7.60535 12.1728 7.70023 12.008 7.70023 11.8298L7.20023 11.8298ZM18.2078 18.1537L18.7076 18.1696C18.7134 17.9854 18.6174 17.8128 18.4578 17.7207L18.2078 18.1537ZM18.0788 22.2094L17.8266 22.6411C17.9788 22.73 18.1666 22.7322 18.3208 22.6469C18.475 22.5616 18.573 22.4014 18.5786 22.2253L18.0788 22.2094ZM10.777 17.9439L11.0292 17.5122C10.8746 17.4218 10.6834 17.4211 10.5281 17.5102C10.3728 17.5994 10.277 17.7648 10.277 17.9439H10.777ZM10.777 26.4563L10.5409 26.8971C10.6959 26.9801 10.883 26.9756 11.0339 26.8853C11.1847 26.795 11.277 26.6321 11.277 26.4563H10.777ZM7.2002 24.5402H6.7002C6.7002 24.7245 6.80161 24.8939 6.96408 24.9809L7.2002 24.5402ZM7.2002 11.8297L7.44827 11.3956C7.29352 11.3072 7.10339 11.3078 6.94923 11.3973C6.79508 11.4867 6.7002 11.6515 6.7002 11.8297H7.2002ZM6.70023 11.7985V11.8298L7.70023 11.8298V11.7985L6.70023 11.7985ZM18.4578 17.7207L7.45023 11.3654L6.95023 12.2315L17.9578 18.5867L18.4578 17.7207ZM18.5786 22.2253L18.7076 18.1696L17.7081 18.1378L17.5791 22.1935L18.5786 22.2253ZM10.5248 18.3756L17.8266 22.6411L18.331 21.7776L11.0292 17.5122L10.5248 18.3756ZM10.277 17.9439V26.4563H11.277V17.9439H10.277ZM11.0131 26.0156L7.43631 24.0995L6.96408 24.9809L10.5409 26.8971L11.0131 26.0156ZM7.7002 24.5402V11.8297H6.7002V24.5402H7.7002ZM6.95212 12.2639L6.95215 12.2639L7.4483 11.3956L7.44827 11.3956L6.95212 12.2639Z" fill="#6200EE"/>
<path d="M7.2002 11.8302L10.777 9.91406L21.731 15.9499L18.2181 18.1535L7.2002 11.8302Z" fill="white" stroke="#6200EE" stroke-linejoin="round"/>
<path d="M25.2119 26.585L28.7887 24.7327V12.0223L25.2119 13.9384V26.585Z" fill="#6200EE" stroke="#6200EE" stroke-linejoin="round"/>
<path d="M25.2119 26.585L21.6351 24.7327V12.0223L25.2119 13.9384V26.585Z" fill="white" stroke="#6200EE" stroke-linejoin="round"/>
</svg>
