<svg width="21" height="29" viewBox="0 0 21 29" fill="none" xmlns="http://www.w3.org/2000/svg">
<path d="M12.9313 15.5893C12.8227 15.5408 12.7053 15.5104 12.5637 15.4651V17.5864C12.678 17.6522 12.7773 17.7069 12.8742 17.7653C15.6022 19.3985 16.0935 23.2139 13.8566 25.4743C12.6575 26.6865 11.1919 27.1175 9.51584 26.8759C6.61267 26.458 4.82917 23.9249 5.23468 21.2907C5.303 20.8177 5.44464 20.3582 5.65449 19.9288L6.51021 22.7233L8.23906 22.1756C7.7255 20.2027 7.21878 18.2521 6.70646 16.2823L0.759766 18.4956C1.00816 19.0861 1.24415 19.645 1.48386 20.2151L3.58904 19.5034L3.63437 19.5525C3.63144 19.5834 3.62563 19.614 3.61699 19.6438C3.05002 21.1156 3.0848 22.6103 3.54558 24.0858C4.77268 28.0124 8.99109 29.6605 12.3855 28.6191C15.5526 27.6478 17.6019 24.4826 17.1672 21.2C16.8188 18.5396 15.3799 16.6748 12.9313 15.5893Z" fill="#006CEA"/>
<path d="M6.61933 13.5947C7.11309 13.9414 7.65781 14.2092 8.23393 14.3883C8.23393 13.7617 8.22274 13.1824 8.23951 12.6042C8.24634 12.3558 8.17058 12.2248 7.95075 12.0968C5.02026 10.3891 4.65948 6.25947 7.24221 4.06548C8.51588 2.98557 9.98949 2.69929 11.6041 3.02283C14.2353 3.55316 15.9244 5.94152 15.5362 8.59008C15.4711 9.05075 15.3308 9.4976 15.1208 9.9128C14.8277 8.95522 14.5507 8.0498 14.2663 7.1183L12.5368 7.66416C13.0492 9.63335 13.5559 11.5833 14.0688 13.5581L20.0155 11.3454L19.2896 9.62404L17.0974 10.373C17.6638 8.9931 17.6799 7.62753 17.3694 6.2632C16.5429 2.63843 12.9498 0.287331 8.98968 1.07724C6.05732 1.66284 3.94717 4.01332 3.61556 7.00342C3.31189 9.77121 4.35331 11.9764 6.61933 13.5947Z" fill="#006CEA"/>
<path d="M9.40674 23.814H11.3672V6.02856H9.40674V23.814Z" fill="#006CEA"/>
</svg>
