<svg width="21" height="22" viewBox="0 0 21 22" fill="none" xmlns="http://www.w3.org/2000/svg">
<rect x="0.683013" y="9.03702" width="9.60328" height="12.9732" rx="1.5" transform="rotate(-30 0.683013 9.03702)" fill="#122224" stroke="#122224"/>
<rect x="1.01132" y="6.73984" width="11.6033" height="13.518" rx="2.5" transform="rotate(-30 1.01132 6.73984)" fill="#122224" stroke="white"/>
<rect x="0.757812" y="5.30176" width="10.6033" height="14.3902" rx="2" transform="rotate(-30 0.757812 5.30176)" fill="#122224"/>
<path fill-rule="evenodd" clip-rule="evenodd" d="M3.87725 7.59976C3.7537 7.67109 3.62613 7.72874 3.49638 7.77319L7.56019 14.8119C7.66355 14.7218 7.77727 14.6401 7.90081 14.5688C8.89701 13.9936 10.1549 14.3074 10.7104 15.2696C10.7793 15.389 10.8342 15.5127 10.8755 15.6389L13.8337 13.931C13.745 13.8321 13.6653 13.7227 13.5964 13.6034C13.0409 12.6412 13.3981 11.3949 14.3943 10.8198C14.5178 10.7484 14.6454 10.6908 14.7752 10.6463L10.7114 3.60761C10.608 3.69776 10.4943 3.77941 10.3707 3.85074C9.37453 4.4259 8.11663 4.1121 7.5611 3.14988C7.4922 3.03055 7.43734 2.90685 7.396 2.7806L4.43784 4.48849C4.52651 4.58742 4.60621 4.69678 4.6751 4.81611C5.23064 5.77833 4.87345 7.0246 3.87725 7.59976ZM10.3218 11.2794C11.5172 10.5892 11.9458 9.09365 11.2792 7.93899C10.6125 6.78432 9.10303 6.40778 7.90761 7.09796C6.71219 7.78813 6.28354 9.28367 6.95019 10.4383C7.61683 11.593 9.12633 11.9695 10.3218 11.2794Z" fill="white"/>
<circle cx="15.0431" cy="11.9366" r="1.51475" fill="#13CFE8"/>
<path d="M20.103 16.9574L18.0716 14.5874H17.6929L16.9355 19.5104L18.9376 20.4002C19.5989 20.6941 20.3437 20.21 20.3437 19.4863V17.6081C20.3437 17.3694 20.2584 17.1386 20.103 16.9574Z" fill="white" stroke="#6200EE" stroke-linecap="round"/>
<path d="M9.98196 16.9574L12.0133 14.5874H12.392L13.1494 19.5104L11.1474 20.4002C10.4861 20.6941 9.74122 20.21 9.74122 19.4863V17.6081C9.74122 17.3694 9.82661 17.1386 9.98196 16.9574Z" fill="white" stroke="#6200EE" stroke-linecap="round"/>
<path d="M17.8285 16.8023C17.7334 17.9584 17.5684 19.0164 17.3002 19.7677H12.7838C12.5155 19.0164 12.3506 17.9584 12.2554 16.8023C12.1484 15.5017 12.1338 14.139 12.1338 13.0726C12.1338 9.9503 12.8492 8.09614 14.2159 6.58556C14.6593 6.09546 15.4246 6.09546 15.8681 6.58556C17.2348 8.09614 17.9502 9.9503 17.9502 13.0726C17.9502 14.139 17.9355 15.5017 17.8285 16.8023Z" fill="white" stroke="#6200EE"/>
<path d="M15.043 21.0253L15.043 15.7236" stroke="#6200EE" stroke-linecap="round"/>
</svg>
