<svg width="22" height="22" viewBox="0 0 22 22" fill="none" xmlns="http://www.w3.org/2000/svg">
<path d="M0.5 4.31348H5.60129V9.91477C5.60129 11.0333 6.50806 11.9401 7.62662 11.9401C8.74517 11.9401 9.65194 11.0333 9.65194 9.91477V4.31348H14.7532V9.91477C14.7532 13.8507 11.5625 17.0414 7.62662 17.0414C3.6907 17.0414 0.5 13.8507 0.5 9.91477V4.31348Z" fill="white" stroke="#122224"/>
<path d="M0.5 2C0.5 1.17157 1.17157 0.5 2 0.5H4.10129C4.92972 0.5 5.60129 1.17157 5.60129 2V4.83863H0.5V2Z" fill="#122224" stroke="#122224"/>
<path d="M9.65234 2C9.65234 1.17157 10.3239 0.5 11.1523 0.5H13.2536C14.0821 0.5 14.7536 1.17157 14.7536 2V4.83863H9.65234V2Z" fill="#122224" stroke="#122224"/>
<path d="M10.732 20.5918H16.1557H20.2103C20.9729 20.5918 22.476 18.4844 17.4199 16.6781C15.435 15.969 17.4199 15.1729 18.3679 13.3666C19.3572 11.4817 18.0519 9.15186 15.2077 9.15186C12.6797 9.15186 10.7837 11.2592 11.7317 13.3666C12.6796 15.4739 14.8918 15.775 12.3636 16.9792C8.67832 18.7345 9.15186 20.5918 10.732 20.5918Z" fill="white" stroke="#6200EE" stroke-linecap="round" stroke-linejoin="round"/>
</svg>
