<svg width="24" height="24" viewBox="0 0 24 24" fill="none" xmlns="http://www.w3.org/2000/svg">
<path d="M18.2378 6.18637C17.0905 5.63725 15.8602 5.23269 14.5739 5.00097C14.5505 4.9965 14.5271 5.00768 14.515 5.03003C14.3568 5.32358 14.1815 5.70654 14.0588 6.00755C12.6753 5.79149 11.2989 5.79149 9.94374 6.00755C9.82099 5.69985 9.63936 5.32358 9.48043 5.03003C9.46836 5.00842 9.44496 4.99725 9.42154 5.00097C8.13593 5.23194 6.90567 5.63651 5.7577 6.18637C5.74776 6.19084 5.73924 6.1983 5.73359 6.20798C3.40004 9.84465 2.76079 13.3919 3.07439 16.8952C3.0758 16.9124 3.08503 16.9288 3.0978 16.9392C4.63741 18.1186 6.12878 18.8346 7.59246 19.3092C7.61588 19.3167 7.6407 19.3078 7.65561 19.2876C8.00184 18.7944 8.31048 18.2744 8.57511 17.7275C8.59072 17.6954 8.57582 17.6574 8.5439 17.6448C8.05435 17.4511 7.5882 17.2149 7.1398 16.9467C7.10433 16.925 7.10149 16.8721 7.13412 16.8468C7.22848 16.773 7.32286 16.6963 7.41297 16.6188C7.42927 16.6047 7.45198 16.6017 7.47115 16.6106C10.417 18.0136 13.6062 18.0136 16.5172 16.6106C16.5364 16.6009 16.5591 16.6039 16.5761 16.6181C16.6662 16.6956 16.7606 16.773 16.8557 16.8468C16.8883 16.8721 16.8862 16.925 16.8507 16.9467C16.4023 17.2201 15.9361 17.4511 15.4459 17.644C15.414 17.6567 15.3998 17.6954 15.4154 17.7275C15.6857 18.2736 15.9943 18.7937 16.3342 19.2869C16.3484 19.3078 16.3739 19.3167 16.3973 19.3092C17.8681 18.8346 19.3595 18.1186 20.8991 16.9392C20.9126 16.9288 20.9211 16.9131 20.9225 16.896C21.2978 12.8458 20.2939 9.32758 18.2612 6.20872C18.2562 6.1983 18.2477 6.19084 18.2378 6.18637ZM9.01502 14.7621C8.12812 14.7621 7.39735 13.9127 7.39735 12.8696C7.39735 11.8265 8.11395 10.9772 9.01502 10.9772C9.92315 10.9772 10.6469 11.834 10.6327 12.8696C10.6327 13.9127 9.91606 14.7621 9.01502 14.7621ZM14.9961 14.7621C14.1092 14.7621 13.3784 13.9127 13.3784 12.8696C13.3784 11.8265 14.095 10.9772 14.9961 10.9772C15.9042 10.9772 16.6279 11.834 16.6137 12.8696C16.6137 13.9127 15.9042 14.7621 14.9961 14.7621Z" fill="#6200EE"/>
</svg>
