<svg width="26" height="26" viewBox="0 0 26 26" fill="none" xmlns="http://www.w3.org/2000/svg">
<path d="M25.9293 13.0017C25.9293 20.1437 20.1397 25.9333 12.9979 25.9333C5.856 25.9333 0.0664062 20.1437 0.0664062 13.0017C0.0664062 5.85991 5.856 0.0703125 12.9979 0.0703125C20.1397 0.0703125 25.9293 5.85991 25.9293 13.0017Z" fill="#02181B"/>
<g opacity="0.8">
<path d="M12.9563 7L12.8765 7.27148V15.1493L12.9563 15.229L16.6131 13.0675L12.9563 7Z" fill="white"/>
<path d="M12.9566 7L9.2998 13.0675L12.9566 15.229V11.4054V7Z" fill="white"/>
<path d="M12.9566 16.4182L12.9116 16.4731V19.2794L12.9566 19.4108L16.6156 14.2578L12.9566 16.4182Z" fill="white"/>
<path d="M12.9566 19.4108V16.4182L9.2998 14.2578L12.9566 19.4108Z" fill="white"/>
<path d="M12.9565 15.2298L16.6133 13.0684L12.9565 11.4062V15.2298Z" fill="white"/>
<path d="M9.2998 13.0684L12.9565 15.2299V11.4062L9.2998 13.0684Z" fill="white"/>
</g>
</svg>
