<svg width="22" height="24" viewBox="0 0 22 24" fill="none" xmlns="http://www.w3.org/2000/svg">
<rect x="0.5" y="3.50342" width="12.5162" height="17.0216" rx="3.5" fill="#122224" stroke="#122224"/>
<rect x="3.50391" y="0.5" width="12.5162" height="17.0216" rx="3.5" fill="white" stroke="#122224"/>
<path d="M7.60249 12.7654H10.2693H11.6026C12.6693 12.7654 13.8252 11.5205 10.9805 10.4534C9.86381 10.0345 10.9805 9.56421 11.5139 8.49715C12.0705 7.38366 11.3361 6.00732 9.73594 6.00732C8.31365 6.00732 7.24695 7.25224 7.78028 8.49715C8.3136 9.74206 9.5582 9.9199 8.13581 10.6313C6.06241 11.6682 6.71349 12.7654 7.60249 12.7654Z" fill="white" stroke="#122224" stroke-linecap="round" stroke-linejoin="round"/>
<path d="M12.7725 17.7339L8.79022 21.7161" stroke="white" stroke-linecap="round" stroke-linejoin="round"/>
<circle cx="14.6426" cy="15.8642" r="4.5133" transform="rotate(45 14.6426 15.8642)" fill="white" stroke="white" stroke-width="2"/>
<path d="M12.7725 17.7339L8.79022 21.7161" stroke="white" stroke-width="3" stroke-linecap="round" stroke-linejoin="round"/>
<path d="M12.7725 17.7339L8.79022 21.7161" stroke="#6200EE" stroke-linecap="round" stroke-linejoin="round"/>
<circle cx="14.6426" cy="15.8642" r="4.0133" transform="rotate(45 14.6426 15.8642)" fill="white" stroke="#6200EE"/>
</svg>
