<svg width="36" height="36" viewBox="0 0 36 36" fill="none" xmlns="http://www.w3.org/2000/svg">
<circle cx="18" cy="18" r="17" stroke="#717A7C" stroke-width="2"/>
<path d="M18.8439 19.7449H24.7727C24.8993 19.7449 24.9588 19.7449 24.968 19.5732C25.0166 18.947 25.0166 18.3178 24.968 17.6916C24.968 17.5699 24.9102 17.5198 24.7825 17.5198H12.9833C12.8371 17.5198 12.7978 17.5699 12.7978 17.712V19.5126C12.7978 19.7449 12.7978 19.7449 13.0318 19.7449H18.8439ZM24.3049 15.4152C24.3217 15.3698 24.3217 15.3195 24.3049 15.274C24.2064 15.0509 24.0884 14.8376 23.9524 14.6367C23.7477 14.2949 23.5053 13.979 23.23 13.6955C23.1003 13.524 22.9495 13.3709 22.7813 13.2402C21.937 12.4948 20.9343 11.9679 19.8555 11.7027C19.3115 11.5762 18.7553 11.5151 18.1978 11.5205H12.9628C12.8183 11.5205 12.7972 11.5804 12.7972 11.7129V15.304C12.7972 15.4554 12.7972 15.4962 12.9827 15.4962H24.2358C24.2358 15.4962 24.3332 15.4758 24.3514 15.4152H24.3046H24.3049ZM24.3049 21.8495C24.1392 21.8306 23.9719 21.8306 23.8062 21.8495H12.9931C12.8472 21.8495 12.7978 21.8495 12.7978 22.0519V25.5629C12.7978 25.7248 12.7978 25.7656 12.9931 25.7656H17.986C18.2242 25.7841 18.4636 25.7672 18.6971 25.7152C19.4219 25.6615 20.1352 25.4978 20.8142 25.2293C21.0619 25.14 21.3003 25.0248 21.5256 24.8855H21.5935C22.7633 24.255 23.7144 23.2618 24.3144 22.0441C24.3144 22.0441 24.3823 21.8909 24.3061 21.851L24.3049 21.8495ZM10.8382 27.5857V21.9916C10.8382 21.8597 10.8382 21.8399 10.6825 21.8399H8.56624C8.44893 21.8399 8.40039 21.8399 8.40039 21.6784V19.756H10.6628C10.7891 19.756 10.8382 19.756 10.8382 19.584V17.6823C10.8382 17.5606 10.8382 17.5306 10.6825 17.5306H8.56624C8.44893 17.5306 8.40039 17.5306 8.40039 17.369V15.5888C8.40039 15.4773 8.40039 15.4473 8.55642 15.4473H10.653C10.7975 15.4473 10.8382 15.4473 10.8382 15.2552V9.80225C10.8382 9.64038 10.8382 9.59961 11.0335 9.59961H18.3469C18.877 9.62126 19.4049 9.68217 19.9266 9.78186C21.0014 9.98864 22.0339 10.3856 22.979 10.9554C23.6046 11.3373 24.1811 11.7997 24.695 12.3316C25.0805 12.7471 25.4296 13.1973 25.7383 13.6769C26.045 14.1631 26.3004 14.682 26.5 15.2249C26.5119 15.2929 26.5492 15.3534 26.6037 15.3932C26.6583 15.433 26.7258 15.4488 26.7915 15.4374H28.537C28.761 15.4374 28.761 15.4374 28.7708 15.6604V17.3193C28.7708 17.4812 28.713 17.5219 28.5558 17.5219H27.2099C27.0738 17.5219 27.0345 17.5219 27.0444 17.7042C27.0975 18.3198 27.0975 18.9392 27.0444 19.5549C27.0444 19.7269 27.0444 19.7473 27.2304 19.7473H28.7702C28.8381 19.8373 28.7702 19.9293 28.7702 20.021C28.78 20.1386 28.78 20.2568 28.7702 20.3744V21.5989C28.7702 21.7707 28.7217 21.8217 28.5749 21.8217H26.7317C26.6698 21.8096 26.6057 21.823 26.553 21.8588C26.5002 21.8947 26.4629 21.9503 26.4489 22.0141C26.0096 23.1984 25.308 24.2589 24.4008 25.11C24.0691 25.42 23.7208 25.7102 23.3575 25.9793C22.9668 26.2131 22.5871 26.4553 22.1867 26.6475C21.45 26.9909 20.6777 27.2454 19.885 27.4059C19.1317 27.5454 18.3674 27.6098 17.6023 27.5983H10.8353V27.5881L10.8382 27.5857Z" fill="#717A7C"/>
</svg>
