<svg width="17" height="14" viewBox="0 0 17 14" fill="none" xmlns="http://www.w3.org/2000/svg">
<path d="M8.70293 7.83957H13.6436C13.7491 7.83957 13.7987 7.83957 13.8064 7.70684C13.8468 7.22297 13.8468 6.73676 13.8064 6.25289C13.8064 6.15885 13.7582 6.12017 13.6518 6.12017H3.81909C3.69725 6.12017 3.66451 6.15885 3.66451 6.26864V7.66005C3.66451 7.83957 3.6645 7.83957 3.85954 7.83957H8.70293ZM13.2538 4.49388C13.2677 4.45876 13.2677 4.41991 13.2538 4.38478C13.1717 4.21234 13.0734 4.0475 12.96 3.89234C12.7894 3.6282 12.5874 3.3841 12.358 3.16501C12.2499 3.03249 12.1242 2.91419 11.9841 2.81316C11.2805 2.23721 10.4449 1.83005 9.54592 1.62513C9.09259 1.52739 8.62908 1.48013 8.16453 1.48429H3.80199C3.6816 1.48429 3.66402 1.53062 3.66402 1.633V4.40795C3.66402 4.52492 3.66402 4.55642 3.81861 4.55642H13.1962C13.1962 4.55642 13.2774 4.54067 13.2925 4.49388H13.2535H13.2538ZM13.2538 9.46585C13.1156 9.45125 12.9763 9.45125 12.8382 9.46585H3.82728C3.70568 9.46585 3.66451 9.46585 3.66451 9.6222V12.3353C3.66451 12.4604 3.66451 12.4919 3.82728 12.4919H7.98804C8.18648 12.5062 8.38603 12.4931 8.58061 12.453C9.18461 12.4115 9.77901 12.285 10.3448 12.0775C10.5513 12.0085 10.7499 11.9195 10.9377 11.8118H10.9942C11.9691 11.3246 12.7617 10.5571 13.2617 9.61618C13.2617 9.61618 13.3183 9.49782 13.2547 9.46701L13.2538 9.46585ZM2.0315 13.8984V9.57565C2.0315 9.47373 2.0315 9.45844 1.90172 9.45844H0.13821C0.0404516 9.45844 0 9.45844 0 9.33359V7.84814H1.88535C1.99057 7.84814 2.0315 7.84814 2.0315 7.71518V6.24571C2.0315 6.15167 2.0315 6.12851 1.90172 6.12851H0.13821C0.0404516 6.12851 0 6.12851 0 6.00366V4.628C0 4.54183 5.85557e-07 4.51867 0.130024 4.51867H1.87716C1.99755 4.51867 2.0315 4.51867 2.0315 4.37019V0.156583C2.0315 0.0315018 2.0315 0 2.19427 0H8.28878C8.73049 0.0167326 9.17041 0.0637964 9.60515 0.140832C10.5008 0.300617 11.3612 0.607365 12.1488 1.04767C12.6701 1.34277 13.1506 1.70007 13.5788 2.11109C13.9001 2.43218 14.191 2.78006 14.4483 3.15065C14.7039 3.52631 14.9166 3.92733 15.083 4.3468C15.0929 4.39939 15.124 4.44611 15.1695 4.47685C15.2149 4.50758 15.2712 4.51986 15.326 4.51102H16.7805C16.9671 4.51102 16.9671 4.51102 16.9753 4.68336V5.96521C16.9753 6.09029 16.9272 6.12179 16.7962 6.12179H15.6746C15.5612 6.12179 15.5285 6.12179 15.5366 6.26262C15.5809 6.73837 15.5809 7.21697 15.5366 7.69271C15.5366 7.82567 15.5366 7.84142 15.6917 7.84142H16.9749C17.0314 7.91091 16.9749 7.98202 16.9749 8.0529C16.983 8.14376 16.983 8.23513 16.9749 8.32599V9.27221C16.9749 9.40493 16.9344 9.44431 16.8121 9.44431H15.2761C15.2245 9.43502 15.1711 9.44531 15.1271 9.47303C15.0832 9.50075 15.0521 9.54375 15.0404 9.59302C14.6743 10.5081 14.0897 11.3276 13.3337 11.9853C13.0573 12.2248 12.767 12.4491 12.4642 12.657C12.1387 12.8377 11.8223 13.0249 11.4886 13.1733C10.8747 13.4387 10.2311 13.6354 9.57048 13.7594C8.94279 13.8672 8.30582 13.917 7.66828 13.9081H2.02909V13.9002L2.0315 13.8984Z" fill="#717A7C"/>
</svg>
