<svg width="17" height="17" viewBox="0 0 17 17" fill="none" xmlns="http://www.w3.org/2000/svg">
<g clip-path="url(#clip0_4057_11161)">
<path d="M14.7236 7.80988V8.8539H13.727V7.80988H12.9509V10.5976H13.727V9.53726H14.7236V10.5976H15.4997V7.80988H14.7236Z" fill="#717A7C"/>
<path d="M10.157 8.48781H10.9957V10.5976H11.7718V8.48781H12.6105V7.80988H10.157V8.48781Z" fill="#717A7C"/>
<path d="M6.04529 9.42333L5.5034 7.8017H4.83626L4.29709 9.42333L3.80967 7.80983H2.9873L3.92403 10.6192H4.59935L5.1603 9.01385L5.72397 10.6192H6.39929L7.33602 7.80983H6.53272L6.04529 9.42333Z" fill="#717A7C"/>
<path d="M8.41145 9.4993H9.75664V8.88915H8.41145V8.46612H9.89552V7.80988H7.64355V10.5976H9.91458V9.94131H8.41145V9.4993Z" fill="#717A7C"/>
<path d="M14.0482 3.09949C13.2975 2.32663 12.4772 1.62405 11.5975 1.00058L11.5675 0.9816C10.4074 0.336256 9.1004 -0.00174581 7.77158 -5.47206e-05C5.70918 0.00353719 3.73248 0.821946 2.27542 2.27551C0.818352 3.72907 -3.15395e-06 5.699 0 7.75286C0.0038701 8.42617 0.0954017 9.09614 0.272305 9.746C0.272305 9.78396 0.288643 9.80566 0.302259 9.87345V9.89244C0.336189 10.0611 0.392986 10.2244 0.471089 10.3778C0.544611 10.5351 0.688933 10.8117 0.860485 11.1154C1.11645 11.5737 1.40509 12.0347 1.69646 12.4713C2.07956 13.0479 2.52519 13.5808 3.02531 14.0604C1.24443 14.1824 0.367611 14.6868 0.367611 15.4353C0.367611 16.2976 2.30098 16.9999 4.68092 16.9999C7.18885 16.9999 8.26173 16.9783 8.85808 16.9186C8.98062 16.9186 9.10043 16.9186 9.22569 16.9186C11.2905 16.9186 13.2707 16.1018 14.7307 14.6478C16.1907 13.1939 17.0109 11.2219 17.0109 9.16568C17.0086 7.99747 16.7409 6.84491 16.2279 5.79436C15.7148 4.74381 14.9696 3.82251 14.0482 3.09949ZM0.705269 7.75286C0.70515 7.53821 0.716057 7.32371 0.737946 7.11017L1.59571 7.53863C1.52801 7.85539 1.47981 8.17597 1.45139 8.49859L0.727054 8.15691C0.718885 8.02675 0.71344 7.88573 0.71344 7.75286H0.705269ZM1.465 10.771C1.30162 10.4782 1.16546 10.2287 1.09739 10.0714C1.04404 9.97173 1.00551 9.86485 0.983021 9.75414V9.73786C0.966683 9.6538 0.961237 9.62126 0.944899 9.56431C0.904961 9.40703 0.869561 9.24975 0.8387 9.09247L1.4296 9.36364C1.44123 9.95287 1.52072 10.5388 1.66651 11.11C1.6066 10.9961 1.5358 10.8849 1.47317 10.771H1.465ZM0.860485 6.28309C1.19983 4.7067 2.07143 3.29376 3.33 2.27972C4.58858 1.26568 6.15812 0.711812 7.77703 0.710424C8.97779 0.708148 10.1591 1.01252 11.2081 1.59446L11.4395 1.74903C10.7153 1.53184 9.96301 1.4213 9.20663 1.42091C7.56686 1.42107 5.96901 1.93684 4.64095 2.89467C3.31289 3.8525 2.32243 5.20348 1.81083 6.75493L0.860485 6.28309ZM9.20663 16.2163C7.32892 16.2163 5.52811 15.4734 4.20037 14.1512C2.87262 12.8289 2.1267 11.0356 2.1267 9.16568C2.1267 7.29576 2.87262 5.50242 4.20037 4.18018C5.52811 2.85794 7.32892 2.11512 9.20663 2.11512C11.0843 2.11512 12.8852 2.85794 14.2129 4.18018C15.5406 5.50242 16.2866 7.29576 16.2866 9.16568C16.2866 11.0342 15.5418 12.8263 14.2158 14.1483C12.8898 15.4703 11.0911 16.2141 9.2148 16.2163H9.20663Z" fill="#717A7C"/>
</g>
<defs>
<clipPath id="clip0_4057_11161">
<rect width="17" height="17" fill="white"/>
</clipPath>
</defs>
</svg>
