<svg width="36" height="36" viewBox="0 0 36 36" fill="none" xmlns="http://www.w3.org/2000/svg">
<circle cx="18" cy="18" r="17" stroke="#717A7C" stroke-width="2"/>
<g clip-path="url(#clip0_4057_11180)">
<path d="M26.2289 17.2209V18.4001H25.1033V17.2209H24.2268V20.3694H25.1033V19.1719H26.2289V20.3694H27.1054V17.2209H26.2289Z" fill="#717A7C"/>
<path d="M21.0715 17.9866H22.0188V20.3694H22.8953V17.9866H23.8425V17.2209H21.0715V17.9866Z" fill="#717A7C"/>
<path d="M16.4276 19.0432L15.8156 17.2117H15.0621L14.4532 19.0432L13.9027 17.2209H12.9739L14.0318 20.3939H14.7945L15.4281 18.5808L16.0647 20.3939H16.8274L17.8854 17.2209H16.9781L16.4276 19.0432Z" fill="#717A7C"/>
<path d="M19.1002 19.129H20.6195V18.4399H19.1002V17.9621H20.7763V17.2209H18.2329V20.3694H20.7978V19.6282H19.1002V19.129Z" fill="#717A7C"/>
<path d="M25.4663 11.901C24.6185 11.0281 23.692 10.2346 22.6984 9.53047L22.6646 9.50903C21.3544 8.78017 19.8782 8.39843 18.3774 8.40034C16.0481 8.40439 13.8156 9.32871 12.17 10.9704C10.5244 12.6121 9.60009 14.8369 9.6001 17.1566C9.60447 17.917 9.70785 18.6737 9.90764 19.4076C9.90764 19.4505 9.92609 19.475 9.94147 19.5516V19.573C9.97979 19.7635 10.0439 19.948 10.1322 20.1213C10.2152 20.2989 10.3782 20.6113 10.5719 20.9543C10.861 21.4719 11.187 21.9926 11.5161 22.4856C11.9488 23.1369 12.4521 23.7387 13.0169 24.2804C11.0056 24.4182 10.0153 24.9879 10.0153 25.8332C10.0153 26.8071 12.1988 27.6003 14.8868 27.6003C17.7193 27.6003 18.931 27.5758 19.6045 27.5085C19.7429 27.5085 19.8782 27.5085 20.0197 27.5085C22.3517 27.5085 24.5881 26.5859 26.2371 24.9438C27.886 23.3017 28.8124 21.0745 28.8124 18.7522C28.8099 17.4328 28.5075 16.1311 27.928 14.9446C27.3486 13.7581 26.507 12.7176 25.4663 11.901ZM10.3966 17.1566C10.3965 16.9141 10.4088 16.6719 10.4335 16.4307L11.4023 16.9146C11.3258 17.2724 11.2714 17.6344 11.2393 17.9988L10.4212 17.6129C10.412 17.4659 10.4059 17.3066 10.4059 17.1566H10.3966ZM11.2547 20.5653C11.0702 20.2346 10.9164 19.9528 10.8395 19.7752C10.7792 19.6626 10.7357 19.5419 10.7103 19.4168V19.3985C10.6919 19.3035 10.6857 19.2668 10.6673 19.2024C10.6222 19.0248 10.5822 18.8472 10.5473 18.6695L11.2147 18.9758C11.2278 19.6413 11.3176 20.3031 11.4823 20.9482C11.4146 20.8195 11.3346 20.694 11.2639 20.5653H11.2547ZM10.5719 15.4966C10.9552 13.7162 11.9396 12.1204 13.361 10.9751C14.7825 9.82987 16.5552 9.20433 18.3836 9.20276C19.7397 9.20019 21.0739 9.54395 22.2586 10.2012L22.52 10.3758C21.7021 10.1305 20.8524 10.0056 19.9982 10.0052C18.1462 10.0054 16.3416 10.5879 14.8416 11.6697C13.3417 12.7515 12.2231 14.2773 11.6453 16.0295L10.5719 15.4966ZM19.9982 26.7152C17.8775 26.7152 15.8436 25.8763 14.344 24.3829C12.8445 22.8896 12.002 20.8641 12.002 18.7522C12.002 16.6403 12.8445 14.6149 14.344 13.1215C15.8436 11.6282 17.8775 10.7892 19.9982 10.7892C22.1189 10.7892 24.1527 11.6282 25.6523 13.1215C27.1519 14.6149 27.9943 16.6403 27.9943 18.7522C27.9943 20.8626 27.1532 22.8866 25.6556 24.3797C24.158 25.8728 22.1265 26.7128 20.0074 26.7152H19.9982Z" fill="#717A7C"/>
</g>
<defs>
<clipPath id="clip0_4057_11180">
<rect width="19.2" height="19.2" fill="white" transform="translate(9.6001 8.40039)"/>
</clipPath>
</defs>
</svg>
