<svg width="19" height="16" viewBox="0 0 19 16" fill="none" xmlns="http://www.w3.org/2000/svg">
<path d="M3.81494 14.8011L6.62999 13.2025V3.29065L3.81494 4.19657V14.8011Z" fill="#717A7C" stroke="#717A7C" stroke-width="0.5" stroke-linejoin="round"/>
<path d="M12.3599 6.06226L12.3599 9.3662L9.57096 11.258L9.64637 7.8741L12.3599 6.06226Z" fill="#717A7C" stroke="#717A7C" stroke-width="0.5" stroke-linejoin="round"/>
<path d="M12.3618 2.75915L15.0609 1.10718L18.0009 2.72173L15.1987 4.34444L12.3618 2.75915Z" fill="white" stroke="#717A7C" stroke-width="0.5" stroke-linejoin="round"/>
<path fill-rule="evenodd" clip-rule="evenodd" d="M1.00099 2.59765L1.00099 2.5708L9.66426 7.87309L9.56276 11.2568L3.81505 7.69746V14.8003L1 13.2016V2.59705L1.00099 2.59765Z" fill="white"/>
<path d="M1.00099 2.5708L1.1315 2.35757C1.05434 2.31035 0.957688 2.30849 0.878773 2.35271C0.799857 2.39693 0.750988 2.48034 0.750988 2.5708L1.00099 2.5708ZM1.00099 2.59765L0.871459 2.81147C0.948657 2.85824 1.04507 2.85976 1.1237 2.81546C1.20234 2.77115 1.25099 2.6879 1.25099 2.59765L1.00099 2.59765ZM9.66426 7.87309L9.91415 7.88059C9.91684 7.79092 9.87128 7.70669 9.79477 7.65986L9.66426 7.87309ZM9.56276 11.2568L9.43114 11.4694C9.50711 11.5164 9.60241 11.5193 9.68112 11.477C9.75982 11.4347 9.80997 11.3536 9.81265 11.2643L9.56276 11.2568ZM3.81505 7.69746L3.94667 7.48492C3.86957 7.43716 3.77264 7.43492 3.69341 7.47905C3.61417 7.52318 3.56505 7.60676 3.56505 7.69746H3.81505ZM3.81505 14.8003L3.6916 15.0177C3.76898 15.0616 3.8639 15.0611 3.94082 15.0164C4.01774 14.9716 4.06505 14.8893 4.06505 14.8003H3.81505ZM1 13.2016H0.75C0.75 13.2916 0.798325 13.3746 0.876543 13.419L1 13.2016ZM1 2.59705L1.12953 2.38322C1.05233 2.33646 0.955921 2.33493 0.877285 2.37924C0.79865 2.42354 0.75 2.50679 0.75 2.59705H1ZM0.750988 2.5708L0.750988 2.59765L1.25099 2.59765V2.5708L0.750988 2.5708ZM9.79477 7.65986L1.1315 2.35757L0.870481 2.78403L9.53376 8.08632L9.79477 7.65986ZM9.81265 11.2643L9.91415 7.88059L9.41438 7.8656L9.31287 11.2493L9.81265 11.2643ZM3.68343 7.91001L9.43114 11.4694L9.69438 11.0443L3.94667 7.48492L3.68343 7.91001ZM3.56505 7.69746V14.8003H4.06505V7.69746H3.56505ZM3.93851 14.5829L1.12346 12.9842L0.876543 13.419L3.6916 15.0177L3.93851 14.5829ZM1.25 13.2016V2.59705H0.75V13.2016H1.25ZM0.870471 2.81088L0.871459 2.81147L1.13052 2.38382L1.12953 2.38322L0.870471 2.81088Z" fill="#717A7C"/>
<path d="M1.00024 2.59868L3.8153 1L12.4364 6.03584L9.67161 7.87432L1.00024 2.59868Z" fill="white" stroke="#717A7C" stroke-width="0.5" stroke-linejoin="round"/>
<path d="M15.1765 14.9089L17.9916 13.3635V2.75897L15.1765 4.35765V14.9089Z" fill="#717A7C" stroke="#717A7C" stroke-width="0.5" stroke-linejoin="round"/>
<path d="M15.1765 14.9089L12.3615 13.3635V2.75897L15.1765 4.35765V14.9089Z" fill="white" stroke="#717A7C" stroke-width="0.5" stroke-linejoin="round"/>
</svg>
