<svg width="24" height="24" viewBox="0 0 24 24" fill="none" xmlns="http://www.w3.org/2000/svg">
<circle cx="12" cy="12" r="12" fill="#BD3E79"/>
<path d="M18.9006 15.3883V18.0992C18.9007 18.2933 18.8271 18.4802 18.6948 18.6222C18.5625 18.7642 18.3812 18.8508 18.1876 18.8643C17.8525 18.8873 17.5788 18.8996 17.3672 18.8996C10.5922 18.8996 5.10059 13.408 5.10059 6.63294C5.10059 6.42134 5.11209 6.14764 5.13585 5.81261C5.14944 5.61898 5.23596 5.43772 5.37797 5.30539C5.51997 5.17306 5.70688 5.09952 5.90099 5.09961H8.61192C8.70702 5.09951 8.79875 5.13477 8.86931 5.19853C8.93987 5.26228 8.98421 5.34999 8.99372 5.44461C9.01135 5.62094 9.02745 5.76124 9.04279 5.86781C9.19515 6.93112 9.50739 7.96528 9.96892 8.93524C10.0418 9.08858 9.99422 9.27181 9.85622 9.36994L8.20175 10.5521C9.21333 12.9092 11.0917 14.7876 13.4488 15.7992L14.6295 14.1478C14.6777 14.0803 14.7481 14.032 14.8284 14.0111C14.9087 13.9902 14.9938 13.9982 15.0688 14.0336C16.0386 14.4942 17.0725 14.8057 18.1355 14.9574C18.242 14.9727 18.3823 14.9896 18.5571 15.0065C18.6516 15.0162 18.7391 15.0606 18.8027 15.1311C18.8663 15.2017 18.9015 15.2933 18.9013 15.3883H18.9006Z" fill="white"/>
</svg>
