<svg width="24" height="24" viewBox="0 0 24 24" fill="none" xmlns="http://www.w3.org/2000/svg">
<circle cx="12" cy="12" r="12" fill="#8E1B34"/>
<path d="M10.3243 17.3716V20.054H13.0067V17.3716H14.3478C14.9705 17.3716 15.5809 17.1982 16.1106 16.8708C16.6403 16.5435 17.0683 16.0751 17.3468 15.5181C17.6253 14.9612 17.7432 14.3377 17.6872 13.7175C17.6313 13.0974 17.4038 12.505 17.0302 12.0069C17.4038 11.5088 17.6313 10.9164 17.6872 10.2962C17.7432 9.67608 17.6253 9.05259 17.3468 8.49565C17.0683 7.93871 16.6403 7.47031 16.1106 7.14295C15.5809 6.81559 14.9705 6.64219 14.3478 6.64219H13.0067V3.95984H10.3243V6.64219H6.30078V17.3716H10.3243ZM8.98313 13.3481H14.3478C14.5257 13.3481 14.6963 13.4187 14.822 13.5445C14.9478 13.6702 15.0184 13.8408 15.0184 14.0187C15.0184 14.1965 14.9478 14.3671 14.822 14.4928C14.6963 14.6186 14.5257 14.6892 14.3478 14.6892H8.98313V13.3481ZM8.98313 9.32454H14.3478C14.5257 9.32454 14.6963 9.39519 14.822 9.52095C14.9478 9.64671 15.0184 9.81728 15.0184 9.99513C15.0184 10.173 14.9478 10.3435 14.822 10.4693C14.6963 10.5951 14.5257 10.6657 14.3478 10.6657H8.98313V9.32454Z" fill="#F7F5F2"/>
</svg>
