<svg width="24" height="24" viewBox="0 0 24 24" fill="none" xmlns="http://www.w3.org/2000/svg">
<circle cx="12" cy="12" r="12" fill="#8E1B34"/>
<path d="M12.6308 4.4L12.6315 6.50026C13.8402 6.65307 14.9638 7.20361 15.8252 8.06517C16.6866 8.92672 17.237 10.0504 17.3896 11.2591H19.4899V12.6309L17.3896 12.6316C17.2369 13.8402 16.6864 14.9637 15.825 15.8251C14.9636 16.6865 13.8401 17.237 12.6315 17.3897L12.6308 19.49H11.259V17.3897C10.0503 17.2371 8.92663 16.6867 8.06507 15.8253C7.20351 14.9639 6.65297 13.8403 6.50016 12.6316L4.3999 12.6309V11.2591H6.50016C6.65283 10.0503 7.20331 8.92655 8.06488 8.06498C8.92645 7.2034 10.0502 6.65293 11.259 6.50026V4.4H12.6308ZM11.9449 7.82955C10.8534 7.82955 9.80663 8.26314 9.03484 9.03494C8.26304 9.80673 7.82945 10.8535 7.82945 11.945C7.82945 13.0365 8.26304 14.0833 9.03484 14.8551C9.80663 15.6269 10.8534 16.0605 11.9449 16.0605C13.0364 16.0605 14.0832 15.6269 14.855 14.8551C15.6268 14.0833 16.0604 13.0365 16.0604 11.945C16.0604 10.8535 15.6268 9.80673 14.855 9.03494C14.0832 8.26314 13.0364 7.82955 11.9449 7.82955ZM11.9449 10.5732C12.3087 10.5732 12.6577 10.7177 12.9149 10.975C13.1722 11.2322 13.3167 11.5812 13.3167 11.945C13.3167 12.3088 13.1722 12.6578 12.9149 12.915C12.6577 13.1723 12.3087 13.3168 11.9449 13.3168C11.5811 13.3168 11.2321 13.1723 10.9749 12.915C10.7176 12.6578 10.5731 12.3088 10.5731 11.945C10.5731 11.5812 10.7176 11.2322 10.9749 10.975C11.2321 10.7177 11.5811 10.5732 11.9449 10.5732Z" fill="#F7F5F2"/>
</svg>
