<svg width="24" height="24" viewBox="0 0 24 24" fill="none" xmlns="http://www.w3.org/2000/svg">
<g clip-path="url(#clip0_1724_4661)">
<path d="M12 24C5.3724 24 0 18.6276 0 12C0 5.3724 5.3724 0 12 0C18.6276 0 24 5.3724 24 12C24 18.6276 18.6276 24 12 24ZM10.8 15.6V18H13.2V15.6H10.8ZM13.2 13.626C14.1644 13.3353 14.9923 12.7079 15.533 11.8581C16.0737 11.0082 16.2911 9.99247 16.1457 8.99576C16.0003 7.99906 15.5017 7.08773 14.7408 6.42775C13.9799 5.76777 13.0073 5.40305 12 5.4C11.029 5.39993 10.088 5.73619 9.33695 6.35159C8.58591 6.967 8.07121 7.82356 7.8804 8.7756L10.2348 9.2472C10.3016 8.91292 10.462 8.60448 10.6972 8.35778C10.9325 8.11108 11.233 7.93625 11.5637 7.85365C11.8944 7.77104 12.2418 7.78405 12.5655 7.89116C12.8891 7.99828 13.1757 8.19509 13.3918 8.45869C13.6079 8.7223 13.7448 9.04187 13.7864 9.38021C13.828 9.71856 13.7727 10.0618 13.6269 10.3699C13.4811 10.678 13.2508 10.9384 12.9628 11.1208C12.6748 11.3032 12.3409 11.4 12 11.4C11.6817 11.4 11.3765 11.5264 11.1515 11.7515C10.9264 11.9765 10.8 12.2817 10.8 12.6V14.4H13.2V13.626Z" fill="#936621"/>
</g>
<defs>
<clipPath id="clip0_1724_4661">
<rect width="24" height="24" fill="white"/>
</clipPath>
</defs>
</svg>
