<svg width="24" height="24" viewBox="0 0 24 24" fill="none" xmlns="http://www.w3.org/2000/svg">
<g clip-path="url(#clip0_1029_9396)">
<path d="M12 0C18.6276 0 24 5.3724 24 12C24.0029 13.8737 23.5651 15.7219 22.722 17.3952C22.6339 17.0535 22.4708 16.7358 22.2444 16.4652L22.0968 16.3032L20.4 14.6064L18.7032 16.3032L18.5628 16.4556C18.2587 16.817 18.0681 17.2601 18.0147 17.7294C17.9613 18.1986 18.0476 18.6732 18.2627 19.0937C18.4778 19.5141 18.8122 19.8618 19.224 20.0931C19.6357 20.3244 20.1066 20.4291 20.5776 20.394C19.461 21.5373 18.1267 22.4453 16.6536 23.0647C15.1804 23.684 13.5981 24.002 12 24C5.3724 24 0 18.6276 0 12C0 5.3724 5.3724 0 12 0ZM12 15.6C10.344 15.6 8.844 16.272 7.7592 17.3556L7.56 17.5644L8.694 18.5964C9.642 18.2184 10.7784 18 12 18C13.086 18 14.1048 18.1728 14.9832 18.4752L15.306 18.5952L16.44 17.5632C15.8781 16.9439 15.1927 16.4493 14.428 16.1111C13.6633 15.773 12.8362 15.5989 12 15.6ZM7.8 9.6C7.32261 9.6 6.86477 9.78964 6.5272 10.1272C6.18964 10.4648 6 10.9226 6 11.4C6 11.8774 6.18964 12.3352 6.5272 12.6728C6.86477 13.0104 7.32261 13.2 7.8 13.2C8.27739 13.2 8.73522 13.0104 9.07279 12.6728C9.41035 12.3352 9.6 11.8774 9.6 11.4C9.6 10.9226 9.41035 10.4648 9.07279 10.1272C8.73522 9.78964 8.27739 9.6 7.8 9.6ZM16.2 9.6C15.7226 9.6 15.2648 9.78964 14.9272 10.1272C14.5896 10.4648 14.4 10.9226 14.4 11.4C14.4 11.8774 14.5896 12.3352 14.9272 12.6728C15.2648 13.0104 15.7226 13.2 16.2 13.2C16.6774 13.2 17.1352 13.0104 17.4728 12.6728C17.8103 12.3352 18 11.8774 18 11.4C18 10.9226 17.8103 10.4648 17.4728 10.1272C17.1352 9.78964 16.6774 9.6 16.2 9.6Z" fill="#2B374E"/>
</g>
<defs>
<clipPath id="clip0_1029_9396">
<rect width="24" height="24" fill="white"/>
</clipPath>
</defs>
</svg>
