<svg width="20" height="20" viewBox="0 0 20 20" fill="none" xmlns="http://www.w3.org/2000/svg">
<path fill-rule="evenodd" clip-rule="evenodd" d="M17.9285 9.628C17.8365 9.399 15.6115 4 9.9995 4C4.3875 4 2.1625 9.399 2.0705 9.628C1.9765 9.867 1.9765 10.133 2.0705 10.372C2.1625 10.601 4.3875 16 9.9995 16C15.6115 16 17.8365 10.601 17.9285 10.372C18.0225 10.133 18.0225 9.867 17.9285 9.628ZM9.9995 14C7.7905 14 5.9995 12.209 5.9995 10C5.9995 7.791 7.7905 6 9.9995 6C12.2095 6 13.9995 7.791 13.9995 10C13.9995 12.209 12.2095 14 9.9995 14ZM9.9995 8C8.8955 8 7.9995 8.896 7.9995 10C7.9995 11.104 8.8955 12 9.9995 12C11.1045 12 11.9995 11.104 11.9995 10C11.9995 8.896 11.1045 8 9.9995 8Z" fill="#414E50"/>
</svg>
