<svg width="17" height="23" viewBox="0 0 17 23" fill="none" xmlns="http://www.w3.org/2000/svg">
<path d="M0 5.37342C0 4.26885 0.895431 3.37341 2 3.37341H12C13.1046 3.37341 14 4.26884 14 5.37341V21C14 22.1046 13.1046 23 12 23H2C0.89543 23 0 22.1046 0 21V5.37342Z" fill="#A0A7A7"/>
<rect x="3" width="14" height="20" rx="2" fill="#414E50"/>
<path fill-rule="evenodd" clip-rule="evenodd" d="M5.5 5C5.32877 5 5.16155 4.98278 5 4.94999L5 15.05C5.16155 15.0172 5.32877 15 5.5 15C6.88074 15 8 16.1193 8 17.5C8 17.6712 7.98278 17.8384 7.94999 18L12.05 18C12.0172 17.8384 12 17.6712 12 17.5C12 16.1193 13.1193 15 14.5 15C14.6712 15 14.8384 15.0172 15 15.05L15 4.94999C14.8384 4.98278 14.6712 5 14.5 5C13.1193 5 12 3.88071 12 2.5C12 2.32877 12.0172 2.16155 12.05 2L7.94999 2C7.98279 2.16155 8 2.32877 8 2.5C8 3.88071 6.88074 5 5.5 5ZM9.99041 12.9642C11.6473 12.9642 12.9904 11.621 12.9904 9.96418C12.9904 8.30733 11.6473 6.96418 9.99041 6.96418C8.33356 6.96418 6.99041 8.30733 6.99041 9.96418C6.99041 11.621 8.33356 12.9642 9.99041 12.9642Z" fill="white"/>
</svg>
