<svg width="42" height="36" viewBox="0 0 42 36" fill="none" xmlns="http://www.w3.org/2000/svg">
<path d="M38.5179 35H3.48207C2.71028 35 2.22941 34.1628 2.61829 33.4961L20.1362 3.4654C20.5221 2.80389 21.4779 2.80389 21.8638 3.46539L39.3817 33.4961C39.7706 34.1628 39.2897 35 38.5179 35Z" fill="#F8D3A8" stroke="#EBA96C" stroke-width="2"/>
<path fill-rule="evenodd" clip-rule="evenodd" d="M21 13C19.8954 13 19 13.8954 19 15V23C19 24.1046 19.8954 25 21 25C22.1046 25 23 24.1046 23 23V15C23 13.8954 22.1046 13 21 13ZM21 31C19.8954 31 19 30.1046 19 29C19 27.8954 19.8954 27 21 27C22.1046 27 23 27.8954 23 29C23 30.1046 22.1046 31 21 31Z" fill="white"/>
</svg>
