<svg width="36" height="36" viewBox="0 0 36 36" fill="none" xmlns="http://www.w3.org/2000/svg">
<path d="M36 0H0V36H36V0Z" fill="black"/>
<path d="M20.3398 8.89203C19.6738 8.51403 18.8998 8.28003 18.0898 8.28003H13.5898C14.8318 8.28003 15.8398 9.28803 15.8398 10.53V15.03V17.28H18.0898C18.9178 17.28 19.6738 17.064 20.3398 16.668C20.8438 16.38 21.2758 16.002 21.6178 15.552C22.2298 14.778 22.5898 13.824 22.5898 12.762C22.5898 11.124 21.6898 9.66603 20.3398 8.89203Z" fill="#D85111"/>
<path d="M21.6178 15.57C21.2578 16.02 20.8258 16.398 20.3398 16.686C19.6738 17.064 18.8998 17.298 18.0898 17.298H15.8398V15.03V10.53C15.8398 9.28803 14.8318 8.28003 13.5898 8.28003C12.3478 8.28003 11.3398 9.28803 11.3398 10.53V15.03V17.28V24.03V26.28H13.5898H19.2058C19.6018 26.28 19.9618 26.244 20.3218 26.172C22.8958 25.65 24.8218 23.382 24.8218 20.664C24.8398 18.414 23.5258 16.47 21.6178 15.57Z" fill="white"/>
</svg>
