<svg width="32" height="32" viewBox="0 0 46 46" fill="none" xmlns="http://www.w3.org/2000/svg">
<circle cx="23" cy="23" r="23" fill="#8347E5"/>
<g clip-path="url(#clip0_6455_11591)">
<path d="M20.4737 32.4737C24.3112 32.4737 27.4211 29.3638 27.4211 25.5263C27.4211 21.6888 24.3112 18.5789 20.4737 18.5789C16.6362 18.5789 13.5263 21.6888 13.5263 25.5263C13.5263 29.3638 16.6362 32.4737 20.4737 32.4737ZM20.4737 35C15.2417 35 11 30.7583 11 25.5263C11 20.2943 15.2417 16.0526 20.4737 16.0526C25.7057 16.0526 29.9474 20.2943 29.9474 25.5263C29.9474 30.7583 25.7057 35 20.4737 35Z" fill="white"/>
<path d="M25.5264 27.4211C29.3639 27.4211 32.4738 24.3112 32.4738 20.4737C32.4738 16.6362 29.3639 13.5263 25.5264 13.5263C21.6889 13.5263 18.5791 16.6362 18.5791 20.4737C18.5791 24.3112 21.6889 27.4211 25.5264 27.4211ZM25.5264 29.9474C20.2944 29.9474 16.0527 25.7057 16.0527 20.4737C16.0527 15.2417 20.2944 11 25.5264 11C30.7584 11 35.0001 15.2417 35.0001 20.4737C35.0001 25.7057 30.7584 29.9474 25.5264 29.9474Z" fill="white"/>
<path d="M25.8397 29.9473C26.4965 29.1516 26.9664 28.2193 27.2165 27.2164C28.2169 26.9663 29.1492 26.4964 29.9475 25.8396C29.9121 26.9991 29.662 28.141 29.2098 29.2122C28.1412 29.6619 26.9993 29.912 25.8397 29.9473ZM18.7837 18.7836C17.7833 19.0337 16.8511 19.5036 16.0527 20.1604C16.0881 19.0008 16.3382 17.8589 16.7904 16.7903C17.859 16.3406 19.0035 16.0905 20.1605 16.0526C19.5037 16.8484 19.0338 17.7806 18.7837 18.7836Z" fill="white"/>
</g>
<defs>
<clipPath id="clip0_6455_11591">
<rect width="24" height="24" fill="white" transform="translate(11 11)"/>
</clipPath>
</defs>
</svg>
