<svg width="36" height="36" viewBox="0 0 36 36" fill="none" xmlns="http://www.w3.org/2000/svg">
<path d="M18 0.5C27.666 0.5 35.5 8.33396 35.5 18C35.5 27.666 27.666 35.5 18 35.5C8.33396 35.5 0.5 27.666 0.5 18C0.5 8.33396 8.33396 0.5 18 0.5Z" stroke="#FBCC5C"/>
<g clip-path="url(#clip0_6454_11551)">
<path d="M16.0228 25.4142C19.0261 25.4142 21.4599 22.9804 21.4599 19.9772C21.4599 16.9739 19.0261 14.5401 16.0228 14.5401C13.0196 14.5401 10.5858 16.9739 10.5858 19.9772C10.5858 22.9804 13.0196 25.4142 16.0228 25.4142ZM16.0228 27.3914C11.9282 27.3914 8.60864 24.0718 8.60864 19.9772C8.60864 15.8826 11.9282 12.563 16.0228 12.563C20.1174 12.563 23.437 15.8826 23.437 19.9772C23.437 24.0718 20.1174 27.3914 16.0228 27.3914Z" fill="#FBCC5C"/>
<path d="M19.9772 21.4599C22.9804 21.4599 25.4142 19.0261 25.4142 16.0228C25.4142 13.0196 22.9804 10.5858 19.9772 10.5858C16.9739 10.5858 14.5401 13.0196 14.5401 16.0228C14.5401 19.0261 16.9739 21.4599 19.9772 21.4599ZM19.9772 23.437C15.8826 23.437 12.563 20.1174 12.563 16.0228C12.563 11.9282 15.8826 8.60864 19.9772 8.60864C24.0718 8.60864 27.3914 11.9282 27.3914 16.0228C27.3914 20.1174 24.0718 23.437 19.9772 23.437Z" fill="#35D07F"/>
<path d="M20.2223 23.4371C20.7364 22.8143 21.1041 22.0848 21.2999 21.2999C22.0828 21.1041 22.8124 20.7364 23.4371 20.2223C23.4094 21.1298 23.2137 22.0235 22.8598 22.8618C22.0235 23.2137 21.1298 23.4094 20.2223 23.4371ZM14.7003 14.7003C13.9173 14.896 13.1878 15.2637 12.563 15.7778C12.5907 14.8703 12.7864 13.9766 13.1403 13.1403C13.9766 12.7884 14.8723 12.5926 15.7778 12.563C15.2637 13.1858 14.896 13.9153 14.7003 14.7003Z" fill="#5EA33B"/>
</g>
<defs>
<clipPath id="clip0_6454_11551">
<rect width="18.7826" height="18.7826" fill="white" transform="translate(8.60864 8.60864)"/>
</clipPath>
</defs>
</svg>
