<svg width="32" height="32" viewBox="0 0 32 32" fill="none" xmlns="http://www.w3.org/2000/svg">
<path d="M31.9998 15.9999C31.9998 24.8365 24.8365 32 16 32C7.1634 32 0 24.8365 0 15.9999C0 7.1634 7.1634 0 16 0C24.8364 0 31.9998 7.1634 31.9998 15.9999Z" fill="#8850EA"/>
<path d="M11.2001 15.8205L15.9987 8V13.6766L11.2001 15.8205Z" fill="white"/>
<path d="M15.9987 13.6766V8L20.7968 15.8205L15.9987 13.6766Z" fill="white"/>
<path d="M15.9987 20L15.9999 24L20.7968 17.1563L15.9987 20Z" fill="white"/>
<path d="M15.9987 20L15.9999 24L11.2001 17L15.9987 20Z" fill="white"/>
<path d="M15.999 18.6063L20.7968 15.8205L15.999 13.6779V18.6063Z" fill="white"/>
<path d="M15.999 18.6063L11.2001 15.8205L15.999 13.6779V18.6063Z" fill="white"/>
</svg>
