<?xml version="1.0" encoding="utf-8"?>
<svg width="27" height="28" viewBox="0 0 27 28" fill="none"
	xmlns="http://www.w3.org/2000/svg">
	<path fill-rule="evenodd" clip-rule="evenodd" d="M6.80028 5.89822C6.83818 6.04983 6.98979 6.13826 7.14139 6.08773L19.775 2.70193C20.0782 2.62613 20.0403 2.18395 19.7244 2.15868L5.85276 0.907957C5.66326 0.895324 5.51166 1.07219 5.56219 1.24906L6.80028 5.89822ZM8.06367 14.1732L6.21917 7.28791L5.97913 6.39093L4.99371 2.72719C4.9179 2.44925 4.5389 2.44925 4.4631 2.72719L0.925694 15.9293C0.87516 16.1314 1.05203 16.3209 1.2668 16.2704L7.87416 14.5017C8.01313 14.4764 8.10157 14.3248 8.06367 14.1732ZM22.3901 2.9546C22.7818 2.85353 23.2113 3.0304 23.4135 3.38414L26.7108 9.10715C26.7993 9.25876 26.7235 9.46089 26.5466 9.51143L9.30175 14.1101C9.15014 14.1606 8.99854 14.0722 8.96064 13.9205L7.19194 7.31318C7.1414 7.16158 7.22984 7.00998 7.38144 6.97208L22.3901 2.9546ZM8.44264 15.6008C8.40474 15.4492 8.25314 15.3608 8.10154 15.4113L1.49417 17.18C1.29204 17.2305 1.21624 17.4959 1.36784 17.6348L11.0704 27.4132C11.2726 27.6154 11.601 27.4258 11.5379 27.1479L8.44264 15.6008ZM9.52912 15.0197L25.978 10.6106C26.2433 10.5474 26.4328 10.838 26.2686 11.0527L13.0918 27.6785C12.9528 27.8554 12.6749 27.7922 12.6117 27.5775L9.33962 15.3608C9.28908 15.2092 9.37752 15.0576 9.52912 15.0197Z" fill="#7733FF"/>
</svg>