<?xml version="1.0" standalone="yes"?>
<svg xmlns="http://www.w3.org/2000/svg" width="440" height="440">
<path style="fill:#010101; stroke:none;" d="M0 0L0 440L440 440L440 0L0 0z"/>
<path style="fill:#018d73; stroke:none;" d="M211 9.42438C157.047 16.5084 108.187 31.258 69.0394 72.0008C-20.0322 164.702 -6.84677 321.635 101 394.33C119.71 406.942 140.19 416.877 162 422.848C190.745 430.718 220.516 432.689 250 428.718C353.808 414.734 433.548 320.589 430.985 216C428.686 122.148 363.598 38.4199 272 15.6266C252.991 10.8963 230.586 6.85278 211 9.42438z"/>
<path style="fill:#010101; stroke:none;" d="M276 211C273.095 175.435 233.394 153.849 201 163.439C177.011 170.541 160.091 193.11 159.039 218C157.673 250.333 183.948 275.913 215 278.83C234.071 280.622 254.064 270.024 265.239 255C269.13 249.769 273.011 232.97 279.058 231.318C285.858 229.46 294.965 231 302 231L352 231C359.561 231 373.622 233.678 379.775 228.486C390.784 219.197 376.864 211.044 368 211.001C337.335 210.851 306.665 211 276 211z"/>
</svg>
