<svg width="32" height="32" viewBox="0 0 32 32" fill="none" xmlns="http://www.w3.org/2000/svg">
<circle cx="16" cy="16" r="16" fill="url(#paint0_linear_5139_10993)"/>
<path d="M21.117 7C20.0889 6.9992 19.1025 7.40637 18.3743 8.13212C17.6461 8.85788 17.2356 9.84291 17.233 10.871V15.163C16.833 15.19 16.424 15.207 16 15.207C15.576 15.207 15.169 15.224 14.767 15.248V10.871C14.7506 9.85183 14.3343 8.87993 13.6078 8.16497C12.8813 7.45002 11.9028 7.04932 10.8835 7.04932C9.86419 7.04932 8.88574 7.45002 8.15922 8.16497C7.4327 8.87993 7.01636 9.85183 7 10.871V21.129C7.01636 22.1482 7.4327 23.1201 8.15922 23.835C8.88574 24.55 9.86419 24.9507 10.8835 24.9507C11.9028 24.9507 12.8813 24.55 13.6078 23.835C14.3343 23.1201 14.7506 22.1482 14.767 21.129V16.837C15.167 16.81 15.576 16.793 16 16.793C16.424 16.793 16.831 16.776 17.233 16.752V21.129C17.2494 22.1482 17.6657 23.1201 18.3922 23.835C19.1187 24.55 20.0972 24.9507 21.1165 24.9507C22.1358 24.9507 23.1143 24.55 23.8408 23.835C24.5673 23.1201 24.9836 22.1482 25 21.129V10.871C24.9974 9.84308 24.587 8.8582 23.859 8.13248C23.1311 7.40675 22.1449 6.99947 21.117 7V7ZM10.883 8.586C11.4897 8.58573 12.0718 8.82617 12.5015 9.25454C12.9312 9.68292 13.1734 10.2643 13.175 10.871V15.416C12.0388 15.5806 10.9292 15.8944 9.875 16.349C9.41823 16.5495 8.98825 16.8061 8.595 17.113V10.871C8.59659 10.265 8.83825 9.68422 9.26707 9.25596C9.6959 8.82769 10.2769 8.58679 10.883 8.586V8.586ZM13.175 21.129C13.175 21.7369 12.9335 22.3199 12.5037 22.7497C12.0739 23.1795 11.4909 23.421 10.883 23.421C10.2751 23.421 9.69214 23.1795 9.26231 22.7497C8.83248 22.3199 8.591 21.7369 8.591 21.129V20.1C8.591 19.191 9.311 18.33 10.518 17.794C11.3685 17.4271 12.2608 17.1661 13.175 17.017V21.129V21.129ZM21.117 23.414C20.5103 23.4143 19.9282 23.1738 19.4985 22.7455C19.0688 22.3171 18.8266 21.7357 18.825 21.129V16.584C19.9612 16.4194 21.0708 16.1057 22.125 15.651C22.5818 15.4505 23.0118 15.1939 23.405 14.887V21.129C23.4034 21.7351 23.1618 22.3158 22.7329 22.7441C22.3041 23.1723 21.7231 23.4132 21.117 23.414V23.414ZM21.482 14.2C20.6315 14.5669 19.7392 14.8279 18.825 14.977V10.871C18.825 10.2631 19.0665 9.68015 19.4963 9.25031C19.9261 8.82048 20.5091 8.579 21.117 8.579C21.7249 8.579 22.3079 8.82048 22.7377 9.25031C23.1675 9.68015 23.409 10.2631 23.409 10.871V11.9C23.409 12.805 22.689 13.666 21.482 14.2Z" fill="white"/>
<defs>
<linearGradient id="paint0_linear_5139_10993" x1="2.02667" y1="29.6159" x2="29.8672" y2="1.7759" gradientUnits="userSpaceOnUse">
<stop stop-color="#00AEE9"/>
<stop offset="1" stop-color="#69FABD"/>
</linearGradient>
</defs>
</svg>
