<svg width="46" height="46" viewBox="0 0 46 46" fill="none" xmlns="http://www.w3.org/2000/svg">
<g filter="url(#filter0_i_6203_11637)">
<path d="M45 23C45 35.1503 35.1503 45 23 45C10.8497 45 1 35.1503 1 23C1 10.8497 10.8497 1 23 1C35.1503 1 45 10.8497 45 23Z" stroke="#A93EC1" stroke-width="2"/>
<path d="M45.2812 23C45.2812 35.3056 35.3056 45.2812 23 45.2812C10.6944 45.2812 0.71875 35.3056 0.71875 23C0.71875 10.6944 10.6944 0.71875 23 0.71875C35.3056 0.71875 45.2812 10.6944 45.2812 23Z" stroke="url(#paint0_linear_6203_11637)"/>
</g>
<path fill-rule="evenodd" clip-rule="evenodd" d="M12.6706 12.2702C12.9434 12.161 13.2553 12.229 13.458 12.4419L21.802 21.2032V12.9375C21.802 12.5406 22.1238 12.2188 22.5207 12.2188H32.1041C32.501 12.2188 32.8229 12.5406 32.8229 12.9375V23L32.8227 23.0153V33.0625C32.8227 33.3564 32.6438 33.6207 32.3709 33.7298C32.0979 33.8391 31.7861 33.7711 31.5835 33.5582L23.2396 24.797V33.0625C23.2396 33.4594 22.9178 33.7813 22.5209 33.7813H12.9375C12.5406 33.7813 12.2188 33.4594 12.2188 33.0625V12.9375C12.2188 12.6437 12.3977 12.3794 12.6706 12.2702ZM21.8021 25.1761L14.6165 32.3438H21.8021V25.1761ZM13.6562 31.2736L21.23 23.7188H13.6562V31.2736ZM13.6562 14.7344L20.8438 22.2813H13.6562V14.7344ZM24.7042 22.2813H31.3854V15.6169L24.7042 22.2813ZM31.3177 13.6563H23.2395V21.7143L31.3177 13.6563ZM24.1977 23.7188L31.3852 31.2657V23.7188H24.1977Z" fill="#A93EC1"/>
<defs>
<filter id="filter0_i_6203_11637" x="0" y="0" width="46" height="46" filterUnits="userSpaceOnUse" color-interpolation-filters="sRGB">
<feFlood flood-opacity="0" result="BackgroundImageFix"/>
<feBlend mode="normal" in="SourceGraphic" in2="BackgroundImageFix" result="shape"/>
<feColorMatrix in="SourceAlpha" type="matrix" values="0 0 0 0 0 0 0 0 0 0 0 0 0 0 0 0 0 0 127 0" result="hardAlpha"/>
<feOffset/>
<feGaussianBlur stdDeviation="7.5"/>
<feComposite in2="hardAlpha" operator="arithmetic" k2="-1" k3="1"/>
<feColorMatrix type="matrix" values="0 0 0 0 0.831373 0 0 0 0 0.619608 0 0 0 0 1 0 0 0 0.1 0"/>
<feBlend mode="normal" in2="shape" result="effect1_innerShadow_6203_11637"/>
</filter>
<linearGradient id="paint0_linear_6203_11637" x1="9.775" y1="4.025" x2="28.063" y2="39.7594" gradientUnits="userSpaceOnUse">
<stop stop-color="#D49EFF" stop-opacity="0.1"/>
<stop offset="1" stop-color="#D49EFF" stop-opacity="0"/>
</linearGradient>
</defs>
</svg>
