<svg width="28" height="26" viewBox="0 0 28 26" fill="none" xmlns="http://www.w3.org/2000/svg">
<path fill-rule="evenodd" clip-rule="evenodd" d="M8.03414 1.14271C9.593 -0.380903 12.1112 -0.380903 13.67 1.14271L17.3873 4.79136C18.9861 6.39516 18.9861 8.96123 17.3873 10.565L10.912 16.9401L15.5487 21.511C16.428 22.3931 16.428 23.7964 15.5886 24.6785C14.7093 25.5606 13.3103 25.5606 12.4309 24.7186L1.19913 13.6924C-0.399708 12.0886 -0.399708 9.48247 1.19913 7.91877L8.03414 1.14271ZM7.71437 13.7726L13.9099 7.67819L10.8321 4.67107L4.63662 10.7655L7.71437 13.7726Z" fill="#3CEAAA"/>
<path fill-rule="evenodd" clip-rule="evenodd" d="M17.4838 4.27932C19.0373 2.75748 21.5468 2.75748 23.1003 4.27932L26.8048 7.92372C28.3981 9.52566 28.3981 12.0888 26.8048 13.6907L15.6116 24.704C14.7353 25.5851 13.3013 25.545 12.4648 24.6639C11.5885 23.7829 11.6283 22.3411 12.5047 21.5001L17.1253 16.9346L13.8191 13.6506C12.2258 12.0487 12.2258 9.48561 13.8191 7.88367L17.4838 4.27932ZM20.312 13.8108L23.3791 10.8072L20.312 7.80358L17.2448 10.8072L20.312 13.8108Z" fill="#03BCE4"/>
<path opacity="0.95" d="M17.1382 10.8219L13.9218 7.72412L10.8623 10.8219L14.0003 14.0001L17.1382 10.8219Z" fill="#00A5E1"/>
</svg>
