<svg width="29" height="8" viewBox="0 0 29 8" fill="none" xmlns="http://www.w3.org/2000/svg">
<path d="M18.3193 7.65971H17.1344C16.9149 7.65971 16.7284 7.48416 16.7284 7.25375V4.13777L14.6548 5.43244C14.4792 5.54216 14.2598 5.54216 14.0842 5.43244L12.0215 4.13777V7.25375C12.0215 7.47319 11.846 7.65971 11.6156 7.65971H10.4416C10.2222 7.65971 10.0356 7.48416 10.0356 7.25375V1.24123C10.0356 0.944992 10.277 0.703613 10.5733 0.703613C10.683 0.703613 10.7817 0.736529 10.8695 0.802359L14.1391 3.05157C14.2707 3.15031 14.4573 3.15031 14.5889 3.05157L17.8585 0.802359C18.0999 0.637783 18.44 0.703613 18.6046 0.944992C18.6704 1.03277 18.6924 1.14248 18.7033 1.24123V7.25375C18.7143 7.47319 18.5388 7.65971 18.3193 7.65971Z" fill="#FF4A4A"/>
<path d="M8.26857 7.64916H0.917499C0.621261 7.64916 0.379883 7.40778 0.379883 7.11155V1.06611C0.390855 0.835704 0.566403 0.660156 0.796809 0.660156H1.98176C2.20119 0.660156 2.38771 0.835704 2.38771 1.06611V5.66328H6.84225V1.06611C6.84225 0.846676 7.01779 0.660156 7.2482 0.660156H8.40024C8.61967 0.660156 8.80619 0.835704 8.80619 1.06611V7.11155C8.80619 7.40778 8.56481 7.64916 8.26857 7.64916Z" fill="#FF4A4A"/>
<path d="M20.4917 0.660156H27.8428C28.139 0.660156 28.3804 0.901535 28.3804 1.19777V7.24321C28.3804 7.46264 28.2049 7.64916 27.9854 7.64916H26.8005C26.581 7.64916 26.3945 7.47362 26.3945 7.24321V2.90937C26.3945 2.76673 26.2738 2.64604 26.1312 2.64604H22.2143C22.0716 2.64604 21.951 2.76673 21.951 2.90937V7.24321C21.951 7.46264 21.7754 7.64916 21.545 7.64916H20.3601C20.1406 7.64916 19.9541 7.47362 19.9541 7.24321V1.19777C19.9541 0.901535 20.1955 0.660156 20.4917 0.660156Z" fill="#FF4A4A"/>
<path d="M23.5744 3.91821H24.7484C24.9678 3.91821 25.1543 4.09376 25.1543 4.32417V5.52009C25.1543 5.73952 24.9788 5.92604 24.7484 5.92604H23.5744C23.355 5.92604 23.1685 5.7505 23.1685 5.52009V4.3132C23.1685 4.09376 23.355 3.91821 23.5744 3.91821Z" fill="#FF4A4A"/>
</svg>
