<svg width="24" height="24" viewBox="0 0 24 24" fill="none" xmlns="http://www.w3.org/2000/svg">
<circle cx="12" cy="12" r="10" stroke="#1F1F33" stroke-width="2"/>
<path d="M11.4781 18V6H12.2469V18H11.4781ZM13.5172 9.96094C13.4797 9.58281 13.3188 9.28906 13.0344 9.07969C12.75 8.87031 12.3641 8.76562 11.8766 8.76562C11.5453 8.76562 11.2656 8.8125 11.0375 8.90625C10.8094 8.99688 10.6344 9.12344 10.5125 9.28594C10.3937 9.44844 10.3344 9.63281 10.3344 9.83906C10.3281 10.0109 10.3641 10.1609 10.4422 10.2891C10.5234 10.4172 10.6344 10.5281 10.775 10.6219C10.9156 10.7125 11.0781 10.7922 11.2625 10.8609C11.4469 10.9266 11.6438 10.9828 11.8531 11.0297L12.7156 11.2359C13.1344 11.3297 13.5188 11.4547 13.8688 11.6109C14.2188 11.7672 14.5219 11.9594 14.7781 12.1875C15.0344 12.4156 15.2328 12.6844 15.3734 12.9938C15.5172 13.3031 15.5906 13.6578 15.5937 14.0578C15.5906 14.6453 15.4406 15.1547 15.1437 15.5859C14.85 16.0141 14.425 16.3469 13.8688 16.5844C13.3156 16.8187 12.6484 16.9359 11.8672 16.9359C11.0922 16.9359 10.4172 16.8172 9.84219 16.5797C9.27031 16.3422 8.82344 15.9906 8.50156 15.525C8.18281 15.0562 8.01563 14.4766 8 13.7859H9.96406C9.98594 14.1078 10.0781 14.3766 10.2406 14.5922C10.4062 14.8047 10.6266 14.9656 10.9016 15.075C11.1797 15.1813 11.4938 15.2344 11.8438 15.2344C12.1875 15.2344 12.4859 15.1844 12.7391 15.0844C12.9953 14.9844 13.1938 14.8453 13.3344 14.6672C13.475 14.4891 13.5453 14.2844 13.5453 14.0531C13.5453 13.8375 13.4813 13.6563 13.3531 13.5094C13.2281 13.3625 13.0438 13.2375 12.8 13.1344C12.5594 13.0312 12.2641 12.9375 11.9141 12.8531L10.8688 12.5906C10.0594 12.3937 9.42031 12.0859 8.95156 11.6672C8.48281 11.2484 8.25 10.6844 8.25313 9.975C8.25 9.39375 8.40469 8.88594 8.71719 8.45156C9.03281 8.01719 9.46563 7.67813 10.0156 7.43438C10.5656 7.19063 11.1906 7.06875 11.8906 7.06875C12.6031 7.06875 13.225 7.19063 13.7563 7.43438C14.2906 7.67813 14.7062 8.01719 15.0031 8.45156C15.3 8.88594 15.4531 9.38906 15.4625 9.96094H13.5172Z" fill="#1F1F33"/>
</svg>
