<svg width="28" height="26" viewBox="0 0 28 26" fill="none" xmlns="http://www.w3.org/2000/svg">
<path d="M20.0064 21.6581C19.8983 23.1757 15.8319 24.1225 10.924 23.773C6.01598 23.4234 2.1249 21.9097 2.23299 20.3921C2.34108 18.8745 6.40742 17.9277 11.3154 18.2773C16.2234 18.6268 20.1145 20.1405 20.0064 21.6581Z" fill="black"/>
<path d="M6.66504 7.13379H6.78227V7.25102H6.66504V7.13379Z" fill="#C4C4C4"/>
<path fill-rule="evenodd" clip-rule="evenodd" d="M13.6243 21.6158C17.3157 21.0561 20.4916 18.347 21.4604 14.4996C22.4291 10.6523 20.9148 6.76215 17.9287 4.52104L18.1093 3.80367L14.5284 2.90203L14.4716 2.88772L14.4716 2.88789C9.37322 1.63668 4.21446 4.73615 2.93085 9.83398C1.64725 14.9318 4.72307 20.1047 9.80601 21.4171L9.77734 21.5309L13.415 22.4469L13.6243 21.6158Z" fill="#E51B6D"/>
<path fill-rule="evenodd" clip-rule="evenodd" d="M14.1313 2.31851L18.6784 3.46345L18.4581 4.33836C21.4251 6.71484 22.9043 10.6852 21.915 14.6141C20.9257 18.543 17.7427 21.3395 14.0041 22.0275L13.7551 23.0161L9.20802 21.8711L9.23998 21.7442C4.1768 20.1864 1.16762 14.9158 2.47603 9.71948C3.78443 4.52315 8.93079 1.30603 14.1279 2.33174L14.1313 2.31851ZM10.3464 21.1907L13.0747 21.8777L13.2456 21.199L13.5539 21.1522C17.0651 20.6198 20.0845 18.0429 21.0056 14.3851C21.9266 10.7273 20.4875 7.02778 17.6471 4.89607L17.3977 4.70891L17.54 4.14388L14.3868 3.34992L14.3597 3.34328C9.51164 2.15349 4.60606 5.10085 3.38545 9.94847C2.16485 14.7961 5.08972 19.7151 9.92312 20.9631L10.3744 21.0796L10.3464 21.1907Z" fill="black"/>
<path d="M25.0981 15.4155C23.8097 20.5323 18.6173 23.6358 13.5005 22.3475C8.38371 21.0591 5.28017 15.8667 6.56855 10.7499C7.85693 5.63308 13.0493 2.52955 18.1661 3.81793C23.2829 5.1063 26.3865 10.2987 25.0981 15.4155Z" fill="white"/>
<path fill-rule="evenodd" clip-rule="evenodd" d="M18.0515 4.27263C13.1859 3.04748 8.24829 5.9987 7.02315 10.8644C5.798 15.73 8.74922 20.6676 13.6149 21.8927C18.4805 23.1179 23.4181 20.1667 24.6433 15.301C25.8684 10.4354 22.9172 5.49778 18.0515 4.27263ZM6.11372 10.6354C7.46534 5.26745 12.9126 2.01159 18.2805 3.36321C23.6484 4.71482 26.9043 10.1621 25.5527 15.53C24.2011 20.8979 18.7538 24.1538 13.3859 22.8022C8.01797 21.4506 4.76211 16.0033 6.11372 10.6354Z" fill="black"/>
<path fill-rule="evenodd" clip-rule="evenodd" d="M2.47901 12.468C2.57592 12.2279 2.84916 12.1117 3.08932 12.2086L6.43027 13.5567C6.67042 13.6536 6.78655 13.9269 6.68965 14.167C6.59274 14.4072 6.3195 14.5233 6.07934 14.4264L2.73839 13.0783C2.49824 12.9814 2.38211 12.7082 2.47901 12.468Z" fill="black"/>
<path fill-rule="evenodd" clip-rule="evenodd" d="M2.94776 15.1643C3.04467 14.9241 3.31791 14.808 3.55807 14.9049L6.89902 16.253C7.13917 16.3499 7.2553 16.6232 7.1584 16.8633C7.06149 17.1035 6.78825 17.2196 6.54809 17.1227L3.20714 15.7746C2.96699 15.6777 2.85086 15.4045 2.94776 15.1643Z" fill="black"/>
<path d="M8.98905 14.8708H9.97536L10.4882 13.0397H10.5376L11.0628 14.8708H12.0417L12.9589 11.5885H11.8839L11.4918 13.613H11.4425L10.9173 11.5885H10.1085L9.60796 13.613H9.55864L9.15672 11.5885H8.07178L8.98905 14.8708Z" fill="black"/>
<path d="M13.5779 14.8708H16.088V14.1066H14.6233V13.5766H15.9968V12.8851H14.6233V12.3528H16.088V11.5885H13.5779V14.8708Z" fill="black"/>
<path d="M17.6538 14.8708H18.6993V12.3528H19.6881V11.5885H16.665V12.3528H17.6538V14.8708Z" fill="black"/>
<path d="M20.3193 14.8708H21.3648V13.5993H22.6174V14.8708H23.6629V11.5885H22.6174V12.835H21.3648V11.5885H20.3193V14.8708Z" fill="black"/>
</svg>
