<svg width="28" height="28" viewBox="0 0 28 28" fill="none" xmlns="http://www.w3.org/2000/svg">
<path d="M13.9998 26.455C20.8758 26.455 26.4499 20.8809 26.4499 14.005C26.4499 7.129 20.8758 1.55493 13.9998 1.55493C7.12388 1.55493 1.5498 7.129 1.5498 14.005C1.5498 20.8809 7.12388 26.455 13.9998 26.455Z" fill="#90A4DE"/>
<path d="M13.9993 0.293701C11.2883 0.293701 8.6381 1.09762 6.38394 2.6038C4.12978 4.10998 2.37288 6.25078 1.33541 8.75546C0.297931 11.2602 0.0264807 14.0162 0.555381 16.6752C1.08428 19.3342 2.38978 21.7766 4.30678 23.6936C6.22379 25.6106 8.6662 26.9161 11.3252 27.445C13.9841 27.9739 16.7402 27.7024 19.2449 26.665C21.7496 25.6275 23.8904 23.8706 25.3966 21.6164C26.9027 19.3623 27.7067 16.7121 27.7067 14.001C27.7068 12.2009 27.3524 10.4184 26.6636 8.75528C25.9748 7.09216 24.9651 5.58102 23.6922 4.30814C22.4193 3.03527 20.9082 2.0256 19.2451 1.3368C17.582 0.647994 15.7994 0.293547 13.9993 0.293701ZM14.1363 25.7662C10.7578 25.7533 8.56392 22.2858 10.1057 19.2796C10.8315 17.8642 11.9998 16.9101 13.7348 16.9476C14.203 16.9581 14.6713 16.9476 15.1314 16.9862C16.2248 17.0799 16.8932 17.8654 17.523 18.6158C18.1529 19.3662 18.9173 19.5008 19.8211 19.3931C20.4216 19.3217 20.7236 19.0419 20.6628 18.4496C20.6089 17.9239 20.8044 17.5622 21.2177 17.259C21.6309 16.9558 21.8779 16.58 21.8662 16.0251C21.8662 15.8109 22.05 15.5709 22.1975 15.3789C22.4878 15.0008 22.5944 14.6484 22.2806 14.2176C21.9539 13.7803 21.66 13.3194 21.4014 12.8386C21.1462 12.3516 21.0023 11.8049 20.7435 11.3167C20.5024 10.8636 20.2647 10.3193 19.8667 10.0535C18.524 9.15916 17.118 8.35725 15.7179 7.55183C15.4572 7.41567 15.1605 7.36411 14.8691 7.40433C14.2522 7.49447 13.8378 7.24512 13.4479 6.80846C13.1031 6.43772 12.731 6.09336 12.3346 5.77827C11.9764 5.48092 11.6919 5.58043 11.5374 6.0206C11.404 6.39756 11.3876 6.93021 11.1242 7.11283C10.8608 7.29546 10.3351 7.11869 9.9336 7.16902C8.13663 7.39379 6.34317 7.64431 4.54854 7.88664C4.35889 7.9124 4.17159 7.94752 3.82624 8.00371C3.99248 7.7087 4.07676 7.53544 4.17744 7.37974C5.49566 5.35999 7.39903 3.79079 9.6331 2.88193C11.8672 1.97307 14.3255 1.76788 16.6793 2.29378C19.0331 2.81968 21.1703 4.05162 22.8051 5.82488C24.44 7.59813 25.4945 9.82821 25.8277 12.2169C26.8134 19.413 21.3078 25.7967 14.1363 25.7662Z" fill="#010718"/>
<path d="M14 28C11.231 28 8.52421 27.1789 6.2219 25.6405C3.91959 24.1021 2.12517 21.9155 1.06558 19.3573C0.00598666 16.7991 -0.271189 13.9841 0.269099 11.2683C0.809386 8.55254 2.14287 6.05798 4.10093 4.1001C6.05898 2.14221 8.55365 0.80893 11.2695 0.26887C13.9853 -0.271191 16.8002 0.00622245 19.3584 1.06603C21.9165 2.12583 24.1029 3.92043 25.6411 6.22287C27.1793 8.52531 28.0002 11.2322 28 14.0012C27.996 17.7129 26.5196 21.2714 23.895 23.8958C21.2703 26.5203 17.7117 27.9963 14 28ZM14 0.586509C11.3468 0.586509 8.75324 1.37327 6.54721 2.84729C4.34118 4.32131 2.62179 6.41639 1.60647 8.8676C0.591145 11.3188 0.325492 14.0161 0.843099 16.6182C1.36071 19.2204 2.63833 21.6107 4.5144 23.4868C6.39048 25.3628 8.78074 26.6405 11.3829 27.1581C13.9851 27.6757 16.6824 27.41 19.1336 26.3947C21.5848 25.3794 23.6799 23.66 25.1539 21.454C26.6279 19.2479 27.4147 16.6543 27.4147 14.0012C27.4106 10.4446 25.996 7.03489 23.4812 4.52002C20.9663 2.00516 17.5566 0.590537 14 0.586509Z" fill="#FFDEB8"/>
</svg>
