<svg width="20" height="23" viewBox="0 0 20 23" fill="none" xmlns="http://www.w3.org/2000/svg">
<rect width="14" height="20" rx="2" fill="#8850EA"/>
<path fill-rule="evenodd" clip-rule="evenodd" d="M2.5 5C2.32877 5 2.16155 4.98278 2 4.94999L2 15.05C2.16155 15.0172 2.32877 15 2.5 15C3.88074 15 5 16.1193 5 17.5C5 17.6712 4.98278 17.8384 4.94999 18L9.05001 18C9.01721 17.8384 9 17.6712 9 17.5C9 16.1193 10.1193 15 11.5 15C11.6712 15 11.8384 15.0172 12 15.05L12 4.94999C11.8384 4.98278 11.6712 5 11.5 5C10.1193 5 9 3.88071 9 2.5C9 2.32877 9.01721 2.16155 9.05001 2L4.94999 2C4.98279 2.16155 5 2.32877 5 2.5C5 3.88071 3.88074 5 2.5 5ZM6.99041 12.9642C8.64727 12.9642 9.99041 11.621 9.99041 9.96418C9.99041 8.30733 8.64727 6.96418 6.99041 6.96418C5.33356 6.96418 3.99041 8.30733 3.99041 9.96418C3.99041 11.621 5.33356 12.9642 6.99041 12.9642Z" fill="white"/>
<rect x="9" y="12" width="9" height="9" rx="4.5" fill="white" stroke="white" stroke-width="4"/>
<rect x="8" y="11" width="11" height="11" rx="5.5" fill="#8850EA"/>
<path d="M11 16L13 18L16 15" stroke="white" stroke-linecap="round" stroke-linejoin="round"/>
</svg>
