<svg width="22" height="22" viewBox="0 0 22 22" fill="none" xmlns="http://www.w3.org/2000/svg">
<path fill-rule="evenodd" clip-rule="evenodd" d="M10.2016 1C9.66495 1 9.20058 1.37339 9.08538 1.89754L8.74725 3.43605C8.67835 3.74952 8.44667 4.00031 8.15022 4.1233C7.85358 4.24637 7.51503 4.23163 7.24449 4.05858L5.91746 3.20976C5.46538 2.92058 4.87299 2.98491 4.49352 3.36439L3.36442 4.49349C2.98495 4.87296 2.92062 5.46534 3.20978 5.91742L4.05858 7.24442C4.23164 7.51498 4.24638 7.85354 4.12331 8.1502C4.00031 8.44667 3.74951 8.67836 3.43602 8.74726L1.89754 9.08539C1.37339 9.20058 1 9.66495 1 10.2016V11.7984C1 12.335 1.37339 12.7994 1.89754 12.9146L3.43602 13.2527C3.74951 13.3216 4.00031 13.5533 4.12331 13.8498C4.24638 14.1465 4.23164 14.485 4.05858 14.7556L3.20978 16.0826C2.92062 16.5347 2.98495 17.127 3.36442 17.5065L4.49352 18.6356C4.87299 19.0151 5.46538 19.0794 5.91746 18.7902L7.24449 17.9414C7.51503 17.7684 7.85358 17.7536 8.15022 17.8767C8.44667 17.9997 8.67835 18.2505 8.74725 18.564L9.08538 20.1025C9.20058 20.6266 9.66495 21 10.2016 21H11.7984C12.3351 21 12.7994 20.6266 12.9146 20.1025L13.2527 18.564C13.3216 18.2505 13.5533 17.9997 13.8498 17.8767C14.1464 17.7536 14.485 17.7684 14.7556 17.9414L16.0826 18.7903C16.5347 19.0794 17.1271 19.0151 17.5065 18.6356L18.6357 17.5065C19.0151 17.127 19.0795 16.5347 18.7903 16.0826L17.9414 14.7555C17.7684 14.4849 17.7536 14.1464 17.8767 13.8498C17.9997 13.5533 18.2505 13.3216 18.564 13.2527L20.1025 12.9146C20.6266 12.7994 21 12.335 21 11.7984V10.2016C21 9.66495 20.6266 9.20058 20.1025 9.08539L18.564 8.74726C18.2505 8.67836 17.9997 8.44668 17.8767 8.15022C17.7536 7.85359 17.7684 7.51505 17.9414 7.24451L18.7903 5.91742C19.0795 5.46534 19.0151 4.87296 18.6357 4.49349L17.5065 3.36438C17.1271 2.98491 16.5347 2.92058 16.0826 3.20975L14.7556 4.05858C14.485 4.23164 14.1464 4.24638 13.8498 4.1233C13.5533 4.00031 13.3216 3.74951 13.2527 3.43602L12.9146 1.89754C12.7994 1.37339 12.3351 1 11.7984 1H10.2016ZM10.8571 14.7143C12.8296 14.7143 14.4286 13.1153 14.4286 11.1429C14.4286 9.17041 12.8296 7.57143 10.8571 7.57143C8.8847 7.57143 7.28571 9.17041 7.28571 11.1429C7.28571 13.1153 8.8847 14.7143 10.8571 14.7143Z" fill="#F3F4F4" stroke="#6200EE" stroke-width="2"/>
</svg>
