<svg width="20" height="20" viewBox="0 0 20 20" fill="none" xmlns="http://www.w3.org/2000/svg">
<path d="M9.99984 18.3334C5.39734 18.3334 1.6665 14.6025 1.6665 10C1.6665 5.39752 5.39734 1.66669 9.99984 1.66669C14.6023 1.66669 18.3332 5.39752 18.3332 10C18.3332 14.6025 14.6023 18.3334 9.99984 18.3334ZM7.08317 11.6667V13.3334H9.1665V15H10.8332V13.3334H11.6665C12.219 13.3334 12.7489 13.1139 13.1396 12.7232C13.5303 12.3325 13.7498 11.8026 13.7498 11.25C13.7498 10.6975 13.5303 10.1676 13.1396 9.77688C12.7489 9.38618 12.219 9.16669 11.6665 9.16669H8.33317C8.22266 9.16669 8.11668 9.12279 8.03854 9.04465C7.9604 8.96651 7.9165 8.86053 7.9165 8.75002C7.9165 8.63951 7.9604 8.53353 8.03854 8.45539C8.11668 8.37725 8.22266 8.33335 8.33317 8.33335H12.9165V6.66669H10.8332V5.00002H9.1665V6.66669H8.33317C7.78064 6.66669 7.25073 6.88618 6.86003 7.27688C6.46933 7.66758 6.24984 8.19748 6.24984 8.75002C6.24984 9.30255 6.46933 9.83246 6.86003 10.2232C7.25073 10.6139 7.78064 10.8334 8.33317 10.8334H11.6665C11.777 10.8334 11.883 10.8773 11.9611 10.9554C12.0393 11.0335 12.0832 11.1395 12.0832 11.25C12.0832 11.3605 12.0393 11.4665 11.9611 11.5446C11.883 11.6228 11.777 11.6667 11.6665 11.6667H7.08317Z" fill="black"/>
</svg>
