<svg width="16" height="13" viewBox="0 0 16 13" fill="none" xmlns="http://www.w3.org/2000/svg">
<path d="M8.57732 1.00005L14.928 12.0001C14.9865 12.1014 15.0173 12.2164 15.0173 12.3334C15.0173 12.4504 14.9865 12.5654 14.928 12.6667C14.8695 12.7681 14.7853 12.8522 14.684 12.9107C14.5826 12.9692 14.4677 13 14.3506 13.0001H1.64932C1.53229 13 1.41733 12.9692 1.31599 12.9107C1.21464 12.8522 1.13049 12.7681 1.07198 12.6667C1.01347 12.5654 0.982665 12.4504 0.982666 12.3334C0.982667 12.2164 1.01347 12.1014 1.07198 12.0001L7.42265 1.00005C7.48116 0.898714 7.56532 0.814563 7.66666 0.756056C7.76801 0.697549 7.88296 0.666748 7.99998 0.666748C8.117 0.666748 8.23196 0.697549 8.3333 0.756056C8.43464 0.814563 8.5188 0.898714 8.57732 1.00005ZM2.80398 11.6667H13.196L7.99998 2.66672L2.80398 11.6667ZM7.33332 9.66672H8.66665V11.0001H7.33332V9.66672ZM7.33332 5.00005H8.66665V8.33339H7.33332V5.00005Z" fill="#F2943E"/>
</svg>
