<svg width="18" height="19" viewBox="0 0 18 19" fill="none" xmlns="http://www.w3.org/2000/svg">
<path d="M15.666 13.1667H17.3327V14.8333H0.666016V13.1667H2.33268V7.33333C2.33268 5.56522 3.03506 3.86953 4.2853 2.61929C5.53555 1.36905 7.23124 0.666668 8.99935 0.666668C10.7675 0.666668 12.4632 1.36905 13.7134 2.61929C14.9636 3.86953 15.666 5.56522 15.666 7.33333V13.1667ZM13.9993 13.1667V7.33333C13.9993 6.00725 13.4726 4.73548 12.5349 3.7978C11.5972 2.86012 10.3254 2.33333 8.99935 2.33333C7.67327 2.33333 6.4015 2.86012 5.46382 3.7978C4.52613 4.73548 3.99935 6.00725 3.99935 7.33333V13.1667H13.9993ZM6.49935 16.5H11.4993V18.1667H6.49935V16.5Z" fill="black"/>
</svg>
