<svg width="12" height="16" viewBox="0 0 12 16" fill="none" xmlns="http://www.w3.org/2000/svg">
<path d="M2 7H6.5C7.16304 7 7.79893 6.73661 8.26777 6.26777C8.73661 5.79893 9 5.16304 9 4.5C9 3.83696 8.73661 3.20107 8.26777 2.73223C7.79893 2.26339 7.16304 2 6.5 2H2V7ZM12 11.5C12 12.0909 11.8836 12.6761 11.6575 13.2221C11.4313 13.768 11.0998 14.2641 10.682 14.682C10.2641 15.0998 9.76804 15.4313 9.22208 15.6575C8.67611 15.8836 8.09095 16 7.5 16H0V0H6.5C7.38096 3.69151e-05 8.24253 0.258653 8.97787 0.743778C9.71322 1.2289 10.29 1.9192 10.6367 2.72907C10.9834 3.53894 11.0847 4.43276 10.9282 5.29969C10.7716 6.16663 10.3641 6.96854 9.756 7.606C10.4386 8.0013 11.0053 8.56917 11.3992 9.25265C11.7931 9.93612 12.0003 10.7112 12 11.5ZM2 9V14H7.5C8.16304 14 8.79893 13.7366 9.26777 13.2678C9.73661 12.7989 10 12.163 10 11.5C10 10.837 9.73661 10.2011 9.26777 9.73223C8.79893 9.26339 8.16304 9 7.5 9H2Z" fill="#8D8B87"/>
</svg>
