<svg width="18" height="17" viewBox="0 0 18 17" fill="none" xmlns="http://www.w3.org/2000/svg">
<path d="M2.33333 11.3333H15.6667V2.16667H2.33333V11.3333ZM9.83333 13V14.6667H13.1667V16.3333H4.83333V14.6667H8.16666V13H1.49333C1.3839 12.9993 1.27567 12.9771 1.17486 12.9345C1.07404 12.892 0.982616 12.83 0.905819 12.752C0.829023 12.674 0.768367 12.5817 0.727327 12.4802C0.686287 12.3788 0.665671 12.2703 0.66666 12.1608V1.33917C0.66666 0.875833 1.04583 0.5 1.49333 0.5H16.5067C16.9633 0.5 17.3333 0.874167 17.3333 1.33917V12.1608C17.3333 12.6242 16.9542 13 16.5067 13H9.83333Z" fill="#1D1919"/>
</svg>
