<svg width="18" height="18" viewBox="0 0 18 18" fill="none" xmlns="http://www.w3.org/2000/svg">
<path d="M13.7729 11.6521L12.7124 10.5901L13.7729 9.52955C14.1237 9.18189 14.4023 8.76837 14.5928 8.31275C14.7832 7.85712 14.8818 7.36836 14.8829 6.87453C14.884 6.38069 14.7875 5.8915 14.5991 5.43505C14.4106 4.97859 14.1338 4.56386 13.7846 4.21466C13.4354 3.86547 13.0207 3.58868 12.5642 3.4002C12.1077 3.21171 11.6186 3.11524 11.1247 3.11632C10.6309 3.1174 10.1421 3.21602 9.6865 3.4065C9.23088 3.59698 8.81736 3.87558 8.4697 4.2263L7.4092 5.28755L6.34795 4.22705L7.40995 3.16655C8.39456 2.18194 9.72999 1.62878 11.1224 1.62878C12.5149 1.62878 13.8503 2.18194 14.8349 3.16655C15.8196 4.15117 16.3727 5.48659 16.3727 6.87905C16.3727 8.27151 15.8196 9.60694 14.8349 10.5916L13.7737 11.6521H13.7729ZM11.6519 13.7731L10.5907 14.8336C9.60608 15.8182 8.27066 16.3713 6.8782 16.3713C5.48574 16.3713 4.15031 15.8182 3.1657 14.8336C2.18108 13.8489 1.62793 12.5135 1.62793 11.1211C1.62793 9.72859 2.18108 8.39317 3.1657 7.40855L4.22695 6.34805L5.28745 7.41005L4.22695 8.47055C3.87622 8.81822 3.59763 9.23173 3.40714 9.68736C3.21666 10.143 3.11805 10.6317 3.11697 11.1256C3.11589 11.6194 3.21236 12.1086 3.40084 12.5651C3.58933 13.0215 3.86611 13.4362 4.21531 13.7854C4.56451 14.1346 4.97924 14.4114 5.43569 14.5999C5.89215 14.7884 6.38133 14.8849 6.87517 14.8838C7.36901 14.8827 7.85777 14.7841 8.31339 14.5936C8.76902 14.4031 9.18253 14.1245 9.5302 13.7738L10.5907 12.7133L11.6519 13.7738V13.7731ZM11.1209 5.8178L12.1822 6.87905L6.87895 12.1816L5.8177 11.1211L11.1209 5.81855V5.8178Z" fill="#1D1919"/>
</svg>
