<svg width="80" height="40" viewBox="0 0 80 40" fill="none" xmlns="http://www.w3.org/2000/svg">
<g filter="url(#filter0_d_158_6197)">
<rect x="4" y="2" width="32" height="32" rx="16" fill="white"/>
<path d="M24.9811 28.6704C24.8533 28.7194 24.7505 28.5631 24.841 28.4602C27.2997 25.6716 28.7914 22.01 28.7914 17.9999C28.7914 13.9899 27.2997 10.3282 24.841 7.53943C24.7505 7.43671 24.8533 7.28033 24.9811 7.32952C29.2665 8.97798 32.3078 13.1338 32.3078 17.9999C32.3078 22.866 29.2665 27.0218 24.9811 28.6704Z" fill="#00C2FF"/>
<path d="M25.9244 11.2822C25.9815 11.4121 25.8003 11.5425 25.6857 11.459C25.1515 11.0699 24.2047 10.5275 23.077 10.5275C20.8792 10.5275 17.8023 13.1648 17.8023 18C17.8023 22.8352 20.0001 25.4725 22.6374 25.4725C24.058 25.4725 25.1112 24.9217 25.6786 24.532C25.7955 24.4517 25.9815 24.588 25.9244 24.7178C24.5034 27.9486 21.5963 30.3077 18.2418 30.3077C12.9011 30.3077 7.69238 24.7974 7.69238 18C7.69238 11.2027 12.9011 5.69232 18.2418 5.69232C21.5963 5.69232 24.5034 8.05144 25.9244 11.2822Z" fill="url(#paint0_radial_158_6197)"/>
</g>
<g filter="url(#filter1_d_158_6197)">
<rect x="24" y="2" width="32" height="32" rx="16" fill="white"/>
<g clip-path="url(#clip0_158_6197)">
<path d="M48.5185 17.9985H46.4266C45.8018 17.9985 45.2955 18.5047 45.2955 19.1295V22.1659C45.2955 22.7906 44.7893 23.2969 44.1645 23.2969H35.842C35.2172 23.2969 34.7109 23.8032 34.7109 24.428V26.5199C34.7109 27.1447 35.2172 27.651 35.842 27.651H44.6462C45.271 27.651 45.7701 27.1447 45.7701 26.5199V24.8415C45.7701 24.2167 46.2763 23.7736 46.9011 23.7736H48.5181C49.1429 23.7736 49.6492 23.2673 49.6492 22.6425V19.1164C49.6492 18.4916 49.1429 17.9985 48.5181 17.9985H48.5185Z" fill="#121312"/>
<path d="M34.7105 13.8425C34.7105 13.2177 35.2168 12.7115 35.8416 12.7115H44.159C44.7838 12.7115 45.29 12.2052 45.29 11.5804V9.48848C45.29 8.86369 44.7838 8.35742 44.159 8.35742H35.3594C34.7346 8.35742 34.2284 8.86369 34.2284 9.48848V11.1004C34.2284 11.7252 33.7221 12.2315 33.0973 12.2315H31.4875C30.8627 12.2315 30.3564 12.7377 30.3564 13.3625V16.8924C30.3564 17.5172 30.8648 17.9981 31.4896 17.9981H33.5816C34.2064 17.9981 34.7126 17.4918 34.7126 16.867L34.7105 13.843V13.8425Z" fill="#121312"/>
<path d="M39.0181 15.7994H41.0275C41.6824 15.7994 42.2136 16.3311 42.2136 16.9855V18.9949C42.2136 19.6498 41.6819 20.181 41.0275 20.181H39.0181C38.3633 20.181 37.832 19.6493 37.832 18.9949V16.9855C37.832 16.3307 38.3637 15.7994 39.0181 15.7994Z" fill="#121312"/>
</g>
</g>
<g filter="url(#filter2_d_158_6197)">
<rect x="44" y="2" width="32" height="32" rx="16" fill="white"/>
<g clip-path="url(#clip1_158_6197)">
<path d="M58.4404 25.9463C61.4797 25.9463 63.9433 23.4826 63.9433 20.4434C63.9433 17.4042 61.4797 14.9406 58.4404 14.9406C55.4012 14.9406 52.9376 17.4042 52.9376 20.4434C52.9376 23.4826 55.4012 25.9463 58.4404 25.9463ZM58.4404 27.9473C54.2963 27.9473 50.9365 24.5875 50.9365 20.4434C50.9365 16.2992 54.2963 12.9395 58.4404 12.9395C62.5846 12.9395 65.9444 16.2992 65.9444 20.4434C65.9444 24.5875 62.5846 27.9473 58.4404 27.9473Z" fill="#FBCC5C"/>
<path d="M62.4434 21.944C65.4826 21.944 67.9463 19.4803 67.9463 16.4411C67.9463 13.4019 65.4826 10.9382 62.4434 10.9382C59.4042 10.9382 56.9406 13.4019 56.9406 16.4411C56.9406 19.4803 59.4042 21.944 62.4434 21.944ZM62.4434 23.945C58.2992 23.945 54.9395 20.5853 54.9395 16.4411C54.9395 12.297 58.2992 8.93719 62.4434 8.93719C66.5875 8.93719 69.9473 12.297 69.9473 16.4411C69.9473 20.5853 66.5875 23.945 62.4434 23.945Z" fill="#35D07F"/>
<path d="M62.6896 23.9409C63.2097 23.3108 63.5824 22.5725 63.7806 21.7798C64.5732 21.5817 65.3115 21.2091 65.9417 20.6891C65.9129 21.6068 65.7153 22.5114 65.3586 23.3575C64.5125 23.7143 63.6077 23.9122 62.6898 23.9409H62.6896ZM57.1045 15.1039C56.3119 15.3021 55.5735 15.6748 54.9434 16.1947C54.9721 15.277 55.1698 14.3724 55.5265 13.5264C56.3727 13.1696 57.2774 12.9719 58.1952 12.9432C57.6754 13.5733 57.3027 14.3115 57.1045 15.1039Z" fill="#5EA33B"/>
</g>
</g>
<defs>
<filter id="filter0_d_158_6197" x="0" y="0" width="40" height="40" filterUnits="userSpaceOnUse" color-interpolation-filters="sRGB">
<feFlood flood-opacity="0" result="BackgroundImageFix"/>
<feColorMatrix in="SourceAlpha" type="matrix" values="0 0 0 0 0 0 0 0 0 0 0 0 0 0 0 0 0 0 127 0" result="hardAlpha"/>
<feOffset dy="2"/>
<feGaussianBlur stdDeviation="2"/>
<feColorMatrix type="matrix" values="0 0 0 0 0.113725 0 0 0 0 0.0980392 0 0 0 0 0.0980392 0 0 0 0.1 0"/>
<feBlend mode="normal" in2="BackgroundImageFix" result="effect1_dropShadow_158_6197"/>
<feBlend mode="normal" in="SourceGraphic" in2="effect1_dropShadow_158_6197" result="shape"/>
</filter>
<filter id="filter1_d_158_6197" x="20" y="0" width="40" height="40" filterUnits="userSpaceOnUse" color-interpolation-filters="sRGB">
<feFlood flood-opacity="0" result="BackgroundImageFix"/>
<feColorMatrix in="SourceAlpha" type="matrix" values="0 0 0 0 0 0 0 0 0 0 0 0 0 0 0 0 0 0 127 0" result="hardAlpha"/>
<feOffset dy="2"/>
<feGaussianBlur stdDeviation="2"/>
<feColorMatrix type="matrix" values="0 0 0 0 0.113725 0 0 0 0 0.0980392 0 0 0 0 0.0980392 0 0 0 0.1 0"/>
<feBlend mode="normal" in2="BackgroundImageFix" result="effect1_dropShadow_158_6197"/>
<feBlend mode="normal" in="SourceGraphic" in2="effect1_dropShadow_158_6197" result="shape"/>
</filter>
<filter id="filter2_d_158_6197" x="40" y="0" width="40" height="40" filterUnits="userSpaceOnUse" color-interpolation-filters="sRGB">
<feFlood flood-opacity="0" result="BackgroundImageFix"/>
<feColorMatrix in="SourceAlpha" type="matrix" values="0 0 0 0 0 0 0 0 0 0 0 0 0 0 0 0 0 0 127 0" result="hardAlpha"/>
<feOffset dy="2"/>
<feGaussianBlur stdDeviation="2"/>
<feColorMatrix type="matrix" values="0 0 0 0 0.113725 0 0 0 0 0.0980392 0 0 0 0 0.0980392 0 0 0 0.1 0"/>
<feBlend mode="normal" in2="BackgroundImageFix" result="effect1_dropShadow_158_6197"/>
<feBlend mode="normal" in="SourceGraphic" in2="effect1_dropShadow_158_6197" result="shape"/>
</filter>
<radialGradient id="paint0_radial_158_6197" cx="0" cy="0" r="1" gradientUnits="userSpaceOnUse" gradientTransform="translate(22.6374 18) rotate(180) scale(13.2806 17.7075)">
<stop offset="0.156146" stop-color="#006585"/>
<stop offset="1" stop-color="#00C2FF"/>
</radialGradient>
<clipPath id="clip0_158_6197">
<rect width="20" height="20" fill="white" transform="translate(30 8)"/>
</clipPath>
<clipPath id="clip1_158_6197">
<rect width="20" height="20" fill="white" transform="translate(50 8)"/>
</clipPath>
</defs>
</svg>
