<svg width="24" height="24" viewBox="0 0 24 24" fill="none" xmlns="http://www.w3.org/2000/svg">
<path d="M12 22C6.477 22 2 17.523 2 12C2 6.477 6.477 2 12 2C17.523 2 22 6.477 22 12C22 17.523 17.523 22 12 22ZM12 20C14.1217 20 16.1566 19.1571 17.6569 17.6569C19.1571 16.1566 20 14.1217 20 12C20 9.87827 19.1571 7.84344 17.6569 6.34315C16.1566 4.84285 14.1217 4 12 4C9.87827 4 7.84344 4.84285 6.34315 6.34315C4.84285 7.84344 4 9.87827 4 12C4 14.1217 4.84285 16.1566 6.34315 17.6569C7.84344 19.1571 9.87827 20 12 20ZM7 17C7 15.6739 7.52678 14.4021 8.46447 13.4645C9.40215 12.5268 10.6739 12 12 12C13.3261 12 14.5979 12.5268 15.5355 13.4645C16.4732 14.4021 17 15.6739 17 17H15C15 16.2044 14.6839 15.4413 14.1213 14.8787C13.5587 14.3161 12.7956 14 12 14C11.2044 14 10.4413 14.3161 9.87868 14.8787C9.31607 15.4413 9 16.2044 9 17H7ZM8 11C7.60218 11 7.22064 10.842 6.93934 10.5607C6.65804 10.2794 6.5 9.89782 6.5 9.5C6.5 9.10218 6.65804 8.72064 6.93934 8.43934C7.22064 8.15804 7.60218 8 8 8C8.39782 8 8.77936 8.15804 9.06066 8.43934C9.34196 8.72064 9.5 9.10218 9.5 9.5C9.5 9.89782 9.34196 10.2794 9.06066 10.5607C8.77936 10.842 8.39782 11 8 11ZM16 11C15.6022 11 15.2206 10.842 14.9393 10.5607C14.658 10.2794 14.5 9.89782 14.5 9.5C14.5 9.10218 14.658 8.72064 14.9393 8.43934C15.2206 8.15804 15.6022 8 16 8C16.3978 8 16.7794 8.15804 17.0607 8.43934C17.342 8.72064 17.5 9.10218 17.5 9.5C17.5 9.89782 17.342 10.2794 17.0607 10.5607C16.7794 10.842 16.3978 11 16 11Z" fill="#1D1919"/>
</svg>
