<svg width="106" height="24" viewBox="0 0 106 24" fill="none" xmlns="http://www.w3.org/2000/svg">
<path d="M11.7573 18.4597C14.0367 18.4597 15.8845 16.6119 15.8845 14.3325C15.8845 12.0532 14.0367 10.2054 11.7573 10.2054C9.47793 10.2054 7.63017 12.0532 7.63017 14.3325C7.63017 16.6119 9.47793 18.4597 11.7573 18.4597ZM11.7573 19.9605C8.64922 19.9605 6.12939 17.4406 6.12939 14.3325C6.12939 11.2244 8.64922 8.70459 11.7573 8.70459C14.8655 8.70459 17.3853 11.2244 17.3853 14.3325C17.3853 17.4406 14.8655 19.9605 11.7573 19.9605Z" fill="#FBCC5C"/>
<path d="M14.7588 15.458C17.0382 15.458 18.886 13.6102 18.886 11.3308C18.886 9.05142 17.0382 7.20365 14.7588 7.20365C12.4795 7.20365 10.6317 9.05142 10.6317 11.3308C10.6317 13.6102 12.4795 15.458 14.7588 15.458ZM14.7588 16.9588C11.6507 16.9588 9.13086 14.4389 9.13086 11.3308C9.13086 8.2227 11.6507 5.70288 14.7588 5.70288C17.8669 5.70288 20.3867 8.2227 20.3867 11.3308C20.3867 14.4389 17.8669 16.9588 14.7588 16.9588Z" fill="#35D07F"/>
<path d="M14.9435 16.9557C15.3335 16.4831 15.6131 15.9293 15.7617 15.3348C16.3562 15.1863 16.9099 14.9068 17.3825 14.5168C17.361 15.2051 17.2128 15.8835 16.9452 16.5181C16.3106 16.7857 15.632 16.9341 14.9436 16.9557H14.9435ZM10.7546 10.3279C10.1602 10.4766 9.60642 10.7561 9.13379 11.146C9.15535 10.4577 9.30363 9.77926 9.57114 9.14474C10.2058 8.87718 10.8843 8.7289 11.5727 8.7074C11.1828 9.17997 10.9033 9.73358 10.7546 10.3279Z" fill="#5EA33B"/>
<path d="M34.5041 18.9635C33.5393 18.9635 32.609 18.7981 31.7132 18.4674C30.8173 18.1366 30.018 17.668 29.3151 17.0616C28.6122 16.4414 28.054 15.704 27.6405 14.8496C27.2409 13.9813 27.041 13.0234 27.041 11.976C27.041 10.9699 27.2546 10.0396 27.6819 9.18508C28.1091 8.33058 28.6949 7.58634 29.4391 6.95236C30.1834 6.31838 31.031 5.82912 31.9819 5.48456C32.9467 5.12622 33.9597 4.94706 35.0209 4.94706C35.5584 4.94706 36.0132 4.96773 36.3853 5.00908C36.7575 5.05042 37.1158 5.11244 37.4603 5.19514C37.8187 5.26405 38.2321 5.36052 38.7007 5.48456C38.9075 5.53969 39.0522 5.62238 39.1349 5.73264C39.2314 5.8429 39.2865 5.9945 39.3003 6.18745C39.3278 6.50444 39.3623 6.849 39.4036 7.22112C39.445 7.57945 39.4725 8.02737 39.4863 8.56488C39.5001 8.66135 39.4519 8.74405 39.3416 8.81296C39.2451 8.86809 39.1349 8.88187 39.0108 8.8543C38.9006 8.82674 38.8248 8.73715 38.7834 8.58555C38.6456 8.06183 38.4871 7.61391 38.3079 7.24179C38.1288 6.85589 37.86 6.5389 37.5017 6.29082C37.1571 6.05652 36.7368 5.88424 36.2406 5.77399C35.7582 5.64995 35.2345 5.58793 34.6695 5.58793C33.8701 5.58793 33.1258 5.75331 32.4367 6.08409C31.7614 6.40108 31.1757 6.84211 30.6795 7.40718C30.1971 7.95846 29.8181 8.58555 29.5425 9.28844C29.2668 9.99133 29.129 10.7218 29.129 11.4798C29.129 12.3205 29.2599 13.1475 29.5218 13.9606C29.7975 14.7737 30.1834 15.5111 30.6795 16.1726C31.1895 16.8204 31.789 17.3441 32.4781 17.7438C33.181 18.1297 33.9597 18.3227 34.8142 18.3227C35.8065 18.3227 36.6265 18.0953 37.2743 17.6404C37.922 17.1856 38.4733 16.5517 38.9281 15.7385C39.0246 15.5593 39.1624 15.4697 39.3416 15.4697C39.5346 15.4697 39.631 15.58 39.631 15.8005C39.631 15.9108 39.6035 16.0899 39.5483 16.338C39.4932 16.5723 39.4174 16.8273 39.3209 17.1029C39.2382 17.3648 39.1556 17.5991 39.0729 17.8058C38.9764 17.9988 38.8937 18.1228 38.8248 18.1779C38.7696 18.2331 38.6318 18.2951 38.4113 18.364C37.9014 18.5707 37.2881 18.7223 36.5714 18.8188C35.8685 18.9153 35.1794 18.9635 34.5041 18.9635ZM45.1706 18.9635C44.4126 18.9635 43.7511 18.7775 43.186 18.4054C42.6209 18.0332 42.1799 17.5095 41.8629 16.8342C41.5459 16.1451 41.3874 15.3526 41.3874 14.4568C41.3874 13.6574 41.5666 12.9338 41.9249 12.2861C42.2971 11.6245 42.7863 11.0939 43.3927 10.6942C43.9992 10.2945 44.6607 10.0947 45.3774 10.0947C45.9287 10.0947 46.4179 10.205 46.8452 10.4255C47.2724 10.646 47.6032 10.9561 47.8375 11.3558C48.0856 11.7417 48.2096 12.1896 48.2096 12.6995C48.2096 13.1268 48.0029 13.3404 47.5894 13.3404H43.2274C43.0344 13.3404 42.8966 13.3955 42.8139 13.5058C42.745 13.6023 42.7105 13.8021 42.7105 14.1053C42.7105 14.7669 42.8552 15.3733 43.1447 15.9246C43.4341 16.4621 43.82 16.8962 44.3024 17.227C44.7847 17.544 45.3154 17.7025 45.8942 17.7025C46.3077 17.7025 46.6798 17.6267 47.0106 17.4751C47.3551 17.3097 47.6583 17.0754 47.9202 16.7722C47.9753 16.7033 48.0167 16.6619 48.0442 16.6481C48.0718 16.6206 48.1062 16.6068 48.1476 16.6068C48.2578 16.6068 48.313 16.6757 48.313 16.8135C48.313 17.0754 48.1889 17.3648 47.9409 17.6818C47.7341 17.9437 47.486 18.1711 47.1966 18.364C46.9072 18.557 46.5902 18.7017 46.2457 18.7981C45.9011 18.9084 45.5428 18.9635 45.1706 18.9635ZM43.2687 12.6995H45.15C45.4807 12.6995 45.7633 12.6926 45.9976 12.6789C46.2319 12.6651 46.4593 12.6375 46.6798 12.5962C46.7487 12.5824 46.79 12.541 46.8038 12.4721C46.8314 12.3894 46.8452 12.2792 46.8452 12.1414C46.8452 11.7417 46.666 11.404 46.3077 11.1284C45.9631 10.8389 45.5497 10.6942 45.0673 10.6942C44.7503 10.6942 44.4333 10.7907 44.1163 10.9836C43.7993 11.1628 43.5375 11.3902 43.3307 11.6659C43.124 11.9415 43.0206 12.2172 43.0206 12.4928C43.0206 12.6306 43.1033 12.6995 43.2687 12.6995ZM49.6288 18.7155C49.5599 18.7155 49.4703 18.7017 49.3601 18.6741C49.2636 18.6603 49.2154 18.6121 49.2154 18.5294C49.2154 18.4191 49.2636 18.3433 49.3601 18.302C49.4703 18.2469 49.5806 18.1986 49.6908 18.1573C49.8976 18.0884 50.0974 18.0126 50.2904 17.9299C50.4833 17.8334 50.5798 17.6473 50.5798 17.3717V6.95236C50.5798 6.55268 50.504 6.22191 50.3524 5.96005C50.2146 5.6844 49.9734 5.51213 49.6288 5.44321C49.5186 5.41565 49.4634 5.32607 49.4634 5.17446C49.4634 5.03664 49.5117 4.95395 49.6081 4.92638C49.9665 4.84369 50.2766 4.761 50.5384 4.6783C50.8003 4.58183 51.0415 4.48535 51.262 4.38888C51.4963 4.2924 51.7237 4.20282 51.9442 4.12013C51.9994 4.09256 52.0407 4.07878 52.0683 4.07878C52.0958 4.07878 52.1165 4.09945 52.1303 4.1408C52.1578 4.16836 52.1716 4.19593 52.1716 4.22349C52.1716 4.34753 52.1441 4.61628 52.0889 5.02975C52.0476 5.42943 52.0269 6.09787 52.0269 7.03506V17.3717C52.0269 17.6473 52.1234 17.8334 52.3163 17.9299C52.5093 18.0126 52.7091 18.0884 52.9159 18.1573C53.0261 18.1986 53.1295 18.2469 53.226 18.302C53.3362 18.3433 53.3914 18.4191 53.3914 18.5294C53.3914 18.6121 53.3362 18.6603 53.226 18.6741C53.1295 18.7017 53.0468 18.7155 52.9779 18.7155C52.716 18.7155 52.5024 18.7017 52.337 18.6741C52.1854 18.6603 52.0338 18.6465 51.8822 18.6328C51.7444 18.619 51.5514 18.6121 51.3034 18.6121C51.0691 18.6121 50.8761 18.619 50.7245 18.6328C50.5729 18.6465 50.4213 18.6603 50.2697 18.6741C50.1181 18.7017 49.9045 18.7155 49.6288 18.7155ZM58.6266 18.9429C57.8548 18.9429 57.1588 18.7637 56.5386 18.4054C55.9184 18.047 55.4222 17.5577 55.0501 16.9376C54.6917 16.3036 54.5126 15.5869 54.5126 14.7875C54.5126 14.2087 54.6228 13.6436 54.8434 13.0923C55.0776 12.541 55.4015 12.038 55.815 11.5832C56.2285 11.1284 56.7108 10.77 57.2621 10.5082C57.8134 10.2325 58.406 10.0947 59.04 10.0947C59.8392 10.0947 60.5562 10.2876 61.19 10.6736C61.8376 11.0595 62.3479 11.5694 62.7197 12.2034C63.1059 12.8236 63.299 13.5058 63.299 14.25C63.299 15.0494 63.1196 15.8074 62.7613 16.5241C62.4168 17.2408 61.8999 17.8265 61.2108 18.2813C60.5217 18.7223 59.6602 18.9429 58.6266 18.9429ZM59.0607 18.3227C59.5293 18.3227 59.9496 18.2331 60.3215 18.0539C60.694 17.8747 60.9833 17.5853 61.19 17.1856C61.3552 16.8686 61.4657 16.4827 61.5209 16.0279C61.5762 15.5731 61.6035 15.1459 61.6035 14.7462C61.6035 14.0846 61.4794 13.4507 61.2316 12.8442C60.997 12.224 60.6595 11.721 60.2182 11.3351C59.7912 10.9354 59.2812 10.7356 58.6886 10.7356C58.3165 10.7356 57.9788 10.7976 57.6756 10.9216C57.3862 11.0319 57.1174 11.2455 56.8693 11.5625C56.5937 11.9071 56.4145 12.3274 56.3318 12.8236C56.2491 13.3197 56.2078 13.8159 56.2078 14.312C56.2078 14.9874 56.3318 15.6351 56.5799 16.2553C56.828 16.8617 57.1656 17.3579 57.5929 17.7438C58.0201 18.1297 58.5094 18.3227 59.0607 18.3227ZM72.3809 18.9842C71.8017 18.9842 71.2641 18.8946 70.7681 18.7155C70.2857 18.5501 69.8514 18.3089 69.4659 17.9919C69.4106 17.9368 69.3554 17.8747 69.3001 17.8058C69.2592 17.7369 69.2247 17.6611 69.1968 17.5784C69.1279 17.3028 69.0797 16.9444 69.0524 16.5034C69.0388 16.0624 69.018 15.6972 68.99 15.4077C68.99 15.3113 69.0316 15.2423 69.1142 15.201C69.1968 15.1459 69.2936 15.1183 69.4035 15.1183C69.4724 15.1183 69.5413 15.139 69.6102 15.1803C69.6792 15.2079 69.7207 15.263 69.7344 15.3457C70.01 16.4069 70.417 17.165 70.954 17.6198C71.5053 18.0746 72.0774 18.302 72.6702 18.302C73.1526 18.302 73.5798 18.1986 73.9516 17.9919C74.3241 17.7852 74.6134 17.4957 74.8201 17.1236C75.0405 16.7377 75.151 16.2898 75.151 15.7798C75.151 15.2148 75.0542 14.76 74.8617 14.4154C74.6823 14.0571 74.4203 13.747 74.0758 13.4851C73.7312 13.2233 73.3112 12.9407 72.8146 12.6375C72.2776 12.293 71.7465 11.9484 71.2231 11.6038C70.6992 11.2455 70.2649 10.8389 69.9203 10.3841C69.5758 9.91553 69.4035 9.35046 69.4035 8.68892C69.4035 7.98603 69.5621 7.35205 69.8794 6.78698C70.196 6.22191 70.6718 5.77399 71.3057 5.44321C71.9532 5.09866 72.7599 4.92638 73.7247 4.92638C74.2207 4.92638 74.6479 4.98151 75.0061 5.09177C75.3786 5.18824 75.6744 5.28472 75.8954 5.38119C76.0053 5.42254 76.095 5.49145 76.1639 5.58793C76.2465 5.6844 76.3017 5.78777 76.3291 5.89803C76.4122 6.18745 76.5013 6.51822 76.5982 6.89034C76.6944 7.26246 76.7425 7.61391 76.7425 7.94468C76.7425 8.09628 76.6392 8.17209 76.4324 8.17209C76.3089 8.17209 76.1847 8.14452 76.0605 8.08939C75.9501 8.03426 75.8811 7.96535 75.8538 7.88266C75.5645 7.1522 75.2265 6.59403 74.8409 6.20813C74.4548 5.82222 73.9659 5.62927 73.373 5.62927C72.9596 5.62927 72.5734 5.70508 72.2152 5.85668C71.857 6.00828 71.5605 6.25636 71.3265 6.60092C71.1061 6.94547 70.9956 7.40718 70.9956 7.98603C70.9956 8.39949 71.1263 8.7785 71.3883 9.12306C71.6639 9.45383 72.0221 9.77082 72.4635 10.074C72.9043 10.3772 73.3801 10.6873 73.8898 11.0043C74.3722 11.2937 74.8409 11.6107 75.2954 11.9553C75.7641 12.2998 76.1431 12.7133 76.4324 13.1957C76.736 13.6643 76.8875 14.2431 76.8875 14.9322C76.8875 15.7454 76.7015 16.4621 76.3291 17.0823C75.9572 17.6887 75.4332 18.1573 74.7584 18.488C74.0829 18.8188 73.2904 18.9842 72.3809 18.9842ZM80.1922 18.9429C79.9439 18.9429 79.6891 18.8464 79.4271 18.6534C79.1788 18.4605 78.9655 18.2262 78.7861 17.9505C78.6209 17.6749 78.5384 17.413 78.5384 17.165C78.5384 16.7239 78.6554 16.3794 78.8895 16.1313C79.1241 15.8832 79.496 15.6558 80.0057 15.4491L82.1146 14.5808C82.3902 14.4705 82.5489 14.3741 82.5898 14.2914C82.6451 14.2087 82.6795 14.0295 82.6932 13.7539L82.7348 12.4308C82.7485 12.0724 82.6451 11.7623 82.4247 11.5005C82.218 11.2386 81.915 11.1077 81.5152 11.1077C81.3085 11.1077 81.1017 11.1421 80.895 11.2111C80.6883 11.28 80.516 11.3696 80.3782 11.4798C80.2956 11.5349 80.2403 11.6176 80.2124 11.7279C80.1851 11.8381 80.1714 11.9553 80.1714 12.0793C80.1714 12.1345 80.1714 12.1965 80.1714 12.2654C80.1851 12.3343 80.1922 12.3963 80.1922 12.4515C80.1922 12.5204 80.1025 12.6168 79.9231 12.7409C79.758 12.8511 79.5649 12.9545 79.3445 13.051C79.1378 13.1337 78.9655 13.175 78.8277 13.175C78.7588 13.175 78.7035 13.1612 78.6619 13.1337C78.6209 13.0923 78.6001 13.0441 78.6001 12.989C78.6001 12.7684 78.6691 12.5341 78.8069 12.2861C78.9584 12.0242 79.1651 11.783 79.4271 11.5625C79.7443 11.2731 80.0889 11.0181 80.4607 10.7976C80.8326 10.5771 81.198 10.4048 81.5562 10.2808C81.915 10.1567 82.2316 10.0947 82.5073 10.0947C83.0033 10.0947 83.4102 10.2739 83.7269 10.6322C84.0578 10.9768 84.2164 11.4109 84.2027 11.9346L84.0994 16.8962C84.0857 17.1856 84.1475 17.4199 84.2853 17.5991C84.4368 17.7783 84.6227 17.8678 84.8437 17.8678C85.1883 17.8678 85.4431 17.792 85.6083 17.6404C85.6772 17.5715 85.7324 17.5371 85.774 17.5371C85.8429 17.5371 85.8976 17.5577 85.9392 17.5991C85.9807 17.6404 86.0009 17.6956 86.0009 17.7645C86.0009 17.9161 85.9255 18.0677 85.774 18.2193C85.553 18.4398 85.3118 18.6121 85.0504 18.7361C84.8021 18.8739 84.5681 18.9429 84.3471 18.9429C83.7132 18.9429 83.21 18.5845 82.8382 17.8678H82.7764C82.3213 18.24 81.8871 18.5087 81.4736 18.6741C81.0601 18.8533 80.633 18.9429 80.1922 18.9429ZM81.1635 17.9505C81.4392 17.9505 81.6738 17.9092 81.8663 17.8265C82.0594 17.73 82.2316 17.606 82.3831 17.4544C82.452 17.3855 82.5073 17.2959 82.5489 17.1856C82.6041 17.0616 82.6386 16.8686 82.6522 16.6068L82.6932 15.5938C82.7075 15.4422 82.7003 15.3319 82.673 15.263C82.6451 15.1941 82.5898 15.1596 82.5073 15.1596C82.4799 15.1596 82.4318 15.1665 82.3629 15.1803C82.294 15.1941 82.2043 15.2217 82.0938 15.263C81.3637 15.5249 80.8534 15.8005 80.5641 16.0899C80.2885 16.3656 80.1506 16.6206 80.1506 16.8549C80.1506 17.2132 80.254 17.4888 80.4607 17.6818C80.6811 17.861 80.9158 17.9505 81.1635 17.9505ZM86.9401 18.7155C86.8023 18.7155 86.699 18.6948 86.63 18.6534C86.5611 18.6259 86.5267 18.5707 86.5267 18.488C86.5267 18.3778 86.5677 18.302 86.6508 18.2606C86.7471 18.2193 86.8641 18.1848 87.0019 18.1573C87.3192 18.0884 87.5467 17.9919 87.6845 17.8678C87.8223 17.73 87.8912 17.5233 87.8912 17.2476V11.4178C87.7534 11.4178 87.5948 11.4178 87.4154 11.4178C87.2366 11.404 87.0364 11.3902 86.816 11.3764C86.7744 11.3627 86.7126 11.3144 86.63 11.2317C86.5611 11.149 86.5267 11.0732 86.5267 11.0043C86.5267 10.9768 86.5475 10.9561 86.5885 10.9423C86.63 10.9147 86.6574 10.8941 86.671 10.8803C86.9194 10.7562 87.1332 10.646 87.312 10.5495C87.4914 10.453 87.6845 10.3566 87.8912 10.2601C87.8912 9.06104 88.0356 8.06183 88.3249 7.26246C88.6285 6.4631 89.014 5.82912 89.4827 5.36052C89.9514 4.89193 90.4475 4.56116 90.9714 4.3682C91.4948 4.16147 91.9843 4.05811 92.4394 4.05811C93.211 4.05811 93.7831 4.17525 94.155 4.40955C94.5269 4.64385 94.7134 4.94017 94.7134 5.2985C94.7134 5.57415 94.6445 5.78088 94.5067 5.9187C94.3689 6.05652 94.2031 6.12543 94.01 6.12543C93.8865 6.12543 93.7689 6.07719 93.659 5.98072C93.5621 5.88424 93.4451 5.77399 93.3073 5.64995C93.1285 5.47078 92.9075 5.30539 92.6461 5.15379C92.3841 4.9884 92.0259 4.90571 91.5708 4.90571C90.9233 4.90571 90.3857 5.18824 89.9586 5.75331C89.5451 6.31838 89.3384 7.18666 89.3384 8.35815V10.1774C89.3384 10.2601 89.3586 10.3152 89.4001 10.3428C89.4554 10.3703 89.5106 10.3841 89.5653 10.3841H92.1495C92.2184 10.3841 92.2807 10.4048 92.336 10.4461C92.3906 10.4875 92.4186 10.5426 92.4186 10.6115C92.4186 10.708 92.4049 10.8114 92.377 10.9216C92.3633 11.0319 92.336 11.1284 92.2944 11.2111C92.2528 11.3213 92.191 11.3764 92.1085 11.3764H89.731C89.5653 11.3764 89.4554 11.404 89.4001 11.4591C89.3586 11.5005 89.3384 11.5625 89.3384 11.6452V17.2476C89.3384 17.5233 89.4275 17.73 89.6069 17.8678C89.7863 17.9919 90.151 18.0884 90.7023 18.1573C91.0196 18.1986 91.1782 18.3089 91.1782 18.488C91.1782 18.5707 91.1437 18.6259 91.0748 18.6534C91.0059 18.6948 90.9025 18.7155 90.7647 18.7155C90.3512 18.7155 89.9859 18.6948 89.6687 18.6534C89.352 18.6259 89.014 18.6121 88.6558 18.6121C88.4217 18.6121 88.2287 18.619 88.0772 18.6328C87.9257 18.6465 87.7671 18.6603 87.6013 18.6741C87.4362 18.7017 87.2158 18.7155 86.9401 18.7155ZM96.4902 18.9635C95.7322 18.9635 95.071 18.7775 94.5061 18.4054C93.9405 18.0332 93.4998 17.5095 93.1825 16.8342C92.8659 16.1451 92.7073 15.3526 92.7073 14.4568C92.7073 13.6574 92.8867 12.9338 93.2449 12.2861C93.6168 11.6245 94.1063 11.0939 94.7128 10.6942C95.3188 10.2945 95.9805 10.0947 96.697 10.0947C97.2483 10.0947 97.7378 10.205 98.1649 10.4255C98.592 10.646 98.9229 10.9561 99.1576 11.3558C99.4053 11.7417 99.5294 12.1896 99.5294 12.6995C99.5294 13.1268 99.3227 13.3404 98.9093 13.3404H94.5471C94.354 13.3404 94.2162 13.3955 94.1336 13.5058C94.0647 13.6023 94.0303 13.8021 94.0303 14.1053C94.0303 14.7669 94.1752 15.3733 94.4645 15.9246C94.7538 16.4621 95.1399 16.8962 95.6223 17.227C96.1047 17.544 96.6352 17.7025 97.2138 17.7025C97.6273 17.7025 97.9997 17.6267 98.3306 17.4751C98.6752 17.3097 98.9782 17.0754 99.2402 16.7722C99.2954 16.7033 99.3364 16.6619 99.3643 16.6481C99.3916 16.6206 99.4261 16.6068 99.4677 16.6068C99.5776 16.6068 99.6328 16.6757 99.6328 16.8135C99.6328 17.0754 99.5087 17.3648 99.2609 17.6818C99.0542 17.9437 98.8059 18.1711 98.5166 18.364C98.2273 18.557 97.91 18.7017 97.5655 18.7981C97.2209 18.9084 96.8627 18.9635 96.4902 18.9635ZM94.5887 12.6995H96.47C96.8003 12.6995 97.0831 12.6926 97.3172 12.6789C97.5518 12.6651 97.7794 12.6375 97.9997 12.5962C98.0687 12.5824 98.1096 12.541 98.1239 12.4721C98.1512 12.3894 98.1649 12.2792 98.1649 12.1414C98.1649 11.7417 97.9861 11.404 97.6273 11.1284C97.2827 10.8389 96.8693 10.6942 96.3869 10.6942C96.0702 10.6942 95.753 10.7907 95.4364 10.9836C95.1192 11.1628 94.8572 11.3902 94.6504 11.6659C94.4437 11.9415 94.3403 12.2172 94.3403 12.4928C94.3403 12.6306 94.4229 12.6995 94.5887 12.6995Z" fill="#2E3338"/>
</svg>
