<svg width="85" height="28" viewBox="0 0 85 28" fill="none" xmlns="http://www.w3.org/2000/svg">
<g clip-path="url(#clip0_263_6684)">
<path d="M40.5643 18.4993C39.5406 18.4993 38.6586 17.8535 37.3828 15.5068L37.0521 14.8925C38.9578 14.7823 40.0761 13.5538 40.0761 11.837C40.0761 9.89975 38.7531 8.75 36.4693 8.75H31.9648V19.6963H33.3036V14.9083H35.5558L36.2016 16.0895C37.6978 18.9245 38.7373 19.7278 40.5171 19.7278C40.6431 19.7278 40.7533 19.712 40.8636 19.6963V18.452C40.7848 18.4835 40.6903 18.4993 40.5643 18.4993ZM36.4693 9.93125C37.9656 9.93125 38.6901 10.6085 38.6901 11.837C38.6901 13.034 37.9813 13.727 36.4693 13.727H33.3036V9.93125H36.4693Z" fill="#1D1919"/>
<path d="M48.343 17.0818C47.8232 18.1213 47.1145 18.7513 45.9017 18.7513C44.4055 18.7513 43.492 17.7748 43.4132 16.2155H49.2565C49.2722 16.121 49.2722 15.932 49.2722 15.7903C49.2722 13.4908 47.9492 11.9473 45.7757 11.9473C43.6337 11.9473 42.043 13.5695 42.043 15.9163C42.043 18.2473 43.681 19.8853 45.9017 19.8853C47.6972 19.8853 48.7525 18.893 49.351 17.7118L48.343 17.0818ZM45.76 13.0655C47.083 13.0655 47.8075 13.8058 47.9177 15.1603H43.4447C43.618 13.853 44.5 13.0655 45.76 13.0655Z" fill="#1D1919"/>
<path d="M54.0406 19.8853C54.9226 19.8853 55.7731 19.4758 56.3243 18.7198V19.6963H57.6316V14.9555C57.6316 13.0025 56.3716 11.9473 54.5603 11.9473C52.8278 11.9473 51.5836 12.9395 51.1898 14.546L52.3711 14.8768C52.6546 13.6955 53.3161 13.0813 54.5446 13.0813C55.6628 13.0813 56.3243 13.8058 56.3243 15.0028V15.995C55.8361 15.5383 55.0643 15.0973 54.0406 15.0973C52.3553 15.0973 51.1426 16.1683 51.1426 17.4913C51.1426 18.9718 52.3553 19.8853 54.0406 19.8853ZM54.1666 18.7985C53.1743 18.7985 52.5286 18.263 52.5286 17.4913C52.5286 16.7353 53.1743 16.1998 54.1666 16.1998C55.0801 16.1998 55.8518 16.7038 56.3243 17.255V17.5385C55.8203 18.263 55.0801 18.7985 54.1666 18.7985Z" fill="#1D1919"/>
<path d="M61.6197 19.6962V8.75H60.3125V19.6962H61.6197Z" fill="#1D1919"/>
<path d="M73.2011 11.9473C72.0829 11.9473 71.1064 12.3095 70.4449 13.3018C70.0196 12.3725 69.1534 11.9473 68.0351 11.9473C67.0271 11.9473 66.1766 12.3568 65.6569 13.0813V12.1363H64.3496V19.6963H65.6569V15.1288C65.6569 13.8058 66.5704 13.0813 67.7359 13.0813C68.9014 13.0813 69.5156 13.8058 69.5156 15.1445V19.6963H70.8229V15.1445C70.8229 13.8058 71.7364 13.0813 72.9019 13.0813C74.0674 13.0813 74.6974 13.8058 74.6974 15.1445V19.6963H76.0046V15.0185C76.0046 13.1285 74.9966 11.9473 73.2011 11.9473Z" fill="#1D1919"/>
<path d="M81.5408 19.8853C83.2733 19.8853 84.5805 19.0663 84.5805 17.57C84.5805 16.0108 83.3835 15.6013 82.1235 15.3808L81.2258 15.2233C80.1705 15.05 79.7768 14.7823 79.7768 14.105C79.7768 13.4278 80.391 13.034 81.4305 13.034C82.6433 13.034 83.1945 13.727 83.352 14.4515L84.5333 14.1365C84.3128 12.8923 83.3363 11.9473 81.4778 11.9473C79.635 11.9473 78.501 12.7978 78.501 14.1208C78.501 15.743 79.7295 16.1525 81.021 16.3888L81.903 16.5305C82.8638 16.7038 83.226 16.94 83.226 17.5858C83.226 18.4048 82.5173 18.7985 81.5723 18.7985C80.3753 18.7985 79.4618 18.3418 79.3358 16.9873L78.123 17.2078C78.1545 19.0505 79.7295 19.8853 81.5408 19.8853Z" fill="#1D1919"/>
<path d="M19.6405 24.6203C19.5132 24.6691 19.4109 24.5136 19.501 24.4112C21.9482 21.6357 23.4328 17.9911 23.4328 13.9999C23.4328 10.0086 21.9482 6.36411 19.501 3.58845C19.4109 3.48621 19.5132 3.33057 19.6405 3.37953C23.9058 5.02026 26.9328 9.15658 26.9328 13.9999C26.9328 18.8432 23.9058 22.9795 19.6405 24.6203Z" fill="#00C2FF"/>
<path d="M20.5801 7.31371C20.637 7.44293 20.4566 7.57277 20.3425 7.48965C19.8109 7.10242 18.8685 6.5625 17.7461 6.5625C15.5586 6.5625 12.4961 9.1875 12.4961 14C12.4961 18.8125 14.6836 21.4375 17.3086 21.4375C18.7225 21.4375 19.7708 20.8892 20.3355 20.5014C20.4518 20.4214 20.637 20.5571 20.5801 20.6863C19.1658 23.9019 16.2723 26.25 12.9336 26.25C7.61786 26.25 2.43359 20.7655 2.43359 14C2.43359 7.23452 7.61786 1.75 12.9336 1.75C16.2723 1.75 19.1658 4.09806 20.5801 7.31371Z" fill="url(#paint0_radial_263_6684)"/>
</g>
<defs>
<radialGradient id="paint0_radial_263_6684" cx="0" cy="0" r="1" gradientUnits="userSpaceOnUse" gradientTransform="translate(17.3086 14) rotate(180) scale(13.2183 17.6245)">
<stop offset="0.156146" stop-color="#006585"/>
<stop offset="1" stop-color="#00C2FF"/>
</radialGradient>
<clipPath id="clip0_263_6684">
<rect width="84" height="28" fill="white" transform="translate(0.683594)"/>
</clipPath>
</defs>
</svg>
