<svg width="40" height="40" viewBox="0 0 40 40" fill="none" xmlns="http://www.w3.org/2000/svg">
<rect width="40" height="40" fill="white"/>
<path d="M36.0459 19.741C36.0459 12.541 31.0459 7.74097 26.0459 5.74097C27.0459 7.74097 31.0459 14.741 31.0459 19.741C31.0459 24.741 27.7126 30.741 26.0459 33.741C31.0459 31.741 36.0459 26.941 36.0459 19.741Z" fill="#00C2FF"/>
<path d="M10.0461 6.74078C6.04616 9.9408 4.37948 16.0742 4.04615 18.7409C3.24615 31.5409 13.0462 35.741 18.0459 35.741C23.0456 35.741 27.0462 30.7411 28.046 28.741C29.0458 26.7408 24.0456 29.7411 21.0459 28.741C18.0462 27.7409 17.0459 22.741 17.046 20.741C17.0461 18.638 17.9638 16.5442 19.0457 14.7409C22.0457 9.74088 27.0464 10.741 27.0464 10.741C24.046 2.74105 15.3782 2.47513 10.0461 6.74078Z" fill="url(#paint0_linear_601_763)"/>
<defs>
<linearGradient id="paint0_linear_601_763" x1="36" y1="20" x2="1" y2="20" gradientUnits="userSpaceOnUse">
<stop stop-color="#0081A9"/>
<stop offset="1" stop-color="#00C2FF"/>
</linearGradient>
</defs>
</svg>
