<svg width="85" height="28" viewBox="0 0 85 28" fill="none" xmlns="http://www.w3.org/2000/svg">
<g clip-path="url(#clip0_1029_5228)">
<path d="M40.7626 18.4993C39.7388 18.4993 38.8568 17.8535 37.5811 15.5068L37.2503 14.8925C39.1561 14.7823 40.2743 13.5538 40.2743 11.837C40.2743 9.89975 38.9513 8.75 36.6676 8.75H32.1631V19.6963H33.5018V14.9083H35.7541L36.3998 16.0895C37.8961 18.9245 38.9356 19.7278 40.7153 19.7278C40.8413 19.7278 40.9516 19.712 41.0618 19.6963V18.452C40.9831 18.4835 40.8886 18.4993 40.7626 18.4993ZM36.6676 9.93125C38.1638 9.93125 38.8883 10.6085 38.8883 11.837C38.8883 13.034 38.1796 13.727 36.6676 13.727H33.5018V9.93125H36.6676Z" fill="#0C0C0E"/>
<path d="M48.5422 17.0818C48.0224 18.1213 47.3137 18.7513 46.1009 18.7513C44.6047 18.7513 43.6912 17.7748 43.6124 16.2155H49.4557C49.4714 16.121 49.4714 15.932 49.4714 15.7903C49.4714 13.4908 48.1484 11.9473 45.9749 11.9473C43.8329 11.9473 42.2422 13.5695 42.2422 15.9163C42.2422 18.2473 43.8802 19.8853 46.1009 19.8853C47.8964 19.8853 48.9517 18.893 49.5502 17.7118L48.5422 17.0818ZM45.9592 13.0655C47.2822 13.0655 48.0067 13.8058 48.1169 15.1603H43.6439C43.8172 13.853 44.6992 13.0655 45.9592 13.0655Z" fill="#0C0C0E"/>
<path d="M54.2388 19.8853C55.1208 19.8853 55.9713 19.4758 56.5226 18.7198V19.6963H57.8298V14.9555C57.8298 13.0025 56.5698 11.9473 54.7586 11.9473C53.0261 11.9473 51.7818 12.9395 51.3881 14.546L52.5693 14.8768C52.8528 13.6955 53.5143 13.0813 54.7428 13.0813C55.8611 13.0813 56.5226 13.8058 56.5226 15.0028V15.995C56.0343 15.5383 55.2626 15.0973 54.2388 15.0973C52.5536 15.0973 51.3408 16.1683 51.3408 17.4913C51.3408 18.9718 52.5536 19.8853 54.2388 19.8853ZM54.3648 18.7985C53.3726 18.7985 52.7268 18.263 52.7268 17.4913C52.7268 16.7353 53.3726 16.1998 54.3648 16.1998C55.2783 16.1998 56.0501 16.7038 56.5226 17.255V17.5385C56.0186 18.263 55.2783 18.7985 54.3648 18.7985Z" fill="#0C0C0E"/>
<path d="M61.817 19.6962V8.75H60.5098V19.6962H61.817Z" fill="#0C0C0E"/>
<path d="M73.3984 11.9473C72.2801 11.9473 71.3036 12.3095 70.6421 13.3018C70.2169 12.3725 69.3506 11.9473 68.2324 11.9473C67.2244 11.9473 66.3739 12.3568 65.8541 13.0813V12.1363H64.5469V19.6963H65.8541V15.1288C65.8541 13.8058 66.7676 13.0813 67.9331 13.0813C69.0986 13.0813 69.7129 13.8058 69.7129 15.1445V19.6963H71.0201V15.1445C71.0201 13.8058 71.9336 13.0813 73.0991 13.0813C74.2646 13.0813 74.8946 13.8058 74.8946 15.1445V19.6963H76.2019V15.0185C76.2019 13.1285 75.1939 11.9473 73.3984 11.9473Z" fill="#0C0C0E"/>
<path d="M81.74 19.8853C83.4725 19.8853 84.7798 19.0663 84.7798 17.57C84.7798 16.0108 83.5828 15.6013 82.3228 15.3808L81.425 15.2233C80.3698 15.05 79.976 14.7823 79.976 14.105C79.976 13.4278 80.5903 13.034 81.6298 13.034C82.8425 13.034 83.3938 13.727 83.5513 14.4515L84.7325 14.1365C84.512 12.8923 83.5355 11.9473 81.677 11.9473C79.8343 11.9473 78.7003 12.7978 78.7003 14.1208C78.7003 15.743 79.9288 16.1525 81.2203 16.3888L82.1023 16.5305C83.063 16.7038 83.4253 16.94 83.4253 17.5858C83.4253 18.4048 82.7165 18.7985 81.7715 18.7985C80.5745 18.7985 79.661 18.3418 79.535 16.9873L78.3223 17.2078C78.3538 19.0505 79.9288 19.8853 81.74 19.8853Z" fill="#0C0C0E"/>
<path d="M19.8397 24.6203C19.7124 24.6691 19.6101 24.5136 19.7003 24.4112C22.1474 21.6357 23.6321 17.9911 23.6321 13.9999C23.6321 10.0086 22.1474 6.36411 19.7003 3.58845C19.6101 3.48621 19.7124 3.33057 19.8397 3.37953C24.105 5.02026 27.1321 9.15658 27.1321 13.9999C27.1321 18.8432 24.105 22.9795 19.8397 24.6203Z" fill="#00C2FF"/>
<path d="M20.7784 7.31371C20.8352 7.44293 20.6549 7.57277 20.5408 7.48965C20.0092 7.10242 19.0667 6.5625 17.9443 6.5625C15.7568 6.5625 12.6943 9.1875 12.6943 14C12.6943 18.8125 14.8818 21.4375 17.5068 21.4375C18.9207 21.4375 19.969 20.8892 20.5337 20.5014C20.6501 20.4214 20.8352 20.5571 20.7784 20.6863C19.364 23.9019 16.4706 26.25 13.1318 26.25C7.8161 26.25 2.63184 20.7655 2.63184 14C2.63184 7.23452 7.8161 1.75 13.1318 1.75C16.4706 1.75 19.364 4.09806 20.7784 7.31371Z" fill="url(#paint0_radial_1029_5228)"/>
</g>
<defs>
<radialGradient id="paint0_radial_1029_5228" cx="0" cy="0" r="1" gradientUnits="userSpaceOnUse" gradientTransform="translate(17.5068 14) rotate(180) scale(13.2183 17.6245)">
<stop offset="0.156146" stop-color="#006585"/>
<stop offset="1" stop-color="#00C2FF"/>
</radialGradient>
<clipPath id="clip0_1029_5228">
<rect width="84" height="28" fill="white" transform="translate(0.881836)"/>
</clipPath>
</defs>
</svg>
