<svg width="20" height="20" viewBox="0 0 20 20" fill="none" xmlns="http://www.w3.org/2000/svg">
<path d="M18.6367 9.99854H16.5448C15.92 9.99854 15.4137 10.5048 15.4137 11.1296V14.1659C15.4137 14.7907 14.9074 15.297 14.2827 15.297H5.96016C5.33537 15.297 4.8291 15.8032 4.8291 16.428V18.52C4.8291 19.1448 5.33537 19.651 5.96016 19.651H14.7644C15.3892 19.651 15.8882 19.1448 15.8882 18.52V16.8416C15.8882 16.2168 16.3945 15.7736 17.0193 15.7736H18.6363C19.2611 15.7736 19.7673 15.2673 19.7673 14.6426V11.1165C19.7673 10.4917 19.2611 9.99854 18.6363 9.99854H18.6367Z" fill="#121312"/>
<path d="M4.82867 5.84254C4.82867 5.21775 5.33493 4.71148 5.95972 4.71148H14.2771C14.9019 4.71148 15.4082 4.20522 15.4082 3.58043V1.48848C15.4082 0.863688 14.9019 0.357422 14.2771 0.357422H5.47759C4.8528 0.357422 4.34653 0.863688 4.34653 1.48848V3.1004C4.34653 3.72519 3.84026 4.23146 3.21547 4.23146H1.60567C0.980876 4.23146 0.474609 4.73773 0.474609 5.36252V8.89241C0.474609 9.5172 0.982992 9.99807 1.60778 9.99807H3.69973C4.32452 9.99807 4.83078 9.49181 4.83078 8.86701L4.82867 5.84296V5.84254Z" fill="#121312"/>
<path d="M9.13628 7.79944H11.1457C11.8005 7.79944 12.3318 8.3311 12.3318 8.98552V10.9949C12.3318 11.6498 11.8001 12.181 11.1457 12.181H9.13628C8.48144 12.181 7.9502 11.6493 7.9502 10.9949V8.98552C7.9502 8.33068 8.48186 7.79944 9.13628 7.79944Z" fill="#121312"/>
</svg>
