<svg width="26" height="30" viewBox="0 0 26 30" fill="none" xmlns="http://www.w3.org/2000/svg">
<path d="M10.8868 17.6911V28.5779H0C0 25.6905 1.147 22.9214 3.18868 20.8798C5.23035 18.8381 7.99946 17.6911 10.8868 17.6911ZM19.0519 27.8975L15.0524 30L15.8158 25.5473L12.5811 22.3928L17.0528 21.7423L19.0519 17.6911L21.0524 21.7423L25.5228 22.3928L22.288 25.5473L23.0501 30L19.0519 27.8975ZM10.8868 16.3302C6.3756 16.3302 2.72171 12.6763 2.72171 8.16512C2.72171 3.65389 6.3756 0 10.8868 0C15.398 0 19.0519 3.65389 19.0519 8.16512C19.0519 12.6763 15.398 16.3302 10.8868 16.3302Z" fill="#E93D4A"/>
</svg>
