<svg width="12" height="14" viewBox="0 0 12 14" fill="none" xmlns="http://www.w3.org/2000/svg">
<path d="M9.2499 6.8C9.73953 6.50184 10.1527 6.09342 10.4566 5.60729C10.7604 5.12116 10.9465 4.57077 10.9999 4C11.0092 3.48388 10.9167 2.971 10.7277 2.49063C10.5387 2.01027 10.257 1.57184 9.89851 1.20039C9.54006 0.828938 9.11195 0.531742 8.63862 0.325776C8.16529 0.119811 7.65602 0.00911107 7.1399 0H0.649902V14H7.6499C8.14105 13.9948 8.62637 13.8929 9.07813 13.7001C9.52989 13.5073 9.93925 13.2274 10.2828 12.8764C10.6264 12.5253 10.8975 12.1101 11.0806 11.6543C11.2637 11.1985 11.3552 10.7112 11.3499 10.22V10.1C11.3502 9.40711 11.1528 8.72852 10.7808 8.14396C10.4088 7.55939 9.87772 7.09315 9.2499 6.8ZM2.6499 2H6.8499C7.27607 1.98681 7.69608 2.10428 8.05358 2.33665C8.41107 2.56902 8.68894 2.90517 8.8499 3.3C9.01278 3.82779 8.9601 4.39859 8.70339 4.88765C8.44667 5.37672 8.0068 5.74428 7.4799 5.91C7.27528 5.96996 7.06313 6.00027 6.8499 6H2.6499V2ZM7.2499 12H2.6499V8H7.2499C7.67607 7.98681 8.09609 8.10428 8.45358 8.33665C8.81107 8.56902 9.08894 8.90518 9.2499 9.3C9.41278 9.82779 9.3601 10.3986 9.10339 10.8877C8.84667 11.3767 8.4068 11.7443 7.8799 11.91C7.67528 11.97 7.46312 12.0003 7.2499 12Z" fill="#717A7C"/>
</svg>
