<svg width="77" height="20" viewBox="0 0 77 20" fill="none" xmlns="http://www.w3.org/2000/svg">
<rect width="77" height="20" rx="3" fill="#0A84FF"/>
<path d="M5.24109 15V4.99H9.17509C10.2671 4.99 11.0931 5.20933 11.6531 5.648C12.2131 6.08667 12.4931 6.73533 12.4931 7.594V7.65C12.4931 8.77 11.9518 9.484 10.8691 9.792C12.2038 10.0627 12.8711 10.8467 12.8711 12.144V12.2C12.8711 13.1147 12.5724 13.81 11.9751 14.286C11.3871 14.762 10.5144 15 9.35709 15H5.24109ZM7.45309 13.432H9.00709C10.0898 13.432 10.6311 12.9607 10.6311 12.018V11.962C10.6311 11.4953 10.4911 11.1453 10.2111 10.912C9.94042 10.6787 9.50175 10.562 8.89509 10.562H7.45309V13.432ZM7.45309 9.106H8.81109C9.35242 9.106 9.73975 9.00333 9.97309 8.798C10.2158 8.59267 10.3371 8.266 10.3371 7.818V7.762C10.3371 7.342 10.2111 7.034 9.95909 6.838C9.71642 6.642 9.32909 6.544 8.79709 6.544H7.45309V9.106ZM18.5156 15.154C17.1903 15.154 16.1683 14.8087 15.4496 14.118C14.7403 13.4273 14.3856 12.4193 14.3856 11.094V4.99H16.6676V10.954C16.6676 11.8033 16.8076 12.4147 17.0876 12.788C17.3769 13.1613 17.8576 13.348 18.5296 13.348C19.2109 13.348 19.7009 13.1613 19.9996 12.788C20.3076 12.4147 20.4616 11.7753 20.4616 10.87V4.99H22.7436V11.01C22.7436 12.3633 22.3796 13.3947 21.6516 14.104C20.9236 14.804 19.8783 15.154 18.5156 15.154ZM24.8752 15V4.99H27.1572V15H24.8752ZM29.3719 15V4.99H31.6399V13.222H35.7139V15H29.3719ZM39.4739 13.236H40.3979C42.3766 13.236 43.3659 12.1673 43.3659 10.03V9.918C43.3659 8.86333 43.1233 8.07467 42.6379 7.552C42.1619 7.02 41.4059 6.754 40.3699 6.754H39.4739V13.236ZM37.2059 15V4.99H40.4819C42.1993 4.99 43.5013 5.424 44.3879 6.292C45.2839 7.16 45.7319 8.35933 45.7319 9.89V10.002C45.7319 11.542 45.2839 12.76 44.3879 13.656C43.4919 14.552 42.1853 15 40.4679 15H37.2059ZM47.3641 15V4.99H53.8881V6.754H49.6181V9.092H53.0341V10.744H49.6181V13.236H54.1121V15H47.3641ZM55.6903 15V4.99H59.2743C60.4876 4.99 61.435 5.24667 62.1163 5.76C62.7976 6.264 63.1383 7.02 63.1383 8.028V8.084C63.1383 9.44667 62.4523 10.3333 61.0803 10.744L63.7263 15H61.3183L58.9243 11.136H57.9443V15H55.6903ZM57.9443 9.596H59.2183C60.357 9.596 60.9263 9.11533 60.9263 8.154V8.098C60.9263 7.60333 60.7816 7.25333 60.4923 7.048C60.2123 6.83333 59.7876 6.726 59.2183 6.726H57.9443V9.596ZM68.4598 15.154C67.1345 15.154 66.1312 14.8647 65.4498 14.286C64.7685 13.7073 64.3952 12.9 64.3298 11.864H66.4998C66.5558 12.3773 66.7238 12.7787 67.0038 13.068C67.2932 13.3573 67.7785 13.502 68.4598 13.502C68.9545 13.502 69.3512 13.3807 69.6498 13.138C69.9578 12.886 70.1118 12.564 70.1118 12.172C70.1118 11.7707 69.9812 11.4813 69.7198 11.304C69.4585 11.1267 68.9592 10.982 68.2218 10.87C66.9152 10.702 65.9865 10.394 65.4358 9.946C64.8852 9.48867 64.6098 8.784 64.6098 7.832C64.6098 6.964 64.9412 6.25 65.6038 5.69C66.2758 5.13 67.1578 4.85 68.2498 4.85C69.3792 4.85 70.2612 5.102 70.8958 5.606C71.5398 6.11 71.9085 6.85667 72.0018 7.846H69.9158C69.7758 6.95933 69.2205 6.516 68.2498 6.516C67.7645 6.516 67.3912 6.61867 67.1298 6.824C66.8778 7.02933 66.7518 7.30467 66.7518 7.65C66.7518 8.02333 66.8732 8.30333 67.1158 8.49C67.3678 8.66733 67.8672 8.812 68.6138 8.924C69.9018 9.092 70.8352 9.39533 71.4138 9.834C71.9925 10.2633 72.2818 10.9727 72.2818 11.962C72.2818 12.8767 71.9318 13.6373 71.2318 14.244C70.5412 14.8507 69.6172 15.154 68.4598 15.154Z" fill="white"/>
</svg>
