<svg width="15" height="12" viewBox="0 0 15 12" fill="none" xmlns="http://www.w3.org/2000/svg">
<rect x="1" y="1.72046" width="13" height="9.77778" stroke="#373737" stroke-linejoin="round"/>
<rect x="1" y="1.72046" width="13" height="3.66667" stroke="#373737" stroke-linejoin="round"/>
<path d="M4.09998 0.501709C4.09998 0.225567 3.87612 0.00170898 3.59998 0.00170898C3.32383 0.00170898 3.09998 0.225567 3.09998 0.501709H4.09998ZM3.09998 2.94615C3.09998 3.2223 3.32383 3.44615 3.59998 3.44615C3.87612 3.44615 4.09998 3.2223 4.09998 2.94615H3.09998ZM3.09998 0.501709V2.94615H4.09998V0.501709H3.09998Z" fill="#373737"/>
<path d="M11.8999 0.501709C11.8999 0.225567 11.676 0.00170898 11.3999 0.00170898C11.1238 0.00170898 10.8999 0.225567 10.8999 0.501709H11.8999ZM10.8999 2.94615C10.8999 3.2223 11.1238 3.44615 11.3999 3.44615C11.676 3.44615 11.8999 3.2223 11.8999 2.94615H10.8999ZM10.8999 0.501709V2.94615H11.8999V0.501709H10.8999Z" fill="#373737"/>
</svg>
