<svg width="20" height="20" viewBox="0 0 20 20" fill="none" xmlns="http://www.w3.org/2000/svg">
<path d="M14.1667 2.50016H17.5001C17.7211 2.50016 17.9331 2.58796 18.0893 2.74424C18.2456 2.90052 18.3334 3.11248 18.3334 3.3335V16.6668C18.3334 16.8878 18.2456 17.0998 18.0893 17.2561C17.9331 17.4124 17.7211 17.5002 17.5001 17.5002H2.50008C2.27907 17.5002 2.06711 17.4124 1.91083 17.2561C1.75455 17.0998 1.66675 16.8878 1.66675 16.6668V3.3335C1.66675 3.11248 1.75455 2.90052 1.91083 2.74424C2.06711 2.58796 2.27907 2.50016 2.50008 2.50016H5.83341V0.833496H7.50008V2.50016H12.5001V0.833496H14.1667V2.50016ZM12.5001 4.16683H7.50008V5.8335H5.83341V4.16683H3.33341V7.50016H16.6667V4.16683H14.1667V5.8335H12.5001V4.16683ZM16.6667 9.16683H3.33341V15.8335H16.6667V9.16683Z" fill="#7D7DA0"/>
</svg>
