<svg width="24" height="24" viewBox="0 0 24 24" fill="none" xmlns="http://www.w3.org/2000/svg">
<g clip-path="url(#clip0_471_9304)">
<path d="M5.55823 5.72326L5.63593 5.63604C5.99856 5.27341 6.57041 5.24751 6.96293 5.55833L7.05015 5.63604L11.9999 10.5858L16.9496 5.63604C17.3123 5.27341 17.8841 5.24751 18.2766 5.55833L18.3639 5.63604C18.7265 5.99867 18.7524 6.57051 18.4416 6.96303L18.3639 7.05025L13.4141 12L18.3639 16.9497C18.7265 17.3124 18.7524 17.8842 18.4416 18.2767L18.3639 18.364C18.0012 18.7266 17.4294 18.7525 17.0369 18.4417L16.9496 18.364L11.9999 13.4142L7.05015 18.364C6.68752 18.7266 6.11567 18.7525 5.72315 18.4417L5.63593 18.364C5.2733 18.0013 5.2474 17.4295 5.55823 17.037L5.63593 16.9497L10.5857 12L5.63593 7.05025C5.2733 6.68762 5.2474 6.11578 5.55823 5.72326L5.63593 5.63604L5.55823 5.72326Z" fill="#131216"/>
</g>
<defs>
<clipPath id="clip0_471_9304">
<rect width="24" height="24" fill="white"/>
</clipPath>
</defs>
</svg>
