<svg width="18" height="18" viewBox="0 0 18 18" fill="none" xmlns="http://www.w3.org/2000/svg">
<path d="M9.00033 0.666992C13.6003 0.666992 17.3337 4.40033 17.3337 9.00033C17.3337 13.6003 13.6003 17.3337 9.00033 17.3337C4.40033 17.3337 0.666992 13.6003 0.666992 9.00033C0.666992 4.40033 4.40033 0.666992 9.00033 0.666992ZM9.00033 15.667C12.6837 15.667 15.667 12.6837 15.667 9.00033C15.667 5.31699 12.6837 2.33366 9.00033 2.33366C5.31699 2.33366 2.33366 5.31699 2.33366 9.00033C2.33366 12.6837 5.31699 15.667 9.00033 15.667ZM11.947 4.87533L13.1253 6.05366L9.00033 10.1787L7.82199 9.00033L11.947 4.87533Z" fill="#122224"/>
</svg>
