<svg width="18" height="18" viewBox="0 0 18 18" fill="none" xmlns="http://www.w3.org/2000/svg">
<path fill-rule="evenodd" clip-rule="evenodd" d="M3.69995 6.30005C3.14767 6.30005 2.69995 6.74776 2.69995 7.30005V15.2C2.69995 15.7523 3.14767 16.2 3.69995 16.2H14.3C14.8522 16.2 15.3 15.7523 15.3 15.2V7.30005C15.3 6.74776 14.8522 6.30005 14.3 6.30005H3.69995ZM5.39995 8.10005C4.90289 8.10005 4.49995 8.50299 4.49995 9.00005V13.5001C4.49995 13.9971 4.90289 14.4 5.39995 14.4C5.89701 14.4 6.29995 13.9971 6.29995 13.5001V9.00005C6.29995 8.50299 5.89701 8.10005 5.39995 8.10005ZM9.22495 8.10005C8.72789 8.10005 8.32495 8.50299 8.32495 9.00005V13.5001C8.32495 13.9971 8.72789 14.4 9.22495 14.4C9.72201 14.4 10.125 13.9971 10.125 13.5001V9.00005C10.125 8.50299 9.72201 8.10005 9.22495 8.10005ZM11.7 9.00005C11.7 8.50299 12.1029 8.10005 12.6 8.10005C13.097 8.10005 13.5 8.50299 13.5 9.00005V13.5001C13.5 13.9971 13.097 14.4 12.6 14.4C12.1029 14.4 11.7 13.9971 11.7 13.5001V9.00005Z" fill="#A0A7A7"/>
<rect x="1.80005" y="3.6001" width="14.4" height="1.8" rx="0.9" fill="#A0A7A7"/>
<mask id="path-3-inside-1_228_594" fill="white">
<rect x="6.30005" y="1.80005" width="5.4" height="3.6" rx="1"/>
</mask>
<rect x="6.30005" y="1.80005" width="5.4" height="3.6" rx="1" stroke="#A0A7A7" stroke-width="3.6" mask="url(#path-3-inside-1_228_594)"/>
</svg>
