<svg width="20" height="20" viewBox="0 0 20 20" fill="none" xmlns="http://www.w3.org/2000/svg">
<path fill-rule="evenodd" clip-rule="evenodd" d="M13.6 5.2H16C16.4418 5.2 16.8 5.55817 16.8 6L16.8 6.8H4L4.00002 6C4.00002 5.55817 4.35819 5.2 4.80002 5.2H7.20002V3.2C7.20002 2.53726 7.73728 2 8.40002 2H12.4C13.0628 2 13.6 2.53726 13.6 3.2V5.2ZM8.80002 3.6V5.2H12V3.6H8.80002Z" fill="#8850EA"/>
<path fill-rule="evenodd" clip-rule="evenodd" d="M4.80002 8.4H16V16.8C16 17.4627 15.4628 18 14.8 18H6.00002C5.33728 18 4.80002 17.4627 4.80002 16.8V8.4ZM8 10.8H6.4V15.6H8V10.8ZM11.2 10.8H9.6V15.6H11.2V10.8ZM12.8 10.8H14.4V15.6H12.8V10.8Z" fill="#8850EA"/>
</svg>
