<svg width="15" height="16" viewBox="0 0 15 16" fill="none" xmlns="http://www.w3.org/2000/svg">
<path d="M5.33334 2.12681C5.33334 0.952204 6.28846 0 7.46667 0C8.64488 0 9.60001 0.952204 9.60001 2.12681H13.8667C14.4558 2.12681 14.9333 2.60291 14.9333 3.19021C14.9333 3.77751 14.4558 4.25362 13.8667 4.25362H1.06667C0.477564 4.25362 0 3.77751 0 3.19021C0 2.60291 0.477563 2.12681 1.06667 2.12681H5.33334Z" fill="#DF5252"/>
<path d="M2.13333 13.3415V6.4H4.26667V13.3415C4.26667 13.6351 4.50545 13.8732 4.8 13.8732H6.4V6.4H8.53334L8.53334 13.8732H10.1333C10.4279 13.8732 10.6667 13.6351 10.6667 13.3415V6.4H12.8V13.3415C12.8 14.8097 11.6061 16 10.1333 16H4.8C3.32724 16 2.13333 14.8097 2.13333 13.3415Z" fill="#DF5252"/>
</svg>
