<svg width="12" height="15" viewBox="0 0 12 15" fill="none" xmlns="http://www.w3.org/2000/svg">
<path d="M1.79961 9.83333V12.1667H4.79961V14.5H7.19961V12.1667H8.39961C9.19526 12.1667 9.95832 11.8594 10.5209 11.3124C11.0835 10.7654 11.3996 10.0235 11.3996 9.25C11.3996 8.47645 11.0835 7.73459 10.5209 7.1876C9.95832 6.64062 9.19526 6.33333 8.39961 6.33333H3.59961C3.44048 6.33333 3.28787 6.27188 3.17534 6.16248C3.06282 6.05308 2.99961 5.90471 2.99961 5.75C2.99961 5.59529 3.06282 5.44692 3.17534 5.33752C3.28787 5.22812 3.44048 5.16667 3.59961 5.16667H10.1996V2.83333H7.19961V0.5H4.79961V2.83333H3.59961C2.80396 2.83333 2.0409 3.14062 1.47829 3.6876C0.91568 4.23459 0.599609 4.97645 0.599609 5.75C0.599609 6.52355 0.91568 7.26541 1.47829 7.81239C2.0409 8.35938 2.80396 8.66667 3.59961 8.66667H8.39961C8.55874 8.66667 8.71135 8.72812 8.82387 8.83752C8.9364 8.94692 8.99961 9.09529 8.99961 9.25C8.99961 9.40471 8.9364 9.55308 8.82387 9.66248C8.71135 9.77188 8.55874 9.83333 8.39961 9.83333H1.79961Z" fill="#676780"/>
</svg>
