<svg width="800" height="123" viewBox="0 0 800 123" fill="none" xmlns="http://www.w3.org/2000/svg">
<rect x="114.91" y="95.2491" width="14.4538" height="14.4538" rx="2.22366" transform="rotate(112.563 114.91 95.2491)" fill="#47DC68"/>
<circle cx="391.542" cy="67.111" r="7.2269" transform="rotate(-137.917 391.542 67.111)" fill="#D96DEB"/>
<path d="M33.5675 52.2292C34.1626 52.7555 34.4317 53.5593 34.2734 54.3378L32.902 61.0827C32.7438 61.8613 32.1822 62.4962 31.4288 62.7484L24.9019 64.9332C24.1485 65.1854 23.3179 65.0165 22.7228 64.4902L17.5672 59.9301C16.9722 59.4037 16.7031 58.5999 16.8614 57.8214L18.2327 51.0765C18.391 50.298 18.9526 49.6631 19.7059 49.4109L26.2329 47.2261C26.9862 46.9739 27.8169 47.1428 28.4119 47.6691L33.5675 52.2292Z" fill="#EFF25D"/>
<path d="M46.1098 81.2169C48.2537 81.0075 49.4131 83.6638 47.8017 85.0934L47.0295 85.7785C46.3089 86.4178 46.0819 87.4484 46.4673 88.3314L46.8802 89.2774C47.7418 91.2517 45.5738 93.1752 43.7162 92.0844L42.8261 91.5618C41.9954 91.074 40.945 91.1766 40.2244 91.8159L39.4522 92.5009C37.8409 93.9305 35.3415 92.463 35.8049 90.3593L36.0269 89.3512C36.2341 88.4104 35.812 87.4431 34.9812 86.9554L34.0911 86.4327C32.2336 85.3419 32.857 82.5114 35.0009 82.302L36.0282 82.2017C36.987 82.108 37.7765 81.4076 37.9837 80.4668L38.2057 79.4587C38.669 77.3551 41.5536 77.0733 42.4153 79.0475L42.8282 79.9936C43.2136 80.8765 44.1236 81.4109 45.0824 81.3172L46.1098 81.2169Z" fill="#F72A4F"/>
<circle opacity="0.728779" cx="682.856" cy="102.374" r="7.2269" transform="rotate(30.422 682.856 102.374)" fill="#D96DEB"/>
<path opacity="0.88096" d="M470.032 59.9642C468.102 59.0076 468.524 56.1401 470.648 55.7796L471.665 55.6068C472.615 55.4455 473.353 54.6911 473.493 53.738L473.643 52.7167C473.957 50.5855 476.814 50.1004 477.813 52.0087L478.292 52.9232C478.739 53.7767 479.684 54.2453 480.634 54.0841L481.652 53.9113C483.776 53.5507 485.12 56.1184 483.614 57.6584L482.892 58.3964C482.218 59.0851 482.065 60.1292 482.512 60.9826L482.991 61.8971C483.99 63.8055 481.963 65.8775 480.033 64.9209L479.108 64.4625C478.245 64.0347 477.205 64.2114 476.531 64.9001L475.809 65.638C474.303 67.178 471.706 65.8909 472.02 63.7597L472.17 62.7385C472.31 61.7854 471.82 60.8504 470.957 60.4226L470.032 59.9642Z" fill="#F72A4F"/>
<rect opacity="0.93636" x="239.998" y="48.0092" width="14.4538" height="14.4538" rx="2.22366" transform="rotate(14.1967 239.998 48.0092)" fill="#47DC68"/>
<path opacity="0.2884" d="M82.932 37.6028C83.318 36.9084 84.0451 36.4727 84.8395 36.4598L91.7214 36.348C92.5158 36.3351 93.2567 36.747 93.665 37.4284L97.2028 43.3325C97.6112 44.0139 97.625 44.8615 97.239 45.5558L93.8948 51.5717C93.5088 52.2661 92.7817 52.7018 91.9874 52.7147L85.1054 52.8265C84.3111 52.8394 83.5702 52.4276 83.1618 51.7461L79.624 45.8421C79.2157 45.1606 79.2019 44.3131 79.5879 43.6187L82.932 37.6028Z" fill="#EFF25D"/>
<path opacity="0.571118" d="M79.8299 59.2561C80.1594 58.5332 80.8496 58.0411 81.6404 57.965L88.4917 57.3061C89.2824 57.23 90.0537 57.5816 90.515 58.2284L94.5113 63.8324C94.9725 64.4792 95.0537 65.3229 94.7242 66.0458L91.8692 72.3087C91.5396 73.0315 90.8495 73.5237 90.0587 73.5997L83.2074 74.2587C82.4166 74.3347 81.6453 73.9831 81.1841 73.3363L77.1878 67.7324C76.7265 67.0856 76.6454 66.2418 76.9749 65.5189L79.8299 59.2561Z" fill="#EFF25D"/>
<rect opacity="0.630428" x="527.963" y="80.8084" width="14.4538" height="14.4538" rx="2.22366" transform="rotate(33.9704 527.963 80.8084)" fill="#47DC68"/>
<path opacity="0.988117" d="M604.459 89.8092C605.979 91.3357 604.657 93.9153 602.531 93.5736L601.511 93.4099C600.56 93.2571 599.619 93.7342 599.18 94.5916L598.709 95.5103C597.727 97.4275 594.865 96.9678 594.533 94.8395L594.374 93.8196C594.225 92.8678 593.48 92.1199 592.529 91.9671L591.51 91.8034C589.383 91.4617 588.936 88.5981 590.858 87.6244L591.778 87.1577C592.638 86.7223 593.119 85.783 592.97 84.8312L592.811 83.8113C592.479 81.683 595.064 80.3728 596.584 81.8993L597.312 82.6308C597.992 83.3135 599.034 83.4809 599.893 83.0454L600.814 82.5788C602.735 81.6051 604.78 83.659 603.798 85.5762L603.327 86.4949C602.888 87.3523 603.051 88.395 603.731 89.0777L604.459 89.8092Z" fill="#F72A4F"/>
<path opacity="0.293216" d="M184.715 37.0525C186.034 35.3499 188.762 36.3304 188.695 38.4835L188.663 39.5152C188.633 40.4781 189.227 41.3507 190.134 41.6766L191.105 42.0258C193.132 42.7545 193.042 45.6515 190.974 46.2534L189.983 46.5419C189.058 46.8111 188.411 47.6452 188.382 48.6081L188.35 49.6399C188.283 51.793 185.5 52.6029 184.289 50.8218L183.708 49.9683C183.166 49.1718 182.173 48.8148 181.248 49.084L180.257 49.3724C178.189 49.9743 176.558 47.5779 177.878 45.8752L178.51 45.0593C179.1 44.2978 179.133 43.243 178.591 42.4465L178.01 41.593C176.799 39.8119 178.574 37.521 180.601 38.2497L181.573 38.5989C182.479 38.9248 183.493 38.6299 184.083 37.8685L184.715 37.0525Z" fill="#F72A4F"/>
<path opacity="0.417759" d="M356.988 70.8208C357.412 71.4925 357.446 72.3394 357.076 73.0427L353.875 79.1358C353.505 79.8391 352.789 80.2918 351.995 80.3234L345.117 80.5975C344.324 80.6291 343.573 80.2349 343.149 79.5632L339.473 73.7442C339.048 73.0726 339.015 72.2256 339.384 71.5223L342.586 65.4293C342.955 64.726 343.672 64.2733 344.466 64.2416L351.343 63.9676C352.137 63.9359 352.887 64.3302 353.311 65.0018L356.988 70.8208Z" fill="#EFF25D"/>
<rect opacity="0.119432" x="559.096" y="99.1537" width="14.4538" height="14.4538" rx="2.22366" transform="rotate(-80.6212 559.096 99.1537)" fill="#47DC68"/>
<path opacity="0.240573" d="M213.535 75.0572C215.456 76.0308 215.009 78.8945 212.882 79.2362L211.863 79.4C210.912 79.5528 210.168 80.3007 210.019 81.2525L209.86 82.2724C209.528 84.4008 206.666 84.8606 205.684 82.9435L205.213 82.0248C204.774 81.1674 203.832 80.6904 202.881 80.8432L201.862 81.007C199.735 81.3487 198.414 78.7693 199.933 77.2427L200.662 76.5111C201.341 75.8284 201.504 74.7857 201.065 73.9283L200.594 73.0096C199.612 71.0925 201.657 69.0385 203.578 70.0121L204.499 70.4787C205.358 70.9141 206.4 70.7467 207.08 70.064L207.808 69.3324C209.328 67.8058 211.913 69.1159 211.581 71.2442L211.422 72.2641C211.273 73.2159 211.755 74.1552 212.614 74.5906L213.535 75.0572Z" fill="#F72A4F"/>
<path opacity="0.184213" d="M19.1768 109.73C19.6588 110.361 19.7673 111.202 19.4614 111.935L16.8112 118.287C16.5053 119.02 15.8315 119.535 15.0436 119.636L8.21728 120.517C7.42938 120.619 6.64708 120.293 6.16507 119.661L1.98899 114.19C1.50698 113.558 1.39848 112.718 1.70437 111.984L4.35458 105.632C4.66047 104.899 5.33427 104.385 6.12218 104.283L12.9485 103.402C13.7364 103.3 14.5187 103.627 15.0007 104.258L19.1768 109.73Z" fill="#EFF25D"/>
<rect opacity="0.443367" x="269.693" y="31.0062" width="14.4538" height="14.4538" rx="2.22366" transform="rotate(-24.3397 269.693 31.0062)" fill="#47DC68"/>
<rect opacity="0.977712" x="555.139" y="51.3448" width="14.4538" height="14.4538" rx="2.22366" transform="rotate(68.4496 555.139 51.3448)" fill="#47DC68"/>
<circle opacity="0.475418" cx="155.86" cy="54.0702" r="7.2269" transform="rotate(138.422 155.86 54.0702)" fill="#D96DEB"/>
<circle opacity="0.487862" cx="28.2004" cy="25.197" r="7.2269" transform="rotate(-164.282 28.2004 25.197)" fill="#D96DEB"/>
<circle opacity="0.0194823" cx="604.145" cy="54.5161" r="7.2269" transform="rotate(8.11093 604.145 54.5161)" fill="#D96DEB"/>
<path opacity="0.495023" d="M517.349 88.4146C517.375 89.2087 516.975 89.9561 516.3 90.3755L510.454 94.0086C509.779 94.4279 508.932 94.4554 508.232 94.0808L502.162 90.8346C501.462 90.4599 501.014 89.74 500.989 88.946L500.765 82.0667C500.739 81.2727 501.139 80.5252 501.814 80.1059L507.66 76.4728C508.335 76.0534 509.182 76.0259 509.882 76.4006L515.952 79.6467C516.652 80.0214 517.1 80.7414 517.125 81.5354L517.349 88.4146Z" fill="#EFF25D"/>
<path opacity="0.958853" d="M155.399 93.932C156.122 93.6035 156.966 93.6859 157.612 94.1481L163.21 98.1525C163.856 98.6147 164.207 99.3865 164.13 100.177L163.461 107.027C163.384 107.818 162.89 108.508 162.167 108.836L155.9 111.682C155.177 112.01 154.333 111.928 153.687 111.466L148.089 107.461C147.443 106.999 147.092 106.227 147.169 105.437L147.838 98.5864C147.915 97.7957 148.409 97.1063 149.132 96.7778L155.399 93.932Z" fill="#EFF25D"/>
<circle opacity="0.230671" cx="310.982" cy="45.0711" r="7.2269" transform="rotate(124.731 310.982 45.0711)" fill="#D96DEB"/>
<path opacity="0.480527" d="M707.533 21.0208C706.758 21.1963 705.948 20.9452 705.409 20.3619L700.736 15.3086C700.196 14.7254 700.009 13.8986 700.245 13.1399L702.284 6.56615C702.52 5.80739 703.142 5.23187 703.917 5.05638L710.63 3.53592C711.404 3.36043 712.214 3.61162 712.753 4.19488L717.427 9.24816C717.966 9.83142 718.153 10.6581 717.918 11.4169L715.878 17.9906C715.643 18.7494 715.02 19.3249 714.246 19.5004L707.533 21.0208Z" fill="#EFF25D"/>
<path opacity="0.263266" d="M481.246 24.7701C479.408 23.6466 480.081 20.8276 482.229 20.6562L483.258 20.5741C484.218 20.4974 485.02 19.8111 485.243 18.8741L485.483 17.8701C485.984 15.775 488.873 15.5444 489.7 17.5336L490.096 18.4868C490.465 19.3764 491.366 19.9268 492.326 19.8502L493.355 19.768C495.502 19.5966 496.614 22.2731 494.978 23.6739L494.194 24.3452C493.462 24.9716 493.217 25.9981 493.586 26.8877L493.983 27.8409C494.809 29.8302 492.607 31.7149 490.769 30.5915L489.889 30.0531C489.067 29.5507 488.015 29.6347 487.283 30.2611L486.499 30.9324C484.862 32.3332 482.389 30.8216 482.89 28.7264L483.13 27.7224C483.354 26.7854 482.949 25.8109 482.127 25.3085L481.246 24.7701Z" fill="#F72A4F"/>
<circle opacity="0.0919065" cx="701.889" cy="29.0827" r="7.2269" transform="rotate(-94.8179 701.889 29.0827)" fill="#D96DEB"/>
<path opacity="0.994602" d="M787.284 86.5877C787.635 88.713 785.062 90.046 783.528 88.533L782.794 87.8079C782.108 87.1313 781.064 86.9731 780.209 87.4162L779.292 87.8909C777.38 88.8816 775.317 86.8458 776.282 84.92L776.744 83.9972C777.176 83.136 777.004 82.0947 776.318 81.4181L775.583 80.693C774.05 79.18 775.349 76.5889 777.479 76.9117L778.499 77.0664C779.452 77.2108 780.389 76.7254 780.82 75.8642L781.283 74.9414C782.248 73.0156 785.114 73.4499 785.465 75.5752L785.633 76.5937C785.79 77.5441 786.541 78.2854 787.494 78.4298L788.514 78.5845C790.644 78.9073 791.116 81.7669 789.204 82.7576L788.287 83.2323C787.432 83.6753 786.959 84.6188 787.116 85.5693L787.284 86.5877Z" fill="#F72A4F"/>
<path opacity="0.0565725" d="M17.1768 92.3798C16.4288 92.1122 15.8805 91.4658 15.7383 90.6842L14.5062 83.9125C14.364 83.1309 14.6496 82.3328 15.2554 81.8188L20.5039 77.366C21.1097 76.852 21.9436 76.7003 22.6916 76.9679L29.1721 79.2868C29.9201 79.5545 30.4685 80.2009 30.6107 80.9825L31.8427 87.7542C31.9849 88.5358 31.6994 89.3339 31.0936 89.8479L25.8451 94.3007C25.2393 94.8147 24.4053 94.9664 23.6573 94.6987L17.1768 92.3798Z" fill="#EFF25D"/>
<path opacity="0.958831" d="M734.224 76.0893C734.484 76.84 734.324 77.6724 733.804 78.2728L729.297 83.4753C728.777 84.0757 727.976 84.3531 727.196 84.2029L720.437 82.9013C719.657 82.7511 719.017 82.1961 718.757 81.4454L716.505 74.9414C716.245 74.1907 716.405 73.3583 716.925 72.7579L721.432 67.5554C721.952 66.9549 722.753 66.6776 723.533 66.8278L730.292 68.1294C731.072 68.2796 731.712 68.8346 731.972 69.5853L734.224 76.0893Z" fill="#EFF25D"/>
<path opacity="0.736501" d="M422.062 31.5385C422.857 31.5303 423.595 31.9465 423.999 32.6303L427.502 38.5552C427.907 39.2391 427.915 40.0867 427.525 40.7788L424.146 46.7748C423.756 47.4669 423.026 47.8982 422.232 47.9065L415.349 47.9776C414.555 47.9858 413.816 47.5696 413.412 46.8857L409.909 40.9609C409.505 40.277 409.496 39.4294 409.886 38.7373L413.266 32.7413C413.656 32.0492 414.385 31.6178 415.18 31.6096L422.062 31.5385Z" fill="#EFF25D"/>
<path opacity="0.146379" d="M628.786 88.6566C629.499 89.0083 629.969 89.7134 630.021 90.5062L630.467 97.3746C630.519 98.1673 630.143 98.9274 629.483 99.3684L623.758 103.189C623.097 103.63 622.251 103.685 621.539 103.333L615.367 100.286C614.655 99.934 614.184 99.2289 614.133 98.4362L613.686 91.5678C613.635 90.775 614.01 90.015 614.671 89.574L620.396 85.7532C621.057 85.3122 621.903 85.2572 622.615 85.609L628.786 88.6566Z" fill="#EFF25D"/>
<path opacity="0.0381244" d="M415.887 30.2885C416.016 29.5045 416.552 28.8485 417.296 28.5676L423.734 26.1341C424.477 25.8533 425.314 25.9902 425.928 26.4933L431.255 30.8524C431.87 31.3555 432.169 32.1484 432.041 32.9324L430.929 39.725C430.801 40.509 430.264 41.165 429.521 41.4458L423.083 43.8793C422.34 44.1601 421.503 44.0232 420.888 43.5201L415.562 39.161C414.947 38.6579 414.647 37.865 414.775 37.081L415.887 30.2885Z" fill="#EFF25D"/>
<path opacity="0.676261" d="M224.088 57.3938C224.876 57.2944 225.657 57.6231 226.137 58.2561L230.297 63.7397C230.777 64.3726 230.883 65.2136 230.575 65.9459L227.906 72.2902C227.598 73.0225 226.923 73.5348 226.135 73.6341L219.306 74.4948C218.518 74.5942 217.736 74.2655 217.256 73.6325L213.096 68.1489C212.616 67.516 212.51 66.675 212.818 65.9427L215.487 59.5984C215.795 58.8661 216.471 58.3538 217.259 58.2545L224.088 57.3938Z" fill="#EFF25D"/>
<rect opacity="0.896361" x="645.26" y="63.0193" width="14.4538" height="14.4538" rx="2.22366" transform="rotate(-65.9156 645.26 63.0193)" fill="#47DC68"/>
<rect opacity="0.604175" x="612.354" y="44.1179" width="14.4538" height="14.4538" rx="2.22366" transform="rotate(147.548 612.354 44.1179)" fill="#47DC68"/>
<rect opacity="0.239496" x="102.133" y="61.9073" width="14.4538" height="14.4538" rx="2.22366" transform="rotate(124.731 102.133 61.9073)" fill="#47DC68"/>
<rect opacity="0.21656" x="285.232" y="83.4795" width="14.4538" height="14.4538" rx="2.22366" transform="rotate(-78.5926 285.232 83.4795)" fill="#47DC68"/>
<rect opacity="0.0781496" x="655.268" y="61.9073" width="14.4538" height="14.4538" rx="2.22366" transform="rotate(8.11093 655.268 61.9073)" fill="#47DC68"/>
<path opacity="0.217955" d="M250.341 77.3367C250.217 75.1862 252.917 74.1335 254.282 75.8005L254.935 76.5993C255.546 77.3449 256.566 77.6127 257.464 77.2628L258.426 76.8879C260.433 76.1055 262.268 78.3485 261.104 80.1611L260.547 81.0298C260.026 81.8404 260.087 82.894 260.697 83.6395L261.351 84.4383C262.715 86.1054 261.149 88.5443 259.066 87.9975L258.067 87.7355C257.135 87.491 256.152 87.8743 255.632 88.6849L255.074 89.5536C253.91 91.3662 251.107 90.6306 250.983 88.48L250.923 87.4495C250.868 86.4877 250.2 85.671 249.268 85.4265L248.269 85.1645C246.186 84.6178 246.019 81.7242 248.026 80.9419L248.988 80.567C249.885 80.2171 250.456 79.329 250.4 78.3673L250.341 77.3367Z" fill="#F72A4F"/>
<path opacity="0.0786244" d="M378.497 35.7081C376.743 36.9588 374.414 35.2346 375.097 33.1919L375.425 32.213C375.731 31.2995 375.413 30.2929 374.639 29.7198L373.809 29.1057C372.078 27.8242 372.998 25.0758 375.152 25.0948L376.184 25.1039C377.147 25.1124 378.007 24.4997 378.312 23.5861L378.64 22.6073C379.324 20.5645 382.222 20.5901 382.87 22.6446L383.18 23.6291C383.469 24.5479 384.318 25.1758 385.281 25.1843L386.313 25.1934C388.467 25.2124 389.339 27.9767 387.585 29.2274L386.744 29.8268C385.96 30.3861 385.625 31.3869 385.915 32.3056L386.225 33.2902C386.872 35.3446 384.513 37.0275 382.781 35.746L381.951 35.1319C381.177 34.5588 380.122 34.5494 379.337 35.1088L378.497 35.7081Z" fill="#F72A4F"/>
<path opacity="0.552315" d="M44.0578 83.0419C45.2377 84.8442 43.422 87.1033 41.4082 86.3388L40.4431 85.9724C39.5425 85.6305 38.5241 85.9074 37.9206 86.6583L37.274 87.4629C35.9246 89.142 33.2149 88.1133 33.3197 85.9618L33.3699 84.9308C33.4168 83.9685 32.8387 83.0856 31.9381 82.7437L30.973 82.3773C28.9592 81.6128 29.1002 78.7179 31.1788 78.1527L32.1749 77.8818C33.1045 77.6291 33.7656 76.8064 33.8124 75.8442L33.8627 74.8132C33.9675 72.6617 36.7642 71.9012 37.9441 73.7034L38.5095 74.567C39.0372 75.373 40.0238 75.7476 40.9534 75.4948L41.9495 75.224C44.0281 74.6588 45.6157 77.0837 44.2662 78.7627L43.6196 79.5673C43.0161 80.3182 42.9648 81.3723 43.4924 82.1783L44.0578 83.0419Z" fill="#F72A4F"/>
<path opacity="0.633568" d="M123.457 26.5544C121.858 25.1107 123.041 22.4646 125.183 22.6929L126.21 22.8024C127.168 22.9045 128.082 22.3781 128.475 21.4987L128.897 20.5563C129.776 18.5897 132.658 18.8969 133.103 21.0046L133.316 22.0146C133.515 22.9572 134.298 23.6645 135.256 23.7666L136.282 23.876C138.424 24.1043 139.023 26.9402 137.155 28.0145L136.261 28.5293C135.426 29.0098 134.995 29.9733 135.194 30.9159L135.407 31.9259C135.852 34.0336 133.34 35.479 131.741 34.0353L130.975 33.3435C130.26 32.6978 129.211 32.5859 128.376 33.0664L127.481 33.5812C125.614 34.6555 123.463 32.713 124.342 30.7464L124.763 29.804C125.156 28.9245 124.938 27.8919 124.223 27.2462L123.457 26.5544Z" fill="#F72A4F"/>
<path opacity="0.0876158" d="M244.485 27.6614C242.35 27.9465 241.097 25.3328 242.657 23.8471L243.405 23.1352C244.102 22.4707 244.293 21.4327 243.876 20.564L243.43 19.6331C242.499 17.6906 244.598 15.6916 246.493 16.7159L247.401 17.2068C248.248 17.6649 249.294 17.5252 249.992 16.8608L250.739 16.1489C252.299 14.6632 254.849 16.0415 254.46 18.1602L254.274 19.1755C254.1 20.1231 254.556 21.0748 255.404 21.5329L256.312 22.0238C258.207 23.0481 257.684 25.8989 255.549 26.184L254.526 26.3206C253.571 26.4481 252.807 27.176 252.633 28.1235L252.447 29.1388C252.058 31.2576 249.185 31.6412 248.254 29.6987L247.808 28.7678C247.392 27.8991 246.463 27.3972 245.508 27.5247L244.485 27.6614Z" fill="#F72A4F"/>
</svg>
