<svg width="14" height="16" viewBox="0 0 14 16" fill="none" xmlns="http://www.w3.org/2000/svg">
<path d="M5.8063 9.43525V15.2416H0C0 13.7016 0.611734 12.2248 1.70063 11.1359C2.78952 10.047 4.26638 9.43525 5.8063 9.43525ZM10.161 14.8787L8.02794 16L8.43511 13.6252L6.70991 11.9428L9.09485 11.5959L10.161 9.43525L11.2279 11.5959L13.6122 11.9428L11.887 13.6252L12.2934 16L10.161 14.8787ZM5.8063 8.70946C3.40032 8.70946 1.45158 6.76072 1.45158 4.35473C1.45158 1.94874 3.40032 0 5.8063 0C8.21229 0 10.161 1.94874 10.161 4.35473C10.161 6.76072 8.21229 8.70946 5.8063 8.70946Z" fill="#B6F72B"/>
</svg>
