<svg width="14" height="8" viewBox="0 0 14 8" fill="none" xmlns="http://www.w3.org/2000/svg">
<path fill-rule="evenodd" clip-rule="evenodd" d="M5.94044 7.64367L0.352751 2.05598C-0.117584 1.58565 -0.117584 0.823085 0.352751 0.352751C0.823085 -0.117584 1.58565 -0.117584 2.05598 0.352751L6.8007 5.09747L11.5454 0.352751C12.0157 -0.117584 12.7783 -0.117584 13.2486 0.352751C13.719 0.823085 13.719 1.58565 13.2486 2.05598L7.66096 7.64367C7.18585 8.11878 6.41555 8.11878 5.94044 7.64367Z" fill="white"/>
<mask id="mask0_2169_2942" style="mask-type:alpha" maskUnits="userSpaceOnUse" x="0" y="0" width="14" height="8">
<path fill-rule="evenodd" clip-rule="evenodd" d="M5.94044 7.64367L0.352751 2.05598C-0.117584 1.58565 -0.117584 0.823085 0.352751 0.352751C0.823085 -0.117584 1.58565 -0.117584 2.05598 0.352751L6.8007 5.09747L11.5454 0.352751C12.0157 -0.117584 12.7783 -0.117584 13.2486 0.352751C13.719 0.823085 13.719 1.58565 13.2486 2.05598L7.66096 7.64367C7.18585 8.11878 6.41555 8.11878 5.94044 7.64367Z" fill="white"/>
</mask>
<g mask="url(#mask0_2169_2942)">
<path fill-rule="evenodd" clip-rule="evenodd" d="M-7.79688 18.9619H21.4014V-10.2363H-7.79688V18.9619Z" fill="black" fill-opacity="0.3"/>
</g>
</svg>
