<svg width="24" height="24" viewBox="0 0 24 24" fill="none" xmlns="http://www.w3.org/2000/svg">
<path d="M8.19988 7.2V4.8C8.19988 4.58783 8.28416 4.38434 8.43419 4.23431C8.58422 4.08429 8.7877 4 8.99987 4H18.5999C18.812 4 19.0155 4.08429 19.1656 4.23431C19.3156 4.38434 19.3999 4.58783 19.3999 4.8V16C19.3999 16.2122 19.3156 16.4156 19.1656 16.5657C19.0155 16.7157 18.812 16.8 18.5999 16.8H16.1999V19.2C16.1999 19.6416 15.8399 20 15.3943 20H5.80548C5.69998 20.0006 5.5954 19.9804 5.49774 19.9405C5.40008 19.9006 5.31126 19.8418 5.2364 19.7674C5.16154 19.6931 5.10211 19.6047 5.06152 19.5073C5.02093 19.4099 4.99998 19.3055 4.99988 19.2L5.00228 8C5.00228 7.5584 5.36228 7.2 5.80788 7.2H8.19988ZM6.60228 8.8L6.59988 18.4H14.5999V8.8H6.60228ZM9.79987 7.2H16.1999V15.2H17.7999V5.6H9.79987V7.2Z" fill="#572EF5"/>
</svg>
