<svg width="21" height="20" viewBox="0 0 21 20" fill="none" xmlns="http://www.w3.org/2000/svg">
<path d="M3.77778 15.4444V3.77778C3.77778 3.5715 3.85972 3.37367 4.00558 3.22781C4.15144 3.08194 4.34927 3 4.55555 3H11.5555C11.7618 3 11.9597 3.08194 12.1055 3.22781C12.2514 3.37367 12.3333 3.5715 12.3333 3.77778V9.99999H13.8889C14.3014 9.99999 14.6971 10.1639 14.9888 10.4556C15.2805 10.7473 15.4444 11.143 15.4444 11.5555V14.6667C15.4444 14.8729 15.5264 15.0708 15.6722 15.2166C15.8181 15.3625 16.0159 15.4444 16.2222 15.4444C16.4285 15.4444 16.6263 15.3625 16.7722 15.2166C16.918 15.0708 17 14.8729 17 14.6667V9.22221H15.4444C15.2381 9.22221 15.0403 9.14027 14.8945 8.99441C14.7486 8.84855 14.6667 8.65072 14.6667 8.44444V5.65533L13.3779 4.36655L14.4777 3.26678L18.3276 7.11677C18.4 7.1889 18.4573 7.27461 18.4965 7.36898C18.5356 7.46335 18.5556 7.56451 18.5555 7.66666V14.6667C18.5555 15.2855 18.3097 15.879 17.8721 16.3166C17.4345 16.7541 16.841 17 16.2222 17C15.6034 17 15.0099 16.7541 14.5723 16.3166C14.1347 15.879 13.8889 15.2855 13.8889 14.6667V11.5555H12.3333V15.4444H13.1111V17H3V15.4444H3.77778ZM5.33333 4.55555V9.22221H10.7778V4.55555H5.33333Z" fill="#357340"/>
<path d="M12.3333 15.4444V11.5555V9.99997V7.19995H10.7773V9.19995H5.33203V7.19995H3.77778V15.4444H3V17H13.1111V15.4444H12.3333Z" fill="#89DCAF"/>
</svg>
