<svg width="38" height="38" viewBox="0 0 38 38" fill="none" xmlns="http://www.w3.org/2000/svg">
<rect width="38" height="38" fill="#DBCCC4"/>
<path d="M0.11875 0H0V0.11875H0.11875V0Z" fill="#E1D7D5"/>
<path d="M27.3125 24.9375H10.6875V26.125H27.3125V24.9375Z" fill="#D22209"/>
<path d="M27.3125 26.125H10.6875V27.3125H27.3125V26.125Z" fill="#D22209"/>
<path d="M27.3125 27.3125H10.6875V28.5H27.3125V27.3125Z" fill="#D22209"/>
<path d="M27.3125 28.5H10.6875V29.6875H27.3125V28.5Z" fill="#D22209"/>
<path d="M13.0625 29.6875H10.6875V30.875H13.0625V29.6875Z" fill="#D22209"/>
<path d="M27.3125 29.6875H14.25V30.875H27.3125V29.6875Z" fill="#D22209"/>
<path d="M13.0625 30.875H10.6875V32.0625H13.0625V30.875Z" fill="#D22209"/>
<path d="M27.3125 30.875H14.25V32.0625H27.3125V30.875Z" fill="#D22209"/>
<path d="M13.0625 32.0625H10.6875V33.25H13.0625V32.0625Z" fill="#D22209"/>
<path d="M27.3125 32.0625H14.25V33.25H27.3125V32.0625Z" fill="#D22209"/>
<path d="M13.0625 33.25H10.6875V34.4375H13.0625V33.25Z" fill="#D22209"/>
<path d="M27.3125 33.25H14.25V34.4375H27.3125V33.25Z" fill="#D22209"/>
<path d="M13.0625 34.4375H10.6875V35.625H13.0625V34.4375Z" fill="#D22209"/>
<path d="M27.3125 34.4375H14.25V35.625H27.3125V34.4375Z" fill="#D22209"/>
<path d="M13.0625 35.625H10.6875V36.8125H13.0625V35.625Z" fill="#D22209"/>
<path d="M27.3125 35.625H14.25V36.8125H27.3125V35.625Z" fill="#D22209"/>
<path d="M13.0625 36.8125H10.6875V38H13.0625V36.8125Z" fill="#D22209"/>
<path d="M27.3125 36.8125H14.25V38H27.3125V36.8125Z" fill="#D22209"/>
<path d="M20.1875 27.3125H16.625V28.5H20.1875V27.3125Z" fill="#26B1F3"/>
<path d="M17.8125 28.5H15.4375V29.6875H17.8125V28.5Z" fill="#26B1F3"/>
<path d="M21.375 28.5H20.1875V29.6875H21.375V28.5Z" fill="#26B1F3"/>
<path d="M19 29.6875H17.8125V30.875H19V29.6875Z" fill="#26B1F3"/>
<path d="M22.5625 29.6875H21.375V30.875H22.5625V29.6875Z" fill="#26B1F3"/>
<path d="M19 30.875H17.8125V32.0625H19V30.875Z" fill="#26B1F3"/>
<path d="M24.9375 30.875H22.5625V32.0625H24.9375V30.875Z" fill="#26B1F3"/>
<path d="M17.8125 32.0625H16.625V33.25H17.8125V32.0625Z" fill="#26B1F3"/>
<path d="M17.8125 7.125H16.625V8.3125H17.8125V7.125Z" fill="#C16710"/>
<path d="M21.375 7.125H19V8.3125H21.375V7.125Z" fill="#C16710"/>
<path d="M14.25 8.3125H10.6875V9.5H14.25V8.3125Z" fill="#D4A015"/>
<path d="M22.5625 8.3125H15.4375V9.5H22.5625V8.3125Z" fill="#C16710"/>
<path d="M27.3125 8.3125H23.75V9.5H27.3125V8.3125Z" fill="#D4A015"/>
<path d="M10.6875 9.5H8.3125V10.6875H10.6875V9.5Z" fill="#C16710"/>
<path d="M14.25 9.5H10.6875V10.6875H14.25V9.5Z" fill="#D4A015"/>
<path d="M21.375 9.5H14.25V10.6875H21.375V9.5Z" fill="#C16710"/>
<path d="M27.3125 9.5H23.75V10.6875H27.3125V9.5Z" fill="#D4A015"/>
<path d="M10.6875 10.6875H8.3125V11.875H10.6875V10.6875Z" fill="#C16710"/>
<path d="M19 10.6875H10.6875V11.875H19V10.6875Z" fill="#D4A015"/>
<path d="M20.1875 10.6875H19V11.875H20.1875V10.6875Z" fill="#C16710"/>
<path d="M27.3125 10.6875H20.1875V11.875H27.3125V10.6875Z" fill="#D4A015"/>
<path d="M10.6875 11.875H7.125V13.0625H10.6875V11.875Z" fill="#C16710"/>
<path d="M17.8125 11.875H10.6875V13.0625H17.8125V11.875Z" fill="#D4A015"/>
<path d="M21.375 11.875H17.8125V13.0625H21.375V11.875Z" fill="#FFE939"/>
<path d="M27.3125 11.875H21.375V13.0625H27.3125V11.875Z" fill="#D4A015"/>
<path d="M10.6875 13.0625H8.3125V14.25H10.6875V13.0625Z" fill="#C16710"/>
<path d="M19 13.0625H10.6875V14.25H19V13.0625Z" fill="#D4A015"/>
<path d="M20.1875 13.0625H19V14.25H20.1875V13.0625Z" fill="#FFE939"/>
<path d="M27.3125 13.0625H20.1875V14.25H27.3125V13.0625Z" fill="#D4A015"/>
<path d="M10.6875 14.25H8.3125V15.4375H10.6875V14.25Z" fill="#C16710"/>
<path d="M19 14.25H10.6875V15.4375H19V14.25Z" fill="#D4A015"/>
<path d="M20.1875 14.25H19V15.4375H20.1875V14.25Z" fill="#FFE939"/>
<path d="M27.3125 14.25H20.1875V15.4375H27.3125V14.25Z" fill="#D4A015"/>
<path d="M10.6875 15.4375H7.125V16.625H10.6875V15.4375Z" fill="#C16710"/>
<path d="M19 15.4375H10.6875V16.625H19V15.4375Z" fill="#D4A015"/>
<path d="M20.1875 15.4375H19V16.625H20.1875V15.4375Z" fill="#FFE939"/>
<path d="M27.3125 15.4375H20.1875V16.625H27.3125V15.4375Z" fill="#D4A015"/>
<path d="M10.6875 16.625H8.3125V17.8125H10.6875V16.625Z" fill="#C16710"/>
<path d="M19 16.625H10.6875V17.8125H19V16.625Z" fill="#D4A015"/>
<path d="M20.1875 16.625H19V17.8125H20.1875V16.625Z" fill="#FFE939"/>
<path d="M27.3125 16.625H20.1875V17.8125H27.3125V16.625Z" fill="#D4A015"/>
<path d="M10.6875 17.8125H8.3125V19H10.6875V17.8125Z" fill="#C16710"/>
<path d="M19 17.8125H10.6875V19H19V17.8125Z" fill="#D4A015"/>
<path d="M20.1875 17.8125H19V19H20.1875V17.8125Z" fill="#FFE939"/>
<path d="M27.3125 17.8125H20.1875V19H27.3125V17.8125Z" fill="#D4A015"/>
<path d="M10.6875 19H7.125V20.1875H10.6875V19Z" fill="#C16710"/>
<path d="M32.0625 19H10.6875V20.1875H32.0625V19Z" fill="#D08B11"/>
<path d="M10.6875 20.1875H8.3125V21.375H10.6875V20.1875Z" fill="#C16710"/>
<path d="M27.3125 20.1875H10.6875V21.375H27.3125V20.1875Z" fill="#D08B11"/>
<path d="M28.5 20.1875H27.3125V21.375H28.5V20.1875Z" fill="black"/>
<path d="M29.6875 20.1875H28.5V21.375H29.6875V20.1875Z" fill="#D08B11"/>
<path d="M30.875 20.1875H29.6875V21.375H30.875V20.1875Z" fill="black"/>
<path d="M32.0625 20.1875H30.875V21.375H32.0625V20.1875Z" fill="#D08B11"/>
<path d="M10.6875 21.375H7.125V22.5625H10.6875V21.375Z" fill="#C16710"/>
<path d="M13.0625 21.375H10.6875V22.5625H13.0625V21.375Z" fill="#D08B11"/>
<path d="M14.25 21.375H13.0625V22.5625H14.25V21.375Z" fill="#FFE939"/>
<path d="M15.4375 21.375H14.25V22.5625H15.4375V21.375Z" fill="black"/>
<path d="M16.625 21.375H15.4375V22.5625H16.625V21.375Z" fill="#FFE939"/>
<path d="M17.8125 21.375H16.625V22.5625H17.8125V21.375Z" fill="black"/>
<path d="M19 21.375H17.8125V22.5625H19V21.375Z" fill="#FFE939"/>
<path d="M20.1875 21.375H19V22.5625H20.1875V21.375Z" fill="black"/>
<path d="M21.375 21.375H20.1875V22.5625H21.375V21.375Z" fill="#FFE939"/>
<path d="M32.0625 21.375H21.375V22.5625H32.0625V21.375Z" fill="#D08B11"/>
<path d="M10.6875 22.5625H5.9375V23.75H10.6875V22.5625Z" fill="#C16710"/>
<path d="M32.0625 22.5625H10.6875V23.75H32.0625V22.5625Z" fill="#D08B11"/>
<path d="M10.6875 23.75H7.125V24.9375H10.6875V23.75Z" fill="#C16710"/>
<path d="M32.0625 23.75H10.6875V24.9375H32.0625V23.75Z" fill="#D08B11"/>
<path d="M8.3125 24.9375H7.125V26.125H8.3125V24.9375Z" fill="#C16710"/>
<path d="M10.6875 24.9375H9.5V26.125H10.6875V24.9375Z" fill="#C16710"/>
<path d="M27.3125 24.9375H10.6875V26.125H27.3125V24.9375Z" fill="#D08B11"/>
<path d="M19 13.0625H11.875V14.25H19V13.0625Z" fill="black"/>
<path d="M27.3125 13.0625H20.1875V14.25H27.3125V13.0625Z" fill="black"/>
<path d="M13.0625 14.25H11.875V15.4375H13.0625V14.25Z" fill="black"/>
<path d="M15.4375 14.25H13.0625V15.4375H15.4375V14.25Z" fill="white"/>
<path d="M19 14.25H15.4375V15.4375H19V14.25Z" fill="black"/>
<path d="M21.375 14.25H20.1875V15.4375H21.375V14.25Z" fill="black"/>
<path d="M23.75 14.25H21.375V15.4375H23.75V14.25Z" fill="white"/>
<path d="M27.3125 14.25H23.75V15.4375H27.3125V14.25Z" fill="black"/>
<path d="M13.0625 15.4375H8.3125V16.625H13.0625V15.4375Z" fill="black"/>
<path d="M15.4375 15.4375H13.0625V16.625H15.4375V15.4375Z" fill="white"/>
<path d="M21.375 15.4375H15.4375V16.625H21.375V15.4375Z" fill="black"/>
<path d="M23.75 15.4375H21.375V16.625H23.75V15.4375Z" fill="white"/>
<path d="M27.3125 15.4375H23.75V16.625H27.3125V15.4375Z" fill="black"/>
<path d="M9.5 16.625H8.3125V17.8125H9.5V16.625Z" fill="black"/>
<path d="M13.0625 16.625H11.875V17.8125H13.0625V16.625Z" fill="black"/>
<path d="M15.4375 16.625H13.0625V17.8125H15.4375V16.625Z" fill="white"/>
<path d="M19 16.625H15.4375V17.8125H19V16.625Z" fill="black"/>
<path d="M21.375 16.625H20.1875V17.8125H21.375V16.625Z" fill="black"/>
<path d="M23.75 16.625H21.375V17.8125H23.75V16.625Z" fill="white"/>
<path d="M27.3125 16.625H23.75V17.8125H27.3125V16.625Z" fill="black"/>
<path d="M9.5 17.8125H8.3125V19H9.5V17.8125Z" fill="black"/>
<path d="M13.0625 17.8125H11.875V19H13.0625V17.8125Z" fill="black"/>
<path d="M15.4375 17.8125H13.0625V19H15.4375V17.8125Z" fill="white"/>
<path d="M19 17.8125H15.4375V19H19V17.8125Z" fill="black"/>
<path d="M21.375 17.8125H20.1875V19H21.375V17.8125Z" fill="black"/>
<path d="M23.75 17.8125H21.375V19H23.75V17.8125Z" fill="white"/>
<path d="M27.3125 17.8125H23.75V19H27.3125V17.8125Z" fill="black"/>
<path d="M19 19H11.875V20.1875H19V19Z" fill="black"/>
<path d="M27.3125 19H20.1875V20.1875H27.3125V19Z" fill="black"/>
</svg>
