<svg width="24" height="25" viewBox="0 0 24 25" fill="none" xmlns="http://www.w3.org/2000/svg">
<g clip-path="url(#clip0_420_1244)">
<path d="M11.8665 0.453918C5.38386 0.453918 0.130859 5.70692 0.130859 12.1896C0.130859 18.6723 5.38386 23.9309 11.8665 23.9309C18.3492 23.9309 23.6022 18.6779 23.6022 12.1953C23.6022 5.71258 18.3492 0.453918 11.8665 0.453918ZM20.4572 12.8299H18.0375H15.0115C14.7112 14.3543 13.3682 15.4989 11.7589 15.4989C9.92853 15.4989 8.44386 14.0143 8.44386 12.1839C8.44386 10.3536 9.92853 8.86892 11.7589 8.86892C13.4192 8.86892 14.7962 10.0873 15.0399 11.6796H18.0432H20.4629C20.7802 11.6796 21.0409 11.9403 21.0409 12.2576C21.0352 12.5749 20.7745 12.8299 20.4572 12.8299Z" fill="#008C73"/>
</g>
<defs>
<clipPath id="clip0_420_1244">
<rect width="24" height="24" fill="white" transform="translate(0 0.368271)"/>
</clipPath>
</defs>
</svg>
