<svg width="14" height="13" viewBox="0 0 14 13" fill="none" xmlns="http://www.w3.org/2000/svg">
<path d="M0.7 4.9H13.3V11.9028C13.3 12.2878 12.9885 12.6 12.6049 12.6H1.3951C1.30367 12.5999 1.21315 12.5818 1.12872 12.5467C1.04429 12.5116 0.967607 12.4602 0.903052 12.3955C0.838497 12.3307 0.787337 12.2539 0.752496 12.1693C0.717654 12.0848 0.699816 11.9942 0.7 11.9028V4.9ZM4.9 6.3V7.7H9.1V6.3H4.9ZM0 0.7C0 0.3136 0.3185 0 0.6944 0H13.3056C13.6892 0 14 0.3108 14 0.7V3.5H0V0.7Z" fill="#AFAFCC"/>
</svg>
