<svg width="20" height="20" viewBox="0 0 20 20" fill="none" xmlns="http://www.w3.org/2000/svg">
<path d="M14.1824 14.9091H13.6369V13.9998C13.6352 13.6876 13.5798 13.378 13.4733 13.0845C13.4674 13.069 13.4609 13.0537 13.4536 13.0387C13.3654 12.7978 13.2435 12.5707 13.0915 12.364L12.3278 11.3456C12.116 11.0619 12.0012 10.7174 12.0005 10.3633V9.81236C12.0019 9.37892 12.1739 8.96347 12.4795 8.656L12.8378 8.29709C13.2545 7.87827 13.5222 7.33424 13.5998 6.74855C13.5998 6.74145 13.6042 6.73491 13.6042 6.72673L13.6025 6.71964C13.6215 6.60359 13.633 6.48643 13.6369 6.36891V5.09091H14.1824C14.327 5.09091 14.4658 5.03344 14.5681 4.93115C14.6703 4.82886 14.7278 4.69012 14.7278 4.54545C14.7278 4.40079 14.6703 4.26205 14.5681 4.15976C14.4658 4.05747 14.327 4 14.1824 4H6.546C6.40134 4 6.2626 4.05747 6.16031 4.15976C6.05801 4.26205 6.00055 4.40079 6.00055 4.54545C6.00055 4.69012 6.05801 4.82886 6.16031 4.93115C6.2626 5.03344 6.40134 5.09091 6.546 5.09091H7.09145V6.36891C7.09536 6.48643 7.10684 6.60359 7.12582 6.71964L7.12418 6.72727C7.12418 6.73491 7.128 6.74145 7.12855 6.74909C7.2061 7.33452 7.4736 7.87834 7.89 8.29709L8.24836 8.65545C8.5542 8.96297 8.72648 9.37866 8.72782 9.81236V10.3633C8.72696 10.7172 8.61221 11.0614 8.40055 11.3451L7.63691 12.364C7.48475 12.5707 7.36262 12.7978 7.27418 13.0387C7.26692 13.0537 7.26037 13.069 7.25455 13.0845C7.14804 13.378 7.0927 13.6876 7.09091 13.9998V14.9091H6.54545C6.40079 14.9091 6.26205 14.9666 6.15976 15.0689C6.05747 15.1711 6 15.3099 6 15.4545C6 15.5992 6.05747 15.7379 6.15976 15.8402C6.26205 15.9425 6.40079 16 6.54545 16H14.1818C14.3265 16 14.4652 15.9425 14.5675 15.8402C14.6698 15.7379 14.7273 15.5992 14.7273 15.4545C14.7273 15.3099 14.6698 15.1711 14.5675 15.0689C14.4652 14.9666 14.3265 14.9091 14.1818 14.9091H14.1824ZM8.18236 6.18182V5.09091H12.546V6.18182H8.18236ZM8.66127 7.52582C8.58439 7.44859 8.51549 7.36379 8.45564 7.27273H12.2722C12.2123 7.36379 12.1434 7.44859 12.0665 7.52582L11.7082 7.88418C11.2827 8.30715 11.0098 8.85957 10.9325 9.45455H9.79582C9.71855 8.85957 9.4457 8.30715 9.02018 7.88418L8.66127 7.52582ZM9.27327 11.9996C9.58882 11.5767 9.77591 11.0719 9.81218 10.5455H10.9156C10.9519 11.072 11.1392 11.5768 11.4551 11.9996L12.0005 12.7273H8.72782L9.27327 11.9996ZM12.546 14.9091H8.18236V13.9998C8.18384 13.939 8.18876 13.8784 8.19709 13.8182H12.5307C12.5392 13.8784 12.5443 13.939 12.546 13.9998V14.9091Z" fill="#717A7C"/>
</svg>
