<svg width="20" height="20" viewBox="0 0 20 20" fill="none" xmlns="http://www.w3.org/2000/svg">
<path d="M16.6667 5.83333V4.16667H3.33335V15.8333H16.6667V14.1667H10C9.77901 14.1667 9.56705 14.0789 9.41076 13.9226C9.25448 13.7663 9.16669 13.5543 9.16669 13.3333V6.66667C9.16669 6.44565 9.25448 6.23369 9.41076 6.07741C9.56705 5.92113 9.77901 5.83333 10 5.83333H16.6667ZM2.50002 2.5H17.5C17.721 2.5 17.933 2.5878 18.0893 2.74408C18.2456 2.90036 18.3334 3.11232 18.3334 3.33333V16.6667C18.3334 16.8877 18.2456 17.0996 18.0893 17.2559C17.933 17.4122 17.721 17.5 17.5 17.5H2.50002C2.27901 17.5 2.06704 17.4122 1.91076 17.2559C1.75448 17.0996 1.66669 16.8877 1.66669 16.6667V3.33333C1.66669 3.11232 1.75448 2.90036 1.91076 2.74408C2.06704 2.5878 2.27901 2.5 2.50002 2.5ZM10.8334 7.5V12.5H16.6667V7.5H10.8334ZM12.5 9.16667H15V10.8333H12.5V9.16667Z" fill="#C8CBFC"/>
</svg>
