<svg width="16" height="17" viewBox="0 0 16 17" fill="none" xmlns="http://www.w3.org/2000/svg">
<path fill-rule="evenodd" clip-rule="evenodd" d="M0 8.33594C0 3.91794 3.582 0.335938 8 0.335938C12.418 0.335938 16 3.91794 16 8.33594C16 12.7539 12.418 16.3359 8 16.3359C3.582 16.3359 0 12.7539 0 8.33594ZM8.90001 9.93747H7.19116V9.82466C7.1999 8.2522 7.58449 8.0219 8.29032 7.59922C8.36492 7.55455 8.4431 7.50774 8.5248 7.45696C9.10918 7.08991 9.55832 6.62628 9.55832 5.95014C9.55832 5.1919 8.96429 4.69929 8.22537 4.69929C7.5444 4.69929 6.89974 5.01758 6.85627 5.92554H5.04297C5.09126 4.09031 6.54469 3.13594 8.23503 3.13594C10.0799 3.13594 11.3501 4.29361 11.3501 5.92599C11.3501 7.03196 10.7947 7.75639 9.90605 8.28764C9.83839 8.32915 9.775 8.36732 9.71564 8.40306C9.08435 8.78313 8.90884 8.88879 8.90001 9.82466V9.93747ZM9.03662 12.3471C9.03179 12.9363 8.54401 13.4096 7.97412 13.4096C7.38492 13.4096 6.90679 12.9363 6.91162 12.3471C6.90679 11.7676 7.38492 11.2943 7.97412 11.2943C8.54401 11.2943 9.03179 11.7676 9.03662 12.3471Z" fill="#CBB5F5"/>
</svg>
