<svg width="14" height="14" viewBox="0 0 14 14" fill="none" xmlns="http://www.w3.org/2000/svg">
<path fill-rule="evenodd" clip-rule="evenodd" d="M14 7C14 3.13425 10.8658 0 7 0C3.13425 0 0 3.13425 0 7C0 10.8658 3.13425 14 7 14C10.8658 14 14 10.8658 14 7ZM6.125 9.625C6.125 10.1082 6.51675 10.5 7 10.5C7.48325 10.5 7.875 10.1082 7.875 9.625V7.875C7.875 7.39175 7.48325 7 7 7C6.51675 7 6.125 7.39175 6.125 7.875V9.625ZM6.125 4.375C6.125 4.85825 6.51675 5.25 7 5.25C7.48325 5.25 7.875 4.85825 7.875 4.375C7.875 3.89175 7.48325 3.5 7 3.5C6.51675 3.5 6.125 3.89175 6.125 4.375Z" fill="#8850EA"/>
</svg>
