<svg width="50" height="50" viewBox="0 0 50 50" fill="none" xmlns="http://www.w3.org/2000/svg">
<rect x="0.723731" y="0.723731" width="48.5525" height="48.5525" rx="1.99056" fill="#357340"/>
<path d="M14.0909 22.5527H17.3636V35.6436H14.0909C13.8016 35.6436 13.5241 35.5287 13.3195 35.3241C13.1149 35.1195 13 34.842 13 34.5527V23.6436C13 23.3543 13.1149 23.0768 13.3195 22.8722C13.5241 22.6676 13.8016 22.5527 14.0909 22.5527ZM19.8651 21.1421L26.8469 14.1603C26.9397 14.0673 27.063 14.0108 27.1941 14.0014C27.3251 13.992 27.4552 14.0302 27.5604 14.109L28.4909 14.8072C28.7493 15.0012 28.9446 15.2674 29.0519 15.5722C29.1593 15.877 29.174 16.2068 29.0942 16.52L27.8364 21.4618H34.8182C35.3968 21.4618 35.9518 21.6916 36.361 22.1008C36.7701 22.51 37 23.0649 37 23.6436V25.9389C37.0003 26.224 36.9447 26.5064 36.8364 26.7701L33.46 34.9683C33.3776 35.1682 33.2377 35.3391 33.0581 35.4593C32.8784 35.5795 32.6671 35.6437 32.4509 35.6436H20.6364C20.347 35.6436 20.0696 35.5287 19.865 35.3241C19.6604 35.1195 19.5455 34.842 19.5455 34.5527V21.9134C19.5455 21.6241 19.6605 21.3467 19.8651 21.1421Z" fill="#F4BBD7"/>
<rect x="0.723731" y="0.723731" width="48.5525" height="48.5525" rx="1.99056" stroke="white" stroke-width="0.552538"/>
</svg>
