<svg width="50" height="50" viewBox="0 0 50 50" fill="none" xmlns="http://www.w3.org/2000/svg">
<rect x="0.723731" y="0.723731" width="48.5525" height="48.5525" rx="1.99056" fill="#294F9F"/>
<path d="M32.7362 28.797L30.8142 26.875L32.7362 24.953C33.241 24.4482 33.6415 23.8488 33.9148 23.1891C34.188 22.5295 34.3286 21.8225 34.3286 21.1084C34.3286 20.3944 34.188 19.6874 33.9148 19.0278C33.6415 18.3681 33.241 17.7687 32.7362 17.2638C32.2313 16.759 31.6319 16.3585 30.9722 16.0852C30.3126 15.812 29.6056 15.6714 28.8916 15.6714C28.1775 15.6714 27.4705 15.812 26.8109 16.0852C26.1512 16.3585 25.5518 16.759 25.047 17.2638L23.125 19.1858L21.203 17.2638L23.125 15.3419C24.6586 13.833 26.7264 12.9913 28.8778 13.0001C31.0292 13.0088 33.09 13.8674 34.6113 15.3887C36.1326 16.91 36.9912 18.9708 36.9999 21.1222C37.0087 23.2736 36.167 25.3414 34.6581 26.875L32.7362 28.797ZM28.8909 32.6422L26.9689 34.5642C26.2139 35.3316 25.3144 35.942 24.3223 36.36C23.3302 36.7781 22.2652 36.9955 21.1886 36.9999C20.1121 37.0043 19.0453 36.7955 18.0498 36.3855C17.0544 35.9756 16.1499 35.3726 15.3887 34.6113C14.6274 33.8501 14.0244 32.9456 13.6145 31.9502C13.2045 30.9547 12.9957 29.8879 13.0001 28.8114C13.0045 27.7348 13.2219 26.6698 13.64 25.6777C14.058 24.6856 14.6684 23.7861 15.4358 23.0311L17.3578 21.1091L19.2797 23.0311L17.3578 24.953C16.8529 25.4579 16.4524 26.0573 16.1792 26.717C15.9059 27.3766 15.7653 28.0836 15.7653 28.7976C15.7653 29.5116 15.9059 30.2187 16.1792 30.8783C16.4524 31.538 16.8529 32.1373 17.3578 32.6422C17.8627 33.1471 18.462 33.5476 19.1217 33.8208C19.7813 34.0941 20.4884 34.2347 21.2024 34.2347C21.9164 34.2347 22.6234 34.0941 23.283 33.8208C23.9427 33.5476 24.5421 33.1471 25.047 32.6422L26.9689 30.7203L28.8909 32.6422ZM28.8909 19.1858L30.8142 21.1091L21.203 30.7189L19.2797 28.797L28.8909 19.1872V19.1858Z" fill="#F9DA6A"/>
<rect x="0.723731" y="0.723731" width="48.5525" height="48.5525" rx="1.99056" stroke="white" stroke-width="0.552538"/>
</svg>
