<svg width="33" height="28" viewBox="0 0 33 28" fill="none" xmlns="http://www.w3.org/2000/svg">
<path d="M2.75261 23H10.7868H16.7928C17.9226 23 20.1491 19.8684 12.6594 17.1842C9.71918 16.1305 12.6594 14.9474 14.0637 12.2632C15.5291 9.46219 13.5956 6 9.38251 6C5.63779 6 2.82929 9.13158 4.23348 12.2632C5.63766 15.3947 8.91455 15.8421 5.16956 17.6316C-0.289479 20.2401 0.411965 23 2.75261 23Z" fill="#122224" stroke="#122224" stroke-width="1.5" stroke-linecap="round" stroke-linejoin="round"/>
<path d="M10.7526 20H18.7868H24.7928C25.4844 20 26.1028 19.5696 26.4781 19.0671C26.8885 18.5175 27.1199 17.7512 26.9364 16.8902C26.5801 15.2184 24.7861 13.6009 20.9968 12.2428C20.7524 12.1553 20.5871 12.0778 20.4788 12.0158C20.4974 11.9867 20.5199 11.9532 20.5471 11.915C20.7024 11.6967 20.8963 11.4751 21.1444 11.1916C21.2799 11.0368 21.4315 10.8635 21.6017 10.6622C22.0465 10.1366 22.5483 9.494 22.9498 8.72673C23.853 7.00032 23.7142 5.04017 22.6794 3.51882C21.6411 1.99225 19.7725 1 17.3825 1C15.2378 1 13.3123 1.89626 12.1141 3.31091C10.8989 4.74558 10.4443 6.717 11.321 8.6723C11.7283 9.58073 12.2658 10.2806 12.7459 10.8297C12.9283 11.0383 13.1108 11.2343 13.269 11.4041C13.3149 11.4534 13.3588 11.5005 13.4 11.5451C13.5954 11.7563 13.7299 11.9093 13.8226 12.0373C13.8314 12.0494 13.8393 12.0607 13.8465 12.0712C13.8084 12.1055 13.7552 12.1489 13.6818 12.2012C13.4811 12.3443 13.1794 12.5186 12.7384 12.7293C11.3099 13.4119 10.2357 14.1268 9.47473 14.8423C8.72199 15.55 8.22176 16.3104 8.05776 17.0875C7.8853 17.9046 8.10344 18.6892 8.67985 19.2468C9.22523 19.7743 9.98573 20 10.7526 20ZM20.3944 12.1748C20.3943 12.1749 20.3947 12.1732 20.3958 12.1699C20.395 12.1731 20.3945 12.1748 20.3944 12.1748Z" fill="white" stroke="#122224" stroke-width="2" stroke-linecap="round" stroke-linejoin="round"/>
<rect x="14.75" y="14.75" width="17.5" height="12.5" rx="3.25" fill="white" stroke="#6200EE" stroke-width="1.5"/>
<path d="M16 16L23.2581 23L31 16" stroke="#6200EE" stroke-width="1.5" stroke-linecap="round" stroke-linejoin="round"/>
</svg>
