<svg width="13" height="12" viewBox="0 0 13 12" fill="none" xmlns="http://www.w3.org/2000/svg">
<path d="M8.96112 6.16891L8.96112 1.00006C8.96112 0.447777 8.51341 6.0996e-05 7.96112 6.09477e-05L3.02445 6.05162e-05C2.0647 6.04323e-05 1.24025 0.681825 1.06003 1.62451L0.454221 4.79336C0.218532 6.02619 1.16348 7.16891 2.41865 7.16891L4.45424 7.16891C4.34003 8.08258 3.76898 9.25102 3.76898 9.93627C3.76898 10.5097 4.21891 10.9743 4.72187 11.2892C5.13474 11.5477 5.65017 11.3355 5.88005 10.906L7.88052 7.16891L7.96112 7.16891C8.51341 7.16891 8.96112 6.72119 8.96112 6.16891Z" fill="white"/>
<rect x="12.5447" y="7.16895" width="2.6883" height="7.16881" rx="1" transform="rotate(-180 12.5447 7.16895)" fill="white"/>
</svg>
