<svg width="12" height="12" viewBox="0 0 12 12" fill="none" xmlns="http://www.w3.org/2000/svg">
<path d="M8.57178 6.28571L8.57178 1.42855C8.57178 0.876266 8.12406 0.428552 7.57178 0.428552L2.96513 0.428551C2.00538 0.428551 1.18093 1.11032 1.00071 2.053L0.454488 4.91016C0.218799 6.143 1.16375 7.28571 2.41891 7.28571L4.26085 7.28571C4.1516 8.15966 3.60538 9.27729 3.60538 9.93275C3.60538 10.4695 4.01744 10.9065 4.48588 11.2072C4.89579 11.4703 5.41209 11.2575 5.64197 10.828L7.53816 7.28571L7.57178 7.28571C8.12406 7.28571 8.57178 6.83799 8.57178 6.28571Z" fill="#EE7979"/>
<rect x="12" y="7.28571" width="2.57142" height="6.85712" rx="1" transform="rotate(-180 12 7.28571)" fill="#EE7979"/>
</svg>
