<svg width="12" height="12" viewBox="0 0 12 12" fill="none" xmlns="http://www.w3.org/2000/svg">
<path fill-rule="evenodd" clip-rule="evenodd" d="M10.8 9.6V10.8C10.8 11.4636 10.2636 12 9.6 12H1.2C0.51 12 0 11.4192 0 10.8V2.4C0 1.7376 0.5376 1.2 1.2 1.2H2.4C3.64432 1.2 3.64864 3 2.4 3C2.1866 3.00602 1.97644 3 1.8 3V10.2H9C9 10.2 9 9.81335 9 9.6C9 8.4 10.8 8.4 10.8 9.6ZM6.3 0.9C6.3 0.402944 6.70294 0 7.2 0H12V4.8C12 5.29706 11.5971 5.7 11.1 5.7C10.6029 5.7 10.2 5.29706 10.2 4.8V3.07279L6.3364 6.9364C5.98492 7.28787 5.41508 7.28787 5.0636 6.9364C4.71213 6.58492 4.71213 6.01508 5.0636 5.6636L8.92721 1.8H7.2C6.70294 1.8 6.3 1.39706 6.3 0.9Z" fill="#8850EA"/>
</svg>
