<svg width="20" height="20" viewBox="0 0 20 20" fill="none" xmlns="http://www.w3.org/2000/svg">
<path d="M15.3033 4.69668L14.125 5.87502C13.1708 4.92068 11.9151 4.32673 10.5721 4.19438C9.22902 4.06203 7.88161 4.39946 6.75945 5.14917C5.63728 5.89889 4.80978 7.01451 4.41795 8.30594C4.02612 9.59737 4.09419 10.9847 4.61057 12.2316C5.12695 13.4785 6.05969 14.5077 7.24986 15.144C8.44003 15.7802 9.81399 15.9841 11.1376 15.7209C12.4613 15.4577 13.6527 14.7437 14.509 13.7005C15.3652 12.6574 15.8332 11.3496 15.8333 10H17.5C17.5 11.7352 16.8983 13.4167 15.7975 14.7579C14.6968 16.0992 13.1649 17.0174 11.4631 17.3559C9.76129 17.6944 7.99475 17.4323 6.46448 16.6143C4.9342 15.7964 3.73489 14.4731 3.07088 12.87C2.40688 11.2669 2.31926 9.48321 2.82296 7.82276C3.32667 6.16232 4.39052 4.7279 5.83327 3.7639C7.27601 2.7999 9.00837 2.36598 10.7352 2.53607C12.462 2.70616 14.0764 3.46973 15.3033 4.69668Z" fill="#1D1919"/>
</svg>
