<svg width="50" height="50" viewBox="0 0 50 50" fill="none" xmlns="http://www.w3.org/2000/svg">
<rect x="0.723731" y="0.723731" width="48.5525" height="48.5525" rx="1.99056" fill="#D1D7F4"/>
<path d="M25 37.0002C18.3724 37.0002 13 31.6278 13 25.0002C13 18.3726 18.3724 13.0002 25 13.0002C31.6276 13.0002 37 18.3726 37 25.0002C37 31.6278 31.6276 37.0002 25 37.0002ZM22.252 34.2006C21.0681 31.6893 20.3822 28.9724 20.2324 26.2002H15.4744C15.7079 28.0468 16.4727 29.786 17.6759 31.2062C18.8791 32.6265 20.4688 33.6667 22.252 34.2006ZM22.636 26.2002C22.8172 29.127 23.6536 31.8762 25 34.3026C26.3828 31.812 27.1905 29.0435 27.364 26.2002H22.636ZM34.5256 26.2002H29.7676C29.6178 28.9724 28.9319 31.6893 27.748 34.2006C29.5312 33.6667 31.1209 32.6265 32.3241 31.2062C33.5273 29.786 34.2921 28.0468 34.5256 26.2002ZM15.4744 23.8002H20.2324C20.3822 21.0279 21.0681 18.311 22.252 15.7998C20.4688 16.3336 18.8791 17.3739 17.6759 18.7941C16.4727 20.2144 15.7079 21.9535 15.4744 23.8002ZM22.6372 23.8002H27.3628C27.1897 20.9569 26.3824 18.1884 25 15.6978C23.6172 18.1883 22.8095 20.9568 22.636 23.8002H22.6372ZM27.748 15.7998C28.9319 18.311 29.6178 21.0279 29.7676 23.8002H34.5256C34.2921 21.9535 33.5273 20.2144 32.3241 18.7941C31.1209 17.3739 29.5312 16.3336 27.748 15.7998Z" fill="#036AFF"/>
<rect x="0.723731" y="0.723731" width="48.5525" height="48.5525" rx="1.99056" stroke="white" stroke-width="0.552538"/>
</svg>
