<svg width="50" height="50" viewBox="0 0 50 50" fill="none" xmlns="http://www.w3.org/2000/svg">
<rect x="0.723731" y="0.723731" width="48.5525" height="48.5525" rx="1.99056" fill="#5045BB"/>
<path d="M25 37C18.3724 37 13 31.6276 13 25C13 18.3724 18.3724 13 25 13C31.6276 13 37 18.3724 37 25C37 31.6276 31.6276 37 25 37ZM22.252 34.2004C21.0681 31.6892 20.3822 28.9723 20.2324 26.2H15.4744C15.7079 28.0467 16.4727 29.7858 17.6759 31.206C18.8791 32.6263 20.4688 33.6665 22.252 34.2004ZM22.636 26.2C22.8172 29.1268 23.6536 31.876 25 34.3024C26.3828 31.8119 27.1905 29.0434 27.364 26.2H22.636ZM34.5256 26.2H29.7676C29.6178 28.9723 28.9319 31.6892 27.748 34.2004C29.5312 33.6665 31.1209 32.6263 32.3241 31.206C33.5273 29.7858 34.2921 28.0467 34.5256 26.2ZM15.4744 23.8H20.2324C20.3822 21.0277 21.0681 18.3108 22.252 15.7996C20.4688 16.3335 18.8791 17.3737 17.6759 18.794C16.4727 20.2142 15.7079 21.9533 15.4744 23.8ZM22.6372 23.8H27.3628C27.1897 20.9567 26.3824 18.1882 25 15.6976C23.6172 18.1881 22.8095 20.9566 22.636 23.8H22.6372ZM27.748 15.7996C28.9319 18.3108 29.6178 21.0277 29.7676 23.8H34.5256C34.2921 21.9533 33.5273 20.2142 32.3241 18.794C31.1209 17.3737 29.5312 16.3335 27.748 15.7996Z" fill="#F9DA6A"/>
<rect x="0.723731" y="0.723731" width="48.5525" height="48.5525" rx="1.99056" stroke="white" stroke-width="0.552538"/>
</svg>
