<svg width="24" height="25" viewBox="0 0 24 25" fill="none" xmlns="http://www.w3.org/2000/svg">
<rect y="0.368271" width="24" height="24" rx="12" fill="#8247E5"/>
<path d="M15.0862 10.5954C14.8668 10.4701 14.5849 10.4701 14.3342 10.5954L12.5796 11.6294L11.389 12.2873L9.6658 13.3213C9.44648 13.4466 9.16449 13.4466 8.91384 13.3213L7.56658 12.5067C7.34726 12.3813 7.1906 12.1307 7.1906 11.8487V10.2821C7.1906 10.0315 7.31593 9.78082 7.56658 9.62416L8.91384 8.84087C9.13316 8.71554 9.41514 8.71554 9.6658 8.84087L11.0131 9.65549C11.2324 9.78082 11.389 10.0315 11.389 10.3135V11.3474L12.5796 10.6581V9.59283C12.5796 9.34218 12.4543 9.09152 12.2037 8.93487L9.69713 7.46228C9.47781 7.33695 9.19582 7.33695 8.94517 7.46228L6.37598 8.9662C6.12533 9.09152 6 9.34218 6 9.59283V12.538C6 12.7887 6.12533 13.0393 6.37598 13.196L8.91384 14.6685C9.13316 14.7939 9.41514 14.7939 9.6658 14.6685L11.389 13.6659L12.5796 12.9766L14.3029 11.974C14.5222 11.8487 14.8042 11.8487 15.0548 11.974L16.4021 12.7573C16.6214 12.8826 16.7781 13.1333 16.7781 13.4153V14.9819C16.7781 15.2325 16.6527 15.4832 16.4021 15.6398L15.0862 16.4231C14.8668 16.5484 14.5849 16.5484 14.3342 16.4231L12.9869 15.6398C12.7676 15.5145 12.611 15.2638 12.611 14.9819V13.9793L11.4204 14.6685V15.7025C11.4204 15.9531 11.5457 16.2038 11.7963 16.3605L14.3342 17.833C14.5535 17.9584 14.8355 17.9584 15.0862 17.833L17.624 16.3605C17.8433 16.2351 18 15.9845 18 15.7025V12.726C18 12.4753 17.8747 12.2247 17.624 12.068L15.0862 10.5954Z" fill="white"/>
</svg>
