<svg width="12" height="10" viewBox="0 0 12 10" fill="none" xmlns="http://www.w3.org/2000/svg">
<path fill-rule="evenodd" clip-rule="evenodd" d="M0.824937 4.28114C4.04616 2.87771 6.19414 1.95248 7.26889 1.50546C10.3375 0.229114 10.9751 0.00739922 11.3907 7.80599e-05C11.4822 -0.00153215 11.6865 0.0211213 11.8189 0.128546C11.9307 0.219253 11.9615 0.341785 11.9762 0.427785C11.9909 0.513786 12.0092 0.709697 11.9947 0.862776C11.8284 2.61 11.1088 6.85004 10.7428 8.80695C10.5879 9.635 10.2829 9.91264 9.98764 9.93981C9.34596 9.99886 8.8587 9.51574 8.2372 9.10835C7.26468 8.47085 6.71527 8.074 5.77127 7.45192C4.68032 6.733 5.38754 6.33787 6.00927 5.69211C6.17198 5.52312 8.99923 2.95152 9.05395 2.71824C9.06079 2.68906 9.06715 2.5803 9.00254 2.52288C8.93793 2.46545 8.84257 2.48509 8.77376 2.50071C8.67622 2.52285 7.1226 3.54972 4.11292 5.58134C3.67193 5.88416 3.2725 6.0317 2.91462 6.02397C2.52009 6.01545 1.76117 5.80089 1.19699 5.6175C0.504996 5.39256 -0.0449838 5.27364 0.00290711 4.89162C0.0278516 4.69265 0.301862 4.48915 0.824937 4.28114Z" fill="#373737"/>
</svg>
