<svg width="12" height="11" viewBox="0 0 12 11" fill="none" xmlns="http://www.w3.org/2000/svg">
<path d="M3.77376 10.084C8.30208 10.084 10.7789 6.33227 10.7789 3.07883C10.7789 2.97227 10.7789 2.86619 10.7717 2.76059C11.2535 2.41207 11.6695 1.98053 12 1.48619C11.5507 1.68539 11.074 1.81597 10.5859 1.87355C11.0999 1.5659 11.4846 1.08194 11.6683 0.511792C11.185 0.798596 10.6563 1.00071 10.105 1.10939C9.73376 0.714681 9.24281 0.453313 8.7081 0.365735C8.17338 0.278156 7.62471 0.36925 7.14698 0.624919C6.66926 0.880588 6.28911 1.28658 6.06537 1.78007C5.84163 2.27355 5.78677 2.82702 5.90928 3.35483C4.93045 3.30573 3.97288 3.05135 3.09873 2.60819C2.22458 2.16504 1.45338 1.54302 0.8352 0.782512C0.520364 1.32451 0.423936 1.96613 0.56555 2.57672C0.707163 3.18732 1.07617 3.72099 1.59744 4.06907C1.20562 4.05759 0.822324 3.95189 0.48 3.76091V3.79211C0.480156 4.36054 0.676926 4.91141 1.03694 5.3513C1.39695 5.79118 1.89803 6.093 2.4552 6.20555C2.09274 6.30442 1.71244 6.31887 1.34352 6.24779C1.50091 6.73696 1.80721 7.16471 2.21962 7.47126C2.63202 7.77781 3.12991 7.94783 3.64368 7.95755C3.13322 8.35879 2.54866 8.65545 1.92344 8.83055C1.29822 9.00566 0.644607 9.05577 0 8.97803C1.12592 9.70054 2.43596 10.0838 3.77376 10.082" fill="#373737"/>
</svg>
