<svg width="12" height="10" viewBox="0 0 12 10" fill="none" xmlns="http://www.w3.org/2000/svg">
<path d="M10.1585 0.990913C9.39367 0.624833 8.57349 0.35512 7.71595 0.200645C7.70033 0.197664 7.68473 0.205114 7.67669 0.220015C7.57121 0.415717 7.45437 0.671025 7.37255 0.871696C6.4502 0.727654 5.53259 0.727654 4.62916 0.871696C4.54732 0.666564 4.42624 0.415717 4.32029 0.220015C4.31224 0.205611 4.29664 0.198161 4.28102 0.200645C3.42395 0.354627 2.60378 0.624339 1.83847 0.990913C1.83184 0.993893 1.82616 0.998865 1.82239 1.00532C0.266696 3.42977 -0.159475 5.79462 0.0495901 8.13016C0.050536 8.14158 0.0566849 8.15252 0.065199 8.15946C1.0916 8.94575 2.08585 9.4231 3.06164 9.73949C3.07726 9.74447 3.0938 9.73851 3.10374 9.72509C3.33456 9.39628 3.54032 9.04958 3.71674 8.68498C3.72715 8.66362 3.71721 8.63829 3.69593 8.62985C3.36957 8.5007 3.0588 8.34324 2.75986 8.16443C2.73622 8.15003 2.73433 8.11475 2.75608 8.09786C2.81899 8.04869 2.88191 7.99753 2.94198 7.94587C2.95285 7.93644 2.96799 7.93444 2.98077 7.9404C4.94464 8.87572 7.07077 8.87572 9.01148 7.9404C9.02425 7.93395 9.0394 7.93594 9.05074 7.94537C9.11082 7.99703 9.17373 8.04869 9.23711 8.09786C9.25886 8.11475 9.25744 8.15003 9.2338 8.16443C8.93486 8.34672 8.62409 8.5007 8.29726 8.62935C8.27598 8.6378 8.26651 8.66362 8.27692 8.68498C8.45713 9.04906 8.66288 9.39577 8.88945 9.7246C8.89891 9.73851 8.91593 9.74447 8.93155 9.73949C9.91207 9.4231 10.9063 8.94575 11.9327 8.15946C11.9417 8.15252 11.9474 8.14208 11.9483 8.13065C12.1985 5.43052 11.5292 3.08505 10.1741 1.00581C10.1708 0.998865 10.1651 0.993893 10.1585 0.990913ZM4.01001 6.70806C3.41875 6.70806 2.93157 6.14182 2.93157 5.44642C2.93157 4.75102 3.4093 4.18478 4.01001 4.18478C4.61544 4.18478 5.0979 4.75599 5.08844 5.44642C5.08844 6.14182 4.6107 6.70806 4.01001 6.70806ZM7.99737 6.70806C7.40613 6.70806 6.91895 6.14182 6.91895 5.44642C6.91895 4.75102 7.39666 4.18478 7.99737 4.18478C8.60282 4.18478 9.08527 4.75599 9.07582 5.44642C9.07582 6.14182 8.60282 6.70806 7.99737 6.70806Z" fill="#373737"/>
</svg>
