<svg width="24" height="24" viewBox="0 0 24 24" fill="none" xmlns="http://www.w3.org/2000/svg">
<path fill-rule="evenodd" clip-rule="evenodd" d="M4.23741 10.9217C9.06923 8.81657 12.2912 7.42873 13.9033 6.75819C18.5063 4.84367 19.4627 4.5111 20.0861 4.50012C20.2232 4.4977 20.5298 4.53168 20.7284 4.69282C20.8961 4.82888 20.9422 5.01268 20.9643 5.14168C20.9864 5.27068 21.0139 5.56455 20.992 5.79416C20.7426 8.41499 19.6633 14.7751 19.1142 17.7104C18.8818 18.9525 18.4244 19.369 17.9815 19.4097C17.0189 19.4983 16.288 18.7736 15.3558 18.1625C13.897 17.2063 13.0729 16.611 11.6569 15.6779C10.0205 14.5995 11.0813 14.0068 12.0139 13.0382C12.258 12.7847 16.4988 8.92728 16.5809 8.57735C16.5912 8.53359 16.6007 8.37046 16.5038 8.28432C16.4069 8.19818 16.2639 8.22763 16.1606 8.25106C16.0143 8.28427 13.6839 9.82459 9.16938 12.872C8.5079 13.3262 7.90875 13.5476 7.37193 13.536C6.78013 13.5232 5.64175 13.2013 4.79548 12.9263C3.75749 12.5888 2.93252 12.4105 3.00436 11.8374C3.04178 11.539 3.45279 11.2337 4.23741 10.9217Z" fill="#8850EA"/>
</svg>
