<svg width="24" height="24" viewBox="0 0 24 24" fill="none" xmlns="http://www.w3.org/2000/svg">
<path d="M18.2378 5.98716C17.0905 5.43803 15.8602 5.03347 14.5739 4.80175C14.5505 4.79728 14.5271 4.80846 14.515 4.83081C14.3568 5.12436 14.1815 5.50732 14.0588 5.80833C12.6753 5.59227 11.2989 5.59227 9.94374 5.80833C9.82099 5.50063 9.63936 5.12436 9.48043 4.83081C9.46836 4.8092 9.44496 4.79803 9.42154 4.80175C8.13593 5.03273 6.90567 5.43729 5.7577 5.98716C5.74776 5.99163 5.73924 5.99908 5.73359 6.00876C3.40004 9.64543 2.76079 13.1927 3.07439 16.696C3.0758 16.7132 3.08503 16.7296 3.0978 16.74C4.63741 17.9194 6.12878 18.6354 7.59246 19.11C7.61588 19.1175 7.6407 19.1085 7.65561 19.0884C8.00184 18.5952 8.31048 18.0751 8.57511 17.5282C8.59072 17.4962 8.57582 17.4582 8.5439 17.4456C8.05435 17.2518 7.5882 17.0156 7.1398 16.7474C7.10433 16.7258 7.10149 16.6729 7.13412 16.6476C7.22848 16.5738 7.32286 16.4971 7.41297 16.4196C7.42927 16.4054 7.45198 16.4024 7.47115 16.4114C10.417 17.8144 13.6062 17.8144 16.5172 16.4114C16.5364 16.4017 16.5591 16.4047 16.5761 16.4188C16.6662 16.4963 16.7606 16.5738 16.8557 16.6476C16.8883 16.6729 16.8862 16.7258 16.8507 16.7474C16.4023 17.0209 15.9361 17.2518 15.4459 17.4448C15.414 17.4575 15.3998 17.4962 15.4154 17.5282C15.6857 18.0744 15.9943 18.5944 16.3342 19.0877C16.3484 19.1085 16.3739 19.1175 16.3973 19.11C17.8681 18.6354 19.3595 17.9194 20.8991 16.74C20.9126 16.7296 20.9211 16.7139 20.9225 16.6968C21.2978 12.6466 20.2939 9.12837 18.2612 6.0095C18.2562 5.99908 18.2477 5.99163 18.2378 5.98716ZM9.01502 14.5629C8.12812 14.5629 7.39735 13.7135 7.39735 12.6704C7.39735 11.6273 8.11395 10.7779 9.01502 10.7779C9.92315 10.7779 10.6469 11.6348 10.6327 12.6704C10.6327 13.7135 9.91606 14.5629 9.01502 14.5629ZM14.9961 14.5629C14.1092 14.5629 13.3784 13.7135 13.3784 12.6704C13.3784 11.6273 14.095 10.7779 14.9961 10.7779C15.9042 10.7779 16.6279 11.6348 16.6137 12.6704C16.6137 13.7135 15.9042 14.5629 14.9961 14.5629Z" fill="#8850EA"/>
</svg>
