<svg width="24" height="24" viewBox="0 0 24 24" fill="none" xmlns="http://www.w3.org/2000/svg">
<path d="M8.66064 19.6259C15.4531 19.6259 19.1683 13.9984 19.1683 9.11826C19.1683 8.95842 19.1683 8.7993 19.1575 8.6409C19.8803 8.11811 20.5042 7.47081 21 6.7293C20.326 7.0281 19.611 7.22396 18.8789 7.31034C19.6499 6.84885 20.2269 6.12292 20.5025 5.2677C19.7776 5.6979 18.9845 6.00107 18.1574 6.1641C17.6006 5.57203 16.8642 5.17998 16.0621 5.04861C15.2601 4.91724 14.4371 5.05388 13.7205 5.43739C13.0039 5.82089 12.4337 6.42988 12.0981 7.17011C11.7624 7.91034 11.6802 8.74054 11.8639 9.53226C10.3957 9.4586 8.95932 9.07703 7.64809 8.4123C6.33686 7.74757 5.18007 6.81454 4.2528 5.67378C3.78055 6.48677 3.6359 7.4492 3.84832 8.36509C4.06075 9.28099 4.61426 10.0815 5.39616 10.6036C4.80842 10.5864 4.23349 10.4278 3.72 10.1414V10.1882C3.72023 11.0408 4.01539 11.8671 4.5554 12.527C5.09542 13.1868 5.84705 13.6395 6.6828 13.8083C6.13911 13.9566 5.56866 13.9783 5.01528 13.8717C5.25136 14.6054 5.71082 15.2471 6.32943 15.7069C6.94804 16.1667 7.69487 16.4218 8.46552 16.4363C7.69983 17.0382 6.82299 17.4832 5.88516 17.7458C4.94733 18.0085 3.96691 18.0837 3 17.9671C4.68887 19.0508 6.65394 19.6257 8.66064 19.6231" fill="#8850EA"/>
</svg>
