<svg width="16" height="16" viewBox="0 0 16 16" fill="none" xmlns="http://www.w3.org/2000/svg">
<path d="M7.9998 0.800049C8.39745 0.800049 8.7198 1.1224 8.7198 1.52005V2.24005C8.7198 2.63769 8.39745 2.96005 7.9998 2.96005C7.60216 2.96005 7.2798 2.63769 7.2798 2.24005V1.52005C7.2798 1.1224 7.60216 0.800049 7.9998 0.800049Z" fill="#8850EA"/>
<path d="M9.4398 13.04V14.12C9.4398 14.7165 8.95627 15.2 8.3598 15.2H7.6398C7.04334 15.2 6.5598 14.7165 6.5598 14.12V13.04H9.4398Z" fill="#8850EA"/>
<path d="M13.7598 7.28005C13.3622 7.28005 13.0398 7.6024 13.0398 8.00005C13.0398 8.39769 13.3622 8.72005 13.7598 8.72005H14.4798C14.8774 8.72005 15.1998 8.39769 15.1998 8.00005C15.1998 7.6024 14.8774 7.28005 14.4798 7.28005H13.7598Z" fill="#8850EA"/>
<path d="M0.799805 8.00005C0.799805 7.6024 1.12216 7.28005 1.5198 7.28005H2.2398C2.63745 7.28005 2.9598 7.6024 2.9598 8.00005C2.9598 8.39769 2.63745 8.72005 2.2398 8.72005H1.5198C1.12216 8.72005 0.799805 8.39769 0.799805 8.00005Z" fill="#8850EA"/>
<path d="M3.92687 2.90889C3.64569 2.62771 3.18981 2.62771 2.90864 2.90889C2.62746 3.19006 2.62746 3.64594 2.90864 3.92712L3.41775 4.43624C3.69893 4.71741 4.15481 4.71741 4.43599 4.43624C4.71716 4.15506 4.71716 3.69918 4.43599 3.418L3.92687 2.90889Z" fill="#8850EA"/>
<path d="M11.5636 4.43623C11.2824 4.15505 11.2824 3.69917 11.5636 3.41799L12.0727 2.90888C12.3539 2.6277 12.8098 2.6277 13.091 2.90888C13.3721 3.19005 13.3721 3.64593 13.091 3.92711L12.5819 4.43623C12.3007 4.7174 11.8448 4.7174 11.5636 4.43623Z" fill="#8850EA"/>
<path d="M10.3528 8.94114C9.90759 9.57068 9.4398 10.2496 9.4398 11.0207V11.6H6.5598V11.0207C6.5598 10.2496 6.09202 9.57068 5.6468 8.94114C5.31485 8.47176 5.1198 7.89868 5.1198 7.28005C5.1198 5.68945 6.40922 4.40005 7.9998 4.40005C9.59038 4.40005 10.8798 5.68945 10.8798 7.28005C10.8798 7.89868 10.6848 8.47176 10.3528 8.94114Z" fill="#8850EA"/>
</svg>
