<svg width="189" height="36" viewBox="0 0 189 36" fill="none" xmlns="http://www.w3.org/2000/svg">
<path d="M65.9158 17.2877C65.9158 11.3755 61.9941 6.59217 55.4579 6.59217C48.9217 6.59217 45 11.3755 45 17.2877C45 23.2 48.9217 27.9833 55.4579 27.9833C56.9731 27.9833 58.3695 27.7159 59.5876 27.2406L61.5187 29.6471H65.4404L62.2615 25.6956C64.6085 23.7348 65.9158 20.7044 65.9158 17.2877ZM55.4579 24.4181C51.4471 24.4181 49.0405 21.2392 49.0405 17.2877C49.0405 13.3363 51.4471 10.1574 55.4579 10.1574C59.4687 10.1574 61.8752 13.3363 61.8752 17.2877C61.8752 19.4566 61.1622 21.3877 59.855 22.6949L58.1912 20.6152H54.2695L57.1514 24.2101C56.6166 24.3587 56.0521 24.4181 55.4579 24.4181Z" fill="#F8FFF2"/>
<path d="M72.5694 27.9833C75.3027 27.9833 77.0259 25.7551 77.7984 24.2101C77.9172 23.9725 78.0063 23.7942 78.244 23.8536C78.6302 23.9428 78.452 24.3587 78.3331 24.6261C78.0657 25.25 77.8578 25.8145 77.8578 26.7652V27.7456L81.6606 27.7456V12.0588L77.8578 12.0588V18.4464C77.8578 22.071 75.8375 24.537 73.639 24.537C71.6484 24.537 70.7274 23.5565 70.7274 20.021V12.0588H66.9245V21.3283C66.9245 25.7848 69.1825 27.9833 72.5694 27.9833Z" fill="#F8FFF2"/>
<path d="M97.8874 19.6942C97.8874 13.9899 94.1142 11.8211 90.4896 11.8211C85.7063 11.8211 82.6759 15.0001 82.6759 19.9022C82.6759 24.5667 85.4686 27.9833 90.549 27.9833C94.7381 27.9833 96.9366 25.5174 97.62 22.279H93.7577C93.312 23.6754 92.391 24.6558 90.5787 24.6558C88.2019 24.6558 86.657 23.2297 86.3896 20.8529H97.7982C97.8577 20.4073 97.8874 20.1102 97.8874 19.6942ZM86.5382 18.2385C86.9244 16.3667 88.0237 14.9109 90.6084 14.9109C92.807 14.9109 93.9359 16.337 94.0845 18.2385H86.5382Z" fill="#F8FFF2"/>
<path d="M98.4094 22.4573C98.5579 25.8145 100.964 27.9833 105.51 27.9833C110.145 27.9833 112.67 26.1116 112.67 22.8435C112.67 19.6942 109.907 18.4464 106.075 18.0602C103.014 17.7631 102.688 17.1392 102.688 16.3964C102.688 15.5051 103.341 14.7921 105.51 14.7921C107.709 14.7921 108.362 15.8914 108.451 16.8718H112.195C111.987 14.0196 109.729 11.8211 105.599 11.8211C101.143 11.8211 98.8847 14.0494 98.8847 16.6044C98.8847 18.3573 99.5086 20.8529 104.322 21.4471C107.322 21.8036 108.867 21.9819 108.867 23.1406C108.867 24.1804 108.065 25.0123 105.629 25.0123C102.866 25.0123 102.183 23.6159 102.153 22.4573L98.4094 22.4573Z" fill="#F8FFF2"/>
<path d="M123.672 15.3863V12.0588L119.394 12.0588V7.78057L115.591 7.78057V12.0588H112.739V15.3863H115.591V22.9326C115.591 26.7058 117.077 27.7456 120.226 27.7456L123.672 27.7456V24.4181L121.028 24.4181C119.424 24.4181 119.394 24.2696 119.394 22.5464V15.3863H123.672Z" fill="#F8FFF2"/>
<path d="M128.545 6.35449L124.742 6.35449V27.7456H128.545V27.0623C128.545 26.4681 128.397 25.9927 128.129 25.458C127.981 25.1609 127.862 24.8638 128.189 24.7449C128.456 24.6558 128.575 24.9529 128.634 25.042C129.585 26.7652 131.219 27.9833 133.596 27.9833C137.666 27.9833 140.429 24.4181 140.429 19.9022C140.429 15.3863 137.666 11.8211 133.596 11.8211C131.16 11.8211 129.585 13.0689 128.634 14.7327C128.575 14.8515 128.397 15.2378 128.1 15.0892C127.802 14.9407 128.01 14.5841 128.129 14.287C128.397 13.7523 128.545 13.2769 128.545 12.653V6.35449ZM132.705 24.537C130.209 24.537 128.545 22.3978 128.545 19.9022C128.545 17.4066 130.209 15.2675 132.705 15.2675C135.378 15.2675 136.626 17.4066 136.626 19.9022C136.626 22.3978 135.378 24.537 132.705 24.537Z" fill="#F8FFF2"/>
<path d="M149.051 11.8211C144.149 11.8211 141.208 15.4457 141.208 19.9022C141.208 24.3587 144.149 27.9833 149.051 27.9833C153.953 27.9833 156.895 24.3587 156.895 19.9022C156.895 15.4457 153.953 11.8211 149.051 11.8211ZM149.051 24.537C146.467 24.537 145.011 22.4573 145.011 19.9022C145.011 17.3472 146.467 15.2675 149.051 15.2675C151.636 15.2675 153.092 17.3472 153.092 19.9022C153.092 22.4573 151.636 24.537 149.051 24.537Z" fill="#F8FFF2"/>
<path d="M165.394 11.8211C160.492 11.8211 157.551 15.4457 157.551 19.9022C157.551 24.3587 160.492 27.9833 165.394 27.9833C170.296 27.9833 173.238 24.3587 173.238 19.9022C173.238 15.4457 170.296 11.8211 165.394 11.8211ZM165.394 24.537C162.809 24.537 161.354 22.4573 161.354 19.9022C161.354 17.3472 162.809 15.2675 165.394 15.2675C167.979 15.2675 169.435 17.3472 169.435 19.9022C169.435 22.4573 167.979 24.537 165.394 24.537Z" fill="#F8FFF2"/>
<path d="M189 27.7456L181.988 18.6247L188.525 12.0588L183.771 12.0588L177.799 18.4761C177.71 18.5653 177.532 18.7435 177.294 18.5653C177.116 18.4167 177.175 18.2087 177.294 18.0602C177.77 17.466 178.067 16.9609 178.067 15.7131V6.35449L174.264 6.35449V27.7456H178.067V22.5464L179.433 21.1797L184.246 27.7456L189 27.7456Z" fill="#F8FFF2"/>
<rect width="36" height="36" fill="#F8FFF2"/>
<path d="M10.1803 15.4726C8.8721 16.5727 7.65308 17.762 6.46379 18.9216V14.8185C9.05049 11.8751 13.8374 7.83147 19.6649 7.83147C24.4518 7.83147 29.2386 10.6263 32.866 14.8185V18.9216C30.6658 16.6619 27.9602 14.2536 25.1653 12.7076C26.7411 16.2159 25.4627 19.2486 24.095 20.9434L24.5707 21.538C26.3546 20.1703 28.0494 18.5648 29.5062 17.0187V21.211C25.9086 25.4032 21.1812 28.1386 16.3943 28.1386C11.5777 28.1386 6.79085 25.4032 3.13379 21.211V17.0187C6.79085 20.7947 11.5777 24.8085 16.3943 24.8085C17.4052 24.8085 18.4459 24.6302 19.3973 24.3031L19.2189 23.7679C13.5698 24.3923 9.82353 19.9325 10.1803 15.4726ZM3.13379 32.866H32.866V21.9245C32.866 21.9245 31.4983 23.4409 29.5062 24.8085V29.536H6.46379V27.5736C4.5312 26.3249 3.13379 24.8085 3.13379 24.8085V32.866ZM3.13379 14.0455C3.13379 14.0455 4.5312 12.5589 6.46379 11.2209V6.46379H29.5062V8.39639C31.528 9.67487 32.866 11.2209 32.866 11.2209V6.46379H29.5062V3.13379H3.13379V14.0455ZM17.3458 14.0752C18.5945 14.0752 19.6351 15.1753 19.6351 16.3943H20.2595C20.2595 15.1753 21.3002 14.0752 22.5786 14.0752V13.4211C21.3002 13.4211 20.2595 12.3805 20.2595 11.1615H19.6351C19.6351 12.3805 18.5945 13.4211 17.3458 13.4211V14.0752Z" fill="#1F1F33"/>
</svg>
