<svg width="24" height="24" viewBox="0 0 24 24" fill="none" xmlns="http://www.w3.org/2000/svg">
<path d="M5.688 9.96C4.632 10.848 3.648 11.808 2.688 12.744V9.432C4.776 7.056 8.64 3.792 13.344 3.792C17.208 3.792 21.072 6.048 24 9.432V12.744C22.224 10.92 20.04 8.976 17.784 7.728C19.056 10.56 18.024 13.008 16.92 14.376L17.304 14.856C18.744 13.752 20.112 12.456 21.288 11.208V14.592C18.384 17.976 14.568 20.184 10.704 20.184C6.816 20.184 2.952 17.976 0 14.592V11.208C2.952 14.256 6.816 17.496 10.704 17.496C11.52 17.496 12.36 17.352 13.128 17.088L12.984 16.656C8.424 17.16 5.4 13.56 5.688 9.96ZM0 24H24V15.168C24 15.168 22.896 16.392 21.288 17.496V21.312H2.688V19.728C1.128 18.72 0 17.496 0 17.496V24ZM0 8.808C0 8.808 1.128 7.608 2.688 6.528V2.688H21.288V4.248C22.92 5.28 24 6.528 24 6.528V2.688H21.288V0H0V8.808ZM11.472 8.832C12.48 8.832 13.32 9.72 13.32 10.704H13.824C13.824 9.72 14.664 8.832 15.696 8.832V8.304C14.664 8.304 13.824 7.464 13.824 6.48H13.32C13.32 7.464 12.48 8.304 11.472 8.304V8.832Z" fill="#1F1F33"/>
</svg>
