<svg width="40" height="40" viewBox="0 0 40 40" fill="none" xmlns="http://www.w3.org/2000/svg">
<rect width="40" height="40" rx="2" fill="#C04CFD"/>
<path d="M8 16.1999H30.8C31.1183 16.1999 31.4235 16.3263 31.6485 16.5514C31.8736 16.7764 32 17.0816 32 17.3999V29.3999C32 29.7181 31.8736 30.0234 31.6485 30.2484C31.4235 30.4735 31.1183 30.5999 30.8 30.5999H9.2C8.88174 30.5999 8.57652 30.4735 8.35147 30.2484C8.12643 30.0234 8 29.7181 8 29.3999V16.1999ZM9.2 8.99988H27.2V13.7999H8V10.1999C8 9.88162 8.12643 9.57639 8.35147 9.35135C8.57652 9.12631 8.88174 8.99988 9.2 8.99988ZM23.6 22.1999V24.5999H27.2V22.1999H23.6Z" fill="#EFC6A9"/>
</svg>
