<svg width="48" height="48" viewBox="0 0 48 48" fill="none" xmlns="http://www.w3.org/2000/svg">
<rect width="48" height="48" rx="2" fill="#FFDCC0"/>
<path d="M26.6666 27.0028V37.3335H13.3333C13.3329 35.7053 13.7052 34.0987 14.4217 32.6367C15.1382 31.1747 16.1799 29.8961 17.4669 28.8989C18.754 27.9017 20.2522 27.2123 21.8469 26.8837C23.4415 26.555 25.0902 26.5958 26.6666 27.0028ZM24 25.3335C19.58 25.3335 16 21.7535 16 17.3335C16 12.9135 19.58 9.3335 24 9.3335C28.42 9.3335 32 12.9135 32 17.3335C32 21.7535 28.42 25.3335 24 25.3335ZM33.3333 30.1148L36.1613 27.2855L38.048 29.1722L35.2186 32.0002L38.048 34.8282L36.1613 36.7148L33.3333 33.8855L30.5053 36.7148L28.6186 34.8282L31.448 32.0002L28.6186 29.1722L30.5053 27.2855L33.3333 30.1148Z" fill="#FF7545"/>
</svg>
