<svg width="15" height="15" viewBox="0 0 15 15" fill="none" xmlns="http://www.w3.org/2000/svg">
<mask id="path-1-inside-1_3102_13283" fill="white">
<path d="M10.3001 1.76722C12.6564 4.12352 12.6564 7.94382 10.3001 10.3001C7.94382 12.6564 4.12352 12.6564 1.76722 10.3001C-0.589074 7.94382 -0.589074 4.12352 1.76722 1.76722C4.12352 -0.589074 7.94382 -0.589074 10.3001 1.76722Z"/>
</mask>
<path d="M8.88591 3.18143C10.4612 4.75668 10.4612 7.31066 8.88591 8.88591L11.7143 11.7143C14.8517 8.57699 14.8517 3.49035 11.7143 0.353007L8.88591 3.18143ZM8.88591 8.88591C7.31066 10.4612 4.75668 10.4612 3.18143 8.88591L0.353007 11.7143C3.49035 14.8517 8.57699 14.8517 11.7143 11.7143L8.88591 8.88591ZM3.18143 8.88591C1.60619 7.31066 1.60619 4.75668 3.18143 3.18143L0.353007 0.353007C-2.78434 3.49035 -2.78434 8.57699 0.353007 11.7143L3.18143 8.88591ZM3.18143 3.18143C4.75668 1.60619 7.31066 1.60619 8.88591 3.18143L11.7143 0.353007C8.57699 -2.78434 3.49035 -2.78434 0.353007 0.353007L3.18143 3.18143Z" fill="white" mask="url(#path-1-inside-1_3102_13283)"/>
<path d="M9.69019 9.69141L13.9999 14.0012" stroke="white" stroke-width="2" stroke-linecap="round" stroke-linejoin="round"/>
</svg>
