<svg width="16" height="16" viewBox="0 0 16 16" fill="none" xmlns="http://www.w3.org/2000/svg">
<path d="M6.33331 0.083313C9.78509 0.083313 12.5833 2.88153 12.5833 6.33331C12.5833 7.75844 12.1063 9.07216 11.3033 10.1235L15.2559 14.0774C15.5813 14.4028 15.5813 14.9305 15.2559 15.2559C14.9555 15.5563 14.4828 15.5794 14.1559 15.3252L14.0774 15.2559L10.1235 11.3033C9.07216 12.1063 7.75844 12.5833 6.33331 12.5833C2.88153 12.5833 0.083313 9.78509 0.083313 6.33331C0.083313 2.88153 2.88153 0.083313 6.33331 0.083313ZM6.33331 1.74998C3.80201 1.74998 1.74998 3.80201 1.74998 6.33331C1.74998 8.86462 3.80201 10.9166 6.33331 10.9166C8.86462 10.9166 10.9166 8.86462 10.9166 6.33331C10.9166 3.80201 8.86462 1.74998 6.33331 1.74998Z" fill="#717A7C"/>
</svg>
