<svg width="17" height="20" viewBox="0 0 17 20" fill="none" xmlns="http://www.w3.org/2000/svg">
<path d="M2.09634 13.5192C1.88543 12.5987 1.77936 11.6573 1.78017 10.713C1.78017 5.83834 4.56144 1.67266 8.48664 -0.00012207C12.4118 1.67266 15.1931 5.83834 15.1931 10.713C15.1931 11.6806 15.0839 12.6205 14.8769 13.5192L16.8122 15.2398C16.8955 15.3139 16.9504 15.4147 16.9674 15.5249C16.9843 15.6351 16.9623 15.7477 16.9052 15.8434L14.5502 19.7677C14.5128 19.83 14.4616 19.883 14.4005 19.9226C14.3395 19.9622 14.2703 19.9874 14.1981 19.9963C14.1259 20.0052 14.0526 19.9975 13.9838 19.9738C13.915 19.9501 13.8525 19.9111 13.801 19.8596L11.6416 17.7002C11.4619 17.5205 11.2183 17.4195 10.9642 17.4194H6.00908C5.75501 17.4195 5.51136 17.5205 5.33173 17.7002L3.17225 19.8596C3.12079 19.9111 3.0583 19.9501 2.9895 19.9738C2.92071 19.9975 2.84743 20.0052 2.77522 19.9963C2.70301 19.9874 2.63376 19.9622 2.57274 19.9226C2.51172 19.883 2.46052 19.83 2.42304 19.7677L0.0681089 15.8444C0.0106974 15.7486 -0.0114371 15.6357 0.0055321 15.5254C0.0225013 15.415 0.0775075 15.314 0.161041 15.2398L2.09634 13.5192ZM8.48664 10.713C8.99483 10.713 9.48221 10.5111 9.84155 10.1518C10.2009 9.79241 10.4028 9.30504 10.4028 8.79685C10.4028 8.28866 10.2009 7.80128 9.84155 7.44194C9.48221 7.08259 8.99483 6.88071 8.48664 6.88071C7.97845 6.88071 7.49108 7.08259 7.13173 7.44194C6.77239 7.80128 6.57051 8.28866 6.57051 8.79685C6.57051 9.30504 6.77239 9.79241 7.13173 10.1518C7.49108 10.5111 7.97845 10.713 8.48664 10.713Z" fill="white"/>
</svg>
