<svg width="14" height="14" viewBox="0 0 14 14" fill="none" xmlns="http://www.w3.org/2000/svg">
<path d="M3.16635 7.75678L3.16646 7.75687C3.45366 7.97515 3.68583 8.23628 3.79746 8.57667C3.90891 8.91652 3.87659 9.26349 3.77746 9.60672L3.16635 7.75678ZM3.16635 7.75678C2.43799 7.20355 1.73714 6.61011 1.08152 5.97854L1.08151 5.97854M3.16635 7.75678L1.08151 5.97854M1.08151 5.97854C1.02847 5.92744 0.955641 5.82331 0.906288 5.70523M1.08151 5.97854L0.906288 5.70523M6.63943 1.53784L6.63941 1.5379C6.22434 2.37436 5.87302 3.2527 5.54955 4.147C5.44409 4.4386 5.28779 4.7024 5.02895 4.88742C4.7718 5.07123 4.47502 5.13308 4.17758 5.14485M6.63943 1.53784L1.25523 5.37091C2.21354 5.24045 3.1896 5.18396 4.17758 5.14485M6.63943 1.53784C6.67812 1.45985 6.76673 1.34484 6.87612 1.25173C6.92568 1.20954 6.96873 1.18119 7.00023 1.16495C7.00085 1.16526 7.00147 1.16559 7.00211 1.16592C7.0358 1.18335 7.08133 1.21403 7.13339 1.25967C7.24103 1.35402 7.33229 1.47293 7.37754 1.56154L7.37755 1.56155M6.63943 1.53784L7.37755 1.56155M4.17758 5.14485L4.15781 4.64524M4.17758 5.14485C4.17758 5.14485 4.17758 5.14485 4.17759 5.14485L4.15781 4.64524M4.15781 4.64524C4.64727 4.62587 4.90884 4.44848 5.07936 3.97693L4.15781 4.64524ZM7.37755 1.56155C7.75002 2.29077 8.07589 3.04371 8.30415 3.80903L8.30417 3.80911M7.37755 1.56155L8.30417 3.80911M8.30417 3.80911C8.44042 4.26568 8.66402 4.63481 9.02209 4.87989C9.37204 5.11942 9.78545 5.19522 10.2097 5.20237C11.033 5.21636 11.856 5.27617 12.6594 5.40188C12.7594 5.41759 12.9167 5.47117 13.0496 5.54517C13.0838 5.56422 13.1112 5.58178 13.1322 5.59678C13.1254 5.64567 13.1084 5.71484 13.072 5.80121C13.0129 5.94139 12.9272 6.06777 12.8503 6.14462C12.2365 6.75771 11.5492 7.31092 10.839 7.86573L10.839 7.86573M8.30417 3.80911L10.839 7.86573M10.839 7.86573C10.5989 8.05331 10.3646 8.28383 10.2431 8.60139C10.1167 8.93221 10.1422 9.27647 10.2564 9.63082C10.5324 10.4873 10.7341 11.3791 10.8882 12.2794C10.9052 12.3786 10.9045 12.5426 10.8766 12.6904C10.8688 12.7316 10.8602 12.7649 10.852 12.7904C10.8066 12.7993 10.7375 12.8058 10.6443 12.799C10.4939 12.7881 10.3533 12.7471 10.2676 12.7019C9.85061 12.4815 9.4483 12.2258 9.02691 11.9569L9.00336 11.9419C8.59478 11.6812 8.16737 11.4086 7.71893 11.1691M10.839 7.86573L7.48342 11.6102M3.06074 12.4812C3.0779 12.7167 3.16795 12.7972 3.20651 12.8195C3.24816 12.8435 3.37213 12.882 3.59874 12.754C3.98377 12.5365 4.35905 12.3007 4.74585 12.0576C4.79359 12.0275 4.84151 11.9974 4.88964 11.9672C5.32329 11.6951 5.77196 11.4173 6.24063 11.1687M3.06074 12.4812L6.47498 11.6103M3.06074 12.4812C3.12243 12.2279 3.18311 11.9704 3.24449 11.7098C3.40663 11.0216 3.5737 10.3125 3.77745 9.60677L3.06074 12.4812ZM6.24063 11.1687L6.47498 11.6103M6.24063 11.1687C6.24062 11.1687 6.24061 11.1687 6.2406 11.1687L6.47498 11.6103M6.24063 11.1687C6.46922 11.0474 6.74214 11.0034 6.97924 11.0032C7.21605 11.0031 7.48972 11.0466 7.71893 11.1691M6.47498 11.6103C6.74343 11.4679 7.21588 11.4672 7.48342 11.6102M7.71893 11.1691L7.48342 11.6102M7.71893 11.1691C7.71899 11.1691 7.71906 11.1692 7.71912 11.1692L7.48342 11.6102M0.906288 5.70523C0.885229 5.65485 0.873231 5.61309 0.867661 5.58324M0.906288 5.70523L0.867661 5.58324M0.867661 5.58324C0.867749 5.58315 0.867837 5.58305 0.867925 5.58295C0.891501 5.55717 0.928998 5.52444 0.979465 5.49068C1.08757 5.41836 1.19765 5.37878 1.25516 5.37092L0.867661 5.58324ZM13.1824 5.63931C13.1823 5.63931 13.1807 5.6377 13.1782 5.63445C13.1813 5.63769 13.1826 5.63931 13.1824 5.63931ZM10.8291 12.8462C10.829 12.846 10.8299 12.8443 10.832 12.8412C10.8301 12.8448 10.8291 12.8463 10.8291 12.8462Z" fill="#BBDEFF" stroke="#88BDEE"/>
</svg>
