<svg width="20" height="20" viewBox="0 0 20 20" fill="none" xmlns="http://www.w3.org/2000/svg">
<path d="M3.6 6.8H16.4V17.2C16.4 17.4122 16.3157 17.6157 16.1657 17.7657C16.0157 17.9157 15.8122 18 15.6 18H4.4C4.18783 18 3.98434 17.9157 3.83431 17.7657C3.68429 17.6157 3.6 17.4122 3.6 17.2V6.8ZM6 4.4V2.8C6 2.58783 6.08429 2.38434 6.23431 2.23431C6.38434 2.08429 6.58783 2 6.8 2H13.2C13.4122 2 13.6157 2.08429 13.7657 2.23431C13.9157 2.38434 14 2.58783 14 2.8V4.4H18V6H2V4.4H6ZM7.6 3.6V4.4H12.4V3.6H7.6ZM7.6 10V14.8H9.2V10H7.6ZM10.8 10V14.8H12.4V10H10.8Z" fill="#FF7545"/>
</svg>
