<svg width="28" height="31" viewBox="0 0 28 31" fill="none" xmlns="http://www.w3.org/2000/svg">
<path d="M25.8984 30.5976H1.89844C1.50061 30.5976 1.11908 30.4396 0.837777 30.1583C0.556473 29.877 0.398438 29.4955 0.398438 29.0976V2.09766C0.398438 1.69983 0.556473 1.3183 0.837777 1.037C1.11908 0.755691 1.50061 0.597656 1.89844 0.597656H25.8984C26.2963 0.597656 26.6778 0.755691 26.9591 1.037C27.2404 1.3183 27.3984 1.69983 27.3984 2.09766V29.0976C27.3984 29.4955 27.2404 29.877 26.9591 30.1583C26.6778 30.4396 26.2963 30.5976 25.8984 30.5976ZM6.39844 6.59765V12.5977H12.3984V6.59765H6.39844ZM6.39844 15.5977V18.5977H21.3984V15.5977H6.39844ZM6.39844 21.5977V24.5977H21.3984V21.5977H6.39844ZM15.3984 8.09765V11.0977H21.3984V8.09765H15.3984Z" fill="#AD4FDB"/>
</svg>
