<svg width="14" height="14" viewBox="0 0 14 14" fill="none" xmlns="http://www.w3.org/2000/svg">
<path d="M11.0194 10.0767L13.8747 12.9314L12.9314 13.8747L10.0767 11.0194C9.01452 11.8708 7.69337 12.334 6.33203 12.332C3.02003 12.332 0.332031 9.64403 0.332031 6.33203C0.332031 3.02003 3.02003 0.332031 6.33203 0.332031C9.64403 0.332031 12.332 3.02003 12.332 6.33203C12.334 7.69337 11.8708 9.01452 11.0194 10.0767ZM9.68203 9.58203C10.5281 8.71196 11.0006 7.54565 10.9987 6.33203C10.9987 3.75337 8.91003 1.66536 6.33203 1.66536C3.75337 1.66536 1.66536 3.75337 1.66536 6.33203C1.66536 8.91003 3.75337 10.9987 6.33203 10.9987C7.54565 11.0006 8.71196 10.5281 9.58203 9.68203L9.68203 9.58203Z" fill="#7D7DA0"/>
</svg>
