<svg width="16" height="16" viewBox="0 0 16 16" fill="none" xmlns="http://www.w3.org/2000/svg">
<path fill-rule="evenodd" clip-rule="evenodd" d="M13 10C12.193 10 11.463 10.324 10.923 10.844L5.963 8.363C5.978 8.243 6 8.125 6 8C6 7.875 5.978 7.757 5.963 7.637L10.923 5.156C11.463 5.676 12.193 6 13 6C14.654 6 16 4.654 16 3C16 1.346 14.654 0 13 0C11.346 0 10 1.346 10 3C10 3.125 10.022 3.243 10.037 3.363L5.077 5.844C4.537 5.324 3.807 5 3 5C1.346 5 0 6.346 0 8C0 9.654 1.346 11 3 11C3.807 11 4.537 10.676 5.077 10.156L10.037 12.637C10.022 12.757 10 12.875 10 13C10 14.654 11.346 16 13 16C14.654 16 16 14.654 16 13C16 11.346 14.654 10 13 10Z" fill="#8850EA"/>
</svg>
