<svg width="14" height="13" viewBox="0 0 14 13" fill="none" xmlns="http://www.w3.org/2000/svg">
<path d="M3.16635 7.10139L3.16646 7.10147C3.45366 7.31975 3.68583 7.58088 3.79746 7.92128C3.90891 8.26112 3.87659 8.6081 3.77746 8.95133L3.16635 7.10139ZM3.16635 7.10139C2.43799 6.54815 1.73714 5.95471 1.08152 5.32315L1.08151 5.32314M3.16635 7.10139L1.08151 5.32314M1.08151 5.32314C1.02847 5.27205 0.955641 5.16792 0.906288 5.04984M1.08151 5.32314L0.906288 5.04984M6.63943 0.882447L6.63941 0.882501C6.22434 1.71897 5.87302 2.5973 5.54955 3.49161C5.44409 3.78321 5.28779 4.047 5.02895 4.23202C4.7718 4.41584 4.47502 4.47769 4.17758 4.48946M6.63943 0.882447L1.25523 4.71552C2.21354 4.58505 3.1896 4.52856 4.17758 4.48946M6.63943 0.882447C6.67812 0.804453 6.76673 0.689442 6.87612 0.596334C6.92568 0.554146 6.96873 0.525793 7.00023 0.509553C7.00085 0.509868 7.00147 0.51019 7.00211 0.510521C7.0358 0.527952 7.08133 0.558633 7.13339 0.60427C7.24103 0.698627 7.33229 0.817538 7.37754 0.906141L7.37755 0.906156M6.63943 0.882447L7.37755 0.906156M4.17758 4.48946L4.15781 3.98985M4.17758 4.48946C4.17758 4.48946 4.17758 4.48946 4.17759 4.48946L4.15781 3.98985M4.15781 3.98985C4.64727 3.97048 4.90884 3.79308 5.07936 3.32154L4.15781 3.98985ZM7.37755 0.906156C7.75002 1.63537 8.07589 2.38831 8.30415 3.15364L8.30417 3.15371M7.37755 0.906156L8.30417 3.15371M8.30417 3.15371C8.44042 3.61029 8.66402 3.97941 9.02209 4.22449C9.37204 4.46402 9.78545 4.53982 10.2097 4.54698C11.033 4.56097 11.856 4.62077 12.6594 4.74649C12.7594 4.76219 12.9167 4.81578 13.0496 4.88977C13.0838 4.90882 13.1112 4.92639 13.1322 4.94139C13.1254 4.99027 13.1084 5.05944 13.072 5.14582C13.0129 5.286 12.9272 5.41237 12.8503 5.48922C12.2365 6.10231 11.5492 6.65552 10.839 7.21033L10.839 7.21034M8.30417 3.15371L10.839 7.21034M10.839 7.21034C10.5989 7.39791 10.3646 7.62843 10.2431 7.94599C10.1167 8.27682 10.1422 8.62108 10.2564 8.97542C10.5324 9.83188 10.7341 10.7237 10.8882 11.624C10.9052 11.7232 10.9045 11.8872 10.8766 12.035C10.8688 12.0762 10.8602 12.1095 10.852 12.135C10.8066 12.1439 10.7375 12.1504 10.6443 12.1436C10.4939 12.1327 10.3533 12.0917 10.2676 12.0465C9.85061 11.8261 9.4483 11.5704 9.02691 11.3015L9.00336 11.2865C8.59478 11.0258 8.16737 10.7532 7.71893 10.5137M10.839 7.21034L7.48342 10.9548M3.06074 11.8258C3.0779 12.0613 3.16795 12.1418 3.20651 12.1641C3.24816 12.1881 3.37213 12.2266 3.59874 12.0986C3.98377 11.8811 4.35905 11.6453 4.74585 11.4022C4.79359 11.3722 4.84151 11.342 4.88964 11.3118C5.32329 11.0397 5.77196 10.7619 6.24063 10.5133M3.06074 11.8258L6.47498 10.9549M3.06074 11.8258C3.12243 11.5725 3.18311 11.315 3.24449 11.0544C3.40663 10.3663 3.5737 9.65712 3.77745 8.95137L3.06074 11.8258ZM6.24063 10.5133L6.47498 10.9549M6.24063 10.5133C6.24062 10.5133 6.24061 10.5133 6.2406 10.5133L6.47498 10.9549M6.24063 10.5133C6.46922 10.392 6.74214 10.348 6.97924 10.3478C7.21605 10.3477 7.48972 10.3912 7.71893 10.5137M6.47498 10.9549C6.74343 10.8125 7.21588 10.8118 7.48342 10.9548M7.71893 10.5137L7.48342 10.9548M7.71893 10.5137C7.71899 10.5137 7.71906 10.5138 7.71912 10.5138L7.48342 10.9548M0.906288 5.04984C0.885229 4.99945 0.873231 4.9577 0.867661 4.92785M0.906288 5.04984L0.867661 4.92785M0.867661 4.92785C0.867749 4.92775 0.867837 4.92766 0.867925 4.92756C0.891501 4.90177 0.928998 4.86905 0.979465 4.83528C1.08757 4.76296 1.19765 4.72338 1.25516 4.71553L0.867661 4.92785ZM13.1824 4.98392C13.1823 4.98392 13.1807 4.9823 13.1782 4.97905C13.1813 4.98229 13.1826 4.98392 13.1824 4.98392ZM10.8291 12.1908C10.829 12.1906 10.8299 12.1889 10.832 12.1858C10.8301 12.1894 10.8291 12.1909 10.8291 12.1908Z" fill="#BBDEFF" stroke="#88BDEE"/>
</svg>
