<svg width="14" height="14" viewBox="0 0 14 14" fill="none" xmlns="http://www.w3.org/2000/svg">
<path d="M2.93307 9.46815C3.09906 8.89343 2.97887 8.51909 2.4999 8.15507C1.75756 7.59121 1.04164 6.98517 0.370618 6.33876C0.148693 6.12498 -0.0620087 5.67914 0.0169139 5.43423M2.93307 9.46815C2.72567 10.1865 2.55399 10.9152 2.39072 11.6081C2.32442 11.8895 2.25951 12.165 2.19416 12.4316M2.93307 9.46815L3.41345 9.60684C3.51257 9.26361 3.5449 8.91664 3.43345 8.57679C3.32182 8.2364 3.08965 7.97527 2.80244 7.75699L2.80233 7.75691C2.07398 7.20367 1.37312 6.61023 0.717504 5.97866L0.717501 5.97866C0.664458 5.92757 0.591627 5.82343 0.542274 5.70535C0.521215 5.65497 0.509217 5.61322 0.503648 5.58337M2.93307 9.46815L3.41343 9.60689C3.20968 10.3126 3.04261 11.0218 2.88048 11.7099C2.8191 11.9705 2.75842 12.2281 2.69672 12.4813M2.19416 12.4316C2.20901 13.2333 2.81269 13.5667 3.48064 13.1895M2.19416 12.4316L2.69408 12.4223C2.69446 12.443 2.69536 12.4626 2.69672 12.4813M2.19416 12.4316L2.67978 12.5506C2.68544 12.5275 2.69109 12.5044 2.69672 12.4813M3.48064 13.1895C3.87659 12.9658 4.26222 12.7234 4.64775 12.4811C5.12903 12.1786 5.61015 11.8762 6.11097 11.6105C6.37942 11.468 6.85187 11.4673 7.11941 11.6103M3.48064 13.1895L3.23473 12.7541M3.48064 13.1895L3.23476 12.7541C3.23475 12.7541 3.23474 12.7541 3.23473 12.7541M7.11941 11.6103C7.55058 11.8405 7.96395 12.1042 8.3773 12.3679C8.80177 12.6387 9.22622 12.9095 9.66991 13.144C9.98488 13.3104 10.5111 13.3663 10.7933 13.2085C10.9998 13.0932 11.0739 12.5275 11.017 12.1951M7.11941 11.6103L7.35492 11.1692C7.35498 11.1693 7.35504 11.1693 7.3551 11.1693M7.11941 11.6103L7.3551 11.1693M11.017 12.1951C10.8601 11.2781 10.6534 10.3622 10.3683 9.47757M11.017 12.1951L10.5242 12.2795C10.5412 12.3788 10.5405 12.5427 10.5126 12.6905C10.5048 12.7317 10.4961 12.765 10.488 12.7906M11.017 12.1951L10.5242 12.2794C10.3701 11.3792 10.1684 10.4874 9.89238 9.63096M10.3683 9.47757C10.1844 8.90701 10.3551 8.59403 10.7828 8.25988C11.4942 7.70416 12.2025 7.13487 12.8397 6.49842C13.0969 6.24138 13.3186 5.76693 13.2636 5.44074C13.225 5.21267 12.7064 4.96033 12.3726 4.90802C11.5422 4.77805 10.6955 4.71687 9.85418 4.70256C9.10188 4.68989 8.64826 4.43358 8.41928 3.66625C8.17979 2.86327 7.84039 2.08128 7.45881 1.33423C7.30386 1.03085 6.92644 0.662667 6.64207 0.655608C6.3691 0.64891 5.97575 1.01691 5.8275 1.31577C5.40085 2.17559 5.04226 3.07325 4.71534 3.97706C4.54483 4.4486 4.28326 4.626 3.7938 4.64536C2.80147 4.68464 1.80625 4.74185 0.823699 4.87562C0.52086 4.91689 0.0987328 5.18044 0.0169139 5.43423M10.3683 9.47757L9.89238 9.63096M10.3683 9.47757L9.89237 9.63094C9.89237 9.63095 9.89238 9.63095 9.89238 9.63096M0.0169139 5.43423L0.492794 5.58765C0.488725 5.60027 0.485182 5.60635 0.485198 5.60636C0.485215 5.60637 0.489864 5.59848 0.503648 5.58337M0.0169139 5.43423L0.492815 5.58759C0.499917 5.56555 0.500068 5.55272 0.499999 5.55269C0.49995 5.55266 0.499788 5.55917 0.501974 5.57352C0.502449 5.57664 0.503006 5.57993 0.503648 5.58337M0.503648 5.58337C0.503735 5.58327 0.503823 5.58317 0.503912 5.58308C0.527488 5.55729 0.564984 5.52457 0.615452 5.4908C0.723553 5.41848 0.833641 5.3789 0.891149 5.37104M2.69672 12.4813C2.71389 12.7168 2.80394 12.7973 2.8425 12.8196C2.88415 12.8437 3.00812 12.8821 3.23473 12.7541M3.23473 12.7541C3.61975 12.5366 3.99502 12.3008 4.38181 12.0577C4.42956 12.0277 4.47748 11.9976 4.52563 11.9674C4.95927 11.6952 5.40793 11.4175 5.87659 11.1688M5.87659 11.1688L6.11087 11.6103L5.87662 11.1688C5.87661 11.1688 5.8766 11.1688 5.87659 11.1688ZM5.87659 11.1688C6.10518 11.0475 6.37812 11.0035 6.61522 11.0033C6.8521 11.0032 7.12586 11.0468 7.3551 11.1693M7.3551 11.1693C7.80347 11.4087 8.23081 11.6814 8.63932 11.942L8.66289 11.9571C9.08429 12.2259 9.4866 12.4816 9.90355 12.702M9.90355 12.702C9.90351 12.702 9.90347 12.7019 9.90342 12.7019L9.67097 13.142L9.90355 12.702ZM9.90355 12.702C9.98929 12.7472 10.1299 12.7882 10.2803 12.7991C10.3735 12.806 10.4426 12.7994 10.488 12.7906M10.488 12.7906C10.4819 12.8098 10.476 12.8246 10.4711 12.835C10.4699 12.8376 10.4689 12.8397 10.468 12.8413M10.488 12.7906C10.5206 12.7842 10.541 12.7767 10.5492 12.7721C10.5002 12.7995 10.4759 12.8297 10.468 12.8413M10.468 12.8413C10.4659 12.8444 10.465 12.8462 10.465 12.8463C10.4651 12.8464 10.4661 12.8449 10.468 12.8413Z" stroke="#A0A7A7"/>
</svg>
