<svg width="20" height="20" viewBox="0 0 20 20" fill="none" xmlns="http://www.w3.org/2000/svg">
<path d="M10 18.3333C5.3975 18.3333 1.66667 14.6025 1.66667 10C1.66667 5.3975 5.3975 1.66667 10 1.66667C14.6025 1.66667 18.3333 5.3975 18.3333 10C18.3333 14.6025 14.6025 18.3333 10 18.3333ZM5.83334 7.5H7.5V10.8333H9.16667V7.5H10.8333L8.33334 4.58333L5.83334 7.5ZM14.1667 12.5H12.5V9.16667H10.8333V12.5H9.16667L11.6667 15.4167L14.1667 12.5Z" fill="#D2D2E3"/>
<path d="M5.8333 7.5H7.49996V10.8333H9.16663V7.5H10.8333L8.3333 4.58334L5.8333 7.5ZM14.1666 12.5H12.5V9.16667H10.8333V12.5H9.16663L11.6666 15.4167L14.1666 12.5Z" fill="#1F1F33"/>
</svg>
