<svg width="16" height="16" viewBox="0 0 16 16" fill="none" xmlns="http://www.w3.org/2000/svg">
<path fill-rule="evenodd" clip-rule="evenodd" d="M0 8C0 12.4112 3.5888 16 8 16C12.4112 16 16 12.4112 16 8C16 3.5888 12.4112 0 8 0C3.5888 0 0 3.5888 0 8ZM12.1657 6.56569C12.4781 6.25327 12.4781 5.74673 12.1657 5.43431C11.8533 5.1219 11.3467 5.1219 11.0343 5.43431L7.2 9.26863L5.36569 7.43431C5.05327 7.12189 4.54673 7.12189 4.23431 7.43431C3.9219 7.74673 3.9219 8.25327 4.23431 8.56569L6.63432 10.9657C6.94673 11.2781 7.45327 11.2781 7.76569 10.9657L12.1657 6.56569Z" fill="#122224"/>
</svg>
