<svg width="17" height="17" viewBox="0 0 17 17" fill="none" xmlns="http://www.w3.org/2000/svg">
<path fill-rule="evenodd" clip-rule="evenodd" d="M0.166504 8.5013C0.166504 3.89922 3.89775 0.167969 8.49983 0.167969C13.1019 0.167969 16.8332 3.89922 16.8332 8.5013C16.8332 13.1034 13.1019 16.8346 8.49983 16.8346C3.89775 16.8346 0.166504 13.1034 0.166504 8.5013ZM9.43735 10.1696H7.6573V10.052C7.6664 8.41407 8.06701 8.17417 8.80225 7.73389C8.87995 7.68736 8.96139 7.63859 9.0465 7.5857C9.65522 7.20336 10.1231 6.7204 10.1231 6.01609C10.1231 5.22626 9.5043 4.71312 8.73459 4.71312C8.02525 4.71312 7.35373 5.04468 7.30845 5.99047H5.41959C5.4699 4.07877 6.98388 3.08463 8.74465 3.08463C10.6664 3.08463 11.9895 4.29054 11.9895 5.99094C11.9895 7.14299 11.411 7.8976 10.4853 8.45099C10.4148 8.49423 10.3488 8.53398 10.287 8.57121C9.62937 8.96712 9.44654 9.07719 9.43735 10.052V10.1696ZM9.57965 12.6796C9.57462 13.2934 9.06651 13.7864 8.47288 13.7864C7.85912 13.7864 7.36108 13.2934 7.36611 12.6796C7.36108 12.0759 7.85912 11.5829 8.47288 11.5829C9.06651 11.5829 9.57462 12.0759 9.57965 12.6796Z" fill="#A899BE"/>
</svg>
