<svg width="18" height="18" viewBox="0 0 18 18" fill="none" xmlns="http://www.w3.org/2000/svg">
<path fill-rule="evenodd" clip-rule="evenodd" d="M0.333496 9.00004C0.333496 4.21387 4.21399 0.333374 9.00016 0.333374C13.7863 0.333374 17.6668 4.21387 17.6668 9.00004C17.6668 13.7862 13.7863 17.6667 9.00016 17.6667C4.21399 17.6667 0.333496 13.7862 0.333496 9.00004ZM9.97517 10.735H8.12392V10.6128C8.13338 8.90932 8.55002 8.65983 9.31468 8.20193C9.39549 8.15354 9.48018 8.10282 9.56869 8.04781C10.2018 7.65018 10.6883 7.14791 10.6883 6.41543C10.6883 5.594 10.0448 5.06034 9.24431 5.06034C8.5066 5.06034 7.80821 5.40515 7.76112 6.38877H5.79671C5.84903 4.40061 7.42357 3.36671 9.25477 3.36671C11.2534 3.36671 12.6294 4.62085 12.6294 6.38927C12.6294 7.58739 12.0277 8.3722 11.065 8.94772C10.9917 8.99269 10.9231 9.03403 10.8588 9.07275C10.1749 9.48449 9.98474 9.59897 9.97517 10.6128V10.735ZM10.1232 13.3455C10.1179 13.9838 9.5895 14.4966 8.97213 14.4966C8.33382 14.4966 7.81585 13.9838 7.82108 13.3455C7.81585 12.7177 8.33382 12.2049 8.97213 12.2049C9.5895 12.2049 10.1179 12.7177 10.1232 13.3455Z" fill="#2E6672"/>
</svg>
