<svg width="16" height="16" viewBox="0 0 16 16" fill="none" xmlns="http://www.w3.org/2000/svg">
<path fill-rule="evenodd" clip-rule="evenodd" d="M0 8C0 3.582 3.582 0 8 0C12.418 0 16 3.582 16 8C16 12.418 12.418 16 8 16C3.582 16 0 12.418 0 8ZM8.90001 9.60153H7.19116V9.48872C7.1999 7.91626 7.58449 7.68596 8.29032 7.26328C8.36492 7.21862 8.4431 7.1718 8.5248 7.12102C9.10918 6.75398 9.55832 6.29034 9.55832 5.6142C9.55832 4.85596 8.96429 4.36335 8.22537 4.36335C7.5444 4.36335 6.89974 4.68164 6.85627 5.5896H5.04297C5.09126 3.75437 6.54469 2.8 8.23503 2.8C10.0799 2.8 11.3501 3.95767 11.3501 5.59005C11.3501 6.69602 10.7947 7.42045 9.90605 7.9517C9.83839 7.99321 9.775 8.03138 9.71564 8.06712C9.08435 8.44719 8.90884 8.55286 8.90001 9.48872V9.60153ZM9.03662 12.0112C9.03179 12.6004 8.54401 13.0737 7.97412 13.0737C7.38492 13.0737 6.90679 12.6004 6.91162 12.0112C6.90679 11.4317 7.38492 10.9584 7.97412 10.9584C8.54401 10.9584 9.03179 11.4317 9.03662 12.0112Z" fill="#8850EA"/>
</svg>
