<svg width="38" height="38" viewBox="0 0 38 38" fill="none" xmlns="http://www.w3.org/2000/svg">
<rect width="38" height="38" fill="#E5E5E5"/>
<g clip-path="url(#clip0_2290_2950)">
<rect width="1440" height="860" transform="translate(-967 -374)" fill="white"/>
<mask id="path-1-outside-1_2290_2950" maskUnits="userSpaceOnUse" x="-3" y="-34" width="38" height="38" fill="black">
<rect fill="white" x="-3" y="-34" width="38" height="38"/>
<path fill-rule="evenodd" clip-rule="evenodd" d="M31 -15C31 -6.71573 24.2843 0 16 0C7.71573 0 1 -6.71573 1 -15C1 -23.2843 7.71573 -30 16 -30C24.2843 -30 31 -23.2843 31 -15ZM8.93934 -17.5607L14.9393 -23.5607C15.5251 -24.1464 16.4749 -24.1464 17.0607 -23.5607L23.0607 -17.5607C23.6464 -16.9749 23.6464 -16.0251 23.0607 -15.4393C22.4749 -14.8536 21.5251 -14.8536 20.9393 -15.4393L17.5 -18.8787V-7.49998C17.5 -6.67156 16.8284 -5.99998 16 -5.99998C15.1716 -5.99998 14.5 -6.67156 14.5 -7.49998V-18.8787L11.0607 -15.4393C10.4749 -14.8536 9.52513 -14.8536 8.93934 -15.4393C8.35355 -16.0251 8.35355 -16.9749 8.93934 -17.5607Z"/>
</mask>
<path fill-rule="evenodd" clip-rule="evenodd" d="M31 -15C31 -6.71573 24.2843 0 16 0C7.71573 0 1 -6.71573 1 -15C1 -23.2843 7.71573 -30 16 -30C24.2843 -30 31 -23.2843 31 -15ZM8.93934 -17.5607L14.9393 -23.5607C15.5251 -24.1464 16.4749 -24.1464 17.0607 -23.5607L23.0607 -17.5607C23.6464 -16.9749 23.6464 -16.0251 23.0607 -15.4393C22.4749 -14.8536 21.5251 -14.8536 20.9393 -15.4393L17.5 -18.8787V-7.49998C17.5 -6.67156 16.8284 -5.99998 16 -5.99998C15.1716 -5.99998 14.5 -6.67156 14.5 -7.49998V-18.8787L11.0607 -15.4393C10.4749 -14.8536 9.52513 -14.8536 8.93934 -15.4393C8.35355 -16.0251 8.35355 -16.9749 8.93934 -17.5607Z" fill="#8850EA"/>
<path fill-rule="evenodd" clip-rule="evenodd" d="M31 -15C31 -6.71573 24.2843 0 16 0C7.71573 0 1 -6.71573 1 -15C1 -23.2843 7.71573 -30 16 -30C24.2843 -30 31 -23.2843 31 -15ZM8.93934 -17.5607L14.9393 -23.5607C15.5251 -24.1464 16.4749 -24.1464 17.0607 -23.5607L23.0607 -17.5607C23.6464 -16.9749 23.6464 -16.0251 23.0607 -15.4393C22.4749 -14.8536 21.5251 -14.8536 20.9393 -15.4393L17.5 -18.8787V-7.49998C17.5 -6.67156 16.8284 -5.99998 16 -5.99998C15.1716 -5.99998 14.5 -6.67156 14.5 -7.49998V-18.8787L11.0607 -15.4393C10.4749 -14.8536 9.52513 -14.8536 8.93934 -15.4393C8.35355 -16.0251 8.35355 -16.9749 8.93934 -17.5607Z" stroke="white" stroke-width="8" mask="url(#path-1-outside-1_2290_2950)"/>
<mask id="path-2-outside-2_2290_2950" maskUnits="userSpaceOnUse" x="0" y="0" width="38" height="38" fill="black">
<rect fill="white" width="38" height="38"/>
<path fill-rule="evenodd" clip-rule="evenodd" d="M34 19C34 27.2843 27.2843 34 19 34C10.7157 34 4 27.2843 4 19C4 10.7157 10.7157 4 19 4C27.2843 4 34 10.7157 34 19ZM11.9393 16.4393L17.9393 10.4393C18.5251 9.85355 19.4749 9.85355 20.0607 10.4393L26.0607 16.4393C26.6464 17.0251 26.6464 17.9749 26.0607 18.5607C25.4749 19.1464 24.5251 19.1464 23.9393 18.5607L20.5 15.1213V26.5C20.5 27.3284 19.8284 28 19 28C18.1716 28 17.5 27.3284 17.5 26.5V15.1213L14.0607 18.5607C13.4749 19.1464 12.5251 19.1464 11.9393 18.5607C11.3536 17.9749 11.3536 17.0251 11.9393 16.4393Z"/>
</mask>
<path fill-rule="evenodd" clip-rule="evenodd" d="M34 19C34 27.2843 27.2843 34 19 34C10.7157 34 4 27.2843 4 19C4 10.7157 10.7157 4 19 4C27.2843 4 34 10.7157 34 19ZM11.9393 16.4393L17.9393 10.4393C18.5251 9.85355 19.4749 9.85355 20.0607 10.4393L26.0607 16.4393C26.6464 17.0251 26.6464 17.9749 26.0607 18.5607C25.4749 19.1464 24.5251 19.1464 23.9393 18.5607L20.5 15.1213V26.5C20.5 27.3284 19.8284 28 19 28C18.1716 28 17.5 27.3284 17.5 26.5V15.1213L14.0607 18.5607C13.4749 19.1464 12.5251 19.1464 11.9393 18.5607C11.3536 17.9749 11.3536 17.0251 11.9393 16.4393Z" fill="#8850EA"/>
<path fill-rule="evenodd" clip-rule="evenodd" d="M34 19C34 27.2843 27.2843 34 19 34C10.7157 34 4 27.2843 4 19C4 10.7157 10.7157 4 19 4C27.2843 4 34 10.7157 34 19ZM11.9393 16.4393L17.9393 10.4393C18.5251 9.85355 19.4749 9.85355 20.0607 10.4393L26.0607 16.4393C26.6464 17.0251 26.6464 17.9749 26.0607 18.5607C25.4749 19.1464 24.5251 19.1464 23.9393 18.5607L20.5 15.1213V26.5C20.5 27.3284 19.8284 28 19 28C18.1716 28 17.5 27.3284 17.5 26.5V15.1213L14.0607 18.5607C13.4749 19.1464 12.5251 19.1464 11.9393 18.5607C11.3536 17.9749 11.3536 17.0251 11.9393 16.4393Z" stroke="white" stroke-width="8" mask="url(#path-2-outside-2_2290_2950)"/>
</g>
<defs>
<clipPath id="clip0_2290_2950">
<rect width="1440" height="860" fill="white" transform="translate(-967 -374)"/>
</clipPath>
</defs>
</svg>
