<svg width="20" height="20" viewBox="0 0 20 20" fill="none" xmlns="http://www.w3.org/2000/svg">
<path d="M3.33334 18.3335C3.33334 16.5654 4.03572 14.8697 5.28596 13.6195C6.53621 12.3692 8.2319 11.6668 10 11.6668C11.7681 11.6668 13.4638 12.3692 14.7141 13.6195C15.9643 14.8697 16.6667 16.5654 16.6667 18.3335H15C15 17.0074 14.4732 15.7356 13.5355 14.798C12.5979 13.8603 11.3261 13.3335 10 13.3335C8.67393 13.3335 7.40216 13.8603 6.46448 14.798C5.52679 15.7356 5.00001 17.0074 5.00001 18.3335H3.33334ZM10 10.8335C7.23751 10.8335 5.00001 8.596 5.00001 5.8335C5.00001 3.071 7.23751 0.833496 10 0.833496C12.7625 0.833496 15 3.071 15 5.8335C15 8.596 12.7625 10.8335 10 10.8335ZM10 9.16683C11.8417 9.16683 13.3333 7.67516 13.3333 5.8335C13.3333 3.99183 11.8417 2.50016 10 2.50016C8.15834 2.50016 6.66668 3.99183 6.66668 5.8335C6.66668 7.67516 8.15834 9.16683 10 9.16683Z" fill="#7D7DA0"/>
</svg>
