<svg width="21" height="20" viewBox="0 0 21 20" fill="none" xmlns="http://www.w3.org/2000/svg">
<path d="M10.5 0C16.02 0 20.5 4.48 20.5 10C20.5 15.52 16.02 20 10.5 20C4.98 20 0.5 15.52 0.5 10C0.5 4.48 4.98 0 10.5 0ZM4.523 13.416C5.991 15.606 8.195 17 10.66 17C13.124 17 15.329 15.607 16.796 13.416C15.1317 11.8606 12.9379 10.9968 10.66 11C8.38171 10.9966 6.18751 11.8604 4.523 13.416ZM10.5 9C11.2956 9 12.0587 8.68393 12.6213 8.12132C13.1839 7.55871 13.5 6.79565 13.5 6C13.5 5.20435 13.1839 4.44129 12.6213 3.87868C12.0587 3.31607 11.2956 3 10.5 3C9.70435 3 8.94129 3.31607 8.37868 3.87868C7.81607 4.44129 7.5 5.20435 7.5 6C7.5 6.79565 7.81607 7.55871 8.37868 8.12132C8.94129 8.68393 9.70435 9 10.5 9Z" fill="#1F1F33"/>
</svg>
