<svg width="19" height="22" viewBox="0 0 19 22" fill="none" xmlns="http://www.w3.org/2000/svg">
<path fill-rule="evenodd" clip-rule="evenodd" d="M8.30281 2.21984C6.40599 3.47477 4.00601 4.33374 2.19475 4.62109C1.53729 4.72539 0.998494 5.33841 1.00001 6.09177L1.00092 6.54263C0.976575 12.0267 1.38281 16.8269 8.5712 20.0683C8.84146 20.1901 9.15042 20.1902 9.42071 20.0684C16.6151 16.827 17.0234 12.0267 16.9991 6.54263L16.9988 6.08787C16.9985 5.33603 16.4602 4.71771 15.8057 4.60119C14.0872 4.29525 11.5802 3.44524 9.68538 2.21596C9.25803 1.93872 8.72807 1.93849 8.30281 2.21984Z" fill="#39C696" stroke="#3E7A65"/>
<path fill-rule="evenodd" clip-rule="evenodd" d="M13.0192 8.26535C13.3149 8.55219 13.3282 9.03086 13.0489 9.33449L8.87388 13.8723C8.73473 14.0236 8.54104 14.1093 8.33841 14.1093C8.13577 14.1093 7.94209 14.0236 7.80294 13.8723L5.20114 11.0444C4.92178 10.7408 4.93505 10.2621 5.23078 9.97526C5.52651 9.68842 5.99272 9.70205 6.27208 10.0057L8.33841 12.2516L11.9779 8.29579C12.2573 7.99215 12.7235 7.97852 13.0192 8.26535Z" fill="white"/>
<path fill-rule="evenodd" clip-rule="evenodd" d="M8.75923 1.23295C6.74386 2.6157 4.19389 3.56215 2.26942 3.87877C1.57087 3.99369 0.9984 4.66916 1.00001 5.49924L1.00098 5.99603C0.975111 12.0386 1.40674 17.3278 9.0444 20.8993C9.33155 21.0335 9.65982 21.0336 9.947 20.8994C17.591 17.3279 18.0249 12.0387 17.999 5.99603L17.9988 5.49495C17.9984 4.66653 17.4265 3.98524 16.7311 3.85685C14.9052 3.51974 12.2415 2.58316 10.2282 1.22868C9.77416 0.923197 9.21107 0.922944 8.75923 1.23295Z" fill="#39C696" stroke="#3E7A65"/>
<path fill-rule="evenodd" clip-rule="evenodd" d="M13.7704 7.89425C14.0846 8.2103 14.0987 8.73772 13.8019 9.07229L9.366 14.0723C9.21815 14.2389 9.01236 14.3334 8.79706 14.3334C8.58176 14.3334 8.37597 14.2389 8.22812 14.0723L5.46371 10.9563C5.16689 10.6218 5.18099 10.0944 5.4952 9.77831C5.80942 9.46227 6.30476 9.47728 6.60158 9.81185L8.79706 12.2865L12.664 7.92779C12.9609 7.59322 13.4562 7.57821 13.7704 7.89425Z" fill="white"/>
</svg>
