<svg width="18" height="20" viewBox="0 0 18 20" fill="none" xmlns="http://www.w3.org/2000/svg">
<path fill-rule="evenodd" clip-rule="evenodd" d="M8.30281 1.20966C6.40599 2.45413 4.00601 3.30594 2.19475 3.59089C1.53729 3.69432 0.998494 4.30224 1.00001 5.04932L1.00092 5.49642C0.976575 10.9348 1.38281 15.695 8.5712 18.9093C8.84146 19.0302 9.15042 19.0302 9.42071 18.9095C16.6151 15.6951 17.0234 10.9348 16.9991 5.49642L16.9988 5.04545C16.9985 4.29988 16.4602 3.68671 15.8057 3.57116C14.0872 3.26777 11.5802 2.42485 9.68538 1.20581C9.25803 0.930877 8.72807 0.93065 8.30281 1.20966Z" fill="#6CD4B1" stroke="#69B399"/>
<path fill-rule="evenodd" clip-rule="evenodd" d="M13.0192 7.2048C13.3149 7.48924 13.3282 7.96392 13.0489 8.26503L8.87388 12.765C8.73473 12.915 8.54104 13 8.33841 13C8.13577 13 7.94209 12.915 7.80294 12.765L5.20114 9.96068C4.92178 9.65957 4.93505 9.18489 5.23078 8.90045C5.52651 8.61601 5.99272 8.62952 6.27208 8.93063L8.33841 11.1578L11.9779 7.23498C12.2573 6.93387 12.7235 6.92036 13.0192 7.2048Z" fill="white"/>
</svg>
