<svg width="48" height="48" viewBox="0 0 48 48" fill="none" xmlns="http://www.w3.org/2000/svg">
<rect width="48" height="48" rx="2" fill="#C3EAE3"/>
<path d="M13.044 11.768L24 9.33333L34.956 11.768C35.2521 11.8338 35.5169 11.9986 35.7067 12.2352C35.8965 12.4718 35.9999 12.766 36 13.0693V26.3853C35.9999 27.7023 35.6747 28.9989 35.0532 30.16C34.4317 31.3211 33.5332 32.3109 32.4373 33.0413L24 38.6667L15.5627 33.0413C14.467 32.311 13.5686 31.3215 12.9471 30.1606C12.3256 28.9997 12.0003 27.7034 12 26.3867V13.0693C12.0001 12.766 12.1035 12.4718 12.2933 12.2352C12.4831 11.9986 12.7479 11.8338 13.044 11.768ZM24 22.6667C24.8841 22.6667 25.7319 22.3155 26.357 21.6904C26.9821 21.0652 27.3333 20.2174 27.3333 19.3333C27.3333 18.4493 26.9821 17.6014 26.357 16.9763C25.7319 16.3512 24.8841 16 24 16C23.1159 16 22.2681 16.3512 21.643 16.9763C21.0179 17.6014 20.6667 18.4493 20.6667 19.3333C20.6667 20.2174 21.0179 21.0652 21.643 21.6904C22.2681 22.3155 23.1159 22.6667 24 22.6667ZM18.036 29.3333H29.964C29.8024 27.8645 29.1044 26.507 28.0039 25.521C26.9034 24.5349 25.4777 23.9896 24 23.9896C22.5223 23.9896 21.0966 24.5349 19.9961 25.521C18.8956 26.507 18.1976 27.8645 18.036 29.3333Z" fill="#10AEBA"/>
</svg>
