<svg width="103" height="110" viewBox="0 0 103 110" fill="none" xmlns="http://www.w3.org/2000/svg">
<path fill-rule="evenodd" clip-rule="evenodd" d="M47.0119 1.28121C34.8011 8.88631 19.3512 14.0918 7.69121 15.8332C3.45883 16.4653 -0.00967747 20.1803 8.51901e-05 24.7458L0.00592784 27.4781C-0.150779 60.7124 2.46438 89.8027 48.7396 109.446C50.4794 110.184 52.4683 110.185 54.2083 109.447C100.522 89.8034 103.151 60.7128 102.994 27.4781L102.993 24.7222C102.99 20.1659 99.5253 16.4188 95.3119 15.7126C84.2489 13.8586 68.1102 8.70737 55.9121 1.25771C53.1611 -0.422438 49.7495 -0.423831 47.0119 1.28121ZM70.5842 47.9078C72.5955 45.7591 72.5955 42.2754 70.5842 40.1266C68.5729 37.9779 65.3119 37.9779 63.3006 40.1266L46.3413 58.2446L39.6825 51.1309C37.6712 48.9822 34.4102 48.9822 32.3989 51.1309C30.3876 53.2797 30.3876 56.7634 32.3989 58.9122L42.6995 69.9165C44.7108 72.0652 47.9718 72.0652 49.9831 69.9165L70.5842 47.9078Z" fill="#8850EA"/>
</svg>
