<svg width="19" height="22" viewBox="0 0 19 22" fill="none" xmlns="http://www.w3.org/2000/svg">
<path fill-rule="evenodd" clip-rule="evenodd" d="M8.75923 1.23295C6.74386 2.6157 4.19389 3.56215 2.26942 3.87877C1.57087 3.99369 0.9984 4.66916 1.00001 5.49924L1.00098 5.99603C0.975111 12.0386 1.40674 17.3278 9.0444 20.8993C9.33155 21.0335 9.65982 21.0336 9.947 20.8994C17.591 17.3279 18.0249 12.0387 17.999 5.99603L17.9988 5.49495C17.9984 4.66653 17.4265 3.98524 16.7311 3.85685C14.9052 3.51974 12.2415 2.58316 10.2282 1.22868C9.77416 0.923197 9.21107 0.922944 8.75923 1.23295Z" fill="#01BA7C" stroke="#227256"/>
<path fill-rule="evenodd" clip-rule="evenodd" d="M13.7704 7.8943C14.0846 8.21034 14.0987 8.73777 13.8019 9.07233L9.366 14.0723C9.21815 14.239 9.01236 14.3334 8.79706 14.3334C8.58176 14.3334 8.37597 14.239 8.22812 14.0723L5.46371 10.9564C5.16689 10.6218 5.18099 10.0944 5.4952 9.77836C5.80942 9.46231 6.30476 9.47733 6.60158 9.81189L8.79706 12.2865L12.664 7.92783C12.9609 7.59327 13.4562 7.57825 13.7704 7.8943Z" fill="white"/>
</svg>
