<svg width="20" height="20" viewBox="0 0 20 20" fill="none" xmlns="http://www.w3.org/2000/svg">
<rect x="2" width="11" height="15" rx="2" fill="#8850EA"/>
<path d="M5 4H10" stroke="white" stroke-linecap="round" stroke-linejoin="round"/>
<path d="M5 7H10" stroke="white" stroke-linecap="round" stroke-linejoin="round"/>
<path d="M5 10H8" stroke="white" stroke-linecap="round" stroke-linejoin="round"/>
<path fill-rule="evenodd" clip-rule="evenodd" d="M18.9471 14.721C18.8781 14.5492 17.2091 10.4994 12.9995 10.4994C8.78991 10.4994 7.12092 14.5492 7.05191 14.721C6.9814 14.9003 6.9814 15.0998 7.05191 15.2791C7.12092 15.4509 8.78991 19.5007 12.9995 19.5007C17.2091 19.5007 18.8781 15.4509 18.9471 15.2791C19.0177 15.0998 19.0177 14.9003 18.9471 14.721Z" fill="#8850EA"/>
<path d="M7.05191 14.721L6.58794 14.5346L6.5866 14.538L7.05191 14.721ZM7.05191 15.2791L6.58659 15.4621L6.58795 15.4655L7.05191 15.2791ZM18.9471 15.2791L19.4111 15.4655L19.4124 15.4621L18.9471 15.2791ZM19.4111 14.5346C19.3658 14.4218 18.9039 13.304 17.8939 12.2071C16.8778 11.1037 15.2838 9.99939 12.9995 9.99939V10.9994C14.9249 10.9994 16.2701 11.92 17.1582 12.8845C18.0523 13.8554 18.4595 14.8484 18.4832 14.9074L19.4111 14.5346ZM12.9995 9.99939C10.7153 9.99939 9.12121 11.1037 8.10518 12.2071C7.09512 13.304 6.63327 14.4218 6.58795 14.5346L7.51586 14.9074C7.53955 14.8484 7.9467 13.8554 8.8408 12.8845C9.72892 11.92 11.0742 10.9994 12.9995 10.9994V9.99939ZM6.5866 14.538C6.46983 14.8349 6.46983 15.1652 6.5866 15.4621L7.51721 15.0961C7.49296 15.0344 7.49296 14.9657 7.51721 14.904L6.5866 14.538ZM6.58795 15.4655C6.63327 15.5783 7.09512 16.6961 8.10518 17.793C9.12121 18.8964 10.7153 20.0007 12.9995 20.0007V19.0007C11.0742 19.0007 9.72892 18.0801 8.8408 17.1156C7.9467 16.1446 7.53955 15.1517 7.51586 15.0927L6.58795 15.4655ZM12.9995 20.0007C15.2838 20.0007 16.8778 18.8964 17.8939 17.793C18.9039 16.6961 19.3658 15.5783 19.4111 15.4655L18.4832 15.0927C18.4595 15.1517 18.0523 16.1446 17.1582 17.1156C16.2701 18.0801 14.9249 19.0007 12.9995 19.0007V20.0007ZM19.4124 15.4621C19.5292 15.1652 19.5292 14.8349 19.4124 14.538L18.4818 14.904C18.5061 14.9657 18.5061 15.0344 18.4818 15.0961L19.4124 15.4621Z" fill="white"/>
<path d="M12.9995 13C11.8955 13 10.9995 13.896 10.9995 15C10.9995 16.104 11.8955 17 12.9995 17C14.1045 17 14.9995 16.104 14.9995 15C14.9995 13.896 14.1045 13 12.9995 13" stroke="white"/>
</svg>
