<svg width="23" height="23" viewBox="0 0 23 23" fill="none" xmlns="http://www.w3.org/2000/svg">
<path d="M14.1429 7.33333C14.1429 11.3834 10.9769 14.6667 7.07143 14.6667C3.16599 14.6667 0 11.3834 0 7.33333C0 3.28324 3.16599 0 7.07143 0C10.9769 0 14.1429 3.28324 14.1429 7.33333Z" fill="#414E50"/>
<path d="M18.0714 9.77734H14.9286V16.2959H11L16.5 21.9996L22 16.2959H18.0714V9.77734Z" fill="#414E50" stroke="#414E50" stroke-linejoin="round"/>
<path d="M9.5 5H5.75C5.05964 5 4.5 5.55964 4.5 6.25V6.25C4.5 6.94036 5.05964 7.5 5.75 7.5H8.25C8.94036 7.5 9.5 8.05964 9.5 8.75V8.75C9.5 9.44036 8.94036 10 8.25 10H4.5" stroke="white" stroke-linecap="round"/>
<path d="M7 3V12" stroke="white" stroke-linecap="round"/>
</svg>
