<svg width="17" height="18" viewBox="0 0 17 18" fill="none" xmlns="http://www.w3.org/2000/svg">
<path d="M8.90541 11.3589V18H0.333985C0.333719 16.9533 0.57306 15.9205 1.03367 14.9806C1.49428 14.0408 2.16393 13.2188 2.99131 12.5777C3.8187 11.9367 4.78185 11.4935 5.80697 11.2823C6.8321 11.071 7.89198 11.0972 8.90541 11.3589ZM7.19113 10.2857C4.3497 10.2857 2.04827 7.98429 2.04827 5.14286C2.04827 2.30143 4.3497 0 7.19113 0C10.0326 0 12.334 2.30143 12.334 5.14286C12.334 7.98429 10.0326 10.2857 7.19113 10.2857ZM13.1911 13.3594L15.0091 11.5406L16.222 12.7534L14.4031 14.5714L16.222 16.3894L15.0091 17.6023L13.1911 15.7834L11.3731 17.6023L10.1603 16.3894L11.9791 14.5714L10.1603 12.7534L11.3731 11.5406L13.1911 13.3594Z" fill="#1F1F33"/>
</svg>
